<svg width="24" height="23" viewBox="0 0 24 23" fill="none" xmlns="http://www.w3.org/2000/svg">
<g id="Group 427323061">
<path id="Vector" d="M20.2101 0.908203H4.39493C2.33533 0.908203 0.666992 2.4867 0.666992 4.432V19.3844C0.666992 21.3297 2.33533 22.9082 4.39493 22.9082H20.2101C22.2697 22.9082 23.9358 21.3297 23.9358 19.3844V4.432C23.938 2.48464 22.2697 0.908203 20.2101 0.908203Z" fill="#00ADEE"/>
<path id="Vector_2" d="M19.827 14.7252C18.8972 14.4305 17.6465 13.9792 16.2551 13.5032C17.0904 12.1287 17.7586 10.5647 18.1982 8.86458H13.6108V7.30257H19.2291V6.4309H13.6108V3.82617H11.3182C10.916 3.82617 10.916 4.20122 10.916 4.20122V6.42883H5.23394V7.30051H10.916V8.86251H6.22308V9.73419H15.3231C14.9912 10.8181 14.5428 11.8382 14.0131 12.7634C11.061 11.8423 7.909 11.0963 5.93073 11.5558C4.66464 11.8505 3.84916 12.376 3.36998 12.9283C1.1719 15.4567 2.74792 19.2979 7.39026 19.2979C10.1357 19.2979 12.7799 17.8513 14.8286 15.4671C17.8861 16.856 23.9374 19.2422 23.9374 19.2422V15.8421C23.9396 15.8421 23.179 15.7844 19.827 14.7252ZM6.95724 17.8286C3.337 17.8286 2.26654 15.1332 4.05578 13.6578C4.65365 13.1591 5.7439 12.9159 6.32419 12.8623C8.47391 12.6624 10.4654 13.4373 12.8151 14.5212C11.1644 16.5572 9.0608 17.8286 6.95724 17.8286Z" fill="white"/>
</g>
</svg>
