<svg width="18" height="15" viewBox="0 0 18 15" fill="none" xmlns="http://www.w3.org/2000/svg">
<g id="Group 427326511">
<path id="Rectangle 15754" d="M0 2.58203C0 1.47746 0.895431 0.582031 2 0.582031H16C17.1046 0.582031 18 1.47746 18 2.58203V12.082C18 13.1866 17.1046 14.082 16 14.082H1.8C0.805887 14.082 0 13.2761 0 12.282V2.58203Z" fill="white"/>
<g id="Group 427326470">
<g id="Group 427326468">
<g id="Group 427326467">
<path id="Ellipse 860" d="M11.2938 4.91837C11.2938 6.51504 9.99941 7.80939 8.40274 7.80939C6.80607 7.80939 5.51172 6.51504 5.51172 4.91837C5.51172 3.3217 6.80607 2.02734 8.40274 2.02734C9.99941 2.02734 11.2938 3.3217 11.2938 4.91837Z" fill="white"/>
<path id="Vector" fill-rule="evenodd" clip-rule="evenodd" d="M8.37601 1.88867C6.71428 1.88867 5.36719 3.23577 5.36719 4.8975C5.36719 6.55922 6.71428 7.90632 8.37601 7.90632H9.93614C11.2517 7.90632 12.5988 6.55922 12.5988 4.8975C12.5988 3.23577 11.2517 1.88867 9.93614 1.88867H8.37601ZM8.37603 7.68342C9.91467 7.68342 11.162 6.4361 11.162 4.89747C11.162 3.35884 9.91467 2.11152 8.37603 2.11152C6.83739 2.11152 5.59009 3.35884 5.59009 4.89747C5.59009 6.4361 6.83739 7.68342 8.37603 7.68342Z" fill="#004A98"/>
<path id="Vector_2" fill-rule="evenodd" clip-rule="evenodd" d="M7.70811 3.24415C7.05468 3.50865 6.59375 4.14928 6.59375 4.89754C6.59375 5.64581 7.05468 6.28644 7.70811 6.55094V3.24415ZM9.04537 6.55094C9.69882 6.28645 10.1598 5.64583 10.1598 4.89754C10.1598 4.14926 9.69882 3.50864 9.04537 3.24414V6.55094Z" fill="#004A98"/>
</g>
</g>
<g id="Group 427326469">
<g id="Diners Club">
<path d="M1.67632 10.4346V9.0116C1.67632 8.95943 1.67333 8.91789 1.66736 8.88697C1.66338 8.85606 1.65144 8.83287 1.63154 8.81742C1.61163 8.80003 1.58178 8.78843 1.54197 8.78264C1.50415 8.77684 1.4524 8.77394 1.38672 8.77394V8.64063C1.45439 8.64063 1.52704 8.64159 1.60467 8.64352C1.68428 8.64352 1.7639 8.64352 1.84351 8.64352C1.92512 8.64352 2.00473 8.64352 2.08236 8.64352C2.15998 8.64159 2.23363 8.64063 2.30329 8.64063C2.50432 8.64063 2.68246 8.67154 2.83771 8.73337C2.99495 8.7952 3.12731 8.87731 3.23479 8.97972C3.34227 9.08019 3.42388 9.19611 3.47961 9.3275C3.53534 9.45695 3.56321 9.59124 3.56321 9.73035C3.56321 9.86753 3.53634 10.0018 3.4826 10.1332C3.43085 10.2646 3.35123 10.3815 3.24375 10.4839C3.13627 10.5863 3.00092 10.6694 2.83771 10.7331C2.67649 10.795 2.48641 10.8259 2.26746 10.8259C2.21173 10.8239 2.14605 10.823 2.07042 10.823C1.99677 10.823 1.91915 10.823 1.83754 10.823C1.75793 10.823 1.67831 10.823 1.59869 10.823C1.52107 10.823 1.45041 10.8239 1.38672 10.8259V10.6839C1.45439 10.6839 1.50714 10.6819 1.54495 10.6781C1.58277 10.6723 1.61163 10.6607 1.63154 10.6433C1.65144 10.6259 1.66338 10.6008 1.66736 10.5679C1.67333 10.5351 1.67632 10.4906 1.67632 10.4346ZM2.00473 8.80582V10.4375C2.00473 10.4935 2.00772 10.537 2.01369 10.5679C2.01966 10.5988 2.03359 10.622 2.05549 10.6375C2.07738 10.6529 2.10823 10.6626 2.14804 10.6665C2.18984 10.6703 2.24657 10.6723 2.31822 10.6723C2.47347 10.6723 2.60683 10.6471 2.71829 10.5969C2.83174 10.5447 2.92429 10.4762 2.99595 10.3911C3.06959 10.3042 3.12333 10.2037 3.15717 10.0897C3.19299 9.9738 3.21091 9.85207 3.21091 9.72455C3.21091 9.57771 3.18802 9.44633 3.14224 9.3304C3.09845 9.21447 3.03476 9.11786 2.95116 9.04058C2.86757 8.96136 2.76506 8.90146 2.64365 8.86089C2.52223 8.81838 2.38589 8.79713 2.23462 8.79713C2.16695 8.79713 2.1152 8.79809 2.07937 8.80003C2.04554 8.80196 2.02066 8.80389 2.00473 8.80582Z" fill="black"/>
<path d="M4.23569 9.72745V10.5303C4.23569 10.5689 4.23669 10.5988 4.23868 10.6201C4.24266 10.6414 4.25161 10.6568 4.26555 10.6665C4.27948 10.6761 4.30038 10.6829 4.32824 10.6868C4.35611 10.6887 4.39492 10.6897 4.44468 10.6897V10.8259C4.37502 10.8259 4.31133 10.8249 4.25361 10.823C4.19588 10.821 4.14015 10.8201 4.08641 10.8201C4.02869 10.8201 3.96898 10.8201 3.90728 10.8201C3.84757 10.822 3.78288 10.8239 3.71322 10.8259V10.6897C3.76297 10.6897 3.80179 10.6887 3.82965 10.6868C3.85752 10.6848 3.87842 10.679 3.89235 10.6694C3.90628 10.6578 3.91424 10.6414 3.91623 10.6201C3.92022 10.5988 3.92221 10.5689 3.92221 10.5303V9.83468C3.92221 9.78831 3.92121 9.7516 3.91922 9.72455C3.91723 9.6975 3.91026 9.67722 3.89832 9.66369C3.88638 9.64823 3.86847 9.63954 3.84458 9.63761C3.82269 9.63374 3.79084 9.63181 3.74904 9.63181V9.51588C3.8207 9.50622 3.88339 9.49173 3.93713 9.47241C3.99087 9.45116 4.04163 9.41928 4.0894 9.37677H4.25361C4.24564 9.43473 4.24067 9.49656 4.23868 9.56225C4.23669 9.62601 4.23569 9.68108 4.23569 9.72745ZM4.0685 8.60875C4.12821 8.60875 4.17797 8.62903 4.21778 8.66961C4.25958 8.70825 4.28048 8.75269 4.28048 8.80293C4.28048 8.85123 4.25958 8.8947 4.21778 8.93334C4.17797 8.97199 4.12821 8.99131 4.0685 8.99131C4.03864 8.99131 4.01078 8.98648 3.9849 8.97682C3.96102 8.96522 3.93912 8.95073 3.91922 8.93334C3.89932 8.91596 3.88339 8.89567 3.87145 8.87248C3.8615 8.8493 3.85652 8.82611 3.85652 8.80293C3.85652 8.75269 3.87742 8.70825 3.91922 8.66961C3.96102 8.62903 4.01078 8.60875 4.0685 8.60875Z" fill="black"/>
<path d="M4.99476 9.37677C4.98879 9.427 4.98481 9.47144 4.98282 9.51009C4.98083 9.5468 4.97983 9.57674 4.97983 9.59993C5.01964 9.56515 5.05746 9.53424 5.09328 9.50719C5.1311 9.48014 5.16792 9.45792 5.20375 9.44053C5.23958 9.42121 5.28137 9.40575 5.32914 9.39416C5.37691 9.38063 5.42767 9.37387 5.48141 9.37387C5.55505 9.37387 5.61675 9.38643 5.66651 9.41155C5.71826 9.43473 5.75907 9.46758 5.78892 9.51009C5.82077 9.55066 5.84266 9.59896 5.85461 9.655C5.86854 9.7091 5.8755 9.76706 5.8755 9.82889V10.4984C5.8755 10.537 5.8775 10.5689 5.88148 10.594C5.88745 10.6191 5.8974 10.6394 5.91133 10.6549C5.92725 10.6684 5.94915 10.6781 5.97701 10.6839C6.00488 10.6877 6.0427 10.6897 6.09047 10.6897V10.8259C6.05464 10.8259 6.00289 10.8249 5.93522 10.823C5.86754 10.823 5.79688 10.823 5.72324 10.823C5.6496 10.8249 5.57894 10.8259 5.51126 10.8259C5.44359 10.8278 5.39184 10.8297 5.35601 10.8317V10.6897C5.40179 10.6897 5.43762 10.6877 5.46349 10.6839C5.49136 10.6781 5.51226 10.6684 5.52619 10.6549C5.54212 10.6394 5.55207 10.6201 5.55605 10.5969C5.56003 10.5718 5.56202 10.5399 5.56202 10.5013V9.83179C5.56202 9.73711 5.54311 9.67335 5.50529 9.64051C5.46947 9.60766 5.41075 9.59124 5.32914 9.59124C5.30725 9.59124 5.28038 9.59703 5.24853 9.60863C5.21868 9.62022 5.18683 9.63471 5.15299 9.6521C5.11916 9.66756 5.08632 9.68494 5.05447 9.70427C5.02461 9.72359 4.99973 9.74194 4.97983 9.75933V10.5013C4.97983 10.5399 4.98182 10.5718 4.9858 10.5969C4.99177 10.6201 5.00173 10.6394 5.01566 10.6549C5.03158 10.6684 5.05348 10.6781 5.08134 10.6839C5.10921 10.6877 5.14702 10.6897 5.19479 10.6897V10.8317C5.15897 10.8297 5.10622 10.8278 5.03656 10.8259C4.96888 10.8239 4.89823 10.823 4.82458 10.823C4.75094 10.823 4.68028 10.8239 4.6126 10.8259C4.54493 10.8278 4.49318 10.8297 4.45735 10.8317V10.6897C4.50313 10.6897 4.53996 10.6877 4.56782 10.6839C4.59569 10.6781 4.61659 10.6684 4.63052 10.6549C4.64644 10.6394 4.65639 10.6191 4.66037 10.594C4.66435 10.5689 4.66634 10.537 4.66634 10.4984V9.83468C4.66634 9.78831 4.66535 9.7516 4.66336 9.72455C4.66137 9.6975 4.6544 9.67722 4.64246 9.66369C4.63052 9.64823 4.6126 9.63954 4.58872 9.63761C4.56683 9.63374 4.53498 9.63181 4.49318 9.63181V9.51588C4.56484 9.50622 4.62654 9.49173 4.67829 9.47241C4.73203 9.45116 4.78378 9.41928 4.83354 9.37677H4.99476Z" fill="black"/>
<path d="M7.27946 9.98539H6.44648V10.0405C6.44648 10.0578 6.44648 10.0772 6.44648 10.0984C6.44648 10.1197 6.44748 10.1438 6.44947 10.1709C6.45345 10.2404 6.46539 10.3042 6.48529 10.3622C6.50719 10.4201 6.53505 10.4704 6.56889 10.5129C6.60273 10.5554 6.64253 10.5892 6.68831 10.6143C6.73608 10.6375 6.78883 10.6491 6.84655 10.6491C6.92616 10.6491 6.99782 10.6298 7.06151 10.5911C7.12719 10.5505 7.19188 10.4935 7.25557 10.4201L7.38992 10.5013C7.32623 10.6095 7.24363 10.6983 7.14212 10.7679C7.04061 10.8375 6.92318 10.8722 6.78982 10.8722C6.69627 10.8722 6.60969 10.8539 6.53008 10.8172C6.45046 10.7805 6.38179 10.7302 6.32407 10.6665C6.26635 10.6027 6.22057 10.5283 6.18673 10.4433C6.15489 10.3583 6.13897 10.2675 6.13897 10.1709C6.13897 10.0472 6.15489 9.93612 6.18673 9.83758C6.22057 9.73904 6.26735 9.65596 6.32706 9.58834C6.38677 9.51878 6.45643 9.46565 6.53605 9.42894C6.61765 9.39223 6.70623 9.37387 6.80176 9.37387C6.86745 9.37387 6.93313 9.3845 6.99881 9.40575C7.06649 9.427 7.1262 9.45888 7.17795 9.50139C7.2297 9.54197 7.27249 9.59413 7.30633 9.65789C7.34016 9.72165 7.35708 9.79604 7.35708 9.88106C7.35708 9.9197 7.3541 9.94675 7.34812 9.96221C7.34414 9.97766 7.32125 9.98539 7.27946 9.98539ZM6.47036 9.82889H6.98986C7.01374 9.82889 7.02668 9.82696 7.02867 9.82309C7.03265 9.81923 7.03464 9.80667 7.03464 9.78542C7.03464 9.75643 7.02867 9.72745 7.01673 9.69847C7.00677 9.66756 6.99085 9.63954 6.96896 9.61442C6.94706 9.5893 6.92019 9.56902 6.88835 9.55356C6.85849 9.5381 6.82465 9.53037 6.78684 9.53037C6.69727 9.53037 6.62561 9.55839 6.57187 9.61442C6.52012 9.67045 6.48629 9.74194 6.47036 9.82889Z" fill="black"/>
<path d="M7.93403 9.63181C7.96588 9.58737 7.99374 9.55163 8.01763 9.52458C8.04151 9.4956 8.06639 9.47048 8.09226 9.44922C8.12013 9.42797 8.15198 9.41058 8.1878 9.39706C8.22562 9.3816 8.26244 9.37387 8.29827 9.37387C8.32215 9.37387 8.34703 9.37774 8.37291 9.38546C8.40077 9.39319 8.42565 9.40478 8.44755 9.42024C8.46944 9.4357 8.48736 9.45599 8.50129 9.4811C8.51721 9.50429 8.52517 9.53231 8.52517 9.56515C8.52517 9.61346 8.50527 9.655 8.46546 9.68977C8.42565 9.72455 8.38087 9.74194 8.33111 9.74194C8.29528 9.74194 8.26642 9.73808 8.24453 9.73035C8.22263 9.72262 8.20373 9.71393 8.1878 9.70427C8.17387 9.6946 8.16193 9.68591 8.15198 9.67818C8.14202 9.67045 8.13108 9.66659 8.11913 9.66659C8.10321 9.66659 8.0843 9.67239 8.06241 9.68398C8.0425 9.69557 8.0226 9.71199 8.0027 9.73325C7.98478 9.75257 7.96886 9.77769 7.95493 9.8086C7.941 9.83758 7.93403 9.86946 7.93403 9.90424V10.4984C7.93403 10.5428 7.93602 10.5776 7.94 10.6027C7.94597 10.6278 7.9599 10.6471 7.9818 10.6607C8.00369 10.6742 8.03653 10.6829 8.08032 10.6868C8.12411 10.6887 8.18382 10.6897 8.25946 10.6897V10.8317C8.20771 10.8297 8.14302 10.8278 8.06539 10.8259C7.98777 10.8239 7.90716 10.823 7.82356 10.823C7.74196 10.823 7.66135 10.823 7.58173 10.823C7.50411 10.8249 7.43842 10.8278 7.38468 10.8317V10.6897C7.44041 10.6897 7.4842 10.6887 7.51605 10.6868C7.54789 10.6829 7.57178 10.6752 7.5877 10.6636C7.60362 10.652 7.61258 10.6336 7.61457 10.6085C7.61855 10.5815 7.62054 10.5447 7.62054 10.4984V9.83468C7.62054 9.78831 7.61955 9.7516 7.61756 9.72455C7.61557 9.6975 7.6086 9.67722 7.59666 9.66369C7.58472 9.64823 7.5668 9.63954 7.54292 9.63761C7.52102 9.63374 7.48918 9.63181 7.44738 9.63181V9.51588C7.51903 9.50622 7.58173 9.49173 7.63547 9.47241C7.68921 9.45116 7.73997 9.41928 7.78774 9.37677H7.95194C7.94995 9.40189 7.94796 9.427 7.94597 9.45212C7.94398 9.47531 7.94199 9.49946 7.94 9.52458C7.93801 9.5497 7.93602 9.57191 7.93403 9.59124C7.93403 9.60863 7.93403 9.62215 7.93403 9.63181Z" fill="black"/>
<path d="M8.54979 10.3564H8.72594C8.7339 10.4047 8.74485 10.451 8.75878 10.4955C8.7747 10.5399 8.79461 10.5786 8.81849 10.6114C8.84237 10.6442 8.87124 10.6713 8.90507 10.6926C8.9409 10.7119 8.9827 10.7215 9.03047 10.7215C9.11605 10.7215 9.17377 10.7022 9.20363 10.6636C9.23548 10.6249 9.2514 10.5805 9.2514 10.5303C9.2514 10.4897 9.24443 10.4549 9.2305 10.4259C9.21657 10.3969 9.19666 10.3718 9.17079 10.3506C9.14491 10.3274 9.11406 10.3071 9.07824 10.2897C9.0444 10.2704 9.00658 10.2491 8.96478 10.2259C8.85133 10.1699 8.75778 10.1081 8.68414 10.0405C8.61248 9.97283 8.57666 9.88878 8.57666 9.78831C8.57666 9.73615 8.5876 9.68591 8.6095 9.63761C8.63338 9.58737 8.66722 9.54293 8.71101 9.50429C8.7548 9.46565 8.80854 9.43473 8.87223 9.41155C8.93592 9.38643 9.00758 9.37387 9.08719 9.37387C9.15088 9.37387 9.21358 9.3816 9.27528 9.39706C9.33898 9.41251 9.40764 9.43956 9.48129 9.47821L9.50219 9.83179H9.335C9.31907 9.71972 9.28822 9.64147 9.24244 9.59703C9.19666 9.55259 9.13596 9.53037 9.06032 9.53037C9.0026 9.53037 8.95284 9.54583 8.91104 9.57674C8.86925 9.60573 8.84835 9.64823 8.84835 9.70427C8.84835 9.74484 8.8583 9.77962 8.8782 9.8086C8.89811 9.83758 8.92398 9.86463 8.95583 9.88975C8.98966 9.91294 9.02748 9.93516 9.06928 9.95641C9.11108 9.97766 9.15487 9.99892 9.20064 10.0202C9.24443 10.0395 9.28822 10.0598 9.33201 10.081C9.3758 10.1023 9.41461 10.1284 9.44845 10.1593C9.48427 10.1902 9.51313 10.2279 9.53503 10.2723C9.55692 10.3148 9.56787 10.368 9.56787 10.4317C9.56787 10.4858 9.55692 10.5399 9.53503 10.594C9.51313 10.6462 9.4793 10.6935 9.43352 10.736C9.38774 10.7766 9.33002 10.8094 9.26036 10.8346C9.19069 10.8597 9.1071 10.8722 9.00957 10.8722C8.93791 10.8722 8.86626 10.8626 8.79461 10.8433C8.72295 10.8239 8.65627 10.795 8.59457 10.7563L8.54979 10.3564Z" fill="black"/>
<path d="M12.5221 8.75945L12.5549 9.24925H12.3847C12.3569 9.06956 12.2942 8.94107 12.1966 8.86379C12.0991 8.7865 11.9638 8.74786 11.7906 8.74786C11.6692 8.74786 11.5557 8.77104 11.4502 8.81742C11.3467 8.86186 11.2562 8.92562 11.1786 9.0087C11.1009 9.08985 11.0402 9.18935 10.9964 9.30721C10.9526 9.42314 10.9308 9.55259 10.9308 9.69557C10.9308 9.85207 10.9546 9.99312 11.0024 10.1187C11.0502 10.2443 11.1149 10.3515 11.1965 10.4404C11.2801 10.5293 11.3766 10.5979 11.4861 10.6462C11.5975 10.6945 11.715 10.7186 11.8384 10.7186C11.9916 10.7186 12.113 10.6713 12.2026 10.5766C12.2922 10.4819 12.3519 10.3554 12.3817 10.197H12.5639L12.4803 10.707C12.4444 10.7302 12.3977 10.7524 12.3399 10.7737C12.2842 10.793 12.2245 10.8094 12.1608 10.823C12.0971 10.8384 12.0324 10.85 11.9668 10.8577C11.9011 10.8674 11.8414 10.8722 11.7876 10.8722C11.6085 10.8722 11.4443 10.8442 11.295 10.7882C11.1477 10.7322 11.0203 10.6529 10.9128 10.5505C10.8074 10.4481 10.7247 10.3254 10.665 10.1825C10.6073 10.0376 10.5785 9.87816 10.5785 9.70427C10.5785 9.5439 10.6123 9.39609 10.68 9.26084C10.7476 9.12366 10.8372 9.0058 10.9487 8.90726C11.0601 8.80872 11.1875 8.7324 11.3308 8.6783C11.4761 8.62227 11.6254 8.59425 11.7787 8.59425C11.91 8.59425 12.0384 8.61068 12.1638 8.64352C12.2912 8.67637 12.4106 8.71501 12.5221 8.75945Z" fill="black"/>
<path d="M12.8452 10.4984V8.92175C12.8452 8.87345 12.8442 8.83674 12.8423 8.81162C12.8403 8.78457 12.8333 8.76525 12.8214 8.75366C12.8094 8.74013 12.7895 8.73337 12.7616 8.73337C12.7358 8.73144 12.698 8.73047 12.6482 8.73047V8.61454C12.7995 8.59522 12.9219 8.54402 13.0154 8.46094H13.1796C13.1737 8.52083 13.1687 8.58363 13.1647 8.64932C13.1607 8.71308 13.1587 8.76718 13.1587 8.81162V10.4984C13.1587 10.537 13.1607 10.5689 13.1647 10.594C13.1707 10.6191 13.1806 10.6394 13.1946 10.6549C13.2105 10.6684 13.2314 10.6781 13.2573 10.6839C13.2851 10.6877 13.3219 10.6897 13.3677 10.6897V10.8288C13.318 10.8268 13.2602 10.8249 13.1946 10.823C13.1309 10.823 13.0652 10.823 12.9975 10.823C12.9318 10.823 12.8671 10.8239 12.8034 10.8259C12.7398 10.8278 12.684 10.8297 12.6363 10.8317V10.6897C12.686 10.6897 12.7248 10.6877 12.7527 10.6839C12.7806 10.68 12.8015 10.6713 12.8154 10.6578C12.8293 10.6442 12.8373 10.6249 12.8393 10.5998C12.8433 10.5747 12.8452 10.5409 12.8452 10.4984Z" fill="black"/>
<path d="M14.4821 10.8259V10.6491C14.4224 10.7128 14.3507 10.765 14.2671 10.8056C14.1835 10.8462 14.082 10.8684 13.9626 10.8722C13.9188 10.8722 13.874 10.8645 13.8282 10.8491C13.7844 10.8355 13.7446 10.8133 13.7088 10.7824C13.673 10.7496 13.6441 10.709 13.6222 10.6607C13.6003 10.6124 13.5894 10.5544 13.5894 10.4868V9.70427C13.5894 9.67335 13.5874 9.6492 13.5834 9.63181C13.5814 9.61249 13.5735 9.598 13.5595 9.58834C13.5476 9.57674 13.5287 9.56998 13.5028 9.56805C13.4789 9.56419 13.4451 9.56032 13.4013 9.55646V9.44343C13.469 9.4415 13.5476 9.4386 13.6371 9.43473C13.7267 9.42894 13.8193 9.42217 13.9148 9.41445C13.9108 9.45888 13.9078 9.50912 13.9059 9.56515C13.9039 9.62118 13.9029 9.66562 13.9029 9.69847V10.3245C13.9029 10.3979 13.9059 10.4568 13.9118 10.5013C13.9198 10.5438 13.9307 10.5766 13.9447 10.5998C13.9606 10.623 13.9795 10.6385 14.0014 10.6462C14.0253 10.6539 14.0541 10.6578 14.088 10.6578C14.1457 10.6578 14.2124 10.6414 14.288 10.6085C14.3636 10.5757 14.4293 10.5322 14.4851 10.4781V9.70427C14.4851 9.67335 14.4821 9.6492 14.4761 9.63181C14.4701 9.61442 14.4592 9.6009 14.4433 9.59124C14.4273 9.57964 14.4054 9.57191 14.3776 9.56805C14.3497 9.56419 14.3129 9.56032 14.2671 9.55646V9.44343C14.3348 9.4415 14.4184 9.4386 14.5179 9.43473C14.6174 9.42894 14.7149 9.42217 14.8105 9.41445C14.8065 9.45888 14.8035 9.50912 14.8015 9.56515C14.7995 9.62118 14.7985 9.66562 14.7985 9.69847V10.5708C14.7985 10.5959 14.7995 10.6162 14.8015 10.6317C14.8055 10.6452 14.8135 10.6549 14.8254 10.6607C14.8393 10.6665 14.8602 10.6694 14.8881 10.6694C14.916 10.6674 14.9548 10.6645 15.0045 10.6607V10.7766C14.9807 10.7824 14.9518 10.7892 14.918 10.7969C14.8841 10.8027 14.8483 10.8104 14.8105 10.8201C14.7747 10.8278 14.7388 10.8365 14.703 10.8462C14.6672 10.8558 14.6353 10.8655 14.6075 10.8751C14.5736 10.8887 14.5438 10.8867 14.5179 10.8693C14.494 10.852 14.4821 10.8375 14.4821 10.8259Z" fill="black"/>
<path d="M15.4262 8.46094H15.5904C15.5845 8.52083 15.5795 8.58266 15.5755 8.64642C15.5735 8.71018 15.5725 8.76332 15.5725 8.80582V9.55936C15.5904 9.54197 15.6123 9.52265 15.6382 9.50139C15.6641 9.48014 15.6949 9.46082 15.7308 9.44343C15.7666 9.42604 15.8084 9.41058 15.8562 9.39706C15.9039 9.3816 15.9517 9.37387 15.9995 9.37387C16.095 9.37387 16.1806 9.39319 16.2562 9.43183C16.3319 9.46855 16.3966 9.51878 16.4503 9.58254C16.504 9.64437 16.5448 9.71586 16.5727 9.79701C16.6026 9.87623 16.6175 9.95931 16.6175 10.0463C16.6175 10.1545 16.5986 10.2588 16.5608 10.3593C16.5229 10.4578 16.4692 10.5457 16.3995 10.623C16.3319 10.6983 16.2493 10.7592 16.1517 10.8056C16.0562 10.85 15.9507 10.8722 15.8353 10.8722C15.7298 10.8722 15.6402 10.8597 15.5666 10.8346C15.4929 10.8114 15.4422 10.7901 15.4143 10.7708L15.3456 10.8606L15.2083 10.794C15.2242 10.6993 15.2362 10.6056 15.2441 10.5129C15.2521 10.4182 15.2561 10.3235 15.2561 10.2288V8.92175C15.2561 8.87345 15.2551 8.83674 15.2531 8.81162C15.2511 8.78457 15.2441 8.76525 15.2322 8.75366C15.2202 8.74013 15.2003 8.73337 15.1725 8.73337C15.1466 8.73144 15.1098 8.73047 15.062 8.73047V8.61454C15.2113 8.59329 15.3327 8.54209 15.4262 8.46094ZM15.5725 9.75643V10.452C15.5725 10.5389 15.5954 10.6085 15.6412 10.6607C15.687 10.7109 15.7606 10.736 15.8621 10.736C15.9378 10.736 16.0035 10.7186 16.0592 10.6839C16.1169 10.6471 16.1647 10.6008 16.2025 10.5447C16.2403 10.4887 16.2682 10.4269 16.2861 10.3593C16.306 10.2916 16.3159 10.2259 16.3159 10.1622C16.3159 10.0752 16.305 9.99602 16.2831 9.92453C16.2632 9.85304 16.2343 9.79218 16.1965 9.74194C16.1607 9.68977 16.1179 9.65017 16.0681 9.62312C16.0184 9.59607 15.9656 9.58254 15.9099 9.58254C15.882 9.58254 15.8522 9.58737 15.8203 9.59703C15.7905 9.60669 15.7606 9.62022 15.7308 9.63761C15.7009 9.65306 15.6721 9.67142 15.6442 9.69267C15.6163 9.71199 15.5924 9.73325 15.5725 9.75643Z" fill="black"/>
</g>
<g id="INTERNATIONAL">
<path d="M1.55409 12.6909V11.8625C1.55409 11.8267 1.55235 11.799 1.54886 11.7794C1.54654 11.7586 1.53956 11.7436 1.52794 11.7343C1.51632 11.7239 1.49946 11.7176 1.47738 11.7152C1.4553 11.7118 1.42508 11.71 1.38672 11.71V11.6251C1.40415 11.6263 1.42624 11.6274 1.45297 11.6286C1.48087 11.6286 1.51109 11.6292 1.54363 11.6303C1.57734 11.6303 1.61163 11.6303 1.6465 11.6303C1.68253 11.6303 1.71682 11.6303 1.74936 11.6303C1.78191 11.6292 1.81213 11.6286 1.84002 11.6286C1.86908 11.6286 1.89233 11.628 1.90976 11.6269V11.71C1.8714 11.71 1.84118 11.7118 1.8191 11.7152C1.79818 11.7176 1.78191 11.7239 1.77028 11.7343C1.75982 11.7436 1.75285 11.7586 1.74936 11.7794C1.74704 11.799 1.74587 11.8267 1.74587 11.8625V12.6909C1.74587 12.7267 1.74762 12.7556 1.7511 12.7775C1.75459 12.7983 1.76215 12.8145 1.77377 12.8261C1.78539 12.8376 1.80166 12.8457 1.82259 12.8503C1.84467 12.8538 1.87373 12.8555 1.90976 12.8555V12.9387C1.88303 12.9375 1.84583 12.9364 1.79818 12.9352C1.75052 12.9352 1.70054 12.9352 1.64824 12.9352C1.5971 12.9352 1.5477 12.9358 1.50004 12.937C1.45239 12.9381 1.41461 12.9393 1.38672 12.9404V12.8555C1.42275 12.8555 1.45181 12.8538 1.47389 12.8503C1.49598 12.8457 1.51283 12.8376 1.52445 12.8261C1.53724 12.8145 1.54537 12.7983 1.54886 12.7775C1.55235 12.7556 1.55409 12.7267 1.55409 12.6909Z" fill="black"/>
<path d="M3.23202 11.8695V12.9543H3.12218L2.28357 11.9232V12.6978C2.28357 12.7348 2.28532 12.7643 2.2888 12.7862C2.29229 12.807 2.29985 12.8226 2.31147 12.833C2.32309 12.8434 2.33995 12.8497 2.36203 12.8521C2.38411 12.8544 2.41375 12.8555 2.45095 12.8555V12.937C2.4184 12.9358 2.38005 12.9352 2.33588 12.9352C2.29287 12.9352 2.2487 12.9352 2.20337 12.9352C2.15804 12.9352 2.11329 12.9352 2.06913 12.9352C2.02612 12.9364 1.98835 12.9375 1.9558 12.9387V12.8555C1.99648 12.8555 2.02903 12.8544 2.05344 12.8521C2.07901 12.8486 2.09877 12.8417 2.11271 12.8313C2.12666 12.8197 2.13596 12.803 2.14061 12.781C2.14526 12.7591 2.14758 12.729 2.14758 12.6909V11.8695C2.14758 11.8371 2.1441 11.8111 2.13712 11.7915C2.13015 11.7707 2.11794 11.7545 2.10051 11.743C2.08307 11.7303 2.05983 11.7216 2.03077 11.717C2.00287 11.7124 1.96742 11.71 1.92442 11.71V11.6269C1.94302 11.6292 1.96742 11.6309 1.99764 11.6321C2.02903 11.6321 2.06041 11.6321 2.09179 11.6321C2.12317 11.6321 2.15281 11.6315 2.18071 11.6303C2.2086 11.6292 2.23011 11.628 2.24522 11.6269L3.09254 12.6476V11.8591C3.09254 11.8267 3.0908 11.8007 3.08731 11.7811C3.08383 11.7615 3.07627 11.7464 3.06465 11.736C3.05303 11.7256 3.03559 11.7187 3.01234 11.7152C2.99026 11.7118 2.96004 11.71 2.92168 11.71V11.6269C2.94842 11.628 2.98329 11.6292 3.02629 11.6303C3.07046 11.6303 3.11579 11.6303 3.16228 11.6303C3.20994 11.6303 3.25527 11.6303 3.29827 11.6303C3.34128 11.6292 3.37557 11.628 3.40114 11.6269V11.71C3.36046 11.71 3.32907 11.7118 3.30699 11.7152C3.28491 11.7176 3.26805 11.7239 3.25643 11.7343C3.24481 11.7447 3.23783 11.7609 3.23551 11.7828C3.23318 11.8036 3.23202 11.8325 3.23202 11.8695Z" fill="black"/>
<path d="M4.5752 11.6269L4.56126 11.9024H4.45142C4.45026 11.8677 4.44793 11.8394 4.44444 11.8175C4.44212 11.7955 4.43573 11.7788 4.42527 11.7672C4.41597 11.7545 4.40144 11.7459 4.38168 11.7412C4.36308 11.7366 4.33751 11.7343 4.30497 11.7343H4.09052V12.6909C4.09052 12.7279 4.09226 12.7573 4.09575 12.7793C4.09924 12.8001 4.10679 12.8162 4.11841 12.8278C4.13004 12.8382 4.14689 12.8457 4.16898 12.8503C4.19106 12.8538 4.22012 12.8555 4.25615 12.8555V12.937C4.22244 12.9358 4.18234 12.9352 4.13585 12.9352C4.09052 12.9352 4.04345 12.9352 3.99463 12.9352C3.94581 12.9352 3.89816 12.9352 3.85166 12.9352C3.80517 12.9364 3.76565 12.9375 3.73311 12.9387V12.8555C3.76914 12.8555 3.79762 12.8538 3.81854 12.8503C3.84062 12.8457 3.85748 12.8382 3.8691 12.8278C3.88072 12.8162 3.88828 12.8001 3.89176 12.7793C3.89641 12.7573 3.89874 12.7279 3.89874 12.6909V11.7343H3.71567C3.6808 11.7343 3.65233 11.7366 3.63024 11.7412C3.60932 11.7447 3.59189 11.7522 3.57794 11.7638C3.56515 11.7753 3.55411 11.7927 3.54481 11.8158C3.53668 11.8377 3.52854 11.8666 3.5204 11.9024H3.40708L3.43149 11.6269C3.50936 11.6303 3.59828 11.6326 3.69824 11.6338C3.7982 11.635 3.8999 11.6355 4.00335 11.6355C4.10795 11.6355 4.20966 11.635 4.30845 11.6338C4.40841 11.6315 4.49733 11.6292 4.5752 11.6269Z" fill="black"/>
<path d="M4.97866 11.7222V12.2057H5.20356C5.22216 12.2057 5.23785 12.2039 5.25064 12.2005C5.26342 12.197 5.2733 12.1895 5.28028 12.1779C5.28841 12.1664 5.29364 12.1508 5.29597 12.1312C5.29946 12.1104 5.3012 12.0826 5.3012 12.048H5.40755V12.4899H5.3012C5.3012 12.4506 5.30004 12.4194 5.29771 12.3963C5.29539 12.372 5.29074 12.3541 5.28376 12.3426C5.27679 12.331 5.26691 12.3235 5.25412 12.32C5.24134 12.3166 5.2239 12.3148 5.20182 12.3148H4.97866V12.6978C4.97866 12.7313 4.9804 12.7579 4.98389 12.7775C4.98854 12.7972 4.99725 12.8122 5.01004 12.8226C5.02282 12.8318 5.04084 12.8382 5.06409 12.8417C5.0885 12.844 5.12104 12.8451 5.16172 12.8451H5.28551C5.32735 12.8451 5.36164 12.8422 5.38837 12.8365C5.41627 12.8307 5.43951 12.8197 5.45811 12.8035C5.47787 12.7862 5.49414 12.7631 5.50693 12.7342C5.52088 12.7053 5.5354 12.6678 5.55051 12.6216H5.66384C5.64757 12.6724 5.6313 12.725 5.61502 12.7793C5.59875 12.8336 5.5848 12.8861 5.57318 12.937C5.49647 12.9358 5.41685 12.9347 5.33432 12.9335C5.25296 12.9335 5.17102 12.9335 5.0885 12.9335C5.00713 12.9335 4.92635 12.9335 4.84615 12.9335C4.76595 12.9347 4.68924 12.9358 4.61601 12.937V12.8555C4.65437 12.8555 4.68459 12.8538 4.70668 12.8503C4.72876 12.8469 4.74561 12.8393 4.75724 12.8278C4.77002 12.8162 4.77816 12.8001 4.78164 12.7793C4.78513 12.7585 4.78687 12.7307 4.78687 12.6961V11.8591C4.78687 11.8244 4.78513 11.7973 4.78164 11.7776C4.77816 11.758 4.7706 11.7436 4.75898 11.7343C4.74736 11.7239 4.72992 11.7176 4.70668 11.7152C4.68459 11.7129 4.65437 11.7118 4.61601 11.7118V11.6303C4.68808 11.6315 4.76247 11.6326 4.83918 11.6338C4.91705 11.6338 4.99493 11.6338 5.0728 11.6338C5.15184 11.6338 5.22914 11.6338 5.30469 11.6338C5.38024 11.6326 5.4523 11.6315 5.52088 11.6303V11.9423H5.41627C5.41162 11.8926 5.40581 11.8533 5.39883 11.8244C5.39302 11.7944 5.38256 11.7719 5.36745 11.7568C5.35234 11.7418 5.33142 11.7326 5.30469 11.7291C5.27795 11.7245 5.24308 11.7222 5.20008 11.7222H4.97866Z" fill="black"/>
<path d="M6.21374 12.3356H6.05335V12.6944C6.05335 12.729 6.05509 12.7567 6.05858 12.7775C6.06206 12.7983 6.06904 12.8145 6.0795 12.8261C6.09112 12.8376 6.10797 12.8457 6.13006 12.8503C6.15214 12.8538 6.18236 12.8555 6.22072 12.8555V12.9404C6.19282 12.9393 6.15505 12.9381 6.10739 12.937C6.05974 12.9358 6.00976 12.9352 5.95745 12.9352C5.90631 12.9352 5.85691 12.9352 5.80926 12.9352C5.7616 12.9364 5.72441 12.9381 5.69768 12.9404V12.8573C5.73487 12.8573 5.76393 12.8561 5.78485 12.8538C5.80693 12.8503 5.82379 12.8434 5.83541 12.833C5.84703 12.8214 5.85401 12.8047 5.85633 12.7827C5.85982 12.7608 5.86156 12.7302 5.86156 12.6909V11.8625C5.86156 11.8279 5.85982 11.8007 5.85633 11.7811C5.85285 11.7615 5.84529 11.7464 5.83367 11.736C5.82321 11.7256 5.80693 11.7187 5.78485 11.7152C5.76277 11.7118 5.73371 11.71 5.69768 11.71V11.6286C5.73022 11.6286 5.76974 11.6292 5.81623 11.6303C5.86389 11.6303 5.9127 11.6303 5.96268 11.6303C6.01383 11.6303 6.06264 11.6303 6.10914 11.6303C6.15563 11.6303 6.19398 11.6298 6.22421 11.6286C6.31022 11.6286 6.38054 11.6402 6.43517 11.6633C6.49096 11.6864 6.53454 11.7152 6.56593 11.7499C6.59731 11.7834 6.61881 11.8204 6.63043 11.8608C6.64322 11.9001 6.64961 11.9359 6.64961 11.9683C6.64961 12.0098 6.64206 12.0485 6.62695 12.0844C6.613 12.1202 6.5944 12.1525 6.57116 12.1814C6.54791 12.2091 6.52118 12.2328 6.49096 12.2525C6.4619 12.2721 6.43226 12.286 6.40204 12.294C6.42296 12.3287 6.44679 12.3668 6.47352 12.4084C6.50142 12.45 6.52989 12.4916 6.55895 12.5332C6.58801 12.5736 6.61649 12.6123 6.64438 12.6493C6.67228 12.6863 6.69669 12.7175 6.71761 12.7429C6.74318 12.7729 6.77166 12.7995 6.80304 12.8226C6.83558 12.8445 6.87743 12.8555 6.92857 12.8555V12.9404C6.87859 12.937 6.82628 12.9352 6.77166 12.9352C6.71703 12.9352 6.66763 12.937 6.62346 12.9404C6.58975 12.8965 6.5543 12.848 6.51711 12.7949C6.48108 12.7417 6.44504 12.688 6.40901 12.6337C6.37298 12.5794 6.33811 12.5268 6.3044 12.476C6.2707 12.424 6.24048 12.3772 6.21374 12.3356ZM6.05335 12.2386L6.14401 12.2421C6.1998 12.2421 6.24687 12.2346 6.28523 12.2195C6.32358 12.2034 6.35438 12.1831 6.37763 12.1589C6.40204 12.1335 6.41947 12.1052 6.42993 12.074C6.4404 12.0428 6.44563 12.0116 6.44563 11.9804C6.44563 11.9423 6.4404 11.9076 6.42993 11.8764C6.42064 11.8452 6.40436 11.8181 6.38112 11.795C6.35903 11.7719 6.32939 11.7539 6.2922 11.7412C6.25501 11.7285 6.2091 11.7222 6.15447 11.7222C6.1289 11.7222 6.10797 11.7222 6.0917 11.7222C6.07659 11.7222 6.06381 11.7233 6.05335 11.7256V12.2386Z" fill="black"/>
<path d="M8.2456 11.8695V12.9543H8.13576L7.29715 11.9232V12.6978C7.29715 12.7348 7.29889 12.7643 7.30238 12.7862C7.30587 12.807 7.31342 12.8226 7.32505 12.833C7.33667 12.8434 7.35352 12.8497 7.37561 12.8521C7.39769 12.8544 7.42733 12.8555 7.46452 12.8555V12.937C7.43198 12.9358 7.39362 12.9352 7.34945 12.9352C7.30645 12.9352 7.26228 12.9352 7.21695 12.9352C7.17162 12.9352 7.12687 12.9352 7.0827 12.9352C7.0397 12.9364 7.00192 12.9375 6.96938 12.9387V12.8555C7.01006 12.8555 7.0426 12.8544 7.06701 12.8521C7.09258 12.8486 7.11234 12.8417 7.12629 12.8313C7.14024 12.8197 7.14954 12.803 7.15419 12.781C7.15883 12.7591 7.16116 12.729 7.16116 12.6909V11.8695C7.16116 11.8371 7.15767 11.8111 7.1507 11.7915C7.14372 11.7707 7.13152 11.7545 7.11409 11.743C7.09665 11.7303 7.0734 11.7216 7.04435 11.717C7.01645 11.7124 6.981 11.71 6.93799 11.71V11.6269C6.95659 11.6292 6.981 11.6309 7.01122 11.6321C7.0426 11.6321 7.07399 11.6321 7.10537 11.6321C7.13675 11.6321 7.16639 11.6315 7.19429 11.6303C7.22218 11.6292 7.24368 11.628 7.25879 11.6269L8.10612 12.6476V11.8591C8.10612 11.8267 8.10438 11.8007 8.10089 11.7811C8.0974 11.7615 8.08985 11.7464 8.07822 11.736C8.0666 11.7256 8.04917 11.7187 8.02592 11.7152C8.00384 11.7118 7.97362 11.71 7.93526 11.71V11.6269C7.96199 11.628 7.99686 11.6292 8.03987 11.6303C8.08404 11.6303 8.12937 11.6303 8.17586 11.6303C8.22351 11.6303 8.26884 11.6303 8.31185 11.6303C8.35486 11.6292 8.38914 11.628 8.41471 11.6269V11.71C8.37403 11.71 8.34265 11.7118 8.32057 11.7152C8.29848 11.7176 8.28163 11.7239 8.27001 11.7343C8.25838 11.7447 8.25141 11.7609 8.24908 11.7828C8.24676 11.8036 8.2456 11.8325 8.2456 11.8695Z" fill="black"/>
<path d="M8.84258 12.4604L8.76063 12.7013C8.75017 12.729 8.7432 12.7527 8.73971 12.7723C8.73622 12.792 8.73855 12.8082 8.74668 12.8209C8.75482 12.8324 8.76877 12.8411 8.78853 12.8469C8.80945 12.8526 8.83909 12.8555 8.87745 12.8555V12.937C8.8449 12.9358 8.80887 12.9352 8.76935 12.9352C8.73099 12.9352 8.69147 12.9352 8.65079 12.9352C8.61128 12.9352 8.57234 12.9352 8.53398 12.9352C8.49563 12.9352 8.46017 12.9358 8.42763 12.937V12.8521C8.46017 12.8521 8.48633 12.8497 8.50609 12.8451C8.52701 12.8393 8.54386 12.8301 8.55665 12.8174C8.57059 12.8047 8.58222 12.7879 8.59152 12.7671C8.60198 12.7463 8.61302 12.7192 8.62464 12.6857L9.01169 11.5801H9.10933L9.48592 12.6892C9.49754 12.7238 9.50858 12.7515 9.51904 12.7723C9.53067 12.7931 9.54403 12.8093 9.55914 12.8209C9.57425 12.8324 9.59169 12.8411 9.61145 12.8469C9.63237 12.8515 9.65794 12.8555 9.68816 12.859V12.937C9.65561 12.9358 9.61784 12.9352 9.57483 12.9352C9.53183 12.9352 9.48766 12.9352 9.44233 12.9352C9.397 12.9352 9.35283 12.9352 9.30983 12.9352C9.26682 12.9352 9.22904 12.9358 9.1965 12.937V12.8555C9.23486 12.8555 9.26391 12.8538 9.28367 12.8503C9.3046 12.8469 9.31854 12.8399 9.32552 12.8295C9.33249 12.8191 9.33307 12.8035 9.32726 12.7827C9.32261 12.7619 9.31448 12.7336 9.30285 12.6978L9.22265 12.4604H8.84258ZM8.8757 12.3634H9.19127L9.0361 11.9024L8.8757 12.3634Z" fill="black"/>
<path d="M10.735 11.6269L10.721 11.9024H10.6112C10.61 11.8677 10.6077 11.8394 10.6042 11.8175C10.6019 11.7955 10.5955 11.7788 10.585 11.7672C10.5757 11.7545 10.5612 11.7459 10.5414 11.7412C10.5228 11.7366 10.4973 11.7343 10.4647 11.7343H10.2503V12.6909C10.2503 12.7279 10.252 12.7573 10.2555 12.7793C10.259 12.8001 10.2665 12.8162 10.2782 12.8278C10.2898 12.8382 10.3066 12.8457 10.3287 12.8503C10.3508 12.8538 10.3799 12.8555 10.4159 12.8555V12.937C10.3822 12.9358 10.3421 12.9352 10.2956 12.9352C10.2503 12.9352 10.2032 12.9352 10.1544 12.9352C10.1056 12.9352 10.0579 12.9352 10.0114 12.9352C9.96492 12.9364 9.9254 12.9375 9.89286 12.9387V12.8555C9.92889 12.8555 9.95736 12.8538 9.97829 12.8503C10.0004 12.8457 10.0172 12.8382 10.0288 12.8278C10.0405 12.8162 10.048 12.8001 10.0515 12.7793C10.0562 12.7573 10.0585 12.7279 10.0585 12.6909V11.7343H9.87542C9.84055 11.7343 9.81207 11.7366 9.78999 11.7412C9.76907 11.7447 9.75163 11.7522 9.73769 11.7638C9.7249 11.7753 9.71386 11.7927 9.70456 11.8158C9.69642 11.8377 9.68829 11.8666 9.68015 11.9024H9.56683L9.59124 11.6269C9.66911 11.6303 9.75803 11.6326 9.85799 11.6338C9.95794 11.635 10.0596 11.6355 10.1631 11.6355C10.2677 11.6355 10.3694 11.635 10.4682 11.6338C10.5682 11.6315 10.6571 11.6292 10.735 11.6269Z" fill="black"/>
<path d="M10.9257 12.6909V11.8625C10.9257 11.8267 10.924 11.799 10.9205 11.7794C10.9181 11.7586 10.9112 11.7436 10.8995 11.7343C10.8879 11.7239 10.8711 11.7176 10.849 11.7152C10.8269 11.7118 10.7967 11.71 10.7583 11.71V11.6251C10.7758 11.6263 10.7978 11.6274 10.8246 11.6286C10.8525 11.6286 10.8827 11.6292 10.9152 11.6303C10.9489 11.6303 10.9832 11.6303 11.0181 11.6303C11.0541 11.6303 11.0884 11.6303 11.121 11.6303C11.1535 11.6292 11.1837 11.6286 11.2116 11.6286C11.2407 11.6286 11.2639 11.628 11.2814 11.6269V11.71C11.243 11.71 11.2128 11.7118 11.1907 11.7152C11.1698 11.7176 11.1535 11.7239 11.1419 11.7343C11.1314 11.7436 11.1245 11.7586 11.121 11.7794C11.1186 11.799 11.1175 11.8267 11.1175 11.8625V12.6909C11.1175 12.7267 11.1192 12.7556 11.1227 12.7775C11.1262 12.7983 11.1338 12.8145 11.1454 12.8261C11.157 12.8376 11.1733 12.8457 11.1942 12.8503C11.2163 12.8538 11.2453 12.8555 11.2814 12.8555V12.9387C11.2546 12.9375 11.2174 12.9364 11.1698 12.9352C11.1221 12.9352 11.0722 12.9352 11.0198 12.9352C10.9687 12.9352 10.9193 12.9358 10.8717 12.937C10.824 12.9381 10.7862 12.9393 10.7583 12.9404V12.8555C10.7944 12.8555 10.8234 12.8538 10.8455 12.8503C10.8676 12.8457 10.8844 12.8376 10.8961 12.8261C10.9088 12.8145 10.917 12.7983 10.9205 12.7775C10.924 12.7556 10.9257 12.7267 10.9257 12.6909Z" fill="black"/>
<path d="M12.696 12.2767C12.696 12.3622 12.6803 12.446 12.649 12.528C12.6176 12.61 12.5728 12.6834 12.5147 12.7481C12.4566 12.8128 12.3869 12.8653 12.3055 12.9058C12.2241 12.9451 12.1335 12.9647 12.0335 12.9647C11.9417 12.9647 11.8557 12.9462 11.7755 12.9092C11.6953 12.8723 11.6255 12.8232 11.5663 12.7619C11.507 12.6996 11.4599 12.6279 11.425 12.5471C11.3913 12.465 11.3745 12.3795 11.3745 12.2906C11.3745 12.2062 11.3902 12.1231 11.4216 12.041C11.4541 11.9579 11.4994 11.8839 11.5575 11.8192C11.6157 11.7545 11.6854 11.7025 11.7668 11.6633C11.8481 11.6228 11.9388 11.6026 12.0387 11.6026C12.1294 11.6026 12.2148 11.6211 12.295 11.6581C12.3752 11.695 12.445 11.7447 12.5043 11.8071C12.5635 11.8683 12.61 11.94 12.6437 12.022C12.6786 12.1028 12.696 12.1878 12.696 12.2767ZM12.4798 12.3287C12.4798 12.2836 12.4752 12.2369 12.4659 12.1883C12.4578 12.1387 12.445 12.0907 12.4275 12.0445C12.4113 11.9971 12.3903 11.9527 12.3648 11.9111C12.3392 11.8683 12.309 11.8314 12.2741 11.8002C12.2404 11.7678 12.2021 11.7424 12.159 11.7239C12.116 11.7043 12.0684 11.6945 12.0161 11.6945C11.9533 11.6945 11.8958 11.7077 11.8435 11.7343C11.7912 11.7609 11.7458 11.7979 11.7075 11.8452C11.6703 11.8926 11.6412 11.9498 11.6203 12.0168C11.5994 12.0838 11.5889 12.1577 11.5889 12.2386C11.5889 12.3056 11.5988 12.3767 11.6186 12.4517C11.6383 12.5257 11.6674 12.5938 11.7057 12.6562C11.7453 12.7186 11.7941 12.7706 11.8522 12.8122C11.9103 12.8526 11.9777 12.8728 12.0544 12.8728C12.1219 12.8728 12.1817 12.8596 12.234 12.833C12.2863 12.8064 12.3305 12.7694 12.3665 12.7221C12.4037 12.6736 12.4316 12.6164 12.4502 12.5505C12.47 12.4835 12.4798 12.4096 12.4798 12.3287Z" fill="black"/>
<path d="M14.0915 11.8695V12.9543H13.9817L13.1431 11.9232V12.6978C13.1431 12.7348 13.1448 12.7643 13.1483 12.7862C13.1518 12.807 13.1593 12.8226 13.171 12.833C13.1826 12.8434 13.1994 12.8497 13.2215 12.8521C13.2436 12.8544 13.2733 12.8555 13.3104 12.8555V12.937C13.2779 12.9358 13.2395 12.9352 13.1954 12.9352C13.1524 12.9352 13.1082 12.9352 13.0629 12.9352C13.0175 12.9352 12.9728 12.9352 12.9286 12.9352C12.8856 12.9364 12.8478 12.9375 12.8153 12.9387V12.8555C12.856 12.8555 12.8885 12.8544 12.9129 12.8521C12.9385 12.8486 12.9583 12.8417 12.9722 12.8313C12.9862 12.8197 12.9955 12.803 13.0001 12.781C13.0048 12.7591 13.0071 12.729 13.0071 12.6909V11.8695C13.0071 11.8371 13.0036 11.8111 12.9966 11.7915C12.9896 11.7707 12.9774 11.7545 12.96 11.743C12.9426 11.7303 12.9193 11.7216 12.8903 11.717C12.8624 11.7124 12.8269 11.71 12.7839 11.71V11.6269C12.8025 11.6292 12.8269 11.6309 12.8571 11.6321C12.8885 11.6321 12.9199 11.6321 12.9513 11.6321C12.9827 11.6321 13.0123 11.6315 13.0402 11.6303C13.0681 11.6292 13.0896 11.628 13.1047 11.6269L13.952 12.6476V11.8591C13.952 11.8267 13.9503 11.8007 13.9468 11.7811C13.9433 11.7615 13.9358 11.7464 13.9241 11.736C13.9125 11.7256 13.8951 11.7187 13.8718 11.7152C13.8498 11.7118 13.8195 11.71 13.7812 11.71V11.6269C13.8079 11.628 13.8428 11.6292 13.8858 11.6303C13.93 11.6303 13.9753 11.6303 14.0218 11.6303C14.0694 11.6303 14.1148 11.6303 14.1578 11.6303C14.2008 11.6292 14.2351 11.628 14.2606 11.6269V11.71C14.22 11.71 14.1886 11.7118 14.1665 11.7152C14.1444 11.7176 14.1276 11.7239 14.1159 11.7343C14.1043 11.7447 14.0973 11.7609 14.095 11.7828C14.0927 11.8036 14.0915 11.8325 14.0915 11.8695Z" fill="black"/>
<path d="M14.6885 12.4604L14.6066 12.7013C14.5961 12.729 14.5891 12.7527 14.5856 12.7723C14.5821 12.792 14.5845 12.8082 14.5926 12.8209C14.6007 12.8324 14.6147 12.8411 14.6345 12.8469C14.6554 12.8526 14.685 12.8555 14.7234 12.8555V12.937C14.6908 12.9358 14.6548 12.9352 14.6153 12.9352C14.5769 12.9352 14.5374 12.9352 14.4967 12.9352C14.4572 12.9352 14.4183 12.9352 14.3799 12.9352C14.3415 12.9352 14.3061 12.9358 14.2736 12.937V12.8521C14.3061 12.8521 14.3322 12.8497 14.352 12.8451C14.3729 12.8393 14.3898 12.8301 14.4026 12.8174C14.4165 12.8047 14.4281 12.7879 14.4374 12.7671C14.4479 12.7463 14.4589 12.7192 14.4706 12.6857L14.8576 11.5801H14.9552L15.3318 12.6892C15.3435 12.7238 15.3545 12.7515 15.365 12.7723C15.3766 12.7931 15.39 12.8093 15.4051 12.8209C15.4202 12.8324 15.4376 12.8411 15.4574 12.8469C15.4783 12.8515 15.5039 12.8555 15.5341 12.859V12.937C15.5015 12.9358 15.4638 12.9352 15.4208 12.9352C15.3778 12.9352 15.3336 12.9352 15.2883 12.9352C15.2429 12.9352 15.1988 12.9352 15.1557 12.9352C15.1127 12.9352 15.075 12.9358 15.0424 12.937V12.8555C15.0808 12.8555 15.1098 12.8538 15.1296 12.8503C15.1505 12.8469 15.1645 12.8399 15.1714 12.8295C15.1784 12.8191 15.179 12.8035 15.1732 12.7827C15.1685 12.7619 15.1604 12.7336 15.1488 12.6978L15.0686 12.4604H14.6885ZM14.7216 12.3634H15.0372L14.882 11.9024L14.7216 12.3634Z" fill="black"/>
<path d="M16.6175 12.6216L16.5408 12.937C16.5013 12.9358 16.4559 12.9347 16.4048 12.9335C16.3536 12.9335 16.2996 12.9335 16.2426 12.9335C16.1857 12.9323 16.127 12.9318 16.0666 12.9318C16.0061 12.9318 15.9468 12.9323 15.8887 12.9335C15.8318 12.9335 15.7771 12.9335 15.7248 12.9335C15.6737 12.9347 15.6278 12.9358 15.5871 12.937V12.8573C15.6243 12.8561 15.6533 12.8538 15.6743 12.8503C15.6964 12.8469 15.7132 12.8393 15.7248 12.8278C15.7365 12.8162 15.7434 12.7995 15.7458 12.7775C15.7492 12.7556 15.751 12.7255 15.751 12.6874V11.8643C15.751 11.8285 15.7492 11.8007 15.7458 11.7811C15.7434 11.7603 15.7365 11.7447 15.7248 11.7343C15.7144 11.7239 15.6981 11.7176 15.676 11.7152C15.6539 11.7118 15.6243 11.71 15.5871 11.71V11.6251C15.6127 11.6274 15.6487 11.6292 15.6952 11.6303C15.7428 11.6303 15.7922 11.6303 15.8434 11.6303C15.8957 11.6303 15.9463 11.6303 15.9951 11.6303C16.0439 11.6292 16.0822 11.6274 16.1101 11.6251V11.71C16.0729 11.71 16.0433 11.7118 16.0212 11.7152C15.9991 11.7176 15.9823 11.7239 15.9707 11.7343C15.959 11.7447 15.9515 11.7603 15.948 11.7811C15.9445 11.8007 15.9428 11.8279 15.9428 11.8625V12.6857C15.9428 12.7227 15.9463 12.7521 15.9532 12.7741C15.9602 12.7949 15.9741 12.8105 15.9951 12.8209C16.016 12.8313 16.045 12.8382 16.0822 12.8417C16.1206 12.844 16.1712 12.8451 16.2339 12.8451C16.2793 12.8451 16.3164 12.8428 16.3455 12.8382C16.3757 12.8324 16.4007 12.822 16.4205 12.807C16.4414 12.7908 16.4583 12.7683 16.471 12.7394C16.485 12.7094 16.4989 12.6701 16.5129 12.6216H16.6175Z" fill="black"/>
</g>
<path id="R" d="M16.4716 11.7824H16.4488V11.8336C16.4488 11.8385 16.4491 11.8425 16.4496 11.8455C16.4501 11.8484 16.4511 11.8507 16.4525 11.8524C16.4542 11.854 16.4566 11.8552 16.4597 11.8558C16.4628 11.8563 16.4671 11.8566 16.4726 11.8566V11.8687C16.4686 11.8685 16.4633 11.8683 16.4565 11.8682C16.4497 11.868 16.4427 11.8679 16.4353 11.8679C16.428 11.8679 16.421 11.8679 16.4143 11.8679C16.4075 11.8681 16.4022 11.8683 16.3984 11.8687V11.8568C16.4037 11.8568 16.4078 11.8567 16.4108 11.8563C16.4139 11.8558 16.4163 11.8548 16.418 11.8534C16.4196 11.8517 16.4206 11.8493 16.4209 11.8462C16.4214 11.8431 16.4217 11.8387 16.4217 11.8331V11.715C16.4217 11.7101 16.4214 11.7062 16.4209 11.7034C16.4204 11.7006 16.4194 11.6984 16.4177 11.697C16.4162 11.6955 16.4139 11.6945 16.4108 11.694C16.4077 11.6935 16.4035 11.6933 16.3984 11.6933V11.6816C16.403 11.6816 16.4086 11.6817 16.4152 11.6819C16.422 11.6819 16.4289 11.6819 16.436 11.6819C16.4432 11.6819 16.4502 11.6819 16.4567 11.6819C16.4633 11.6819 16.4688 11.6818 16.4731 11.6816C16.4852 11.6816 16.4952 11.6833 16.503 11.6866C16.5109 11.6899 16.517 11.694 16.5215 11.6989C16.5259 11.7037 16.529 11.709 16.5306 11.7147C16.5324 11.7203 16.5333 11.7255 16.5333 11.7301C16.5333 11.736 16.5323 11.7415 16.5301 11.7466C16.5282 11.7517 16.5255 11.7563 16.5222 11.7605C16.5189 11.7644 16.5151 11.7678 16.5109 11.7706C16.5067 11.7734 16.5025 11.7754 16.4983 11.7765C16.5012 11.7815 16.5046 11.7869 16.5084 11.7928C16.5123 11.7988 16.5164 11.8047 16.5205 11.8106C16.5246 11.8164 16.5286 11.8219 16.5326 11.8272C16.5366 11.8324 16.54 11.8369 16.543 11.8405C16.5466 11.8448 16.5506 11.8486 16.5551 11.8519C16.5597 11.855 16.5656 11.8566 16.5729 11.8566V11.8687C16.5658 11.8682 16.5584 11.8679 16.5506 11.8679C16.5429 11.8679 16.5359 11.8682 16.5296 11.8687C16.5249 11.8624 16.5198 11.8555 16.5146 11.8479C16.5095 11.8403 16.5044 11.8327 16.4992 11.8249C16.4941 11.8172 16.4892 11.8097 16.4844 11.8025C16.4796 11.795 16.4754 11.7884 16.4716 11.7824ZM16.4488 11.7686L16.4617 11.7691C16.4696 11.7691 16.4763 11.768 16.4817 11.7659C16.4871 11.7636 16.4915 11.7607 16.4948 11.7572C16.4983 11.7536 16.5007 11.7496 16.5022 11.7451C16.5037 11.7407 16.5044 11.7362 16.5044 11.7318C16.5044 11.7264 16.5037 11.7214 16.5022 11.717C16.5009 11.7125 16.4986 11.7087 16.4953 11.7054C16.4922 11.7021 16.488 11.6995 16.4827 11.6977C16.4774 11.6959 16.4709 11.695 16.4632 11.695C16.4595 11.695 16.4566 11.695 16.4543 11.695C16.4521 11.695 16.4503 11.6951 16.4488 11.6955V11.7686Z" fill="black"/>
<circle id="Ellipse 861" cx="16.4738" cy="11.7883" r="0.165874" stroke="black" stroke-width="0.0846154"/>
<path id="Rectangle 13357 (Stroke)" fill-rule="evenodd" clip-rule="evenodd" d="M16.6154 0.846154H1.38462C0.811089 0.846154 0.346154 1.31109 0.346154 1.88462V12.6154C0.346154 13.1889 0.81109 13.6538 1.38462 13.6538H16.6154C17.1889 13.6538 17.6538 13.1889 17.6538 12.6154V1.88462C17.6538 1.31109 17.1889 0.846154 16.6154 0.846154ZM1.38462 0.5C0.619913 0.5 0 1.11991 0 1.88462V12.6154C0 13.3801 0.619914 14 1.38462 14H16.6154C17.3801 14 18 13.3801 18 12.6154V1.88462C18 1.11991 17.3801 0.5 16.6154 0.5H1.38462Z" fill="#004A98"/>
</g>
</g>
</g>
</svg>
