<svg width="30" height="24" viewBox="0 0 30 24" fill="none" xmlns="http://www.w3.org/2000/svg">
<g id="Group">
<path id="Shape" fill-rule="evenodd" clip-rule="evenodd" d="M27.8737 8.71071L14.9095 4.22461L2.17214 8.71071C0.998228 8.71071 0.0461464 9.66089 0.0461464 10.8328V21.4047C0.0461464 22.5766 0.998228 23.5268 2.17214 23.5268H27.8737C29.0479 23.5268 30 22.5766 30 21.4047V10.8328C30 9.66089 29.0479 8.71071 27.8737 8.71071Z" fill="black"/>
<path id="Shape_2" fill-rule="evenodd" clip-rule="evenodd" d="M25.2404 12.2007L25.3496 0.562188L4.5277 0.488281L4.52471 11.6591L15.0557 20.1544L25.2404 12.2007Z" fill="white"/>
<path id="Shape_3" fill-rule="evenodd" clip-rule="evenodd" d="M25.0218 12.0921L15.0593 19.8725L4.74685 11.5535L4.75017 0.708801L25.1281 0.781382L25.0218 12.0921ZM15.0575 20.3745C15.1057 20.3745 15.1538 20.3589 15.1937 20.3277L25.3783 12.374C25.4311 12.3329 25.4623 12.2696 25.463 12.2023L25.5723 0.563867C25.5729 0.505206 25.55 0.448865 25.5085 0.407106C25.4673 0.365347 25.4109 0.341816 25.3524 0.341485L4.53017 0.267578H4.52984C4.47139 0.267578 4.41527 0.290777 4.37376 0.332205C4.33225 0.373301 4.30867 0.429642 4.30867 0.487972L4.30568 11.6588C4.30568 11.7257 4.3359 11.7884 4.38771 11.8305L14.9187 20.3258C14.9592 20.3579 15.0084 20.3745 15.0575 20.3745Z" fill="black"/>
<path id="Shape_4" fill-rule="evenodd" clip-rule="evenodd" d="M16.0915 6.13627C16.0881 5.94206 16.225 5.78231 16.3973 5.77933C16.5693 5.77668 16.7115 5.93145 16.7148 6.12566C16.7181 6.31954 16.5813 6.47929 16.4093 6.48227C16.2369 6.48525 16.0948 6.33015 16.0915 6.13627Z" fill="black"/>
<path id="Shape_5" fill-rule="evenodd" clip-rule="evenodd" d="M12.9547 6.05782C12.9514 5.86394 13.0882 5.7042 13.2603 5.70121C13.4326 5.69823 13.5747 5.85334 13.5781 6.04755C13.5814 6.24143 13.4446 6.40117 13.2722 6.40416C13.1002 6.40714 12.9581 6.25203 12.9547 6.05782Z" fill="black"/>
<path id="Shape_6" fill-rule="evenodd" clip-rule="evenodd" d="M10.7992 8.78474C10.7397 8.78474 10.6806 8.80861 10.6371 8.85567C10.5541 8.94449 10.5594 9.08401 10.6487 9.16654C10.7211 9.23348 12.4413 10.8024 14.641 10.826C16.8354 10.8462 18.6742 9.43797 18.7515 9.37798C18.8478 9.30308 18.8651 9.16488 18.7901 9.06877C18.7153 8.97299 18.5765 8.95575 18.4802 9.02999C18.4626 9.04391 16.7079 10.3855 14.6932 10.3855C14.6772 10.3855 14.6616 10.3855 14.6457 10.3852C12.62 10.3636 10.9655 8.85865 10.9489 8.8434C10.9064 8.8043 10.8526 8.78474 10.7992 8.78474Z" fill="black"/>
<path id="Shape_7" fill-rule="evenodd" clip-rule="evenodd" d="M14.8773 20.0773C14.9251 20.0773 14.9726 20.062 15.0124 20.0312L28.0609 9.9534C28.1572 9.87883 28.1748 9.74062 28.1005 9.64418C28.0257 9.54807 27.8873 9.53017 27.7906 9.60441L14.8802 19.5758L2.77749 9.80823C2.68318 9.73201 2.5437 9.7456 2.46699 9.84071C2.39028 9.93517 2.40489 10.074 2.49987 10.1506L14.7384 20.0282C14.779 20.0607 14.8281 20.0773 14.8773 20.0773Z" fill="white"/>
<path id="Shape_8" fill-rule="evenodd" clip-rule="evenodd" d="M7.98342 23.7315C8.04751 23.7315 8.1116 23.7036 8.15511 23.6496L14.8087 15.4407L22.2069 23.6582C22.2882 23.749 22.428 23.7557 22.5187 23.6751C22.6093 23.5936 22.6166 23.4544 22.5353 23.3639L14.9641 14.9542C14.921 14.9061 14.8595 14.8796 14.7941 14.8809C14.7293 14.8826 14.6689 14.9127 14.6281 14.9628L7.81173 23.3725C7.73502 23.467 7.74963 23.6059 7.84461 23.6824C7.88546 23.7152 7.9346 23.7315 7.98342 23.7315Z" fill="white"/>
</g>
</svg>
