<svg width="49" height="49" viewBox="0 0 49 49" fill="none" xmlns="http://www.w3.org/2000/svg">
<path id="Vector" d="M45.521 37.0912C45.2702 37.509 44.8636 37.8102 44.3908 37.9283C43.9179 38.0465 43.4175 37.9719 42.9996 37.7211C42.5818 37.4703 42.2806 37.0638 42.1625 36.5909C42.0443 36.1181 42.1189 35.6176 42.3697 35.1998C44.3097 31.9684 45.3315 28.269 45.325 24.5C45.325 12.9985 36.0015 3.675 24.5 3.675C12.9985 3.675 3.675 12.9985 3.675 24.5C3.675 36.0015 12.9985 45.325 24.5 45.325C28.2685 45.3317 31.9674 44.3103 35.1985 42.3709C35.4055 42.2468 35.6348 42.1646 35.8735 42.1291C36.1122 42.0935 36.3555 42.1054 36.5896 42.1639C36.8237 42.2224 37.044 42.3265 37.2379 42.4702C37.4317 42.6138 37.5954 42.7943 37.7196 43.0012C37.8437 43.2081 37.9259 43.4374 37.9614 43.6761C37.9969 43.9148 37.9851 44.1581 37.9266 44.3922C37.8681 44.6263 37.764 44.8466 37.6203 45.0405C37.4767 45.2344 37.2962 45.3981 37.0893 45.5222C33.287 47.8043 28.9346 49.0067 24.5 49C10.9693 49 0 38.0307 0 24.5C0 10.9693 10.9693 0 24.5 0C38.0307 0 49 10.9693 49 24.5C49 28.9957 47.7854 33.3182 45.521 37.0912ZM14.0134 32.3884L22.6625 23.7387V13.475C22.6625 12.9877 22.8561 12.5203 23.2007 12.1757C23.5453 11.8311 24.0127 11.6375 24.5 11.6375C24.9873 11.6375 25.4547 11.8311 25.7993 12.1757C26.1439 12.5203 26.3375 12.9877 26.3375 13.475V24.5C26.3374 24.9873 26.1437 25.4546 25.7991 25.7991L16.6116 34.9866C16.4421 35.1621 16.2393 35.3021 16.0152 35.3984C15.791 35.4947 15.5499 35.5454 15.3059 35.5475C15.0619 35.5496 14.8199 35.5031 14.5941 35.4107C14.3683 35.3184 14.1631 35.1819 13.9906 35.0094C13.8181 34.8369 13.6816 34.6317 13.5893 34.4059C13.4969 34.18 13.4504 33.9381 13.4525 33.6941C13.4546 33.4501 13.5053 33.209 13.6016 32.9848C13.6979 32.7606 13.8379 32.5579 14.0134 32.3884Z" fill="#0094FF"/>
</svg>
