<svg width="18" height="18" viewBox="0 0 18 18" fill="none" xmlns="http://www.w3.org/2000/svg">
<path d="M0.890137 7.44629C0.890137 3.79395 3.86182 0.822266 7.51416 0.822266C11.1665 0.822266 14.1382 3.79395 14.1382 7.44629C14.1382 8.95703 13.6318 10.3433 12.7769 11.4556L16.8359 15.5396C17.0103 15.7139 17.1099 15.9546 17.1099 16.2202C17.1099 16.7764 16.7197 17.1997 16.1553 17.1997C15.8896 17.1997 15.6406 17.1084 15.4497 16.9175L11.3657 12.8252C10.2783 13.6055 8.9585 14.0703 7.51416 14.0703C3.86182 14.0703 0.890137 11.0986 0.890137 7.44629ZM2.30957 7.44629C2.30957 10.3184 4.64209 12.6509 7.51416 12.6509C10.3862 12.6509 12.7188 10.3184 12.7188 7.44629C12.7188 4.57422 10.3862 2.2417 7.51416 2.2417C4.64209 2.2417 2.30957 4.57422 2.30957 7.44629Z" fill="#8E8E93"/>
</svg>
