<svg width="49" height="49" viewBox="0 0 49 49" fill="none" xmlns="http://www.w3.org/2000/svg">
<g id="Union">
<path id="Union_2" fill-rule="evenodd" clip-rule="evenodd" d="M44.3908 37.9283C44.8636 37.8102 45.2702 37.509 45.521 37.0911C47.7854 33.3181 49 28.9957 49 24.5C49 10.9693 38.0307 0 24.5 0C10.9693 0 0 10.9693 0 24.5C0 38.0307 10.9693 49 24.5 49C28.9346 49.0067 33.287 47.8043 37.0893 45.5222C37.2962 45.398 37.4767 45.2344 37.6203 45.0405C37.764 44.8466 37.8681 44.6263 37.9266 44.3922C37.9851 44.1581 37.9969 43.9148 37.9614 43.6761C37.9259 43.4374 37.8437 43.2081 37.7196 43.0011C37.5954 42.7942 37.4317 42.6138 37.2379 42.4701C37.044 42.3265 36.8237 42.2224 36.5896 42.1639C36.3555 42.1054 36.1122 42.0935 35.8735 42.129C35.6348 42.1646 35.4055 42.2467 35.1985 42.3709C31.9674 44.3103 28.2685 45.3316 24.5 45.325C12.9985 45.325 3.675 36.0015 3.675 24.5C3.675 12.9985 12.9985 3.675 24.5 3.675C36.0015 3.675 45.325 12.9985 45.325 24.5C45.3315 28.269 44.3097 31.9684 42.3697 35.1997C42.1189 35.6176 42.0443 36.118 42.1625 36.5909C42.2806 37.0637 42.5818 37.4703 42.9996 37.7211C43.4175 37.9719 43.9179 38.0465 44.3908 37.9283ZM37.0887 16.6391C37.8403 17.4485 37.7934 18.714 36.984 19.4656L22.984 32.4656C22.9062 32.5378 22.8242 32.6027 22.7388 32.6602C22.6311 32.8496 22.4903 33.0245 22.317 33.1761C21.4858 33.9034 20.2222 33.8192 19.4949 32.9879L12.4949 24.9879C11.7675 24.1566 11.8517 22.8931 12.683 22.1658C13.5143 21.4384 14.7778 21.5226 15.5052 22.3539L21.1041 28.7526L34.2622 16.5344C35.0716 15.7828 36.3371 15.8297 37.0887 16.6391Z" fill="#4CD964"/>
</g>
</svg>
