<svg width="24" height="24" viewBox="0 0 24 24" fill="none" xmlns="http://www.w3.org/2000/svg">
<g id="UnionPay">
<rect x="0.5" y="0.5" width="23" height="23" rx="6" fill="white"/>
<path id="Vector" d="M22.7812 13.5352C19.4821 15.3625 15.7714 16.3184 12 16.3125C8.09 16.3125 4.41287 15.3062 1.21875 13.5352V18.1094C1.21875 19.3484 1.71096 20.5367 2.58711 21.4129C3.46326 22.289 4.65157 22.7812 5.89062 22.7812H18.1094C19.3484 22.7812 20.5367 22.289 21.4129 21.4129C22.289 20.5367 22.7812 19.3484 22.7812 18.1094V13.5352ZM0.5 18.1094V5.53125C0.5 4.19688 1.03008 2.91716 1.97362 1.97362C2.91716 1.03008 4.19688 0.5 5.53125 0.5L18.4688 0.5C19.8031 0.5 21.0828 1.03008 22.0264 1.97362C22.9699 2.91716 23.5 4.19688 23.5 5.53125V18.1094C23.5 19.5391 22.9321 20.9102 21.9211 21.9211C20.9102 22.9321 19.5391 23.5 18.1094 23.5H5.89062C4.46094 23.5 3.08982 22.9321 2.07888 21.9211C1.06794 20.9102 0.5 19.5391 0.5 18.1094ZM5.215 7.4H8.47813C8.57344 7.4 8.66485 7.36214 8.73224 7.29474C8.79964 7.22735 8.8375 7.13594 8.8375 7.04063C8.8375 6.94531 8.79964 6.8539 8.73224 6.78651C8.66485 6.71911 8.57344 6.68125 8.47813 6.68125H3.44687C3.35156 6.68125 3.26015 6.71911 3.19276 6.78651C3.12536 6.8539 3.0875 6.94531 3.0875 7.04063C3.0875 7.13594 3.12536 7.22735 3.19276 7.29474C3.26015 7.36214 3.35156 7.4 3.44687 7.4H4.42869L3.75738 8.91512C3.70312 9.03549 3.67988 9.16752 3.68976 9.29918C3.69964 9.43083 3.74234 9.55792 3.81395 9.66883C3.88556 9.77975 3.9838 9.87097 4.09972 9.93417C4.21564 9.99736 4.34554 10.0305 4.47756 10.0306H7.58831C7.72097 10.0307 7.85152 9.99744 7.96794 9.93383C8.08436 9.87023 8.18291 9.77836 8.2545 9.66667C8.32609 9.55499 8.36843 9.42709 8.37762 9.29475C8.3868 9.1624 8.36254 9.02988 8.30706 8.90937C8.245 8.78837 8.17488 8.67167 8.09719 8.56006L8.08856 8.54569C8.02848 8.45679 7.97096 8.36619 7.91606 8.274C7.89634 8.23105 7.86834 8.19241 7.83368 8.16028C7.79902 8.12816 7.75837 8.10317 7.71406 8.08675C7.66974 8.07033 7.62262 8.0628 7.5754 8.06459C7.52817 8.06639 7.48176 8.07746 7.43881 8.09719C7.39587 8.11691 7.35723 8.14491 7.3251 8.17957C7.29297 8.21423 7.26798 8.25488 7.25156 8.29919C7.23515 8.34351 7.22762 8.39063 7.22941 8.43785C7.2312 8.48508 7.24227 8.53149 7.262 8.57444C7.29219 8.64056 7.285 8.62906 7.48625 8.93956L7.49487 8.95106C7.58544 9.0905 7.63862 9.17819 7.653 9.20981C7.65805 9.22072 7.66028 9.23273 7.65949 9.24472C7.6587 9.25672 7.65492 9.26832 7.64848 9.27848C7.64205 9.28863 7.63316 9.29701 7.62265 9.30285C7.61214 9.30868 7.60033 9.31178 7.58831 9.31187H4.479C4.46704 9.31192 4.45527 9.30898 4.44474 9.30332C4.4342 9.29766 4.42525 9.28946 4.41868 9.27947C4.41212 9.26948 4.40815 9.25801 4.40713 9.2461C4.40612 9.23418 4.40809 9.22221 4.41287 9.21125L5.215 7.4ZM3.87812 4.8125C3.78281 4.8125 3.6914 4.85036 3.62401 4.91776C3.55661 4.98515 3.51875 5.07656 3.51875 5.17188C3.51875 5.26719 3.55661 5.3586 3.62401 5.42599C3.6914 5.49339 3.78281 5.53125 3.87812 5.53125H8.113C8.20831 5.53125 8.29972 5.49339 8.36712 5.42599C8.43451 5.3586 8.47237 5.26719 8.47237 5.17188C8.47237 5.07656 8.43451 4.98515 8.36712 4.91776C8.29972 4.85036 8.20831 4.8125 8.113 4.8125H3.87812ZM19.5296 5.42631H17.3547C17.2594 5.42631 17.168 5.46418 17.1006 5.53157C17.0332 5.59897 16.9953 5.69037 16.9953 5.78569C16.9953 5.881 17.0332 5.97241 17.1006 6.0398C17.168 6.1072 17.2594 6.14506 17.3547 6.14506H19.5296V9.21844C19.5296 9.25656 19.5145 9.29313 19.4875 9.32008C19.4606 9.34704 19.424 9.36219 19.3859 9.36219H18.8137C18.7184 9.36219 18.627 9.40005 18.5596 9.46745C18.4922 9.53484 18.4544 9.62625 18.4544 9.72156C18.4544 9.81687 18.4922 9.90828 18.5596 9.97568C18.627 10.0431 18.7184 10.0809 18.8137 10.0809H19.6978C20.0054 10.0809 20.2484 9.80206 20.2484 9.50594V6.14506H20.6192C20.7146 6.14506 20.806 6.1072 20.8734 6.0398C20.9408 5.97241 20.9786 5.881 20.9786 5.78569C20.9786 5.69037 20.9408 5.59897 20.8734 5.53157C20.806 5.46418 20.7146 5.42631 20.6192 5.42631H20.2484V4.75787C20.2484 4.66256 20.2105 4.57115 20.1431 4.50376C20.0757 4.43636 19.9843 4.3985 19.889 4.3985C19.7937 4.3985 19.7023 4.43636 19.6349 4.50376C19.5675 4.57115 19.5296 4.66256 19.5296 4.75787V5.42631ZM14.4308 6.30031V5.3645C14.4308 5.19294 14.3627 5.0284 14.2413 4.90709C14.12 4.78578 13.9555 4.71762 13.7839 4.71762H10.6315C10.6018 4.71763 10.5724 4.7115 10.5452 4.69963C10.518 4.68776 10.4936 4.67039 10.4734 4.64862L10.3454 4.51206C10.3132 4.47761 10.2744 4.44985 10.2314 4.43038C10.1884 4.4109 10.142 4.40009 10.0948 4.39855C10.0476 4.39702 10.0006 4.40479 9.95639 4.42143C9.9122 4.43807 9.87173 4.46325 9.83728 4.49553C9.80283 4.52781 9.77507 4.56656 9.7556 4.60957C9.73612 4.65258 9.72531 4.699 9.72377 4.74619C9.72224 4.79337 9.73001 4.8404 9.74665 4.88458C9.76329 4.92876 9.78847 4.96924 9.82075 5.00369L9.95012 5.14025C10.0374 5.23358 10.1429 5.30801 10.2601 5.35895C10.3773 5.40988 10.5037 5.43623 10.6315 5.43637H13.7106V7.11825L13.4289 7.44025L12.3004 6.16087C12.2665 6.12257 12.2248 6.09196 12.1781 6.07108C12.1313 6.05021 12.0807 6.03955 12.0295 6.03982C11.9784 6.04009 11.9278 6.05129 11.8813 6.07266C11.8349 6.09404 11.7935 6.12509 11.7599 6.16375L10.3799 7.745C10.317 7.81667 10.2852 7.9104 10.2914 8.00557C10.2976 8.10073 10.3413 8.18953 10.413 8.25244C10.4847 8.31534 10.5784 8.3472 10.6736 8.341C10.7687 8.3348 10.8575 8.29105 10.9204 8.21938L11.8692 7.12975L11.5673 6.36787L13.1615 8.21938C13.1952 8.25761 13.2367 8.28824 13.2832 8.30922C13.3296 8.3302 13.38 8.34105 13.431 8.34105C13.482 8.34105 13.5324 8.3302 13.5789 8.30922C13.6254 8.28824 13.6668 8.25761 13.7006 8.21938L16.5324 4.99362C16.5905 4.92151 16.6185 4.82975 16.6106 4.73749C16.6027 4.64523 16.5595 4.55958 16.49 4.49841C16.4205 4.43724 16.33 4.40526 16.2375 4.40914C16.145 4.41302 16.0575 4.45247 15.9934 4.51925L14.4294 6.30031H14.4308ZM9.42688 5.78569V9.72156C9.42688 9.81687 9.46474 9.90828 9.53213 9.97568C9.59953 10.0431 9.69094 10.0809 9.78625 10.0809C9.88156 10.0809 9.97297 10.0431 10.0404 9.97568C10.1078 9.90828 10.1456 9.81687 10.1456 9.72156V5.78569C10.1456 5.69037 10.1078 5.59897 10.0404 5.53157C9.97297 5.46418 9.88156 5.42631 9.78625 5.42631C9.69094 5.42631 9.59953 5.46418 9.53213 5.53157C9.46474 5.59897 9.42688 5.69037 9.42688 5.78569ZM13.7121 8.60319V9.34062C13.7121 9.37875 13.6969 9.41531 13.67 9.44227C13.643 9.46923 13.6064 9.48438 13.5683 9.48438H13.3053C13.2099 9.48438 13.1185 9.52224 13.0511 9.58963C12.9837 9.65703 12.9459 9.74844 12.9459 9.84375C12.9459 9.93906 12.9837 10.0305 13.0511 10.0979C13.1185 10.1653 13.2099 10.2031 13.3053 10.2031H13.7839C14.1462 10.2031 14.4308 9.90125 14.4308 9.54044V7.76225L13.7121 8.60319ZM15.9042 6.17094V9.72156C15.9042 9.81687 15.9421 9.90828 16.0095 9.97568C16.0769 10.0431 16.1683 10.0809 16.2636 10.0809C16.3589 10.0809 16.4503 10.0431 16.5177 9.97568C16.5851 9.90828 16.623 9.81687 16.623 9.72156V5.37025L15.9042 6.17094ZM17.0902 7.19444L18.2186 8.41488C18.2834 8.48483 18.3734 8.52618 18.4687 8.52982C18.564 8.53346 18.6568 8.49909 18.7268 8.43428C18.7967 8.36947 18.8381 8.27952 18.8417 8.18422C18.8454 8.08892 18.811 7.99608 18.7462 7.92612L17.6192 6.70712C17.5871 6.67239 17.5485 6.64432 17.5055 6.62451C17.4626 6.6047 17.4162 6.59354 17.3689 6.59167C17.3217 6.5898 17.2745 6.59726 17.2301 6.61362C17.1858 6.62997 17.145 6.65491 17.1103 6.687C17.0756 6.71909 17.0475 6.75771 17.0277 6.80065C17.0079 6.84359 16.9967 6.89002 16.9949 6.93727C16.993 6.98452 17.0004 7.03168 17.0168 7.07605C17.0332 7.12043 17.0581 7.1597 17.0902 7.19444ZM7.32812 11.425L7.07944 12.805C7.06355 12.891 7.03799 12.9749 7.00325 13.0551C6.97666 13.1175 6.93752 13.1738 6.88825 13.2204C6.84192 13.2624 6.78767 13.2946 6.72869 13.3153C6.65291 13.3389 6.5737 13.3496 6.49438 13.3469C6.41915 13.3497 6.34385 13.3435 6.27012 13.3282C6.20449 13.3147 6.14325 13.285 6.09188 13.242C6.0431 13.2024 6.01081 13.146 6.00131 13.0839C5.99235 12.9974 5.9972 12.9101 6.01569 12.8251L6.26006 11.425H5.95531L5.70087 12.851C5.68641 12.9278 5.67824 13.0057 5.67644 13.0839C5.67644 13.1514 5.6865 13.2147 5.7095 13.2751C5.73711 13.3424 5.77933 13.4028 5.83313 13.4519C5.89869 13.5135 5.97525 13.5623 6.05881 13.5956C6.14938 13.633 6.25575 13.6517 6.3765 13.6517C6.60118 13.6558 6.82211 13.5938 7.01187 13.4734C7.08713 13.423 7.15202 13.3586 7.20306 13.2837C7.28557 13.1627 7.34413 13.0271 7.37556 12.8841L7.63431 11.425H7.32812ZM7.79819 13.6517L7.95631 12.7576C7.96536 12.701 7.98434 12.6465 8.01237 12.5966C8.04381 12.5472 8.0887 12.5078 8.14175 12.483C8.20305 12.4513 8.27113 12.4351 8.34013 12.4356C8.44794 12.4384 8.51837 12.4614 8.55144 12.506C8.58594 12.5491 8.60319 12.5908 8.60462 12.6282C8.60405 12.6813 8.59828 12.7343 8.58737 12.7863L8.43356 13.6517L8.74694 13.6488L8.90219 12.7806C8.91985 12.6941 8.92661 12.6057 8.92231 12.5175C8.91818 12.4538 8.89735 12.3923 8.86194 12.3392C8.82547 12.2869 8.77657 12.2444 8.71962 12.2156C8.65243 12.1819 8.57905 12.1624 8.504 12.1581C8.43564 12.1559 8.36724 12.1607 8.29988 12.1725C8.21187 12.1852 8.12646 12.2119 8.04688 12.2516L8.06125 12.1653H7.7565L7.492 13.6488L7.79819 13.6517ZM9.48006 12.1567L9.21556 13.6517L9.52175 13.6488L9.78769 12.1581L9.48006 12.1567ZM9.60656 11.448L9.55338 11.7528H9.85956L9.91275 11.448H9.60656ZM10.1873 12.6153C10.1518 12.6993 10.1258 12.7871 10.1097 12.8769C10.0888 12.976 10.081 13.0776 10.0867 13.1788C10.0907 13.2589 10.1102 13.3375 10.1442 13.4102C10.1853 13.4841 10.246 13.5453 10.3196 13.587C10.4253 13.6457 10.5453 13.6736 10.666 13.6675C10.865 13.6744 11.06 13.6108 11.2166 13.4878C11.2948 13.4271 11.357 13.3481 11.3977 13.2578C11.4929 13.0469 11.5362 12.8162 11.5242 12.5851C11.517 12.4944 11.4837 12.4077 11.4283 12.3356C11.373 12.2634 11.2979 12.2087 11.2122 12.1782C11.009 12.104 10.785 12.1112 10.5869 12.1984C10.4897 12.241 10.404 12.306 10.3368 12.3881C10.2771 12.4568 10.2268 12.5332 10.1873 12.6153ZM10.3957 12.9171C10.4053 12.8502 10.4227 12.7846 10.4475 12.7216C10.4725 12.658 10.509 12.5995 10.5553 12.5491C10.6037 12.4969 10.6625 12.4553 10.7278 12.4269C10.8022 12.3958 10.8838 12.3858 10.9636 12.3982C11.0249 12.4077 11.0825 12.4335 11.1303 12.4729C11.181 12.5189 11.2132 12.5818 11.2209 12.6497C11.2187 12.8039 11.194 12.957 11.1476 13.104C11.131 13.1554 11.104 13.2028 11.0681 13.2431C11.0322 13.2835 10.9883 13.3159 10.9391 13.3383C10.8852 13.3651 10.8266 13.3812 10.7666 13.3857C10.6999 13.3928 10.6326 13.3824 10.5711 13.3556C10.5194 13.3349 10.4745 13.3 10.4417 13.2549C10.4139 13.2124 10.3957 13.1644 10.3886 13.1141C10.3802 13.048 10.3826 12.9824 10.3957 12.9171ZM11.9626 13.6517L12.1207 12.7576C12.1298 12.701 12.1488 12.6465 12.1768 12.5966C12.2083 12.5472 12.2531 12.5078 12.3062 12.483C12.3675 12.4513 12.4356 12.4351 12.5046 12.4356C12.6124 12.4384 12.6828 12.4614 12.7159 12.506C12.7504 12.5491 12.7676 12.5908 12.7691 12.6282C12.7685 12.6813 12.7627 12.7343 12.7518 12.7863L12.598 13.6517L12.9128 13.6488L13.0666 12.7806C13.0843 12.6941 13.091 12.6057 13.0867 12.5175C13.083 12.4539 13.0627 12.3925 13.0278 12.3392C12.9909 12.2867 12.9415 12.2442 12.8841 12.2156C12.8169 12.1819 12.7435 12.1624 12.6684 12.1581C12.6001 12.1559 12.5317 12.1607 12.4643 12.1725C12.3763 12.1852 12.2909 12.2119 12.2113 12.2516L12.2257 12.1653H11.9209L11.655 13.6474L11.9612 13.6502L11.9626 13.6517ZM13.6215 11.4379L13.2305 13.6416H13.5367L13.7049 12.6958H14.0355C14.1325 12.6959 14.2291 12.6839 14.323 12.6598C14.4591 12.6254 14.5821 12.5517 14.6767 12.448C14.7713 12.3442 14.8332 12.2149 14.8549 12.0762C14.8747 11.9721 14.8737 11.8651 14.852 11.7614C14.8379 11.6955 14.8083 11.6339 14.7657 11.5817C14.7186 11.5229 14.6526 11.4823 14.5789 11.4667C14.4979 11.4472 14.4149 11.4376 14.3316 11.4379H13.6215ZM13.7581 12.3939L13.8745 11.7398H14.3201C14.3819 11.7398 14.4323 11.7513 14.4696 11.7772C14.5076 11.8036 14.5355 11.8421 14.5487 11.8864C14.5653 11.9424 14.5687 12.0014 14.5587 12.0589C14.5507 12.1113 14.5337 12.1619 14.5084 12.2084C14.4853 12.2481 14.4539 12.2824 14.4164 12.3091C14.3749 12.3391 14.3281 12.361 14.2784 12.3737C14.2149 12.3887 14.1497 12.3954 14.0844 12.3939H13.7581ZM15.9301 12.7892L15.8956 12.7762C15.8334 12.7624 15.7695 12.7571 15.7059 12.7604C15.611 12.7619 15.5334 12.7691 15.4716 12.7777C15.395 12.7919 15.321 12.8171 15.2516 12.8524C15.1731 12.8887 15.1042 12.9429 15.0504 13.0106C15.0007 13.0727 14.9663 13.1455 14.9497 13.2233C14.9239 13.3469 14.9339 13.4404 14.9785 13.5036C15.0237 13.5678 15.0915 13.6125 15.1683 13.6287C15.3759 13.6782 15.594 13.6601 15.7907 13.5769L15.7792 13.6388H16.0681L16.255 12.5951C16.2721 12.5184 16.2686 12.4386 16.2449 12.3637C16.2179 12.2973 16.1665 12.2438 16.1012 12.2142C16.0059 12.1716 15.9022 12.1509 15.7979 12.1538C15.7072 12.1527 15.6168 12.1638 15.5291 12.1869C15.4584 12.2042 15.3932 12.2387 15.3393 12.2875C15.2957 12.3277 15.2584 12.3742 15.2286 12.4255C15.2042 12.4686 15.1798 12.5189 15.1568 12.5721L15.45 12.575L15.4888 12.5074C15.5057 12.4781 15.5307 12.4541 15.5607 12.4384C15.6088 12.4122 15.6626 12.3979 15.7174 12.3967C15.7731 12.3926 15.8289 12.4025 15.8798 12.4255C15.9131 12.4401 15.9402 12.4661 15.956 12.4988C15.9675 12.5276 15.9704 12.5664 15.9617 12.6138L15.9301 12.7892ZM15.8367 13.311L15.8007 13.3311C15.7747 13.344 15.7472 13.3537 15.7188 13.3599C15.6407 13.3789 15.5606 13.3886 15.4802 13.3886C15.4185 13.3958 15.3559 13.3864 15.2991 13.3613C15.2559 13.3383 15.2358 13.3038 15.2358 13.2607C15.2358 13.2147 15.2545 13.173 15.2933 13.1342C15.3367 13.0933 15.3888 13.0628 15.4457 13.0451C15.5554 13.0085 15.6726 13.0001 15.7864 13.0206C15.8237 13.0292 15.8582 13.035 15.887 13.0393L15.8367 13.3124V13.311ZM17.1419 13.15L16.9522 12.1581H16.6072L16.9062 13.587L16.4836 14.3L16.8142 14.2971L18.0389 12.1581H17.6954L17.1419 13.15Z" fill="#E02424"/>
<path id="Vector_2" d="M11.9186 17.75C11.8537 17.7499 11.7907 17.7717 11.7399 17.8119C11.689 17.8521 11.6532 17.9083 11.6383 17.9714L10.8649 21.2776C10.8549 21.3198 10.8546 21.3636 10.864 21.4059C10.8733 21.4482 10.8921 21.4878 10.9189 21.5218C10.9457 21.5558 10.9799 21.5833 11.0188 21.6022C11.0577 21.6212 11.1005 21.6311 11.1438 21.6313H9.30807C9.26477 21.6311 9.22206 21.6212 9.18313 21.6022C9.1442 21.5833 9.11005 21.5558 9.08324 21.5218C9.05642 21.4878 9.03764 21.4482 9.02828 21.4059C9.01892 21.3636 9.01923 21.3198 9.02919 21.2776L9.80257 17.9714C9.81748 17.9083 9.85329 17.8521 9.90417 17.8119C9.95506 17.7717 10.018 17.7499 10.0829 17.75H11.9186Z" fill="#FA1418"/>
<path id="Vector_3" d="M13.8278 17.75C13.7636 17.7501 13.7013 17.7716 13.6507 17.8112C13.6002 17.8508 13.5644 17.9062 13.5489 17.9685L12.7296 21.2748C12.7191 21.3171 12.7184 21.3612 12.7275 21.4039C12.7366 21.4465 12.7553 21.4865 12.7822 21.5209C12.8091 21.5552 12.8434 21.583 12.8826 21.6021C12.9218 21.6213 12.9648 21.6312 13.0084 21.6313H11.144C11.1007 21.6311 11.058 21.6212 11.0191 21.6022C10.9801 21.5833 10.946 21.5558 10.9192 21.5218C10.8924 21.4878 10.8736 21.4482 10.8642 21.4059C10.8549 21.3636 10.8552 21.3198 10.8651 21.2776L11.6385 17.9714C11.6534 17.9083 11.6892 17.8521 11.7401 17.8119C11.791 17.7717 11.854 17.7499 11.9188 17.75H13.8278Z" fill="#1A2F6D"/>
<path id="Vector_4" d="M13.8274 17.75H15.1585C15.2021 17.75 15.2451 17.76 15.2843 17.7791C15.3235 17.7982 15.3578 17.826 15.3847 17.8604C15.4116 17.8947 15.4303 17.9347 15.4394 17.9774C15.4485 18.02 15.4478 18.0642 15.4374 18.1065L14.618 21.4128C14.6026 21.4751 14.5667 21.5305 14.5162 21.5701C14.4657 21.6097 14.4033 21.6312 14.3391 21.6312H13.008C12.9644 21.6312 12.9213 21.6213 12.8821 21.6021C12.843 21.583 12.8086 21.5552 12.7818 21.5209C12.7549 21.4865 12.7362 21.4465 12.7271 21.4039C12.7179 21.3612 12.7186 21.3171 12.7291 21.2747L13.5485 17.9685C13.5639 17.9062 13.5997 17.8508 13.6503 17.8112C13.7008 17.7716 13.7631 17.75 13.8274 17.75Z" fill="#087570"/>
</g>
</svg>
