<svg width="26" height="24" viewBox="0 0 26 24" fill="none" xmlns="http://www.w3.org/2000/svg">
<g id="Payment Icons">
<path id="visa-logo" fill-rule="evenodd" clip-rule="evenodd" d="M7.12839 15.1127H5.00699L3.41619 8.76959C3.34068 8.47781 3.18036 8.21986 2.94454 8.09829C2.356 7.79276 1.70748 7.54961 1 7.42698V7.18277H4.41742C4.88907 7.18277 5.24281 7.54961 5.30177 7.97565L6.12716 12.5511L8.24754 7.18277L10.31 7.18277L7.12839 15.1127ZM11.4881 15.1127H9.48461L11.1344 7.18277H13.1379L11.4881 15.1127ZM15.7324 9.3797C15.7914 8.95261 16.1451 8.7084 16.5578 8.7084C17.2064 8.64708 17.9128 8.76971 18.5024 9.07418L18.8561 7.36684C18.2665 7.12263 17.618 7 17.0295 7C15.0849 7 13.67 8.09841 13.67 9.62286C13.67 10.7826 14.6722 11.3915 15.3797 11.7584C16.1451 12.1241 16.4399 12.3683 16.381 12.7341C16.381 13.2828 15.7914 13.527 15.2029 13.527C14.4954 13.527 13.7879 13.3441 13.1404 13.0386L12.7867 14.747C13.4941 15.0515 14.2596 15.1741 14.967 15.1741C17.1474 15.2344 18.5024 14.137 18.5024 12.4899C18.5024 10.4157 15.7324 10.2942 15.7324 9.3797ZM25.511 15.1127L23.9202 7.18277H22.2115C21.8578 7.18277 21.5041 7.42698 21.3861 7.79276L18.4404 15.1127H20.5028L20.9145 13.954H23.4486L23.6844 15.1127H25.511ZM22.5112 9.31915L23.0997 12.3078H21.45L22.5112 9.31915Z" fill="#0032BE"/>
</g>
</svg>
