<svg width="48" height="25" viewBox="0 0 48 25" fill="none" xmlns="http://www.w3.org/2000/svg">
<g id="Payment Icons">
<path id="WeChat" d="M18.3645 15.192C18.2607 15.2462 18.1439 15.2776 18.0196 15.2776C17.7321 15.2776 17.4821 15.1139 17.3509 14.8716L17.3006 14.7578L15.207 10.0034C15.1844 9.95172 15.1704 9.89322 15.1704 9.8363C15.1704 9.61718 15.3421 9.43967 15.5539 9.43967C15.6397 9.43967 15.7193 9.46913 15.7832 9.51831L18.2538 11.3387C18.4343 11.4608 18.6499 11.5325 18.8818 11.5325C19.0202 11.5325 19.1521 11.5058 19.2751 11.4595L30.8935 6.10822C28.8109 3.56827 25.3811 1.9082 21.4998 1.9082C15.1484 1.9082 10 6.34831 10 11.8258C10 14.8139 11.549 17.5039 13.9735 19.3221C14.168 19.4658 14.2953 19.7019 14.2953 19.9684C14.2953 20.0565 14.2771 20.1369 14.2548 20.221C14.0612 20.9684 13.7512 22.1655 13.7369 22.2216C13.7126 22.3154 13.6749 22.4135 13.6749 22.5116C13.6749 22.7307 13.8465 22.9082 14.0585 22.9082C14.1416 22.9082 14.2096 22.8762 14.2798 22.8344L16.7974 21.3301C16.9868 21.2172 17.1873 21.1469 17.4082 21.1469C17.5257 21.1469 17.6393 21.1658 17.7461 21.1996C18.9205 21.5492 20.1877 21.7435 21.4999 21.7435C27.8509 21.7435 33 17.3031 33 11.8258C33 10.1668 32.5249 8.60431 31.69 7.22985L18.4488 15.1417L18.3645 15.192Z" fill="#1AAD19"/>
</g>
</svg>
