<svg width="32" height="32" viewBox="0 0 32 32" fill="none" xmlns="http://www.w3.org/2000/svg">
<path d="M0 16C0 7.1635 7.1635 0 16 0C24.8365 0 32 7.1635 32 16C31.3044 16 16 18.0869 16 18.0869L0 16Z" fill="#D80027"/>
<path d="M32 16C32 24.8365 24.8365 32 16 32C7.1635 32 0 24.8365 0 16" fill="black"/>
<path d="M13.8076 12.7242L15.164 13.7086L14.6471 15.3028L16.0025 14.3168L17.359 15.3012L16.8401 13.7075L18.1954 12.7216L16.5194 12.7226L16.0005 11.1289L15.4836 12.7232L13.8076 12.7242Z" fill="#FFDA44"/>
<path d="M20.0012 9.07109C18.7404 8.34315 17.3618 7.99959 16.0012 8.00197V10.0885C17.0069 10.0867 18.0257 10.3404 18.9577 10.8785C21.7813 12.5088 22.7522 16.1323 21.1219 18.9559C19.4917 21.7795 15.8683 22.7505 13.0446 21.1202C12.222 20.6453 11.5579 20.0004 11.0684 19.2562L9.32617 20.4065C9.98848 21.4133 10.8882 22.285 12.0012 22.9275C15.8214 25.1331 20.7237 23.8195 22.9293 19.9993C25.1349 16.179 23.8214 11.2767 20.0012 9.07109V9.07109Z" fill="#FFDA44"/>
<path d="M11.3892 14.6074C10.8361 15.6186 11.2075 16.8868 12.2186 17.4399L18.9967 21.1437C18.5357 21.9862 18.7805 23.0118 19.6231 23.4727L21.454 24.4743C22.2966 24.9353 23.3535 24.6258 23.8145 23.7832L24.816 21.9523L11.3892 14.6074Z" fill="#FFDA44"/>
</svg>
