<svg width="32" height="32" viewBox="0 0 32 32" fill="none" xmlns="http://www.w3.org/2000/svg">
<path d="M32 16C32 24.8365 24.8365 32 16 32C7.1635 32 0 24.8365 0 16C0 16.0037 16 0.0018125 16 0C24.8365 0 32 7.1635 32 16Z" fill="#0052B4"/>
<path d="M15.958 15.9998H16.0008C16.0008 15.9853 16.0008 15.9715 16.0008 15.957C15.9866 15.9713 15.9723 15.9856 15.958 15.9998Z" fill="#F0F0F0"/>
<path d="M16 8.34976C16 5.53445 16 3.68964 16 0.00195312H15.9973C7.162 0.00339062 0 7.1662 0 16.0019H8.34781V11.3011L13.0486 16.0019H15.9572C15.9716 15.9876 15.9858 15.9734 16.0001 15.9591C16.0001 14.8811 16.0001 13.9193 16.0001 13.0506L11.2992 8.34976H16Z" fill="#F0F0F0"/>
<path d="M8.09466 2.08594C5.59223 3.51087 3.51185 5.59125 2.08691 8.09369V15.999H6.26085V6.25994V6.25988H16C16 4.94344 16 3.68931 16 2.08594H8.09466Z" fill="#D80027"/>
<path d="M15.9988 14.0322L10.3142 8.34768H8.34668C8.34668 8.34762 8.34668 8.34768 8.34668 8.34768L15.9987 15.9997H15.9988C15.9988 15.9997 15.9988 14.6432 15.9988 14.0322Z" fill="#D80027"/>
<path d="M9.64874 18.7832L10.5269 20.6193L12.5098 20.161L11.6218 21.9924L13.2164 23.257L11.231 23.7045L11.2366 25.7397L9.64874 24.4664L8.06099 25.7397L8.06656 23.7045L6.08105 23.257L7.67574 21.9924L6.78762 20.161L8.77068 20.6193L9.64874 18.7832Z" fill="#F0F0F0"/>
<path d="M23.9537 22.2617L24.3928 23.1798L25.3843 22.9506L24.9402 23.8663L25.7376 24.4986L24.7449 24.7223L24.7476 25.74L23.9537 25.1033L23.1599 25.74L23.1626 24.7223L22.1699 24.4986L22.9672 23.8663L22.5232 22.9506L23.5147 23.1798L23.9537 22.2617Z" fill="#F0F0F0"/>
<path d="M19.8708 12.5215L20.3098 13.4396L21.3013 13.2104L20.8573 14.1261L21.6546 14.7584L20.6619 14.9821L20.6646 15.9997L19.8708 15.3631L19.0769 15.9997L19.0796 14.9821L18.0869 14.7584L18.8842 14.1261L18.4402 13.2104L19.4317 13.4396L19.8708 12.5215Z" fill="#F0F0F0"/>
<path d="M23.9537 6.95703L24.3928 7.87516L25.3843 7.64597L24.9403 8.56166L25.7375 9.19391L24.7449 9.41772L24.7476 10.4353L23.9537 9.79866L23.1599 10.4353L23.1626 9.41772L22.1699 9.19391L22.9672 8.56166L22.5232 7.64597L23.5147 7.87516L23.9537 6.95703Z" fill="#F0F0F0"/>
<path d="M27.5222 11.1309L27.9612 12.049L28.9527 11.8197L28.5087 12.7354L29.306 13.3677L28.3132 13.5915L28.316 14.6091L27.5222 13.9725L26.7283 14.6091L26.731 13.5915L25.7383 13.3677L26.5356 12.7354L26.0916 11.8197L27.083 12.049L27.5222 11.1309Z" fill="#F0F0F0"/>
<path d="M24.9717 16L25.317 17.0629H26.4347L25.5305 17.7198L25.8759 18.7826L24.9717 18.1257L24.0676 18.7826L24.4129 17.7198L23.5088 17.0629H24.6264L24.9717 16Z" fill="#F0F0F0"/>
</svg>
