<svg width="32" height="32" viewBox="0 0 32 32" fill="none" xmlns="http://www.w3.org/2000/svg">
<path d="M16 32C24.8366 32 32 24.8366 32 16C32 7.16344 24.8366 0 16 0C7.16344 0 0 7.16344 0 16C0 24.8366 7.16344 32 16 32Z" fill="#FFDA44"/>
<path d="M15.9999 32.0008C20.8493 32.0008 25.1945 29.843 28.1287 26.4355H3.87109C6.80528 29.843 11.1505 32.0008 15.9999 32.0008Z" fill="#338AF3"/>
<path d="M32 16C32 7.1635 24.8365 0 16 0C7.1635 0 0 7.1635 0 16C0 17.4442 0.1925 18.8431 0.551188 20.1739H31.4489C31.8075 18.8431 32 17.4442 32 16Z" fill="#338AF3"/>
<path d="M1.27148 22.2617C1.57992 22.9865 1.94048 23.6835 2.34805 24.3487H29.6513C30.0589 23.6834 30.4194 22.9864 30.728 22.2617H1.27148Z" fill="#338AF3"/>
<path d="M7.33205 10.0922L4.20605 8.71259L7.33205 7.33297L8.71162 4.20703L10.0912 7.33297L13.2171 8.71259L10.0912 10.0922L8.71162 13.2182L7.33205 10.0922Z" fill="#F0F0F0"/>
<path d="M8.71231 5.92969L9.56425 7.86025L11.4949 8.71232L9.56425 9.56432L8.71231 11.4949L7.86025 9.56432L5.92969 8.71232L7.86025 7.86025L8.71231 5.92969Z" fill="#D80027"/>
</svg>
