<svg width="32" height="32" viewBox="0 0 32 32" fill="none" xmlns="http://www.w3.org/2000/svg">
<g clip-path="url(#clip0_57127_114889)">
<path d="M31.4488 20.1736C31.8075 18.8427 32 17.4439 32 15.9997C32 14.5555 31.8075 13.1566 31.4488 11.8257L14.6087 0.0605469C11.4824 0.329922 8.61344 1.49805 6.26088 3.30561L0.551188 11.8257C0.1925 13.1566 0 14.5555 0 15.9997C0 17.4354 0.190188 18.8266 0.544875 20.1505L6.26081 28.6937C8.61337 30.5013 11.4823 31.6695 14.6086 31.9388L31.4488 20.1736Z" fill="#FFDA44"/>
<path d="M0.551758 20.1738C1.47751 23.6088 3.51782 26.5859 6.26145 28.694V20.1738H0.551758Z" fill="#0052B4"/>
<path d="M14.6094 31.939C15.068 31.9785 15.5318 31.9999 16.0007 31.9999C23.3931 31.9999 29.6135 26.9861 31.4495 20.1738H14.6094V31.939Z" fill="#0052B4"/>
<path d="M31.4495 11.8261C29.6135 5.01381 23.3931 0 16.0007 0C15.5318 0 15.068 0.021375 14.6094 0.060875V11.8261H31.4495Z" fill="#0052B4"/>
<path d="M6.26145 3.30566C3.51782 5.41379 1.47751 8.39085 0.551758 11.8258H6.26145V3.30566Z" fill="#0052B4"/>
<path d="M31.8646 13.9126H12.5218H12.5218V0.379883C11.0431 0.707758 9.64131 1.2392 8.34781 1.94501V13.9126H0.135438C0.046375 14.5958 0 15.2923 0 15.9996C0 16.7069 0.046375 17.4034 0.135438 18.0865H8.34775H8.34781V30.0541C9.64131 30.7598 11.0431 31.2914 12.5218 31.6192V18.0867V18.0866H31.8646C31.9535 17.4034 32 16.7069 32 15.9996C32 15.2923 31.9535 14.5958 31.8646 13.9126V13.9126Z" fill="#D80027"/>
</g>
<defs>
<clipPath id="clip0_57127_114889">
<rect width="32" height="32" fill="white"/>
</clipPath>
</defs>
</svg>
