<svg width="32" height="32" viewBox="0 0 32 32" fill="none" xmlns="http://www.w3.org/2000/svg">
<g clip-path="url(#clip0_20142_72448)">
<path d="M32 15.9991C32 14.042 31.648 12.1672 31.0048 10.434L16 9.73828L0.995188 10.4339C0.352063 12.1672 0 14.042 0 15.9991C0 17.9563 0.352063 19.8311 0.995188 21.5643L16 22.26L31.0048 21.5644C31.648 19.8311 32 17.9563 32 15.9991Z" fill="#D80027"/>
<path d="M15.999 31.9993C22.8784 31.9993 28.7431 27.6573 31.0038 21.5645H0.994141C3.25483 27.6573 9.11952 31.9993 15.999 31.9993Z" fill="#6DA544"/>
<path d="M0.994141 10.4348H31.0038C28.7431 4.342 22.8784 0 15.999 0C9.11952 0 3.25483 4.342 0.994141 10.4348V10.4348Z" fill="#338AF3"/>
<path d="M16.3483 20.5225C13.851 20.5225 11.8265 18.498 11.8265 16.0008C11.8265 13.5035 13.851 11.479 16.3483 11.479C17.1269 11.479 17.8596 11.6759 18.4992 12.0225C17.4957 11.0412 16.1235 10.4355 14.6091 10.4355C11.5355 10.4355 9.04395 12.9272 9.04395 16.0007C9.04395 19.0743 11.5356 21.5659 14.6091 21.5659C16.1235 21.5659 17.4958 20.9602 18.4992 19.9789C17.8596 20.3257 17.1269 20.5225 16.3483 20.5225Z" fill="#F0F0F0"/>
<path d="M19.8267 12.8711L20.4257 14.5555L22.0403 13.7879L21.2727 15.4025L22.9572 16.0015L21.2727 16.6005L22.0403 18.2152L20.4257 17.4475L19.8267 19.132L19.2279 17.4475L17.6132 18.2152L18.3808 16.6005L16.6963 16.0015L18.3808 15.4025L17.6132 13.7879L19.2279 14.5555L19.8267 12.8711Z" fill="#F0F0F0"/>
</g>
<defs>
<clipPath id="clip0_20142_72448">
<rect width="32" height="32" fill="white"/>
</clipPath>
</defs>
</svg>
