<svg width="32" height="32" viewBox="0 0 32 32" fill="none" xmlns="http://www.w3.org/2000/svg">
<path d="M22.9557 1.58763C20.8522 0.5705 18.4923 0 15.9992 0C13.5061 0 11.1462 0.5705 9.04268 1.58763L7.65137 16L9.04268 30.4124C11.1462 31.4295 13.5061 32 15.9992 32C18.4923 32 20.8522 31.4295 22.9557 30.4124L24.347 16L22.9557 1.58763Z" fill="#FFDA44"/>
<path d="M9.0435 1.58789C3.69163 4.17577 0 9.65633 0 15.9997C0 22.3431 3.69163 27.8236 9.0435 30.4115V1.58789Z" fill="#0052B4"/>
<path d="M22.9561 1.58789V30.4115C28.3079 27.8236 31.9995 22.343 31.9995 15.9997C31.9995 9.65639 28.3079 4.17577 22.9561 1.58789Z" fill="#0052B4"/>
<path d="M20.8697 9.73897L21.803 10.2056L20.8697 9.73897L19.9363 9.27234C19.8801 9.38491 18.6614 11.8645 18.4623 15.652H17.0436V9.73897L16.0001 8.34766L14.9566 9.73897V15.652H13.5379C13.3388 11.8645 12.1202 9.38491 12.0639 9.27234L10.1973 10.2057C10.2101 10.2313 11.4785 12.8128 11.4785 16.6955V17.739H14.9567V23.6521H17.0436V17.739H20.5219V16.6955C20.5219 14.6881 20.8692 13.0328 21.1606 11.9977C21.4783 10.869 21.801 10.2098 21.8042 10.2032L20.8697 9.73897Z" fill="black"/>
</svg>
