<svg width="32" height="32" viewBox="0 0 32 32" fill="none" xmlns="http://www.w3.org/2000/svg">
<g clip-path="url(#clip0_20142_72434)">
<path d="M21.5656 0.995188C19.8323 0.352063 17.9576 0 16.0005 0C14.0433 0 12.1686 0.352063 10.4353 0.995188L9.04395 16L10.4353 31.0048C12.1686 31.648 14.0433 32 16.0005 32C17.9576 32 19.8323 31.648 21.5656 31.0048L22.957 16L21.5656 0.995188Z" fill="#FFDA44"/>
<path d="M32.0002 16.0008C32.0002 9.12147 27.6582 3.25672 21.5654 0.996094V31.0058C27.6582 28.745 32.0002 22.8803 32.0002 16.0008V16.0008Z" fill="#D80027"/>
<path d="M0 16.0008C0 22.8803 4.342 28.745 10.4348 31.0057V0.996094C4.342 3.25672 0 9.12147 0 16.0008V16.0008Z" fill="black"/>
</g>
<defs>
<clipPath id="clip0_20142_72434">
<rect width="32" height="32" fill="white"/>
</clipPath>
</defs>
</svg>
