<svg width="32" height="32" viewBox="0 0 32 32" fill="none" xmlns="http://www.w3.org/2000/svg">
<path d="M16 32C24.8366 32 32 24.8366 32 16C32 7.16344 24.8366 0 16 0C7.16344 0 0 7.16344 0 16C0 24.8366 7.16344 32 16 32Z" fill="#F0F0F0"/>
<path d="M25.7433 3.30591C20.015 -1.10196 11.987 -1.10196 6.25879 3.30585L16.001 13.0481L25.7433 3.30591Z" fill="#D80027"/>
<path d="M16.0009 18.9513L6.25879 28.6934C11.987 33.1013 20.015 33.1013 25.7433 28.6934L16.001 18.9512L16.0009 18.9513Z" fill="#D80027"/>
<path d="M13.0481 16.0001L3.30591 6.25781C-1.10197 11.9861 -1.10197 20.0141 3.30591 25.7423L13.0481 16.0001Z" fill="#6DA544"/>
<path d="M18.9512 16.0001L28.6933 25.7423C33.1012 20.0141 33.1012 11.9861 28.6933 6.25781L18.9512 16.0001Z" fill="#6DA544"/>
<path d="M16.0005 22.956C19.8424 22.956 22.957 19.8414 22.957 15.9995C22.957 12.1575 19.8424 9.04297 16.0005 9.04297C12.1585 9.04297 9.04395 12.1575 9.04395 15.9995C9.04395 19.8414 12.1585 22.956 16.0005 22.956Z" fill="#F0F0F0"/>
<path d="M15.9997 11.1309L16.6021 12.1744H17.8071L17.2046 13.2178L17.8071 14.2613H16.6021L15.9997 15.3048L15.3973 14.2613H14.1924L14.7948 13.2178L14.1924 12.1744H15.3973L15.9997 11.1309Z" fill="#D80027"/>
<path d="M12.9373 16L13.5397 17.0435H14.7446L14.1421 18.0869L14.7446 19.1304H13.5397L12.9373 20.1739L12.3348 19.1304H11.1299L11.7323 18.0869L11.1299 17.0435H12.3348L12.9373 16Z" fill="#D80027"/>
<path d="M19.0623 16L19.6647 17.0435H20.8696L20.2671 18.0869L20.8696 19.1304H19.6647L19.0623 20.1739L18.4598 19.1304H17.2549L17.8573 18.0869L17.2549 17.0435H18.4598L19.0623 16Z" fill="#D80027"/>
</svg>
