<svg width="32" height="32" viewBox="0 0 32 32" fill="none" xmlns="http://www.w3.org/2000/svg">
<path d="M32 16C32 24.8365 24.8365 32 16 32C7.1635 32 0 24.8365 0 16C0 16.0038 16 0.00175 16 0C24.8365 0 32 7.1635 32 16Z" fill="#D80027"/>
<path d="M15.9998 7.65234V13.0488L10.4346 7.65234H15.9998Z" fill="#0052B4"/>
<path d="M8.34699 15.9991H13.0477L8.34699 9.73828L7.65137 14.6078L8.34699 15.9991Z" fill="#0052B4"/>
<path d="M15.958 15.9998H16.0008C16.0008 15.9855 16.0008 15.9715 16.0008 15.957C15.9866 15.9713 15.9723 15.9856 15.958 15.9998Z" fill="#F0F0F0"/>
<path d="M16 8.34781C16 5.5325 16 3.68781 16 0H15.9973C7.16194 0.0015 0 7.16431 0 16H8.34781V11.2993L13.0485 16H15.9572C15.9715 15.9857 15.9858 15.9715 16.0001 15.9572C16.0001 14.8793 16.0001 13.9174 16.0001 13.0486L11.2992 8.34781H16Z" fill="#F0F0F0"/>
<path d="M8.09466 2.08594C5.59223 3.51087 3.51179 5.59125 2.08691 8.09369V16.6946H6.26085V6.26V6.25988H16.6956C16.6956 4.94344 16.6956 3.68931 16.6956 2.08594H8.09466Z" fill="#D80027"/>
<path d="M16.6359 14.6682L10.3152 8.34766H8.34766V8.34778L16.6357 16.6358H16.6358C16.6359 16.6359 16.6359 15.2792 16.6359 14.6682V14.6682Z" fill="#D80027"/>
<path d="M18.0869 8.34766V15.9998C18.0869 19.7273 27.826 19.7273 27.826 15.9998V8.34766H18.0869Z" fill="#F3F3F3"/>
<path d="M18.0869 16.0001V16C18.0869 19.7275 22.9565 20.8696 22.9565 20.8696C22.9565 20.8696 27.826 19.7275 27.826 16V16.0001H18.0869Z" fill="#6DA544"/>
<path d="M22.9562 12.9395L20.6953 13.9134V16.0003L22.9562 17.3916L25.2171 16.0003V13.9134L22.9562 12.9395Z" fill="#A2001D"/>
<path d="M20.6953 11.8262H25.2171V13.9131H20.6953V11.8262Z" fill="#338AF3"/>
</svg>
