<svg width="32" height="32" viewBox="0 0 32 32" fill="none" xmlns="http://www.w3.org/2000/svg">
<g clip-path="url(#clip0_57127_114841)">
<path d="M16 32C24.8366 32 32 24.8366 32 16C32 7.16344 24.8366 0 16 0C7.16344 0 0 7.16344 0 16C0 24.8366 7.16344 32 16 32Z" fill="#F0F0F0"/>
<path d="M4.68581 4.68576C1.25675 8.11483 -0.289939 12.7132 0.0446233 17.1973L17.1973 0.0446385C12.7132 -0.289986 8.11487 1.2567 4.68581 4.68576V4.68576Z" fill="#FFDA44"/>
<path d="M5.71289 28.2542C11.9992 33.5431 21.3966 33.2303 27.3135 27.3135C33.2304 21.3966 33.5432 11.9991 28.2543 5.71289L5.71289 28.2542Z" fill="#0052B4"/>
<path d="M15.9434 15.3562L17.3222 14.6093L15.9434 13.8625C15.6214 11.7712 13.9691 10.1187 11.8778 9.79684L11.1308 8.41797L10.3839 9.79678C8.2927 10.1187 6.64033 11.7711 6.31833 13.8624L4.93945 14.6093L6.31826 15.3562C6.6402 17.4475 8.29257 19.1 10.3839 19.4218L11.1308 20.8007L11.8777 19.4219C13.9691 19.1 15.6214 17.4475 15.9434 15.3562V15.3562ZM11.1309 17.392C9.59407 17.392 8.34826 16.1462 8.34826 14.6093C8.34826 13.0725 9.59401 11.8267 11.1309 11.8267C12.6678 11.8267 13.9135 13.0725 13.9135 14.6093C13.9135 16.1462 12.6677 17.392 11.1309 17.392Z" fill="black"/>
<path d="M11.1306 12.5215L11.733 13.5649H12.9379L12.3354 14.6084L12.9379 15.6519H11.733L11.1306 16.6954L10.5281 15.6519H9.32324L9.92568 14.6084L9.32324 13.5649H10.5281L11.1306 12.5215Z" fill="#D80027"/>
</g>
<defs>
<clipPath id="clip0_57127_114841">
<rect width="32" height="32" fill="white"/>
</clipPath>
</defs>
</svg>
