<svg width="32" height="32" viewBox="0 0 32 32" fill="none" xmlns="http://www.w3.org/2000/svg">
<path d="M16 32C24.8366 32 32 24.8366 32 16C32 7.16344 24.8366 0 16 0C7.16344 0 0 7.16344 0 16C0 24.8366 7.16344 32 16 32Z" fill="#6DA544"/>
<path d="M16.0006 6.26172L29.218 16.0008L16.0006 25.74L2.7832 16.0008L16.0006 6.26172Z" fill="#FFDA44"/>
<path d="M15.9998 21.5659C19.0733 21.5659 21.5649 19.0743 21.5649 16.0007C21.5649 12.9272 19.0733 10.4355 15.9998 10.4355C12.9262 10.4355 10.4346 12.9272 10.4346 16.0007C10.4346 19.0743 12.9262 21.5659 15.9998 21.5659Z" fill="#F0F0F0"/>
<path d="M13.2183 15.6523C12.2506 15.6523 11.3166 15.7995 10.4375 16.0727C10.4764 19.1127 12.9517 21.5654 16.0009 21.5654C17.8864 21.5654 19.5517 20.6268 20.5584 19.1924C18.8361 17.0363 16.186 15.6523 13.2183 15.6523V15.6523Z" fill="#0052B4"/>
<path d="M21.4638 17.067C21.5308 16.7217 21.567 16.3655 21.567 16.0007C21.567 12.9271 19.0754 10.4355 16.0018 10.4355C13.7084 10.4355 11.7397 11.8231 10.8877 13.8042C11.6408 13.6482 12.4206 13.566 13.2193 13.566C16.4516 13.5659 19.3757 14.9095 21.4638 17.067V17.067Z" fill="#0052B4"/>
</svg>
