<svg width="32" height="32" viewBox="0 0 32 32" fill="none" xmlns="http://www.w3.org/2000/svg">
<g clip-path="url(#clip0_20142_72695)">
<path d="M0.754523 11.1312C0.264398 12.6667 -0.00103905 14.3025 -0.000976551 16.0007C-0.00103905 17.6988 0.264398 19.3347 0.754585 20.8703L15.999 21.566L31.2434 20.8703C31.7334 19.3347 31.9989 17.6987 31.9989 16.0008C31.9989 14.3027 31.7335 12.6667 31.2434 11.1312L15.9989 10.4355L0.754523 11.1312Z" fill="#F0F0F0"/>
<path d="M32 15.9995C32 15.0503 31.9169 14.1205 31.7583 13.2168H0.24175C0.083125 14.1205 0 15.0502 0 15.9994C0 16.9487 0.0831875 17.8783 0.24175 18.782H31.7583C31.9168 17.8782 32 16.9486 32 15.9995Z" fill="black"/>
<path d="M15.9983 31.9996C23.1368 31.9996 29.1825 27.3245 31.2427 20.8691H0.753906C2.81422 27.3244 8.85991 31.9995 15.9983 31.9996V31.9996Z" fill="#338AF3"/>
<path d="M15.9994 2.50646e-09C8.86095 2.50646e-09 2.81532 4.67519 0.754883 11.1303L31.2436 11.1304C29.1834 4.67519 23.1378 -0.000124997 15.9994 2.50646e-09V2.50646e-09Z" fill="#338AF3"/>
</g>
<defs>
<clipPath id="clip0_20142_72695">
<rect width="32" height="32" fill="white"/>
</clipPath>
</defs>
</svg>
