<svg width="32" height="32" viewBox="0 0 32 32" fill="none" xmlns="http://www.w3.org/2000/svg">
<path d="M16 32C24.8366 32 32 24.8366 32 16C32 7.16344 24.8366 0 16 0C7.16344 0 0 7.16344 0 16C0 24.8366 7.16344 32 16 32Z" fill="#FCFCFC"/>
<path d="M6.60729 14.841L4.86816 11.6858L6.60729 8.58008L8.34641 11.6858L6.60729 14.841Z" fill="#A2001D"/>
<path d="M3.12975 14.841L1.39062 11.6858L3.12975 8.58008L4.86888 11.6858L3.12975 14.841Z" fill="#A2001D"/>
<path d="M6.60729 23.421L4.86816 20.2658L6.60729 17.1602L8.34641 20.2658L6.60729 23.421Z" fill="#A2001D"/>
<path d="M3.12975 23.421L1.39062 20.2658L3.12975 17.1602L4.86888 20.2658L3.12975 23.421Z" fill="#A2001D"/>
<path d="M8.34688 3.10581L7.85451 2.22656C6.97138 2.74981 6.14307 3.35562 5.37988 4.03337L6.60776 6.26094L8.34688 3.10581Z" fill="#A2001D"/>
<path d="M6.60904 25.7383L5.36816 27.9543C6.13066 28.6329 6.95841 29.2397 7.84116 29.764L8.34822 28.844L6.60904 25.7383Z" fill="#A2001D"/>
<path d="M9.73926 20.1738V30.7277C11.6623 31.5463 13.7781 31.9999 16.0001 31.9999C22.8796 31.9999 28.7443 27.6579 31.0049 21.5651L9.73926 20.1738Z" fill="#6DA544"/>
<path d="M31.0049 21.5652C31.6481 19.8319 32.0001 17.9571 32.0001 16C32.0001 7.1635 24.8366 0 16.0001 0C13.7783 0 11.6623 0.453312 9.73926 1.27175V21.5653H31.0049V21.5652Z" fill="#A2001D"/>
</svg>
