<svg width="32" height="32" viewBox="0 0 32 32" fill="none" xmlns="http://www.w3.org/2000/svg">
<path d="M16 32C24.8366 32 32 24.8366 32 16C32 7.16344 24.8366 0 16 0C7.16344 0 0 7.16344 0 16C0 24.8366 7.16344 32 16 32Z" fill="#F0F0F0"/>
<path d="M31.9995 16.0003C31.9995 9.65689 28.308 4.17589 22.9561 1.58789V30.4126C28.308 27.8246 31.9995 22.3436 31.9995 16.0003V16.0003Z" fill="#D80027"/>
<path d="M0 16.0003C0 22.3436 3.69156 27.8246 9.0435 30.4126V1.58789C3.69156 4.17589 0 9.65689 0 16.0003Z" fill="#D80027"/>
<path d="M18.7824 18.0874L21.5649 16.696L20.1737 16.0004V14.6091L17.3911 16.0004L18.7824 13.2178H17.3911L15.9998 11.1309L14.6084 13.2178H13.2171L14.6084 16.0004L11.8258 14.6091V16.0004L10.4346 16.696L13.2171 18.0874L12.5215 19.4787H15.3041V21.5656H16.6954V19.4787H19.478L18.7824 18.0874Z" fill="#D80027"/>
</svg>
