<svg width="32" height="32" viewBox="0 0 32 32" fill="none" xmlns="http://www.w3.org/2000/svg">
<path d="M16 32C24.8366 32 32 24.8366 32 16C32 7.16344 24.8366 0 16 0C7.16344 0 0 7.16344 0 16C0 24.8366 7.16344 32 16 32Z" fill="#6DA544"/>
<path d="M24.5612 22.9551L25.0002 23.8731L25.9917 23.644L25.5477 24.5597L26.345 25.192L25.3523 25.4157L25.3551 26.4334L24.5612 25.7967L23.7673 26.4334L23.77 25.4157L22.7773 25.192L23.5747 24.5597L23.1307 23.644L24.1221 23.8731L24.5612 22.9551Z" fill="#FFDA44"/>
<path d="M20.4762 13.2168L20.9153 14.1349L21.9068 13.9057L21.4628 14.8214L22.2601 15.4537L21.2674 15.6774L21.2701 16.695L20.4762 16.0584L19.6823 16.695L19.685 15.6774L18.6924 15.4537L19.4897 14.8214L19.0456 13.9057L20.0372 14.1349L20.4762 13.2168Z" fill="#FFDA44"/>
<path d="M24.5621 7.65234L25.0011 8.57041L25.9926 8.34116L25.5487 9.25691L26.3459 9.88922L25.3532 10.1129L25.3559 11.1306L24.5621 10.4939L23.7682 11.1306L23.7709 10.1129L22.7783 9.88922L23.5756 9.25691L23.1316 8.34116L24.123 8.57041L24.5621 7.65234Z" fill="#FFDA44"/>
<path d="M28.1295 11.8262L28.5686 12.7442L29.5601 12.515L29.1161 13.4308L29.9134 14.063L28.9207 14.2868L28.9235 15.3045L28.1295 14.6678L27.3356 15.3045L27.3383 14.2868L26.3457 14.063L27.143 13.4308L26.699 12.515L27.6905 12.7442L28.1295 11.8262Z" fill="#FFDA44"/>
<path d="M25.5771 16.6953L25.9226 17.7582H27.0401L26.1359 18.4151L26.4814 19.4779L25.5771 18.8211L24.6731 19.4779L25.0184 18.4151L24.1143 17.7582H25.2318L25.5771 16.6953Z" fill="#FFDA44"/>
<path d="M17.738 20.5206C15.2407 20.5206 13.2162 18.4961 13.2162 15.9988C13.2162 13.5016 15.2406 11.4771 17.738 11.4771C18.5166 11.4771 19.2493 11.674 19.8889 12.0206C18.8855 11.0392 17.5133 10.4336 15.9987 10.4336C12.9252 10.4336 10.4336 12.9252 10.4336 15.9988C10.4336 19.0723 12.9252 21.564 15.9987 21.564C17.5132 21.564 18.8855 20.9583 19.8888 19.977C19.2493 20.3237 18.5166 20.5206 17.738 20.5206V20.5206Z" fill="#FFDA44"/>
<path d="M10.0601 6.26045C9.57884 5.42895 8.6804 4.86914 7.65065 4.86914C6.6209 4.86914 5.72246 5.42895 5.24121 6.26045H10.0601Z" fill="#FFDA44"/>
<path d="M10.0704 6.27734L7.6517 8.69603L5.23302 6.27734C5.00183 6.68303 4.86914 7.15222 4.86914 7.65259C4.86914 9.18941 6.11495 10.4352 7.65177 10.4352C9.18858 10.4352 10.4344 9.18947 10.4344 7.65259C10.4343 7.15222 10.3016 6.68303 10.0704 6.27734V6.27734Z" fill="#FFDA44"/>
<path d="M6.95605 8V10.3471C7.17837 10.4043 7.41149 10.4347 7.65168 10.4347C7.89187 10.4347 8.12499 10.4043 8.3473 10.3471V8H6.95605Z" fill="#A2001D"/>
</svg>
