<svg width="32" height="32" viewBox="0 0 32 32" fill="none" xmlns="http://www.w3.org/2000/svg">
<g clip-path="url(#clip0_25263_88654)">
<path d="M30.224 8.66416C29.4847 7.23172 28.5156 5.88722 27.3148 4.68647C26.114 3.48566 24.7695 2.51659 23.3371 1.77734L12.0653 12.0652L1.77734 23.337C2.51666 24.7695 3.48572 26.114 4.68647 27.3148C5.88722 28.5155 7.23178 29.4846 8.66416 30.2239L19.936 19.936L30.224 8.66416Z" fill="#FFDA44"/>
<path d="M4.68542 27.3137C5.35661 27.9849 6.0728 28.5835 6.82398 29.1106L29.1105 6.82398C28.5835 6.0728 27.9849 5.35661 27.3137 4.68542C26.6425 4.01423 25.9264 3.41567 25.1752 2.88867L2.88867 25.1752C3.41561 25.9262 4.01417 26.6425 4.68542 27.3137V27.3137Z" fill="#D80027"/>
<path d="M4.68588 4.68575C-0.362055 9.73368 -1.33112 17.3148 1.77676 23.3364L23.3365 1.77668C17.3149 -1.33113 9.73376 -0.361942 4.68588 4.68575V4.68575Z" fill="#338AF3"/>
<path d="M27.3146 27.3146C32.3625 22.2667 33.3315 14.6856 30.2238 8.66406L8.66406 30.2238C14.6856 33.3316 22.2668 32.3626 27.3146 27.3146V27.3146Z" fill="#338AF3"/>
<path d="M8.52664 4.86914L9.39002 7.52645H12.184L9.92365 9.1687L10.787 11.826L8.52664 10.1836L6.26614 11.826L7.12964 9.1687L4.86914 7.52645H7.66314L8.52664 4.86914Z" fill="#FFDA44"/>
</g>
<defs>
<clipPath id="clip0_25263_88654">
<rect width="32" height="32" fill="white"/>
</clipPath>
</defs>
</svg>
