<svg width="32" height="32" viewBox="0 0 32 32" fill="none" xmlns="http://www.w3.org/2000/svg">
<g clip-path="url(#clip0_20142_72452)">
<path d="M16.0001 32C17.9572 32 19.8321 31.648 21.5653 31.0048L22.261 16L21.5654 0.995188C19.8321 0.352063 17.9572 0 16.0001 0C14.043 0 12.1682 0.352063 10.4349 0.995188L9.73926 16L10.4349 31.0048C12.1682 31.648 14.043 32 16.0001 32Z" fill="#F0F0F0"/>
<path d="M0 15.999C0 22.8784 4.342 28.7431 10.4348 31.0038V0.994141C4.342 3.25483 0 9.11952 0 15.999Z" fill="#FF9811"/>
<path d="M21.5654 0.994141V31.0038C27.6582 28.7431 32.0002 22.8784 32.0002 15.999C32.0002 9.11952 27.6582 3.25483 21.5654 0.994141V0.994141Z" fill="#6DA544"/>
</g>
<defs>
<clipPath id="clip0_20142_72452">
<rect width="32" height="32" fill="white"/>
</clipPath>
</defs>
</svg>
