<svg width="32" height="32" viewBox="0 0 32 32" fill="none" xmlns="http://www.w3.org/2000/svg">
<path d="M32 16C32 24.8365 24.8365 32 16 32C7.1635 32 0 24.8365 0 16C0 16.0038 16 0.00175 16 0C24.8365 0 32 7.1635 32 16Z" fill="#0052B4"/>
<path d="M15.958 15.9998H16.0008C16.0008 15.9855 16.0008 15.9715 16.0008 15.957C15.9866 15.9713 15.9723 15.9856 15.958 15.9998Z" fill="#F0F0F0"/>
<path d="M16 8.34781C16 5.5325 16 3.68781 16 0H15.9973C7.16194 0.0015 0 7.16431 0 16H8.34781V11.2993L13.0485 16H15.9572C15.9715 15.9857 15.9858 15.9715 16.0001 15.9572C16.0001 14.8793 16.0001 13.9174 16.0001 13.0486L11.2992 8.34781H16Z" fill="#F0F0F0"/>
<path d="M8.09466 2.08594C5.59223 3.51087 3.51179 5.59125 2.08691 8.09369V15.999H6.26085V6.26V6.25988H16C16 4.94344 16 3.68931 16 2.08594H8.09466Z" fill="#D80027"/>
<path d="M15.9998 14.0322L10.3152 8.34766H8.34766V8.34778L15.9997 15.9998H15.9998C15.9998 15.9998 15.9998 14.6431 15.9998 14.0322V14.0322Z" fill="#D80027"/>
<path d="M21.5644 16L21.8605 16.911H22.8183L22.0434 17.474L22.3394 18.3851L21.5644 17.822L20.7894 18.3851L21.0854 17.474L20.3105 16.911H21.2684L21.5644 16Z" fill="#F0F0F0"/>
<path d="M17.6302 17.6292L18.4836 18.064L19.161 17.3867L19.0111 18.3328L19.8646 18.7677L18.9185 18.9175L18.7687 19.8637L18.3338 19.0102L17.3877 19.16L18.0651 18.4827L17.6302 17.6292Z" fill="#F0F0F0"/>
<path d="M16 21.5662L16.911 21.2703L16.9111 20.3125L17.474 21.0873L18.3851 20.7913L17.822 21.5662L18.3851 22.3413L17.474 22.0453L16.9111 22.8202V21.8624L16 21.5662Z" fill="#F0F0F0"/>
<path d="M17.6302 25.5001L18.065 24.6466L17.3877 23.9693L18.3338 24.1191L18.7687 23.2656L18.9185 24.2118L19.8646 24.3615L19.0111 24.7964L19.161 25.7426L18.4836 25.0651L17.6302 25.5001Z" fill="#F0F0F0"/>
<path d="M21.5654 27.1312L21.2694 26.2201H20.3115L21.0865 25.6571L20.7905 24.7461L21.5654 25.3091L22.3405 24.7461L22.0445 25.6571L22.8193 26.2201H21.8615L21.5654 27.1312Z" fill="#F0F0F0"/>
<path d="M25.5001 25.5001L24.6466 25.0653L23.9693 25.7426L24.1191 24.7964L23.2656 24.3616L24.2118 24.2118L24.3616 23.2656L24.7964 24.1191L25.7426 23.9693L25.0651 24.6466L25.5001 25.5001Z" fill="#F0F0F0"/>
<path d="M27.1302 21.5662L26.2191 21.8624V22.8202L25.6561 22.0452L24.7451 22.3413L25.3082 21.5662L24.7451 20.7913L25.6561 21.0873L26.2191 20.3125V21.2703L27.1302 21.5662Z" fill="#F0F0F0"/>
<path d="M25.5001 17.6312L25.0653 18.4846L25.7426 19.1619L24.7964 19.012L24.3616 19.8656L24.2118 18.9194L23.2656 18.7695L24.1191 18.3347L23.9693 17.3887L24.6466 18.0659L25.5001 17.6312Z" fill="#F0F0F0"/>
</svg>
