<svg width="32" height="32" viewBox="0 0 32 32" fill="none" xmlns="http://www.w3.org/2000/svg">
<g clip-path="url(#clip0_20142_72669)">
<path d="M15.9999 32.0018C24.8365 32.0018 31.9999 24.8384 31.9999 16.0019C31.9999 7.16537 24.8365 0.00195312 15.9999 0.00195312C7.16342 0.00195312 0 7.16537 0 16.0019C0 24.8384 7.16342 32.0018 15.9999 32.0018Z" fill="#F0F0F0"/>
<path d="M15.9989 0C10.7644 0 6.1173 2.51394 3.19824 6.4H28.7996C25.8806 2.51388 21.2334 0 15.9989 0V0Z" fill="#0052B4"/>
<path d="M15.9989 31.9996C21.2334 31.9996 25.8806 29.4857 28.7996 25.5996H3.19824C6.11724 29.4857 10.7644 31.9996 15.9989 31.9996Z" fill="#0052B4"/>
<path d="M-0.000976562 16.0008C-0.000976562 17.0967 0.109523 18.1668 0.319461 19.2008H31.6786C31.8886 18.1668 31.999 17.0967 31.999 16.0008C31.999 14.9048 31.8885 13.8347 31.6786 12.8008H0.319461C0.109523 13.8347 -0.000976562 14.9048 -0.000976562 16.0008V16.0008Z" fill="#0052B4"/>
<path d="M4.68526 4.68555C-1.56305 10.9339 -1.56305 21.0645 4.68526 27.313C7.26732 24.7309 9.75057 22.2476 15.9989 15.9993L4.68526 4.68555Z" fill="#D80027"/>
<path d="M6.4756 11.8262L7.51148 15.0146H10.8644L8.15204 16.9854L9.18791 20.1739L6.4756 18.2032L3.76316 20.1739L4.79929 16.9854L2.08691 15.0146H5.43954L6.4756 11.8262Z" fill="#F0F0F0"/>
</g>
<defs>
<clipPath id="clip0_20142_72669">
<rect width="32" height="32" fill="white"/>
</clipPath>
</defs>
</svg>
