<svg width="32" height="32" viewBox="0 0 32 32" fill="none" xmlns="http://www.w3.org/2000/svg">
<path d="M16 32C24.8366 32 32 24.8366 32 16C32 7.16344 24.8366 0 16 0C7.16344 0 0 7.16344 0 16C0 24.8366 7.16344 32 16 32Z" fill="#FFDA44"/>
<path d="M15.9997 32.0007C21.2497 32.0007 25.909 29.4721 28.8265 25.5664H3.17285C6.09035 29.4721 10.7497 32.0007 15.9997 32.0007Z" fill="#0052B4"/>
<path d="M32 16C32 7.1635 24.8365 0 16 0C7.1635 0 0 7.1635 0 16C0 17.8921 0.329313 19.707 0.93225 21.3918H31.0677C31.6707 19.707 32 17.8921 32 16V16Z" fill="#0052B4"/>
<path d="M10.9511 10.2617L11.8144 12.9187H14.6084L12.3481 14.5611L13.2114 17.2182L10.9511 15.576L8.69082 17.2182L9.55426 14.5611L7.29395 12.9187H10.0878L10.9511 10.2617Z" fill="#F0F0F0"/>
<path d="M6.15324 7.47852L6.67124 9.07277H8.34768L6.99149 10.0581L7.50949 11.6525L6.15324 10.6671L4.79705 11.6525L5.31511 10.0581L3.95898 9.07277H5.63536L6.15324 7.47852Z" fill="#F0F0F0"/>
</svg>
