<svg width="32" height="32" viewBox="0 0 32 32" fill="none" xmlns="http://www.w3.org/2000/svg">
<g clip-path="url(#clip0_28241_34976)">
<path d="M27.3138 27.313C21.0654 33.5614 10.9347 33.5614 4.6863 27.313C-1.56213 21.0646 -1.56207 10.934 4.6863 4.68555C5.17817 5.17736 17.4757 14.5235 17.4757 14.5235L27.3138 27.313Z" fill="#0052B4"/>
<path d="M4.68652 4.68628C10.9349 -1.56209 21.0655 -1.56209 27.314 4.68628C33.5624 10.9346 33.5623 21.0653 27.314 27.3137" fill="#6DA544"/>
<path d="M16.0001 20.174C18.3053 20.174 20.174 18.3053 20.174 16.0001C20.174 13.6949 18.3053 11.8262 16.0001 11.8262C13.6949 11.8262 11.8262 13.6949 11.8262 16.0001C11.8262 18.3053 13.6949 20.174 16.0001 20.174Z" fill="#FFDA44"/>
<path d="M5.9577 22.9551L6.39676 23.8731L7.3882 23.644L6.9442 24.5596L7.74157 25.1919L6.74882 25.4156L6.75157 26.4333L5.9577 25.7966L5.16383 26.4333L5.16658 25.4156L4.17383 25.1919L4.9712 24.5596L4.52714 23.644L5.51864 23.8731L5.9577 22.9551Z" fill="#F0F0F0"/>
<path d="M3.08557 15.3047L3.52463 16.2227L4.51607 15.9935L4.07213 16.9092L4.86938 17.5416L3.87669 17.7652L3.87944 18.7829L3.08557 18.1463L2.29176 18.7829L2.29445 17.7652L1.30176 17.5416L2.09907 16.9092L1.65507 15.9935L2.64651 16.2227L3.08557 15.3047Z" fill="#F0F0F0"/>
<path d="M5.95764 9.04297L6.3967 9.96103L7.38813 9.73178L6.9442 10.6475L7.74151 11.2798L6.74876 11.5035L6.75151 12.5212L5.95764 11.8846L5.16376 12.5212L5.16651 11.5035L4.17383 11.2798L4.97108 10.6475L4.52708 9.73178L5.51858 9.96103L5.95764 9.04297Z" fill="#F0F0F0"/>
<path d="M9.52502 13.9121L9.96408 14.8302L10.9556 14.6009L10.5115 15.5167L11.3088 16.149L10.3161 16.3727L10.3188 17.3904L9.52502 16.7537L8.73115 17.3904L8.7339 16.3727L7.74121 16.149L8.53846 15.5167L8.09452 14.6009L9.08596 14.8302L9.52502 13.9121Z" fill="#F0F0F0"/>
<path d="M6.97459 18.0859L7.31997 19.1488H8.43746L7.53334 19.8057L7.87871 20.8685L6.97459 20.2117L6.07047 20.8685L6.41584 19.8057L5.51172 19.1488H6.62922L6.97459 18.0859Z" fill="#F0F0F0"/>
<path d="M16.0003 18.7817H17.3916C17.3916 18.7817 17.9945 17.7151 17.3916 16.6947L18.7829 15.3034L18.0873 13.9121H17.3916C17.3916 13.9121 17.0438 14.9556 15.6525 14.9556C14.2612 14.9556 13.9134 13.9121 13.9134 13.9121H13.2178L13.9134 15.3034L13.2178 16.6947L13.9134 17.3904C13.9134 17.3904 14.609 15.999 16.0003 16.6947C16.0003 16.6947 16.5916 17.5643 16.0003 18.7817Z" fill="#6DA544"/>
<path d="M26.3844 8.76294C26.4173 8.59201 26.4347 8.41569 26.4347 8.2352C26.4347 6.9977 25.6267 5.94951 24.5097 5.58789C24.851 6.28164 25.0434 7.06189 25.0434 7.88738C25.0434 8.16576 25.021 8.43888 24.9789 8.70544C24.8108 8.43463 24.5949 8.1872 24.3311 7.97726C23.3373 7.18651 21.9792 7.16557 20.9751 7.83151C21.7503 8.00076 22.4998 8.34482 23.1628 8.87226C23.6818 9.28525 24.1011 9.84388 24.4223 10.3831L20.1738 11.7134C24.3478 12.4091 27.826 9.6265 27.826 9.6265C27.4406 8.85576 26.8421 8.72576 26.3844 8.76294Z" fill="#FFDA44"/>
</g>
<defs>
<clipPath id="clip0_28241_34976">
<rect width="32" height="32" fill="white"/>
</clipPath>
</defs>
</svg>
