<svg width="32" height="32" viewBox="0 0 32 32" fill="none" xmlns="http://www.w3.org/2000/svg">
<path d="M16 32C24.8366 32 32 24.8366 32 16C32 7.16344 24.8366 0 16 0C7.16344 0 0 7.16344 0 16C0 24.8366 7.16344 32 16 32Z" fill="#FCFCFC"/>
<path d="M25.0429 13.9121C24.556 13.9121 23.9531 13.9121 22.956 13.9121C22.956 17.7541 19.8414 20.8686 15.9995 20.8686C12.1574 20.8686 9.04299 17.7541 9.04299 13.9121C8.37049 13.9121 7.62843 13.9121 6.95605 13.9121C6.95605 18.0505 9.73581 21.5397 13.5302 22.6143C13.1142 23.4045 13.1776 24.3995 13.7718 25.141C14.5523 24.5155 15.3604 23.8679 16.0459 23.3187C16.7314 23.868 17.5395 24.5155 18.3199 25.141C18.9201 24.3921 18.9791 23.3845 18.5493 22.5905C22.3021 21.4895 25.0429 18.0211 25.0429 13.9121V13.9121Z" fill="#6DA544"/>
<path d="M10.4346 13.2172C10.4346 13.2172 10.4346 16.6955 13.9128 16.6955L14.6084 17.3911H15.9998C15.9998 17.3911 16.6954 15.3042 18.0867 15.3042C18.0867 15.3042 18.0867 13.9128 19.478 13.9128C20.8693 13.9128 21.5649 13.9128 21.5649 13.9128C21.5649 13.9128 20.8693 11.1302 24.3476 9.04328L22.9563 8.34766C22.9563 8.34766 18.0867 11.8259 14.6084 11.1303V12.5216H13.2171L12.5215 11.826L10.4346 13.2172Z" fill="#FFDA44"/>
</svg>
