<svg width="32" height="32" viewBox="0 0 32 32" fill="none" xmlns="http://www.w3.org/2000/svg">
<path d="M0.994141 21.5651C3.25483 27.6578 9.11952 31.9999 15.999 31.9999C22.8784 31.9999 28.7431 27.6578 31.0038 21.5651L15.999 20.1738L0.994141 21.5651Z" fill="#FFDA44"/>
<path d="M15.999 0C9.11952 0 3.25483 4.342 0.994141 10.4348L15.999 11.8261L31.0038 10.4347C28.7431 4.342 22.8784 0 15.999 0Z" fill="black"/>
<path d="M0.995188 10.4355C0.352063 12.1689 0 14.0436 0 16.0007C0 17.9579 0.352063 19.8326 0.995188 21.5659H31.0049C31.648 19.8326 32 17.9579 32 16.0007C32 14.0436 31.648 12.1689 31.0048 10.4355H0.995188Z" fill="#D80027"/>
</svg>
