<svg width="32" height="32" viewBox="0 0 32 32" fill="none" xmlns="http://www.w3.org/2000/svg">
<path d="M16 32C24.8366 32 32 24.8366 32 16C32 7.16344 24.8366 0 16 0C7.16344 0 0 7.16344 0 16C0 24.8366 7.16344 32 16 32Z" fill="#F0F0F0"/>
<path d="M12.5206 13.9131H31.8633C30.8406 6.06262 24.1279 0 15.9988 0C14.8041 0 13.6405 0.132063 12.5205 0.380313V13.9131H12.5206Z" fill="#D80027"/>
<path d="M8.34714 13.9129V1.94531C3.95383 4.34244 0.808703 8.73937 0.134766 13.9129H8.34714V13.9129Z" fill="#D80027"/>
<path d="M8.34708 18.0879H0.134766C0.808703 23.2615 3.95383 27.6584 8.34714 30.0555L8.34708 18.0879Z" fill="#D80027"/>
<path d="M12.5205 18.088V31.6206C13.6405 31.8689 14.8041 32.001 15.9988 32.001C24.1279 32.001 30.8406 25.9383 31.8633 18.0879H12.5205V18.088Z" fill="#D80027"/>
</svg>
