<svg width="32" height="32" viewBox="0 0 32 32" fill="none" xmlns="http://www.w3.org/2000/svg">
<path d="M16 32C24.8366 32 32 24.8366 32 16C32 7.16344 24.8366 0 16 0C7.16344 0 0 7.16344 0 16C0 24.8366 7.16344 32 16 32Z" fill="#F0F0F0"/>
<path d="M19.1309 31.6934C25.456 30.4386 30.4386 25.456 31.6934 19.1309H19.1309V31.6934Z" fill="#496E2D"/>
<path d="M0.307617 19.1309C1.5623 25.456 6.54493 30.4386 12.8701 31.6934V19.1309H0.307617Z" fill="#496E2D"/>
<path d="M31.6934 12.8691C30.4386 6.54402 25.456 1.56139 19.1309 0.306641V12.8691H31.6934Z" fill="#496E2D"/>
<path d="M12.8701 0.306641C6.54493 1.56139 1.5623 6.54402 0.307617 12.8691H12.8701V0.306641Z" fill="#496E2D"/>
<path d="M14.9571 19.1309H12.8701V31.6934C13.5512 31.8284 14.2479 31.9199 14.9571 31.9656V19.1309Z" fill="#FFDA44"/>
<path d="M14.9571 12.8699V0.0351562C14.2479 0.0807813 13.5511 0.172344 12.8701 0.307406V12.8699H14.9571Z" fill="#FFDA44"/>
<path d="M17.043 0.0348125C16.6979 0.0125 16.3502 0 15.9995 0C15.6489 0 15.3012 0.0125 14.9561 0.0348125V12.8696H17.043V0.0348125H17.043Z" fill="black"/>
<path d="M14.9561 31.9656C15.3012 31.988 15.6489 32.0005 15.9995 32.0005C16.3502 32.0005 16.6979 31.988 17.043 31.9656V19.1309H14.9561V31.9656H14.9561Z" fill="black"/>
<path d="M12.8699 14.9561V12.8691H0.307406C0.172281 13.5503 0.0807813 14.2469 0.0351562 14.9561H12.8699Z" fill="#FFDA44"/>
<path d="M19.1318 14.9561H31.9666C31.921 14.2469 31.8295 13.5503 31.6944 12.8691H19.1319V14.9561H19.1318Z" fill="#FFDA44"/>
<path d="M19.1299 17.044H31.9647C31.987 16.699 31.9995 16.3512 31.9995 16.0005C31.9995 15.6498 31.987 15.3021 31.9647 14.957H19.1299V17.044Z" fill="black"/>
<path d="M0.0348125 14.957C0.0125625 15.3021 0 15.6498 0 16.0005C0 16.3512 0.0125625 16.699 0.0348125 17.044H12.8696V14.9571H0.0348125V14.957Z" fill="black"/>
<path d="M16.0008 23.652C20.227 23.652 23.653 20.226 23.653 15.9998C23.653 11.7737 20.227 8.34766 16.0008 8.34766C11.7746 8.34766 8.34863 11.7737 8.34863 15.9998C8.34863 20.226 11.7746 23.652 16.0008 23.652Z" fill="#D80027"/>
<path d="M17.7447 16.8533C17.1755 15.715 16.4357 14.5612 16.4357 14.5612C16.4357 14.5612 16.454 14.0359 16.454 13.7229C16.454 13.2514 16.0718 12.8691 15.6003 12.8691C15.1536 12.8691 14.7876 13.2123 14.7503 13.6493C14.399 13.6722 14.1211 13.9636 14.1211 14.3206C14.1211 14.5801 14.2682 14.8051 14.4834 14.9175C14.5904 14.6673 14.7999 14.4719 15.059 14.3828C15.1013 14.4174 15.1467 14.4483 15.1951 14.4745L15.3045 14.5268C15.3045 14.5268 14.8989 15.67 14.8989 16.2841C14.8989 18.0106 16.0373 18.5431 16.0373 18.5431V18.5609L15.4681 19.13H16.6064V17.9916L17.1756 18.5608C17.1806 18.5501 18.2537 17.8715 17.7447 16.8533V16.8533Z" fill="#496E2D"/>
<path d="M16.0005 9.73828L16.2595 10.5354H17.0976L16.4195 11.0281L16.6786 11.8252L16.0005 11.3326L15.3223 11.8252L15.5814 11.0281L14.9033 10.5354H15.7415L16.0005 9.73828Z" fill="#496E2D"/>
<path d="M12.3195 10.9337L12.9975 11.4263L13.6756 10.9336L13.4166 11.7308L14.0948 12.2234L13.2566 12.2235L12.9976 13.0206L12.7385 12.2235L11.9004 12.2234L12.5785 11.7307L12.3195 10.9337Z" fill="#496E2D"/>
<path d="M10.0459 14.0647H10.884L11.143 13.2676L11.402 14.0647L12.2402 14.0646L11.5621 14.5574L11.8212 15.3545L11.143 14.8618L10.465 15.3545L10.7239 14.5573L10.0459 14.0647Z" fill="#496E2D"/>
<path d="M10.0459 17.9343L10.7239 17.4417L10.4649 16.6445L11.143 17.1372L11.8211 16.6445L11.5621 17.4417L12.2403 17.9343L11.402 17.9344L11.143 18.7315L10.884 17.9343H10.0459Z" fill="#496E2D"/>
<path d="M12.3206 21.0634L12.5795 20.2664L11.9014 19.7738H12.7396L12.9986 18.9766L13.2576 19.7737H14.0958L13.4177 20.2664L13.6767 21.0635L12.9986 20.5708L12.3206 21.0634Z" fill="#496E2D"/>
<path d="M16.0005 22.2608L15.7415 21.4638H14.9033L15.5814 20.971L15.3223 20.1739L16.0005 20.6665L16.6785 20.1738L16.4195 20.971L17.0976 21.4637L16.2595 21.4638L16.0005 22.2608Z" fill="#496E2D"/>
<path d="M19.6815 21.0634L19.0035 20.5708L18.3254 21.0636L18.5844 20.2664L17.9062 19.7738L18.7444 19.7737L19.0034 18.9766L19.2625 19.7738H20.1006L19.4226 20.2664L19.6815 21.0634Z" fill="#496E2D"/>
<path d="M21.9551 17.9342H21.1171L20.858 18.7314L20.599 17.9343H19.7607L20.4389 17.4416L20.1798 16.6445L20.858 17.1372L21.536 16.6445L21.2771 17.4417L21.9551 17.9342Z" fill="#496E2D"/>
<path d="M21.9551 14.0646L21.2771 14.5573L21.5361 15.3544L20.858 14.8618L20.1799 15.3545L20.4389 14.5573L19.7607 14.0647L20.599 14.0646L20.8579 13.2676L21.1171 14.0646H21.9551Z" fill="#496E2D"/>
<path d="M19.6815 10.9336L19.4226 11.7307L20.1006 12.2233H19.2625L19.0035 13.0205L18.7444 12.2234L17.9062 12.2235L18.5844 11.7307L18.3254 10.9337L19.0035 11.4262L19.6815 10.9336Z" fill="#496E2D"/>
</svg>
