<svg width="32" height="32" viewBox="0 0 32 32" fill="none" xmlns="http://www.w3.org/2000/svg">
<path d="M16 32C24.8366 32 32 24.8366 32 16C32 7.16344 24.8366 0 16 0C7.16344 0 0 7.16344 0 16C0 24.8366 7.16344 32 16 32Z" fill="#F0F0F0"/>
<path d="M0.551758 20.1738C2.02913 25.6553 6.3452 29.9714 11.8267 31.4488V20.1738H0.551758Z" fill="#D80027"/>
<path d="M11.8266 0.550781C6.34519 2.02809 2.02907 6.34422 0.551758 11.8257H11.8267V0.550781H11.8266Z" fill="#0052B4"/>
<path d="M31.4487 11.8257C29.9714 6.34422 25.6553 2.02809 20.1738 0.550781V11.8257H31.4487V11.8257Z" fill="#D80027"/>
<path d="M20.1738 31.4488C25.6553 29.9714 29.9714 25.6553 31.4488 20.1738H20.1738V31.4488Z" fill="#0052B4"/>
<path d="M20.1741 16.0001C20.1741 18.3054 18.3054 20.1741 16.0001 20.1741C13.6949 20.1741 11.8262 18.3054 11.8262 16.0001C11.8262 13.6949 16.0001 11.8262 16.0001 11.8262C16.0001 11.8262 20.1741 13.6949 20.1741 16.0001Z" fill="#496E2D"/>
<path d="M11.8262 16.0001C11.8262 13.6949 13.6949 11.8262 16.0001 11.8262C18.3054 11.8262 20.1741 13.6949 20.1741 16.0001" fill="#0052B4"/>
<path d="M13.6514 13.9121V16.5208C13.6514 17.8175 14.7025 18.8686 15.9992 18.8686C17.2959 18.8686 18.347 17.8175 18.347 16.5208V13.9121H13.6514Z" fill="#D80027"/>
</svg>
