<svg width="32" height="32" viewBox="0 0 32 32" fill="none" xmlns="http://www.w3.org/2000/svg">
<g clip-path="url(#clip0_20142_72667)">
<path d="M16 32C24.8366 32 32 24.8366 32 16C32 7.16344 24.8366 0 16 0C7.16344 0 0 7.16344 0 16C0 24.8366 7.16344 32 16 32Z" fill="#F0F0F0"/>
<path d="M31.3035 15.9997L31.8634 13.9127C31.7704 13.2014 31.6309 12.5047 31.448 11.8258H14.6078V0.0605469C13.8978 0.121672 13.2012 0.229734 12.5208 0.380609L9.7382 2.08661L8.34689 1.94617C7.6147 2.34567 6.91714 2.80067 6.25995 3.30561V11.8257H0.550266C0.367328 12.5046 0.227828 13.2014 0.134828 13.9127L0.694703 15.9997L0.134766 18.0866C0.227766 18.7979 0.367266 19.4947 0.550203 20.1736H6.25989V28.6937C6.91708 29.1987 7.6147 29.6536 8.34683 30.0531L10.4338 29.9127L12.5207 31.6187C13.2011 31.7695 13.8977 31.8776 14.6076 31.9387V20.1736H31.4478C31.6307 19.4947 31.7702 18.798 31.8632 18.0867L31.3035 15.9997Z" fill="#0052B4"/>
<path d="M31.8646 13.9136H12.5218H12.5218V0.380859C11.0431 0.708734 9.64131 1.24017 8.34781 1.94598V13.9135H0.135438C0.0465 14.5967 0 15.2932 0 16.0005C0 16.7079 0.0465 17.4044 0.135438 18.0875H8.34775H8.34781V30.055C9.64131 30.7608 11.0431 31.2924 12.5218 31.6202V18.0877V18.0875H31.8646C31.9535 17.4044 32 16.7079 32 16.0005C32 15.2932 31.9535 14.5967 31.8646 13.9136V13.9136Z" fill="#D80027"/>
</g>
<defs>
<clipPath id="clip0_20142_72667">
<rect width="32" height="32" fill="white"/>
</clipPath>
</defs>
</svg>
