<svg width="32" height="32" viewBox="0 0 32 32" fill="none" xmlns="http://www.w3.org/2000/svg">
<g clip-path="url(#clip0_20142_72679)">
<path d="M16 32C24.8366 32 32 24.8366 32 16C32 7.16344 24.8366 0 16 0C7.16344 0 0 7.16344 0 16C0 24.8366 7.16344 32 16 32Z" fill="#F9F9F9"/>
<path d="M16 32.0012C22.8794 32.0012 28.7441 27.6592 31.0047 21.5664H0.995117C3.25587 27.6592 9.12049 32.0012 16 32.0012Z" fill="#D80027"/>
<path d="M22.2617 13.2177V11.1308H22.9573V9.73947H21.566V10.4352H20.1748V9.73947H18.7834V11.1308H19.4791V13.2177H18.0878V8.34828H18.7834V6.95703H17.3921V7.65253H16.6964V6.95703H15.3052V7.65253H14.6095V6.95703H13.2182V8.34828H13.9139V13.2177H12.5226V11.1308H13.2182V9.73947H11.8269V10.4352H10.4356V9.73947H9.04432V11.1308H9.73995V13.2177H8.34863V18.783H23.653V13.2177H22.2617Z" fill="#D80027"/>
<path d="M16.0003 18.0879C14.8478 18.0879 13.9134 19.0223 13.9134 20.1748C13.9134 21.0833 14.4943 21.8561 15.3047 22.1426V25.0445H13.2178V27.8271H16.696V22.1426C17.5065 21.8561 18.0873 21.0835 18.0873 20.1749C18.0873 19.0223 17.1529 18.0879 16.0003 18.0879V18.0879ZM16.0003 20.8705C15.6161 20.8705 15.3047 20.559 15.3047 20.1749C15.3047 19.7907 15.6161 19.4793 16.0003 19.4793C16.3845 19.4793 16.696 19.7907 16.696 20.1749C16.696 20.559 16.3845 20.8705 16.0003 20.8705Z" fill="#FFDA44"/>
</g>
<defs>
<clipPath id="clip0_20142_72679">
<rect width="32" height="32" fill="white"/>
</clipPath>
</defs>
</svg>
