<svg width="32" height="32" viewBox="0 0 32 32" fill="none" xmlns="http://www.w3.org/2000/svg">
<path d="M0 16C0 7.1635 7.1635 0 16 0C24.8365 0 32 7.1635 32 16C31.3044 16 16 18.0869 16 18.0869L0 16Z" fill="#F0F0F0"/>
<path d="M32 16C32 24.8365 24.8365 32 16 32C7.1635 32 0 24.8365 0 16" fill="#D80027"/>
<path d="M11.1297 23.652C15.3559 23.652 18.7819 20.226 18.7819 15.9998C18.7819 11.7737 15.3559 8.34766 11.1297 8.34766C6.90354 8.34766 3.47754 11.7737 3.47754 15.9998C3.47754 20.226 6.90354 23.652 11.1297 23.652Z" fill="#F0F0F0"/>
<path d="M3.47754 15.9998C3.47754 11.7738 6.90354 8.34766 11.1297 8.34766C15.356 8.34766 18.7819 11.7737 18.7819 15.9998" fill="#D80027"/>
</svg>
