<svg width="32" height="32" viewBox="0 0 32 32" fill="none" xmlns="http://www.w3.org/2000/svg">
<g clip-path="url(#clip0_20142_72437)">
<path d="M16 32C24.8366 32 32 24.8366 32 16C32 7.16344 24.8366 0 16 0C7.16344 0 0 7.16344 0 16C0 24.8366 7.16344 32 16 32Z" fill="#F0F0F0"/>
<path d="M9.73981 10.4348H31.0054C28.7448 4.342 22.8801 0 16.0007 0C11.5823 0 7.58275 1.79119 4.6875 4.68681L9.73981 10.4348Z" fill="#6DA544"/>
<path d="M9.73981 21.5645H31.0054C28.7448 27.6573 22.8801 31.9993 16.0007 31.9993C11.5823 31.9993 7.58275 30.2081 4.6875 27.3125L9.73981 21.5645Z" fill="#D80027"/>
<path d="M4.6853 4.68555C-1.56307 10.9339 -1.56307 21.0646 4.6853 27.313C7.26737 24.731 9.75068 22.2477 15.9991 15.9993L4.6853 4.68555Z" fill="#0052B4"/>
<path d="M18.7832 13.2168V16.695C18.7832 18.825 21.5658 19.4777 21.5658 19.4777C21.5658 19.4777 24.3485 18.825 24.3485 16.695V13.2168H18.7832Z" fill="#DEDDE0"/>
<path d="M20.8701 16.0703H22.2614V18.0877H20.8701V16.0703Z" fill="#786145"/>
<path d="M22.9558 15.3034C22.9558 14.535 22.3329 13.9121 21.5645 13.9121C20.796 13.9121 20.1732 14.535 20.1732 15.3034C19.789 15.3034 19.4775 15.6149 19.4775 15.9991C19.4775 16.3832 19.789 16.6947 20.1732 16.6947H22.9558C23.34 16.6947 23.6514 16.3832 23.6514 15.9991C23.6514 15.6149 23.34 15.3034 22.9558 15.3034V15.3034Z" fill="#6DA544"/>
</g>
<defs>
<clipPath id="clip0_20142_72437">
<rect width="32" height="32" fill="white"/>
</clipPath>
</defs>
</svg>
