<svg width="32" height="32" viewBox="0 0 32 32" fill="none" xmlns="http://www.w3.org/2000/svg">
<path d="M16 32C24.8366 32 32 24.8366 32 16C32 7.16344 24.8366 0 16 0C7.16344 0 0 7.16344 0 16C0 24.8366 7.16344 32 16 32Z" fill="#F0F0F0"/>
<path d="M31.9995 16.0003C31.9995 9.65689 28.308 4.17589 22.9561 1.58789V30.4126C28.308 27.8246 31.9995 22.3436 31.9995 16.0003V16.0003Z" fill="#338AF3"/>
<path d="M0 16.0003C0 22.3436 3.69156 27.8246 9.0435 30.4126V1.58789C3.69156 4.17589 0 9.65689 0 16.0003Z" fill="#338AF3"/>
<path d="M20.1807 18.7063L17.4753 16.0009L20.0505 13.4256L19.9338 12.0655L19.1966 11.3281L15.9996 14.5251L12.8025 11.3281L12.0653 12.0655L11.9486 13.4256L14.5238 16.0009L11.8184 18.7063L13.2941 20.1819L15.9996 17.4766L18.705 20.1819L20.1807 18.7063Z" fill="#ACABB1"/>
<path d="M19.9349 12.0645L18.4593 13.5401C19.0887 14.1696 19.4781 15.0391 19.4781 15.9996C19.4781 17.9206 17.9208 19.4779 15.9998 19.4779C14.0789 19.4779 12.5215 17.9206 12.5215 15.9996C12.5215 15.0391 12.9109 14.1696 13.5403 13.5401L12.0646 12.0645C11.0574 13.0715 10.4346 14.4628 10.4346 15.9996C10.4346 19.0733 12.9262 21.5648 15.9998 21.5648C19.0733 21.5648 21.5649 19.0732 21.5649 15.9996C21.5649 14.4628 20.9421 13.0715 19.9349 12.0645V12.0645Z" fill="#6DA544"/>
</svg>
