<svg width="32" height="32" viewBox="0 0 32 32" fill="none" xmlns="http://www.w3.org/2000/svg">
<g clip-path="url(#clip0_20142_72457)">
<path d="M6.98242 29.2175C9.55017 30.9728 12.6552 32.0001 16.0004 32.0001C19.3455 32.0001 22.4505 30.9728 25.0183 29.2175L16.0004 27.8262L6.98242 29.2175Z" fill="#D80027"/>
<path d="M25.0183 2.78262C22.4505 1.02731 19.3455 0 16.0004 0C12.6552 0 9.55017 1.02731 6.98242 2.78262L16.0004 4.17394L25.0183 2.78262Z" fill="#D80027"/>
<path d="M32 16.0006C32 10.7062 28.8302 5.38933 25.0179 2.7832H6.98206C2.76687 5.6647 0 10.5093 0 16.0006C0 21.492 2.76687 26.3365 6.98206 29.218H25.0179C29.2332 26.3365 32 21.492 32 16.0006Z" fill="#0052B4"/>
<path d="M15.0947 26.1007C14.8761 25.9132 9.73926 21.4478 9.73926 16.0009C9.73926 10.5541 14.876 6.08856 15.0947 5.90112L16.0001 5.125L16.9056 5.90106C17.1242 6.08856 22.261 10.5541 22.261 16.0009C22.261 21.4478 17.1242 25.9134 16.9056 26.1007L16.0001 26.8769L15.0947 26.1007Z" fill="#D80027"/>
<path d="M20.869 16.0005C20.869 11.131 15.9994 6.95703 15.9994 6.95703C15.9994 6.95703 11.1299 11.1311 11.1299 16.0005C11.1299 17.4902 11.5859 18.9145 12.2186 20.1745H19.7803C20.4129 18.9145 20.869 17.4902 20.869 16.0005Z" fill="#338AF3"/>
<path d="M20.869 16C20.869 17.4897 20.4129 18.914 19.7803 20.1739L15.9994 20.8696L12.2186 20.1739C11.5859 18.9141 11.1299 17.4897 11.1299 16H20.869Z" fill="#0052B4"/>
<path d="M16.0006 25.0434C16.0006 25.0434 18.3461 23.0323 19.7815 20.1738H12.2197C13.6551 23.0323 16.0006 25.0434 16.0006 25.0434Z" fill="#FFDA44"/>
<path d="M12.8701 13.2168H19.131L16.0006 16.3472L12.8701 13.2168Z" fill="#6DA544"/>
<path d="M14.9561 15.3047H17.043V21.5656H14.9561V15.3047Z" fill="#A2001D"/>
</g>
<defs>
<clipPath id="clip0_20142_72457">
<rect width="32" height="32" fill="white"/>
</clipPath>
</defs>
</svg>
