<svg width="32" height="32" viewBox="0 0 32 32" fill="none" xmlns="http://www.w3.org/2000/svg">
<g clip-path="url(#clip0_20142_72664)">
<path d="M16 32C24.8366 32 32 24.8366 32 16C32 7.16344 24.8366 0 16 0C7.16344 0 0 7.16344 0 16C0 24.8366 7.16344 32 16 32Z" fill="#F0F0F0"/>
<path d="M15.9993 0C13.1705 0 10.5138 0.735125 8.20801 2.02325V29.9767C10.5138 31.2649 13.1705 32 15.9993 32C24.8358 32 31.9993 24.8365 31.9993 16C31.9993 7.1635 24.8358 0 15.9993 0Z" fill="#6DA544"/>
<path d="M8.25538 1.99609C7.24882 2.55391 6.30895 3.21691 5.45026 3.97066C5.53707 3.89453 5.62476 3.81928 5.71313 3.74503L17.9672 15.9992L5.71307 28.2533C5.62463 28.179 5.53701 28.1038 5.4502 28.0277C6.30888 28.7814 7.24882 29.4443 8.25532 30.0022L31.9996 15.9992L8.25538 1.99609Z" fill="#F0F0F0"/>
<path d="M6.90416 2.83594C6.41623 3.17381 5.9476 3.53737 5.50104 3.92594L15.9998 15.9996L5.50098 28.0732C5.94754 28.4618 6.41616 28.8254 6.9041 29.1632L29.2609 15.9996L6.90416 2.83594Z" fill="#FFDA44"/>
<path d="M5.71273 3.74609C5.35705 4.04497 5.0138 4.35828 4.68555 4.68647L14.608 16.0002L4.68555 27.314C5.0138 27.6422 5.35698 27.9556 5.71273 28.2543L17.9669 16.0002L5.71273 3.74609Z" fill="black"/>
<path d="M4.6853 4.68555C-1.56307 10.9339 -1.56307 21.0646 4.6853 27.313C7.26737 24.731 9.75068 22.2477 15.9991 15.9993L4.6853 4.68555Z" fill="#D80027"/>
</g>
<defs>
<clipPath id="clip0_20142_72664">
<rect width="32" height="32" fill="white"/>
</clipPath>
</defs>
</svg>
