<svg width="32" height="32" viewBox="0 0 32 32" fill="none" xmlns="http://www.w3.org/2000/svg">
<path d="M16 32C24.8366 32 32 24.8366 32 16C32 7.16344 24.8366 0 16 0C7.16344 0 0 7.16344 0 16C0 24.8366 7.16344 32 16 32Z" fill="#D80027"/>
<path d="M17.65 12.1051C17.2864 13.6176 16.6403 13.3291 16.3233 14.6481C14.4556 14.1991 13.3053 12.321 13.7544 10.4531C14.2033 8.58546 16.0816 7.43521 17.9493 7.88427C17.3151 10.5222 17.9753 10.7525 17.65 12.1051Z" fill="#F0F0F0"/>
<path d="M12.8046 13.2256C14.1307 14.0387 13.6567 14.5642 14.8131 15.2733C13.8088 16.9109 11.6672 17.4243 10.0296 16.4202C8.39206 15.416 7.8785 13.2743 8.88275 11.6367C11.1956 13.055 11.6184 12.4983 12.8046 13.2256V13.2256Z" fill="#F0F0F0"/>
<path d="M12.3733 18.1817C13.5565 17.1718 13.9095 17.7849 14.9413 16.9043C16.1885 18.3654 16.015 20.5609 14.554 21.8081C13.0929 23.0552 10.8974 22.8816 9.65039 21.4206C11.7138 19.6592 11.315 19.0849 12.3733 18.1817Z" fill="#F0F0F0"/>
<path d="M16.9527 20.1239C16.3577 18.6866 17.0499 18.5401 16.5312 17.2867C18.3062 16.5522 20.3407 17.3956 21.0753 19.1705C21.8099 20.9454 20.9664 22.9799 19.1914 23.7145C18.1541 21.2077 17.4848 21.4095 16.9527 20.1239Z" fill="#F0F0F0"/>
<path d="M20.2154 16.369C18.6645 16.4907 18.739 15.7869 17.3868 15.8931C17.2366 13.9781 18.6675 12.3037 20.5825 12.1534C22.4975 12.0034 24.1719 13.4342 24.322 15.3493C21.6172 15.5614 21.6023 16.2603 20.2154 16.369Z" fill="#F0F0F0"/>
</svg>
