<svg width="32" height="32" viewBox="0 0 32 32" fill="none" xmlns="http://www.w3.org/2000/svg">
<g clip-path="url(#clip0_57127_114869)">
<path d="M32 16C32 24.8365 24.8365 32 16 32C7.1635 32 0 24.8365 0 16C0 16.0037 16 0.0018125 16 0C24.8365 0 32 7.1635 32 16Z" fill="#0052B4"/>
<path d="M15.958 15.9998H16.0008C16.0008 15.9853 16.0008 15.9715 16.0008 15.957C15.9866 15.9713 15.9723 15.9856 15.958 15.9998Z" fill="#F0F0F0"/>
<path d="M16 8.34879C16 5.53348 16 3.68866 16 0.000976562H15.9973C7.162 0.00241406 0 7.16523 0 16.0009H8.34781V11.3002L13.0486 16.0009H15.9572C15.9716 15.9867 15.9858 15.9724 16.0001 15.9581C16.0001 14.8802 16.0001 13.9184 16.0001 13.0496L11.2992 8.34879H16Z" fill="#F0F0F0"/>
<path d="M8.09466 2.08691C5.59223 3.51185 3.51185 5.59223 2.08691 8.09466V16H6.26085V6.26091V6.26085H16C16 4.94441 16 3.69029 16 2.08691H8.09466Z" fill="#D80027"/>
<path d="M15.9988 14.0322L10.3142 8.34768H8.34668C8.34668 8.34762 8.34668 8.34768 8.34668 8.34768L15.9987 15.9997H15.9988C15.9988 15.9997 15.9988 14.6432 15.9988 14.0322Z" fill="#D80027"/>
<path d="M9.64874 18.7822L10.5269 20.6184L12.5098 20.16L11.6218 21.9914L13.2164 23.256L11.231 23.7035L11.2366 25.7387L9.64874 24.4654L8.06099 25.7387L8.06656 23.7035L6.08105 23.256L7.67574 21.9914L6.78762 20.16L8.77068 20.6184L9.64874 18.7822Z" fill="#F0F0F0"/>
<path d="M23.9537 22.2607L24.3928 23.1788L25.3843 22.9496L24.9402 23.8653L25.7376 24.4976L24.7449 24.7214L24.7476 25.739L23.9537 25.1023L23.1599 25.739L23.1626 24.7214L22.1699 24.4976L22.9672 23.8653L22.5232 22.9496L23.5147 23.1788L23.9537 22.2607Z" fill="#F0F0F0"/>
<path d="M19.8708 12.5215L20.3098 13.4396L21.3013 13.2104L20.8573 14.1261L21.6546 14.7584L20.6619 14.9821L20.6646 15.9997L19.8708 15.3631L19.0769 15.9997L19.0796 14.9821L18.0869 14.7584L18.8842 14.1261L18.4402 13.2104L19.4317 13.4396L19.8708 12.5215Z" fill="#F0F0F0"/>
<path d="M23.9537 6.95605L24.3928 7.87418L25.3843 7.64499L24.9403 8.56068L25.7375 9.19293L24.7449 9.41674L24.7476 10.4344L23.9537 9.79768L23.1599 10.4344L23.1626 9.41674L22.1699 9.19293L22.9672 8.56068L22.5232 7.64499L23.5147 7.87418L23.9537 6.95605Z" fill="#F0F0F0"/>
<path d="M27.5222 11.1299L27.9612 12.048L28.9527 11.8188L28.5087 12.7344L29.306 13.3668L28.3132 13.5906L28.316 14.6081L27.5222 13.9715L26.7283 14.6081L26.731 13.5906L25.7383 13.3668L26.5356 12.7344L26.0916 11.8188L27.083 12.048L27.5222 11.1299Z" fill="#F0F0F0"/>
<path d="M24.9717 16L25.317 17.0629H26.4347L25.5305 17.7198L25.8759 18.7826L24.9717 18.1257L24.0676 18.7826L24.4129 17.7198L23.5088 17.0629H24.6264L24.9717 16Z" fill="#F0F0F0"/>
</g>
<defs>
<clipPath id="clip0_57127_114869">
<rect width="32" height="32" fill="white"/>
</clipPath>
</defs>
</svg>
