<svg width="32" height="32" viewBox="0 0 32 32" fill="none" xmlns="http://www.w3.org/2000/svg">
<path d="M16 32C24.8366 32 32 24.8366 32 16C32 7.16344 24.8366 0 16 0C7.16344 0 0 7.16344 0 16C0 24.8366 7.16344 32 16 32Z" fill="#F0F0F0"/>
<path d="M15.9993 32.0005C22.3426 32.0005 27.8237 28.309 30.4117 22.957H1.58691C4.17491 28.309 9.65591 32.0005 15.9993 32.0005Z" fill="#338AF3"/>
<path d="M15.9993 0C9.65591 0 4.17491 3.69156 1.58691 9.0435H30.4116C27.8237 3.69156 22.3426 0 15.9993 0V0Z" fill="#338AF3"/>
<path d="M9.84574 10.4355L10.3637 12.0299H12.0401L10.6839 13.0151L11.202 14.6094L9.84574 13.6241L8.48949 14.6094L9.00756 13.0151L7.65137 12.0299H9.32768L9.84574 10.4355Z" fill="#338AF3"/>
<path d="M9.84574 17.3906L10.3637 18.985H12.0401L10.6839 19.9703L11.202 21.5645L9.84574 20.5792L8.48949 21.5645L9.00756 19.9703L7.65137 18.985H9.32768L9.84574 17.3906Z" fill="#338AF3"/>
<path d="M22.1524 10.4355L22.6704 12.0299H24.3468L22.9906 13.0151L23.5086 14.6094L22.1524 13.6241L20.7961 14.6094L21.3142 13.0151L19.958 12.0299H21.6344L22.1524 10.4355Z" fill="#338AF3"/>
<path d="M22.1524 17.3906L22.6704 18.985H24.3468L22.9906 19.9703L23.5086 21.5645L22.1524 20.5792L20.7961 21.5645L21.3142 19.9703L19.958 18.985H21.6344L22.1524 17.3906Z" fill="#338AF3"/>
<path d="M15.9991 13.9121L16.5171 15.5065H18.1935L16.8373 16.4917L17.3553 18.086L15.9991 17.1007L14.6428 18.086L15.1609 16.4917L13.8047 15.5065H15.481L15.9991 13.9121Z" fill="#338AF3"/>
</svg>
