<svg width="32" height="32" viewBox="0 0 32 32" fill="none" xmlns="http://www.w3.org/2000/svg">
<g clip-path="url(#clip0_20142_72501)">
<path d="M32 15.9991C32 14.042 31.6479 12.1672 31.0048 10.434L16 9.73828L0.995188 10.4339C0.352063 12.1672 0 14.042 0 15.9991C0 17.9563 0.352063 19.8311 0.995188 21.5643L16 22.26L31.0048 21.5644C31.6479 19.8311 32 17.9563 32 15.9991Z" fill="#F0F0F0"/>
<path d="M15.999 31.9993C22.8784 31.9993 28.7431 27.6573 31.0038 21.5645H0.994141C3.25483 27.6573 9.11952 31.9993 15.999 31.9993Z" fill="#0052B4"/>
<path d="M0.994141 10.4348H31.0038C28.7431 4.342 22.8784 0 15.999 0C9.11952 0 3.25483 4.342 0.994141 10.4348V10.4348Z" fill="#D80027"/>
<path d="M20.1733 11.1313H17.3906L17.8544 7.65303L19.7094 6.26172L21.5645 7.65303V10.4356L20.1733 11.1313Z" fill="#338AF3"/>
<path d="M11.8258 11.1313H14.6084L14.1446 7.65303L12.2896 6.26172L10.4346 7.65303V10.4356L11.8258 11.1313Z" fill="#338AF3"/>
<path d="M17.8548 11.1313H14.1445V7.65303L15.9997 6.26172L17.8548 7.65303V11.1313Z" fill="#0052B4"/>
<path d="M10.4346 10.4355V18.0877C10.4346 19.9097 11.3147 21.5301 12.6722 22.5459L13.6461 22.3022L14.8751 23.5386C15.2386 23.6135 15.6146 23.6529 15.9998 23.6529C16.3829 23.6529 16.7571 23.614 17.1186 23.5398L18.5216 22.3717L19.3273 22.5437C20.6843 21.5279 21.565 19.9092 21.565 18.0877V10.4355H10.4346Z" fill="#F0F0F0"/>
<path d="M10.4346 10.4355H12.6606V12.6616H10.4346V10.4355Z" fill="#D80027"/>
<path d="M14.8867 10.4355H17.1128V12.6616H14.8867V10.4355Z" fill="#D80027"/>
<path d="M19.3389 10.4355H21.5649V12.6616H19.3389V10.4355Z" fill="#D80027"/>
<path d="M12.6602 12.6621H14.8862V14.8882H12.6602V12.6621Z" fill="#D80027"/>
<path d="M17.1133 12.6621H19.3393V14.8882H17.1133V12.6621Z" fill="#D80027"/>
<path d="M10.4346 14.8867H12.6606V17.1128H10.4346V14.8867Z" fill="#D80027"/>
<path d="M12.6602 17.1133H14.8862V19.3393H12.6602V17.1133Z" fill="#D80027"/>
<path d="M14.8867 14.8867H17.1128V17.1128H14.8867V14.8867Z" fill="#D80027"/>
<path d="M19.3389 14.8867H21.5649V17.1128H19.3389V14.8867Z" fill="#D80027"/>
<path d="M17.1133 17.1133H19.3393V19.3393H17.1133V17.1133Z" fill="#D80027"/>
<path d="M14.8867 19.3398H17.1128V21.5659H14.8867V19.3398Z" fill="#D80027"/>
<path d="M12.6596 19.3398H10.5771C10.7681 20.1673 11.1436 20.9245 11.6585 21.5659H12.6596V19.3398Z" fill="#D80027"/>
<path d="M19.3389 21.5659H20.3399C20.8549 20.9245 21.2302 20.1673 21.4212 19.3398H19.3389V21.5659Z" fill="#D80027"/>
<path d="M12.6602 21.5645V22.5358C13.3076 23.023 14.0642 23.3723 14.8862 23.5399V21.5645H12.6602Z" fill="#D80027"/>
<path d="M17.1133 21.5645V23.5399C17.9353 23.3724 18.6919 23.023 19.3393 22.5358V21.5645H17.1133Z" fill="#D80027"/>
</g>
<defs>
<clipPath id="clip0_20142_72501">
<rect width="32" height="32" fill="white"/>
</clipPath>
</defs>
</svg>
