<svg width="32" height="32" viewBox="0 0 32 32" fill="none" xmlns="http://www.w3.org/2000/svg">
<path d="M16 32C24.8366 32 32 24.8366 32 16C32 7.16344 24.8366 0 16 0C7.16344 0 0 7.16344 0 16C0 24.8366 7.16344 32 16 32Z" fill="#F0F0F0"/>
<path d="M22.0247 12.5212H18.0083L16.0001 9.04297L13.9921 12.5212H9.97559L11.984 15.9995L9.97559 19.4777H13.9921L16.0001 22.956L18.0083 19.4777H22.0247L20.0163 15.9995L22.0247 12.5212ZM18.4673 15.9995L17.2338 18.1362H14.7666L13.533 15.9995L14.7666 13.8627H17.2338L18.4673 15.9995ZM16.0001 11.7259L16.4593 12.5212H15.5411L16.0001 11.7259ZM12.2993 13.8627H13.2175L12.7584 14.658L12.2993 13.8627ZM12.2993 18.1362L12.7585 17.341L13.2176 18.1362H12.2993ZM16.0001 20.273L15.5411 19.4777H16.4593L16.0001 20.273ZM19.701 18.1362H18.7828L19.242 17.341L19.701 18.1362ZM18.7828 13.8627H19.701L19.2419 14.658L18.7828 13.8627Z" fill="#0052B4"/>
<path d="M25.9601 3.47852H6.04045C4.58026 4.64152 3.32801 6.05414 2.34863 7.65245H29.6519C28.6724 6.0542 27.4202 4.64152 25.9601 3.47852V3.47852Z" fill="#0052B4"/>
<path d="M6.04045 28.5216H25.96C27.4202 27.3586 28.6724 25.946 29.6518 24.3477H2.34863C3.32807 25.9459 4.58032 27.3586 6.04045 28.5216V28.5216Z" fill="#0052B4"/>
</svg>
