<svg width="32" height="32" viewBox="0 0 32 32" fill="none" xmlns="http://www.w3.org/2000/svg">
<g clip-path="url(#clip0_20142_72482)">
<path d="M16 32C24.8366 32 32 24.8366 32 16C32 7.16344 24.8366 0 16 0C7.16344 0 0 7.16344 0 16C0 24.8366 7.16344 32 16 32Z" fill="#F0F0F0"/>
<path d="M15.9993 0C9.65591 0 4.17491 3.69156 1.58691 9.0435H30.4116C27.8237 3.69156 22.3426 0 15.9993 0V0Z" fill="#FF9811"/>
<path d="M15.9993 32.0005C22.3426 32.0005 27.8237 28.309 30.4117 22.957H1.58691C4.17491 28.309 9.65591 32.0005 15.9993 32.0005Z" fill="#6DA544"/>
<path d="M15.9998 21.5659C19.0733 21.5659 21.5649 19.0743 21.5649 16.0007C21.5649 12.9272 19.0733 10.4355 15.9998 10.4355C12.9262 10.4355 10.4346 12.9272 10.4346 16.0007C10.4346 19.0743 12.9262 21.5659 15.9998 21.5659Z" fill="#0052B4"/>
<path d="M16.0007 19.478C17.9217 19.478 19.4789 17.9207 19.4789 15.9997C19.4789 14.0787 17.9217 12.5215 16.0007 12.5215C14.0797 12.5215 12.5225 14.0787 12.5225 15.9997C12.5225 17.9207 14.0797 19.478 16.0007 19.478Z" fill="#F0F0F0"/>
<path d="M15.9993 11.707L17.0724 14.1407L19.7164 13.8531L18.1454 15.9991L19.7164 18.1452L17.0724 17.8576L15.9993 20.2913L14.9262 17.8576L12.2822 18.1451L13.8532 15.9991L12.2822 13.8531L14.9262 14.1407L15.9993 11.707Z" fill="#0052B4"/>
</g>
<defs>
<clipPath id="clip0_20142_72482">
<rect width="32" height="32" fill="white"/>
</clipPath>
</defs>
</svg>
