<svg width="32" height="32" viewBox="0 0 32 32" fill="none" xmlns="http://www.w3.org/2000/svg">
<g clip-path="url(#clip0_20142_72436)">
<path d="M16 32C24.8366 32 32 24.8366 32 16C32 7.16344 24.8366 0 16 0C7.16344 0 0 7.16344 0 16C0 24.8366 7.16344 32 16 32Z" fill="#F0F0F0"/>
<path d="M32.0002 15.999C32.0002 9.11952 27.6582 3.25483 21.5654 0.994141V31.0038C27.6582 28.7431 32.0002 22.8784 32.0002 15.999V15.999Z" fill="#D80027"/>
<path d="M0 15.999C0 22.8784 4.342 28.7431 10.4348 31.0038V0.994141C4.342 3.25483 0 9.11952 0 15.999Z" fill="#6DA544"/>
</g>
<defs>
<clipPath id="clip0_20142_72436">
<rect width="32" height="32" fill="white"/>
</clipPath>
</defs>
</svg>
