<svg width="32" height="32" viewBox="0 0 32 32" fill="none" xmlns="http://www.w3.org/2000/svg">
<path d="M16 32C24.8366 32 32 24.8366 32 16C32 7.16344 24.8366 0 16 0C7.16344 0 0 7.16344 0 16C0 24.8366 7.16344 32 16 32Z" fill="#FFDA44"/>
<path d="M25.7418 3.3075C23.0439 1.23369 19.6667 0 16.0008 0C12.335 0 8.9577 1.23375 6.25977 3.3075L16.0008 13.0485L25.7418 3.3075Z" fill="#6DA544"/>
<path d="M3.30744 6.25977C1.23375 8.9577 0 12.3349 0 16.0008C0 19.6666 1.23375 23.0439 3.3075 25.7419L13.0486 16.0008L3.30744 6.25977Z" fill="black"/>
<path d="M6.25977 28.6922C8.95777 30.766 12.335 31.9997 16.0008 31.9997C19.6667 31.9997 23.0439 30.7659 25.7419 28.6922L16.0008 18.9512L6.25977 28.6922Z" fill="#6DA544"/>
<path d="M28.6922 25.7418C30.766 23.0438 31.9997 19.6666 31.9997 16.0008C31.9997 12.3349 30.766 8.9577 28.6922 6.25977L18.9512 16.0008L28.6922 25.7418Z" fill="black"/>
</svg>
