<svg width="32" height="32" viewBox="0 0 32 32" fill="none" xmlns="http://www.w3.org/2000/svg">
<g clip-path="url(#clip0_20142_72656)">
<path d="M0 16C0 7.1635 7.1635 0 16 0C24.8365 0 32 7.1635 32 16" fill="#D80027"/>
<path d="M21.5649 14.88L19.2909 15.9496L20.5019 18.152L18.0326 17.6796L17.7197 20.1741L15.9998 18.3394L14.2798 20.1741L13.9669 17.6796L11.4976 18.1519L12.7086 15.9496L10.4346 14.88L12.7086 13.8103L11.4976 11.6081L13.9669 12.0803L14.2798 9.58594L15.9998 11.4205L17.7198 9.58594L18.0326 12.0803L20.5019 11.6081L19.2911 13.8104L21.5649 14.88Z" fill="#FFDA44"/>
<path d="M20.1741 5.21733H17.0436C17.0436 4.64114 16.5764 4.17383 16.0001 4.17383C15.4239 4.17383 14.9566 4.64108 14.9566 5.21733H11.8262C11.8262 5.79358 12.3282 6.26083 12.9044 6.26083H12.8696C12.8696 6.83708 13.3367 7.30433 13.9131 7.30433C13.9131 7.88058 14.3802 8.34783 14.9566 8.34783H17.0436C17.6197 8.34783 18.0871 7.88064 18.0871 7.30433C18.6632 7.30433 19.1306 6.83714 19.1306 6.26083H19.0957C19.6721 6.26083 20.1741 5.79364 20.1741 5.21733V5.21733Z" fill="#FFDA44"/>
<path d="M32 16C32 24.8365 24.8365 32 16 32C7.1635 32 0 24.8365 0 16H32Z" fill="#F0F0F0"/>
<path d="M16.0009 32.0006C21.0023 32.0006 25.4669 29.7054 28.401 26.1114C27.8733 25.7515 27.5883 25.1699 26.6673 25.1699C25.334 25.1699 25.334 26.389 24.0008 26.389C22.6675 26.389 22.6675 25.1699 21.3342 25.1699C20.0009 25.1699 20.0009 26.389 18.6675 26.389C17.3341 26.389 17.3341 25.1699 16.0006 25.1699C14.6673 25.1699 14.6673 26.389 13.3341 26.389C12.001 26.389 12.001 25.1699 10.6676 25.1699C9.33421 25.1699 9.33421 26.389 8.00077 26.389C6.66734 26.389 6.66734 25.1699 5.3339 25.1699C4.41302 25.1699 4.12809 25.7514 3.60059 26.1112C6.53459 29.7054 10.9995 32.0006 16.0009 32.0006V32.0006Z" fill="#0052B4"/>
<path d="M29.3338 18.0414C28.0005 18.0414 28.0005 16.8223 26.6671 16.8223C25.3338 16.8223 25.3338 18.0414 24.0005 18.0414C22.6673 18.0414 22.6672 16.8223 21.334 16.8223C20.0007 16.8223 20.0007 18.0414 18.6673 18.0414C17.3339 18.0414 17.3339 16.8223 16.0004 16.8223C14.6671 16.8223 14.6671 18.0414 13.3339 18.0414C12.0007 18.0414 12.0007 16.8223 10.6674 16.8223C9.33398 16.8223 9.33398 18.0414 8.00055 18.0414C6.66711 18.0414 6.66711 16.8223 5.33367 16.8223C4.00055 16.8223 4.00055 18.0414 2.66723 18.0414C1.34111 18.0414 1.33342 16.8357 0.0214844 16.8228C0.0584219 17.5547 0.145797 18.2732 0.277922 18.9758C1.34067 19.132 1.43373 20.1747 2.6673 20.1747C4.00061 20.1747 4.00061 18.9557 5.33373 18.9557C6.66717 18.9557 6.66717 20.1747 8.00061 20.1747C9.33405 20.1747 9.33405 18.9557 10.6675 18.9557C12.0008 18.9557 12.0008 20.1747 13.3339 20.1747C14.6672 20.1747 14.6672 18.9557 16.0005 18.9557C17.3339 18.9557 17.3339 20.1747 18.6674 20.1747C20.0008 20.1747 20.0008 18.9557 21.334 18.9557C22.6674 18.9557 22.6674 20.1747 24.0006 20.1747C25.3339 20.1747 25.3339 18.9557 26.6672 18.9557C28.0006 18.9557 28.0006 20.1747 29.3339 20.1747C30.5675 20.1747 30.6606 19.1321 31.7234 18.9759C31.8556 18.2732 31.9429 17.5548 31.98 16.8229C30.6678 16.8358 30.66 18.0414 29.3338 18.0414V18.0414Z" fill="#0052B4"/>
<path d="M26.6667 20.9961C25.3334 20.9961 25.3334 22.2152 24.0001 22.2152C22.6669 22.2152 22.6668 20.9961 21.3336 20.9961C20.0002 20.9961 20.0002 22.2152 18.6669 22.2152C17.3334 22.2152 17.3334 20.9961 16 20.9961C14.6667 20.9961 14.6667 22.2152 13.3334 22.2152C12.0003 22.2152 12.0003 20.9961 10.667 20.9961C9.33355 20.9961 9.33355 22.2152 8.00012 22.2152C6.66668 22.2152 6.66668 20.9961 5.33324 20.9961C4.00012 20.9961 4.00012 22.2152 2.6668 22.2152C1.71412 22.2152 1.44199 21.593 0.87793 21.2375C1.25343 22.3224 1.74193 23.3545 2.33024 24.3192C2.43255 24.3381 2.54393 24.3485 2.6668 24.3485C4.00012 24.3485 4.00012 23.1295 5.33324 23.1295C6.66668 23.1295 6.66668 24.3485 8.00012 24.3485C9.33355 24.3485 9.33355 23.1295 10.667 23.1295C12.0003 23.1295 12.0003 24.3485 13.3334 24.3485C14.6667 24.3485 14.6667 23.1295 16 23.1295C17.3334 23.1295 17.3334 24.3485 18.6669 24.3485C20.0003 24.3485 20.0003 23.1295 21.3336 23.1295C22.6669 23.1295 22.6669 24.3485 24.0001 24.3485C25.3334 24.3485 25.3334 23.1295 26.6667 23.1295C28.0001 23.1295 28.0001 24.3485 29.3334 24.3485C29.4564 24.3485 29.5677 24.3381 29.6701 24.3192C30.2584 23.3545 30.7468 22.3224 31.1225 21.2375C30.5584 21.5928 30.2862 22.2152 29.3334 22.2152C28.0001 22.2152 28.0001 20.9961 26.6667 20.9961Z" fill="#0052B4"/>
<path d="M31.9504 14.7357C30.6672 14.7661 30.6496 15.9535 29.3331 15.9535C27.9998 15.9535 27.9998 14.7344 26.6664 14.7344C25.3331 14.7344 25.3331 15.9535 23.9999 15.9535C22.6666 15.9535 22.6666 14.7344 21.3333 14.7344C20 14.7344 20 15.9535 18.6666 15.9535C17.3332 15.9535 17.3332 14.7344 15.9998 14.7344C14.6664 14.7344 14.6664 15.9535 13.3332 15.9535C12.0001 15.9535 12.0001 14.7344 10.6667 14.7344C9.33331 14.7344 9.33331 15.9535 7.99988 15.9535C6.66644 15.9535 6.66644 14.7344 5.333 14.7344C3.99988 14.7344 3.99988 15.9535 2.66656 15.9535C1.35038 15.9535 1.33256 14.7662 0.0495625 14.7357C0.017 15.1529 0 15.5744 0 15.9998C0 16.2912 0.00825 16.5808 0.0238125 16.8684C1.33275 16.8831 1.34144 18.0867 2.66663 18.0867C3.99994 18.0867 3.99994 16.8677 5.33306 16.8677C6.6665 16.8677 6.6665 18.0867 7.99994 18.0867C9.33337 18.0867 9.33338 16.8677 10.6668 16.8677C12.0001 16.8677 12.0001 18.0867 13.3333 18.0867C14.6666 18.0867 14.6666 16.8677 15.9998 16.8677C17.3332 16.8677 17.3332 18.0867 18.6667 18.0867C20.0001 18.0867 20.0001 16.8677 21.3334 16.8677C22.6667 16.8677 22.6667 18.0867 23.9999 18.0867C25.3332 18.0867 25.3333 16.8677 26.6665 16.8677C27.9999 16.8677 27.9999 18.0867 29.3332 18.0867C30.6585 18.0867 30.6672 16.8831 31.9764 16.8684C31.9918 16.5807 32 16.2912 32 15.9998C32 15.5744 31.983 15.1529 31.9504 14.7357V14.7357Z" fill="#F0F0F0"/>
</g>
<defs>
<clipPath id="clip0_20142_72656">
<rect width="32" height="32" fill="white"/>
</clipPath>
</defs>
</svg>
