<svg width="32" height="32" viewBox="0 0 32 32" fill="none" xmlns="http://www.w3.org/2000/svg">
<g clip-path="url(#clip0_20142_72629)">
<path d="M16 32C24.8366 32 32 24.8366 32 16C32 7.16344 24.8366 0 16 0C7.16344 0 0 7.16344 0 16C0 24.8366 7.16344 32 16 32Z" fill="#F0F0F0"/>
<path d="M16.0019 0C11.1524 0 6.80723 2.15775 3.87305 5.56519H28.1306C25.1965 2.15775 20.8513 0 16.0019 0V0Z" fill="#0052B4"/>
<path d="M28.1307 26.4355H3.87305C6.80723 29.843 11.1524 32.0008 16.0019 32.0008C20.8513 32.0008 25.1965 29.843 28.1307 26.4355Z" fill="#0052B4"/>
<path d="M29.6516 7.65234H2.34838C0.859063 10.0827 0 12.941 0 16.0002C0 19.0593 0.859063 21.9177 2.34838 24.348H29.6516C31.1409 21.9177 32 19.0593 32 16.0002C32 12.941 31.1409 10.0827 29.6516 7.65234Z" fill="#D80027"/>
<path d="M9.84302 22.1567C13.2432 22.1567 15.9995 19.4004 15.9995 16.0002C15.9995 12.6001 13.2432 9.84375 9.84302 9.84375C6.44288 9.84375 3.68652 12.6001 3.68652 16.0002C3.68652 19.4004 6.44288 22.1567 9.84302 22.1567Z" fill="#F0F0F0"/>
<path d="M9.84372 9.84375L11.225 14.0951H15.7024L12.0788 16.7227L13.471 20.9867L9.84372 18.3466L6.22197 20.9818L7.60859 16.7227L3.98828 14.0951H8.46234L9.84372 9.84375Z" fill="#D80027"/>
</g>
<defs>
<clipPath id="clip0_20142_72629">
<rect width="32" height="32" fill="white"/>
</clipPath>
</defs>
</svg>
