<svg width="32" height="32" viewBox="0 0 32 32" fill="none" xmlns="http://www.w3.org/2000/svg">
<g clip-path="url(#clip0_20142_72554)">
<path d="M32 16.001C32 24.8375 24.8365 32.001 16 32.001C7.1635 32.001 0 24.8375 0 16.001C0.695625 16.001 16 13.9141 16 13.9141L32 16.001Z" fill="#D80027"/>
<path d="M0 16C0 7.1635 7.1635 0 16 0C24.8365 0 32 7.1635 32 16" fill="#0052B4"/>
<path d="M11.8254 11.1313C11.8254 9.97872 10.891 9.04434 9.73841 9.04434C9.20373 9.04434 8.71641 9.24559 8.3471 9.57615V8.34865H9.04273V6.95734H8.3471V6.26172H6.95579V6.95734H6.26016V8.34865H6.95579V9.57615C6.58648 9.24559 6.09916 9.04434 5.56448 9.04434C4.41191 9.04434 3.47754 9.97872 3.47754 11.1313C3.47754 11.7492 3.74635 12.3042 4.17316 12.6864V13.9139H11.1297V12.6864C11.5566 12.3042 11.8254 11.7492 11.8254 11.1313V11.1313Z" fill="#FFDA44"/>
</g>
<defs>
<clipPath id="clip0_20142_72554">
<rect width="32" height="32" fill="white"/>
</clipPath>
</defs>
</svg>
