<svg width="32" height="32" viewBox="0 0 32 32" fill="none" xmlns="http://www.w3.org/2000/svg">
<g clip-path="url(#clip0_20142_72521)">
<path d="M16 31.9999C24.8365 31.9999 31.9999 24.8365 31.9999 16C31.9999 7.16343 24.8365 0 16 0C7.16343 0 0 7.16343 0 16C0 24.8365 7.16343 31.9999 16 31.9999Z" fill="#FFDA44"/>
<path d="M12.5213 2.7832H6.98164C6.73614 2.95102 6.49589 3.1257 6.26046 3.30652L4.86914 16.0005L6.26046 28.6946C6.49589 28.8754 6.73614 29.0501 6.98164 29.2179H12.5213V2.7832Z" fill="#FF9811"/>
<path d="M-0.000976562 16.0007C-0.000976562 21.1723 2.45328 25.7699 6.25991 28.6948V3.30664C2.45328 6.23152 -0.000976562 10.8292 -0.000976562 16.0007V16.0007Z" fill="#6DA544"/>
<path d="M25.7393 9.75391V10.1542L25.7541 10.1565L25.7393 9.75391Z" fill="#FFDA44"/>
<path d="M30.7244 20.1745H27.7098L26.4345 21.5658V24.3484H23.6519V22.9571H25.0432V20.1745H18.7823V21.9136H17.391V18.5992C16.9641 18.217 16.6953 17.662 16.6953 17.044V8.00059C16.6953 6.84802 17.6297 5.91365 18.7823 5.91365V18.7832H21.5649L22.5197 17.9875C22.3529 17.5904 22.2605 17.1542 22.2605 16.6963V14.6094H20.1736V10.4355H24.3475C24.3475 9.73984 25.391 9.04415 25.391 9.04415C25.391 9.04415 26.4345 9.73978 26.4345 10.4355V11.479V14.6094C27.2084 14.6186 28.4381 14.5985 29.7665 14.6094C29.4175 13.9994 29.2171 13.2756 29.2171 12.5225C29.2171 11.2949 29.7471 10.1913 30.5907 9.42753C29.3747 6.73283 27.4343 4.43521 25.0176 2.7832H14.6084V29.218H25.0177C27.9564 27.2092 30.1907 24.246 31.2747 20.7749L30.7244 20.1745Z" fill="#A2001D"/>
</g>
<defs>
<clipPath id="clip0_20142_72521">
<rect width="32" height="32" fill="white"/>
</clipPath>
</defs>
</svg>
