<svg width="32" height="32" viewBox="0 0 32 32" fill="none" xmlns="http://www.w3.org/2000/svg">
<g clip-path="url(#clip0_20142_72517)">
<path d="M16 32C24.8366 32 32 24.8366 32 16C32 7.16344 24.8366 0 16 0C7.16344 0 0 7.16344 0 16C0 24.8366 7.16344 32 16 32Z" fill="#F0F0F0"/>
<path d="M3.65723 5.81922H28.3427C27.431 4.71516 26.3735 3.73609 25.2004 2.91016H6.79954C5.62648 3.73597 4.56904 4.7151 3.65723 5.81922V5.81922Z" fill="#F0F0F0"/>
<path d="M0 15.9994C0 16.4899 0.0233125 16.9747 0.0665 17.454H31.9335C31.9767 16.9747 32 16.4899 32 15.9994C32 15.509 31.9767 15.0241 31.9335 14.5449H0.0665C0.0233125 15.0241 0 15.509 0 15.9994H0Z" fill="#F0F0F0"/>
<path d="M1.74381 23.2723H30.2543C30.7254 22.3507 31.1097 21.3775 31.3966 20.3633H0.601562C0.888375 21.3775 1.27275 22.3507 1.74381 23.2723V23.2723Z" fill="#F0F0F0"/>
<path d="M6.79954 29.0907H25.2004C26.3734 28.2648 27.4309 27.2857 28.3427 26.1816H3.65723C4.56904 27.2856 5.62648 28.2648 6.79954 29.0907V29.0907Z" fill="#F0F0F0"/>
<path d="M0.602539 11.6356H31.3977C31.1108 10.6214 30.7265 9.64812 30.2554 8.72656H1.74485C1.27379 9.64812 0.889414 10.6214 0.602539 11.6356V11.6356Z" fill="#F0F0F0"/>
<path d="M7.65234 2.90906H25.2006C22.5981 1.07669 19.425 0 16.0002 0C13.9132 0 10.2548 1.07669 7.65234 2.90906Z" fill="#D80027"/>
<path d="M15.3037 8.72743H30.2546C29.7225 7.68661 29.0799 6.71167 28.3421 5.81836H15.3037V8.72743Z" fill="#D80027"/>
<path d="M15.3037 14.5458H31.9328C31.8428 13.5469 31.662 12.5742 31.3969 11.6367H15.3037V14.5458Z" fill="#D80027"/>
<path d="M0.602406 20.3641H31.3974C31.6625 19.4268 31.8434 18.454 31.9334 17.4551H0.0664062C0.156406 18.454 0.337281 19.4267 0.602406 20.3641V20.3641Z" fill="#D80027"/>
<path d="M3.65762 26.1825H28.3431C29.0809 25.2891 29.7236 24.3142 30.2556 23.2734H1.74512C2.27718 24.3142 2.9198 25.2892 3.65762 26.1825V26.1825Z" fill="#D80027"/>
<path d="M16.0002 32.0008C19.4251 32.0008 22.5982 30.9242 25.2007 29.0918H6.7998C9.4023 30.9242 12.5754 32.0008 16.0002 32.0008Z" fill="#D80027"/>
<path d="M0.602344 11.6364C0.337219 12.5739 0.156406 13.5466 0.0664062 14.5454H15.9999V0C8.67616 0 2.50184 4.92075 0.602344 11.6364V11.6364Z" fill="#0052B4"/>
<path d="M9.52345 4.17383L10.5594 7.36227H13.9123L11.1999 9.33302L12.2358 12.5216L9.52345 10.551L6.81102 12.5216L7.84714 9.33302L5.13477 7.36227H8.48745L9.52345 4.17383Z" fill="#F0F0F0"/>
</g>
<defs>
<clipPath id="clip0_20142_72517">
<rect width="32" height="32" fill="white"/>
</clipPath>
</defs>
</svg>
