<svg width="32" height="32" viewBox="0 0 32 32" fill="none" xmlns="http://www.w3.org/2000/svg">
<g clip-path="url(#clip0_20142_72563)">
<path d="M31.0048 21.5647C31.648 19.8314 32 17.9566 32 15.9995C32 14.0423 31.648 12.1675 31.0048 10.4343L16 9.04297L0.995188 10.4343C0.352 12.1675 0 14.0423 0 15.9995C0 17.9566 0.352 19.8314 0.995188 21.5647L16 22.956L31.0048 21.5647Z" fill="#6DA544"/>
<path d="M31.0038 10.4348C28.7431 4.342 22.8784 0 15.999 0C9.11952 0 3.25483 4.342 0.994141 10.4348H31.0038Z" fill="#FFDA44"/>
<path d="M15.999 31.9993C22.8784 31.9993 28.7431 27.6573 31.0038 21.5645H0.994141C3.25483 27.6573 9.11952 31.9993 15.999 31.9993Z" fill="#D80027"/>
</g>
<defs>
<clipPath id="clip0_20142_72563">
<rect width="32" height="32" fill="white"/>
</clipPath>
</defs>
</svg>
