<svg width="32" height="32" viewBox="0 0 32 32" fill="none" xmlns="http://www.w3.org/2000/svg">
<g clip-path="url(#clip0_20142_72576)">
<path d="M16 32C24.8366 32 32 24.8366 32 16C32 7.16344 24.8366 0 16 0C7.16344 0 0 7.16344 0 16C0 24.8366 7.16344 32 16 32Z" fill="#F0F0F0"/>
<path d="M15.999 0C9.11952 0 3.25483 4.342 0.994141 10.4348H31.0038C28.7431 4.342 22.8784 0 15.999 0V0Z" fill="#D80027"/>
<path d="M15.999 31.9993C22.8784 31.9993 28.7431 27.6573 31.0038 21.5645H0.994141C3.25483 27.6573 9.11952 31.9993 15.999 31.9993Z" fill="#338AF3"/>
</g>
<defs>
<clipPath id="clip0_20142_72576">
<rect width="32" height="32" fill="white"/>
</clipPath>
</defs>
</svg>
