<svg width="32" height="32" viewBox="0 0 32 32" fill="none" xmlns="http://www.w3.org/2000/svg">
<path d="M16 32C24.8366 32 32 24.8366 32 16C32 7.16344 24.8366 0 16 0C7.16344 0 0 7.16344 0 16C0 24.8366 7.16344 32 16 32Z" fill="#D80027"/>
<path d="M25.4549 13.1315H18.2316L15.9994 6.26172L13.7673 13.1315H6.54395L12.3878 17.3772L10.1556 24.2472L15.9994 20.0013L21.8433 24.2472L19.6111 17.3773L25.4549 13.1315ZM14.0233 16.8458L14.7781 14.5227H17.2207L17.9756 16.8458V16.8458L15.9994 18.2815L14.0234 16.8458L14.0233 16.8458ZM16.7687 13.1315H15.2303L15.9994 10.764L16.7687 13.1315ZM19.159 15.986L18.6836 14.5228H21.1729L19.159 15.986ZM13.3153 14.5228L12.8398 15.986L10.8259 14.5228H13.3153ZM12.802 20.6047L13.5713 18.2372L14.8159 19.1415L12.802 20.6047ZM17.1829 19.1415L18.4276 18.2373L19.1969 20.6047L17.1829 19.1415Z" fill="#FFDA44"/>
</svg>
