<svg width="32" height="32" viewBox="0 0 32 32" fill="none" xmlns="http://www.w3.org/2000/svg">
<path d="M22.9557 1.58763C20.8522 0.5705 18.4923 0 15.9992 0C13.5061 0 11.1462 0.5705 9.04268 1.58763L7.65137 16L9.04268 30.4124C11.1462 31.4295 13.5061 32 15.9992 32C18.4923 32 20.8522 31.4295 22.9557 30.4124L24.347 16L22.9557 1.58763Z" fill="#FFDA44"/>
<path d="M9.0435 1.58789C3.69163 4.17583 0 9.65639 0 15.9997C0 22.343 3.69163 27.8236 9.0435 30.4115V1.58789Z" fill="#0052B4"/>
<path d="M22.9561 1.58789V30.4115C28.3079 27.8236 31.9995 22.343 31.9995 15.9997C31.9995 9.65639 28.3079 4.17583 22.9561 1.58789Z" fill="#D80027"/>
<path d="M21.5649 12.5887H17.7389C17.7389 11.6282 16.9603 10.8496 15.9998 10.8496C15.0393 10.8496 14.2606 11.6282 14.2606 12.5887H10.4346C10.4346 13.5344 11.2584 14.301 12.2039 14.301H12.1469C12.1469 15.2467 12.9136 16.0134 13.8593 16.0134C13.8593 16.8507 14.4607 17.5465 15.2549 17.6952L13.9056 20.7416C14.5521 21.0044 15.2588 21.1505 15.9998 21.1505C16.7407 21.1505 17.4474 21.0044 18.0939 20.7416L16.7446 17.6952C17.5388 17.5465 18.1402 16.8507 18.1402 16.0134C19.0859 16.0134 19.8526 15.2467 19.8526 14.301H19.7955C20.7412 14.301 21.5649 13.5344 21.5649 12.5887V12.5887Z" fill="#FF9811"/>
<path d="M16.0001 14.957L13.7393 16.0005V18.0875L16.0001 19.4788L18.261 18.0875V16.0005L16.0001 14.957Z" fill="#0052B4"/>
<path d="M13.7393 13.9141H18.261V16.001H13.7393V13.9141Z" fill="#D80027"/>
</svg>
