<svg width="32" height="32" viewBox="0 0 32 32" fill="none" xmlns="http://www.w3.org/2000/svg">
<g clip-path="url(#clip0_20142_72562)">
<path d="M16 32C24.8366 32 32 24.8366 32 16C32 7.16344 24.8366 0 16 0C7.16344 0 0 7.16344 0 16C0 24.8366 7.16344 32 16 32Z" fill="#FFDA44"/>
<path d="M32 16.0006C32 10.5093 29.2332 5.66464 25.0179 2.7832H6.98206C2.76687 5.66464 0 10.5093 0 16.0006C0 21.492 2.76687 26.3365 6.98206 29.218H25.0179C29.2332 26.3365 32 21.492 32 16.0006Z" fill="#A2001D"/>
<path d="M12.5225 11.8262H19.4789V9.04366L18.0876 9.73928L16.0007 7.65234L13.9138 9.73928L12.5225 9.04366V11.8262Z" fill="#FFDA44"/>
<path d="M22.2611 15.9999H18.7842C18.9206 15.7641 18.9998 15.4911 18.9998 15.1991C18.9998 14.3124 18.281 13.5938 17.3944 13.5938C16.7819 13.5938 16.2499 13.937 15.9792 14.4414C15.7085 13.9369 15.1765 13.5938 14.5639 13.5938C13.6774 13.5938 12.9586 14.3124 12.9586 15.1991C12.9586 15.4912 13.0379 15.7641 13.1742 15.9999H9.73926C9.73926 17.0639 10.6659 17.9263 11.7298 17.9263H11.6657C11.6657 18.799 12.2461 19.5359 13.0419 19.7726L11.4784 21.3363L12.9541 22.8119L15.0474 20.7186C15.1294 20.7487 15.2142 20.7727 15.3019 20.7892L14.037 23.6451C14.6431 23.8916 15.3056 24.0284 16.0003 24.0284C16.6949 24.0284 17.3573 23.8916 17.9635 23.6451L16.6986 20.7892C16.7863 20.7727 16.8711 20.7487 16.953 20.7186L19.0463 22.8119L20.5219 21.3363L18.9583 19.7726C19.7541 19.5358 20.3346 18.7991 20.3346 17.9264H20.2704C21.3344 17.9263 22.2611 17.0639 22.2611 15.9999V15.9999Z" fill="#FFDA44"/>
<path d="M16.0001 17.043L13.7393 18.0864V20.1734L16.0001 21.5647L18.261 20.1734V18.0864L16.0001 17.043Z" fill="#6DA544"/>
<path d="M13.7393 16H18.261V18.7826H13.7393V16Z" fill="#0052B4"/>
</g>
<defs>
<clipPath id="clip0_20142_72562">
<rect width="32" height="32" fill="white"/>
</clipPath>
</defs>
</svg>
