<svg width="32" height="32" viewBox="0 0 32 32" fill="none" xmlns="http://www.w3.org/2000/svg">
<path d="M16 32C24.8366 32 32 24.8366 32 16C32 7.16344 24.8366 0 16 0C7.16344 0 0 7.16344 0 16C0 24.8366 7.16344 32 16 32Z" fill="#338AF3"/>
<path d="M15.4954 26.075C15.0641 26.0541 14.7072 25.7738 14.5674 25.3933C14.3205 25.7153 13.8961 25.8774 13.478 25.7696C13.0592 25.6618 12.7664 25.3154 12.7059 24.9133C12.3984 25.1789 11.9504 25.2513 11.5629 25.0614C11.1747 24.8708 10.9577 24.4721 10.98 24.0666C10.6259 24.2655 10.1724 24.2461 9.8308 23.9817C9.48992 23.7173 9.35705 23.2839 9.45998 22.8909C9.07317 23.0147 8.63355 22.9048 8.3518 22.5771C8.07005 22.2502 8.02686 21.7987 8.20642 21.4349C7.80292 21.4779 7.39392 21.2818 7.1838 20.9048C6.97298 20.5278 7.02173 20.0763 7.27142 19.7555C6.86723 19.7166 6.50548 19.4418 6.37611 19.0299C6.24605 18.6181 6.38517 18.1854 6.69473 17.9218C6.30655 17.802 6.0088 17.4598 5.96498 17.0306C5.92117 16.6014 6.1438 16.207 6.49923 16.0108C6.14373 15.816 5.91973 15.4216 5.96217 14.9931H5.96286C6.0053 14.5631 6.30305 14.2203 6.69048 14.0991C6.38092 13.8362 6.24042 13.4042 6.36911 12.9923C6.4978 12.5798 6.8588 12.3043 7.26305 12.2639C7.0133 11.9439 6.96323 11.4924 7.17261 11.1148C7.38198 10.7377 7.79105 10.5408 8.19523 10.5833C8.01436 10.2194 8.0568 9.76794 8.33786 9.43963C8.61823 9.112 9.05786 9.00138 9.44536 9.12381C9.34098 8.73144 9.47317 8.29738 9.81405 8.03238C10.1542 7.76725 10.6078 7.74706 10.9619 7.94463C10.9389 7.53913 11.1552 7.14044 11.5427 6.94913C11.9295 6.7585 12.3782 6.8295 12.6864 7.09519C12.7455 6.69319 13.0384 6.34538 13.4564 6.23675C13.8738 6.12825 14.2982 6.28894 14.5458 6.61031C14.6856 6.22981 15.0418 5.94875 15.4731 5.92719C15.9037 5.905 16.2863 6.147 16.4644 6.51094C16.6773 6.16588 17.0822 5.96138 17.5086 6.02606C17.9357 6.09006 18.2634 6.40444 18.365 6.79756C18.6432 6.50113 19.0815 6.38363 19.4864 6.53244C19.8919 6.682 20.1493 7.05625 20.1688 7.4625C20.5006 7.22881 20.9542 7.20163 21.3208 7.42981C21.6874 7.65731 21.8634 8.07538 21.8008 8.47675C22.173 8.31469 22.6224 8.37938 22.9354 8.67569C23.2485 8.97275 23.3375 9.41725 23.1956 9.79775C23.5928 9.71356 24.02 9.86663 24.2676 10.2207C24.5152 10.5741 24.5132 11.0276 24.2982 11.372C24.7038 11.3692 25.0913 11.6058 25.2631 12.0016C25.4342 12.3981 25.3403 12.8426 25.06 13.1369C25.4586 13.2162 25.7904 13.5258 25.878 13.9487C25.965 14.3716 25.7834 14.7869 25.4502 15.0186C25.8231 15.1766 26.086 15.5459 26.0867 15.9773V15.9912V16.0003C26.0867 16.4315 25.8252 16.8016 25.4523 16.9609C25.7862 17.1913 25.9692 17.6065 25.8822 18.0294C25.796 18.4524 25.4649 18.7627 25.0662 18.8434C25.3473 19.1369 25.4426 19.5808 25.2722 19.978C25.1017 20.3745 24.7142 20.6118 24.308 20.6096C24.5236 20.954 24.5271 21.4076 24.2802 21.7616C24.0332 22.1158 23.6068 22.2702 23.2095 22.1867C23.3522 22.5665 23.2638 23.0118 22.9515 23.3095C22.6384 23.6066 22.1897 23.6719 21.8175 23.5113C21.8809 23.9119 21.7055 24.3308 21.3396 24.5596C20.9737 24.7885 20.5201 24.762 20.1876 24.529C20.1688 24.9353 19.9128 25.3103 19.508 25.4605C19.1032 25.6108 19.508 25.4605 19.5073 25.4605C19.1024 25.6101 18.6642 25.4933 18.3852 25.1976C18.285 25.5914 17.9581 25.9064 17.531 25.9719C17.1045 26.0366 16.699 25.8334 16.4854 25.4884C16.3157 25.8383 15.9567 26.0762 15.5477 26.0762C15.5302 26.0764 15.5129 26.0758 15.4954 26.075V26.075Z" fill="#F3F3F3"/>
<path d="M16.0005 22.956C19.8424 22.956 22.957 19.8414 22.957 15.9995C22.957 12.1575 19.8424 9.04297 16.0005 9.04297C12.1585 9.04297 9.04395 12.1575 9.04395 15.9995C9.04395 19.8414 12.1585 22.956 16.0005 22.956Z" fill="#338AF3"/>
<path d="M17.523 13.6394C17.8648 13.3859 18.0873 12.9807 18.0873 12.5225V11.8269C18.0873 11.0584 17.4644 10.4355 16.696 10.4355H15.3047C14.5363 10.4355 13.9134 11.0584 13.9134 11.8269V12.5225C13.9134 12.9807 14.1359 13.3859 14.4776 13.6394L13.2178 26.4355C13.2178 26.4355 13.9134 27.1312 16.0004 27.1312C18.0874 27.1312 18.783 26.4355 18.783 26.4355L17.523 13.6394Z" fill="#BDBCC1"/>
<path d="M16.001 10.4355L17.2096 14.1554H21.1212L17.9568 16.4547L19.1654 20.1747L16.001 17.8756L12.8365 20.1747L14.0453 16.4547L10.8809 14.1554H14.7923L16.001 10.4355Z" fill="#F0F0F0"/>
</svg>
