<svg width="32" height="32" viewBox="0 0 32 32" fill="none" xmlns="http://www.w3.org/2000/svg">
<path d="M1.94336 8.34781L15.9979 9.73913L30.0525 8.34781C27.3388 3.37431 22.0626 0 15.9979 0C9.93323 0 4.65705 3.37431 1.94336 8.34781V8.34781Z" fill="#D80027"/>
<path d="M1.94544 23.6529L16 25.0442L30.0546 23.6529C31.2948 21.3797 32 18.7726 32 16.0007L16 14.6094L0 16.0007C0 18.7726 0.705188 21.3797 1.94544 23.6529Z" fill="#FFDA44"/>
<path d="M1.94544 8.34766C0.705188 10.6208 0 13.228 0 15.9998H32C32 13.228 31.2948 10.6208 30.0546 8.34766H16H1.94544Z" fill="#0052B4"/>
<path d="M15.9979 32.0002C22.0626 32.0002 27.3388 28.6258 30.0525 23.6523H1.94336C4.65705 28.6258 9.93323 32.0002 15.9979 32.0002Z" fill="#6DA544"/>
</svg>
