<svg width="32" height="32" viewBox="0 0 32 32" fill="none" xmlns="http://www.w3.org/2000/svg">
<path d="M15.9996 31.9987C22.9863 31.9987 28.9062 27.572 31.0929 21.332H0.90625C3.09292 27.572 9.01292 31.9987 15.9996 31.9987Z" fill="#6DA544"/>
<path d="M15.9996 0C9.01292 0 3.09292 4.48 0.90625 10.6667H31.0929C28.9062 4.48 22.9863 0 15.9996 0Z" fill="#0052B4"/>
<path d="M31.0933 21.3346C31.68 19.6813 32 17.868 32 16.0013C32 14.1346 31.68 12.3213 31.0933 10.668H0.906667C0.32 12.3213 0 14.1346 0 16.0013C0 17.868 0.32 19.6813 0.906667 21.3346H31.0933Z" fill="#D80027"/>
<path d="M11.733 25.4386C16.9465 25.4386 21.173 21.2122 21.173 15.9986C21.173 10.785 16.9465 6.55859 11.733 6.55859C6.5194 6.55859 2.29297 10.785 2.29297 15.9986C2.29297 21.2122 6.5194 25.4386 11.733 25.4386Z" fill="#FFDA44"/>
<path d="M11.7328 6.39844C6.45281 6.39844 2.13281 10.7184 2.13281 15.9984C2.13281 21.2784 6.45281 25.5984 11.7328 25.5984C17.0128 25.5984 21.3328 21.2784 21.3328 15.9984C21.3328 10.7184 17.0128 6.39844 11.7328 6.39844ZM2.45281 15.9984C2.45281 10.9318 6.50615 6.8251 11.5195 6.71844V8.79844C10.9328 9.0651 10.5061 9.27844 10.3995 9.81177C10.3995 9.8651 10.3461 10.5584 10.3461 10.7718C10.3461 10.7718 10.4528 10.7718 10.6661 10.6118C10.7728 10.5051 11.0928 10.4518 11.5195 10.2384V11.3051C10.8795 11.4118 10.4528 11.9451 10.4528 12.5851C10.4528 13.2251 10.9328 13.7584 11.5195 13.8651V14.1318C11.0395 14.1318 10.6128 13.9718 10.2395 13.2251C10.0261 12.7984 9.49281 12.1584 9.49281 12.1584C9.49281 12.1584 9.75948 12.8518 9.75948 13.5984C9.81281 14.6651 10.7728 14.7718 11.4661 14.7718V14.9851H10.1328V15.3584H11.5195V15.5718C10.8795 15.6251 10.4528 15.9451 10.4528 16.3718C10.4528 16.7984 10.9328 17.1184 11.5195 17.1718V17.3851H10.1328V17.5984H11.5195V17.8118C10.4528 17.8651 9.91948 18.2918 9.86615 18.9318C9.75948 20.2651 9.49281 21.3318 9.49281 21.3318C9.49281 21.3318 9.91948 20.8518 10.3461 19.6784C10.5595 19.1451 11.0395 18.8251 11.5195 18.7184V18.8784C11.0395 18.9851 10.6661 19.6251 10.6661 20.3718C10.6661 21.1184 11.0395 21.7584 11.5195 21.8651V22.2918C10.8795 22.2918 10.2395 22.4518 9.91948 22.7184C9.49281 23.0918 8.42615 24.1051 7.99948 24.5318C4.74615 23.0918 2.45281 19.8384 2.45281 15.9984ZM15.2528 24.5851C14.8795 24.1584 13.9195 23.1451 13.3328 22.7184C13.0128 22.4518 12.4795 22.3451 11.9461 22.2918V21.8651C12.4261 21.7584 12.7995 21.1184 12.7995 20.3718C12.7995 19.6251 12.4261 18.9851 11.9461 18.8784V18.7184C12.4261 18.7718 12.9061 19.1451 13.1195 19.6784C13.5995 20.8518 13.9728 21.3318 13.9728 21.3318C13.9728 21.3318 13.7061 20.2651 13.5995 18.9318C13.5461 18.2918 13.0128 17.8651 11.9461 17.8118V17.5984H13.3328V17.2251H11.9461V17.0118C12.5861 16.9584 13.0128 16.6384 13.0128 16.2118C13.0128 15.7851 12.5328 15.4651 11.9461 15.4118V15.1984H13.3328V14.8251H11.9461V14.6118C12.6928 14.6118 13.5995 14.5051 13.6528 13.4384C13.7061 12.6918 13.9195 11.9984 13.9195 11.9984C13.9195 11.9984 13.3861 12.6384 13.1728 13.0651C12.7995 13.8118 12.3728 13.9718 11.8928 13.9718V13.7051C12.5328 13.5984 12.9595 13.0651 12.9595 12.4251C12.9595 11.7851 12.4795 11.2518 11.8928 11.1451V9.81177C12.2661 9.49177 12.6928 9.01177 13.1195 8.2651C13.3328 7.83844 13.2261 7.67844 13.2261 7.67844C13.2261 7.67844 13.2261 7.73177 13.0661 7.83844C12.6928 8.15844 12.2661 8.37177 11.8928 8.5851V6.71844C16.9061 6.8251 20.9595 10.9318 20.9595 15.9984C21.0128 19.8918 18.6128 23.1984 15.2528 24.5851Z" fill="#3E4347"/>
</svg>
