<svg width="32" height="32" viewBox="0 0 32 32" fill="none" xmlns="http://www.w3.org/2000/svg">
<path d="M22.9576 1.58763C20.8541 0.5705 18.4943 0 16.0011 0C13.5079 0 11.1481 0.5705 9.04463 1.58763L7.65332 16L9.04463 30.4124C11.1481 31.4295 13.5079 32 16.0011 32C18.4943 32 20.8541 31.4295 22.9576 30.4124L24.3489 16L22.9576 1.58763Z" fill="#F0F0F0"/>
<path d="M9.0435 1.58789C3.69156 4.17577 0 9.65633 0 15.9997C0 22.3431 3.69156 27.8236 9.0435 30.4115V1.58789Z" fill="#6DA544"/>
<path d="M22.9561 1.58789V30.4115C28.308 27.8236 31.9995 22.343 31.9995 15.9997C31.9995 9.65639 28.308 4.17577 22.9561 1.58789Z" fill="#6DA544"/>
<path d="M20.1721 20.8697L15.9982 7.65234L11.8242 20.8697H14.9547V24.348H17.0417V20.8697H20.1721Z" fill="#6DA544"/>
</svg>
