<svg width="32" height="32" viewBox="0 0 32 32" fill="none" xmlns="http://www.w3.org/2000/svg">
<g clip-path="url(#clip0_20142_72516)">
<path d="M16 32C24.8366 32 32 24.8366 32 16C32 7.16344 24.8366 0 16 0C7.16344 0 0 7.16344 0 16C0 24.8366 7.16344 32 16 32Z" fill="#0052B4"/>
<path d="M16 32C24.8366 32 32 24.8366 32 16C32 7.16344 24.8366 0 16 0C7.16344 0 0 7.16344 0 16C0 24.8366 7.16344 32 16 32Z" fill="#FFDA44"/>
<path d="M16.0006 0C7.63284 0 0.766711 6.42381 0.0615234 14.6087H31.9397C31.2345 6.42381 24.3683 0 16.0006 0V0Z" fill="#0052B4"/>
<path d="M16.0006 31.9993C24.3683 31.9993 31.2345 25.5755 31.9397 17.3906H0.0615234C0.766711 25.5755 7.63284 31.9993 16.0006 31.9993Z" fill="#0052B4"/>
<path d="M13.2168 21.5645L11.424 22.4079L12.3787 24.1442L10.4318 23.7718L10.1852 25.7384L8.82909 24.292L7.47309 25.7384L7.22641 23.7718L5.27953 24.1441L6.23428 22.4078L4.44141 21.5645L6.23434 20.7212L5.27953 18.9849L7.22634 19.3573L7.47316 17.3906L8.82909 18.8371L10.1852 17.3906L10.4318 19.3573L12.3787 18.9849L11.424 20.7213L13.2168 21.5645Z" fill="#F0F0F0"/>
</g>
<defs>
<clipPath id="clip0_20142_72516">
<rect width="32" height="32" fill="white"/>
</clipPath>
</defs>
</svg>
