<svg width="32" height="32" viewBox="0 0 32 32" fill="none" xmlns="http://www.w3.org/2000/svg">
<path d="M32 16C32 24.8365 24.8365 32 16 32C7.1635 32 0 24.8365 0 16C0 16.0038 16 0.00175 16 0C24.8365 0 32 7.1635 32 16Z" fill="#FFDA44"/>
<path d="M15.9998 7.65234V13.0488L10.4346 7.65234H15.9998Z" fill="#0052B4"/>
<path d="M8.34895 15.9991H13.0496L8.34895 9.73828L7.65332 14.6078L8.34895 15.9991Z" fill="#0052B4"/>
<path d="M15.9561 15.9998H15.9989C15.9989 15.9855 15.9989 15.9715 15.9989 15.957C15.9846 15.9713 15.9704 15.9856 15.9561 15.9998Z" fill="#F0F0F0"/>
<path d="M16 8.34781C16 5.5325 16 3.68781 16 0H15.9973C7.16194 0.0015 0 7.16431 0 16H8.34781V11.2993L13.0485 16H15.9572C15.9715 15.9857 15.9858 15.9715 16.0001 15.9572C16.0001 14.8793 16.0001 13.9174 16.0001 13.0486L11.2992 8.34781H16Z" fill="#F0F0F0"/>
<path d="M15.9979 14.0322L10.3132 8.34766H8.3457V8.34778L15.9978 15.9998H15.9979C15.9979 15.9998 15.9979 14.6431 15.9979 14.0322V14.0322Z" fill="#D80027"/>
<path d="M8.09466 2.08594C7.47785 2.43719 6.88691 2.82863 6.32491 3.25594H6.98141L5.24629 4.51681L5.90891 6.55662L4.17379 5.296L3.98916 5.43019C3.26873 6.24831 2.62998 7.14006 2.08691 8.09369V15.999H6.26085V6.26V6.25988H16C16 4.94344 16 3.68931 16 2.08594H8.09466Z" fill="#D80027"/>
<path d="M6.83337 2.88477C6.66081 3.00558 6.49069 3.12977 6.32312 3.2572L5.24469 4.51808L4.17219 5.2972L3.986 5.43245C3.59312 5.8787 3.22469 6.34695 2.88281 6.83527C3.2725 7.02439 3.70994 7.1307 4.17219 7.1307C5.80506 7.1307 7.12869 5.80708 7.12869 4.1742C7.12881 3.71183 7.02256 3.27452 6.83337 2.88477V2.88477Z" fill="#0052B4"/>
<path d="M3.99023 5.43306L4.17642 5.29781L5.91155 6.5585L5.24886 4.51869L6.98386 3.25781H6.32723C5.47761 3.904 4.69467 4.633 3.99023 5.43306V5.43306Z" fill="#FFDA44"/>
<path d="M11.0616 2.7832L11.407 3.84602H12.5245L11.6204 4.50296L11.9656 5.56577L11.0616 4.90889L10.1576 5.56577L10.5027 4.50296L9.59863 3.84602H10.7162L11.0616 2.7832Z" fill="#FFDA44"/>
<path d="M4.17485 9.74023L4.52023 10.803H5.63773L4.73373 11.46L5.07891 12.5229L4.17485 11.8659L3.27073 12.5229L3.61591 11.46L2.71191 10.803H3.82941L4.17485 9.74023Z" fill="#FFDA44"/>
</svg>
