<svg width="32" height="32" viewBox="0 0 32 32" fill="none" xmlns="http://www.w3.org/2000/svg">
<g clip-path="url(#clip0_20142_72613)">
<path d="M16 32C24.8366 32 32 24.8366 32 16C32 7.16344 24.8366 0 16 0C7.16344 0 0 7.16344 0 16C0 24.8366 7.16344 32 16 32Z" fill="#F0F0F0"/>
<path d="M16.0019 0C10.7674 0 6.12017 2.51394 3.20117 6.4H28.8025C25.8835 2.51394 21.2364 0 16.0019 0Z" fill="#D80027"/>
<path d="M16.0019 31.9996C21.2364 31.9996 25.8835 29.4857 28.8025 25.5996H3.20117C6.12017 29.4857 10.7674 31.9996 16.0019 31.9996Z" fill="#D80027"/>
<path d="M0 16.0008C0 17.0967 0.1105 18.1668 0.320437 19.2008H31.6797C31.8896 18.1668 32 17.0967 32 16.0008C32 14.9048 31.8895 13.8347 31.6796 12.8008H0.320437C0.1105 13.8347 0 14.9048 0 16.0008H0Z" fill="#D80027"/>
<path d="M4.6853 4.68555C-1.56307 10.9339 -1.56307 21.0646 4.6853 27.313C7.26737 24.731 9.75068 22.2477 15.9991 15.9993L4.6853 4.68555Z" fill="#0052B4"/>
<path d="M6.4756 11.8262L7.51154 15.0147H10.8644L8.15204 16.9854L9.18791 20.1741L6.4756 18.2034L3.76316 20.1741L4.79929 16.9854L2.08691 15.0147H5.43954L6.4756 11.8262Z" fill="#F0F0F0"/>
</g>
<defs>
<clipPath id="clip0_20142_72613">
<rect width="32" height="32" fill="white"/>
</clipPath>
</defs>
</svg>
