<svg width="32" height="32" viewBox="0 0 32 32" fill="none" xmlns="http://www.w3.org/2000/svg">
<path d="M16 32C24.8366 32 32 24.8366 32 16C32 7.16344 24.8366 0 16 0C7.16344 0 0 7.16344 0 16C0 24.8366 7.16344 32 16 32Z" fill="#6DA544"/>
<path d="M9.04395 19.1309C9.04395 20.2834 9.97832 21.2178 11.1309 21.2178H17.3918C17.3918 22.1783 18.1704 22.9569 19.1309 22.9569H21.2178C22.1783 22.9569 22.957 22.1783 22.957 21.2178V19.1309H9.04395Z" fill="#F0F0F0"/>
<path d="M23.1306 9.04297V13.9125C23.1306 14.6797 22.5064 15.3038 21.7393 15.3038V17.3908C23.6572 17.3908 25.2175 15.8304 25.2175 13.9125V9.04297H23.1306Z" fill="#F0F0F0"/>
<path d="M8.17452 13.9145C8.17452 14.6817 7.55039 15.3058 6.7832 15.3058V17.3927C8.70114 17.3927 10.2615 15.8323 10.2615 13.9145V9.04492H8.17452V13.9145Z" fill="#F0F0F0"/>
<path d="M20 9.04297H22.0869V13.9125H20V9.04297Z" fill="#F0F0F0"/>
<path d="M16.8709 11.8256C16.8709 12.0174 16.7148 12.1734 16.523 12.1734C16.3313 12.1734 16.1752 12.0173 16.1752 11.8256V9.04297H14.0883V11.8256C14.0883 12.0174 13.9322 12.1734 13.7405 12.1734C13.5487 12.1734 13.3927 12.0173 13.3927 11.8256V9.04297H11.3057V11.8256C11.3057 13.1682 12.3979 14.2604 13.7405 14.2604C14.2575 14.2604 14.737 14.0979 15.1318 13.8219C15.5265 14.0978 16.006 14.2604 16.5231 14.2604C16.6272 14.2604 16.7296 14.2531 16.8303 14.2403C16.6824 14.8496 16.1337 15.3038 15.4796 15.3038V17.3908C17.3975 17.3908 18.9579 15.8304 18.9579 13.9125V11.8256V9.04297H16.8709V11.8256H16.8709Z" fill="#F0F0F0"/>
<path d="M11.3057 15.3047H14.4361V17.3916H11.3057V15.3047Z" fill="#F0F0F0"/>
</svg>
