<svg width="32" height="32" viewBox="0 0 32 32" fill="none" xmlns="http://www.w3.org/2000/svg">
<path d="M16 32C24.8366 32 32 24.8366 32 16C32 7.16344 24.8366 0 16 0C7.16344 0 0 7.16344 0 16C0 24.8366 7.16344 32 16 32Z" fill="#F0F0F0"/>
<path d="M26.8001 4.19606C23.9539 1.59031 20.1625 0 15.9995 0C15.318 0 14.6465 0.0429375 13.9874 0.125625L6.26042 9.0435L0.505859 20.0082C0.877609 21.4495 1.44598 22.8116 2.1793 24.0655L15.9995 16L26.8001 4.19606Z" fill="#FFDA44"/>
<path d="M29.3191 24.8652L6.93359 29.1852C9.51041 30.9603 12.6328 32.0004 15.9984 32.0004C21.556 32.0004 26.4509 29.1664 29.3191 24.8652V24.8652Z" fill="#6DA544"/>
<path d="M26.8014 4.19727L2.1875 24.0801C2.83131 25.1781 3.60212 26.1925 4.48006 27.1031L31.9986 15.9991C31.9986 11.3266 29.9954 7.12239 26.8014 4.19727V4.19727Z" fill="#D80027"/>
<path d="M0 15.9994C0 17.3836 0.175875 18.7266 0.506312 20.0076L13.9878 0.125C6.10112 1.11462 0 7.84438 0 15.9994Z" fill="#0052B4"/>
</svg>
