<svg width="32" height="32" viewBox="0 0 32 32" fill="none" xmlns="http://www.w3.org/2000/svg">
<path d="M16 0V5.33333H5.33333V16H0C0 24.8533 7.14667 32 16 32C24.8533 32 32 24.8533 32 16C32 7.14667 24.8533 0 16 0Z" fill="#0052B4"/>
<path d="M16 0C13.4933 0 11.1467 0.586667 9.01333 1.6V4.8H4.8V9.01333H1.6C0.586667 11.1467 0 13.4933 0 16H6.4V8L12.8 16H16V12L11.52 6.4H16V0Z" fill="white"/>
<path d="M7.14746 6.40039L14.9341 16.0004H16.0008V13.3871L10.3475 6.40039H7.14746Z" fill="#ED4C5C"/>
<path d="M16.0006 1.59961H9.01392C5.81392 3.14628 3.14725 5.81294 1.60059 9.01294V15.9996H4.80059V4.79961H16.0006V1.59961Z" fill="#ED4C5C"/>
<path d="M29.8137 14.5059C29.8137 18.4525 29.1737 22.6659 24.1071 24.6925C19.0404 22.6659 18.4004 18.4525 18.4004 14.5059H29.8137Z" fill="#49C3F2"/>
<path d="M24.1068 24.6937C26.4001 23.787 27.7868 22.4003 28.6401 20.8003H28.1601C28.0535 20.8003 23.2535 20.3203 22.7201 20.107C22.2401 19.947 20.3735 20.267 19.4668 20.587C20.2668 22.2937 21.6535 23.7337 24.1068 24.6937Z" fill="#428BC1"/>
<path d="M20.5337 22.2925C20.5871 22.2925 21.9204 22.5058 22.1337 22.1858C22.3471 21.8658 21.4937 21.1725 21.5471 20.7991C21.5471 20.6925 21.6537 20.4791 21.7604 20.4258C21.9737 20.3191 22.6671 20.5858 22.7204 20.1058C22.7737 19.3058 22.0804 18.6658 21.8671 17.9191C21.7071 17.4391 21.7071 17.0125 21.6537 16.5325C21.6537 16.3191 21.6004 16.2125 21.3871 16.1591C21.1204 16.0525 21.1204 15.8391 21.0137 15.5725C20.9071 15.5725 20.6404 15.7858 20.6404 15.8925C20.6404 16.3725 20.2137 16.3725 20.0004 16.7458C19.8404 16.5325 19.7337 16.1591 19.5737 15.9458C19.3604 15.7325 19.3071 15.7325 19.3604 15.4125C19.0404 15.1458 19.0404 15.5725 18.8271 15.6791C18.7737 15.7858 18.5604 15.9458 18.4004 16.2125C18.5604 18.3991 19.0404 20.5325 20.5337 22.2925Z" fill="#C94747"/>
<path d="M29.8139 14.5073C29.8139 13.014 29.7606 11.574 29.7606 10.3473C27.8406 9.49398 25.3339 9.33398 24.0539 9.33398C22.7739 9.33398 20.2673 9.49398 18.3473 10.3473C18.4006 11.6273 18.2939 13.0673 18.2939 14.5073H29.8139Z" fill="#FFE62E"/>
<path d="M25.3862 20.2144C24.6395 20.2144 23.9462 20.2144 23.4129 20.1611C22.9329 20.1077 22.7729 20.0011 22.3995 19.7877C21.8662 19.4677 21.7595 19.4144 21.0129 18.9877C20.9062 18.9344 20.7995 18.9877 20.9595 19.0944C21.7062 19.5744 21.9729 19.7344 22.2929 20.0011C22.6662 20.2144 23.7329 20.9077 23.7329 20.9077H28.0529L28.7462 19.4677C28.7462 19.3611 28.6929 19.2544 28.6929 19.2011C27.8929 19.2544 27.1462 19.2544 26.5595 19.2544C26.5062 19.3077 26.4529 19.4144 26.3995 19.5211C26.0795 19.5744 25.8662 19.6277 25.7595 19.6277C25.8129 19.6811 25.4929 20.1077 25.3862 20.2144Z" fill="#3E4347"/>
<path d="M22.7726 10.2927C22.5592 10.2927 22.1859 10.2927 22.0792 10.346C21.9726 10.3993 21.9726 10.3993 22.1326 10.4527C22.2926 10.506 22.5592 10.5593 22.6659 10.666C22.8259 10.7727 22.9326 10.9327 22.8792 11.146C22.7726 11.786 23.0926 12.426 23.6259 12.6927C23.6792 12.6927 23.6792 12.746 23.6792 12.7993C23.6792 12.906 23.6259 13.0127 23.6259 13.066C23.5726 13.1193 23.5726 13.1727 23.6792 13.1193C23.6259 13.226 23.4659 13.4393 23.4659 13.4927C23.0392 13.4393 22.7192 13.4927 22.7192 13.9193C22.7192 13.9727 22.7192 14.026 22.7726 13.9193C22.8259 13.8127 22.8792 13.706 23.0926 13.706C22.9326 13.866 22.8792 13.9727 22.9326 14.0793C22.9326 14.186 22.9859 14.2393 23.0392 14.1327C23.0926 14.026 23.1459 13.9193 23.2526 13.866C23.3059 13.866 23.3059 13.8127 23.3059 13.9193C23.3059 14.026 23.3059 14.1327 23.3592 14.186C23.4126 14.2393 23.4126 14.2393 23.4126 14.1327C23.4126 14.026 23.4126 13.866 23.5192 13.8127C23.6792 13.7593 23.7859 13.7593 23.8392 13.866C23.8926 13.9727 23.9459 13.866 23.8926 13.7593C23.8392 13.6527 23.7326 13.546 23.6259 13.546C23.7326 13.386 23.8392 13.1727 23.8392 13.1193C23.8392 13.066 23.8926 13.066 23.9459 13.066C23.9992 13.066 23.9992 13.066 24.0526 13.0127C24.1059 12.9593 24.1592 12.746 24.2126 12.6393C24.2659 12.6393 24.3192 12.6393 24.3192 12.586C24.4259 12.746 24.5326 12.906 24.5326 12.9593C24.5326 13.0127 24.5859 13.0127 24.5859 13.066C24.5859 13.1193 24.4792 13.386 24.4792 13.4393C24.1592 13.4393 24.0526 13.4393 23.9459 13.5993C23.8926 13.6527 23.9459 13.706 24.0526 13.6527C24.1059 13.5993 24.2126 13.5993 24.2659 13.5993C24.3192 13.5993 24.3192 13.6527 24.2659 13.6527C24.1059 13.7593 23.9459 13.866 23.9992 14.026C23.9992 14.0793 24.0526 14.1327 24.0526 14.026C24.1059 13.9193 24.2126 13.8127 24.3726 13.7593C24.3726 13.866 24.3726 14.0793 24.4792 14.1327C24.5859 14.186 24.5859 14.1327 24.5326 14.0793C24.4792 13.9727 24.5326 13.8127 24.5859 13.7593C24.6926 13.5993 25.0126 13.8127 25.0659 13.866C25.1192 13.9193 25.1726 13.9193 25.1192 13.8127C25.0659 13.6527 24.8526 13.546 24.6392 13.4927C24.6926 13.226 24.8526 12.6393 24.9059 12.4793C25.0126 12.5327 25.1192 12.3727 25.3326 12.426C25.6526 12.5327 26.1859 12.8527 26.2392 12.9593C26.2926 13.066 26.3459 13.0127 26.3992 12.9593C26.4526 12.906 26.5059 12.9593 26.5592 12.9593C26.6126 12.9593 26.6659 13.0127 26.6126 12.8527C26.5592 12.6927 26.3459 12.426 26.0259 12.2127C26.1859 12.2127 26.4526 12.2127 26.4526 12.1593C26.4526 12.106 26.1859 11.9993 26.0259 11.9993C26.1326 11.946 26.2926 11.8927 26.3992 11.8393C26.4526 11.786 26.3992 11.786 26.2392 11.786C25.7059 11.786 25.4392 11.786 25.1726 11.626C24.7459 11.3593 24.4792 11.0927 24.2659 10.986C24.1592 10.9327 24.1059 10.7727 24.0526 10.666C23.8926 10.2927 23.8926 10.1327 23.5726 9.97266C23.3592 9.97266 22.9326 10.1327 22.7726 10.2927Z" fill="#C94747"/>
</svg>
