<svg width="32" height="32" viewBox="0 0 32 32" fill="none" xmlns="http://www.w3.org/2000/svg">
<g clip-path="url(#clip0_20142_72548)">
<path d="M16 32C24.8366 32 32 24.8366 32 16C32 7.16344 24.8366 0 16 0C7.16344 0 0 7.16344 0 16C0 24.8366 7.16344 32 16 32Z" fill="#F0F0F0"/>
<path d="M31.0048 10.4357H13.9131V6.26172H5.56519V10.4357H0.995188C0.352063 12.1689 0 14.0437 0 16.0008C0 17.958 0.352063 19.8327 0.995188 21.566L16 22.9573L31.0048 21.566C31.6479 19.8327 32 17.958 32 16.0008C32 14.0437 31.6479 12.1689 31.0048 10.4357Z" fill="#0052B4"/>
<path d="M15.999 31.9993C22.8784 31.9993 28.7431 27.6573 31.0038 21.5645H0.994141C3.25483 27.6573 9.11952 31.9993 15.999 31.9993Z" fill="#D80027"/>
<path d="M5.56543 10.4339V11.8252C5.56543 15.0202 9.73937 15.9992 9.73937 15.9992C9.73937 15.9992 13.9133 15.0202 13.9133 11.8252V10.4339L12.522 11.8252L9.73937 9.73828L6.95674 11.8252L5.56543 10.4339Z" fill="#F0F0F0"/>
</g>
<defs>
<clipPath id="clip0_20142_72548">
<rect width="32" height="32" fill="white"/>
</clipPath>
</defs>
</svg>
