<svg width="32" height="32" viewBox="0 0 32 32" fill="none" xmlns="http://www.w3.org/2000/svg">
<path d="M32 15.999C32 24.8355 24.8365 31.999 16 31.999C7.1635 31.999 0 24.8355 0 15.999C0.695625 15.999 16 13.9121 16 13.9121L32 15.999Z" fill="#338AF3"/>
<path d="M0 16C0 7.1635 7.1635 0 16 0C24.8365 0 32 7.1635 32 16" fill="#F0F0F0"/>
<path d="M22.3508 11.041L15.9998 17.3921L9.64878 11.041C8.82747 12.2602 8.34766 13.7276 8.34766 15.3051V17.392C8.34766 20.743 10.513 23.5976 13.5178 24.6308C13.1167 25.4168 13.1843 26.3977 13.772 27.1311C14.5525 26.5056 15.3606 25.858 16.0461 25.3088C16.7316 25.8581 17.5397 26.5056 18.3202 27.1311C18.9147 26.3891 18.9775 25.3935 18.5606 24.6029C21.5244 23.5473 23.6519 20.7136 23.6519 17.392V15.3051C23.652 13.7276 23.1721 12.2603 22.3508 11.041V11.041Z" fill="#6DA544"/>
<path d="M15.9998 22.9575C12.9311 22.9575 10.4346 20.461 10.4346 17.3924V15.3054C10.4346 12.2367 12.9311 9.74023 15.9998 9.74023C19.0684 9.74023 21.5649 12.2368 21.5649 15.3054V17.3924C21.5649 20.461 19.0684 22.9575 15.9998 22.9575Z" fill="#FFDA44"/>
<path d="M19.4789 17.3914V15.3044C19.4789 13.3865 17.9186 11.8262 16.0007 11.8262C14.0828 11.8262 12.5225 13.3865 12.5225 15.3044V17.3914L16.0007 18.087L19.4789 17.3914Z" fill="#338AF3"/>
<path d="M12.5225 17.3906C12.5225 19.3086 14.0828 20.8689 16.0007 20.8689C17.9186 20.8689 19.4789 19.3085 19.4789 17.3906H12.5225Z" fill="#6DA544"/>
<path d="M20.173 9.73871C20.173 8.58614 19.2386 7.65177 18.0861 7.65177C17.5514 7.65177 17.0641 7.85302 16.6947 8.18358V6.95608H17.3904V5.56477H16.6947V4.86914H15.3034V5.56477H14.6078V6.95608H15.3034V8.18358C14.9341 7.85302 14.4468 7.65177 13.9121 7.65177C12.7596 7.65177 11.8252 8.58614 11.8252 9.73871C11.8252 10.3566 12.094 10.9116 12.5208 11.2938V12.5213H19.4773V11.2938C19.9042 10.9116 20.173 10.3566 20.173 9.73871V9.73871Z" fill="#FFDA44"/>
</svg>
