<svg width="32" height="32" viewBox="0 0 32 32" fill="none" xmlns="http://www.w3.org/2000/svg">
<path d="M22.9557 1.58763C20.8522 0.5705 18.4923 0 15.9992 0C13.5061 0 11.1462 0.5705 9.04268 1.58763L7.65137 16L9.04268 30.4124C11.1462 31.4295 13.5061 32 15.9992 32C18.4923 32 20.8522 31.4295 22.9557 30.4124L24.347 16L22.9557 1.58763Z" fill="#FFDA44"/>
<path d="M16.0009 10.4336L17.3822 14.6848H21.8527L18.2362 17.3125L19.6175 21.564L16.0009 18.9365L12.3844 21.564L13.7659 17.3125L10.1494 14.6848H14.6196L16.0009 10.4336Z" fill="#496E2D"/>
<path d="M9.0435 1.58789C3.69163 4.17583 0 9.65639 0 15.9997C0 22.343 3.69163 27.8236 9.0435 30.4115V1.58789Z" fill="#496E2D"/>
<path d="M22.9561 1.58789V30.4115C28.3079 27.8236 31.9995 22.343 31.9995 15.9997C31.9995 9.65639 28.3079 4.17583 22.9561 1.58789Z" fill="#D80027"/>
</svg>
