<svg width="32" height="32" viewBox="0 0 32 32" fill="none" xmlns="http://www.w3.org/2000/svg">
<g clip-path="url(#clip0_20142_72523)">
<path d="M16 32C24.8366 32 32 24.8366 32 16C32 7.16344 24.8366 0 16 0C7.16344 0 0 7.16344 0 16C0 24.8366 7.16344 32 16 32Z" fill="#FFDA44"/>
<path d="M9.73981 10.4348H31.0054C28.7448 4.342 22.8801 0 16.0007 0C11.5823 0 7.58275 1.79119 4.6875 4.68681L9.73981 10.4348Z" fill="#6DA544"/>
<path d="M9.73981 21.5645H31.0054C28.7448 27.6573 22.8801 31.9993 16.0007 31.9993C11.5823 31.9993 7.58275 30.2081 4.6875 27.3125L9.73981 21.5645Z" fill="#6DA544"/>
<path d="M4.6853 4.68555C-1.56307 10.9339 -1.56307 21.0646 4.6853 27.313C7.26737 24.731 9.75068 22.2477 15.9991 15.9993L4.6853 4.68555Z" fill="#D80027"/>
<path d="M20.3164 13.2168L21.0071 15.3425H23.2423L21.434 16.6563L22.1247 18.782L20.3164 17.4682L18.5082 18.782L19.1988 16.6563L17.3906 15.3425H19.6258L20.3164 13.2168Z" fill="black"/>
<path d="M27.2745 13.2168L27.9651 15.3425H30.2003L28.3921 16.6563L29.0827 18.782L27.2745 17.4682L25.4662 18.782L26.1569 16.6563L24.3486 15.3425H26.5838L27.2745 13.2168Z" fill="black"/>
</g>
<defs>
<clipPath id="clip0_20142_72523">
<rect width="32" height="32" fill="white"/>
</clipPath>
</defs>
</svg>
