<svg width="32" height="32" viewBox="0 0 32 32" fill="none" xmlns="http://www.w3.org/2000/svg">
<g clip-path="url(#clip0_20142_72599)">
<path d="M30.4124 22.9563C31.4295 20.8529 32 18.493 32 15.9998C32 13.5067 31.4295 11.1468 30.4124 9.04334L16 8.34766L1.58763 9.04328C0.5705 11.1468 0 13.5067 0 15.9998C0 18.493 0.5705 20.8529 1.58763 22.9563L16 23.652L30.4124 22.9563Z" fill="#FFDA44"/>
<path d="M15.9993 0C9.65591 0 4.17491 3.69156 1.58691 9.0435H30.4116C27.8237 3.69156 22.3426 0 15.9993 0V0Z" fill="black"/>
<path d="M15.9993 32.0005C9.65591 32.0005 4.17491 28.309 1.58691 22.957H30.4116C27.8237 28.309 22.3426 32.0005 15.9993 32.0005V32.0005Z" fill="#0052B4"/>
<path d="M31.2444 11.1309H0.755562C0.265437 12.6664 0 14.3024 0 16.0004C0 17.6985 0.265437 19.3344 0.755562 20.87H31.2444C31.7346 19.3344 32 17.6985 32 16.0004C32 14.3024 31.7346 12.6664 31.2444 11.1309Z" fill="#A2001D"/>
<path d="M5.56543 15.3047H26.435V16.696H5.56543V15.3047Z" fill="#FFDA44"/>
<path d="M8.34668 12.5215H23.6511V13.9128H8.34668V12.5215Z" fill="#FFDA44"/>
<path d="M23.7497 16.0001C23.7497 16.0001 20.172 20.1741 15.9982 20.1741C11.8243 20.1741 11.8242 16.0001 11.8242 16.0001C11.8242 16.0001 11.8242 11.8262 15.9982 11.8262C20.1721 11.8262 23.7497 16.0001 23.7497 16.0001Z" fill="#F0F0F0"/>
<path d="M15.9986 20.1741C11.8247 20.1741 8.24707 16.0001 8.24707 16.0001C8.24707 16.0001 11.8247 11.8262 15.9986 11.8262" fill="black"/>
<path d="M13.2188 14.6094H14.6101V17.392H13.2188V14.6094Z" fill="#F0F0F0"/>
<path d="M17.3906 14.6094H18.7819V17.392H17.3906V14.6094Z" fill="black"/>
<path d="M5.56612 17.392C6.33452 17.392 6.95743 16.7691 6.95743 16.0007C6.95743 15.2323 6.33452 14.6094 5.56612 14.6094C4.79772 14.6094 4.1748 15.2323 4.1748 16.0007C4.1748 16.7691 4.79772 17.392 5.56612 17.392Z" fill="#0052B4"/>
<path d="M26.4353 17.392C27.2037 17.392 27.8266 16.7691 27.8266 16.0007C27.8266 15.2323 27.2037 14.6094 26.4353 14.6094C25.6669 14.6094 25.0439 15.2323 25.0439 16.0007C25.0439 16.7691 25.6669 17.392 26.4353 17.392Z" fill="#0052B4"/>
</g>
<defs>
<clipPath id="clip0_20142_72599">
<rect width="32" height="32" fill="white"/>
</clipPath>
</defs>
</svg>
