<svg width="32" height="32" viewBox="0 0 32 32" fill="none" xmlns="http://www.w3.org/2000/svg">
<path d="M32 16C32 24.8365 24.8365 32 16 32C7.1635 32 0 24.8365 0 16C0 16.0038 16 0.00175 16 0C24.8365 0 32 7.1635 32 16Z" fill="#0052B4"/>
<path d="M15.958 15.9998H16.0008C16.0008 15.9855 16.0008 15.9715 16.0008 15.957C15.9866 15.9713 15.9723 15.9856 15.958 15.9998Z" fill="#F0F0F0"/>
<path d="M16 8.34781C16 5.5325 16 3.68781 16 0H15.9973C7.16194 0.0015 0 7.16431 0 16H8.34781V11.2993L13.0485 16H15.9572C15.9715 15.9857 15.9858 15.9715 16.0001 15.9572C16.0001 14.8793 16.0001 13.9174 16.0001 13.0486L11.2992 8.34781H16Z" fill="#F0F0F0"/>
<path d="M8.09466 2.08594C5.59223 3.51087 3.51179 5.59125 2.08691 8.09369V15.999H6.26085V6.26V6.25988H16C16 4.94344 16 3.68931 16 2.08594H8.09466Z" fill="#D80027"/>
<path d="M15.9998 14.0322L10.3152 8.34766H8.34766V8.34778L15.9997 15.9998H15.9998C15.9998 15.9998 15.9998 14.6431 15.9998 14.0322V14.0322Z" fill="#D80027"/>
<path d="M18.0869 8.34766V15.9998C18.0869 19.7273 22.9565 20.8694 22.9565 20.8694C22.9565 20.8694 27.826 19.7273 27.826 15.9998V8.34766H18.0869Z" fill="#FFDA44"/>
<path d="M22.2602 11.1296C22.2602 11.898 21.6373 13.9122 20.8689 13.9122C20.1004 13.9122 19.4775 11.898 19.4775 11.1296C19.4775 10.3612 20.8689 9.73828 20.8689 9.73828C20.8689 9.73828 22.2602 10.3612 22.2602 11.1296Z" fill="#FF9811"/>
<path d="M25.9529 12.6449C26.1774 12.0971 26.352 11.2963 26.352 10.8977C26.352 10.2573 25.5172 9.73828 25.5172 9.73828C25.5172 9.73828 24.6824 10.2574 24.6824 10.8977C24.6824 11.2963 24.857 12.0971 25.0815 12.6449L24.5996 13.733C24.8829 13.8482 25.1925 13.9122 25.5172 13.9122C25.8419 13.9122 26.1515 13.8482 26.4347 13.733L25.9529 12.6449Z" fill="#A2001D"/>
<path d="M21.9134 16.0003C21.9134 16.0003 21.2178 17.3916 21.2178 18.7829H24.696C24.696 17.3916 24.0003 16.0003 24.0003 16.0003L22.9568 15.3047L21.9134 16.0003Z" fill="#6DA544"/>
<path d="M24.0001 16.0007V15.6529C24.0001 15.0766 23.5329 14.6094 22.9566 14.6094C22.3803 14.6094 21.9131 15.0766 21.9131 15.6529V16.0007H24.0001Z" fill="#D80027"/>
</svg>
