<svg width="32" height="32" viewBox="0 0 32 32" fill="none" xmlns="http://www.w3.org/2000/svg">
<path d="M16 32C24.8366 32 32 24.8366 32 16C32 7.16344 24.8366 0 16 0C7.16344 0 0 7.16344 0 16C0 24.8366 7.16344 32 16 32Z" fill="#F0F0F0"/>
<path d="M31.0048 10.4355H0.995188C0.352 12.1689 0 14.0436 0 16.0007C0 17.9579 0.352 19.8326 0.995188 21.5659H31.0049C31.648 19.8326 32 17.9579 32 16.0007C32 14.0436 31.648 12.1689 31.0048 10.4355Z" fill="#0052B4"/>
<path d="M15.9999 0C11.1505 0 6.80528 2.15775 3.87109 5.56519H28.1287C25.1945 2.15775 20.8493 0 15.9999 0V0Z" fill="#D80027"/>
<path d="M28.1287 26.4355H3.87109C6.80528 29.843 11.1505 32.0008 15.9999 32.0008C20.8493 32.0008 25.1945 29.843 28.1287 26.4355Z" fill="#D80027"/>
</svg>
