<svg width="32" height="32" viewBox="0 0 32 32" fill="none" xmlns="http://www.w3.org/2000/svg">
<g clip-path="url(#clip0_20142_72538)">
<path d="M1.58763 9.04366C0.5705 11.1472 0 13.507 0 16.0002C0 18.4933 0.5705 20.8532 1.58763 22.9567L16 24.348L30.4124 22.9567C31.4295 20.8532 32 18.4933 32 16.0002C32 13.507 31.4295 11.1472 30.4124 9.04366L16 7.65234L1.58763 9.04366Z" fill="#F0F0F0"/>
<path d="M1.58887 22.957C4.1768 28.3089 9.65737 32.0005 16.0007 32.0005C22.344 32.0005 27.8246 28.3089 30.4125 22.957H1.58887Z" fill="#6DA544"/>
<path d="M1.58887 9.0435H30.4125C27.8246 3.69163 22.344 0 16.0007 0C9.65737 0 4.1768 3.69163 1.58887 9.0435Z" fill="#D80027"/>
<path d="M13.2168 20.1736H18.782V17.8084L17.669 18.3649L15.9994 16.6953L14.3299 18.3649L13.2168 17.8084V20.1736Z" fill="#FFDA44"/>
<path d="M10.0337 17.3926L10.2928 18.1897H11.1309L10.4528 18.6824L10.7118 19.4795L10.0337 18.9869L9.35559 19.4795L9.61465 18.6824L8.93652 18.1897H9.77465L10.0337 17.3926Z" fill="#FFDA44"/>
<path d="M10.8364 14.6094L11.0955 15.4065H11.9336L11.2555 15.8992L11.5145 16.6963L10.8364 16.2037L10.1583 16.6963L10.4174 15.8992L9.73926 15.4065H10.5774L10.8364 14.6094Z" fill="#FFDA44"/>
<path d="M13.1333 12.5215L13.3924 13.3186H14.2304L13.5524 13.8113L13.8114 14.6084L13.1333 14.1158L12.4553 14.6084L12.7143 13.8113L12.0361 13.3186H12.8743L13.1333 12.5215Z" fill="#FFDA44"/>
<path d="M21.9673 17.3926L21.7082 18.1897H20.8701L21.5482 18.6824L21.2892 19.4795L21.9673 18.9869L22.6454 19.4795L22.3864 18.6824L23.0645 18.1897H22.2264L21.9673 17.3926Z" fill="#FFDA44"/>
<path d="M21.1636 14.6094L20.9045 15.4065H20.0664L20.7445 15.8992L20.4855 16.6963L21.1636 16.2037L21.8417 16.6963L21.5827 15.8992L22.2608 15.4065H21.4227L21.1636 14.6094Z" fill="#FFDA44"/>
<path d="M18.8686 12.5215L18.6095 13.3186H17.7715L18.4495 13.8113L18.1905 14.6084L18.8686 14.1158L19.5467 14.6084L19.2877 13.8113L19.9657 13.3186H19.1276L18.8686 12.5215Z" fill="#FFDA44"/>
<path d="M15.9995 11.4785L16.2586 12.2756H17.0967L16.4186 12.7683L16.6777 13.5655L15.9995 13.0728L15.3214 13.5655L15.5805 12.7683L14.9023 12.2756H15.7405L15.9995 11.4785Z" fill="#FFDA44"/>
</g>
<defs>
<clipPath id="clip0_20142_72538">
<rect width="32" height="32" fill="white"/>
</clipPath>
</defs>
</svg>
