<svg width="32" height="32" viewBox="0 0 32 32" fill="none" xmlns="http://www.w3.org/2000/svg">
<g clip-path="url(#clip0_20142_72610)">
<path d="M16 32C24.8366 32 32 24.8366 32 16C32 7.16344 24.8366 0 16 0C7.16344 0 0 7.16344 0 16C0 24.8366 7.16344 32 16 32Z" fill="#FFDA44"/>
<path d="M25.7391 7.65219C25.5956 8.34187 25.5304 9.07644 25.5304 9.80869C25.5304 14.0296 28.0466 17.6827 31.6526 19.3273C31.8796 18.2538 32 17.141 32 16C32 7.1635 24.8365 0 16 0C7.1635 0 0 7.1635 0 16C0 24.8365 7.1635 32 16 32C21.4801 32 26.3161 29.2443 29.1998 25.0435H9.0435V22.9566H30.4124C30.6311 22.5043 30.8286 22.04 31.0049 21.5653H9.0435L25.7391 7.65219Z" fill="#0052B4"/>
<path d="M11.7549 8.34766L12.1003 9.41053H13.2178L12.3137 10.0675L12.6591 11.1303L11.7549 10.4735L10.8509 11.1303L11.1962 10.0675L10.292 9.41053H11.4096L11.7549 8.34766Z" fill="#F0F0F0"/>
<path d="M7.21528 16L7.64703 17.3287H9.04391L7.91372 18.1496L8.34547 19.4783L7.21528 18.6571L6.08516 19.4783L6.51684 18.1496L5.38672 17.3287H6.78359L7.21528 16Z" fill="#F0F0F0"/>
<path d="M7.21528 4.86914L7.64703 6.19783H9.04391L7.91372 7.01876L8.34547 8.34738L7.21528 7.52626L6.08516 8.34738L6.51684 7.01876L5.38672 6.19783H6.78359L7.21528 4.86914Z" fill="#F0F0F0"/>
<path d="M3.73774 11.1309L4.16949 12.4595H5.5663L4.43618 13.2805L4.86793 14.6091L3.73774 13.788L2.60762 14.6091L3.0393 13.2805L1.90918 12.4595H3.30599L3.73774 11.1309Z" fill="#F0F0F0"/>
</g>
<defs>
<clipPath id="clip0_20142_72610">
<rect width="32" height="32" fill="white"/>
</clipPath>
</defs>
</svg>
