<svg width="32" height="32" viewBox="0 0 32 32" fill="none" xmlns="http://www.w3.org/2000/svg">
<path d="M16 32C24.8366 32 32 24.8366 32 16C32 7.16344 24.8366 0 16 0C7.16344 0 0 7.16344 0 16C0 24.8366 7.16344 32 16 32Z" fill="#D80027"/>
<path d="M16.0008 23.652C20.227 23.652 23.653 20.226 23.653 15.9998C23.653 11.7737 20.227 8.34766 16.0008 8.34766C11.7746 8.34766 8.34863 11.7737 8.34863 15.9998C8.34863 20.226 11.7746 23.652 16.0008 23.652Z" fill="#F0F0F0"/>
<path d="M16.9429 13.0742L18.2557 14.8833L20.3817 14.1939L19.0669 16.0014L20.3796 17.8104L18.2542 17.1184L16.9394 18.9259L16.9407 16.6908L14.8154 15.9988L16.9416 15.3095L16.9429 13.0742Z" fill="#D80027"/>
<path d="M17.7389 20.5225C15.2416 20.5225 13.2171 18.498 13.2171 16.0008C13.2171 13.5035 15.2416 11.479 17.7389 11.479C18.5175 11.479 19.2502 11.6759 19.8898 12.0225C18.8864 11.0412 17.5142 10.4355 15.9998 10.4355C12.9263 10.4355 10.4346 12.9272 10.4346 16.0007C10.4346 19.0743 12.9263 21.5659 15.9998 21.5659C17.5142 21.5659 18.8864 20.9602 19.8898 19.9789C19.2502 20.3257 18.5175 20.5225 17.7389 20.5225Z" fill="#D80027"/>
</svg>
