<svg width="32" height="32" viewBox="0 0 32 32" fill="none" xmlns="http://www.w3.org/2000/svg">
<path d="M16 32C24.8366 32 32 24.8366 32 16C32 7.16344 24.8366 0 16 0C7.16344 0 0 7.16344 0 16C0 24.8366 7.16344 32 16 32Z" fill="#F0F0F0"/>
<path d="M10.4327 8.34865V6.26172H8.34572V8.34865H6.25879V10.4357H8.34572V12.5226H10.4327V10.4357H12.5197V8.34865H10.4327Z" fill="#D80027"/>
<path d="M16 0V16C7.1635 16.0001 3.65156 16 0 16.0001C0 24.8365 7.1635 32 16 32C24.8365 32 32 24.8365 32 16C32 7.1635 24.8365 0 16 0Z" fill="#D80027"/>
</svg>
