<svg width="32" height="32" viewBox="0 0 32 32" fill="none" xmlns="http://www.w3.org/2000/svg">
<g clip-path="url(#clip0_20142_72647)">
<path d="M8.66416 1.77734C7.23178 2.51666 5.88722 3.48572 4.68647 4.68647C3.48566 5.88728 2.51659 7.23184 1.77734 8.66422L12.0653 19.936L23.3371 30.224C24.7695 29.4847 26.1141 28.5156 27.3148 27.3149C28.5157 26.1141 29.4847 24.7695 30.224 23.3372L19.936 12.0653L8.66416 1.77734Z" fill="#F0F0F0"/>
<path d="M27.3128 27.3139C27.984 26.6427 28.5826 25.9265 29.1096 25.1753L6.82307 2.88867C6.07188 3.41561 5.3557 4.01423 4.68451 4.68542C4.01332 5.35661 3.4147 6.0728 2.8877 6.82405L25.1743 29.1105C25.9254 28.5836 26.6416 27.985 27.3128 27.3139Z" fill="black"/>
<path d="M4.68575 27.3148C9.73368 32.3627 17.3147 33.3317 23.3364 30.2238L1.77668 8.66406C-1.33113 14.6857 -0.361942 22.2668 4.68575 27.3148V27.3148Z" fill="#D80027"/>
<path d="M27.3137 4.68583C22.2658 -0.36205 14.6847 -1.33105 8.66309 1.77664L30.2228 23.3365C33.3306 17.3149 32.3616 9.7337 27.3137 4.68583V4.68583Z" fill="#D80027"/>
</g>
<defs>
<clipPath id="clip0_20142_72647">
<rect width="32" height="32" fill="white"/>
</clipPath>
</defs>
</svg>
