<svg width="32" height="32" viewBox="0 0 32 32" fill="none" xmlns="http://www.w3.org/2000/svg">
<path d="M32 16C32 24.8365 24.8365 32 16.0001 32C7.1635 32 0 24.8365 0 16C0 16.0038 16.0001 0.00175 16.0001 0C24.8365 0 32 7.1635 32 16Z" fill="#338AF3"/>
<path d="M7.65137 16.0007H13.0477L8.34699 10.4355L7.65137 12.5225V16.0007Z" fill="#0052B4"/>
<path d="M15.9998 13.0488L10.4346 7.65234H15.9998L15.9998 13.0488Z" fill="#0052B4"/>
<path d="M15.958 15.9998H16.0008C16.0008 15.9855 16.0008 15.9715 16.0008 15.957C15.9866 15.9713 15.9723 15.9856 15.958 15.9998Z" fill="#F0F0F0"/>
<path d="M16.0001 8.34781C16.0001 5.5325 16.0001 3.68775 16.0001 0H15.9974C7.162 0.0015 0 7.16431 0 16H8.34787V11.2993L13.0486 16H15.9573C15.9716 15.9857 15.9858 15.9715 16.0001 15.9572C16.0001 14.8793 16.0001 13.9174 16.0001 13.0486L11.2992 8.34781H16.0001Z" fill="#F0F0F0"/>
<path d="M8.09466 2.08594C5.59223 3.51087 3.51185 5.59125 2.08691 8.09369V15.999H6.26085V6.26V6.25988H16C16 4.94344 16 3.68931 16 2.08594H8.09466Z" fill="#D80027"/>
<path d="M15.9989 14.0322L10.3142 8.34766H8.34668V8.34778L15.9988 15.9998H15.9989C15.9989 15.9998 15.9989 14.6431 15.9989 14.0322V14.0322Z" fill="#D80027"/>
<path d="M17.4629 26.4336L17.8083 27.4965H18.9258L18.0217 28.1533L18.3671 29.2162L17.4629 28.5593L16.5588 29.2162L16.9042 28.1533L16 27.4965H17.1175L17.4629 26.4336Z" fill="#FFDA44"/>
<path d="M26.3633 19.4785L26.7086 20.5414H27.8262L26.9221 21.1983L27.2676 22.2611L26.3633 21.6043L25.4593 22.2611L25.8046 21.1983L24.9004 20.5414H26.018L26.3633 19.4785Z" fill="#FFDA44"/>
<path d="M28.5928 9.04297L28.9381 10.1058H30.0557L29.1516 10.7627L29.4969 11.8255L28.5928 11.1687L27.6887 11.8255L28.0341 10.7627L27.1299 10.1058H28.2474L28.5928 9.04297Z" fill="#FFDA44"/>
<path d="M29.1456 16.6953L29.4909 17.7582H30.6084L29.7044 18.4151L30.0497 19.4779L29.1456 18.8211L28.2415 19.4779L28.5869 18.4151L27.6826 17.7582H28.8002L29.1456 16.6953Z" fill="#FFDA44"/>
<path d="M19.066 23.9351L20.0619 24.4425L20.8521 23.6523L20.6773 24.756L21.673 25.2634L20.5691 25.4383L20.3943 26.5421L19.8871 25.5463L18.7832 25.7212L19.5734 24.931L19.066 23.9351Z" fill="#FFDA44"/>
<path d="M19.066 19.7613L20.0619 20.2687L20.8521 19.4785L20.6773 20.5823L21.673 21.0896L20.5691 21.2645L20.3943 22.3683L19.8871 21.3725L18.7832 21.5474L19.5734 20.7572L19.066 19.7613Z" fill="#FFDA44"/>
<path d="M22.5435 22.4351L23.5394 22.9425L24.3296 22.1523L24.1549 23.256L25.1506 23.7634L24.0467 23.9383L23.8719 25.0421L23.3646 24.0462L22.2607 24.2212L23.0509 23.431L22.5435 22.4351Z" fill="#FFDA44"/>
<path d="M22.5435 13.4996L23.5394 14.007L24.3296 13.2168L24.1549 14.3205L25.1506 14.8279L24.0467 15.0027L23.8719 16.1065L23.3646 15.1108L22.2607 15.2857L23.0509 14.4955L22.5435 13.4996Z" fill="#FFDA44"/>
<path d="M25.9146 13.3922L26.9105 13.8996L27.7007 13.1094L27.5259 14.2131L28.5216 14.7204L27.4178 14.8953L27.243 15.9991L26.7357 15.0034L25.6318 15.1782L26.422 14.3881L25.9146 13.3922Z" fill="#FFDA44"/>
</svg>
