<svg width="32" height="32" viewBox="0 0 32 32" fill="none" xmlns="http://www.w3.org/2000/svg">
<g clip-path="url(#clip0_20142_72552)">
<path d="M16 32C24.8366 32 32 24.8366 32 16C32 7.16344 24.8366 0 16 0C7.16344 0 0 7.16344 0 16C0 24.8366 7.16344 32 16 32Z" fill="#FFDA44"/>
<path d="M4.68627 27.3128C5.35746 27.984 6.07359 28.5825 6.82477 29.1095L29.1104 6.82386C28.5835 6.07267 27.9849 5.35655 27.3137 4.68536C26.6425 4.01417 25.9264 3.41567 25.1752 2.88867L2.88965 25.1744C3.41652 25.9254 4.01515 26.6415 4.68627 27.3128V27.3128Z" fill="black"/>
<path d="M4.68661 4.68556C-0.361017 9.73331 -1.33008 17.314 1.77761 23.3354L23.3365 1.77662C17.315 -1.33107 9.7343 -0.361945 4.68661 4.68556V4.68556Z" fill="#6DA544"/>
<path d="M27.3149 27.3139C32.3625 22.2663 33.3315 14.6855 30.2239 8.66406L8.66504 30.2229C14.6864 33.3306 22.2672 32.3616 27.3149 27.3139Z" fill="#338AF3"/>
</g>
<defs>
<clipPath id="clip0_20142_72552">
<rect width="32" height="32" fill="white"/>
</clipPath>
</defs>
</svg>
