<svg width="32" height="32" viewBox="0 0 32 32" fill="none" xmlns="http://www.w3.org/2000/svg">
<g clip-path="url(#clip0_20142_72549)">
<path d="M0.7555 11.1312C0.265375 12.6667 -6.2489e-05 14.3025 1.10347e-08 16.0006C-6.2489e-05 17.6987 0.265437 19.3347 0.755562 20.8702L16 21.5659L31.2444 20.8703C31.7345 19.3347 32.0001 17.6987 32.0001 16.0007C32 14.3026 31.7346 12.6667 31.2444 11.1312L16 10.4355L0.7555 11.1312Z" fill="#F0F0F0"/>
<path d="M31.2439 11.1312L15.9995 10.4355L0.755008 11.1312C0.609758 11.5864 0.484695 12.0506 0.379883 12.5225H31.6189C31.5142 12.0505 31.3892 11.5863 31.2439 11.1312Z" fill="#D80027"/>
<path d="M0.378906 19.4785C0.483594 19.9504 0.608656 20.4145 0.753906 20.8698L0.755406 20.8698L15.9983 21.5655L31.2427 20.8698C31.388 20.4146 31.513 19.9504 31.6178 19.4785H0.378906Z" fill="#D80027"/>
<path d="M15.9993 31.9996C23.1378 31.9996 29.1834 27.3244 31.2437 20.8691H0.754883C2.8152 27.3243 8.86094 31.9996 15.9993 31.9996V31.9996Z" fill="#6DA544"/>
<path d="M16.0003 6.2663e-10C8.86192 6.25006e-05 2.8163 4.67525 0.755859 11.1304L31.2447 11.1305C29.1845 4.67519 23.1388 -6.24994e-05 16.0003 6.2663e-10V6.2663e-10Z" fill="#338AF3"/>
<path d="M7.31233 6.60889C7.31233 5.11033 8.36551 3.85845 9.77195 3.55133C9.55582 3.50408 9.33151 3.47852 9.10113 3.47852C7.37226 3.47852 5.9707 4.88001 5.9707 6.60895C5.9707 8.33789 7.37214 9.73938 9.10113 9.73938C9.33151 9.73938 9.55576 9.71376 9.77195 9.66657C8.36557 9.35932 7.31233 8.10745 7.31233 6.60889V6.60889Z" fill="#F0F0F0"/>
<path d="M11.6214 8.03125L11.8333 8.68344H12.519L11.9643 9.08656L12.1761 9.73875L11.6214 9.33569L11.0665 9.73875L11.2784 9.08656L10.7236 8.68344H11.4094L11.6214 8.03125Z" fill="#F0F0F0"/>
<path d="M13.8107 8.03125L14.0226 8.68344H14.7084L14.1536 9.08656L14.3655 9.73875L13.8107 9.33569L13.2559 9.73875L13.4678 9.08656L12.9131 8.68344H13.5988L13.8107 8.03125Z" fill="#F0F0F0"/>
<path d="M15.9993 8.03125L16.2112 8.68344H16.897L16.3422 9.08656L16.5541 9.73875L15.9993 9.33569L15.4444 9.73875L15.6564 9.08656L15.1016 8.68344H15.7874L15.9993 8.03125Z" fill="#F0F0F0"/>
<path d="M18.1897 8.03125L18.4017 8.68344H19.0874L18.5326 9.08656L18.7446 9.73875L18.1897 9.33569L17.6349 9.73875L17.8469 9.08656L17.292 8.68344H17.9777L18.1897 8.03125Z" fill="#F0F0F0"/>
<path d="M20.3771 8.03125L20.5891 8.68344H21.2748L20.7201 9.08656L20.932 9.73875L20.3771 9.33569L19.8223 9.73875L20.0342 9.08656L19.4795 8.68344H20.1652L20.3771 8.03125Z" fill="#F0F0F0"/>
<path d="M13.8107 5.75586L14.0226 6.40798H14.7084L14.1536 6.81117L14.3655 7.4633L13.8107 7.06023L13.2559 7.4633L13.4678 6.81117L12.9131 6.40798H13.5988L13.8107 5.75586Z" fill="#F0F0F0"/>
<path d="M15.9993 5.75586L16.2112 6.40798H16.897L16.3422 6.81117L16.5541 7.4633L15.9993 7.06023L15.4444 7.4633L15.6564 6.81117L15.1016 6.40798H15.7874L15.9993 5.75586Z" fill="#F0F0F0"/>
<path d="M18.1897 5.75586L18.4017 6.40798H19.0874L18.5326 6.81117L18.7446 7.4633L18.1897 7.06023L17.6349 7.4633L17.8469 6.81117L17.292 6.40798H17.9777L18.1897 5.75586Z" fill="#F0F0F0"/>
<path d="M20.3771 5.75586L20.5891 6.40798H21.2748L20.7201 6.81117L20.932 7.4633L20.3771 7.06023L19.8223 7.4633L20.0342 6.81117L19.4795 6.40798H20.1652L20.3771 5.75586Z" fill="#F0F0F0"/>
<path d="M15.9993 3.47852L16.2112 4.13077H16.897L16.3422 4.53383L16.5541 5.18608L15.9993 4.78302L15.4444 5.18608L15.6564 4.53383L15.1016 4.13077H15.7874L15.9993 3.47852Z" fill="#F0F0F0"/>
<path d="M18.1897 3.47852L18.4017 4.13077H19.0874L18.5326 4.53383L18.7446 5.18608L18.1897 4.78302L17.6349 5.18608L17.8469 4.53383L17.292 4.13077H17.9777L18.1897 3.47852Z" fill="#F0F0F0"/>
<path d="M20.3771 3.47852L20.5891 4.13077H21.2748L20.7201 4.53383L20.932 5.18608L20.3771 4.78302L19.8223 5.18608L20.0342 4.53383L19.4795 4.13077H20.1652L20.3771 3.47852Z" fill="#F0F0F0"/>
</g>
<defs>
<clipPath id="clip0_20142_72549">
<rect width="32" height="32" fill="white"/>
</clipPath>
</defs>
</svg>
