<svg width="32" height="32" viewBox="0 0 32 32" fill="none" xmlns="http://www.w3.org/2000/svg">
<g clip-path="url(#clip0_20142_72557)">
<path d="M23.6517 1.94544C21.3786 0.705188 18.7714 0 15.9996 0C13.2277 0 10.6206 0.705188 8.34737 1.94544L6.95605 16L8.34737 30.0546C10.6206 31.2948 13.2277 32 15.9996 32C18.7714 32 21.3786 31.2948 23.6517 30.0546L25.0431 16L23.6517 1.94544Z" fill="#FFDA44"/>
<path d="M8.34781 30.0544V1.94531C3.37431 4.65906 0 9.93525 0 15.9999C0 22.0646 3.37431 27.3408 8.34781 30.0544Z" fill="#338AF3"/>
<path d="M32.0021 15.9999C32.0021 9.93525 28.6278 4.65906 23.6543 1.94531V30.0544C28.6278 27.3408 32.0021 22.0646 32.0021 15.9999V15.9999Z" fill="#6DA544"/>
<path d="M12.5229 20.1741L9.74023 16.0001L12.5229 11.8262L15.3056 16.0001L12.5229 20.1741Z" fill="#6DA544"/>
<path d="M19.4799 20.1741L16.6973 16.0001L19.4799 11.8262L22.2625 16.0001L19.4799 20.1741Z" fill="#6DA544"/>
<path d="M16.0014 25.7384L13.2188 21.5645L16.0014 17.3906L18.784 21.5645L16.0014 25.7384Z" fill="#6DA544"/>
</g>
<defs>
<clipPath id="clip0_20142_72557">
<rect width="32" height="32" fill="white"/>
</clipPath>
</defs>
</svg>
