<svg width="32" height="32" viewBox="0 0 32 32" fill="none" xmlns="http://www.w3.org/2000/svg">
<path d="M32 16C32 24.8365 24.8365 32 16 32C7.1635 32 0 24.8365 0 16C0 16.0038 16 0.00175 16 0C24.8365 0 32 7.1635 32 16Z" fill="#0052B4"/>
<path d="M15.958 15.9998H16.0008C16.0008 15.9855 16.0008 15.9715 16.0008 15.957C15.9866 15.9713 15.9723 15.9856 15.958 15.9998Z" fill="#F0F0F0"/>
<path d="M16 8.34781C16 5.5325 16 3.68781 16 0H15.9973C7.16194 0.0015 0 7.16431 0 16H8.34781V11.2993L13.0485 16H15.9572C15.9715 15.9857 15.9858 15.9715 16.0001 15.9572C16.0001 14.8793 16.0001 13.9174 16.0001 13.0486L11.2992 8.34781H16Z" fill="#F0F0F0"/>
<path d="M8.09466 2.08594C5.59223 3.51087 3.51179 5.59125 2.08691 8.09369V15.999H6.26085V6.26V6.25988H16C16 4.94344 16 3.68931 16 2.08594H8.09466Z" fill="#D80027"/>
<path d="M22.9564 16L18.6318 20.3246C19.4423 21.8877 21.0741 22.9565 22.9564 22.9565C24.8387 22.9565 26.4705 21.8877 27.281 20.3246L22.9564 16Z" fill="#FFDA44"/>
<path d="M16.0008 14.0322L10.3161 8.34766H8.34863V8.34778L16.0007 15.9998H16.0008C16.0008 15.9998 16.0008 14.6431 16.0008 14.0322V14.0322Z" fill="#D80027"/>
<path d="M18.0869 8.34766V15.9998V15.9998C18.087 19.7273 22.9565 20.8694 22.9565 20.8694C22.9565 20.8694 27.826 19.7273 27.826 15.9998V15.9998V8.34766H18.0869Z" fill="#6DA544"/>
<path d="M21.9131 11.8262H24V17.3913H21.9131V11.8262Z" fill="#F0F0F0"/>
<path d="M22.9566 12.8702C23.5329 12.8702 24.0001 12.403 24.0001 11.8267C24.0001 11.2504 23.5329 10.7832 22.9566 10.7832C22.3803 10.7832 21.9131 11.2504 21.9131 11.8267C21.9131 12.403 22.3803 12.8702 22.9566 12.8702Z" fill="#A2001D"/>
<path d="M19.4775 9.73828H20.8689V11.1296H19.4775V9.73828Z" fill="#FFDA44"/>
<path d="M19.4775 12.8691H20.8689V14.2605H19.4775V12.8691Z" fill="#FFDA44"/>
<path d="M19.4775 16H20.8689V17.3913H19.4775V16Z" fill="#FFDA44"/>
<path d="M25.042 9.73828H26.4333V11.1296H25.042V9.73828Z" fill="#FFDA44"/>
<path d="M25.042 12.8691H26.4333V14.2605H25.042V12.8691Z" fill="#FFDA44"/>
<path d="M25.042 16H26.4333V17.3913H25.042V16Z" fill="#FFDA44"/>
</svg>
