<svg width="32" height="32" viewBox="0 0 32 32" fill="none" xmlns="http://www.w3.org/2000/svg">
<path d="M16 32C24.8366 32 32 24.8366 32 16C32 7.16344 24.8366 0 16 0C7.16344 0 0 7.16344 0 16C0 24.8366 7.16344 32 16 32Z" fill="#FCFCFC"/>
<path d="M18.7168 11.1783C18.7168 9.67756 17.5001 8.46094 15.9993 8.46094C14.4985 8.46094 13.2819 9.67756 13.2819 11.1783H7.30371C7.30371 12.6559 8.59084 13.8538 10.0684 13.8538H9.9794C9.9794 15.3315 11.1771 16.5295 12.655 16.5295C12.655 17.8378 13.5946 18.9249 14.8355 19.1573L14.8286 19.1729H17.1701L17.1632 19.1573C18.4042 18.9248 19.3438 17.8377 19.3438 16.5295C20.8215 16.5295 22.0193 15.3315 22.0193 13.8538H21.9302C23.4078 13.8538 24.695 12.6559 24.695 11.1783H18.7168Z" fill="#FFDA44"/>
<path d="M14.805 18.8965L13.1201 22.7004C14.0091 23.0618 14.9808 23.2627 15.9996 23.2627C17.0184 23.2627 17.9901 23.0619 18.879 22.7004L17.1942 18.8965H14.805Z" fill="#FFDA44"/>
<path d="M12.5225 12.5137V17.1944C12.5225 19.8567 16.0007 20.6726 16.0007 20.6726C16.0007 20.6726 19.4789 19.8567 19.4789 17.1944V12.5137H12.5225Z" fill="#F0F0F0"/>
<path d="M3.88065 16.1133L5.76184 21.3748L7.62347 16.1133H9.04422L6.33009 23.0698H5.19353L2.45996 16.1133H3.88065Z" fill="#338AF3"/>
<path d="M25.7412 23.0698V16.1133H27.0933V23.0698H25.7412Z" fill="#338AF3"/>
<path d="M13.9131 14.0254V19.6975C14.3913 20.0495 14.9058 20.2915 15.3044 20.4465V14.0254H13.9131Z" fill="#D80027"/>
<path d="M18.0886 14.0254V19.6975C17.6104 20.0495 17.0959 20.2915 16.6973 20.4465V14.0254H18.0886Z" fill="#D80027"/>
<path d="M12.5225 12.5137H19.4789V14.7209H12.5225V12.5137Z" fill="#0052B4"/>
</svg>
