<svg width="32" height="32" viewBox="0 0 32 32" fill="none" xmlns="http://www.w3.org/2000/svg">
<g clip-path="url(#clip0_20142_72644)">
<path d="M16 32C24.8366 32 32 24.8366 32 16C32 7.16344 24.8366 0 16 0C7.16344 0 0 7.16344 0 16C0 24.8366 7.16344 32 16 32Z" fill="#F0F0F0"/>
<path d="M16.0009 31.9993C22.8803 31.9993 28.745 27.6573 31.0057 21.5645H0.996094C3.25678 27.6573 9.12147 31.9993 16.0009 31.9993Z" fill="black"/>
<path d="M16.0009 0C9.12147 0 3.25678 4.342 0.996094 10.4348H31.0058C28.745 4.342 22.8803 0 16.0009 0V0Z" fill="#D80027"/>
</g>
<defs>
<clipPath id="clip0_20142_72644">
<rect width="32" height="32" fill="white"/>
</clipPath>
</defs>
</svg>
