<svg width="32" height="32" viewBox="0 0 32 32" fill="none" xmlns="http://www.w3.org/2000/svg">
<path d="M16 32C24.8366 32 32 24.8366 32 16C32 7.16344 24.8366 0 16 0C7.16344 0 0 7.16344 0 16C0 24.8366 7.16344 32 16 32Z" fill="#F5F5F5"/>
<path d="M8.42676 10.2386V8.05198H9.12009L9.60009 9.70531L10.0801 8.05198H10.7734V10.2386H10.3468V8.47865L9.86676 10.2386H9.38676L8.90676 8.47865V10.2386H8.42676ZM12.1068 8.47865L11.7868 9.38531H12.4268L12.1068 8.47865ZM11.8401 8.05198H12.3734L13.2268 10.2386H12.7468L12.5868 9.81198H11.6801L11.5201 10.2386H11.0401L11.8401 8.05198ZM14.5068 10.2386H14.0268V9.43865L13.1734 8.10531H13.7601L14.2401 9.06531L14.7201 8.10531H15.2534L14.5068 9.43865V10.2386ZM15.8401 9.11865C15.8401 9.33198 15.8934 9.54531 16.0001 9.65198C16.1068 9.75865 16.2668 9.86531 16.4801 9.86531C16.6934 9.86531 16.8534 9.81198 16.9601 9.65198C17.0668 9.54531 17.1201 9.33198 17.1201 9.11865C17.1201 8.90531 17.0668 8.69198 16.9601 8.58531C16.8534 8.47865 16.6934 8.37198 16.4801 8.37198C16.2668 8.37198 16.1068 8.42531 16.0001 8.58531C15.8934 8.74531 15.8401 8.90531 15.8401 9.11865ZM15.3601 9.11865C15.3601 8.74531 15.4668 8.47865 15.6801 8.26531C15.8934 8.05198 16.1601 7.94531 16.5334 7.94531C16.9068 7.94531 17.1734 8.05198 17.3868 8.26531C17.6001 8.47865 17.7068 8.74531 17.7068 9.11865C17.7068 9.49198 17.6001 9.75865 17.3868 9.97198C17.1734 10.1853 16.9068 10.292 16.5334 10.292C16.1601 10.292 15.8934 10.1853 15.6801 9.97198C15.4668 9.75865 15.3601 9.49198 15.3601 9.11865ZM18.5068 10.2386V8.47865H17.8134V8.10531H19.6801V8.47865H18.9868V10.2386H18.5068ZM20.4268 10.2386V8.47865H19.7334V8.10531H21.6001V8.47865H20.9068V10.2386H20.4268ZM21.8668 10.2386V8.05198H23.5734V8.42531H22.3468V8.90531H23.4668V9.27865H22.3468V9.81198H23.6268V10.2386H21.8668Z" fill="#ED4C5C"/>
<path d="M11.0395 22.7725C10.3462 22.9859 9.38615 23.4659 9.01282 23.7325C8.90615 23.8392 8.90615 23.9459 9.06615 24.3192C9.22615 24.5859 9.33282 24.7992 9.38615 24.7992C9.43948 24.7992 9.81282 24.6392 10.2395 24.4259C10.6662 24.2125 11.1995 23.9459 11.4662 23.8925C11.6795 23.8392 11.8395 23.8392 11.9462 23.7859C11.9995 23.8925 11.9462 23.8392 12.0528 23.9992C12.1595 24.2125 12.1062 24.2125 12.2662 24.3192C12.4795 24.3725 12.9595 24.1059 12.9595 24.1059C13.5462 23.8925 13.8662 23.8925 15.9995 23.8925C18.1328 23.8925 18.4528 23.8925 19.0395 24.1059C19.0395 24.1059 19.5195 24.2659 19.5728 24.2659C19.6262 24.2659 19.6795 24.3192 19.7328 24.2659C19.7862 24.2659 19.8395 24.1592 19.8928 24.1059C19.8928 24.1059 19.9995 23.7859 20.0528 23.6792C20.1595 23.7325 20.3728 23.7859 20.5862 23.8925C20.7995 23.9992 21.3328 24.2125 21.7595 24.4259C22.1862 24.6392 22.5595 24.7992 22.6128 24.7992C22.6128 24.7992 22.7728 24.5859 22.9328 24.3192C23.1995 23.7859 23.2528 23.8392 22.2395 23.3059C20.9062 22.6125 19.6262 22.2925 19.4662 22.6659C19.4662 22.7192 19.4128 22.7725 19.4128 22.8259C19.3062 22.7725 18.9328 22.7192 18.6128 22.6659C17.5462 22.4525 14.6128 22.4525 13.5461 22.6659C13.2262 22.7192 12.9595 22.8259 12.7462 22.8792C12.6395 22.6659 12.6395 22.7725 12.6395 22.6659C12.4795 22.4525 11.8928 22.5059 11.0395 22.7725Z" fill="#3E4347"/>
<path d="M12.1603 22.6113C11.6803 22.6113 10.7737 22.9313 9.81367 23.4113C9.01367 23.7847 9.01367 23.838 9.227 24.2647C9.33367 24.478 9.44034 24.638 9.44034 24.638C9.49367 24.638 9.81367 24.478 10.2403 24.2647C10.667 24.0513 11.2003 23.838 11.467 23.7313C11.627 23.678 11.787 23.678 11.947 23.6247L11.8403 23.3047C11.947 22.9847 12.2137 22.718 12.4803 22.6647C12.3203 22.6647 12.267 22.6113 12.1603 22.6113Z" fill="#DFDFDF"/>
<path d="M15.8939 22.666C14.9339 22.666 14.0273 22.7193 13.6006 22.7727C12.8539 22.8793 12.4806 23.146 12.2139 23.2527C12.1073 23.306 12.0539 23.3593 11.9473 23.4127C12.0539 23.626 12.0539 23.7327 12.1073 23.8927C12.1606 24.0527 12.1606 24.1593 12.3739 24.2127C12.5873 24.2127 13.0139 23.9993 13.0139 23.9993C13.6006 23.786 13.9206 23.786 16.0539 23.786C18.1873 23.786 18.6139 23.8393 19.0939 23.9993C19.4673 24.106 19.5739 24.2127 19.7339 24.2127C19.7873 24.2127 19.8406 24.106 19.8939 23.946C19.9473 23.786 20.0539 23.5193 20.1073 23.2527C20.0006 23.2527 20.0539 23.306 19.8939 23.1993C19.5739 23.0393 19.5206 23.0393 19.3073 22.9327C19.0406 22.826 18.8273 22.826 18.4539 22.7727C18.0273 22.7193 17.0139 22.666 16.0539 22.666H15.8939Z" fill="#DFDFDF"/>
<path d="M19.8407 22.666H19.6807C19.7873 22.7193 19.894 22.826 19.9473 22.8793C20.1607 22.986 20.1607 23.146 20.1607 23.3593C20.1607 23.466 20.1607 23.5193 20.1073 23.626C20.214 23.6793 20.4273 23.7327 20.5873 23.8393C20.8007 23.8927 21.334 24.1593 21.814 24.3727C22.2407 24.586 22.5607 24.746 22.614 24.746C22.614 24.746 22.7207 24.5327 22.8273 24.3727C22.9873 24.106 22.9873 23.9993 22.8807 23.8927C22.614 23.6793 21.6007 23.1993 20.9073 22.986C20.374 22.7193 20.054 22.666 19.8407 22.666Z" fill="#DFDFDF"/>
<path d="M19.5201 22.7168C19.4668 22.7701 19.4668 22.8235 19.4668 22.8768C19.5201 22.8768 19.7868 23.0368 19.9468 23.0368H20.0001C20.0001 23.0368 19.9468 22.9835 19.8401 22.9301C19.7335 22.8768 19.6268 22.7701 19.5201 22.7168Z" fill="#DFDFDF"/>
<path d="M12.48 22.7168C12.4267 22.7701 12.2667 22.8768 12.2133 22.9301C12.0533 23.0368 12.0533 23.0901 12 23.2501C12 23.2501 12.1067 23.1435 12.3733 23.0368C12.5867 22.9301 12.48 22.9835 12.64 22.9301C12.5333 22.8235 12.48 22.8235 12.48 22.7168Z" fill="#DFDFDF"/>
<path d="M12.8534 12.1598C12.5868 12.2665 12.4801 12.4798 12.4268 12.7465C12.4268 13.0131 12.4801 13.2265 12.6401 13.3865L12.8001 13.5465C12.8001 13.5465 12.7468 13.6531 12.6934 13.7065C12.5334 13.8665 12.4268 14.0798 12.4268 14.2931C12.4268 14.5065 12.4801 14.6665 12.6934 14.8265L12.8534 14.9865L12.6934 15.1465C12.3734 15.5198 12.3734 15.8931 12.6934 16.2131L12.8534 16.3731H19.3601L19.5201 16.2131C19.8401 15.8931 19.8401 15.5198 19.5201 15.1465L19.3068 14.9331L19.4668 14.7731C19.7868 14.3998 19.7868 14.0265 19.4668 13.6531C19.3068 13.4931 19.3068 13.4398 19.4134 13.3865C19.6268 13.2798 19.7334 12.8531 19.6268 12.5865C19.5201 12.2131 18.9334 11.9465 18.6134 12.1065C18.5601 12.1598 18.4534 12.2131 18.3468 12.3198C18.2401 12.3731 18.1868 12.4798 18.1334 12.4798C18.1334 12.4798 18.0268 12.4265 17.9734 12.3198C17.6534 12.0531 17.2268 12.0531 16.9068 12.3731L16.8001 12.4798L16.6401 12.3198C16.3201 11.9998 15.8934 11.9998 15.5201 12.3731L15.4134 12.4798L15.2534 12.3731C15.0401 12.1598 14.9334 12.1065 14.6668 12.1065C14.4534 12.1065 14.2401 12.2131 14.0801 12.3731L13.9734 12.4798L13.8134 12.3198C13.4401 11.9998 13.1734 11.9998 12.8534 12.1598Z" fill="#2A5F9E"/>
<path d="M12.6404 16.5865C12.3204 16.9599 12.3204 17.3332 12.6404 17.7065L12.7471 17.8665L12.5871 18.0265C12.5338 18.1332 12.4271 18.2399 12.3738 18.2932C12.2671 18.5599 12.3204 18.9332 12.5871 19.0932C12.6938 19.1999 12.7471 19.2532 12.5871 19.4132C12.5338 19.4665 12.4804 19.5732 12.4271 19.6265C12.1604 20.1065 12.5338 20.7465 13.1204 20.7465C13.3338 20.7465 13.5471 20.6932 13.6538 20.5332C13.7604 20.4265 13.8671 20.3732 13.9738 20.5332C14.1338 20.6932 14.3471 20.7999 14.5071 20.7999C14.7204 20.7999 14.8271 20.7465 15.0404 20.5332L15.2004 20.3732L15.3604 20.5332C15.6804 20.8532 16.0004 20.9065 16.4271 20.5865L16.5871 20.4799L16.7471 20.6399C16.9604 20.7999 17.0671 20.8532 17.2804 20.8532C17.4938 20.8532 17.6004 20.7999 17.8138 20.5865L17.9738 20.4265L18.1338 20.5332C18.4004 20.7465 18.5604 20.8532 18.7204 20.8532C18.9338 20.8532 19.0404 20.7999 19.2538 20.5865C19.4671 20.4265 19.5204 20.2132 19.5204 20.0532C19.5204 19.8932 19.3604 19.5732 19.2004 19.4665L19.0938 19.3599L19.2538 19.1999C19.5738 18.8265 19.5738 18.5065 19.2538 18.0799L19.0938 17.9199L19.2538 17.7599C19.5738 17.3865 19.5738 17.0132 19.2538 16.6932L19.0938 16.5332H12.5871L12.6404 16.5865Z" fill="#ED4C5C"/>
<path d="M11.9473 16.1056V20.5856C11.9473 20.7456 12.0539 20.7989 12.2139 20.9589C12.4806 21.1723 12.7473 21.3856 14.1873 21.2256C15.5206 21.2256 15.7873 21.3323 15.9473 21.8656L16.0006 22.1856L16.0539 21.8656C16.1606 21.3323 16.4806 21.2256 17.7606 21.2256C19.4139 21.2256 19.5739 21.1723 19.7873 20.9589C19.7873 20.9589 19.9473 20.8523 20.0006 20.6923C20.0539 20.5323 20.0006 20.4256 20.0006 20.4256V11.5723H11.9473V16.1056ZM19.9473 16.1589V19.8923C19.9473 20.3723 20.0006 20.5323 19.9473 20.6389C19.8939 20.7456 19.7873 20.8523 19.7873 20.8523C19.5206 21.1189 19.3073 21.1723 18.1873 21.1189C17.4406 21.1189 17.0673 21.1189 16.4806 21.2256C16.3739 21.3323 16.1606 21.2789 16.0006 21.7589C15.8406 21.2789 15.7339 21.2789 15.7339 21.2789C15.0939 21.0123 14.8273 21.0656 13.8673 21.0656C13.2273 21.1723 12.5339 21.0123 12.2673 20.7989C12.2673 20.7989 12.2139 20.7989 12.0539 20.5856V11.6256H19.9473V16.1589Z" fill="#3E4347"/>
<path d="M15.4124 14.6129C15.8391 14.8796 16.5324 14.8263 16.9058 14.3996C17.0658 14.2396 17.1191 13.9729 17.1724 13.8663C17.2258 13.7596 17.2258 13.7063 17.2258 13.5996C17.2791 13.7063 17.3324 13.7596 17.3324 13.9729C17.3858 14.2396 17.3324 14.4529 17.2258 14.6663C16.9058 15.5196 15.8391 15.7863 15.1991 15.1463C14.8791 14.8796 14.6124 14.2929 14.7724 13.9196C14.8258 13.8129 14.8258 13.7063 14.8791 13.5996C14.8791 13.7063 14.8791 13.8129 14.9858 14.0263C15.0924 14.2929 15.2524 14.4529 15.4124 14.6129Z" fill="white"/>
<path d="M14.3996 17.9734C14.3996 18.1867 14.3996 18.2934 14.4529 18.4001C14.3462 18.2934 14.2396 18.2401 14.1329 18.1334C13.9729 18.0267 13.7062 17.9201 13.6529 18.0801C13.5996 18.1867 13.8129 18.3467 13.9729 18.4534C14.1329 18.5601 14.2396 18.5601 14.3996 18.6134C14.2929 18.6667 14.1862 18.7201 14.0262 18.7734C13.8662 18.8801 13.6529 19.0401 13.7596 19.2001C13.8662 19.3067 14.0796 19.2001 14.2396 19.0934C14.3462 19.0401 14.5062 18.8801 14.5595 18.8267C14.5595 18.9334 14.5062 19.0934 14.5062 19.2534C14.5062 19.4667 14.5596 19.6801 14.7196 19.6801C14.8796 19.6801 14.9329 19.4134 14.9329 19.2001C14.9329 18.9867 14.9329 18.8801 14.8796 18.7734C14.9329 18.8267 15.0396 18.9334 15.1996 19.0401C15.3062 19.1467 15.5729 19.2534 15.6795 19.1467C15.7862 19.0401 15.6262 18.8801 15.4129 18.7201C15.2529 18.6134 15.1462 18.5601 15.0396 18.5067C15.1462 18.4534 15.2529 18.4534 15.4662 18.3467C15.7329 18.1867 15.8396 18.0801 15.7862 17.9201C15.7329 17.8134 15.5729 17.8667 15.3062 18.0267C15.1996 18.1334 15.0396 18.2401 14.9862 18.2934C14.9862 18.1867 15.0396 17.9734 15.0396 17.8667C15.0396 17.6534 14.9862 17.3867 14.8796 17.3867C14.4529 17.4934 14.4529 17.7067 14.3996 17.9734Z" fill="#FFCE31"/>
<path d="M14.8271 18.6137C14.8271 18.7204 14.7204 18.8271 14.6137 18.8271C14.5071 18.8271 14.4004 18.7204 14.4004 18.6137C14.4004 18.5071 14.5071 18.4004 14.6137 18.4004C14.7204 18.4004 14.8271 18.5071 14.8271 18.6137Z" fill="white"/>
<path d="M17.2267 17.9734C17.2267 18.1867 17.2267 18.2934 17.28 18.4001C17.1734 18.2934 17.0667 18.2401 16.96 18.1334C16.8 18.0267 16.5334 17.9201 16.48 18.0801C16.4267 18.1867 16.64 18.3467 16.8 18.4534C16.96 18.5601 17.0667 18.5601 17.2267 18.6134C17.12 18.6667 17.0134 18.7201 16.8534 18.7734C16.6934 18.8801 16.48 19.0401 16.5867 19.2001C16.6934 19.3067 16.9067 19.2001 17.0667 19.0934C17.1734 19.0401 17.3334 18.8801 17.3867 18.8267C17.3867 18.9334 17.3334 19.0934 17.3334 19.2534C17.3334 19.4667 17.3867 19.6801 17.4934 19.6801C17.6534 19.6801 17.7067 19.4134 17.7067 19.2001C17.7067 18.9867 17.7067 18.8801 17.6534 18.7734C17.7067 18.8267 17.8134 18.9334 17.9734 19.0401C18.08 19.1467 18.3467 19.2534 18.4534 19.1467C18.56 19.0401 18.4 18.8801 18.1867 18.7201C18.0267 18.6134 17.92 18.5601 17.8134 18.5067C17.92 18.4534 18.0267 18.4534 18.24 18.3467C18.5067 18.1867 18.6134 18.0801 18.56 17.9201C18.5067 17.8134 18.3467 17.8667 18.08 18.0267C17.9734 18.1334 17.8134 18.2401 17.76 18.2934C17.76 18.1867 17.8134 17.9734 17.8134 17.8667C17.8134 17.6534 17.76 17.3867 17.6534 17.3867C17.2267 17.4934 17.2267 17.7067 17.2267 17.9734Z" fill="#FFCE31"/>
<path d="M17.5995 18.6137C17.5995 18.7204 17.4929 18.8271 17.3862 18.8271C17.2795 18.8271 17.1729 18.7204 17.1729 18.6137C17.1729 18.5071 17.2795 18.4004 17.3862 18.4004C17.4929 18.4004 17.5995 18.5071 17.5995 18.6137Z" fill="white"/>
<path d="M11.4133 17.44C11.1999 16.48 10.6666 15.7333 9.97327 15.3066H10.5599L11.3599 15.2533L10.6666 14.8266C10.4533 14.72 9.91994 14.24 9.91994 13.8666C9.91994 13.76 9.91994 13.6533 10.1333 13.4933L10.6133 13.12L10.0799 13.0666L10.2933 12.5333L9.7066 12.6933L9.65327 12.16L9.8666 12L9.3866 11.5733L8.95993 11.52L8.47993 11.7333L8.31994 11.3066L8.05327 11.7333L7.73327 11.3066L7.57327 11.9466L7.19993 11.7333L7.09327 12.2666L6.55994 11.84L6.61327 12.6933L5.81327 12.5333L6.0266 13.1733L5.33327 13.12L5.8666 14.1333L5.2266 14.5066L6.13327 15.4133V15.68L4.2666 15.2533L5.3866 16.3733L5.0666 17.4933L6.3466 17.6L5.8666 18.56L7.41327 18.1866L7.7866 19.2C7.73327 19.2 7.6266 19.1466 7.57327 19.1466C6.71994 19.1466 5.97327 20.48 5.97327 21.2266C5.97327 21.9733 7.25327 23.2533 8.53327 23.2533C9.0666 23.2533 9.5466 23.04 9.97327 22.6133C11.3066 21.3333 11.8399 19.3066 11.4133 17.44ZM8.53327 18.3466C8.85327 18.6666 9.49327 19.4133 9.5466 20.5333C9.5466 20.9066 9.33327 21.3866 8.95993 21.8133C8.69327 22.08 8.47994 22.1866 8.37327 22.1866C7.35994 21.9733 6.8266 21.5466 6.87993 20.9066C6.93327 20.4266 7.25327 20.1066 7.35994 20.1066C7.57327 20.1066 7.57327 20.16 7.57327 20.3733C7.57327 20.48 7.6266 20.64 7.7866 20.7466L7.89327 20.8H7.9466C8.15993 20.8 8.31993 20.64 8.4266 20.4266C8.53327 20.16 8.53327 19.7866 8.21327 19.4666C8.1066 19.36 7.99993 19.3066 7.89327 19.2533L8.53327 18.3466Z" fill="#3E4347"/>
<path d="M9.01285 11.8945L8.31952 12.1612L8.26619 12.0012L8.10619 12.2679L7.89285 12.0012L7.78619 12.4279L7.41285 12.2145L7.30619 12.8012L6.87952 12.4812L6.93285 13.1212L6.18619 13.0145L6.34618 13.6012L5.75952 13.5479L6.18619 14.3479L5.65285 14.6679L6.39952 15.4145L6.45285 16.1079L5.17285 15.7879L5.70618 16.3745L5.43952 17.3345L6.77285 17.4412L6.34618 18.2945L7.57285 17.9745L7.89285 18.8279L8.47952 18.0279C8.47952 18.0279 9.75952 18.8812 9.81285 20.5879C9.81285 21.5479 8.79952 22.6145 8.31952 22.5079C5.65285 21.9745 6.77285 19.8945 7.35952 19.8945C7.99952 19.8945 7.78618 20.4812 7.89285 20.5345C8.10618 20.6412 8.37285 20.1079 7.99952 19.6812C7.25285 18.9345 6.18619 20.4279 6.18619 21.3345C6.18619 22.0812 8.21285 24.0545 9.70619 22.5612C11.9995 20.2679 11.5729 16.1079 9.22618 15.4145C6.87952 14.7212 7.46619 13.7079 7.46619 13.7079C7.73285 15.4145 10.4529 15.2012 10.4529 15.2012C10.4529 15.2012 9.06619 14.1345 9.97285 13.3345H9.70619L9.86619 13.0145L9.49285 13.1212L9.43952 12.6412L9.17285 12.9079L8.74619 12.8012L8.63952 12.5345L9.43952 12.0012L9.27952 11.8945H9.01285Z" fill="#DFDFDF"/>
<path d="M22.0805 22.6666C22.5072 23.0933 22.9872 23.3066 23.5205 23.3066C24.8005 23.3066 26.0805 22.0266 26.0805 21.28C26.0805 20.48 25.3338 19.2 24.4805 19.2C24.4272 19.2 24.3205 19.2 24.2672 19.2533L24.6405 18.24L26.1872 18.6133L25.6538 17.6L26.9338 17.4933L26.6672 16.3733L27.7872 15.2533L25.9205 15.68V15.4133L26.8272 14.5066L26.1872 14.1333L26.7205 13.12L26.0272 13.1733L26.2405 12.5333L25.4405 12.6933L25.4938 11.84L24.9605 12.2666L24.8538 11.7333L24.4272 11.9466L24.2672 11.3066L23.9472 11.7333L23.6805 11.3066L23.5205 11.7333L23.0405 11.52L22.6138 11.5733L22.1338 12L22.3472 12.16L22.2938 12.6933L21.7072 12.5333L21.9205 13.0666L21.3872 13.12L21.8672 13.4933C22.0805 13.6533 22.0805 13.76 22.0805 13.8666C22.0805 14.24 21.4938 14.6666 21.3338 14.8266L20.6938 15.2533L21.4938 15.3066H22.0805C21.3872 15.7333 20.9072 16.48 20.6405 17.44C20.1605 19.3066 20.6938 21.3333 22.0805 22.6666ZM24.1072 19.2C24.0005 19.2533 23.8938 19.3066 23.7872 19.4133C23.4672 19.7333 23.4672 20.1066 23.5738 20.3733C23.6805 20.5866 23.8405 20.7466 24.0538 20.7466H24.1072L24.2138 20.6933C24.3738 20.64 24.4272 20.4266 24.4272 20.32C24.4272 20.1066 24.4805 20.0533 24.6405 20.0533C24.7472 20.0533 25.1205 20.3733 25.1205 20.8533C25.1738 21.4933 24.6405 21.92 23.6272 22.1333C23.5205 22.1333 23.2538 22.0266 23.0405 21.76C22.6672 21.3866 22.4538 20.8533 22.4538 20.48C22.5072 19.36 23.1472 18.6133 23.4672 18.2933L24.1072 19.2Z" fill="#3E4347"/>
<path d="M22.9864 11.8945H22.7198L22.6131 12.0012L23.4131 12.5345L23.2531 12.8012L22.8264 12.9079L22.5598 12.6412L22.5064 13.1212L22.1331 13.0145L22.2931 13.3345H22.0264C22.9331 14.0812 21.4398 15.0945 21.4398 15.0945C21.4398 15.0945 24.2131 15.3079 24.4264 13.6012C24.4264 13.6012 25.0131 14.6145 22.6664 15.3079C20.3198 16.0545 19.8931 20.1612 22.1864 22.4545C23.7331 24.0012 25.7064 21.9745 25.7064 21.2279C25.7064 20.3212 24.6398 18.8812 23.8931 19.5745C23.5198 19.9479 23.7864 20.4812 23.9998 20.4279C24.1064 20.3745 23.9464 19.7879 24.5331 19.7879C25.1731 19.7879 26.2931 21.8679 23.5731 22.4012C23.0931 22.5079 22.0264 21.4412 22.0798 20.4812C22.1331 18.8279 23.4131 17.9212 23.4131 17.9212L23.9998 18.7212L24.3198 17.8679L25.5464 18.1879L25.1198 17.3345L26.4531 17.2279L26.1864 16.2679L26.7198 15.6812L25.4398 16.0012L25.4931 15.3079L26.2398 14.5612L25.7064 14.2412L26.1331 13.4412L25.5464 13.4945L25.7064 12.9079L25.0664 13.0679L25.1198 12.4279L24.6931 12.7479L24.5864 12.1612L24.2131 12.3745L24.1064 11.9479L23.8931 12.2679L23.7331 12.0012L23.6798 12.1612L22.9864 11.8945Z" fill="#DFDFDF"/>
</svg>
