<svg width="32" height="32" viewBox="0 0 32 32" fill="none" xmlns="http://www.w3.org/2000/svg">
<g clip-path="url(#clip0_20142_72612)">
<path d="M16 32C24.8366 32 32 24.8366 32 16C32 7.16344 24.8366 0 16 0C7.16344 0 0 7.16344 0 16C0 24.8366 7.16344 32 16 32Z" fill="#496E2D"/>
<path d="M22.2609 16H16V32C17.8702 32 19.6651 31.6781 21.3333 31.0884L22.2609 16Z" fill="#D80027"/>
<path d="M26.6687 27.9246C29.9417 24.9949 32.0021 20.7383 32.0021 16H25.7412L26.6687 27.9246Z" fill="#FF9811"/>
<path d="M21.334 16V31.0884C23.3213 30.3858 25.1284 29.3021 26.6674 27.9246V16H21.334Z" fill="black"/>
<path d="M29.567 10.4343H25.3931C25.3931 9.66591 24.7701 9.04297 24.0018 9.04297C23.2334 9.04297 22.6105 9.66591 22.6105 10.4343H18.4365C18.4365 11.2027 19.1058 11.8256 19.8741 11.8256H19.8278C19.8278 12.594 20.4506 13.2169 21.2191 13.2169C21.2191 13.9853 21.842 14.6082 22.6105 14.6082H25.3931C26.1615 14.6082 26.7844 13.9853 26.7844 13.2169C27.5528 13.2169 28.1757 12.594 28.1757 11.8256H28.1294C28.8978 11.8255 29.567 11.2027 29.567 10.4343V10.4343Z" fill="#FF9811"/>
</g>
<defs>
<clipPath id="clip0_20142_72612">
<rect width="32" height="32" fill="white"/>
</clipPath>
</defs>
</svg>
