<svg width="32" height="32" viewBox="0 0 32 32" fill="none" xmlns="http://www.w3.org/2000/svg">
<path d="M16 32C24.8366 32 32 24.8366 32 16C32 7.16344 24.8366 0 16 0C7.16344 0 0 7.16344 0 16C0 24.8366 7.16344 32 16 32Z" fill="#F0F0F0"/>
<path d="M30.4664 9.16296C29.6535 7.44583 28.544 5.89689 27.204 4.58158L15.9978 3.47852L4.79155 4.58164C4.7558 4.6167 4.72092 4.65258 4.68555 4.68802L9.16055 9.16302L15.9978 9.37184L30.4664 9.16296Z" fill="#FFDA44"/>
<path d="M4.68652 27.3133C4.7454 27.3722 4.80415 27.4311 4.8639 27.4891L15.999 28.5226L27.1339 27.4891C28.4877 26.1766 29.6107 24.6275 30.435 22.9077L9.73802 22.2617C7.95721 24.0426 5.90321 26.0965 4.68652 27.3133V27.3133Z" fill="#FFDA44"/>
<path d="M31.8403 13.7435L13.2168 13.2168L15.9994 15.9994C15.1752 16.8236 13.9449 18.054 13.2168 18.782L31.8306 18.3249C31.9412 17.5656 31.9995 16.7894 31.9995 15.9994C31.9995 15.2335 31.9445 14.4807 31.8403 13.7435V13.7435Z" fill="black"/>
<path d="M16.0012 0C11.6369 0 7.68155 1.74813 4.79492 4.58138H27.2074C24.3208 1.74813 20.3654 0 16.0012 0Z" fill="#6DA544"/>
<path d="M13.7435 13.7435H31.8403C31.612 12.126 31.1422 10.5864 30.468 9.16211H9.16211L13.7435 13.7435Z" fill="#D80027"/>
<path d="M9.09277 22.9056H30.4358C31.1179 21.4823 31.5951 19.9425 31.8308 18.3242H13.6741C11.9 20.0984 10.3963 21.602 9.09277 22.9056Z" fill="#D80027"/>
<path d="M15.9992 32.0001C20.3276 32.0001 24.2539 30.2806 27.1341 27.4883H4.86426C7.74451 30.2806 11.6708 32.0001 15.9992 32.0001Z" fill="#6DA544"/>
<path d="M5.71273 3.74609C5.35705 4.04497 5.01386 4.35828 4.68555 4.68647L15.9993 16.0002L4.68555 27.314C5.0138 27.6422 5.35705 27.9555 5.71273 28.2543L17.9669 16.0002L5.71273 3.74609Z" fill="black"/>
<path d="M6.43257 11.8262L7.46851 15.0147H10.8213L8.10894 16.9854L9.14495 20.1741L6.43257 18.2034L3.72013 20.1741L4.75626 16.9854L2.04395 15.0147H5.39657L6.43257 11.8262Z" fill="#D80027"/>
<path d="M9.2831 16.2606L6.58323 15.3041C6.58323 15.3041 6.38373 13.4327 6.37167 13.3692C6.28004 12.8865 5.85586 12.5215 5.34648 12.5215C4.77023 12.5215 4.30298 12.9887 4.30298 13.565C4.30298 13.6605 4.31692 13.7526 4.34098 13.8406L3.58398 14.6027H4.92998C4.92998 15.9997 3.88748 15.9997 3.88748 17.391L4.4658 18.7823H7.94404L8.52379 17.391H8.52354C8.5816 17.2575 8.61685 17.1198 8.63142 16.9823C9.13116 16.7802 9.2831 16.2606 9.2831 16.2606V16.2606Z" fill="#FFDA44"/>
</svg>
