<svg width="313" height="120" viewBox="0 0 313 120" fill="none" xmlns="http://www.w3.org/2000/svg">
<rect width="311" height="120" rx="8" fill="url(#paint0_linear_14241_184599)"/>
<path d="M89.1306 120C79.3784 120 78.2079 106.435 87.8312 104.855C109.678 101.268 131.891 97.7935 149.606 95.4C194.332 89.3572 275.827 82.062 302.384 79.7442C307.051 79.3369 311 83.0221 311 87.7071V112C311 116.418 307.418 120 303 120H89.1306Z" fill="url(#paint1_linear_14241_184599)"/>
<path d="M0 120C0 120 95.6574 102.689 149.606 95.4C203.555 88.1111 311 79 311 79V101L290.146 120H0Z" fill="url(#paint2_linear_14241_184599)"/>
<path d="M226.012 29.36C226.065 29.371 226.119 29.3783 226.173 29.3747C226.569 29.3636 226.882 29.0224 226.871 28.6224C226.86 28.2224 226.526 27.8994 226.134 27.9104C226.08 27.9104 226.026 27.9214 225.972 27.9361L220.403 28.8058L226.012 29.36Z" fill="url(#paint3_linear_14241_184599)"/>
<path d="M209.401 29.36C209.347 29.371 209.293 29.3783 209.239 29.3747C208.844 29.3636 208.531 29.0224 208.542 28.6224C208.552 28.2224 208.887 27.8994 209.279 27.9104C209.333 27.9104 209.387 27.9214 209.44 27.9361L215.01 28.8058L209.401 29.36Z" fill="url(#paint4_linear_14241_184599)"/>
<path d="M218.517 20.2367C218.528 20.1817 218.535 20.1266 218.532 20.0716C218.521 19.6679 218.187 19.3486 217.795 19.3597C217.403 19.3707 217.086 19.7119 217.097 20.1119C217.097 20.167 217.108 20.222 217.122 20.2771L217.975 25.9615L218.517 20.2367Z" fill="url(#paint5_linear_14241_184599)"/>
<path d="M212.342 22.3234C212.313 22.2794 212.277 22.2354 212.238 22.195C211.95 21.9198 211.493 21.9308 211.22 22.2243C210.947 22.5179 210.961 22.984 211.249 23.2629C211.288 23.3032 211.335 23.3326 211.382 23.362L215.923 26.7638L212.342 22.3234Z" fill="url(#paint6_linear_14241_184599)"/>
<path d="M223.235 22.3234C223.263 22.2794 223.299 22.2354 223.339 22.195C223.627 21.9198 224.083 21.9308 224.356 22.2243C224.63 22.5179 224.615 22.984 224.328 23.2629C224.288 23.3032 224.241 23.3326 224.195 23.362L219.654 26.7638L223.235 22.3234Z" fill="url(#paint7_linear_14241_184599)"/>
<path d="M218.517 37.2638C218.528 37.3189 218.535 37.3739 218.532 37.429C218.521 37.8326 218.187 38.1519 217.795 38.1409C217.403 38.1299 217.087 37.7886 217.097 37.3886C217.097 37.3336 217.108 37.2785 217.122 37.2235L217.975 31.5391L218.517 37.2638Z" fill="url(#paint8_linear_14241_184599)"/>
<path d="M212.342 35.1708C212.313 35.2149 212.277 35.2589 212.238 35.2993C211.95 35.5745 211.493 35.5635 211.22 35.2699C210.947 34.9763 210.961 34.5103 211.249 34.2314C211.288 34.191 211.335 34.1617 211.382 34.1323L215.923 30.7305L212.342 35.1708Z" fill="url(#paint9_linear_14241_184599)"/>
<path d="M223.235 35.1708C223.263 35.2149 223.299 35.2589 223.339 35.2993C223.627 35.5745 224.083 35.5635 224.356 35.2699C224.63 34.9763 224.615 34.5103 224.328 34.2314C224.288 34.191 224.241 34.1617 224.195 34.1323L219.654 30.7305L223.235 35.1708Z" fill="url(#paint10_linear_14241_184599)"/>
<path d="M221.704 30.8121C221.726 30.8268 221.747 30.8415 221.772 30.8525C221.945 30.9259 222.143 30.8415 222.215 30.6653C222.287 30.4892 222.204 30.2873 222.031 30.2139C222.006 30.2029 221.981 30.1956 221.956 30.1919L219.396 29.4727L221.701 30.8121H221.704Z" fill="url(#paint11_linear_14241_184599)"/>
<path d="M213.843 27.5502C213.818 27.5429 213.793 27.5355 213.771 27.5245C213.602 27.4438 213.534 27.2346 213.613 27.0621C213.692 26.8897 213.897 26.8199 214.066 26.9007C214.091 26.9117 214.109 26.9264 214.131 26.9447L216.36 28.4126L213.843 27.5502Z" fill="url(#paint12_linear_14241_184599)"/>
<path d="M219.847 25.0513C219.861 25.0292 219.876 25.0072 219.886 24.9815C219.958 24.8054 219.876 24.6036 219.703 24.5302C219.53 24.4568 219.333 24.5412 219.261 24.7173C219.25 24.743 219.243 24.7687 219.239 24.7944L218.535 27.4072L219.847 25.0549V25.0513Z" fill="url(#paint13_linear_14241_184599)"/>
<path d="M216.796 24.736C216.792 24.7103 216.785 24.6847 216.774 24.659C216.702 24.4828 216.504 24.3984 216.332 24.4718C216.159 24.5452 216.076 24.747 216.148 24.9232C216.159 24.9489 216.17 24.9709 216.188 24.9929L217.5 27.3489L216.799 24.736H216.796Z" fill="url(#paint14_linear_14241_184599)"/>
<path d="M221.477 26.8764C221.499 26.8617 221.521 26.8507 221.546 26.8433C221.722 26.7809 221.916 26.8764 221.977 27.0562C222.038 27.236 221.945 27.4342 221.769 27.4965C221.744 27.5039 221.718 27.5112 221.693 27.5112L219.101 28.0837L221.477 26.88V26.8764Z" fill="url(#paint15_linear_14241_184599)"/>
<path d="M216.275 33.104C216.268 33.1297 216.261 33.1553 216.25 33.1774C216.171 33.3498 215.966 33.4196 215.797 33.3388C215.628 33.2581 215.56 33.0489 215.639 32.8764C215.649 32.8508 215.664 32.8324 215.682 32.8104L217.12 30.5352L216.275 33.104Z" fill="url(#paint16_linear_14241_184599)"/>
<path d="M213.654 30.6253C213.632 30.64 213.61 30.651 213.585 30.6583C213.409 30.7207 213.215 30.6253 213.154 30.4455C213.093 30.2657 213.186 30.0675 213.362 30.0051C213.388 29.9978 213.413 29.9904 213.438 29.9904L216.03 29.418L213.654 30.6216V30.6253Z" fill="url(#paint17_linear_14241_184599)"/>
<path d="M219.415 33.1321C219.419 33.1578 219.426 33.1835 219.437 33.2092C219.508 33.3853 219.706 33.4697 219.879 33.3964C220.051 33.323 220.134 33.1211 220.062 32.945C220.051 32.9193 220.041 32.8973 220.023 32.8752L218.71 30.5193L219.411 33.1321H219.415Z" fill="url(#paint18_linear_14241_184599)"/>
<path d="M120.633 72.1604C120.677 72.1678 120.716 72.1751 120.763 72.1715C121.076 72.1641 121.327 71.8926 121.317 71.5733C121.306 71.254 121.043 70.9971 120.731 71.0082C120.687 71.0082 120.644 71.0155 120.601 71.0265L116.182 71.7164L120.633 72.1568V72.1604Z" fill="url(#paint19_linear_14241_184599)"/>
<path d="M107.45 72.1604C107.407 72.1678 107.367 72.1751 107.32 72.1715C107.008 72.1641 106.756 71.8926 106.767 71.5733C106.777 71.254 107.04 70.9971 107.353 71.0082C107.396 71.0082 107.439 71.0155 107.482 71.0265L111.901 71.7164L107.45 72.1568V72.1604Z" fill="url(#paint20_linear_14241_184599)"/>
<path d="M114.689 64.9163C114.696 64.8723 114.703 64.8319 114.699 64.7842C114.692 64.465 114.426 64.2081 114.113 64.2191C113.801 64.2301 113.549 64.498 113.56 64.8173C113.56 64.8613 113.567 64.9053 113.578 64.9494L114.254 69.4595L114.685 64.9163H114.689Z" fill="url(#paint21_linear_14241_184599)"/>
<path d="M109.784 66.5737C109.759 66.537 109.734 66.504 109.701 66.471C109.475 66.2508 109.108 66.2618 108.896 66.493C108.684 66.7242 108.691 67.0985 108.917 67.315C108.95 67.3444 108.986 67.3701 109.022 67.3921L112.624 70.093L109.784 66.5701V66.5737Z" fill="url(#paint22_linear_14241_184599)"/>
<path d="M118.431 66.5737C118.456 66.537 118.481 66.504 118.514 66.471C118.74 66.2508 119.107 66.2618 119.319 66.493C119.531 66.7242 119.524 67.0985 119.297 67.315C119.265 67.3444 119.229 67.3701 119.193 67.3921L115.591 70.093L118.431 66.5701V66.5737Z" fill="url(#paint23_linear_14241_184599)"/>
<path d="M114.689 78.4259C114.696 78.47 114.703 78.5103 114.699 78.558C114.692 78.8773 114.426 79.1342 114.113 79.1232C113.801 79.1122 113.549 78.8443 113.56 78.525C113.56 78.481 113.567 78.4369 113.578 78.3929L114.254 73.8828L114.685 78.4259H114.689Z" fill="url(#paint24_linear_14241_184599)"/>
<path d="M109.784 76.7693C109.759 76.806 109.734 76.839 109.701 76.872C109.475 77.0922 109.108 77.0812 108.896 76.85C108.684 76.6188 108.691 76.2445 108.917 76.028C108.95 75.9986 108.986 75.9729 109.022 75.9509L112.624 73.25L109.784 76.7729V76.7693Z" fill="url(#paint25_linear_14241_184599)"/>
<path d="M118.431 76.7693C118.456 76.806 118.481 76.839 118.514 76.872C118.74 77.0922 119.107 77.0812 119.319 76.85C119.531 76.6188 119.524 76.2445 119.297 76.028C119.265 75.9986 119.229 75.9729 119.193 75.9509L115.591 73.25L118.431 76.7729V76.7693Z" fill="url(#paint26_linear_14241_184599)"/>
<path d="M117.213 73.3103C117.213 73.3103 117.245 73.3323 117.267 73.3397C117.403 73.3984 117.562 73.3287 117.619 73.1929C117.677 73.0571 117.608 72.892 117.475 72.8333C117.457 72.8259 117.436 72.8186 117.418 72.8186L115.386 72.2461L117.217 73.3103H117.213Z" fill="url(#paint27_linear_14241_184599)"/>
<path d="M110.978 70.7206C110.96 70.717 110.939 70.7096 110.921 70.7023C110.788 70.6362 110.73 70.4711 110.795 70.3353C110.86 70.1995 111.021 70.1408 111.154 70.2069C111.172 70.2179 111.19 70.2289 111.205 70.2399L112.974 71.4069L110.978 70.7206Z" fill="url(#paint28_linear_14241_184599)"/>
<path d="M115.736 68.7364C115.736 68.7364 115.757 68.7034 115.765 68.6814C115.822 68.5419 115.754 68.3804 115.621 68.3217C115.488 68.263 115.326 68.3327 115.268 68.4685C115.261 68.4869 115.254 68.5089 115.254 68.5272L114.693 70.6006L115.736 68.7327V68.7364Z" fill="url(#paint29_linear_14241_184599)"/>
<path d="M113.318 68.4864C113.318 68.4643 113.311 68.446 113.304 68.4276C113.246 68.2882 113.088 68.2221 112.951 68.2772C112.815 68.3322 112.75 68.4974 112.804 68.6368C112.811 68.6552 112.822 68.6735 112.833 68.6919L113.872 70.5597L113.314 68.4864H113.318Z" fill="url(#paint30_linear_14241_184599)"/>
<path d="M117.035 70.1862C117.035 70.1862 117.071 70.1642 117.089 70.1568C117.23 70.1054 117.384 70.1825 117.431 70.3256C117.478 70.4688 117.406 70.6265 117.266 70.6743C117.248 70.6816 117.226 70.6853 117.204 70.6889L115.144 71.1403L117.032 70.1825L117.035 70.1862Z" fill="url(#paint31_linear_14241_184599)"/>
<path d="M112.903 75.1304C112.899 75.1488 112.892 75.1708 112.885 75.1892C112.82 75.3249 112.658 75.3837 112.525 75.3176C112.392 75.2516 112.335 75.0864 112.399 74.9506C112.41 74.9323 112.421 74.9139 112.432 74.8993L113.575 73.0938L112.903 75.1304Z" fill="url(#paint32_linear_14241_184599)"/>
<path d="M110.826 73.1612C110.826 73.1612 110.791 73.1832 110.773 73.1905C110.632 73.2419 110.478 73.1648 110.431 73.0217C110.384 72.8786 110.456 72.7208 110.596 72.6731C110.614 72.6657 110.636 72.6621 110.657 72.6584L112.718 72.207L110.83 73.1648L110.826 73.1612Z" fill="url(#paint33_linear_14241_184599)"/>
<path d="M115.398 75.1515C115.398 75.1735 115.405 75.1919 115.413 75.2102C115.47 75.3497 115.628 75.4157 115.765 75.3607C115.902 75.3056 115.966 75.1405 115.912 75.0011C115.905 74.9827 115.894 74.9644 115.884 74.946L114.844 73.0781L115.402 75.1515H115.398Z" fill="url(#paint34_linear_14241_184599)"/>
<g opacity="0.6">
<path d="M30.4776 21.8534C30.5567 21.8681 30.6358 21.8791 30.7185 21.8755C31.3046 21.8571 31.772 21.3544 31.7576 20.7562C31.7432 20.158 31.247 19.681 30.661 19.6956C30.5783 19.6956 30.4992 19.714 30.4201 19.7323L22.1507 21.0278L30.4776 21.8498V21.8534Z" fill="url(#paint35_linear_14241_184599)"/>
<path d="M5.81379 21.8534C5.73469 21.8681 5.65559 21.8791 5.5729 21.8755C4.98685 21.8571 4.51945 21.3544 4.53383 20.7562C4.54821 20.158 5.04438 19.681 5.63043 19.6956C5.71312 19.6956 5.79222 19.714 5.87132 19.7323L14.1407 21.0278L5.81379 21.8498V21.8534Z" fill="url(#paint36_linear_14241_184599)"/>
<path d="M19.3541 8.30675C19.3685 8.22602 19.3793 8.14528 19.3757 8.06088C19.3577 7.46271 18.8651 6.98565 18.2791 7.00033C17.693 7.01501 17.2256 7.52143 17.24 8.1196C17.24 8.204 17.258 8.28473 17.276 8.36547L18.5451 16.8058L19.3505 8.30675H19.3541Z" fill="url(#paint37_linear_14241_184599)"/>
<path d="M10.1789 11.4012C10.1358 11.3351 10.0854 11.2691 10.0243 11.2104C9.60004 10.7994 8.91692 10.8177 8.51424 11.2544C8.11155 11.6911 8.12953 12.3847 8.55738 12.7957C8.6185 12.8544 8.68322 12.9021 8.75153 12.9425L15.4965 17.9957L10.1789 11.4049V11.4012Z" fill="url(#paint38_linear_14241_184599)"/>
<path d="M26.3589 11.4012C26.402 11.3351 26.4524 11.2691 26.5135 11.2104C26.9378 10.7994 27.6209 10.8177 28.0236 11.2544C28.4262 11.6911 28.4083 12.3847 27.9804 12.7957C27.9193 12.8544 27.8546 12.9021 27.7863 12.9425L21.0413 17.9957L26.3589 11.4049V11.4012Z" fill="url(#paint39_linear_14241_184599)"/>
<path d="M19.354 33.585C19.3684 33.6658 19.3791 33.7465 19.3755 33.8309C19.3576 34.4291 18.865 34.9061 18.279 34.8914C17.6929 34.8768 17.2255 34.3703 17.2399 33.7722C17.2399 33.6878 17.2579 33.607 17.2758 33.5263L18.545 25.0859L19.3504 33.585H19.354Z" fill="url(#paint40_linear_14241_184599)"/>
<path d="M10.1789 30.4851C10.1358 30.5512 10.0854 30.6172 10.0243 30.6759C9.60004 31.087 8.91692 31.0686 8.51424 30.6319C8.11155 30.1952 8.12953 29.5016 8.55738 29.0906C8.6185 29.0319 8.68322 28.9842 8.75153 28.9438L15.4965 23.8906L10.1789 30.4815V30.4851Z" fill="url(#paint41_linear_14241_184599)"/>
<path d="M26.3589 30.4851C26.402 30.5512 26.4524 30.6172 26.5135 30.6759C26.9378 31.087 27.6209 31.0686 28.0236 30.6319C28.4262 30.1952 28.4083 29.5016 27.9804 29.0906C27.9193 29.0319 27.8546 28.9842 27.7863 28.9438L21.0413 23.8906L26.3589 30.4815V30.4851Z" fill="url(#paint42_linear_14241_184599)"/>
<path d="M24.081 24.0085C24.1098 24.0305 24.1457 24.0526 24.1817 24.0672C24.437 24.1737 24.7318 24.0489 24.8396 23.7883C24.9475 23.5278 24.8217 23.2269 24.5664 23.1168C24.5304 23.1021 24.4945 23.0911 24.4549 23.0874L20.6546 22.0195L24.0774 24.0085H24.081Z" fill="url(#paint43_linear_14241_184599)"/>
<path d="M12.411 19.1654C12.375 19.1581 12.3391 19.147 12.3031 19.1287C12.055 19.0076 11.9472 18.6957 12.0694 18.4425C12.1916 18.1892 12.4937 18.0792 12.7417 18.2039C12.7777 18.2223 12.81 18.2443 12.8388 18.2663L16.1502 20.4461L12.4146 19.1654H12.411Z" fill="url(#paint44_linear_14241_184599)"/>
<path d="M21.3211 15.4545C21.3426 15.4251 21.3642 15.3884 21.3786 15.3517C21.4829 15.0912 21.3606 14.7902 21.1054 14.6802C20.8501 14.5701 20.5553 14.6985 20.4474 14.9591C20.433 14.9958 20.4222 15.0324 20.4186 15.0728L19.3724 18.9517L21.3211 15.4581V15.4545Z" fill="url(#paint45_linear_14241_184599)"/>
<path d="M16.7944 14.9853C16.7872 14.9486 16.78 14.9083 16.7656 14.8716C16.6613 14.611 16.3629 14.4863 16.1077 14.5927C15.8524 14.6991 15.7301 15.0037 15.8344 15.2642C15.8488 15.3009 15.8704 15.334 15.8919 15.367L17.837 18.8642L16.7944 14.9853Z" fill="url(#paint46_linear_14241_184599)"/>
<path d="M23.7487 18.1616C23.7811 18.1396 23.8135 18.1212 23.8494 18.1102C24.1083 18.0185 24.3995 18.1579 24.4894 18.4258C24.5793 18.6937 24.4427 18.9873 24.1802 19.079C24.1442 19.0937 24.1047 19.101 24.0687 19.1047L20.2181 19.9524L23.7487 18.1616Z" fill="url(#paint47_linear_14241_184599)"/>
<path d="M16.0221 27.4103C16.0149 27.447 16.0042 27.4837 15.9862 27.5204C15.8675 27.7736 15.5619 27.8837 15.3138 27.7589C15.0658 27.6341 14.9579 27.3259 15.0801 27.0726C15.0981 27.036 15.1197 27.0029 15.1413 26.9736L17.2769 23.5938L16.0221 27.4066V27.4103Z" fill="url(#paint48_linear_14241_184599)"/>
<path d="M12.1279 23.7283C12.0956 23.7503 12.0632 23.7687 12.0273 23.7797C11.7684 23.8714 11.4772 23.732 11.3873 23.4641C11.2974 23.1962 11.434 22.9026 11.6965 22.8109C11.7324 22.7962 11.772 22.7889 11.8079 22.7852L15.6586 21.9375L12.1279 23.7283Z" fill="url(#paint49_linear_14241_184599)"/>
<path d="M20.6836 27.4531C20.6908 27.4898 20.698 27.5302 20.7124 27.5669C20.8166 27.8274 21.115 27.9522 21.3703 27.8458C21.6256 27.7394 21.7478 27.4348 21.6436 27.1742C21.6292 27.1375 21.6076 27.1045 21.586 27.0715L19.6409 23.5742L20.6836 27.4531Z" fill="url(#paint50_linear_14241_184599)"/>
</g>
<path d="M302.176 39.5475C302.23 39.5585 302.284 39.5658 302.338 39.5622C302.733 39.5511 303.046 39.2099 303.035 38.8099C303.024 38.4099 302.69 38.0869 302.298 38.0979C302.244 38.0979 302.19 38.1089 302.136 38.1236L296.567 38.9933L302.176 39.5475Z" fill="url(#paint51_linear_14241_184599)"/>
<path d="M285.565 39.5475C285.511 39.5585 285.457 39.5658 285.403 39.5622C285.008 39.5511 284.695 39.2099 284.706 38.8099C284.717 38.4099 285.051 38.0869 285.443 38.0979C285.497 38.0979 285.551 38.1089 285.605 38.1236L291.174 38.9933L285.565 39.5475Z" fill="url(#paint52_linear_14241_184599)"/>
<path d="M294.682 30.4242C294.692 30.3692 294.7 30.3141 294.696 30.2591C294.685 29.8554 294.351 29.5361 293.959 29.5472C293.567 29.5582 293.251 29.8994 293.261 30.2994C293.261 30.3545 293.272 30.4095 293.287 30.4646L294.139 36.149L294.682 30.4242Z" fill="url(#paint53_linear_14241_184599)"/>
<path d="M294.467 52.5015C294.478 52.4024 294.488 52.2997 294.488 52.1933C294.488 51.4446 294.165 50.8281 293.769 50.8281C293.374 50.8281 293.05 51.4446 293.05 52.1933C293.05 52.2997 293.057 52.4024 293.072 52.5015L293.769 63.1217L294.467 52.5015Z" fill="url(#paint54_linear_14241_184599)"/>
<path d="M288.506 32.5109C288.477 32.4669 288.441 32.4229 288.402 32.3825C288.114 32.1073 287.657 32.1183 287.384 32.4118C287.111 32.7054 287.125 33.1715 287.413 33.4504C287.453 33.4907 287.499 33.5201 287.546 33.5495L292.087 36.9513L288.506 32.5109Z" fill="url(#paint55_linear_14241_184599)"/>
<path d="M299.399 32.5109C299.428 32.4669 299.464 32.4229 299.503 32.3825C299.791 32.1073 300.247 32.1183 300.521 32.4118C300.794 32.7054 300.78 33.1715 300.492 33.4504C300.452 33.4907 300.406 33.5201 300.359 33.5495L295.818 36.9513L299.399 32.5109Z" fill="url(#paint56_linear_14241_184599)"/>
<path d="M294.682 47.4513C294.692 47.5064 294.7 47.5614 294.696 47.6165C294.685 48.0201 294.351 48.3394 293.959 48.3284C293.567 48.3174 293.251 47.9761 293.261 47.5761C293.261 47.5211 293.272 47.466 293.287 47.411L294.139 41.7266L294.682 47.4513Z" fill="url(#paint57_linear_14241_184599)"/>
<path d="M288.506 45.3583C288.477 45.4024 288.441 45.4464 288.402 45.4868C288.114 45.762 287.657 45.751 287.384 45.4574C287.111 45.1638 287.125 44.6978 287.413 44.4189C287.453 44.3785 287.499 44.3492 287.546 44.3198L292.087 40.918L288.506 45.3583Z" fill="url(#paint58_linear_14241_184599)"/>
<path d="M299.399 45.3583C299.428 45.4024 299.464 45.4464 299.503 45.4868C299.791 45.762 300.247 45.751 300.521 45.4574C300.794 45.1638 300.78 44.6978 300.492 44.4189C300.452 44.3785 300.406 44.3492 300.359 44.3198L295.818 40.918L299.399 45.3583Z" fill="url(#paint59_linear_14241_184599)"/>
<path d="M297.868 40.9996C297.89 41.0143 297.911 41.029 297.937 41.04C298.109 41.1134 298.307 41.029 298.379 40.8528C298.451 40.6767 298.368 40.4748 298.195 40.4014C298.17 40.3904 298.145 40.3831 298.12 40.3794L295.56 39.6602L297.865 40.9996H297.868Z" fill="url(#paint60_linear_14241_184599)"/>
<path d="M290.008 37.7377C289.982 37.7304 289.957 37.723 289.936 37.712C289.767 37.6313 289.698 37.4221 289.777 37.2496C289.857 37.0772 290.061 37.0074 290.23 37.0882C290.256 37.0992 290.274 37.1139 290.295 37.1322L292.524 38.6001L290.008 37.7377Z" fill="url(#paint61_linear_14241_184599)"/>
<path d="M296.011 35.2388C296.025 35.2167 296.04 35.1947 296.051 35.169C296.122 34.9929 296.04 34.7911 295.867 34.7177C295.695 34.6443 295.497 34.7287 295.425 34.9048C295.414 34.9305 295.407 34.9562 295.403 34.9819L294.699 37.5947L296.011 35.2424V35.2388Z" fill="url(#paint62_linear_14241_184599)"/>
<path d="M292.96 34.9235C292.956 34.8978 292.949 34.8722 292.938 34.8465C292.866 34.6703 292.669 34.5859 292.496 34.6593C292.323 34.7327 292.241 34.9345 292.313 35.1107C292.323 35.1364 292.334 35.1584 292.352 35.1804L293.664 37.5364L292.963 34.9235H292.96Z" fill="url(#paint63_linear_14241_184599)"/>
<path d="M297.642 37.0639C297.663 37.0492 297.685 37.0382 297.71 37.0308C297.886 36.9684 298.08 37.0639 298.141 37.2437C298.203 37.4235 298.109 37.6217 297.933 37.684C297.908 37.6914 297.883 37.6987 297.857 37.6987L295.265 38.2712L297.642 37.0675V37.0639Z" fill="url(#paint64_linear_14241_184599)"/>
<path d="M292.439 43.2915C292.432 43.3172 292.425 43.3428 292.414 43.3649C292.335 43.5373 292.13 43.6071 291.961 43.5263C291.792 43.4456 291.724 43.2364 291.803 43.0639C291.814 43.0383 291.828 43.0199 291.846 42.9979L293.284 40.7227L292.439 43.2915Z" fill="url(#paint65_linear_14241_184599)"/>
<path d="M289.818 40.8128C289.796 40.8275 289.775 40.8385 289.749 40.8458C289.573 40.9082 289.379 40.8128 289.318 40.633C289.257 40.4532 289.35 40.255 289.527 40.1926C289.552 40.1853 289.577 40.1779 289.602 40.1779L292.194 39.6055L289.818 40.8091V40.8128Z" fill="url(#paint66_linear_14241_184599)"/>
<path d="M295.579 43.3196C295.583 43.3453 295.59 43.371 295.601 43.3967C295.673 43.5728 295.87 43.6572 296.043 43.5839C296.216 43.5105 296.298 43.3086 296.226 43.1325C296.216 43.1068 296.205 43.0848 296.187 43.0627L294.875 40.7068L295.576 43.3196H295.579Z" fill="url(#paint67_linear_14241_184599)"/>
<path d="M294.239 40.0263C294.736 40.0263 295.138 39.6155 295.138 39.1088C295.138 38.6022 294.736 38.1914 294.239 38.1914C293.743 38.1914 293.34 38.6022 293.34 39.1088C293.34 39.6155 293.743 40.0263 294.239 40.0263Z" fill="url(#paint68_linear_14241_184599)"/>
<path d="M196.194 64.3477L174.575 68.7658C173.376 69.0108 172.602 70.1833 172.847 71.3845L175.153 82.7102C175.398 83.9114 176.568 84.6865 177.767 84.4415L199.386 80.0234C200.585 79.7783 201.358 78.6059 201.114 77.4047L198.808 66.079C198.563 64.8778 197.393 64.1026 196.194 64.3477Z" fill="url(#paint69_linear_14241_184599)"/>
<path d="M207.332 67.2311L185.307 63.1097C184.104 62.8846 182.947 63.6791 182.722 64.8842L180.603 76.2466C180.379 77.4518 181.172 78.6112 182.375 78.8363L204.4 82.9576C205.603 83.1827 206.76 82.3883 206.985 81.1831L209.104 69.8207C209.328 68.6156 208.535 67.4562 207.332 67.2311Z" fill="url(#paint70_linear_14241_184599)"/>
<path d="M210.562 75.2217H167.808C166.7 75.2217 165.801 76.1221 165.801 77.2329V100.351C165.801 101.462 166.7 102.362 167.808 102.362H210.562C211.671 102.362 212.57 101.462 212.57 100.351V77.2329C212.57 76.1221 211.671 75.2217 210.562 75.2217Z" fill="url(#paint71_linear_14241_184599)"/>
<path d="M192.04 75.2217H186.051V102.362H192.04V75.2217Z" fill="#FFD7A8"/>
<path d="M182.099 64.7222L168.621 65.8592C166.463 66.0249 164.569 64.3108 164.398 62.031C164.244 59.9997 165.678 58.2342 167.6 58.0885L178.637 57.5085L182.099 64.7222Z" fill="url(#paint72_linear_14241_184599)"/>
<path d="M184.52 63.1393L192.79 52.4174C194.102 50.689 193.691 48.1692 191.874 46.7837C190.257 45.5523 187.999 45.798 186.83 47.3379L180.35 56.3085L184.517 63.1393H184.52Z" fill="url(#paint73_linear_14241_184599)"/>
<path d="M201.015 48.4512L163.216 72.4363C162.815 72.6905 162.696 73.2217 162.95 73.6229L164.778 76.5143C165.031 76.9155 165.562 77.0347 165.962 76.7806L203.762 52.7955C204.162 52.5414 204.281 52.0101 204.028 51.6089L202.199 48.7176C201.946 48.3164 201.416 48.1971 201.015 48.4512Z" fill="url(#paint74_linear_14241_184599)"/>
<path d="M177.275 56.4529L180.578 54.357C181.105 54.0222 181.806 54.1797 182.14 54.7083L184.751 58.8378L179.533 62.1489L176.922 58.0194C176.588 57.4909 176.745 56.7892 177.272 56.4544L177.275 56.4529Z" fill="#FFCF95"/>
<path d="M154.784 77.9263C155.226 77.9263 155.584 77.5672 155.584 77.1242C155.584 76.6811 155.226 76.322 154.784 76.322C154.341 76.322 153.983 76.6811 153.983 77.1242C153.983 77.5672 154.341 77.9263 154.784 77.9263Z" fill="#495765"/>
<path d="M157.957 76.8586H154.811C154.646 76.8586 154.512 76.9926 154.512 77.1579V77.6308C154.512 77.7962 154.646 77.9302 154.811 77.9302H157.957C158.122 77.9302 158.255 77.7962 158.255 77.6308V77.1579C158.255 76.9926 158.122 76.8586 157.957 76.8586Z" fill="#495765"/>
<path d="M155.28 77.9319H157.455C157.604 77.9319 157.727 78.0546 157.727 78.2043V80.9339C157.727 81.347 157.392 81.6822 156.98 81.6822H155.8C155.387 81.6822 155.053 81.347 155.053 80.9339V78.1624C155.053 78.0366 155.154 77.9319 155.283 77.9319H155.28Z" fill="#FFBEA1"/>
<path d="M157.721 80.073C158.016 80.073 158.256 79.8331 158.256 79.5372C158.256 79.2413 158.016 79.0015 157.721 79.0015C157.425 79.0015 157.186 79.2413 157.186 79.5372C157.186 79.8331 157.425 80.073 157.721 80.073Z" fill="#FFBEA1"/>
<path d="M161.967 87.038H161.958C161.85 84.2904 159.597 82.0935 156.828 82.0935C154.205 82.0935 152.047 84.0599 151.731 86.601L151.725 86.6519C151.719 86.6998 151.716 86.7507 151.71 86.7986L150.864 95.6909L156.212 97.5795L162.382 94.4548L161.97 87.038H161.967Z" fill="#FFF4E4"/>
<path d="M161.849 86.2115C161.802 85.9781 161.742 85.7476 161.664 85.5261H151.984C151.906 85.7476 151.841 85.9781 151.793 86.2115H161.849Z" fill="#FFE9BE"/>
<path d="M162.06 88.821H151.51L151.445 89.5094H162.099L162.06 88.821Z" fill="#FFE9BE"/>
<path d="M161.499 85.1144C161.391 84.8749 161.26 84.6474 161.116 84.429H152.521C152.38 84.6474 152.258 84.8779 152.147 85.1144H161.499Z" fill="#FFE9BE"/>
<path d="M161.979 87.3117L161.965 87.0363H161.956C161.95 86.8957 161.935 86.761 161.92 86.6233H151.723V86.6502C151.714 86.6981 151.711 86.749 151.705 86.7969L151.657 87.3087H161.982L161.979 87.3117Z" fill="#FFE9BE"/>
<path d="M160.819 84.0172C160.619 83.7688 160.395 83.5383 160.153 83.3318H153.49C153.248 83.5413 153.024 83.7688 152.824 84.0172H160.819Z" fill="#FFE9BE"/>
<path d="M162.039 88.409L162 87.7236H151.612L151.55 88.409H162.039Z" fill="#FFE9BE"/>
<path d="M151.132 92.8046H162.282L162.246 92.1162H151.197L151.132 92.8046Z" fill="#FFE9BE"/>
<path d="M153.19 96.5115L156.205 97.577L158.305 96.5115H153.19Z" fill="#FFE9BE"/>
<path d="M150.99 94.3174L150.924 95.0028H161.292L162.376 94.4551L162.367 94.3174H150.99Z" fill="#FFE9BE"/>
<path d="M159.127 96.1002L160.484 95.4148H150.89L150.863 95.6902L152.032 96.1002H159.127Z" fill="#FFE9BE"/>
<path d="M162.222 91.7072L162.183 91.0188H151.302L151.237 91.7072H162.222Z" fill="#FFE9BE"/>
<path d="M162.126 89.9185H151.409L151.343 90.6069H162.165L162.126 89.9185Z" fill="#FFE9BE"/>
<path d="M162.308 93.2166H151.095L151.029 93.902H162.347L162.308 93.2166Z" fill="#FFE9BE"/>
<path d="M159.607 82.9166C158.806 82.3958 157.85 82.0935 156.822 82.0935C155.794 82.0935 154.841 82.3988 154.041 82.9166H159.607Z" fill="#FFE9BE"/>
<path d="M162.786 94.4656C161.42 92.0053 160.055 89.542 158.693 87.0817C158.086 85.9863 158.48 84.6065 159.571 83.9989C160.664 83.3913 162.042 83.7864 162.648 84.8789L164.841 89.0931C165.938 87.8569 167.034 86.6208 168.131 85.3847C169.09 86.2078 170.049 87.0339 171.011 87.8569C169.093 90.1915 167.172 92.5261 165.253 94.8607C164.802 95.3186 164.154 95.4802 163.607 95.2737C163.061 95.0672 162.833 94.5733 162.786 94.4656Z" fill="white"/>
<path d="M172.787 83.4494L172.383 83.0812C171.878 82.6203 171.161 82.5544 170.591 82.8537C170.558 82.4287 170.208 82.0935 169.775 82.0935C169.321 82.0935 168.954 82.4617 168.954 82.9166V84.1527C168.954 84.2545 168.974 84.3533 169.01 84.4431L168.828 84.6436C168.523 84.9788 168.547 85.5026 168.882 85.8079L170.403 87.1967C170.737 87.5019 171.26 87.478 171.565 87.1428L172.891 85.6852C173.48 85.0387 173.432 84.039 172.787 83.4494Z" fill="#FFD5C2"/>
<path d="M167.184 99.1536L151.95 106.528C151.659 106.669 151.305 106.547 151.164 106.254L149.013 101.794C148.896 101.551 148.998 101.262 149.238 101.146L164.614 93.7026C165.577 93.2364 166.734 93.6403 167.2 94.6051L168.108 96.4889C168.587 97.4806 168.171 98.6757 167.181 99.1549L167.184 99.1536Z" fill="#8E5C24"/>
<path d="M147.31 95.1965L164.287 99.7092C164.599 99.7921 164.789 100.115 164.705 100.43L163.593 104.628C163.524 104.888 163.259 105.041 163.001 104.972L145.871 100.419C144.838 100.144 144.222 99.0826 144.497 98.0469L144.876 96.6149C145.158 95.5503 146.25 94.9148 147.313 95.1973L147.31 95.1965Z" fill="#785D23"/>
<path d="M157.434 88.2742V98.3877C157.434 98.7199 157.165 98.9863 156.836 98.9863H153.511C153.179 98.9863 152.913 98.7169 152.913 98.3877V88.2742" fill="white"/>
<path d="M156.567 98.9846H153.361C153.11 98.9846 152.907 99.1881 152.907 99.4396V101.87H151.33C151.064 101.87 150.849 102.085 150.849 102.352V102.588C150.849 102.873 151.079 103.106 151.366 103.106H156.34C156.717 103.106 157.021 102.801 157.021 102.424V99.4396C157.021 99.1881 156.818 98.9846 156.567 98.9846Z" fill="#FFBAA6"/>
<path d="M167.247 100.635H165.735C165.449 100.635 165.198 100.827 165.123 101.105L164.086 104.916C164.041 105.077 164.065 105.254 164.149 105.4L164.959 106.819C165.23 107.298 165.939 107.226 166.115 106.705L167.854 101.477C167.991 101.064 167.683 100.638 167.25 100.638L167.247 100.635Z" fill="#DC7100"/>
<path d="M148.911 107.882L150.187 106.897C150.429 106.712 150.516 106.386 150.399 106.101L148.804 102.21C148.735 102.043 148.604 101.911 148.439 101.842L146.835 101.172C146.294 100.944 145.742 101.465 145.936 102.019L147.857 107.565C148.009 108.002 148.544 108.163 148.908 107.879L148.911 107.882Z" fill="#DC7100"/>
<path d="M253.089 100.563H246.516V104.454H253.089V100.563Z" fill="#452828"/>
<path d="M241.138 104.457H234.864V108.348H241.138V104.457Z" fill="#452828"/>
<path d="M209.469 109.244C213.924 109.244 217.536 106.497 217.536 103.108C217.536 99.7195 213.924 96.9724 209.469 96.9724C205.014 96.9724 201.403 99.7195 201.403 103.108C201.403 106.497 205.014 109.244 209.469 109.244Z" fill="#452828"/>
<path d="M235.161 108.346C239.616 108.346 243.228 105.532 243.228 102.061C243.228 98.5897 239.616 95.7756 235.161 95.7756C230.706 95.7756 227.094 98.5897 227.094 102.061C227.094 105.532 230.706 108.346 235.161 108.346Z" fill="#452828"/>
<path d="M258.913 108.347C263.616 108.347 267.428 105.332 267.428 101.612C267.428 97.893 263.616 94.8779 258.913 94.8779C254.21 94.8779 250.398 97.893 250.398 101.612C250.398 105.332 254.21 108.347 258.913 108.347Z" fill="#452828"/>
<path d="M278.183 108.646C282.804 108.646 286.549 105.564 286.549 101.762C286.549 97.96 282.804 94.8779 278.183 94.8779C273.563 94.8779 269.818 97.96 269.818 101.762C269.818 105.564 273.563 108.646 278.183 108.646Z" fill="#452828"/>
<path d="M232.463 101.463C232.469 101.505 232.567 102.421 231.865 102.959C231.36 103.348 230.787 103.277 230.67 103.259C224.294 103.519 217.614 103.636 210.653 103.558C204.549 103.489 198.669 103.28 193.025 102.959C192.658 102.881 192.105 102.723 191.532 102.361C190.567 101.753 190.077 100.912 189.739 100.266C187.86 96.6769 187.349 93.0822 187.349 93.0822C187.19 91.7833 187.083 90.3825 187.05 88.892C187.038 88.2754 187.038 87.6768 187.05 87.0961C187.059 86.6173 187.208 85.8091 187.648 85.001C188.329 83.7469 189.476 83.1483 190.038 82.9059C192.204 81.9421 194.803 80.9754 197.806 80.2121C202.039 79.1346 205.831 78.7785 208.86 78.7156C209.341 78.1739 210.07 77.3448 210.951 76.3212C214.232 72.508 214.423 72.0231 216.031 70.3351C218.486 67.7551 220.587 66.2196 221.11 65.8455C222.308 64.9835 223.628 64.0347 225.591 63.1517C227.948 62.0952 229.923 61.7211 231.865 61.3559C233.798 60.9908 235.447 60.8321 236.646 60.7573C241.545 60.449 245.707 60.4131 248.895 60.458C252.379 60.5089 255.301 60.6915 261.144 61.0566C264.694 61.2781 266.409 61.4277 268.315 61.6552C270.209 61.8797 272.692 62.182 275.784 62.8524C278.829 63.5109 280.842 63.9479 283.253 64.9476C285.602 65.9203 289.375 67.4827 292.515 71.233C295.052 74.2619 296.178 77.5214 296.698 79.9128C299.993 80.2899 302.473 81.1639 303.569 82.008C304.29 82.5647 304.765 83.2052 304.765 83.2052C305.042 83.4506 305.407 83.8397 305.661 84.4024C305.954 85.0549 305.957 85.6385 305.96 85.8989C305.978 87.7965 306.13 92.6482 305.661 95.776C305.628 96.0035 305.556 96.4374 305.362 96.9732C305.362 96.9732 305.132 97.6077 304.765 98.1704C303.785 99.6729 298.954 100.508 294.905 101.762C294.102 102.011 293.465 102.235 293.113 102.361C293.062 102.367 292.581 102.43 292.216 102.061C291.852 101.693 291.912 101.214 291.918 101.163C292.142 100.008 292.419 97.7664 291.619 95.1774C291.159 93.6838 290.409 91.2625 288.034 89.7899C285.578 88.2664 282.306 88.3353 279.967 89.7899C278.345 90.7985 277.601 92.2053 276.979 93.3815C275.318 96.5213 275.312 99.643 275.485 101.463C275.446 101.612 275.369 101.843 275.187 102.061C275.187 102.061 274.801 102.528 273.991 102.66C273.074 102.81 263.857 102.932 251.285 102.959C251.19 102.959 250.517 102.926 250.09 102.361C249.815 101.999 249.791 101.609 249.791 101.463C249.738 100.328 249.761 99.4066 249.791 98.769C249.848 97.5628 249.956 96.9942 249.791 96.0753C249.66 95.339 249.436 94.8242 249.194 94.2795C248.674 93.1122 248.106 91.8341 246.804 90.6878C245.438 89.4876 243.968 89.0566 243.218 88.892C242.818 88.8052 240.945 88.428 238.737 89.1913C238.112 89.4068 236.879 89.8468 235.749 90.9871C234.88 91.8641 234.509 92.7141 233.957 93.9802C233.183 95.752 232.92 97.2396 232.762 98.1704C232.537 99.4904 232.472 100.622 232.463 101.463Z" fill="url(#paint75_linear_14241_184599)"/>
<path d="M305.959 85.9C305.959 85.6396 305.953 85.0559 305.661 84.4035C305.407 83.8408 305.042 83.4517 304.764 83.2062C304.764 83.2062 304.549 82.9189 304.194 82.5627C288.251 82.4789 272.306 82.3921 256.364 82.3083C250.843 81.9611 246.274 82.0898 242.919 82.3083C237.834 82.6405 235.477 83.1853 234.255 83.5055C232.666 83.9186 230.529 84.4753 227.981 85.6007C226.914 86.0706 225.337 86.8338 222.902 87.6958C222.149 87.9622 221.524 88.1627 221.109 88.2944C216.445 88.7015 211.345 88.9379 205.872 88.893C201.417 88.8571 197.226 88.6356 193.324 88.2944C192.538 88.2795 191.513 88.2076 190.336 87.9951C189.897 87.9143 188.998 87.7497 187.946 87.3965C187.614 87.2858 187.319 87.172 187.053 87.0613C187.053 87.0733 187.053 87.0882 187.053 87.0972C187.041 87.6778 187.041 88.2765 187.053 88.893C187.086 90.3836 187.193 91.7843 187.351 93.0833C187.351 93.0833 187.862 96.6779 189.742 100.267C190.079 100.913 190.569 101.754 191.534 102.362C192.108 102.724 192.661 102.883 193.028 102.96C198.672 103.281 204.551 103.49 210.655 103.559C217.617 103.637 224.297 103.52 230.673 103.26C230.789 103.278 231.363 103.349 231.868 102.96C232.57 102.422 232.471 101.506 232.465 101.464C232.474 100.623 232.54 99.4914 232.764 98.1715C232.922 97.2406 233.185 95.7531 233.959 93.9812C234.512 92.7152 234.882 91.8651 235.752 90.9882C236.881 89.8478 238.115 89.4078 238.739 89.1923C240.947 88.4291 242.821 88.8062 243.221 88.893C243.971 89.0576 245.441 89.4886 246.806 90.6889C248.109 91.8352 248.677 93.1132 249.196 94.2805C249.438 94.8253 249.662 95.3401 249.794 96.0763C249.958 96.9952 249.851 97.5639 249.794 98.7701C249.764 99.4076 249.74 100.329 249.794 101.464C249.794 101.61 249.818 102 250.093 102.362C250.52 102.927 251.192 102.957 251.288 102.96C263.86 102.933 273.077 102.811 273.994 102.661C274.804 102.529 275.189 102.062 275.189 102.062C275.371 101.844 275.449 101.613 275.488 101.464C275.315 99.6441 275.321 96.5223 276.982 93.3826C277.603 92.2063 278.347 90.7996 279.969 89.7909C282.309 88.3363 285.58 88.2675 288.036 89.7909C290.411 91.2635 291.161 93.6849 291.621 95.1784C292.422 97.7674 292.144 100.009 291.92 101.165C291.914 101.215 291.854 101.694 292.219 102.062C292.583 102.428 293.064 102.368 293.115 102.362C293.468 102.236 294.104 102.012 294.908 101.763C298.956 100.509 303.787 99.674 304.767 98.1715C305.135 97.6088 305.365 96.9743 305.365 96.9743C305.559 96.4385 305.631 96.0045 305.663 95.777C306.133 92.6493 305.98 87.7976 305.962 85.9H305.959Z" fill="url(#paint76_linear_14241_184599)"/>
<path d="M277.287 103.556C259.083 104.675 239.935 105.238 219.924 105.052C211.591 104.975 203.423 104.771 195.425 104.454C195.326 104.454 194.798 104.445 194.367 104.017C194.098 103.747 193.931 103.373 193.931 102.957C203.073 103.137 212.338 103.239 221.717 103.257C240.706 103.289 259.239 102.975 277.287 102.359V103.556Z" fill="#452828"/>
<path d="M241.436 108.344C246.221 108.344 250.1 103.845 250.1 98.2938C250.1 92.743 246.221 88.2432 241.436 88.2432C236.651 88.2432 232.772 92.743 232.772 98.2938C232.772 103.845 236.651 108.344 241.436 108.344Z" fill="#5F4648"/>
<path d="M241.732 104.081C244.57 104.081 246.871 101.354 246.871 97.9905C246.871 94.6266 244.57 91.8997 241.732 91.8997C238.894 91.8997 236.593 94.6266 236.593 97.9905C236.593 101.354 238.894 104.081 241.732 104.081Z" fill="#F2F3F5"/>
<path d="M284.159 108.045C288.779 108.045 292.524 103.69 292.524 98.318C292.524 92.9457 288.779 88.5906 284.159 88.5906C279.539 88.5906 275.793 92.9457 275.793 98.318C275.793 103.69 279.539 108.045 284.159 108.045Z" fill="#5F4648"/>
<path d="M284.443 103.922C287.183 103.922 289.405 101.283 289.405 98.0262C289.405 94.7697 287.183 92.1299 284.443 92.1299C281.702 92.1299 279.48 94.7697 279.48 98.0262C279.48 101.283 281.702 103.922 284.443 103.922Z" fill="#F2F3F5"/>
<g filter="url(#filter0_f_14241_184599)">
<path d="M225.9 86.7958C222.07 87.0922 218.081 87.3017 213.949 87.3945C210.797 87.4663 207.505 87.4723 204.09 87.3945C199.958 87.3017 195.969 87.0922 192.139 86.7958C191.625 86.8348 190.756 86.8318 189.749 86.4965C189.262 86.3349 188.458 85.9967 187.658 85.2993C187.52 85.416 187.216 85.7094 187.06 86.1972C186.881 86.7539 187.006 87.2268 187.06 87.3945C187.251 87.4962 187.449 87.595 187.658 87.6938C188.181 87.9392 188.682 88.1367 189.152 88.2924C193.977 88.9209 199.384 89.3818 205.285 89.4896C211.174 89.5973 216.581 89.3399 221.418 88.891C222.288 88.5318 223.184 88.1337 224.107 87.6938C224.729 87.3974 225.326 87.0981 225.9 86.7958Z" fill="white"/>
</g>
<path d="M225.9 86.7958C222.07 87.0922 218.081 87.3017 213.949 87.3945C210.797 87.4663 207.505 87.4723 204.09 87.3945C199.958 87.3017 195.969 87.0922 192.139 86.7958C191.625 86.8348 190.756 86.8318 189.749 86.4965C189.262 86.3349 188.458 85.9967 187.658 85.2993C187.52 85.416 187.216 85.7094 187.06 86.1972C186.881 86.7539 187.006 87.2268 187.06 87.3945C187.251 87.4962 187.449 87.595 187.658 87.6938C188.181 87.9392 188.682 88.1367 189.152 88.2924C193.977 88.9209 199.384 89.3818 205.285 89.4896C211.174 89.5973 216.581 89.3399 221.418 88.891C222.288 88.5318 223.184 88.1337 224.107 87.6938C224.729 87.3974 225.326 87.0981 225.9 86.7958Z" fill="white"/>
<path d="M211.56 79.3152C221.419 79.2164 231.279 79.1147 241.138 79.0159C241.329 79.0279 242.223 79.0668 242.931 78.4173C243.277 78.1 243.447 77.7408 243.528 77.5194C244.92 74.0774 246.498 71.4914 247.711 69.7374C249.62 66.9778 250.935 65.8495 251.296 65.5472C253.298 63.8681 255.321 63.0091 256.674 62.5541C251.959 62.183 246.862 62.0423 241.437 62.2548C239.701 62.3236 238.01 62.4254 236.358 62.5541C234.682 62.6379 232.387 62.9163 229.785 63.7513C227.568 64.4637 225.91 65.3287 225.005 65.8465C223.977 66.4301 221.957 67.6812 218.432 71.234C216.561 73.1196 214.123 75.7954 211.56 79.3152Z" fill="#523535"/>
<path d="M241.733 62.2548C239.998 62.3236 238.307 62.4254 236.654 62.5541C234.978 62.6379 232.684 62.9163 230.082 63.7513C229.971 63.7872 229.86 63.8232 229.753 63.8591C229.598 64.4278 229.448 65.2119 229.484 66.1458C229.615 69.501 232.044 71.8086 233.966 73.6284C236.795 76.3102 239.863 77.8366 242.331 78.7166C242.397 78.7585 242.46 78.8034 242.525 78.8453C242.758 78.7555 243.003 78.6238 243.227 78.4173C243.574 78.1 243.744 77.7408 243.825 77.5194C245.217 74.0774 246.795 71.4914 248.008 69.7374C249.917 66.9778 251.231 65.8495 251.593 65.5472C253.595 63.8681 255.617 63.0091 256.971 62.5541C252.256 62.183 247.159 62.0423 241.733 62.2548Z" fill="#5E4242"/>
<path d="M246.515 79.0361C247.418 76.465 248.463 74.307 249.449 72.5711C251.057 69.7337 251.956 68.1474 253.85 66.6927C256.219 64.873 258.693 64.3731 260.304 64.0469C262.398 63.6249 263.969 63.6727 266.171 63.7536C269.679 63.8823 272.263 64.3881 274.973 64.9298C278.289 65.5913 281.008 66.151 284.363 67.5757C286.688 68.5634 288.017 69.4134 289.057 70.2215C290.694 71.4936 291.761 72.7716 292.284 73.454C294.202 75.9442 295.083 78.4764 295.51 80.2153C279.177 79.8232 262.846 79.4311 246.512 79.0391L246.515 79.0361Z" fill="#512E2E"/>
<path d="M292.288 73.4506C291.762 72.7682 290.698 71.4902 289.061 70.2181C288.021 69.41 286.692 68.56 284.368 67.5723C281.012 66.1476 278.294 65.5909 274.977 64.9264C272.267 64.3847 269.683 63.8788 266.176 63.7501C263.974 63.6693 262.402 63.6214 260.308 64.0435C259.653 64.1751 258.856 64.3398 257.98 64.6032C258.064 64.6121 258.154 64.6211 258.252 64.6301C262.749 65.965 266.394 67.6112 269.109 69.0389C272.178 70.6521 277.326 73.699 282.605 78.7393C283.056 79.1703 283.462 79.5714 283.815 79.9276C287.714 80.0204 291.613 80.1161 295.515 80.2089C295.087 78.47 294.206 75.9408 292.288 73.4476V73.4506Z" fill="#6A4C4C"/>
<path d="M269.22 82.3069H265.934C265.604 82.3069 265.336 82.5749 265.336 82.9055C265.336 83.2361 265.604 83.5041 265.934 83.5041H269.22C269.55 83.5041 269.818 83.2361 269.818 82.9055C269.818 82.5749 269.55 82.3069 269.22 82.3069Z" fill="#5F4648"/>
<path d="M283.562 82.6062H280.276C279.946 82.6062 279.678 82.8742 279.678 83.2048C279.678 83.5354 279.946 83.8034 280.276 83.8034H283.562C283.892 83.8034 284.159 83.5354 284.159 83.2048C284.159 82.8742 283.892 82.6062 283.562 82.6062Z" fill="#5F4648"/>
<path d="M211.26 76.0237C210.564 76.9216 209.566 77.8195 208.87 78.7175H207.675C207.633 78.475 207.598 78.1039 207.675 77.6699C207.729 77.3736 207.881 76.5086 208.572 76.0237C209.22 75.5688 210.454 75.5867 211.26 76.0237Z" fill="#5F4648"/>
<path d="M207.669 77.7142C207.601 78.1303 207.633 78.4865 207.675 78.7199H208.87C209.187 78.3129 209.45 77.9297 209.767 77.5227C209.51 77.3521 209.232 77.2234 208.87 77.2234C208.377 77.2234 207.941 77.4179 207.669 77.7142Z" fill="#523538"/>
<path d="M248.008 79.1629C248.097 78.6631 248.656 78.3668 249.203 78.1154C251.42 77.1007 253.087 76.9181 253.087 76.9181C255.337 76.6697 257.12 76.4752 257.867 77.5168C258.279 78.0914 258.214 78.8157 258.166 79.3126C258.151 79.4562 257.972 81.1294 256.672 82.0063C256.051 82.4254 255.877 82.1889 252.489 82.3056C250.966 82.3595 250.404 82.4283 249.8 82.0063C249.439 81.7549 249.161 81.3389 248.605 80.5098C247.978 79.57 247.981 79.3096 248.008 79.1629Z" fill="#523538"/>
<path d="M258.036 77.825C257.991 77.7203 257.937 77.6155 257.868 77.5168C257.121 76.4752 255.338 76.6697 253.088 76.9181C253.088 76.9181 251.421 77.1007 249.204 78.1154C248.735 78.3309 248.257 78.5793 248.075 78.9624L258.036 77.822V77.825Z" fill="#775C5D"/>
<path d="M264.495 61.3135L247.758 60.5024C247.301 60.4815 247.008 60.0086 247.193 59.5895L248.451 56.7132C248.729 56.0787 249.353 55.6716 250.043 55.6716H262.735C263.557 55.6716 264.265 56.2493 264.435 57.0544L265.167 60.5323C265.254 60.9514 264.925 61.3405 264.498 61.3195L264.495 61.3135Z" fill="#F2F3F5"/>
<path d="M252.358 59.6261V57.4352H251.614V56.8965H253.753V57.4352H253.009V59.6261H252.355H252.358Z" fill="#452828"/>
<path d="M253.747 59.6259L254.626 56.8962H255.423L256.299 59.6259H255.603L255.426 58.9974H254.581L254.405 59.6259H253.75H253.747ZM254.99 57.4829L254.7 58.5215H255.304L255.017 57.4829H254.987H254.99Z" fill="#452828"/>
<path d="M258.139 58.2577L258.975 59.6225H258.231L257.715 58.7246H257.688L257.171 59.6225H256.469L257.284 58.2487L256.472 56.8928H257.24L257.729 57.8147H257.756L258.246 56.8928H258.981L258.136 58.2577H258.139Z" fill="#452828"/>
<path d="M259.305 59.6259V56.8962H259.962V59.6259H259.305Z" fill="#452828"/>
<g filter="url(#filter1_f_14241_184599)">
<path d="M299.993 84.9999C300.516 83.4794 302.213 82.4438 304.176 82.6055C305.129 83.1233 305.511 83.7638 305.67 84.102C305.765 84.3055 305.909 84.6766 305.969 86.1971C306.001 87.0501 305.99 87.7685 305.969 88.2923C303.686 89.5493 301.251 89.0944 300.292 87.6936C299.494 86.5264 299.972 85.0657 299.993 84.9999Z" fill="#F2F3F5"/>
</g>
<path d="M299.993 84.9999C300.516 83.4794 302.213 82.4438 304.176 82.6055C305.129 83.1233 305.511 83.7638 305.67 84.102C305.765 84.3055 305.909 84.6766 305.969 86.1971C306.001 87.0501 305.99 87.7685 305.969 88.2923C303.686 89.5493 301.251 89.0944 300.292 87.6936C299.494 86.5264 299.972 85.0657 299.993 84.9999Z" fill="#F2F3F5"/>
<defs>
<filter id="filter0_f_14241_184599" x="174.467" y="72.7993" width="63.9329" height="29.2146" filterUnits="userSpaceOnUse" color-interpolation-filters="sRGB">
<feFlood flood-opacity="0" result="BackgroundImageFix"/>
<feBlend mode="normal" in="SourceGraphic" in2="BackgroundImageFix" result="shape"/>
<feGaussianBlur stdDeviation="6.25" result="effect1_foregroundBlur_14241_184599"/>
</filter>
<filter id="filter1_f_14241_184599" x="293.332" y="76.0889" width="19.1568" height="19.4392" filterUnits="userSpaceOnUse" color-interpolation-filters="sRGB">
<feFlood flood-opacity="0" result="BackgroundImageFix"/>
<feBlend mode="normal" in="SourceGraphic" in2="BackgroundImageFix" result="shape"/>
<feGaussianBlur stdDeviation="3.25" result="effect1_foregroundBlur_14241_184599"/>
</filter>
<linearGradient id="paint0_linear_14241_184599" x1="155.5" y1="0" x2="155.5" y2="120" gradientUnits="userSpaceOnUse">
<stop stop-color="#FFF2CE"/>
<stop offset="1" stop-color="#FFDAC3"/>
</linearGradient>
<linearGradient id="paint1_linear_14241_184599" x1="157.058" y1="49.0541" x2="154.18" y2="140.492" gradientUnits="userSpaceOnUse">
<stop stop-color="#FFA27B"/>
<stop offset="0.2" stop-color="#FFA57E"/>
<stop offset="0.39" stop-color="#FFB08A"/>
<stop offset="0.58" stop-color="#FFC29D"/>
<stop offset="0.74" stop-color="#FFD8B4"/>
</linearGradient>
<linearGradient id="paint2_linear_14241_184599" x1="157.058" y1="49.0541" x2="154.18" y2="140.492" gradientUnits="userSpaceOnUse">
<stop stop-color="#FFA27B"/>
<stop offset="0.2" stop-color="#FFA57E"/>
<stop offset="0.39" stop-color="#FFB08A"/>
<stop offset="0.58" stop-color="#FFC29D"/>
<stop offset="0.74" stop-color="#FFD8B4"/>
</linearGradient>
<linearGradient id="paint3_linear_14241_184599" x1="224.434" y1="27.1263" x2="223.038" y2="29.9285" gradientUnits="userSpaceOnUse">
<stop offset="0.05" stop-color="#FFA970"/>
<stop offset="1" stop-color="#FF6340"/>
</linearGradient>
<linearGradient id="paint4_linear_14241_184599" x1="210.976" y1="27.1247" x2="212.376" y2="29.9268" gradientUnits="userSpaceOnUse">
<stop offset="0.05" stop-color="#FFA970"/>
<stop offset="1" stop-color="#FF6340"/>
</linearGradient>
<linearGradient id="paint5_linear_14241_184599" x1="216.322" y1="21.839" x2="219.111" y2="23.1731" gradientUnits="userSpaceOnUse">
<stop offset="0.05" stop-color="#FFA970"/>
<stop offset="1" stop-color="#FF6340"/>
</linearGradient>
<linearGradient id="paint6_linear_14241_184599" x1="211.893" y1="25.0357" x2="214.82" y2="24.0528" gradientUnits="userSpaceOnUse">
<stop offset="0.05" stop-color="#FFA970"/>
<stop offset="1" stop-color="#FF6340"/>
</linearGradient>
<linearGradient id="paint7_linear_14241_184599" x1="223.683" y1="25.0356" x2="220.756" y2="24.0476" gradientUnits="userSpaceOnUse">
<stop offset="0.05" stop-color="#FFA970"/>
<stop offset="1" stop-color="#FF6340"/>
</linearGradient>
<linearGradient id="paint8_linear_14241_184599" x1="216.336" y1="35.6606" x2="219.125" y2="34.3265" gradientUnits="userSpaceOnUse">
<stop offset="0.05" stop-color="#FFA970"/>
<stop offset="1" stop-color="#FF6340"/>
</linearGradient>
<linearGradient id="paint9_linear_14241_184599" x1="211.908" y1="32.4575" x2="214.835" y2="33.4404" gradientUnits="userSpaceOnUse">
<stop offset="0.05" stop-color="#FFA970"/>
<stop offset="1" stop-color="#FF6340"/>
</linearGradient>
<linearGradient id="paint10_linear_14241_184599" x1="223.669" y1="32.4577" x2="220.744" y2="33.4431" gradientUnits="userSpaceOnUse">
<stop offset="0.05" stop-color="#FFA970"/>
<stop offset="1" stop-color="#FF6340"/>
</linearGradient>
<linearGradient id="paint11_linear_14241_184599" x1="221.44" y1="29.5436" x2="220.307" y2="30.4714" gradientUnits="userSpaceOnUse">
<stop offset="0.05" stop-color="#FFA970"/>
<stop offset="1" stop-color="#FF6340"/>
</linearGradient>
<linearGradient id="paint12_linear_14241_184599" x1="214.95" y1="26.895" x2="215.003" y2="28.3779" gradientUnits="userSpaceOnUse">
<stop offset="0.05" stop-color="#FFA970"/>
<stop offset="1" stop-color="#FF6340"/>
</linearGradient>
<linearGradient id="paint13_linear_14241_184599" x1="218.595" y1="25.3164" x2="219.549" y2="26.4345" gradientUnits="userSpaceOnUse">
<stop offset="0.05" stop-color="#FFA970"/>
<stop offset="1" stop-color="#FF6340"/>
</linearGradient>
<linearGradient id="paint14_linear_14241_184599" x1="216.093" y1="25.8168" x2="217.537" y2="25.9449" gradientUnits="userSpaceOnUse">
<stop offset="0.05" stop-color="#FFA970"/>
<stop offset="1" stop-color="#FF6340"/>
</linearGradient>
<linearGradient id="paint15_linear_14241_184599" x1="221.157" y1="28.1292" x2="220.077" y2="27.1379" gradientUnits="userSpaceOnUse">
<stop offset="0.05" stop-color="#FFA970"/>
<stop offset="1" stop-color="#FF6340"/>
</linearGradient>
<linearGradient id="paint16_linear_14241_184599" x1="215.646" y1="31.982" x2="217.097" y2="31.9355" gradientUnits="userSpaceOnUse">
<stop offset="0.05" stop-color="#FFA970"/>
<stop offset="1" stop-color="#FF6340"/>
</linearGradient>
<linearGradient id="paint17_linear_14241_184599" x1="213.987" y1="29.3714" x2="215.067" y2="30.3627" gradientUnits="userSpaceOnUse">
<stop offset="0.05" stop-color="#FFA970"/>
<stop offset="1" stop-color="#FF6340"/>
</linearGradient>
<linearGradient id="paint18_linear_14241_184599" x1="220.107" y1="32.0534" x2="218.658" y2="31.9234" gradientUnits="userSpaceOnUse">
<stop offset="0.05" stop-color="#FFA970"/>
<stop offset="1" stop-color="#FF6340"/>
</linearGradient>
<linearGradient id="paint19_linear_14241_184599" x1="119.376" y1="70.3853" x2="118.268" y2="72.6115" gradientUnits="userSpaceOnUse">
<stop stop-color="#FFA970"/>
<stop offset="1" stop-color="#FF996C"/>
</linearGradient>
<linearGradient id="paint20_linear_14241_184599" x1="108.704" y1="70.3897" x2="109.816" y2="72.6123" gradientUnits="userSpaceOnUse">
<stop stop-color="#FFA970"/>
<stop offset="1" stop-color="#FF6340"/>
</linearGradient>
<linearGradient id="paint21_linear_14241_184599" x1="112.944" y1="66.1851" x2="115.16" y2="67.2435" gradientUnits="userSpaceOnUse">
<stop stop-color="#FFA970"/>
<stop offset="1" stop-color="#FF6340"/>
</linearGradient>
<linearGradient id="paint22_linear_14241_184599" x1="109.43" y1="68.7234" x2="111.752" y2="67.9395" gradientUnits="userSpaceOnUse">
<stop stop-color="#FFA970"/>
<stop offset="1" stop-color="#FF6340"/>
</linearGradient>
<linearGradient id="paint23_linear_14241_184599" x1="118.788" y1="68.7274" x2="116.465" y2="67.9436" gradientUnits="userSpaceOnUse">
<stop stop-color="#FFA970"/>
<stop offset="1" stop-color="#FF6340"/>
</linearGradient>
<linearGradient id="paint24_linear_14241_184599" x1="112.96" y1="77.1525" x2="115.176" y2="76.0941" gradientUnits="userSpaceOnUse">
<stop stop-color="#FFA970"/>
<stop offset="1" stop-color="#FF6340"/>
</linearGradient>
<linearGradient id="paint25_linear_14241_184599" x1="109.446" y1="74.618" x2="111.766" y2="75.3993" gradientUnits="userSpaceOnUse">
<stop stop-color="#FFA970"/>
<stop offset="1" stop-color="#FF6340"/>
</linearGradient>
<linearGradient id="paint26_linear_14241_184599" x1="118.772" y1="74.614" x2="116.447" y2="75.3954" gradientUnits="userSpaceOnUse">
<stop stop-color="#FFA970"/>
<stop offset="1" stop-color="#FF6340"/>
</linearGradient>
<linearGradient id="paint27_linear_14241_184599" x1="116.998" y1="72.3028" x2="116.102" y2="73.0359" gradientUnits="userSpaceOnUse">
<stop stop-color="#FFA970"/>
<stop offset="1" stop-color="#FF6340"/>
</linearGradient>
<linearGradient id="paint28_linear_14241_184599" x1="111.863" y1="70.2077" x2="111.901" y2="71.3822" gradientUnits="userSpaceOnUse">
<stop stop-color="#FFA970"/>
<stop offset="1" stop-color="#FF6340"/>
</linearGradient>
<linearGradient id="paint29_linear_14241_184599" x1="114.742" y1="68.9474" x2="115.499" y2="69.8331" gradientUnits="userSpaceOnUse">
<stop stop-color="#FFA970"/>
<stop offset="1" stop-color="#FF6340"/>
</linearGradient>
<linearGradient id="paint30_linear_14241_184599" x1="112.76" y1="69.3449" x2="113.907" y2="69.4443" gradientUnits="userSpaceOnUse">
<stop stop-color="#FFA970"/>
<stop offset="1" stop-color="#FF6340"/>
</linearGradient>
<linearGradient id="paint31_linear_14241_184599" x1="116.782" y1="71.1806" x2="115.926" y2="70.3938" gradientUnits="userSpaceOnUse">
<stop stop-color="#FFA970"/>
<stop offset="1" stop-color="#FF6340"/>
</linearGradient>
<linearGradient id="paint32_linear_14241_184599" x1="112.408" y1="74.2404" x2="113.556" y2="74.2032" gradientUnits="userSpaceOnUse">
<stop stop-color="#FFA970"/>
<stop offset="1" stop-color="#FF6340"/>
</linearGradient>
<linearGradient id="paint33_linear_14241_184599" x1="111.098" y1="72.1684" x2="111.954" y2="72.9552" gradientUnits="userSpaceOnUse">
<stop stop-color="#FFA970"/>
<stop offset="1" stop-color="#FF6340"/>
</linearGradient>
<linearGradient id="paint34_linear_14241_184599" x1="115.939" y1="74.2896" x2="114.795" y2="74.1888" gradientUnits="userSpaceOnUse">
<stop stop-color="#FFA970"/>
<stop offset="1" stop-color="#FF6340"/>
</linearGradient>
<linearGradient id="paint35_linear_14241_184599" x1="28.1445" y1="18.5233" x2="26.0694" y2="22.6878" gradientUnits="userSpaceOnUse">
<stop stop-color="#FFA970"/>
<stop offset="1" stop-color="#FF996C"/>
</linearGradient>
<linearGradient id="paint36_linear_14241_184599" x1="8.14831" y1="18.5319" x2="10.2234" y2="22.6964" gradientUnits="userSpaceOnUse">
<stop stop-color="#FFA970"/>
<stop offset="1" stop-color="#FF6340"/>
</linearGradient>
<linearGradient id="paint37_linear_14241_184599" x1="16.091" y1="10.6774" x2="20.2357" y2="12.6564" gradientUnits="userSpaceOnUse">
<stop stop-color="#FFA970"/>
<stop offset="1" stop-color="#FF6340"/>
</linearGradient>
<linearGradient id="paint38_linear_14241_184599" x1="9.51524" y1="15.428" x2="13.8618" y2="13.9635" gradientUnits="userSpaceOnUse">
<stop stop-color="#FFA970"/>
<stop offset="1" stop-color="#FF6340"/>
</linearGradient>
<linearGradient id="paint39_linear_14241_184599" x1="27.0234" y1="15.4368" x2="22.6769" y2="13.9723" gradientUnits="userSpaceOnUse">
<stop stop-color="#FFA970"/>
<stop offset="1" stop-color="#FF6340"/>
</linearGradient>
<linearGradient id="paint40_linear_14241_184599" x1="16.1055" y1="31.2128" x2="20.2504" y2="29.2303" gradientUnits="userSpaceOnUse">
<stop stop-color="#FFA970"/>
<stop offset="1" stop-color="#FF6340"/>
</linearGradient>
<linearGradient id="paint41_linear_14241_184599" x1="9.53231" y1="26.4573" x2="13.8738" y2="27.9217" gradientUnits="userSpaceOnUse">
<stop stop-color="#FFA970"/>
<stop offset="1" stop-color="#FF6340"/>
</linearGradient>
<linearGradient id="paint42_linear_14241_184599" x1="27.0088" y1="26.4459" x2="22.6649" y2="27.9128" gradientUnits="userSpaceOnUse">
<stop stop-color="#FFA970"/>
<stop offset="1" stop-color="#FF6340"/>
</linearGradient>
<linearGradient id="paint43_linear_14241_184599" x1="23.6982" y1="22.1202" x2="22.0158" y2="23.4953" gradientUnits="userSpaceOnUse">
<stop stop-color="#FFA970"/>
<stop offset="1" stop-color="#FF6340"/>
</linearGradient>
<linearGradient id="paint44_linear_14241_184599" x1="14.0503" y1="18.2017" x2="14.1257" y2="20.3998" gradientUnits="userSpaceOnUse">
<stop stop-color="#FFA970"/>
<stop offset="1" stop-color="#FF6340"/>
</linearGradient>
<linearGradient id="paint45_linear_14241_184599" x1="19.466" y1="15.8354" x2="20.8799" y2="17.4959" gradientUnits="userSpaceOnUse">
<stop stop-color="#FFA970"/>
<stop offset="1" stop-color="#FF6340"/>
</linearGradient>
<linearGradient id="paint46_linear_14241_184599" x1="15.7488" y1="16.5859" x2="17.8957" y2="16.776" gradientUnits="userSpaceOnUse">
<stop stop-color="#FFA970"/>
<stop offset="1" stop-color="#FF6340"/>
</linearGradient>
<linearGradient id="paint47_linear_14241_184599" x1="23.2739" y1="20.0261" x2="21.6698" y2="18.5566" gradientUnits="userSpaceOnUse">
<stop stop-color="#FFA970"/>
<stop offset="1" stop-color="#FF6340"/>
</linearGradient>
<linearGradient id="paint48_linear_14241_184599" x1="15.0828" y1="25.7529" x2="17.2366" y2="25.682" gradientUnits="userSpaceOnUse">
<stop stop-color="#FFA970"/>
<stop offset="1" stop-color="#FF6340"/>
</linearGradient>
<linearGradient id="paint49_linear_14241_184599" x1="12.6193" y1="21.8728" x2="14.2247" y2="23.3457" gradientUnits="userSpaceOnUse">
<stop stop-color="#FFA970"/>
<stop offset="1" stop-color="#FF6340"/>
</linearGradient>
<linearGradient id="paint50_linear_14241_184599" x1="21.7156" y1="25.8431" x2="19.5687" y2="25.653" gradientUnits="userSpaceOnUse">
<stop stop-color="#FFA970"/>
<stop offset="1" stop-color="#FF6340"/>
</linearGradient>
<linearGradient id="paint51_linear_14241_184599" x1="300.599" y1="37.3148" x2="299.202" y2="40.1206" gradientUnits="userSpaceOnUse">
<stop offset="0.05" stop-color="#FFA970"/>
<stop offset="1" stop-color="#FF6340"/>
</linearGradient>
<linearGradient id="paint52_linear_14241_184599" x1="287.142" y1="37.309" x2="288.538" y2="40.1111" gradientUnits="userSpaceOnUse">
<stop offset="0.05" stop-color="#FFA970"/>
<stop offset="1" stop-color="#FF6340"/>
</linearGradient>
<linearGradient id="paint53_linear_14241_184599" x1="292.486" y1="32.0275" x2="295.276" y2="33.3651" gradientUnits="userSpaceOnUse">
<stop offset="0.05" stop-color="#FFA970"/>
<stop offset="1" stop-color="#FF6340"/>
</linearGradient>
<linearGradient id="paint54_linear_14241_184599" x1="292.227" y1="55.4773" x2="295.46" y2="56.367" gradientUnits="userSpaceOnUse">
<stop offset="0.05" stop-color="#FFA970"/>
<stop offset="1" stop-color="#FF6340"/>
</linearGradient>
<linearGradient id="paint55_linear_14241_184599" x1="288.056" y1="35.2269" x2="290.986" y2="34.2414" gradientUnits="userSpaceOnUse">
<stop offset="0.05" stop-color="#FFA970"/>
<stop offset="1" stop-color="#FF6340"/>
</linearGradient>
<linearGradient id="paint56_linear_14241_184599" x1="299.849" y1="35.2203" x2="296.919" y2="34.2348" gradientUnits="userSpaceOnUse">
<stop offset="0.05" stop-color="#FFA970"/>
<stop offset="1" stop-color="#FF6340"/>
</linearGradient>
<linearGradient id="paint57_linear_14241_184599" x1="292.498" y1="45.8448" x2="295.291" y2="44.5108" gradientUnits="userSpaceOnUse">
<stop offset="0.05" stop-color="#FFA970"/>
<stop offset="1" stop-color="#FF6340"/>
</linearGradient>
<linearGradient id="paint58_linear_14241_184599" x1="288.073" y1="42.6423" x2="290.997" y2="43.6277" gradientUnits="userSpaceOnUse">
<stop offset="0.05" stop-color="#FFA970"/>
<stop offset="1" stop-color="#FF6340"/>
</linearGradient>
<linearGradient id="paint59_linear_14241_184599" x1="299.832" y1="42.6488" x2="296.907" y2="43.6342" gradientUnits="userSpaceOnUse">
<stop offset="0.05" stop-color="#FFA970"/>
<stop offset="1" stop-color="#FF6340"/>
</linearGradient>
<linearGradient id="paint60_linear_14241_184599" x1="297.605" y1="39.7319" x2="296.472" y2="40.6596" gradientUnits="userSpaceOnUse">
<stop offset="0.05" stop-color="#FFA970"/>
<stop offset="1" stop-color="#FF6340"/>
</linearGradient>
<linearGradient id="paint61_linear_14241_184599" x1="291.115" y1="37.0829" x2="291.166" y2="38.5609" gradientUnits="userSpaceOnUse">
<stop offset="0.05" stop-color="#FFA970"/>
<stop offset="1" stop-color="#FF6340"/>
</linearGradient>
<linearGradient id="paint62_linear_14241_184599" x1="294.759" y1="35.5047" x2="295.713" y2="36.6227" gradientUnits="userSpaceOnUse">
<stop offset="0.05" stop-color="#FFA970"/>
<stop offset="1" stop-color="#FF6340"/>
</linearGradient>
<linearGradient id="paint63_linear_14241_184599" x1="292.256" y1="36.0094" x2="293.703" y2="36.1361" gradientUnits="userSpaceOnUse">
<stop offset="0.05" stop-color="#FFA970"/>
<stop offset="1" stop-color="#FF6340"/>
</linearGradient>
<linearGradient id="paint64_linear_14241_184599" x1="297.322" y1="38.3114" x2="296.243" y2="37.3236" gradientUnits="userSpaceOnUse">
<stop offset="0.05" stop-color="#FFA970"/>
<stop offset="1" stop-color="#FF6340"/>
</linearGradient>
<linearGradient id="paint65_linear_14241_184599" x1="291.812" y1="42.1666" x2="293.26" y2="42.1186" gradientUnits="userSpaceOnUse">
<stop offset="0.05" stop-color="#FFA970"/>
<stop offset="1" stop-color="#FF6340"/>
</linearGradient>
<linearGradient id="paint66_linear_14241_184599" x1="290.153" y1="39.5571" x2="291.233" y2="40.5484" gradientUnits="userSpaceOnUse">
<stop offset="0.05" stop-color="#FFA970"/>
<stop offset="1" stop-color="#FF6340"/>
</linearGradient>
<linearGradient id="paint67_linear_14241_184599" x1="296.272" y1="42.2412" x2="294.825" y2="42.1144" gradientUnits="userSpaceOnUse">
<stop offset="0.05" stop-color="#FFA970"/>
<stop offset="1" stop-color="#FF6340"/>
</linearGradient>
<linearGradient id="paint68_linear_14241_184599" x1="293.502" y1="38.7162" x2="294.964" y2="39.4659" gradientUnits="userSpaceOnUse">
<stop offset="0.05" stop-color="#FFA970"/>
<stop offset="1" stop-color="#FF6340"/>
</linearGradient>
<linearGradient id="paint69_linear_14241_184599" x1="173.96" y1="71.6409" x2="198.716" y2="81.5519" gradientUnits="userSpaceOnUse">
<stop offset="0.05" stop-color="#FFA970"/>
<stop offset="1" stop-color="#FF6340"/>
</linearGradient>
<linearGradient id="paint70_linear_14241_184599" x1="182.86" y1="65.3896" x2="202.122" y2="84.072" gradientUnits="userSpaceOnUse">
<stop offset="0.05" stop-color="#FFBF9C"/>
<stop offset="1" stop-color="#FF6340"/>
</linearGradient>
<linearGradient id="paint71_linear_14241_184599" x1="167.589" y1="77.4729" x2="210.05" y2="99.6453" gradientUnits="userSpaceOnUse">
<stop offset="0.05" stop-color="#FFA970"/>
<stop offset="0.51" stop-color="#FF6340"/>
<stop offset="1" stop-color="#FF3B24"/>
</linearGradient>
<linearGradient id="paint72_linear_14241_184599" x1="172.698" y1="66.5913" x2="174.253" y2="57.5794" gradientUnits="userSpaceOnUse">
<stop offset="0.05" stop-color="#FFAB53"/>
<stop offset="1" stop-color="#FF8E60"/>
</linearGradient>
<linearGradient id="paint73_linear_14241_184599" x1="191.457" y1="56.4454" x2="183.059" y2="52.8676" gradientUnits="userSpaceOnUse">
<stop offset="0.05" stop-color="#FFAB53"/>
<stop offset="1" stop-color="#FF8E60"/>
</linearGradient>
<linearGradient id="paint74_linear_14241_184599" x1="179.265" y1="80.2508" x2="187" y2="48.0858" gradientUnits="userSpaceOnUse">
<stop stop-color="#FF936A"/>
<stop offset="0.53" stop-color="#FFB56F"/>
<stop offset="1" stop-color="#FFB37C"/>
</linearGradient>
<linearGradient id="paint75_linear_14241_184599" x1="227.88" y1="123.39" x2="267.268" y2="55.2934" gradientUnits="userSpaceOnUse">
<stop offset="0.13" stop-color="#FF9457"/>
<stop offset="0.61" stop-color="#FF6130"/>
<stop offset="1" stop-color="#FFB53D"/>
</linearGradient>
<linearGradient id="paint76_linear_14241_184599" x1="240.894" y1="114.271" x2="254.324" y2="58.4138" gradientUnits="userSpaceOnUse">
<stop stop-color="#FF713E"/>
<stop offset="0.99" stop-color="#FF3027"/>
<stop offset="1" stop-color="#FF3228"/>
</linearGradient>
</defs>
</svg>
