<svg width="25" height="23" viewBox="0 0 25 23" fill="none" xmlns="http://www.w3.org/2000/svg">
<g id="alipayhk-logo">
<g id="Group">
<path id="App-Icon-Shape-Copy-4" d="M18.5408 0.410156C21.9321 0.410156 24.1327 2.47212 24.1327 5.65254V17.1678C24.1327 20.3471 21.9333 22.4102 18.5408 22.4102H6.2579C2.86659 22.4102 0.666016 20.3482 0.666016 17.1678V5.65254C0.666016 2.47319 2.86544 0.410156 6.2579 0.410156H18.5408Z" fill="white"/>
<path id="Combined-Shape" d="M18.5408 0.410156C21.9321 0.410156 24.1327 2.47212 24.1327 5.65254V15.0983C23.9129 15.0457 22.5 14.7505 19.688 13.8661C18.811 13.5977 17.6661 13.1941 16.4066 12.7583C17.1972 11.4452 17.792 10.0367 18.1744 8.57214H13.9221V7.15528H19.0995V6.36527H13.9221V3.99847H11.8177C11.7707 3.99512 11.7234 4.00066 11.6786 4.01476C11.6339 4.02886 11.5926 4.05124 11.5573 4.08057C11.5219 4.1099 11.4932 4.14558 11.4729 4.1855C11.4525 4.22542 11.4409 4.26877 11.4387 4.31297V6.36527H6.21668V7.15421H11.4834V8.57429H7.14522V9.36322H15.5205C15.2228 10.3103 14.8135 11.2233 14.2999 12.0853C11.5922 11.2728 8.68975 10.5826 6.84983 11.0194C5.67512 11.2728 4.93549 11.7461 4.4924 12.2431C2.43151 14.5434 3.89017 18.0039 8.19628 18.0039C10.7243 18.0039 13.1722 16.7008 15.0568 14.5315C17.6706 15.7015 23.2144 17.8354 24.0537 18.1649C23.6369 20.7711 21.5611 22.408 18.5385 22.408H6.2579C2.86659 22.408 0.666016 20.346 0.666016 17.1656V10.8863L11.8086 0.410156H18.5408Z" fill="#00ADEE"/>
<path id="Fill-3" d="M7.77606 16.7089C4.44887 16.7089 3.45277 14.268 5.12438 12.952C5.67395 12.4916 6.67005 12.278 7.18527 12.2404C9.19578 12.0418 11.0334 12.7535 13.2042 13.7431C11.6975 15.5496 9.73161 16.711 7.77491 16.711" fill="#00ADEE"/>
<path id="Combined-Shape_2" d="M11.9185 0.40947L0.666016 10.9587V5.66581C0.666016 2.47787 2.86544 0.40625 6.2579 0.40625L11.9185 0.40947Z" fill="#F8F8F8"/>
<path id="HK" d="M5.29339 5.10804L5.03692 5.34847L4.09692 4.46723L2.96916 5.52451L3.90915 6.40575L3.65269 6.64619L1.5918 4.7141L1.84826 4.47367L2.74132 5.31091L3.86908 4.25363L2.97603 3.41639L3.2325 3.17595L5.29339 5.10804ZM5.81891 4.61536L5.77998 4.65185L5.69068 4.73557L5.60137 4.8193L5.56244 4.85579L3.50155 2.92371L3.75802 2.68327L4.76557 3.62784L4.77931 3.61496L4.6797 1.82027L5.00257 1.51758L5.07241 3.16629L7.14246 3.38097L6.81157 3.68259L5.07356 3.50011L5.0976 3.93913L5.81891 4.61536Z" fill="#00ADEE"/>
</g>
</g>
</svg>
