<svg width="26" height="24" viewBox="0 0 26 24" fill="none" xmlns="http://www.w3.org/2000/svg">
<g id="Payment Icons">
<g id="Vector">
<path d="M18.9734 8.5523L18.5284 9.70396H19.4208L18.9734 8.5523ZM13.8381 9.26596C13.922 9.21922 13.9714 9.11756 13.9714 8.99132C13.9714 8.8676 13.9195 8.778 13.8356 8.7359C13.7592 8.68923 13.6417 8.68384 13.529 8.68384H12.7328V9.32552H13.5183C13.6441 9.32555 13.7492 9.32358 13.8381 9.26596ZM3.63619 8.5523L3.1962 9.70396H4.07883L3.85751 9.12813L3.63619 8.5523ZM24.1214 15.9302H22.8727V15.3105H24.1163C24.2396 15.3105 24.326 15.2933 24.378 15.239C24.4271 15.1905 24.4549 15.1221 24.4544 15.0506C24.4544 14.9663 24.4231 14.8995 24.3754 14.8595C24.3285 14.8154 24.2601 14.7953 24.1475 14.7953C23.5404 14.7733 22.783 14.8153 22.783 13.9009C22.783 13.4819 23.0322 13.0407 23.7108 13.0407H24.9987V12.4658H23.8021C23.441 12.4658 23.1786 12.5581 22.9929 12.7018V12.4658H21.2229C20.9399 12.4658 20.6077 12.5407 20.4506 12.7018V12.4658H17.2898V12.7018C17.0383 12.508 16.6138 12.4658 16.418 12.4658H14.3332V12.7018C14.1342 12.496 13.6916 12.4658 13.4219 12.4658H11.0886L10.5548 13.0829L10.0547 12.4658H6.56926V16.498H9.98896L10.5391 15.871L11.0573 16.498L13.1652 16.5V15.5515H13.3725C13.6522 15.5563 13.982 15.5441 14.2731 15.4098V16.4979H16.0118V15.4469H16.0957C16.2026 15.4469 16.2132 15.4517 16.2132 15.5659V16.4977H21.4951C21.8304 16.4977 22.181 16.4061 22.3751 16.2396V16.4977H24.0505C24.3991 16.4977 24.7396 16.4455 24.9986 16.3119V15.5607C24.8416 15.806 24.5355 15.9302 24.1214 15.9302ZM13.4002 14.9781H12.5934V15.9473H11.3367L10.5405 14.9908L9.71316 15.9473H7.15202V13.0577H9.75255L10.548 14.0049L11.3704 13.0577H13.4365C13.9496 13.0577 14.5261 13.2095 14.5261 14.0097C14.5261 14.8124 13.9654 14.9781 13.4002 14.9781ZM17.2796 14.8471C17.3709 14.9881 17.3841 15.1198 17.3868 15.3745V15.9473H16.7376V15.5858C16.7376 15.412 16.7533 15.1546 16.6331 15.0202C16.5387 14.9168 16.3946 14.892 16.1587 14.892H15.4677V15.9473H14.8181V13.0578H16.3107C16.6382 13.0578 16.8765 13.0733 17.0887 13.1941C17.2928 13.3258 17.4212 13.5062 17.4212 13.8358C17.4212 14.297 17.1331 14.5322 16.9629 14.6045C17.1068 14.6612 17.2244 14.7629 17.2796 14.8471ZM19.9505 13.6553H18.4364V14.1806H19.9135V14.7702H18.4364V15.3452L19.9505 15.3477V15.9473H17.7925V13.0577H19.9505V13.6553ZM21.6119 15.9473H20.3527V15.3276H21.6069C21.7296 15.3276 21.8166 15.3103 21.871 15.256C21.9155 15.2114 21.9474 15.1464 21.9474 15.0677C21.9474 14.9834 21.9128 14.9166 21.8685 14.8765C21.8191 14.8324 21.7508 14.8125 21.6383 14.8125C21.0336 14.7903 20.2763 14.8324 20.2763 13.9181C20.2763 13.4989 20.523 13.0578 21.2008 13.0578H22.4971V13.6727H21.3109C21.1934 13.6727 21.1169 13.6775 21.0519 13.725C20.981 13.7718 20.9548 13.8412 20.9548 13.9328C20.9548 14.0418 21.0149 14.116 21.0962 14.1481C21.1645 14.1734 21.2377 14.1808 21.3478 14.1808L21.6959 14.191C22.0468 14.1999 22.2879 14.2649 22.4343 14.4233C22.5601 14.5624 22.6277 14.7381 22.6277 15.0354C22.6277 15.6571 22.264 15.9473 21.6119 15.9473ZM16.5972 13.702C16.5191 13.6524 16.4038 13.6498 16.2888 13.6498H15.4926V14.2987H16.2781C16.4039 14.2987 16.5108 14.2939 16.5972 14.2391C16.681 14.185 16.7312 14.0854 16.7312 13.9618C16.7312 13.8382 16.681 13.7488 16.5972 13.702ZM23.8215 13.6497C23.7039 13.6497 23.6256 13.6545 23.5598 13.7019C23.4916 13.7488 23.4654 13.8181 23.4654 13.9098C23.4654 14.0187 23.523 14.0929 23.6068 14.1251C23.675 14.1504 23.7482 14.1578 23.8559 14.1578L24.2064 14.1678C24.56 14.1771 24.7961 14.2421 24.94 14.4005C24.9662 14.4224 24.982 14.4471 25 14.4719V13.6498L23.8215 13.6497ZM13.4226 13.6497H12.5795V14.3856H13.4151C13.6635 14.3856 13.818 14.254 13.8181 14.004C13.818 13.7513 13.656 13.6497 13.4226 13.6497ZM7.79601 13.6497V14.1751H9.21543V14.7646H7.79601V15.3395H9.38567L10.1242 14.4918L9.41704 13.6497H7.79601ZM11.947 15.6704V13.3538L10.9543 14.4934L11.947 15.6704ZM7.85027 11.0311V11.529H13.2521L13.2496 10.4757H13.3542C13.4274 10.4784 13.4487 10.4856 13.4487 10.6147V11.529H16.2426V11.2838C16.4679 11.4127 16.8184 11.529 17.2796 11.529H18.455L18.7066 10.8873H19.2643L19.5103 11.529H21.7752V10.9195L22.1182 11.529H23.9333V7.5H22.137V7.97583L21.8855 7.5H20.0423V7.97583L19.8113 7.5H17.3215C16.9047 7.5 16.5385 7.56212 16.2426 7.73527V7.5H14.5244V7.73527C14.336 7.5568 14.0794 7.5 13.7942 7.5H7.51711L7.09597 8.54066L6.66344 7.5H4.68637V7.97583L4.46913 7.5H2.78302L2.00003 9.41568V10.948L3.15784 8.05912H4.11852L5.21812 10.7943V8.05912H6.27346L7.11962 10.0189L7.89697 8.05912H8.97349V10.948H8.31075L8.30833 8.68548L7.37073 10.948H6.80303L5.86305 8.68348V10.948H4.54789L4.29946 10.3036H2.95322L2.70222 10.948H2.00003L2 11.5292H3.10479L3.35387 10.8875H3.91161L4.16004 11.5292H6.33368V11.0386L6.52768 11.5312H7.65606L7.85027 11.0311ZM16.3625 8.39585C16.5714 8.16528 16.8988 8.05895 17.3444 8.05895H17.9703V8.67795H17.3575C17.1217 8.67795 16.9883 8.71542 16.86 8.84913C16.7497 8.97074 16.6741 9.20069 16.6741 9.50347C16.6741 9.81298 16.7318 10.0361 16.8519 10.1819C16.9514 10.2962 17.1324 10.3309 17.3026 10.3309H17.593L18.5043 8.05905H19.473L20.5677 10.7915V8.05908H21.5522L22.6888 10.071V8.05908H23.3511V10.9479H22.4348L21.2092 8.77965V10.9479H19.8924L19.6409 10.3035H18.2977L18.0536 10.9479H17.2969C16.9827 10.9479 16.5848 10.8737 16.3594 10.6283C16.1322 10.3831 16.014 10.0508 16.014 9.52552C16.0139 9.09702 16.0845 8.70537 16.3625 8.39585ZM15.0326 8.05899H15.6923V10.9479H15.0326V8.05899ZM12.0581 8.05899H13.5453C13.8756 8.05899 14.1192 8.06835 14.3283 8.19736C14.5328 8.3264 14.6554 8.5148 14.6554 8.83697C14.6554 9.29761 14.3675 9.53555 14.1999 9.60703C14.3413 9.66455 14.4622 9.76615 14.5198 9.85029C14.6111 9.99399 14.6268 10.1223 14.6268 10.3803V10.9478H13.9747L13.9723 10.5835C13.9723 10.4097 13.9878 10.1597 13.8702 10.0208C13.7758 9.91921 13.6317 9.89709 13.3989 9.89709H12.7048V10.9479H12.0582L12.0581 8.05899ZM9.45163 8.05899H11.6116V8.66057H10.0983V9.18129H11.5753V9.77348H10.0983V10.3504H11.6116V10.9478H9.45163V8.05899Z" fill="#2557D6"/>
<path d="M3.15784 8.05912L2.00003 10.948H2.70222L2.95322 10.3036H4.29946L4.54789 10.948H5.86305V8.68348L6.80303 10.948H7.37073L8.30833 8.68548L8.31075 10.948H8.97349V8.05912H7.89697L7.11962 10.0189L6.27346 8.05912H5.21812V10.7943L4.11852 8.05912H3.15784Z" fill="white"/>
<path d="M3.19353 9.71219L3.63352 8.56053L3.85484 9.13636L4.07616 9.71219H3.19353Z" fill="#2557D6"/>
<path d="M13.5453 8.05899H12.0581L12.0582 10.9479H12.7048V9.89709H13.3989C13.6317 9.89709 13.7758 9.91921 13.8702 10.0208C13.9878 10.1597 13.9723 10.4097 13.9723 10.5835L13.9747 10.9478H14.6268V10.3803C14.6268 10.1223 14.6111 9.99399 14.5198 9.85029C14.4622 9.76615 14.3413 9.66455 14.1999 9.60703C14.3675 9.53555 14.6554 9.29761 14.6554 8.83697C14.6554 8.5148 14.5328 8.3264 14.3283 8.19736C14.1192 8.06835 13.8756 8.05899 13.5453 8.05899Z" fill="white"/>
<path d="M13.972 8.98269C13.972 9.10894 13.9226 9.2106 13.8387 9.25733C13.7498 9.31495 13.6447 9.31692 13.5189 9.31689H12.7334V8.67521H13.5296C13.6423 8.67521 13.7598 8.6806 13.8362 8.72727C13.9201 8.76938 13.972 8.85897 13.972 8.98269Z" fill="#2557D6"/>
<path d="M15.6923 8.05899H15.0326V10.9479H15.6923V8.05899Z" fill="white"/>
<path d="M17.3444 8.05895C16.8988 8.05895 16.5714 8.16528 16.3625 8.39585C16.0845 8.70537 16.0139 9.09702 16.014 9.52552C16.014 10.0508 16.1322 10.3831 16.3594 10.6283C16.5848 10.8737 16.9827 10.9479 17.2969 10.9479H18.0536L18.2977 10.3035H19.6409L19.8924 10.9479H21.2092V8.77965L22.4348 10.9479H23.3511V8.05908H22.6888V10.071L21.5522 8.05908H20.5677V10.7915L19.473 8.05905H18.5043L17.593 10.3309H17.3026C17.1324 10.3309 16.9514 10.2962 16.8519 10.1819C16.7318 10.0361 16.6741 9.81298 16.6741 9.50347C16.6741 9.20069 16.7497 8.97074 16.86 8.84913C16.9883 8.71542 17.1217 8.67795 17.3575 8.67795H17.9703V8.05895H17.3444Z" fill="white"/>
<path d="M18.5284 9.70396L18.9734 8.5523L19.4208 9.70396H18.5284Z" fill="#2557D6"/>
<path d="M12.5934 14.9781H13.4002C13.9654 14.9781 14.5261 14.8124 14.5261 14.0097C14.5261 13.2095 13.9496 13.0577 13.4365 13.0577H11.3704L10.548 14.0049L9.75255 13.0577H7.15202V15.9473H9.71316L10.5405 14.9908L11.3367 15.9473H12.5934V14.9781Z" fill="white"/>
<path d="M12.5795 13.6497H13.4226C13.656 13.6497 13.818 13.7513 13.8181 14.004C13.818 14.254 13.6635 14.3856 13.4151 14.3856H12.5795V13.6497Z" fill="#2557D6"/>
<path d="M7.79601 14.1751V13.6497H9.41704L10.1242 14.4918L9.38567 15.3395H7.79601V14.7646H9.21543V14.1751H7.79601Z" fill="#2557D6"/>
<path d="M11.947 13.3538V15.6704L10.9543 14.4934L11.947 13.3538Z" fill="#2557D6"/>
<path d="M17.3868 15.3745C17.3841 15.1198 17.3709 14.9881 17.2796 14.8471C17.2244 14.7629 17.1068 14.6612 16.9629 14.6045C17.1331 14.5322 17.4212 14.297 17.4212 13.8358C17.4212 13.5062 17.2928 13.3258 17.0887 13.1941C16.8765 13.0733 16.6382 13.0578 16.3107 13.0578H14.8181V15.9473H15.4677V14.892H16.1587C16.3946 14.892 16.5387 14.9168 16.6331 15.0202C16.7533 15.1546 16.7376 15.412 16.7376 15.5858V15.9473H17.3868V15.3745Z" fill="white"/>
<path d="M16.2888 13.6498C16.4038 13.6498 16.5191 13.6524 16.5972 13.702C16.681 13.7488 16.7312 13.8382 16.7312 13.9618C16.7312 14.0854 16.681 14.185 16.5972 14.2391C16.5108 14.2939 16.4039 14.2987 16.2781 14.2987H15.4926V13.6498H16.2888Z" fill="#2557D6"/>
<path d="M18.4364 13.6553H19.9505V13.0577H17.7925V15.9473H19.9505V15.3477L18.4364 15.3452V14.7702H19.9135V14.1806H18.4364V13.6553Z" fill="white"/>
<path d="M20.3527 15.9473H21.6119C22.264 15.9473 22.6277 15.6571 22.6277 15.0354C22.6277 14.7381 22.5601 14.5624 22.4343 14.4233C22.2879 14.2649 22.0468 14.1999 21.6959 14.191L21.3478 14.1808C21.2377 14.1808 21.1645 14.1734 21.0962 14.1481C21.0149 14.116 20.9548 14.0418 20.9548 13.9328C20.9548 13.8412 20.981 13.7718 21.0519 13.725C21.1169 13.6775 21.1934 13.6727 21.3109 13.6727H22.4971V13.0578H21.2008C20.523 13.0578 20.2763 13.4989 20.2763 13.9181C20.2763 14.8324 21.0336 14.7903 21.6383 14.8125C21.7508 14.8125 21.8191 14.8324 21.8685 14.8765C21.9128 14.9166 21.9474 14.9834 21.9474 15.0677C21.9474 15.1464 21.9155 15.2114 21.871 15.256C21.8166 15.3103 21.7296 15.3276 21.6069 15.3276H20.3527V15.9473Z" fill="white"/>
<path d="M24.1201 15.9302H22.8714V15.3105H24.115C24.2383 15.3105 24.3247 15.2933 24.3767 15.239C24.4258 15.1905 24.4536 15.1221 24.4531 15.0506C24.4531 14.9663 24.4218 14.8995 24.3741 14.8595C24.3272 14.8154 24.2589 14.7953 24.1462 14.7953C23.5391 14.7733 22.7817 14.8153 22.7817 13.9009C22.7817 13.4819 23.0309 13.0407 23.7095 13.0407H24.9974L24.9987 13.6498V14.4719L24.9973 15.5607C24.8403 15.806 24.5342 15.9302 24.1201 15.9302Z" fill="white"/>
<path d="M23.5598 13.7019C23.6256 13.6545 23.7039 13.6497 23.8215 13.6497L25 13.6498V14.4719C24.982 14.4471 24.9662 14.4224 24.94 14.4005C24.7961 14.2421 24.56 14.1771 24.2064 14.1678L23.8559 14.1578C23.7482 14.1578 23.675 14.1504 23.6068 14.1251C23.523 14.0929 23.4654 14.0187 23.4654 13.9098C23.4654 13.8181 23.4916 13.7488 23.5598 13.7019Z" fill="white"/>
<path d="M11.6116 8.05899H9.45163V10.9478H11.6116V10.3504H10.0983V9.77348H11.5753V9.18129H10.0983V8.66057H11.6116V8.05899Z" fill="white"/>
</g>
</g>
</svg>
