<svg width="36" height="24" viewBox="0 0 36 24" fill="none" xmlns="http://www.w3.org/2000/svg">
<g id="Artwork" clip-path="url(#clip0_5009_53409)">
<path id="Vector" d="M32.7767 -0.0917969H3.2233C3.09932 -0.0917969 2.97753 -0.0917969 2.85355 -0.0917969C2.74915 -0.0917969 2.64693 -0.0917969 2.54253 -0.0872673C2.31634 -0.0804729 2.08797 -0.0668842 1.86612 -0.0261179C1.63992 0.0169131 1.42895 0.0848569 1.22233 0.195832C1.02006 0.302277 0.835186 0.442694 0.674239 0.610289C0.513291 0.777883 0.378444 0.97039 0.27622 1.18102C0.171822 1.39617 0.104398 1.61586 0.0652489 1.85139C0.0239246 2.08467 0.0108748 2.32247 0.00434993 2.55801C0.00217496 2.66672 0 2.77316 0 2.88187C0 3.0087 0 3.1378 0 3.26462V20.5495C0 20.6786 0 20.8054 0 20.9345C0 21.0432 0 21.1497 0.00434993 21.2584C0.0108748 21.4939 0.0239246 21.7295 0.0652489 21.9627C0.106573 22.1983 0.171822 22.418 0.27622 22.6331C0.378444 22.8437 0.513291 23.0363 0.674239 23.2039C0.835186 23.3714 1.02006 23.5119 1.22233 23.6183C1.42895 23.727 1.63992 23.7972 1.86612 23.8403C2.09014 23.881 2.31634 23.8969 2.54253 23.9014C2.64693 23.9037 2.74915 23.9059 2.85355 23.9059C2.97535 23.9059 3.09932 23.9059 3.2233 23.9059H32.7767C32.8985 23.9059 33.0225 23.9059 33.1464 23.9059C33.2508 23.9059 33.3531 23.9059 33.4575 23.9014C33.6837 23.8946 33.9099 23.881 34.1339 23.8403C34.3601 23.7972 34.571 23.7293 34.7777 23.6183C34.9799 23.5119 35.1648 23.3714 35.3258 23.2039C35.4867 23.0363 35.6216 22.8437 35.7238 22.6331C35.8282 22.418 35.8956 22.1983 35.9347 21.9627C35.9761 21.7295 35.9891 21.4939 35.9935 21.2584C35.9957 21.1497 35.9978 21.0432 35.9978 20.9345C35.9978 20.8054 35.9978 20.6786 35.9978 20.5495V3.26462C35.9978 3.13553 35.9978 3.0087 35.9978 2.87961C35.9978 2.7709 35.9978 2.66445 35.9935 2.55574C35.9869 2.32021 35.9739 2.0824 35.9347 1.85139C35.8934 1.61586 35.8282 1.39617 35.7238 1.18102C35.6216 0.97039 35.4867 0.777883 35.3258 0.610289C35.1648 0.442694 34.9799 0.302277 34.7777 0.195832C34.571 0.0871217 34.3601 0.0169131 34.1339 -0.0261179C33.9099 -0.0668842 33.6815 -0.0827377 33.4575 -0.0872673C33.3531 -0.0895321 33.2508 -0.0917969 33.1464 -0.0917969C33.0246 -0.0917969 32.9007 -0.0917969 32.7767 -0.0917969Z" fill="black"/>
<path id="Vector_2" d="M32.7746 0.707343H33.1378C33.2357 0.707343 33.3357 0.709608 33.4336 0.711872C33.6054 0.716402 33.8077 0.725461 33.9947 0.761698C34.1578 0.793405 34.2949 0.838701 34.4254 0.908909C34.5559 0.976853 34.6733 1.06744 34.7777 1.17615C34.8821 1.28486 34.9691 1.40943 35.0344 1.54532C35.1018 1.6812 35.1453 1.82389 35.1735 1.99374C35.2062 2.18625 35.217 2.39688 35.2214 2.57806C35.2236 2.67998 35.2257 2.78189 35.2257 2.88607C35.2257 3.0129 35.2257 3.13746 35.2257 3.26429V20.5492C35.2257 20.676 35.2257 20.8006 35.2257 20.9297C35.2257 21.0316 35.2257 21.1335 35.2214 21.2354C35.217 21.4166 35.2083 21.625 35.1735 21.822C35.1453 21.9919 35.0996 22.1323 35.0344 22.2682C34.9669 22.4041 34.8821 22.5286 34.7777 22.6373C34.6733 22.746 34.5559 22.8366 34.4232 22.9046C34.2927 22.9748 34.1557 23.0201 33.9947 23.0518C33.8033 23.088 33.5924 23.0971 33.4358 23.1016C33.3357 23.1039 33.2378 23.1061 33.1356 23.1061C33.0138 23.1061 32.8942 23.1061 32.7724 23.1061H3.21681C3.09719 23.1061 2.97756 23.1061 2.85577 23.1061C2.75572 23.1061 2.65784 23.1061 2.56214 23.1016C2.4012 23.0971 2.19023 23.088 2.001 23.0518C1.83788 23.0223 1.70086 22.9748 1.56819 22.9046C1.43769 22.8366 1.32024 22.746 1.21584 22.6373C1.11144 22.5286 1.02662 22.4063 0.959197 22.2704C0.891773 22.1345 0.848274 21.9919 0.817824 21.8197C0.783025 21.625 0.774325 21.4143 0.769975 21.2354C0.7678 21.1335 0.765625 21.0316 0.765625 20.9297V20.6285V20.5492V3.18503V2.88381C0.765625 2.78189 0.765625 2.67998 0.769975 2.5758C0.774325 2.39688 0.783025 2.18625 0.817824 1.98922C0.846099 1.81936 0.891773 1.67667 0.959197 1.54079C1.02445 1.4049 1.11144 1.2826 1.21584 1.17389C1.32024 1.06518 1.43769 0.976853 1.56819 0.906645C1.69868 0.836436 1.83571 0.79114 1.99883 0.759433C2.18588 0.723196 2.38815 0.714137 2.55997 0.709608C2.65784 0.707343 2.75789 0.705078 2.85359 0.705078H3.21898H32.7702" fill="white"/>
<g id="Group">
<g id="Group_2">
<path id="Vector_3" d="M9.82974 7.98078C10.1386 7.57991 10.3474 7.04089 10.293 6.48828C9.84279 6.51093 9.29035 6.79856 8.97281 7.19943C8.68571 7.54367 8.43342 8.10534 8.49867 8.63304C9.00543 8.67834 9.5122 8.37032 9.82974 7.97851" fill="black"/>
<path id="Vector_4" d="M10.2858 8.73739C9.55065 8.69209 8.92426 9.17223 8.57409 9.17223C8.22392 9.17223 7.68453 8.76004 7.10382 8.77136C6.34693 8.78269 5.64442 9.22885 5.25945 9.93773C4.46993 11.3555 5.05065 13.4595 5.81841 14.6168C6.19251 15.1875 6.64055 15.8171 7.23431 15.7945C7.79328 15.7718 8.01295 15.4163 8.69371 15.4163C9.37448 15.4163 9.5724 15.7945 10.164 15.7832C10.7795 15.7718 11.1623 15.2102 11.5364 14.6394C11.9649 13.9872 12.1389 13.3598 12.1519 13.3236C12.141 13.3123 10.9666 12.8435 10.9557 11.437C10.9448 10.2593 11.8779 9.69993 11.9214 9.66369C11.395 8.85289 10.5707 8.76004 10.2858 8.73739Z" fill="black"/>
</g>
<g id="Group_3">
<path id="Vector_5" d="M16.69 7.14258C18.2886 7.14258 19.4022 8.29083 19.4022 9.95998C19.4022 11.6291 18.2669 12.791 16.6509 12.791H14.8804V15.7216H13.6016V7.14258H16.69ZM14.8804 11.6744H16.3485C17.4621 11.6744 18.095 11.0493 18.095 9.96904C18.095 8.88873 17.4621 8.26818 16.3529 8.26818H14.8804V11.6744Z" fill="black"/>
<path id="Vector_6" d="M19.7365 13.9465C19.7365 12.8526 20.5413 12.18 21.9702 12.0962L23.6145 11.9943V11.5119C23.6145 10.8166 23.1643 10.3998 22.4096 10.3998C21.6962 10.3998 21.2503 10.7554 21.1416 11.3148H19.9758C20.0432 10.1847 20.9698 9.35352 22.4531 9.35352C23.9364 9.35352 24.839 10.1553 24.839 11.4099V15.7198H23.658V14.6916H23.6297C23.2817 15.3869 22.5227 15.8263 21.7332 15.8263C20.5565 15.8263 19.7344 15.0653 19.7344 13.942L19.7365 13.9465ZM23.6145 13.3826V12.8889L22.1355 12.984C21.3982 13.0383 20.9828 13.3758 20.9828 13.9125C20.9828 14.4493 21.4178 14.8162 22.079 14.8162C22.9403 14.8162 23.6145 14.1979 23.6145 13.3826Z" fill="black"/>
<path id="Vector_7" d="M25.957 18.0254V16.9859C26.0484 17.0086 26.2528 17.0086 26.3572 17.0086C26.9293 17.0086 27.2359 16.7594 27.4251 16.1162C27.4251 16.1049 27.5339 15.7357 27.5339 15.7289L25.3633 9.4668H26.6987L28.2168 14.5558H28.2386L29.7567 9.4668H31.0595L28.8106 16.0483C28.2973 17.5657 27.7035 18.0526 26.4573 18.0526C26.3551 18.0526 26.0462 18.0413 25.9549 18.0232L25.957 18.0254Z" fill="black"/>
</g>
</g>
</g>
<defs>
<clipPath id="clip0_5009_53409">
<rect width="36" height="24" fill="white" transform="translate(0 -0.0917969)"/>
</clipPath>
</defs>
</svg>
