<svg width="61" height="24" viewBox="0 0 61 24" fill="none" xmlns="http://www.w3.org/2000/svg">
<g id="&#239;&#163;&#191;Pay">
<path d="M11.4581 4.89188C10.0968 4.89188 8.99859 5.74993 8.28933 5.74993C7.54575 5.74993 6.55049 4.93955 5.3722 4.93955C3.13002 4.93955 0.853516 6.88208 0.853516 10.5169C0.853516 12.7931 1.70005 15.1885 2.74107 16.7497C3.62193 18.0487 4.41127 19.1212 5.53236 19.1212C6.64201 19.1212 7.13392 18.3585 8.51812 18.3585C9.91377 18.3585 10.2341 19.0974 11.4581 19.0974C12.6822 19.0974 13.4944 17.9414 14.2609 16.7973C15.1074 15.4745 15.4735 14.1874 15.4849 14.1278C15.4163 14.104 13.0826 13.1149 13.0826 10.3262C13.0826 7.91889 14.9129 6.84633 15.0159 6.76291C13.8147 4.93955 11.9729 4.89188 11.4581 4.89188ZM10.8289 3.35454C11.3781 2.65142 11.767 1.69803 11.767 0.73272C11.767 0.601629 11.7556 0.470538 11.7327 0.363281C10.8404 0.399033 9.74217 0.982985 9.09011 1.78145C8.58676 2.38923 8.10629 3.35454 8.10629 4.31985C8.10629 4.46286 8.12917 4.61778 8.14061 4.66545C8.19781 4.67737 8.28933 4.68929 8.38085 4.68929C9.19307 4.68929 10.2226 4.11725 10.8289 3.35454Z" fill="white"/>
<path d="M21.2276 1.70994V18.9067H24.1791V13.2698H27.7597C31.1001 13.2698 33.4338 10.934 33.4338 7.52562C33.4338 4.05767 31.1802 1.70994 27.8856 1.70994H21.2276ZM24.1791 4.2841H27.1077C29.2354 4.2841 30.4366 5.41625 30.4366 7.52562C30.4366 9.57541 29.2011 10.7195 27.0962 10.7195H24.1791V4.2841Z" fill="white"/>
<path d="M40.2176 16.7973C38.9592 16.7973 38.0555 16.1419 38.0555 15.0455C38.0555 13.9848 38.799 13.389 40.3892 13.2817L43.2148 13.091V14.1278C43.2148 15.6414 41.9335 16.7973 40.2176 16.7973ZM39.3825 19.1212C41.0183 19.1212 42.3911 18.3823 43.0889 17.1191H43.2834V18.9067H46.0175V10.0044C46.0175 7.2396 44.21 5.60692 40.9955 5.60692C38.0211 5.60692 35.9506 7.07276 35.7218 9.37281H38.3987C38.6618 8.49093 39.5541 8.01423 40.8582 8.01423C42.3911 8.01423 43.2148 8.72928 43.2148 10.0044V11.1008L39.9888 11.3034C36.9458 11.4941 35.2413 12.8527 35.2413 15.2123C35.2413 17.5958 36.9687 19.1212 39.3825 19.1212Z" fill="white"/>
<path d="M50.4218 23.6379C53.2245 23.6379 54.563 22.5653 55.6269 19.3238L60.1455 5.86911H57.1483L54.2312 16.0465H54.0367L51.1082 5.86911H47.9966L52.4695 18.9663L52.3208 19.5383C51.9547 20.742 51.2798 21.2187 50.0786 21.2187C49.8841 21.2187 49.4609 21.2068 49.3007 21.171V23.5902C49.4837 23.626 50.2502 23.6379 50.4218 23.6379Z" fill="white"/>
</g>
</svg>
