<svg width="6" height="11" viewBox="0 0 6 11" fill="none" xmlns="http://www.w3.org/2000/svg">
<path id="Vector" d="M4.18527 5.5007L0.220137 1.33982C-0.0733791 1.03182 -0.073379 0.53901 0.220137 0.231004C0.513653 -0.0770014 0.983279 -0.0770014 1.27679 0.231004L5.66352 4.83429C5.70622 4.86229 5.74358 4.89589 5.78093 4.93509C5.93036 5.09189 6.00507 5.2935 5.99973 5.5007C5.99973 5.7023 5.93036 5.90951 5.78093 6.06631C5.74358 6.10551 5.70622 6.13911 5.66352 6.16711L1.27679 10.7704C1.1327 10.9216 0.940585 11 0.748465 11C0.556346 11 0.364226 10.9216 0.220137 10.7704C-0.0733795 10.4624 -0.0733795 9.96958 0.220137 9.66158L4.18527 5.5007Z" fill="black"/>
</svg>
