<svg width="16" height="16" viewBox="0 0 16 16" fill="none" xmlns="http://www.w3.org/2000/svg">
<g id="back">
<path id="Vector" d="M7.7303 9.48721L7.99967 9.75659L8.26905 9.48721L12.3071 5.44912C12.4631 5.29313 12.6791 5.29313 12.8351 5.44912C12.9911 5.60511 12.9911 5.82105 12.8351 5.97704L8.26363 10.5485C8.10764 10.7045 7.8917 10.7045 7.73571 10.5485L3.16428 5.97704C3.11058 5.92333 3.08546 5.88477 3.0716 5.85359C3.05848 5.82407 3.04729 5.78291 3.04729 5.71308C3.04729 5.64324 3.05848 5.60208 3.0716 5.57256C3.08546 5.54138 3.11058 5.50282 3.16428 5.44912C3.32028 5.29313 3.53621 5.29313 3.6922 5.44912L7.7303 9.48721Z" fill="#0094FF" stroke="black" stroke-width="0.761905"/>
</g>
</svg>
