<svg width="18" height="12" viewBox="0 0 18 12" fill="none" xmlns="http://www.w3.org/2000/svg">
<g id="Group 4">
<path id="Vector" d="M3.40146 0.583984H7.73667C8.34182 0.583984 8.71821 1.09461 8.57704 1.72315L6.55869 10.6938C6.41625 11.3202 5.81035 11.8312 5.20477 11.8312H0.869986C0.265675 11.8312 -0.111557 11.3202 0.029614 10.6938L2.04881 1.72315C2.18998 1.09461 2.79556 0.583984 3.40146 0.583984Z" fill="#E21836"/>
<path id="Vector_2" d="M7.37775 0.583984H12.3631C12.9682 0.583984 12.6953 1.09461 12.553 1.72315L10.535 10.6938C10.3934 11.3202 10.4376 11.8312 9.83124 11.8312H4.84585C4.23953 11.8312 3.86431 11.3202 4.00675 10.6938L6.02468 1.72315C6.16796 1.09461 6.77227 0.583984 7.37775 0.583984Z" fill="#00447C"/>
<path id="Vector_3" d="M12.1588 0.583984H16.494C17.1 0.583984 17.4764 1.09461 17.3341 1.72315L15.316 10.6938C15.1736 11.3202 14.5673 11.8312 13.9614 11.8312H9.62817C9.02185 11.8312 8.64578 11.3202 8.7878 10.6938L10.8061 1.72315C10.9473 1.09461 11.5525 0.583984 12.1588 0.583984Z" fill="#007B84"/>
<path id="Vector_4" d="M4.53532 3.45725C4.08951 3.46195 3.95784 3.45725 3.91579 3.44696C3.89962 3.52649 3.59879 4.96307 3.59794 4.96428C3.53317 5.25492 3.48604 5.4621 3.32595 5.59588C3.23508 5.67365 3.12899 5.71117 3.00599 5.71117C2.80829 5.71117 2.69311 5.60955 2.67378 5.41681L2.67008 5.35063C2.67008 5.35063 2.73031 4.96132 2.73031 4.95914C2.73031 4.95914 3.04604 3.64999 3.10257 3.47694C3.10553 3.46709 3.10638 3.46195 3.10712 3.45725C2.49256 3.46282 2.38361 3.45725 2.37611 3.44696C2.37199 3.46107 2.35677 3.54224 2.35677 3.54224L2.03438 5.01777L2.0067 5.14291L1.95312 5.55223C1.95312 5.67366 1.97616 5.77276 2.02202 5.85655C2.1689 6.12225 2.58787 6.16207 2.82488 6.16207C3.13026 6.16207 3.41672 6.09491 3.6103 5.97228C3.94633 5.76674 4.03424 5.44547 4.11265 5.15997L4.149 5.0135C4.149 5.0135 4.47424 3.65381 4.5295 3.47694C4.53162 3.46709 4.53246 3.46195 4.53532 3.45725ZM5.64194 4.55412C5.56353 4.55412 5.42025 4.57381 5.29154 4.63911C5.24484 4.66394 5.20067 4.6926 5.15407 4.72115L5.19613 4.56396L5.17309 4.53749C4.90015 4.5947 4.83908 4.60236 4.58696 4.63911L4.56582 4.65366C4.53655 4.90492 4.51056 5.09384 4.40204 5.58772C4.36072 5.76974 4.31782 5.95351 4.27481 6.1351L4.28644 6.15818C4.54479 6.14407 4.6232 6.14406 4.84774 6.14789L4.86592 6.12744C4.89445 5.97616 4.89815 5.94071 4.96133 5.63432C4.99103 5.48905 5.05295 5.16986 5.08349 5.05621C5.1396 5.0293 5.19496 5.00283 5.2478 5.00283C5.37365 5.00283 5.35833 5.11648 5.35347 5.16177C5.34808 5.23779 5.30222 5.4861 5.2552 5.6993L5.22381 5.8369C5.20194 5.93853 5.17795 6.0373 5.15608 6.13805L5.16559 6.15818C5.42025 6.14407 5.49791 6.14406 5.71538 6.14789L5.74095 6.12744C5.78026 5.89116 5.79177 5.82793 5.86151 5.48391L5.8966 5.32585C5.96475 5.0165 5.99899 4.85964 5.94742 4.73187C5.8929 4.58868 5.76208 4.55412 5.64194 4.55412ZM6.87816 4.878C6.7428 4.90491 6.65647 4.92285 6.57067 4.93445C6.48561 4.94856 6.40266 4.96136 6.27184 4.98017L6.26149 4.98991L6.25198 4.99767C6.23834 5.09853 6.22883 5.18571 6.21077 5.28821C6.19544 5.3942 6.17188 5.51464 6.13352 5.68769C6.10383 5.82016 6.08851 5.86632 6.0716 5.91292C6.05512 5.95952 6.03694 6.0048 6.00355 6.13508L6.01137 6.14712L6.01792 6.15816C6.14018 6.15215 6.22017 6.14788 6.30238 6.14712C6.38448 6.14405 6.46954 6.14712 6.60121 6.14788L6.61272 6.13815L6.62509 6.12743C6.64411 6.00994 6.64696 5.97833 6.65858 5.92101C6.6701 5.85954 6.68997 5.77443 6.73868 5.54713C6.76171 5.44036 6.78739 5.33393 6.81127 5.22498C6.8361 5.11647 6.8621 5.0096 6.88682 4.90283L6.88313 4.88993L6.87816 4.878ZM6.88104 4.44131C6.75805 4.36616 6.54217 4.39 6.39688 4.49381C6.25201 4.59554 6.23552 4.73993 6.3581 4.81607C6.47898 4.88914 6.6957 4.86737 6.83973 4.76269C6.98428 4.65877 7.00235 4.51569 6.88104 4.44131ZM7.62489 6.18172C7.87374 6.18172 8.12882 6.11072 8.32081 5.90004C8.46854 5.72918 8.53627 5.47496 8.55973 5.37028C8.63612 5.0233 8.57663 4.8613 8.50193 4.76263C8.38844 4.61222 8.18788 4.56398 7.97983 4.56398C7.85472 4.56398 7.55673 4.57678 7.32395 4.79895C7.15678 4.9592 7.07954 5.17666 7.03294 5.38516C6.98592 5.59759 6.93182 5.98001 7.27154 6.12232C7.37636 6.16892 7.52746 6.18172 7.62489 6.18172ZM7.60545 5.40102C7.66282 5.13827 7.73056 4.91774 7.90343 4.91774C8.03889 4.91774 8.04872 5.08182 7.98849 5.34545C7.97771 5.40397 7.92826 5.62154 7.86137 5.71419C7.81467 5.78256 7.7594 5.82402 7.69833 5.82402C7.68015 5.82402 7.57206 5.82402 7.57036 5.65786C7.56952 5.57582 7.58569 5.49203 7.60545 5.40102ZM9.18179 6.14793L9.20123 6.12747C9.22881 5.97619 9.23336 5.94064 9.29443 5.63435C9.32497 5.48909 9.38816 5.16989 9.41785 5.05624C9.47407 5.02922 9.52848 5.00275 9.58301 5.00275C9.70801 5.00275 9.6928 5.1164 9.68783 5.16169C9.68329 5.23782 9.63743 5.48602 9.58956 5.69922L9.55987 5.83683C9.53715 5.93856 9.51242 6.03723 9.49055 6.13808L9.50006 6.15821C9.75556 6.1441 9.83027 6.1441 10.049 6.14793L10.0754 6.12747C10.1138 5.89108 10.1241 5.82786 10.196 5.48394L10.2302 5.32577C10.2987 5.01642 10.3334 4.85967 10.2826 4.73191C10.2265 4.58872 10.0949 4.55415 9.97641 4.55415C9.8979 4.55415 9.75387 4.57373 9.62591 4.63914C9.58016 4.66398 9.5343 4.69253 9.48928 4.72119L9.52849 4.564L9.50746 4.53741C9.23462 4.59473 9.17228 4.60239 8.92048 4.63914L8.90114 4.65369C8.8706 4.90496 8.84577 5.09376 8.73725 5.58775C8.69593 5.76977 8.65303 5.95354 8.61013 6.13513L8.62165 6.15821C8.88043 6.1441 8.95767 6.1441 9.18179 6.14793ZM11.059 6.15815C11.0751 6.07699 11.1705 5.5959 11.1713 5.5959C11.1713 5.5959 11.2526 5.24291 11.2576 5.23011C11.2576 5.23011 11.2831 5.19336 11.3087 5.17881H11.3463C11.7013 5.17881 12.1021 5.17881 12.4162 4.93958C12.63 4.7755 12.7761 4.5332 12.8413 4.23873C12.8582 4.16654 12.8707 4.08067 12.8707 3.9948C12.8707 3.88202 12.8488 3.77044 12.7856 3.68326C12.6254 3.45125 12.3064 3.44698 11.9382 3.44523C11.937 3.44523 11.7566 3.44698 11.7566 3.44698C11.2853 3.453 11.0962 3.45125 11.0186 3.44141C11.012 3.47696 10.9996 3.54018 10.9996 3.54018C10.9996 3.54018 10.8308 4.35031 10.8308 4.35162C10.8308 4.35162 10.4267 6.07403 10.4077 6.1552C10.8193 6.15006 10.988 6.15006 11.059 6.15815ZM11.3719 4.71905C11.3719 4.71905 11.5514 3.91057 11.5506 3.91363L11.5564 3.87217L11.5589 3.84056L11.6307 3.84822C11.6307 3.84822 12.0009 3.88114 12.0096 3.88202C12.1557 3.94054 12.216 4.09139 12.1739 4.28828C12.1356 4.46823 12.0228 4.61951 11.8779 4.69258C11.7586 4.75449 11.6125 4.75963 11.4619 4.75963H11.3645L11.3719 4.71905ZM12.4897 5.41599C12.4422 5.62536 12.3877 6.00778 12.7258 6.14408C12.8335 6.19155 12.9301 6.20566 13.0283 6.20052C13.1319 6.19472 13.228 6.1409 13.317 6.06346C13.3089 6.09529 13.3009 6.12712 13.2929 6.15906L13.3082 6.17952C13.5513 6.16891 13.6268 6.16891 13.8902 6.17099L13.9141 6.15217C13.9526 5.91808 13.9888 5.69077 14.0888 5.24294C14.1375 5.02843 14.1861 4.816 14.2361 4.60237L14.2282 4.57885C13.9562 4.63103 13.8836 4.64219 13.6219 4.68058L13.6021 4.69732C13.5994 4.71908 13.5967 4.73998 13.5941 4.76087C13.5534 4.69283 13.4945 4.63475 13.4035 4.59854C13.2872 4.55117 13.0139 4.61221 12.779 4.83361C12.614 4.99168 12.5347 5.20827 12.4897 5.41599ZM13.0609 5.42879C13.1192 5.17075 13.186 4.95241 13.3593 4.95241C13.4689 4.95241 13.5266 5.05709 13.5149 5.23561C13.5056 5.28013 13.4955 5.32706 13.4836 5.38011C13.4663 5.45679 13.4475 5.53282 13.4292 5.60895C13.4106 5.66102 13.3889 5.71014 13.3651 5.74284C13.3206 5.80826 13.2145 5.84884 13.1534 5.84884C13.1361 5.84884 13.0291 5.84884 13.0254 5.68563C13.0246 5.60436 13.0407 5.52068 13.0609 5.42879ZM16.044 4.57676L16.0229 4.55193C15.7538 4.60837 15.7051 4.61734 15.4578 4.65191L15.4397 4.67072C15.4388 4.67379 15.4381 4.67849 15.4368 4.68276L15.436 4.67849C15.2519 5.11812 15.2573 5.02328 15.1074 5.36938C15.1066 5.35363 15.1066 5.34379 15.1058 5.32705L15.0682 4.57676L15.0447 4.55193C14.7628 4.60837 14.7561 4.61734 14.4957 4.65191L14.4754 4.67072C14.4726 4.67969 14.4726 4.68954 14.4709 4.70026L14.4726 4.70409C14.5051 4.87626 14.4973 4.83787 14.53 5.10959C14.5452 5.24293 14.5655 5.37704 14.5807 5.50874C14.6064 5.72916 14.6207 5.83767 14.6521 6.17404C14.4763 6.47442 14.4347 6.58807 14.2654 6.85169L14.2665 6.85432L14.1473 7.04947C14.1337 7.07003 14.1214 7.08414 14.104 7.09016C14.085 7.09989 14.0603 7.10164 14.0259 7.10164H13.9599L13.8617 7.43965L14.1985 7.44567C14.3962 7.44479 14.5205 7.34908 14.5873 7.22044L14.7991 6.8448H14.7957L14.818 6.81833C14.9605 6.50089 16.044 4.57676 16.044 4.57676ZM12.4897 9.01598H12.3468L12.8756 7.20551H13.051L13.1067 7.019L13.1121 7.2264C13.1055 7.3546 13.2029 7.46826 13.4589 7.44944H13.7548L13.8567 7.10082H13.7453C13.6813 7.10082 13.6516 7.08409 13.6553 7.04821L13.6499 6.8372H13.1018V6.83829C12.9246 6.84212 12.3954 6.8559 12.2883 6.88544C12.1586 6.92001 12.022 7.02174 12.022 7.02174L12.0757 6.83501H11.563L11.4562 7.20551L10.9203 9.04365H10.8163L10.7144 9.38976H11.7355L11.7013 9.50516H12.2045L12.2379 9.38976H12.379L12.4897 9.01598ZM12.0707 7.57338C11.9886 7.5969 11.8358 7.66822 11.8358 7.66822L11.9717 7.20551H12.379L12.2808 7.54264C12.2808 7.54264 12.1549 7.5503 12.0707 7.57338ZM12.0785 8.23441C12.0785 8.23441 11.9506 8.25103 11.8664 8.27072C11.7834 8.29676 11.6279 8.3788 11.6279 8.3788L11.7682 7.89727H12.1776L12.0785 8.23441ZM11.8503 9.02024H11.4417L11.5601 8.61387H11.9675L11.8503 9.02024ZM12.8343 7.89727H13.4233L13.3387 8.18102H12.7419L12.6523 8.49125H13.1745L12.7791 9.06761C12.7514 9.10994 12.7265 9.12493 12.699 9.13685C12.6713 9.1514 12.6349 9.16846 12.5929 9.16846H12.448L12.3485 9.50822H12.7274C12.9244 9.50822 13.0407 9.41546 13.1266 9.29371L13.3977 8.90955L13.456 9.29962C13.4683 9.37269 13.5191 9.41546 13.5534 9.43209C13.5913 9.45178 13.6305 9.48558 13.6859 9.49061C13.7453 9.49324 13.7882 9.49532 13.8167 9.49532H14.0029L14.1147 9.11508H14.0413C13.9991 9.11508 13.9265 9.10776 13.9141 9.09408C13.9018 9.07746 13.9018 9.05186 13.8951 9.01292L13.8361 8.62196H13.5942L13.7003 8.49125H14.2959L14.3875 8.18102H13.8361L13.922 7.89727H14.4717L14.5737 7.54734H12.9346L12.8343 7.89727ZM7.8597 9.09926L7.99718 8.62583H8.56218L8.66542 8.27371H8.09988L8.18621 7.9823H8.73885L8.84125 7.64134H7.45848L7.35821 7.9823H7.67235L7.58856 8.27371H7.27357L7.16917 8.63184H7.48321L7.29998 9.2582C7.27526 9.34111 7.31161 9.37273 7.33464 9.41123C7.35821 9.44875 7.38209 9.47358 7.43577 9.48769C7.49114 9.50049 7.52907 9.50815 7.58064 9.50815H8.2176L8.33108 9.11807L8.04874 9.15822C7.99422 9.15822 7.84322 9.15143 7.8597 9.09926ZM7.92451 6.83288L7.78133 7.10077C7.75069 7.15929 7.72311 7.19561 7.69828 7.21234C7.6764 7.22645 7.63308 7.23236 7.57031 7.23236H7.49561L7.39575 7.57507H7.64386C7.76315 7.57507 7.85477 7.52979 7.89851 7.50714C7.94554 7.48111 7.9579 7.49599 7.99425 7.45967L8.07804 7.38452H8.8528L8.95561 7.0277H8.38849L8.4875 6.83288H7.92451ZM9.06829 9.10614C9.05508 9.08645 9.06459 9.05177 9.08478 8.97958L9.29654 8.25401H10.0498C10.1596 8.25237 10.2389 8.25105 10.2904 8.24723C10.3458 8.24121 10.406 8.22075 10.4717 8.184C10.5394 8.14549 10.5741 8.10491 10.6033 8.05831C10.636 8.01182 10.6884 7.91009 10.7334 7.75323L10.9996 6.83503L10.2178 6.83974C10.2178 6.83974 9.97714 6.87649 9.87115 6.91707C9.76422 6.96236 9.61142 7.08881 9.61142 7.08881L9.68201 6.83711H9.19911L8.52305 9.1582C8.49906 9.24834 8.483 9.31375 8.4793 9.35302C8.47804 9.39536 8.53087 9.43725 8.56511 9.46887C8.60558 9.50048 8.66538 9.49534 8.72276 9.50048C8.7831 9.50518 8.8689 9.50813 8.98735 9.50813H9.35846L9.47237 9.10996L9.14015 9.14245C9.10464 9.14245 9.07897 9.12276 9.06829 9.10614ZM9.43316 7.76395H10.2244L10.1741 7.92716C10.167 7.93099 10.1501 7.91906 10.0696 7.92891H9.38445L9.43316 7.76395ZM9.59166 7.21658H10.3896L10.3322 7.41315C10.3322 7.41315 9.95611 7.40932 9.89588 7.4208C9.63087 7.46828 9.47606 7.61486 9.47606 7.61486L9.59166 7.21658ZM10.1918 8.47369C10.1853 8.49808 10.1749 8.51296 10.1604 8.52412C10.1444 8.53484 10.1184 8.53867 10.0796 8.53867H9.96685L9.9735 8.33991H9.50455L9.48553 9.3116C9.48479 9.38172 9.49134 9.4223 9.5409 9.45479C9.59046 9.49537 9.74315 9.50051 9.94867 9.50051H10.2425L10.3486 9.1368L10.0928 9.15135L10.0077 9.15649C9.99611 9.15135 9.98502 9.14664 9.97266 9.13384C9.96188 9.1228 9.9437 9.12958 9.94666 9.05946L9.94867 8.81038L10.217 8.7989C10.3618 8.7989 10.4238 8.75011 10.4766 8.70362C10.527 8.6591 10.5435 8.60791 10.5625 8.53867L10.6075 8.31814H10.2388L10.1918 8.47369Z" fill="#FEFEFE"/>
</g>
</svg>
