<svg width="68" height="68" viewBox="0 0 68 68" fill="none" xmlns="http://www.w3.org/2000/svg">
<g id="Frame">
<path id="Subtract" fill-rule="evenodd" clip-rule="evenodd" d="M7.98771 12.4023H54.0079C57.9996 12.4023 61.2573 15.7059 61.2573 19.6977V27.1863C58.9126 26.1044 56.3019 25.501 53.5503 25.501C44.4886 25.501 36.9554 32.0456 35.4198 40.666H32.7905C32.0665 40.666 31.4795 41.2529 31.4795 41.9769V44.448C31.4795 45.172 32.0665 45.7589 32.7905 45.7589H35.2245C35.5176 48.7115 36.508 51.459 38.0287 53.8342H7.98771C3.99593 53.8342 0.738281 50.5766 0.738281 46.5848V19.6518C0.738281 15.66 3.99593 12.4023 7.98771 12.4023ZM23.1748 21.4609C23.1748 19.6508 21.7075 18.1835 19.8975 18.1835H9.2462C7.43619 18.1835 5.96888 19.6508 5.96888 21.4609V24.1745C5.96888 25.9845 7.43619 27.4518 9.24621 27.4518H19.8975C21.7075 27.4518 23.1748 25.9845 23.1748 24.1745V21.4609ZM28.4054 41.9769C28.4054 41.2529 27.8185 40.666 27.0945 40.666H19.8975C19.1735 40.666 18.5866 41.2529 18.5866 41.9769V44.448C18.5866 45.172 19.1735 45.7589 19.8975 45.7589H27.0945C27.8185 45.7589 28.4054 45.172 28.4054 44.448V41.9769ZM15.8336 41.9769C15.8336 41.2529 15.2467 40.666 14.5227 40.666H7.32569C6.60169 40.666 6.01476 41.2529 6.01476 41.9769V44.448C6.01476 45.172 6.60169 45.7589 7.32569 45.7589H14.5227C15.2467 45.7589 15.8336 45.172 15.8336 44.448V41.9769Z" fill="#FC2E01"/>
<path id="Subtract_2" fill-rule="evenodd" clip-rule="evenodd" d="M52.5 28.5C44.4971 28.5 38 34.9866 38 43C38 51.0134 44.4866 57.5 52.5 57.5C60.5029 57.5 67 51.0134 67 43C67 34.9866 60.5134 28.5 52.5 28.5ZM51.9151 35.508C51.5473 35.6114 51.2121 35.8106 50.9423 36.086C50.6834 36.35 50.493 36.6757 50.3882 37.0337H54.6118C54.5026 36.6604 54.3004 36.3225 54.025 36.0529C53.7496 35.7834 53.4104 35.5914 53.0405 35.4959C52.6707 35.4004 52.2829 35.4046 51.9151 35.508ZM49.839 34.504C49.0975 35.152 48.6072 36.0491 48.4565 37.0337H44.9444C44.8204 37.0337 44.6976 37.0586 44.583 37.1071C44.4684 37.1556 44.3643 37.2266 44.2766 37.3161C44.1889 37.4057 44.1194 37.512 44.0719 37.629C44.0244 37.746 44 37.8714 44 37.9981C44 38.1247 44.0244 38.2502 44.0719 38.3672C44.1194 38.4842 44.1889 38.5905 44.2766 38.68C44.3643 38.7696 44.4684 38.8406 44.583 38.8891C44.6976 38.9376 44.8204 38.9625 44.9444 38.9625H46.2037V49.5712C46.2037 50.0827 46.4027 50.5733 46.7569 50.9351C47.1112 51.2968 47.5916 51.5 48.0926 51.5H56.9074C57.4084 51.5 57.8888 51.2968 58.2431 50.9351C58.5973 50.5733 58.7963 50.0827 58.7963 49.5712V38.9625H60.0556C60.306 38.9625 60.5463 38.8609 60.7234 38.68C60.9005 38.4992 61 38.2539 61 37.9981C61 37.7423 60.9005 37.497 60.7234 37.3161C60.5463 37.1353 60.306 37.0337 60.0556 37.0337H56.5435C56.3928 36.0491 55.9025 35.152 55.161 34.504C54.4196 33.8561 53.4759 33.5 52.5 33.5C51.5241 33.5 50.5804 33.8561 49.839 34.504ZM50.7685 41.8571C50.7685 41.4134 50.4159 41.0534 49.9815 41.0534C49.547 41.0534 49.1944 41.4134 49.1944 41.8571V47.0032C49.1944 47.2164 49.2774 47.4208 49.425 47.5715C49.5726 47.7222 49.7727 47.8069 49.9815 47.8069C50.1902 47.8069 50.3904 47.7222 50.538 47.5715C50.6856 47.4208 50.7685 47.2164 50.7685 47.0032V41.8571ZM55.575 41.2888C55.7226 41.4395 55.8056 41.6439 55.8056 41.8571V47.0032C55.8056 47.2164 55.7226 47.4208 55.575 47.5715C55.4274 47.7222 55.2273 47.8069 55.0185 47.8069C54.8098 47.8069 54.6096 47.7222 54.462 47.5715C54.3144 47.4208 54.2315 47.2164 54.2315 47.0032V41.8571C54.2315 41.6439 54.3144 41.4395 54.462 41.2888C54.6096 41.1381 54.8098 41.0534 55.0185 41.0534C55.2273 41.0534 55.4274 41.1381 55.575 41.2888Z" fill="#FC2E01" fill-opacity="0.51"/>
</g>
</svg>
