<svg width="20" height="18" viewBox="0 0 20 18" fill="none" xmlns="http://www.w3.org/2000/svg">
<g id="Group 427324633">
<path id="Vector" d="M17.3301 6.6068C17 3.14078 14.1117 0.5 10.6456 0.5C7.42719 0.5 4.62137 2.48059 3.79612 5.28641C1.65049 5.28641 0 6.85438 0 9.00001C0 11.2282 1.32039 12.6311 3.63107 12.6311H7.0971C7.34467 12.6311 7.92234 12.466 7.92234 11.8058C7.92234 11.1456 7.42719 10.9806 7.0971 10.9806H3.63107C2.97088 10.9806 2.47573 10.8155 2.14563 10.4854C1.81554 10.1554 1.65049 9.6602 1.65049 9.00001C1.65049 7.5971 2.55826 6.68933 3.87865 6.68933H4.45632C4.78641 6.68933 5.11651 6.44175 5.11651 6.11166C5.61166 3.71845 7.83982 2.06796 10.6456 2.06796C13.699 2.06796 16.0097 4.29612 16.0097 7.18447C16.0097 7.5971 16.3398 7.84467 16.6699 7.84467C17.5777 7.84467 18.2379 8.66991 18.2379 9.66021C18.2379 10.568 17.7427 10.9806 16.6699 10.9806H12.7088C12.4612 10.9806 11.8835 11.1456 11.8835 11.8058C11.8835 12.466 12.3787 12.6311 12.7088 12.6311H16.1748C18.6505 12.6311 19.8059 11.1456 19.8059 9.74273C19.8059 8.17477 18.733 6.85438 17.3301 6.6068Z" fill="white"/>
<path id="Vector_2" d="M12.1307 13.786L10.7278 15.1064V8.41262C10.7278 8 10.3977 7.6699 9.90256 7.6699C9.40741 7.6699 9.07731 8 9.07731 8.41262V15.1889L7.59187 13.8685C7.26178 13.621 6.76663 13.621 6.51906 13.8685C6.35401 14.0336 6.27148 14.1986 6.27148 14.3637C6.27148 14.5287 6.35401 14.6938 6.51906 14.8588L9.32489 17.3346C9.48993 17.4996 9.65498 17.4996 9.90256 17.4996C10.1501 17.4996 10.3152 17.4171 10.4802 17.3346L13.2861 14.8588C13.4511 14.6938 13.5336 14.5287 13.5336 14.3637C13.5336 14.1986 13.4511 13.9511 13.2861 13.8685C12.956 13.5384 12.4608 13.5384 12.1307 13.786Z" fill="white"/>
</g>
</svg>
