<svg width="44" height="45" viewBox="0 0 44 45" fill="none" xmlns="http://www.w3.org/2000/svg">
<path d="M43 22.5C43 34.098 33.598 43.5 22 43.5C10.402 43.5 1 34.098 1 22.5C1 18.4668 2.13702 14.6991 4.108 11.5C7.80475 5.49985 14.4353 1.5 22 1.5C33.598 1.5 43 10.902 43 22.5Z" fill="#FC2E01"/>
<path d="M21.9999 44.2992C21.5999 44.2992 21.1999 43.9992 21.1999 43.4992C21.1999 42.9992 21.4999 42.6992 21.9999 42.6992C33.1999 42.6992 42.1999 33.5992 42.1999 22.4992C42.1999 11.3992 33.1999 2.29922 21.9999 2.29922C14.8999 2.29922 8.49992 5.89922 4.69992 11.8992C4.49992 12.2992 3.99992 12.3992 3.69992 12.0992C3.29992 11.8992 3.3059 11.4132 3.49992 11.0992C7.49992 4.59922 14.3999 0.699219 21.9999 0.699219C33.9999 0.699219 43.7999 10.4992 43.7999 22.4992C43.7999 34.4992 33.9999 44.2992 21.9999 44.2992Z" fill="black"/>
<path d="M29.0999 30.2992C28.8999 30.2992 28.6999 30.1992 28.5999 30.0992L14.3999 15.9992C14.0999 15.6992 14.0999 15.1992 14.3999 14.8992C14.6999 14.5992 15.1999 14.5992 15.4999 14.8992L29.5999 28.9992C29.8999 29.2992 29.8999 29.7992 29.5999 30.0992C29.4999 30.1992 29.2999 30.2992 29.0999 30.2992Z" fill="black"/>
<path d="M14.8999 30.2992C14.6999 30.2992 14.4999 30.1992 14.3999 30.0992C14.0999 29.7992 14.0999 29.2992 14.3999 28.9992L28.4999 14.8992C28.7999 14.5992 29.2999 14.5992 29.5999 14.8992C29.8999 15.1992 29.8999 15.6992 29.5999 15.9992L15.4999 30.0992C15.2999 30.1992 15.0999 30.2992 14.8999 30.2992Z" fill="black"/>
</svg>
