<svg width="49" height="49" viewBox="0 0 49 49" fill="none" xmlns="http://www.w3.org/2000/svg">
<g id="Vector">
<path id="Vector_2" d="M45.521 37.0911C45.2702 37.509 44.8636 37.8102 44.3908 37.9283C43.9179 38.0465 43.4175 37.9719 42.9996 37.7211C42.5818 37.4703 42.2806 37.0637 42.1625 36.5909C42.0443 36.118 42.1189 35.6176 42.3697 35.1997C44.3097 31.9684 45.3315 28.269 45.325 24.5C45.325 12.9985 36.0015 3.675 24.5 3.675C12.9985 3.675 3.675 12.9985 3.675 24.5C3.675 36.0015 12.9985 45.325 24.5 45.325C28.2685 45.3316 31.9674 44.3103 35.1985 42.3709C35.4055 42.2467 35.6348 42.1646 35.8735 42.129C36.1122 42.0935 36.3555 42.1054 36.5896 42.1639C36.8237 42.2224 37.044 42.3265 37.2379 42.4701C37.4317 42.6138 37.5954 42.7942 37.7196 43.0011C37.8437 43.2081 37.9259 43.4374 37.9614 43.6761C37.9969 43.9148 37.9851 44.1581 37.9266 44.3922C37.8681 44.6263 37.764 44.8466 37.6203 45.0405C37.4767 45.2344 37.2962 45.398 37.0893 45.5222C33.287 47.8043 28.9346 49.0067 24.5 49C10.9693 49 0 38.0307 0 24.5C0 10.9693 10.9693 0 24.5 0C38.0307 0 49 10.9693 49 24.5C49 28.9957 47.7854 33.3181 45.521 37.0911ZM26.9825 24.5L31.948 29.4655C32.1132 29.628 32.2446 29.8217 32.3346 30.0352C32.4246 30.2487 32.4714 30.478 32.4724 30.7097C32.4733 30.9415 32.4284 31.1711 32.3401 31.3854C32.2519 31.5996 32.1221 31.7943 31.9582 31.9582C31.7943 32.1221 31.5997 32.2519 31.3854 32.3401C31.1711 32.4283 30.9415 32.4733 30.7097 32.4723C30.478 32.4714 30.2488 32.4246 30.0352 32.3346C29.8217 32.2446 29.628 32.1132 29.4655 31.948L24.5 26.9824L19.5345 31.948C19.3719 32.1132 19.1783 32.2446 18.9648 32.3346C18.7512 32.4246 18.522 32.4714 18.2903 32.4723C18.0585 32.4733 17.8289 32.4283 17.6146 32.3401C17.4003 32.2519 17.2056 32.1221 17.0418 31.9582C16.8779 31.7943 16.7481 31.5996 16.6599 31.3854C16.5716 31.1711 16.5267 30.9415 16.5276 30.7097C16.5286 30.478 16.5754 30.2487 16.6654 30.0352C16.7554 29.8217 16.8868 29.628 17.052 29.4655L22.0175 24.5L17.052 19.5345C16.8868 19.3719 16.7554 19.1783 16.6654 18.9648C16.5754 18.7512 16.5286 18.522 16.5276 18.2902C16.5267 18.0585 16.5716 17.8289 16.6599 17.6146C16.7481 17.4003 16.8779 17.2056 17.0418 17.0418C17.2056 16.8779 17.4003 16.7481 17.6146 16.6599C17.8289 16.5716 18.0585 16.5267 18.2903 16.5276C18.522 16.5286 18.7512 16.5754 18.9648 16.6654C19.1783 16.7554 19.3719 16.8868 19.5345 17.052L24.5 22.0175L29.4655 17.052C29.628 16.8868 29.8217 16.7554 30.0352 16.6654C30.2488 16.5754 30.478 16.5286 30.7097 16.5276C30.9415 16.5267 31.1711 16.5716 31.3854 16.6599C31.5997 16.7481 31.7943 16.8779 31.9582 17.0418C32.1221 17.2056 32.2519 17.4003 32.3401 17.6146C32.4284 17.8289 32.4733 18.0585 32.4724 18.2902C32.4714 18.522 32.4246 18.7512 32.3346 18.9648C32.2446 19.1783 32.1132 19.3719 31.948 19.5345L26.9825 24.5Z" fill="#FC2E01"/>
</g>
</svg>
