<svg width="28" height="25" viewBox="0 0 28 25" fill="none" xmlns="http://www.w3.org/2000/svg">
<g id="Frame 427327305">
<g id="Group 427323366">
<path id="Vector" d="M4.56736 21.1544C4.58516 21.1716 4.58516 21.1887 4.58516 21.2058C4.58516 21.2571 4.54957 21.2742 4.51397 21.2571C4.49618 21.24 4.47838 21.2229 4.46059 21.2058C4.44279 21.1544 4.4072 21.1202 4.35381 21.1031C4.31822 21.086 4.28263 21.0346 4.26483 21.0004C4.26483 20.9833 4.26483 20.9662 4.26483 20.9491C4.26483 20.9491 4.30042 20.9319 4.31822 20.9491C4.4072 21.0175 4.47838 21.086 4.56736 21.1544ZM4.69193 17.526C4.72753 17.5603 4.78091 17.5945 4.8521 17.5945C4.8521 17.5431 4.78092 17.4918 4.74532 17.4576C4.54957 17.2693 4.42499 17.0468 4.3894 16.9955C4.03348 16.4478 3.9445 15.6434 3.98009 15.5578C3.98009 15.5407 3.98009 15.0957 3.9267 15.0272C3.90891 15.0614 3.90891 15.0957 3.89111 15.1128C3.85552 15.3353 3.87332 15.5749 3.89111 15.8145C3.89111 15.883 4.06907 16.9441 4.69193 17.526ZM2.5742 15.8145H2.592C2.592 15.592 2.6098 15.1984 2.62759 14.9759C2.6098 14.9759 2.592 14.9759 2.592 14.9759C2.55641 15.1813 2.592 15.5578 2.5742 15.7632C2.55641 15.7803 2.55641 15.7974 2.5742 15.8145ZM4.8343 17.7999C4.8343 17.817 4.8343 17.8341 4.8343 17.8512C4.8699 17.8854 4.90549 17.9026 4.95888 17.8683C4.94108 17.817 4.92328 17.7828 4.8699 17.7828L4.8343 17.7999ZM2.96572 17.6287C3.00131 17.7314 3.0191 17.8341 3.07249 17.9368C3.10808 18.0053 3.25045 18.3647 3.30384 18.3818C3.32164 18.3647 3.0547 17.8341 3.0191 17.4918C3.00131 17.4918 2.98351 17.4918 2.96572 17.4918C2.96572 17.5431 2.96572 17.5945 2.96572 17.6287ZM2.75216 16.4649C2.69878 16.6189 2.69878 16.7216 2.82335 16.9099C2.76996 16.7387 2.85894 16.7387 2.75216 16.4649ZM3.39282 18.9808C3.37503 18.9637 3.37503 18.9466 3.35723 18.9295C3.32164 19.1177 3.32164 19.1177 3.4996 19.1691C3.46401 19.1006 3.42841 19.0322 3.39282 18.9808ZM2.52081 16.9612C2.50302 16.8585 2.46743 16.3622 2.46743 16.2082C2.46743 16.1739 2.46743 16.1226 2.46743 16.0884C2.43183 16.1226 2.43183 16.1397 2.43183 16.1739C2.39624 16.4135 2.43183 16.8928 2.43183 17.0126C2.44963 17.3206 2.68098 18.3304 2.76996 18.6727C2.94792 19.1862 3.30384 19.7852 3.42841 19.9221C3.44621 19.9735 3.51739 19.9906 3.57078 20.0077C3.37503 19.8023 3.21486 19.4772 3.21486 19.4772C2.69878 18.4674 2.55641 17.1666 2.52081 16.9612ZM16.4017 22.7119C16.3662 22.6777 16.295 22.6777 16.2772 22.729C16.2416 22.7975 16.1704 22.8146 16.117 22.8488C16.0814 22.866 16.0636 22.9002 16.0814 22.9344C16.0992 22.9515 16.1348 22.9686 16.1526 22.9686C16.2594 22.9344 16.3484 22.9173 16.4017 22.8146C16.4195 22.7804 16.4551 22.7461 16.4017 22.7119ZM15.8501 23.0371C15.8679 23.0542 15.9035 23.0884 15.9213 23.0713C15.939 23.0713 15.9568 23.02 15.9746 23.0029C15.9568 22.9858 15.9213 22.9686 15.8857 22.9515C15.8679 23.0029 15.8323 23.0371 15.8501 23.0371ZM4.31822 20.9491C4.30042 20.9491 4.28263 20.9491 4.26483 20.9491C4.26483 20.9662 4.24703 20.9833 4.26483 21.0004C4.30042 21.0346 4.31822 21.086 4.35381 21.1031C4.4072 21.1373 4.44279 21.1544 4.46059 21.2058C4.46059 21.2229 4.49618 21.24 4.51397 21.2571C4.54957 21.2742 4.58516 21.2571 4.58516 21.2058C4.58516 21.1887 4.58516 21.1544 4.56736 21.1544C4.47838 21.086 4.4072 21.0175 4.31822 20.9491ZM25.282 11.9465C25.282 11.9636 25.282 11.9807 25.282 11.9978C25.2642 12.0492 25.2464 12.1005 25.2286 12.1519C25.2286 12.1519 23.6981 20.9491 23.4134 21.086C23.2888 21.0346 22.7016 19.5456 22.7016 19.5456L22.6482 19.4943L22.6126 19.3402L22.577 19.2889C22.5058 19.3745 22.4168 19.4429 22.3278 19.5114C22.31 19.5285 22.2922 19.5285 22.2566 19.5456C22.2566 19.5114 22.2566 19.4943 22.2566 19.46C22.1499 19.5456 22.0075 19.6825 21.7762 19.8708C21.4736 20.1789 21.0287 20.5554 20.3881 20.9319C20.3347 21.0175 20.1389 21.1373 20.1567 21.1373C20.0677 21.1887 19.9965 21.24 19.9076 21.2914C19.872 21.3598 19.8186 21.3769 19.8008 21.3941C19.7296 21.4625 19.6406 21.5139 19.5516 21.5652C19.3381 21.6679 19.1245 21.7706 18.8932 21.8904C18.7508 21.976 18.5907 22.0615 18.4483 22.13C18.3949 22.1642 18.3593 22.1985 18.3059 22.2156C17.8432 22.4894 17.3627 22.7119 16.8288 22.8831C16.7221 22.9173 16.6153 22.9515 16.5085 23.0029C16.295 23.1569 16.0636 23.2596 15.7967 23.3109C15.5297 23.3623 15.2628 23.4821 14.9781 23.5334C13.8391 23.8415 12.8425 23.9442 11.6858 24.0298C10.9384 24.0811 9.94177 23.9613 9.78161 23.9442C9.835 23.8929 9.87059 23.8586 9.94177 23.8929C9.97737 23.91 10.0308 23.91 10.0841 23.91C10.1375 23.91 10.2087 23.8757 10.2621 23.8757C10.8316 23.9613 12.0951 23.8415 12.3264 23.8244C14.6221 23.619 16.295 22.4552 16.295 22.4552C16.295 22.4552 13.9815 23.5334 12.1663 23.6704C10.5468 23.7902 9.08756 23.6532 8.94519 23.6361C8.85621 23.619 8.57148 23.5848 8.19776 23.4992C7.98421 23.4821 7.71727 23.4136 7.36134 23.2938C7.30796 23.2938 7.25457 23.2938 7.21898 23.2425C7.16559 23.2254 7.1122 23.2083 7.05881 23.1911C7.04102 23.1911 7.02322 23.1911 7.00542 23.1911C6.96983 23.174 6.91644 23.1569 6.88085 23.1398C6.84526 23.1227 6.82746 23.1056 6.79187 23.0884C6.54273 22.9858 6.29358 22.866 6.06223 22.729C5.86648 22.6092 5.67072 22.4894 5.47496 22.3525C5.36819 22.3012 5.2792 22.2498 5.19022 22.1642C5.11904 22.0787 5.03006 22.0102 4.94108 21.9246C4.10466 21.1887 3.62417 20.4527 3.58858 20.4185C3.64197 20.3843 3.65976 20.4185 3.67756 20.4356C3.71315 20.4698 4.05128 20.8635 4.12246 20.8635C4.15805 20.8121 4.12246 20.7779 4.08687 20.7266C3.9623 20.5896 4.05128 20.6581 3.9267 20.5212C3.87332 20.4698 3.90891 20.4356 3.99789 20.5212C4.21144 20.6752 4.21144 20.6239 4.31822 20.7094C4.33601 20.7266 4.44279 20.7608 4.51397 20.7437C4.54957 20.6923 4.3894 20.5041 4.33601 20.4356C4.24703 20.2987 4.06907 20.1446 4.03348 20.1275C3.9623 20.0933 4.06907 20.0933 4.03348 20.0248C4.01568 19.9735 3.80213 19.8366 3.81993 19.751C3.83772 19.6825 3.98009 19.905 4.08687 20.0077C4.12246 20.042 4.17585 20.042 4.22924 20.0933C4.28263 20.1275 4.62075 20.641 4.69193 20.7094C4.78092 20.7779 5.20802 21.2058 5.40378 21.3598C5.51055 21.4283 6.08003 21.8733 6.96983 22.1813C7.64608 22.421 9.24773 22.5065 9.24773 22.5065C9.24773 22.5065 7.68167 22.1985 7.0944 21.976C5.51055 21.3598 5.01226 20.6752 4.97667 20.6239C4.78092 20.4185 3.87332 19.4429 3.78434 19.3402C3.76654 19.2375 3.62417 19.0835 3.62417 19.0322C3.62417 18.9808 3.69535 18.9979 3.71315 19.015C3.74874 19.0493 3.85552 19.2889 3.90891 19.2204C3.98009 19.1691 3.83772 19.1177 3.83772 19.0664C3.80213 18.8952 3.73095 18.6899 3.64197 18.6214C3.57078 18.5701 3.53519 18.4674 3.44621 18.2962C3.41062 18.2449 3.41062 18.1764 3.42841 18.1251C3.44621 18.1251 3.44621 18.1251 3.46401 18.1079C3.4818 18.1422 3.51739 18.1764 3.53519 18.2277C3.58858 18.3304 3.9267 18.8952 3.9445 18.9124C4.03348 19.0322 4.12246 19.1349 4.21144 19.2375C4.35381 19.4258 4.54957 19.6483 4.76312 19.8195C5.10124 20.1275 5.43937 20.2645 5.43937 20.2645C4.63855 19.7339 4.37161 19.3402 3.9267 18.5872C3.74874 18.2791 3.69536 18.0224 3.64197 17.9539C3.58858 17.8341 3.55299 17.7143 3.51739 17.6458C3.46401 17.5431 3.37503 17.4576 3.30384 17.3549C3.25045 17.3891 3.32164 17.5774 3.33943 17.6287C3.35723 17.6801 3.39282 17.7143 3.37503 17.7828C3.33943 17.7999 3.30384 17.7485 3.30384 17.7485C3.25045 17.663 3.14368 17.4062 3.10808 17.3378C2.87674 16.8585 2.91233 16.482 2.91233 16.2766C2.89453 16.0199 2.91233 15.8316 2.91233 15.6605C2.91233 15.4038 3.0191 14.5309 3.0547 14.2913C3.0547 14.257 3.07249 14.2399 3.09029 14.1886C3.14368 14.3084 3.12588 14.394 3.12588 14.4966C3.12588 14.5822 3.12588 15.0786 3.12588 15.1813C3.09029 15.5578 3.09029 15.9001 3.25045 16.2424C3.39282 16.5676 3.30384 16.6018 3.65976 17.4233C4.79871 19.9393 7.07661 20.1618 7.07661 20.1618C7.07661 20.1618 4.8343 19.3916 3.87332 17.5774C3.58858 17.0297 3.78434 17.5431 3.53519 16.6189C3.4996 16.482 3.46401 16.2937 3.53519 16.2937C3.58858 16.2937 3.58858 16.1397 3.60637 16.0712C3.60637 16.0199 3.58858 15.9343 3.62417 15.9001C3.67756 15.883 3.65976 16.1568 3.71315 16.2595C3.76654 16.3793 3.58858 16.2595 3.85552 16.8585C3.87332 16.9099 4.21144 17.6972 5.15463 18.416C5.19022 18.4331 5.22582 18.4502 5.26141 18.4674C5.38598 18.5529 5.51055 18.6556 5.65292 18.7241C5.7419 18.7754 5.84868 18.7925 5.93766 18.8439C6.13342 18.9295 6.31138 19.0322 6.50713 19.1177C6.50713 19.1177 6.59611 19.152 6.73848 19.2204C6.79187 19.2375 6.84526 19.2547 6.89865 19.2718C7.00542 19.306 7.13 19.3402 7.23677 19.3573C7.25457 19.3573 7.27236 19.3573 7.29016 19.3573C7.45032 19.3916 7.59269 19.4258 7.75286 19.4429C7.85963 19.46 8.21556 19.4772 8.28674 19.5114C8.62486 19.5456 8.98079 19.5627 9.33671 19.5627C9.40789 19.5627 9.49687 19.5456 9.56806 19.5456C9.60365 19.5456 9.63924 19.5285 9.65704 19.5627C9.65704 19.5627 9.65704 19.5627 9.67483 19.5627C10.1019 19.5456 10.5112 19.4943 10.9028 19.4258C11.0629 19.3916 11.2587 19.3745 11.4011 19.3573H11.4188C11.4722 19.3573 11.5434 19.3402 11.5612 19.3402C11.5256 19.3402 11.6502 19.3231 11.6858 19.306C11.7392 19.2889 11.7926 19.2547 11.846 19.2375C12.0417 19.1862 12.2197 19.1006 12.4154 19.0322C12.8069 18.8952 13.2162 18.7241 13.6078 18.5872C13.6078 18.5872 13.7857 18.5187 14.0705 18.3989C14.4442 18.2277 14.8001 18.0395 15.156 17.8683C15.2094 17.8341 15.2628 17.7999 15.3162 17.8341C15.4763 17.7656 15.6365 17.6801 15.7967 17.5945C16.5975 17.1153 17.7898 16.191 17.772 16.191C17.8788 16.1226 18.0924 15.9343 18.0924 15.9514C18.2881 15.7974 18.3237 15.7632 18.3237 15.7118C18.3237 15.6605 18.0746 15.6091 18.0746 15.6091C18.0746 15.6091 16.0992 15.2155 16.0992 15.147C16.0992 15.0786 17.2382 14.7534 18.039 14.4624C18.0924 14.4282 18.1458 14.3768 18.1991 14.3597C18.9466 14.1715 20.2279 13.4869 20.9753 13.3328C23.3066 12.3915 24.6947 11.7069 24.8727 11.6213C25.282 11.433 25.2998 11.8267 25.2998 11.8267L25.282 11.9465ZM18.6085 16.0028C18.3593 16.2082 18.128 16.4135 17.8788 16.6018C17.6297 16.8072 17.3805 16.9955 17.1314 17.1666C16.8822 17.3549 16.6153 17.526 16.3484 17.6972C16.206 17.7828 16.0814 17.8683 15.939 17.9368C15.7967 18.0224 15.6543 18.0908 15.5119 18.1593C15.8145 18.0566 16.0992 17.9197 16.3839 17.7656C16.6687 17.6116 16.9356 17.4405 17.1848 17.2522C17.4339 17.0639 17.7009 16.8757 17.9322 16.6532C18.0568 16.5505 18.1636 16.4307 18.2881 16.328C18.3949 16.2253 18.5017 16.1226 18.6085 16.0028Z" fill="url(#paint0_linear_9194_57361)"/>
<path id="Vector_2" d="M22.2364 7.36683C22.2542 7.46952 22.2186 7.5551 22.1474 7.5551C22.0762 6.54531 21.6491 5.82647 21.6135 5.75801C21.7025 5.74089 21.7559 5.77512 21.7915 5.82647C21.8449 5.94628 22.1296 6.56242 22.2364 7.36683ZM21.6313 5.65532C21.6313 5.50128 20.6169 4.49149 20.5102 4.45726C20.4924 4.45726 20.4746 4.45726 20.439 4.47437C20.4568 4.5086 21.2754 5.19321 21.4712 5.55263C21.5068 5.62109 21.5601 5.65532 21.6313 5.65532ZM20.0119 4.14919C19.9941 4.14919 19.9763 4.14919 19.9407 4.14919C20.0119 4.21765 20.261 4.35457 20.3144 4.37168C20.3322 4.37168 20.1365 4.21765 20.0119 4.14919ZM22.183 8.08567C22.183 8.1199 22.2186 8.15413 22.2542 8.15413C22.2542 8.00009 22.2898 7.82894 22.2186 7.70914C22.2008 7.70914 22.183 7.72625 22.183 7.72625C22.183 7.84606 22.183 7.96586 22.183 8.08567ZM26.7388 8.53066C26.7032 8.71893 26.6676 8.89008 26.6142 9.06123C26.5964 9.23238 26.4896 9.48911 26.3651 9.72872C26.3473 9.78007 26.3295 9.8143 26.2939 9.86564C26.2227 10.0026 26.1693 10.1053 26.1159 10.1566C26.0447 10.2935 25.9558 10.4133 25.9202 10.4476C25.8668 10.5331 25.8134 10.6016 25.76 10.6872C25.7422 10.7214 25.671 10.6872 25.6888 10.6529C25.849 10.3106 25.9202 10.0026 25.938 9.72872C25.849 9.9341 25.5998 10.1566 25.5643 10.2422C25.5465 10.3106 25.3863 10.5502 25.3685 10.5502C25.2439 10.6358 25.0838 10.8241 25.0126 10.961C24.9592 11.0466 24.7634 11.1493 24.7456 11.1835C24.71 11.2349 24.6567 11.2691 24.5677 11.2862C24.6033 11.1322 24.6922 11.1322 24.7456 10.9952C24.8168 10.8754 24.8702 10.807 24.9236 10.6701C24.8524 10.6701 24.7634 10.8754 24.6922 10.8926C24.6211 10.9268 24.5677 10.8754 24.5499 10.8754C24.5855 10.7899 24.6033 10.6872 24.6567 10.6187C24.7634 10.5331 24.9236 9.89987 24.9236 9.84853C24.9236 9.71161 25.0482 9.35219 25.0838 9.2495C25.1016 9.18104 25.0126 8.94143 25.0482 8.77027C25.066 8.71893 24.9948 8.66758 24.9592 8.66758C24.888 8.6847 24.8524 8.97566 24.8524 9.04412C24.8524 9.04412 24.8524 9.07835 24.8346 9.11258C24.8524 9.18104 24.8702 9.21527 24.8702 9.23238C24.8702 9.28373 24.8524 9.42065 24.8346 9.62603C24.799 9.83141 24.6389 10.3449 24.4965 10.516C24.3719 10.6872 24.4075 10.6187 24.2295 10.7385C24.0516 10.8583 24.3897 10.7214 23.9982 10.9097C23.6067 11.0979 23.5533 11.1664 23.5355 11.2177C23.5177 11.2691 23.4999 11.0295 23.6067 10.961C23.6067 10.9439 23.6245 10.9268 23.6423 10.9097L24.0872 9.79718C24.194 9.38642 24.2295 8.87296 24.2295 8.85585C24.3185 8.27393 23.9626 7.04164 23.9626 7.04164C23.9626 7.04164 24.1762 8.35951 24.0516 8.95854C24.016 9.30084 23.8736 10.1395 23.3931 10.8583C23.3575 10.9097 23.0016 11.4231 22.9838 11.4231C22.8237 11.4916 22.6457 11.9366 22.5567 11.9195C22.5033 11.851 22.5567 11.6456 22.6813 11.5772C22.7703 11.5258 22.8948 11.4231 22.8948 11.3204C22.8948 11.2862 23.055 10.8412 23.1084 10.7899C23.1618 10.7214 23.2152 10.4989 23.144 10.4818C23.0906 10.4647 23.0372 10.4989 23.0194 10.5502C22.9838 10.6529 22.8593 10.9097 22.8237 10.9097C22.7169 10.961 22.6635 11.0466 22.5923 11.115C22.5567 11.1493 22.0406 11.8852 21.9517 11.8852C21.8983 11.8852 21.6135 12.0906 21.5601 12.142C21.5245 12.1933 21.4712 12.2446 21.4178 12.296C21.4 12.3131 21.311 12.3131 21.2576 12.3302C21.2398 12.3302 21.2042 12.3302 21.2042 12.3473L21.222 12.3302C21.222 12.3302 21.3288 12.2275 21.4178 12.0735C21.4 12.1077 21.3822 12.142 21.3644 12.1762C21.3822 12.1591 21.3822 12.142 21.4 12.1248C21.4 12.1248 21.4 12.1248 21.4 12.1077C21.4178 12.0906 21.4178 12.0564 21.4356 12.0393C21.4356 12.0393 21.4356 12.0393 21.4356 12.0222C21.4534 12.005 21.4534 11.9708 21.4712 11.9537V11.9366C21.489 11.9195 21.489 11.8852 21.5068 11.8681C21.5245 11.851 21.5245 11.8339 21.5423 11.7997C21.5423 11.7997 21.5423 11.7825 21.5601 11.7825C21.6135 11.6798 21.6669 11.5772 21.7025 11.4745C22.0406 10.7899 22.1652 10.4133 22.3432 9.67738C22.3966 9.43776 22.4855 8.49643 22.4855 8.37663C22.4855 8.18836 22.4855 8.08567 22.4677 8.01721C22.3788 5.92916 21.4178 4.69687 20.2966 3.99515C20.261 3.97803 20.2254 3.96092 20.2076 3.9438C20.0653 3.85823 19.9407 3.77265 19.7983 3.70419C19.7093 3.65285 19.6026 3.63573 19.4958 3.6015C19.3 3.53304 19.1043 3.44747 18.9085 3.36189C18.9085 3.36189 18.8195 3.32766 18.6594 3.27631C18.4636 3.22497 18.2501 3.17362 18.0543 3.12228C18.0365 3.12228 18.0187 3.12228 18.0187 3.10516C17.5916 3.0367 17.2357 3.00247 17.0043 3.00247C16.2569 3.00247 15.4205 3.05382 14.6197 3.19074C14.5663 3.20785 14.5129 3.22497 14.4595 3.22497C14.3527 3.24208 14.2638 3.29343 14.157 3.31054C13.9434 3.36189 13.7477 3.39612 13.5341 3.44747C13.5341 3.44747 13.4451 3.46458 13.3028 3.49881C13.285 3.49881 13.285 3.49881 13.2672 3.51593C13.0714 3.58439 12.8935 3.65285 12.6977 3.72131C12.6799 3.72131 12.6621 3.73842 12.6443 3.73842H12.6265C12.0392 3.9438 11.5232 4.14919 11.0249 4.37168C10.9893 4.3888 10.9181 4.44014 10.9003 4.44014C10.6334 4.55995 10.3842 4.71399 10.1173 4.86802L10.9893 5.14186C10.8291 5.21032 9.45881 5.62109 8.49783 5.84359C8.33766 5.89493 8.19529 5.96339 8.03513 5.98051C8.03513 5.96339 8.08852 5.94628 8.10631 5.92916C7.92835 5.96339 7.78598 5.99762 7.67921 5.99762C7.62582 5.99762 7.59023 5.99762 7.57243 5.98051C7.46565 5.8607 9.49441 3.24208 9.49441 3.24208L9.47661 4.0465C9.47661 4.0465 11.5765 2.54036 13.9612 1.80441C13.9968 1.7873 14.0324 1.7873 14.068 1.77018C14.0858 1.77018 14.1036 1.75307 14.1036 1.75307C14.3349 1.66749 14.5841 1.58191 14.8332 1.53057C14.8866 1.53057 14.94 1.51345 14.9934 1.47922C15.1002 1.42788 15.4739 1.37653 15.5451 1.37653C16.5594 1.15404 17.5916 1.03423 18.606 1.03423C18.7128 1.03423 18.8195 1.01712 18.9441 1.01712C18.9797 1.01712 19.0331 1.01712 19.0687 1.01712C19.0865 1 19.1221 1 19.1399 1C19.1577 1 19.1933 1 19.2289 1.01712C19.2822 1.01712 19.3178 1.01712 19.3712 1.03423C19.4068 1.01712 19.4246 1 19.4424 1C19.4958 1 19.5314 1 19.5848 1C19.7271 1.03423 19.8873 1.06846 20.0297 1.08558C20.1009 1.10269 20.172 1.10269 20.2254 1.10269C20.4746 1.13692 20.7237 1.17115 20.9729 1.25673C21.0263 1.27384 21.0796 1.29096 21.1508 1.29096C21.2754 1.29096 21.3822 1.32519 21.489 1.37653C21.5423 1.41076 21.6135 1.42788 21.6669 1.46211C23.0194 1.88999 24.2829 2.64305 25.3685 3.824C25.3685 3.824 25.4397 3.90957 25.5643 4.06361C25.582 4.08073 25.5998 4.11496 25.6354 4.1663L25.6532 4.18342C25.6532 4.18342 25.6532 4.20053 25.671 4.20053C25.671 4.21765 25.6888 4.23476 25.7066 4.23476C26.027 4.69687 26.7566 5.99762 26.6854 7.65779C26.7744 8.01721 26.7744 8.2397 26.7388 8.53066ZM25.0482 4.06361C25.3685 4.3888 25.671 4.76533 25.9202 5.19321C25.9736 5.2959 26.0447 5.38148 26.0981 5.48417C26.027 5.24455 25.9202 5.02206 25.8134 4.79956C25.6532 4.5086 25.4753 4.23476 25.2617 3.99515C24.9414 3.61862 24.6211 3.32766 24.3719 3.13939C23.9804 2.83132 23.4109 2.48902 22.8415 2.28364C22.8237 2.28364 24.0516 3.05382 24.6211 3.61862C24.7634 3.77265 24.9058 3.92669 25.0482 4.06361ZM12.8935 2.52325C12.3596 2.74574 11.2206 3.31054 10.9003 3.6015C11.2562 3.41324 12.4664 2.81421 12.9468 2.62594C14.0858 2.18094 14.851 1.92422 15.2425 1.80441C14.5485 1.9071 13.5519 2.24941 12.8935 2.52325Z" fill="url(#paint1_linear_9194_57361)"/>
<path id="Vector_3" d="M2.74401 10.8185C3.18891 10.0826 3.54483 9.55202 3.84736 9.20972C4.1321 8.86742 4.45243 8.59358 4.79055 8.37108C5.12868 8.14858 5.52019 7.97743 5.9295 7.87474C6.33881 7.77205 6.8193 7.7207 7.33539 7.7207H9.11499L8.50993 8.71338H6.62355C6.12526 8.71338 5.68036 8.81607 5.32443 9.03857C4.96851 9.26107 4.63039 9.62048 4.32785 10.0997H7.65572L7.06845 11.1095H3.74058L2.3347 13.4714H1.16016L2.74401 10.8185Z" fill="#575756"/>
<path id="Vector_4" d="M10.0245 7.7207H12.5515C12.9786 7.7207 13.299 7.73782 13.5303 7.78916C13.7617 7.84051 13.9218 7.90897 14.0108 8.01166C14.1532 8.18281 14.2244 8.38819 14.1888 8.66204C14.1532 8.93588 14.0286 9.24395 13.815 9.58625C13.6015 9.92856 13.3701 10.2195 13.121 10.4762C12.8719 10.7159 12.5871 10.9212 12.2668 11.0924C11.9998 11.2293 11.7507 11.3149 11.466 11.3833C11.199 11.4347 10.8253 11.4689 10.3448 11.4689H8.93892L7.74659 13.4714H6.58984L10.0245 7.7207ZM11.9287 8.74761H10.5762L9.56179 10.442H10.9855C11.3414 10.442 11.6439 10.3736 11.8931 10.2366C12.1422 10.0997 12.3558 9.87721 12.5337 9.60337C12.7117 9.2953 12.7651 9.0728 12.6761 8.95299C12.5693 8.81607 12.338 8.74761 11.9287 8.74761Z" fill="#575756"/>
<path id="Vector_5" d="M19.9542 8.7545H17.089C16.7865 8.7545 16.5195 8.80584 16.306 8.92565C16.0924 9.04546 15.8967 9.23372 15.7543 9.49045C15.6297 9.69583 15.5941 9.84987 15.6653 9.95256C15.7187 10.0552 15.8789 10.1066 16.128 10.1066H17.6585C18.2991 10.1066 18.6729 10.2264 18.7974 10.4831C18.922 10.7399 18.7974 11.1506 18.4593 11.7325C18.1034 12.3316 17.6941 12.7594 17.2136 13.0333C16.7331 13.3071 16.1636 13.444 15.5052 13.444H12.373L12.9959 12.4171H15.9145C16.2526 12.4171 16.5017 12.3658 16.6975 12.2631C16.8932 12.1604 17.0534 11.9893 17.1958 11.7668C17.3381 11.5272 17.3737 11.356 17.3204 11.2533C17.2492 11.1506 17.0712 11.0993 16.7687 11.0993H15.3984C14.7577 11.0993 14.384 10.9624 14.2416 10.7056C14.0993 10.4489 14.206 10.021 14.5442 9.45622C14.9179 8.84007 15.3272 8.39508 15.8077 8.12124C16.2882 7.8474 16.8577 7.69336 17.5339 7.69336H20.577L19.9542 8.7545Z" fill="#575756"/>
</g>
</g>
<defs>
<linearGradient id="paint0_linear_9194_57361" x1="2.40397" y1="17.8092" x2="25.2968" y2="17.8092" gradientUnits="userSpaceOnUse">
<stop stop-color="#5BC4F1"/>
<stop offset="0.1279" stop-color="#56BBE9"/>
<stop offset="0.3366" stop-color="#47A3D3"/>
<stop offset="0.6" stop-color="#307BAE"/>
<stop offset="0.905" stop-color="#0F447D"/>
<stop offset="1" stop-color="#04326C"/>
</linearGradient>
<linearGradient id="paint1_linear_9194_57361" x1="7.66079" y1="6.72048" x2="26.7737" y2="6.72048" gradientUnits="userSpaceOnUse">
<stop stop-color="#04326C"/>
<stop offset="0.1279" stop-color="#093B74"/>
<stop offset="0.3366" stop-color="#18538A"/>
<stop offset="0.6" stop-color="#2F7BAE"/>
<stop offset="0.905" stop-color="#50B2E0"/>
<stop offset="1" stop-color="#5BC4F1"/>
</linearGradient>
</defs>
</svg>
