<svg width="17" height="13" viewBox="0 0 17 13" fill="none" xmlns="http://www.w3.org/2000/svg">
<g id="JCB">
<path id="Vector" d="M16.8695 0.0051502H13.9163C13.815 -0.00171673 13.7134 -0.00171673 13.6122 0.0051502C13.111 0.056295 12.6459 0.295205 12.3058 0.676126C11.9658 1.05705 11.7747 1.5532 11.7693 2.06958V4.01117C11.7693 4.16233 11.7693 4.16233 11.9259 4.16233H14.8884C15.0699 4.16885 15.2497 4.20064 15.4229 4.25682C15.5435 4.2743 15.6591 4.31809 15.7618 4.38524C15.8645 4.45239 15.952 4.54134 16.0184 4.6461C16.0848 4.75086 16.1285 4.86899 16.1465 4.99253C16.1646 5.11607 16.1566 5.24214 16.1232 5.36226C16.0771 5.51661 15.9931 5.65627 15.8794 5.76792C15.7657 5.87957 15.6259 5.95947 15.4735 6.00001C15.386 6.02837 15.2985 6.04725 15.1833 6.08033C15.2338 6.10517 15.2886 6.11962 15.3445 6.12284C15.5786 6.14993 15.8038 6.23065 16.0034 6.35905C16.117 6.43526 16.211 6.53847 16.2773 6.65991C16.3437 6.78135 16.3805 6.91743 16.3846 7.05658C16.3886 7.19572 16.3599 7.33382 16.3007 7.45912C16.2416 7.58442 16.1538 7.69323 16.0449 7.77628C15.768 7.9773 15.4348 8.08014 15.0958 8.06918H11.8706C11.7324 8.06918 11.7324 8.06918 11.7324 8.20145V12.113C11.7324 12.25 11.7324 12.25 11.8752 12.25H14.8746C15.417 12.2461 15.9376 12.0304 16.3304 11.6469C16.7233 11.2634 16.9589 10.7409 16.9894 10.1856V0.12798C17.017 0.0051382 17.017 0.0051382 16.8695 0.0051382V0.0051502ZM12.8981 7.46922H14.096C14.1765 7.46978 14.2561 7.45082 14.3281 7.41388C14.4002 7.37693 14.4627 7.32306 14.5106 7.25664C14.5743 7.1788 14.6137 7.08307 14.6236 6.98194C14.6334 6.88082 14.6133 6.77899 14.5659 6.68975C14.5161 6.59142 14.4395 6.51005 14.3455 6.45553C14.2514 6.40102 14.1439 6.3757 14.0361 6.38267H12.8981C12.8243 6.38267 12.7967 6.4063 12.7967 6.48189V7.37475C12.7967 7.45505 12.829 7.47866 12.9119 7.47866L12.8981 7.46922ZM12.8981 5.79216H13.9439C14.0759 5.80013 14.2058 5.75539 14.3063 5.66731C14.4068 5.57923 14.4701 5.45467 14.483 5.31975C14.4874 5.25499 14.4788 5.18999 14.4576 5.1288C14.4365 5.06761 14.4032 5.01155 14.36 4.96412C14.3168 4.91669 14.2645 4.8789 14.2063 4.85312C14.1482 4.82734 14.0856 4.81411 14.0222 4.81427C13.6491 4.78121 13.2713 4.81427 12.8935 4.81427C12.8197 4.81427 12.8151 4.86151 12.8151 4.91349V5.73076C12.8151 5.80162 12.8428 5.82996 12.9165 5.82523L12.8981 5.79216Z" fill="url(#paint0_linear_4098_60369)"/>
<path id="Vector_2" d="M11.145 5.15514V10.0068C11.1633 10.3461 11.1066 10.6852 10.9791 10.9988C10.8229 11.3521 10.5764 11.6553 10.2657 11.8766C9.95507 12.0978 9.59183 12.2287 9.21449 12.2555C9.11936 12.2614 9.02397 12.2614 8.92884 12.2555H6.03545C5.88341 12.2555 5.88341 12.2555 5.88341 12.1137V7.56916C5.88341 7.5597 5.92488 7.56916 5.9433 7.56916C6.06028 7.6569 6.18527 7.73283 6.3165 7.79591C6.71512 7.97811 7.13988 8.09297 7.57429 8.13604C8.01044 8.18264 8.44952 8.1937 8.88738 8.16911C9.40691 8.14134 9.92322 8.06864 10.4308 7.95179C10.4434 7.95065 10.4556 7.94688 10.4667 7.94071C10.4778 7.93454 10.4875 7.9261 10.4953 7.91591C10.503 7.90573 10.5087 7.89401 10.5119 7.8815C10.5151 7.86898 10.5157 7.85593 10.5138 7.84315V7.20068C10.5138 7.10146 10.5138 7.09674 10.4124 7.13926C10.0581 7.30863 9.68303 7.42783 9.29743 7.49357C8.87332 7.58192 8.43505 7.56899 8.0166 7.45577C7.7673 7.3865 7.54497 7.23994 7.38003 7.03614C7.21508 6.83234 7.11558 6.58127 7.09514 6.31726C7.06055 6.0341 7.10196 5.74663 7.21492 5.48582C7.31115 5.27919 7.45735 5.10126 7.63961 4.96895C7.82188 4.83665 8.03413 4.75437 8.25617 4.72996C8.84976 4.64272 9.45523 4.71098 10.0162 4.92838C10.1636 4.98034 10.3064 5.04175 10.4492 5.1079C10.5138 5.13624 10.5322 5.1079 10.5322 5.05594V4.38511C10.5322 4.3237 10.5091 4.29535 10.4492 4.2859C10.0715 4.20401 9.69059 4.14102 9.30664 4.09694C8.90867 4.05579 8.50829 4.04473 8.10873 4.06386C7.51751 4.06751 6.93249 4.1878 6.38561 4.41817C6.2449 4.48162 6.11064 4.55915 5.98478 4.64965C5.95712 4.64965 5.93409 4.71106 5.89724 4.69217C5.86039 4.67329 5.89724 4.63076 5.89724 4.59769V1.96164C5.931 1.48278 6.1243 1.03038 6.44475 0.680312C6.76519 0.330242 7.19328 0.10379 7.65723 0.0389309C7.80989 0.0171981 7.96383 0.00614876 8.11796 0.00585938H10.9745C11.1265 0.00585938 11.1265 0.00585939 11.1265 0.157033L11.145 5.15514Z" fill="url(#paint1_linear_4098_60369)"/>
<path id="Vector_3" d="M5.26296 5.20238V10.1721C5.26889 10.4671 5.20982 10.7596 5.09016 11.0279C4.9705 11.2962 4.79333 11.5333 4.57186 11.7216C4.18745 12.0815 3.68712 12.2833 3.16664 12.2885H0.135022C0.00141885 12.2885 0.00141886 12.2885 0.00141886 12.1374V8.07936C0.00141886 7.95181 0.00141885 7.94709 0.139633 7.98016C0.957806 8.16275 1.79584 8.23422 2.63219 8.19274C3.10953 8.1883 3.58056 8.08044 4.01438 7.87623C4.24342 7.77512 4.43938 7.60878 4.57902 7.39694C4.71866 7.1851 4.79613 6.93665 4.80223 6.68104C4.83448 5.88265 4.80223 5.08428 4.80223 4.29064C4.80223 4.21505 4.77458 4.18671 4.69626 4.19143H3.11134C3.0192 4.19143 3.00077 4.22922 3.00077 4.30481V6.52514C3.00528 6.70455 2.96398 6.88205 2.88098 7.04006C2.78713 7.20395 2.65215 7.33904 2.49008 7.43127C2.32802 7.5235 2.1448 7.56948 1.95952 7.56444C1.35825 7.57873 0.761515 7.45442 0.213351 7.20068C-0.030835 7.09203 0.00140716 7.15346 0.00140716 6.88418V2.07031C-0.000941678 1.78416 0.0585775 1.50102 0.175685 1.24127C0.292793 0.981521 0.464579 0.751603 0.678691 0.568051C1.03851 0.234383 1.49831 0.0361283 1.98256 0.00585938H5.12935C5.25835 0.00585938 5.26296 0.00585936 5.26296 0.133418V5.20238Z" fill="url(#paint2_linear_4098_60369)"/>
</g>
<defs>
<linearGradient id="paint0_linear_4098_60369" x1="11.6677" y1="10.4865" x2="16.9471" y2="10.4865" gradientUnits="userSpaceOnUse">
<stop stop-color="#00753D"/>
<stop offset="1" stop-color="#58B332"/>
</linearGradient>
<linearGradient id="paint1_linear_4098_60369" x1="5.83297" y1="9.35187" x2="11.1125" y2="9.48808" gradientUnits="userSpaceOnUse">
<stop stop-color="#722B2F"/>
<stop offset="1" stop-color="#EF003A"/>
</linearGradient>
<linearGradient id="paint2_linear_4098_60369" x1="0" y1="10.6274" x2="5.27935" y2="10.6274" gradientUnits="userSpaceOnUse">
<stop stop-color="#1D2A71"/>
<stop offset="1" stop-color="#0072C3"/>
</linearGradient>
</defs>
</svg>
