<svg width="20" height="12" viewBox="0 0 20 12" fill="none" xmlns="http://www.w3.org/2000/svg">
<g id="Group 427324517">
<path id="rect19" d="M12.0933 1.31835L6.99609 1.33594L7.14885 10.5505L12.2461 10.5329L12.0933 1.31835Z" fill="#FF5F00"/>
<path id="XMLID_330_" d="M7.3341 5.96505C7.3029 4.09091 8.15337 2.42561 9.48518 1.34538C8.4802 0.566541 7.22019 0.0982337 5.85421 0.102928C2.61813 0.114049 0.0436695 2.74684 0.097646 5.98992C0.151623 9.23299 2.81342 11.8478 6.0495 11.8367C7.41548 11.832 8.65976 11.3551 9.6387 10.5694C8.27135 9.51475 7.36529 7.83918 7.3341 5.96505Z" fill="#EB001B"/>
<path id="path22" d="M19.1518 5.88317C19.2058 9.12625 16.6313 11.759 13.3952 11.7702C12.0293 11.7749 10.7692 11.3066 9.76425 10.5277C11.1123 9.44742 11.9465 7.78218 11.9153 5.90804C11.8842 4.0339 10.9784 2.37464 9.61073 1.30369C10.5897 0.51803 11.834 0.0411159 13.1999 0.0364215C16.436 0.0253003 19.0981 2.65639 19.1518 5.88317Z" fill="#F79E1B"/>
</g>
</svg>
