<svg width="80" height="106" viewBox="0 0 80 106" fill="none" xmlns="http://www.w3.org/2000/svg">
<g id="Group 427322901">
<g id="Element">
<path id="Shape" fill-rule="evenodd" clip-rule="evenodd" d="M6.65115 2.11223C4.10899 2.18193 2.1008 4.29611 2.17045 6.83893C2.24009 9.1866 4.73582 8.76725 5.15371 11.022C5.5716 13.2639 4.88673 13.9842 4.93316 15.5977C5.00281 18.0139 7.47532 17.7595 6.43059 22.521C5.39748 27.2721 0.61497 28.946 0.777483 34.6253L2.22849 85.6223C2.46065 93.6492 9.14687 99.9801 17.168 99.7478L48.5445 98.8522C56.5657 98.6199 62.8804 91.9288 62.6483 83.9019L61.1973 32.9072C61.0348 27.2257 56.763 25.8201 55.4513 21.1271C54.1396 16.4341 56.0433 16.5618 55.9737 14.1456C55.9272 12.5321 55.4629 11.1486 55.4049 9.25514C55.2888 5.89917 57.7265 7.5243 57.947 4.7596C58.214 1.37924 56.0433 0.705488 53.5128 0.776348L6.65115 2.11223Z" fill="white"/>
<g id="Group">
<mask id="mask0_9005_176359" style="mask-type:luminance" maskUnits="userSpaceOnUse" x="0" y="0" width="64" height="101">
<path id="Shape_2" fill-rule="evenodd" clip-rule="evenodd" d="M0.00195312 0H63.4275V100.527H0.00195312V0Z" fill="white"/>
</mask>
<g mask="url(#mask0_9005_176359)">
<path id="Shape_3" fill-rule="evenodd" clip-rule="evenodd" d="M53.8487 1.54611C53.7477 1.54611 53.6432 1.54728 53.5376 1.55076L6.67593 2.88664H6.67477C5.65095 2.91336 4.69793 3.33852 3.99332 4.08081C3.28987 4.82425 2.91725 5.79771 2.94511 6.81995C2.96833 7.6087 3.32005 7.88517 4.0502 8.38467C4.76641 8.87372 5.65675 9.48474 5.91561 10.8834C6.19536 12.3865 6.02124 13.3019 5.86686 14.1092C5.77283 14.6018 5.69157 15.0269 5.70783 15.5775C5.72756 16.2617 5.99222 16.6428 6.35904 17.169C7.04971 18.1622 7.90987 19.3982 7.18669 22.6891C6.70379 24.9136 5.48263 26.4853 4.30209 28.007C2.84412 29.8854 1.46741 31.6592 1.55099 34.6063L3.00199 85.6022C3.10879 89.2788 4.63873 92.6963 7.30973 95.2229C9.98306 97.7506 13.4666 99.0946 17.1487 98.9773L48.5252 98.0816C56.1076 97.8633 62.0985 91.5126 61.8802 83.9271L60.4292 32.9301C60.3422 29.9237 59.0049 28.2115 57.5876 26.397C56.4686 24.9647 55.3113 23.4836 54.71 21.3369C53.8057 18.0994 54.3374 16.8948 54.8063 15.8319C55.0408 15.3022 55.2254 14.8817 55.2056 14.1708C55.1847 13.4448 55.0698 12.7513 54.9491 12.0171C54.811 11.1807 54.6682 10.3142 54.6357 9.28146C54.5637 7.20096 55.3797 6.56439 56.2933 6.0463C56.8203 5.74892 57.1093 5.58397 57.1802 4.70112C57.2649 3.62428 57.0745 2.82972 56.6125 2.343C56.1029 1.80748 55.1975 1.54611 53.8487 1.54611ZM16.7448 100.527C8.51352 100.528 1.6996 93.9418 1.45932 85.6454L0.00831337 34.6484C-0.0915157 31.1484 1.522 29.069 3.08328 27.0594C4.2081 25.6108 5.27023 24.2413 5.67884 22.3583C6.25692 19.7248 5.69044 18.9117 5.09263 18.0521C4.67242 17.448 4.19765 16.765 4.16399 15.6219C4.14309 14.9029 4.24873 14.3511 4.35088 13.8179C4.49133 13.0791 4.62367 12.3821 4.39731 11.1647C4.25569 10.3957 3.80298 10.0867 3.17847 9.65924C2.40769 9.13185 1.45003 8.47553 1.40244 6.86318C1.36181 5.42623 1.88533 4.06015 2.87434 3.017C3.86218 1.97617 5.1971 1.38025 6.63186 1.34075L53.4935 0.00487115C55.5098 -0.0497258 56.8528 0.353362 57.7316 1.27803C58.5081 2.09582 58.8401 3.28882 58.7194 4.82218C58.5836 6.52398 57.6991 7.02464 57.0537 7.3894C56.4605 7.72627 56.1331 7.91097 56.1796 9.22943C56.2074 10.1622 56.3421 10.9777 56.4721 11.7664C56.5963 12.5169 56.724 13.2952 56.7484 14.1246C56.7785 15.1863 56.4814 15.8601 56.219 16.4548C55.8186 17.3609 55.4413 18.2159 56.1981 20.9201C56.7147 22.7718 57.7292 24.0705 58.803 25.4447C60.312 27.3754 61.871 29.3711 61.972 32.885L63.423 83.882C63.6668 92.3178 57.0037 99.3806 48.5694 99.6257L17.1928 100.521C17.0431 100.526 16.8934 100.527 16.7448 100.527Z" fill="black"/>
</g>
</g>
<path id="Shape_4" fill-rule="evenodd" clip-rule="evenodd" d="M18.3763 39.7841C14.7546 40.0977 12.2124 41.2117 6.8147 44.3377C6.74505 44.3842 6.75666 44.3725 6.6754 44.419C6.35038 44.6037 6.11822 44.721 5.81641 44.8941L6.91917 83.6823C7.11651 90.6638 12.9437 96.1583 19.9086 95.9597L47.1526 95.1814C54.1174 94.9851 59.608 89.1653 59.4107 82.1954L58.3079 43.6175C53.2933 45.2438 49.1608 45.964 44.6569 45.8362C41.0236 45.7317 38.1796 44.9406 32.1202 42.7346C30.8665 42.2804 30.4254 42.1074 29.787 41.8866C24.9116 40.1674 21.6846 39.4937 18.3763 39.7841Z" fill="black"/>
<path id="Shape_5" fill-rule="evenodd" clip-rule="evenodd" d="M2.66768 6.91469C2.25327 6.91469 1.90967 6.58479 1.8969 6.16544C1.88297 5.73912 2.21845 5.38366 2.64446 5.36972L57.3763 3.66211C57.7617 3.67024 58.1587 3.98504 58.1715 4.41137C58.1854 4.83769 57.8511 5.19431 57.4239 5.20709L2.69205 6.91469H2.66768Z" fill="black"/>
<path id="Shape_6" fill-rule="evenodd" clip-rule="evenodd" d="M4.82972 11.0865C4.41415 11.0865 4.07172 10.7554 4.05895 10.3372C4.04618 9.91092 4.38049 9.55545 4.8065 9.54151L55.2666 8.01977C55.6671 8.00932 56.049 8.34387 56.0618 8.76903C56.0745 9.19535 55.7391 9.55197 55.313 9.56475L4.8541 11.0865H4.82972Z" fill="black"/>
<path id="Shape_7" fill-rule="evenodd" clip-rule="evenodd" d="M53.4671 33.1915C53.0411 33.1915 52.6952 32.8453 52.6952 32.419C52.6952 29.6043 51.9209 28.4636 50.9424 27.0197C50.355 26.1543 49.691 25.175 49.1164 23.7369C48.3283 21.7761 48.3956 19.5992 48.4594 17.4931C48.4768 16.9495 48.4931 16.4116 48.4931 15.8877C48.4931 15.4614 48.839 15.1152 49.265 15.1152C49.691 15.1152 50.037 15.4614 50.037 15.8877C50.037 16.4267 50.0195 16.9808 50.0033 17.5407C49.9429 19.4865 49.8814 21.4996 50.55 23.1619C51.0619 24.4455 51.6505 25.3132 52.2193 26.1508C53.2582 27.683 54.2391 29.1292 54.2391 32.419C54.2391 32.8453 53.8931 33.1915 53.4671 33.1915Z" fill="black"/>
<path id="Shape_8" fill-rule="evenodd" clip-rule="evenodd" d="M10.3543 41.5917C10.3381 41.5917 10.323 41.5917 10.3068 41.5905C9.88074 41.565 9.55687 41.1979 9.58357 40.7727C9.61839 40.1907 9.63929 39.6657 9.65902 39.1813C9.75653 36.7802 9.82153 35.1957 11.3944 32.8295C11.6312 32.474 12.1106 32.3776 12.4647 32.6134C12.8199 32.8504 12.9162 33.3301 12.6794 33.6844C11.3457 35.6906 11.2981 36.8778 11.2017 39.244C11.182 39.7377 11.1599 40.2732 11.124 40.8657C11.0996 41.2769 10.7595 41.5917 10.3543 41.5917Z" fill="black"/>
<path id="Shape_9" fill-rule="evenodd" clip-rule="evenodd" d="M50.1343 84.965C49.7222 84.965 49.3798 84.6385 49.3635 84.2215L48.0982 51.1741C48.082 50.7478 48.414 50.3888 48.84 50.3737C49.2683 50.3238 49.6247 50.6885 49.6409 51.1149L50.9062 84.1634C50.9225 84.5898 50.5905 84.9475 50.1645 84.9638C50.154 84.965 50.1447 84.965 50.1343 84.965Z" fill="white"/>
<path id="Shape_10" fill-rule="evenodd" clip-rule="evenodd" d="M45.5497 89.5552C45.1353 89.5552 44.7929 89.2265 44.779 88.8071L43.8735 61.0324C43.8584 60.6061 44.1939 60.2494 44.6199 60.2355C45.0367 60.2123 45.4023 60.5549 45.4162 60.9824L46.3217 88.7572C46.3356 89.1847 46.0013 89.5401 45.5753 89.5552H45.5497Z" fill="white"/>
<g id="Group_2">
<path id="Shape_11" fill-rule="evenodd" clip-rule="evenodd" d="M12.9563 51.591C12.8407 47.7102 15.8814 44.4813 19.7546 44.3639C23.6162 44.2594 26.8304 47.3152 26.9344 51.1959C27.0501 55.0767 24.0093 58.3068 20.1477 58.4241C16.2861 58.5287 13.0604 55.4729 12.9563 51.591Z" fill="#FFBE00"/>
<path id="Shape_12" fill-rule="evenodd" clip-rule="evenodd" d="M15.5509 51.5109C15.6307 54.0299 17.6493 56.0284 20.0796 55.9563C22.4972 55.8878 24.4083 53.7824 24.339 51.2657C24.3054 50.0411 23.8129 48.9048 22.9539 48.0635C22.1006 47.2305 20.9803 46.7854 19.8218 46.8238C17.3996 46.8923 15.4838 48.9954 15.5509 51.5109ZM19.9611 57.503C16.7701 57.503 14.1201 54.8713 14.0161 51.5575V51.5552C13.9236 48.188 16.5088 45.3716 19.7796 45.2775C21.3555 45.2356 22.8747 45.827 24.0274 46.9553C25.1755 48.0777 25.8333 49.5939 25.8773 51.2218C25.9697 54.5901 23.3892 57.4066 20.1253 57.5007C20.0698 57.5018 20.0155 57.503 19.9611 57.503Z" fill="black"/>
<path id="Shape_13" fill-rule="evenodd" clip-rule="evenodd" d="M24.3665 88.2263C24.2509 84.3455 27.2916 81.1038 31.1532 80.9992C35.0148 80.8842 38.2405 83.94 38.3446 87.8196C38.4602 91.7004 35.4195 94.9421 31.5579 95.0466C27.6962 95.1628 24.4705 92.107 24.3665 88.2263Z" fill="#FFBE00"/>
<path id="Shape_14" fill-rule="evenodd" clip-rule="evenodd" d="M31.3564 83.4563C31.3159 83.4563 31.2743 83.4574 31.2339 83.4586C28.8082 83.5271 26.8936 85.6302 26.9618 88.148C26.9965 89.3738 27.4879 90.509 28.3481 91.3491C29.2013 92.1833 30.317 92.619 31.4905 92.59C33.9081 92.5226 35.8181 90.4184 35.7499 87.9005C35.7152 86.6515 35.2076 85.4989 34.3185 84.6542C33.5023 83.8792 32.4548 83.4563 31.3564 83.4563ZM31.3635 94.1362C29.8351 94.1362 28.3899 93.5437 27.2753 92.4561C26.1261 91.3349 25.4694 89.8198 25.4243 88.1896C25.3318 84.8213 27.917 82.0048 31.189 81.9119C32.7405 81.8747 34.2285 82.4429 35.3743 83.5292C36.5605 84.6574 37.2404 86.1946 37.2855 87.8562C37.3779 91.2245 34.7985 94.041 31.5323 94.1339C31.4757 94.1351 31.4202 94.1362 31.3635 94.1362Z" fill="black"/>
<path id="Shape_15" fill-rule="evenodd" clip-rule="evenodd" d="M33.1672 59.4601C33.0516 55.5794 36.1039 52.3493 39.9655 52.2331C43.8272 52.1285 47.0413 55.1843 47.1569 59.0651C47.261 62.9458 44.2203 66.1759 40.3586 66.2921C36.497 66.3967 33.2713 63.3409 33.1672 59.4601Z" fill="#FFBE00"/>
<path id="Shape_16" fill-rule="evenodd" clip-rule="evenodd" d="M35.7645 59.3878C35.8443 61.9091 37.8977 63.9157 40.2933 63.8321C42.7108 63.7647 44.622 61.6547 44.5526 59.131C44.5191 57.9075 44.0265 56.77 43.1675 55.9288C42.3142 55.0957 41.2147 54.6612 40.0354 54.6879C37.6121 54.7576 35.6963 56.8653 35.7645 59.3878ZM40.1697 65.3802C36.981 65.3802 34.3311 62.7496 34.227 59.4371V59.4336C34.1345 56.0594 36.7209 53.2371 39.9905 53.143C41.5849 53.0977 43.0856 53.6949 44.2383 54.822C45.3864 55.9444 46.0443 57.4607 46.0882 59.0885C46.1807 62.4638 43.6001 65.2849 40.3351 65.3779C40.2796 65.379 40.2241 65.3802 40.1697 65.3802Z" fill="black"/>
<path id="Shape_17" fill-rule="evenodd" clip-rule="evenodd" d="M33.3971 33.4682C34.114 29.6571 37.2703 27.0545 40.4267 27.6703C43.583 28.2745 45.5485 31.8531 44.8201 35.6642C44.1033 39.4752 40.9585 42.0779 37.8021 41.4737C34.6458 40.8695 32.6687 37.2792 33.3971 33.4682Z" fill="#FFBE00"/>
<path id="Shape_18" fill-rule="evenodd" clip-rule="evenodd" d="M35.6402 33.9019C35.409 35.1312 35.5709 36.3512 36.0969 37.3388C36.5929 38.2741 37.3583 38.8818 38.2532 39.0515C39.0197 39.2025 39.8117 39.0178 40.5378 38.5251C41.5621 37.828 42.3021 36.6266 42.5703 35.2265C43.0432 32.7586 41.8697 30.4487 39.9527 30.0769C38.0508 29.7109 36.1143 31.4317 35.6402 33.9019ZM38.7702 40.6464C38.5008 40.6464 38.2314 40.6197 37.9655 40.5685C36.6081 40.3118 35.4624 39.4229 34.7409 38.067C34.0518 36.7691 33.8356 35.1866 34.1305 33.6134C34.1305 33.6122 34.1305 33.6111 34.1316 33.6099C34.7663 30.3043 37.5099 28.0409 40.2431 28.5579C42.9948 29.0924 44.7152 32.2145 44.0805 35.5177C43.7371 37.3164 42.7601 38.8791 41.4005 39.804C40.5865 40.3582 39.6755 40.6464 38.7702 40.6464Z" fill="black"/>
<path id="Shape_19" fill-rule="evenodd" clip-rule="evenodd" d="M47.0749 67.8595C47.7917 64.0496 50.948 61.4458 54.1044 62.05C57.2607 62.6553 59.2262 66.234 58.4978 70.0567C57.781 73.8677 54.6362 76.4692 51.4799 75.8545C48.3235 75.2492 46.3465 71.6705 47.0749 67.8595Z" fill="#FFBE00"/>
<path id="Shape_20" fill-rule="evenodd" clip-rule="evenodd" d="M49.3218 68.285C48.8593 70.7622 50.0329 73.0778 51.9382 73.4473C53.8425 73.8203 55.7767 72.0925 56.2519 69.6212C56.5178 68.2269 56.2727 66.8407 55.5802 65.8171C55.083 65.0851 54.4124 64.6203 53.6378 64.4739C52.869 64.3229 52.0793 64.5053 51.3521 64.9991C50.33 65.6939 49.5889 66.8919 49.3218 68.285ZM52.4377 75.0402C52.1764 75.0402 51.9139 75.0158 51.6503 74.9659C48.9137 74.4337 47.1921 71.3094 47.8118 67.9979C47.8118 67.9968 47.8118 67.9956 47.813 67.9945C48.1564 66.1993 49.1333 64.6412 50.4918 63.7187C51.5497 63.0006 52.7695 62.731 53.928 62.9565C55.0911 63.1761 56.1316 63.8837 56.8519 64.948C57.7734 66.3085 58.1052 68.1176 57.7619 69.9128C57.1895 72.9023 54.8945 75.0402 52.4377 75.0402Z" fill="black"/>
<path id="Shape_21" fill-rule="evenodd" clip-rule="evenodd" d="M7.24507 69.2768C6.50512 65.4657 8.44749 61.8754 11.6038 61.248C14.7602 60.6206 17.9165 63.2105 18.6681 67.0111C19.408 70.8221 17.4656 74.4124 14.3093 75.0398C11.1529 75.6672 7.99659 73.0866 7.24507 69.2768Z" fill="#FFBE00"/>
<path id="Shape_22" fill-rule="evenodd" clip-rule="evenodd" d="M12.6115 63.6138C12.4323 63.6138 12.2519 63.6324 12.0739 63.6672C11.3015 63.8183 10.6356 64.2865 10.1442 65.0232C9.45628 66.0526 9.22158 67.4422 9.49906 68.8342C9.49906 68.8354 9.49906 68.8365 9.49906 68.8365C9.98234 71.3009 11.9282 73.0147 13.837 72.6313C14.607 72.4779 15.2765 72.0039 15.7678 71.2614C16.4511 70.2308 16.6847 68.8481 16.4083 67.4643C16.1355 66.0689 15.3909 64.8756 14.3654 64.1854C13.8035 63.8067 13.2058 63.6138 12.6115 63.6138ZM13.3219 74.2277C10.8674 74.2277 8.5747 72.1095 7.99198 69.1385C7.63588 67.3446 7.95499 65.5308 8.86836 64.1633C9.58172 63.0932 10.6153 62.3798 11.7796 62.152C12.9358 61.9196 14.159 62.1869 15.2227 62.9026C16.5847 63.8194 17.5674 65.3728 17.9177 67.1645C18.2738 68.9433 17.957 70.7513 17.0494 72.1188C16.3361 73.1948 15.3013 73.9151 14.1347 74.1487C13.863 74.201 13.5913 74.2277 13.3219 74.2277Z" fill="black"/>
<path id="Shape_23" fill-rule="evenodd" clip-rule="evenodd" d="M16.737 55.3456C16.6329 51.4648 19.6736 48.2347 23.5353 48.1302C27.3969 48.014 30.611 51.0698 30.7267 54.9505C30.8307 58.8313 27.79 62.073 23.9284 62.1776C20.0667 62.2937 16.8526 59.2263 16.737 55.3456Z" fill="#FFBE00"/>
<path id="Shape_24" fill-rule="evenodd" clip-rule="evenodd" d="M19.3447 55.2782C19.3782 56.5028 19.8707 57.6392 20.7298 58.4804C21.583 59.3135 22.7022 59.7527 23.8618 59.7201C26.2852 59.6527 28.2021 57.5485 28.1327 55.0307C28.053 52.5128 26.0019 50.5225 23.6052 50.5887C21.1865 50.6561 19.2753 52.7603 19.3447 55.2782ZM23.7348 61.2665C22.211 61.2665 20.7692 60.674 19.657 59.5864C18.5089 58.464 17.851 56.9477 17.8071 55.3199C17.7146 51.9516 20.2952 49.1351 23.5602 49.0422C26.8067 48.9782 29.5631 51.6134 29.6683 54.9841C29.7608 58.3548 27.1756 61.1713 23.9036 61.2642C23.8481 61.2654 23.7914 61.2665 23.7348 61.2665Z" fill="black"/>
<path id="Shape_25" fill-rule="evenodd" clip-rule="evenodd" d="M26.1717 72.5899C24.0097 70.0221 23.8131 66.8048 25.7439 65.3989C27.6747 64.0034 30.9929 64.9446 33.155 67.5251C35.317 70.093 35.5136 73.3103 33.5828 74.7045C31.6635 76.1104 28.3337 75.1577 26.1717 72.5899Z" fill="#FFBE00"/>
<path id="Shape_26" fill-rule="evenodd" clip-rule="evenodd" d="M27.6728 71.4265C29.044 73.0462 31.1158 73.7515 32.198 72.9625C32.5483 72.7081 32.7564 72.3223 32.8189 71.8157C32.9345 70.8595 32.4998 69.6883 31.6558 68.6844C30.2915 67.0624 28.2185 66.3536 27.1305 67.1414C26.7825 67.3935 26.5732 67.7805 26.512 68.2882C26.3952 69.2503 26.8299 70.4238 27.6728 71.4265ZM31.091 74.8309C29.551 74.8309 27.8063 73.9699 26.4999 72.4269C26.4987 72.4269 26.4987 72.4257 26.4975 72.4257C25.3818 71.1 24.8165 69.4826 24.9841 68.1011C25.0974 67.1623 25.5287 66.3966 26.2293 65.8865C28.0029 64.6073 30.9014 65.3974 32.8287 67.6863C33.9433 69.0132 34.5098 70.6271 34.3433 72.0028C34.2289 72.9404 33.7988 73.705 33.097 74.2151C32.5247 74.6322 31.8321 74.8309 31.091 74.8309Z" fill="black"/>
<path id="Shape_27" fill-rule="evenodd" clip-rule="evenodd" d="M9.03497 86.7284C6.87293 84.1606 6.67638 80.9433 8.60719 79.5479C10.538 78.142 13.8562 79.0959 16.0183 81.6637C18.1919 84.2315 18.3768 87.4488 16.446 88.8547C14.5268 90.249 11.2086 89.2962 9.03497 86.7284Z" fill="#FFBE00"/>
<path id="Shape_28" fill-rule="evenodd" clip-rule="evenodd" d="M10.5345 85.5669C11.9046 87.1843 13.9753 87.8872 15.0587 87.1006C15.4124 86.845 15.6217 86.4558 15.6841 85.9445C15.7974 84.9883 15.3627 83.8217 14.5187 82.8248C13.1544 81.204 11.0872 80.4987 10.005 81.2888C9.64892 81.5456 9.43734 81.9325 9.37491 82.4391C9.25698 83.3941 9.69054 84.563 10.5345 85.5669ZM13.9558 88.9687C12.4158 88.9687 10.67 88.1089 9.3635 86.5659C9.36234 86.5659 9.36234 86.5647 9.36118 86.5635C8.24548 85.2378 7.68011 83.6228 7.85007 82.2482C7.96568 81.3094 8.4004 80.5449 9.10798 80.0348C10.8735 78.7474 13.7674 79.5375 15.6924 81.8241C16.8081 83.1417 17.3769 84.7521 17.2116 86.129C17.0983 87.0713 16.6659 87.8405 15.9606 88.3529C15.3883 88.77 14.6958 88.9687 13.9558 88.9687Z" fill="black"/>
<path id="Shape_29" fill-rule="evenodd" clip-rule="evenodd" d="M48.0714 86.2517C45.6781 88.1921 42.7298 88.2851 41.5043 86.4493C40.2788 84.6262 41.2268 81.5704 43.6317 79.63C46.0365 77.6897 48.9732 77.5967 50.2103 79.4197C51.4358 81.2439 50.4762 84.2997 48.0714 86.2517Z" fill="#FFBE00"/>
<path id="Shape_30" fill-rule="evenodd" clip-rule="evenodd" d="M47.1654 80.0864C46.3827 80.0864 45.482 80.4466 44.6866 81.0892C43.1928 82.2964 42.5014 84.1705 43.1777 85.1802C43.3928 85.4974 43.7292 85.6938 44.1767 85.7612C45.0276 85.8913 46.0855 85.5206 47.007 84.7759C48.5031 83.5675 49.1956 81.7026 48.5169 80.7011C48.3007 80.3781 47.9655 80.1817 47.5192 80.112C47.4047 80.0957 47.2856 80.0864 47.1654 80.0864ZM44.5247 87.3314C44.3304 87.3314 44.1385 87.3186 43.9501 87.2896C43.0748 87.1583 42.3673 86.7284 41.9059 86.0464C40.7613 84.3372 41.5614 81.6323 43.7246 79.8848C44.9733 78.8763 46.4798 78.3894 47.7515 78.5858C48.6164 78.7182 49.3413 79.1621 49.7922 79.836C50.9391 81.5289 50.1402 84.2291 47.9712 85.9813C46.8879 86.8562 45.6612 87.3314 44.5247 87.3314Z" fill="black"/>
<path id="Shape_31" fill-rule="evenodd" clip-rule="evenodd" d="M52.8193 90.6895C49.8595 91.5493 47.1078 90.5036 46.6685 88.3425C46.2291 86.1813 48.2871 83.7181 51.2469 82.8583C54.2067 81.9869 56.9584 83.0442 57.3862 85.2053C57.8255 87.3665 55.7791 89.8181 52.8193 90.6895Z" fill="#FFBE00"/>
<path id="Shape_32" fill-rule="evenodd" clip-rule="evenodd" d="M53.0477 84.4133C52.6049 84.4133 52.1332 84.483 51.6591 84.6224C49.8255 85.1639 48.4727 86.6232 48.7063 87.8095C48.7826 88.186 49.0173 88.4986 49.4023 88.7333C50.1399 89.1806 51.258 89.248 52.3956 88.9133H52.3991C54.2409 88.3812 55.5924 86.923 55.3497 85.7309C55.2722 85.3533 55.0375 85.0407 54.649 84.8072C54.2189 84.5458 53.6616 84.4133 53.0477 84.4133ZM50.9983 90.6711C50.1057 90.6711 49.2814 90.4643 48.6096 90.0565C47.8512 89.5964 47.3644 88.9248 47.1991 88.1149C46.806 86.106 48.5761 83.9228 51.2284 83.1397C52.7915 82.6796 54.3281 82.8074 55.4449 83.4836C56.1941 83.9379 56.6959 84.6269 56.8578 85.4216C57.2682 87.4399 55.4981 89.6254 52.8285 90.3981C52.2053 90.5817 51.5868 90.6711 50.9983 90.6711Z" fill="black"/>
<path id="Shape_33" fill-rule="evenodd" clip-rule="evenodd" d="M26.6086 36.9639C23.6488 37.8237 20.8856 36.778 20.4578 34.6169C20.0185 32.4557 22.0649 29.9925 25.0247 29.1339C27.9961 28.2624 30.7477 29.3186 31.1755 31.4797C31.6149 33.642 29.5684 36.0925 26.6086 36.9639Z" fill="#FFBE00"/>
<path id="Shape_34" fill-rule="evenodd" clip-rule="evenodd" d="M26.8412 30.6867C26.3984 30.6867 25.9267 30.7565 25.4515 30.8959C23.6109 31.4373 22.257 32.8944 22.4975 34.0772C22.575 34.4594 22.8097 34.772 23.1958 35.0055C23.9323 35.4552 25.0503 35.5203 26.188 35.1856H26.1903C27.9997 34.6604 29.379 33.1744 29.142 32.0043C29.0646 31.6256 28.8287 31.3142 28.4414 31.0795C28.0113 30.818 27.4552 30.6867 26.8412 30.6867ZM24.7875 36.9448C23.8961 36.9448 23.0718 36.7368 22.4 36.329C21.6416 35.87 21.1537 35.1973 20.9895 34.3863C20.5837 32.3843 22.3526 30.1999 25.0188 29.4133C26.5819 28.9544 28.1173 29.0787 29.2342 29.7561C29.9834 30.2104 30.4863 30.8994 30.647 31.6965C31.0575 33.7112 29.2885 35.8956 26.6189 36.6706C25.9957 36.8542 25.3772 36.9448 24.7875 36.9448Z" fill="black"/>
<path id="Shape_35" fill-rule="evenodd" clip-rule="evenodd" d="M12.4822 27.0303C10.3895 28.7975 7.71877 29.0171 6.50479 27.5299C5.30237 26.0426 6.0192 23.4051 8.11187 21.639C10.2045 19.8729 12.8869 19.6522 14.0893 21.1394C15.2917 22.6266 14.5749 25.2642 12.4822 27.0303Z" fill="#FFBE00"/>
<path id="Shape_36" fill-rule="evenodd" clip-rule="evenodd" d="M11.5049 21.9614C10.7731 21.9614 9.89901 22.3228 9.17293 22.9351C7.9497 23.9692 7.40746 25.5261 8.01329 26.2709C8.25724 26.573 8.62491 26.666 8.89083 26.6915C9.65621 26.7636 10.6297 26.3941 11.4217 25.726V25.7248C12.7756 24.5838 13.1189 23.0525 12.5813 22.3913C12.3848 22.1485 12.09 22.0079 11.7038 21.9707C11.639 21.9638 11.5731 21.9614 11.5049 21.9614ZM9.08505 28.2465C8.97059 28.2465 8.85613 28.2418 8.74514 28.2314C7.94391 28.1547 7.27796 27.8143 6.82127 27.2484C5.6466 25.8065 6.24434 23.3909 8.1844 21.7526C9.29779 20.8126 10.6655 20.3212 11.8506 20.4339C12.6518 20.5106 13.3166 20.851 13.7733 21.4168C14.9492 22.8599 14.3503 25.2755 12.4102 26.9115C11.402 27.762 10.1834 28.2465 9.08505 28.2465Z" fill="black"/>
</g>
</g>
<path id="Ellipse 767" d="M78.999 85.437C78.999 96.1739 70.295 104.878 59.5581 104.878C48.8212 104.878 40.1172 96.1739 40.1172 85.437C40.1172 81.7032 41.1698 78.2152 42.9944 75.2537C46.4167 69.699 52.555 65.9961 59.5581 65.9961C70.295 65.9961 78.999 74.7001 78.999 85.437Z" fill="#0094FF"/>
<path id="Ellipse 768" d="M59.5578 104.878C70.2947 104.878 78.9987 96.1739 78.9987 85.437C78.9987 74.7001 70.2947 65.9961 59.5578 65.9961C52.5547 65.9961 46.4164 69.699 42.9941 75.2537" stroke="black" stroke-width="1.2" stroke-linecap="round"/>
<path id="Vector 392" d="M49.0664 84.8221L56.4725 92.2282L69.7417 78.959" stroke="black" stroke-width="1.2" stroke-linecap="round"/>
</g>
</svg>
