<svg width="37" height="24" viewBox="0 0 37 24" fill="none" xmlns="http://www.w3.org/2000/svg">
<g id="Group 427324625">
<path id="Vector" d="M23.2317 8.23952C23.2357 8.23952 23.2377 8.23764 23.2417 8.23764C23.2538 8.23764 23.2618 8.23576 23.2738 8.23576L23.3923 8.22447C23.3963 8.22447 23.4023 8.22259 23.4063 8.22259C23.4806 8.21506 23.5568 8.20942 23.6411 8.20189C23.6572 8.20001 23.6753 8.19813 23.6913 8.19813C24.3215 8.14356 24.9136 8.07394 25.4796 7.99303H25.4857L25.4877 7.99115C25.6623 7.45864 25.8269 6.99952 26.0537 6.55734C27.5409 3.63138 29.5079 2.2973 30.9509 1.82501C31.9525 1.49196 33.8672 1.29626 34.4774 2.07715C34.2345 1.65378 33.793 1.31508 33.3916 1.11751C33.3554 1.10057 33.3213 1.0874 33.2852 1.07047L33.2772 1.0667C31.7819 0.754351 30.0759 0.946279 28.9639 1.27368C27.7998 1.63872 26.4571 2.26907 25.0903 3.30586C24.9899 3.37924 24.8936 3.45639 24.8073 3.53354C24.7932 3.53918 24.7832 3.55047 24.7711 3.55988C24.6828 3.63138 24.5925 3.70477 24.5102 3.78003C24.5062 3.7838 24.5022 3.78568 24.4962 3.78944C24.3195 3.9475 24.1449 4.10932 23.9864 4.26926C23.9703 4.27679 23.9623 4.28808 23.9563 4.29748C23.884 4.36899 23.8138 4.44049 23.7435 4.51387C23.7355 4.5214 23.7254 4.53269 23.7134 4.54022C23.5629 4.70204 23.4123 4.86574 23.2779 5.02568C23.2678 5.03321 23.2618 5.04638 23.2498 5.05579C23.1916 5.12353 23.1374 5.19315 23.0792 5.26465C23.0671 5.2797 23.0531 5.29664 23.041 5.30981C22.9848 5.38319 22.9266 5.45846 22.8684 5.53372C22.8664 5.53937 22.8644 5.54501 22.8604 5.54501C22.8002 5.62592 22.742 5.70683 22.6818 5.78774C22.6737 5.79715 22.6657 5.81032 22.6537 5.82161C22.6095 5.89312 22.5653 5.95709 22.5212 6.02295C22.5031 6.04365 22.4931 6.06246 22.477 6.08504C22.4309 6.14526 22.3947 6.20735 22.3526 6.26945C22.3466 6.28826 22.3305 6.29955 22.3205 6.32025C22.2703 6.39363 22.2201 6.47643 22.174 6.54981C22.172 6.55922 22.1619 6.57051 22.1559 6.5818C22.1158 6.64766 22.0776 6.71351 22.0415 6.77937C22.0274 6.80383 22.0174 6.82641 21.9993 6.84899C21.9712 6.90356 21.9371 6.95436 21.909 7.01081C21.897 7.03339 21.8869 7.05409 21.8729 7.07479C21.8348 7.15194 21.7926 7.22344 21.7525 7.29494C21.6521 7.47934 21.5357 7.71643 21.4113 7.97421C21.349 8.1191 21.2868 8.26399 21.2246 8.40511C22.0836 8.34866 22.2121 8.33173 23.2317 8.23952Z" fill="#30B06B"/>
<path id="Vector_2" d="M35.9143 2.7431C35.7537 2.47967 35.561 2.24634 35.3503 2.04124C34.8304 1.56707 34.156 1.26789 33.4194 1.10042H33.4154C33.4154 1.09854 33.4134 1.09854 33.4114 1.09854C33.3793 1.09289 33.3291 1.0816 33.299 1.07596C33.297 1.07596 33.297 1.07596 33.297 1.07408C33.289 1.07408 33.281 1.07219 33.2769 1.07219H33.2709L33.2689 1.07031L33.2769 1.07408C33.3131 1.08913 33.3492 1.10418 33.3833 1.12112C33.9754 1.41089 34.6518 2.00925 34.6538 2.73933C34.6478 2.8353 34.6337 2.9369 34.6056 3.04604C34.5153 3.40167 34.3487 3.76859 34.1039 4.13175C33.7847 4.59652 33.3372 5.05752 32.7431 5.4903C31.3983 6.48004 29.321 7.33807 26.3886 7.84988C26.0896 7.90257 25.7925 7.94961 25.4774 7.99665C25.4774 7.99665 25.4754 7.99665 25.4754 7.99853H25.4694C24.9054 8.07944 24.3113 8.14906 23.6811 8.20363C22.2219 8.33158 22.1858 8.34663 21.2104 8.41249C21.2124 8.41061 21.2124 8.40685 21.2144 8.40685H21.1923C21.0679 8.41437 20.9213 8.42943 20.7547 8.43884C19.4301 8.52727 14.4746 8.27513 13.0957 8.27513C11.2432 8.27513 9.17789 8.4934 7.24908 9.07107C5.05935 9.71459 3.03621 10.8191 1.68946 12.569C1.0793 13.3537 0.557462 14.4018 0.358761 15.3708C0.158053 16.3737 0.296542 17.3842 0.663838 18.3382C0.705987 18.4492 0.756164 18.5546 0.810355 18.6599C1.23184 19.5725 2.00658 20.6582 3.43763 21.5897V21.5878L3.51189 21.616C3.52193 21.6179 3.52995 21.6216 3.53798 21.6235C3.55002 21.6254 3.55805 21.6292 3.56809 21.6329C3.5701 21.6329 3.57411 21.6329 3.57812 21.6348L3.59819 21.6405C3.6002 21.6423 3.60622 21.6423 3.61024 21.6442C3.61626 21.6461 3.62228 21.6461 3.6283 21.648C3.63232 21.648 3.63834 21.6499 3.64235 21.6499C3.64837 21.6517 3.65439 21.6536 3.65841 21.6555C3.66443 21.6574 3.66844 21.6574 3.67246 21.6593C3.67848 21.6593 3.6845 21.6612 3.68851 21.663C3.69453 21.6649 3.70056 21.6668 3.70658 21.6668C3.71059 21.6687 3.71661 21.6687 3.72263 21.6706L3.7407 21.6762C3.74471 21.6781 3.74873 21.68 3.75274 21.68C3.75876 21.6819 3.76679 21.6837 3.7708 21.6837C3.77482 21.6856 3.77883 21.6856 3.78285 21.6856C3.78887 21.6894 3.7969 21.6913 3.80292 21.6913C3.80693 21.6913 3.81095 21.6931 3.81496 21.6931C3.82299 21.695 3.83102 21.6969 3.83904 21.7007H3.84707C3.87718 21.7082 3.90528 21.7138 3.93739 21.7214C3.97151 21.7289 4.00764 21.7364 4.04176 21.7421C4.04377 21.7421 4.04377 21.7439 4.04377 21.7439C4.05581 21.7458 4.06585 21.7477 4.07789 21.7515H4.07989C4.09194 21.7534 4.10398 21.7552 4.11402 21.7571H4.11602C4.12806 21.7609 4.1381 21.7628 4.15014 21.7646H4.15215L4.18828 21.7703L4.24648 21.7816C4.25451 21.7835 4.26053 21.7853 4.26856 21.7853L4.30469 21.791C4.31472 21.7929 4.32275 21.7929 4.33078 21.7948C4.34082 21.7966 4.35487 21.7985 4.3649 21.8004C4.37494 21.8023 4.38296 21.8023 4.393 21.8042C4.40304 21.806 4.41508 21.806 4.42712 21.8079C4.43515 21.8098 4.44518 21.8098 4.45522 21.8117C4.46525 21.8117 4.47931 21.8136 4.49135 21.8155C4.49938 21.8173 4.50941 21.8192 4.51945 21.8192C4.53149 21.8211 4.54353 21.823 4.55758 21.823C4.56561 21.8249 4.57564 21.8249 4.58367 21.8267C4.59572 21.8286 4.60977 21.8305 4.62382 21.8305C4.63184 21.8324 4.63987 21.8324 4.64991 21.8324L4.71012 21.838H4.71413C4.7342 21.8399 4.75428 21.8418 4.77435 21.8456C4.79642 21.8474 4.82051 21.8474 4.84259 21.8512H4.84459C4.86266 21.8531 4.87871 21.855 4.89477 21.855H4.91083C4.92488 21.8568 4.93893 21.8568 4.95097 21.8587C6.0087 21.9509 6.97411 21.8456 7.75687 21.695C7.78698 21.6894 7.81508 21.6837 7.84719 21.6781C7.8773 21.6724 7.90339 21.6668 7.9335 21.6612C7.9355 21.6612 7.9355 21.6593 7.9355 21.6593C7.78698 21.6856 7.48391 21.712 7.18887 21.7195C7.10457 21.7233 7.02027 21.7251 6.93598 21.7251C6.8577 21.7233 6.78344 21.7214 6.7152 21.7176C5.28214 21.6499 4.18828 21.0233 3.53196 20.0373C3.29713 19.6534 3.11047 19.2207 2.99005 18.7352C2.99005 18.7333 2.98603 18.7333 2.98603 18.7314C2.96998 18.6618 2.95994 18.5922 2.94389 18.5245C2.93385 18.5038 2.93385 18.4793 2.93184 18.4567C2.9198 18.3946 2.90776 18.3288 2.89772 18.2648C2.89572 18.246 2.8917 18.229 2.88969 18.2083C2.85758 17.9675 2.8355 17.7153 2.8355 17.4519C2.83952 16.3192 3.21484 14.9625 4.43916 13.5701C5.82405 12.0008 7.59831 10.9696 9.4368 10.3205C11.5262 9.58288 13.6978 9.33638 15.4761 9.34391C15.4821 9.34391 15.4841 9.34579 15.4922 9.34579C15.6106 9.34579 15.729 9.34579 15.8494 9.34767C16.1906 9.3552 16.5138 9.37213 16.8189 9.39659C17.714 9.47374 18.5048 9.57723 19.2233 9.69389C19.5244 9.74094 19.8235 9.7955 20.1225 9.84819L20.5019 9.91593C21.7643 10.1436 23.0709 10.3732 24.6184 10.4616V10.4635C25.0479 10.4879 25.4955 10.5011 25.9671 10.5011H25.9912C31.1715 10.5011 35.9845 8.30336 36.2976 4.557C36.3097 4.43846 36.3157 4.31803 36.3157 4.19384L36.3177 4.15997C36.2836 3.60489 36.139 3.13636 35.9143 2.7431Z" fill="#EB8E25"/>
<path id="Vector_3" d="M20.4958 9.91992C19.7813 11.3989 15.8916 19.1531 9.31435 21.3039C8.86677 21.4506 8.40514 21.571 7.93147 21.6595H7.93348C7.93147 21.6595 7.93147 21.6614 7.92946 21.6614C7.89936 21.667 7.87326 21.6727 7.84316 21.6783L7.75284 21.6952C6.97008 21.8458 6.00467 21.953 4.94693 21.8589C4.93489 21.8571 4.92084 21.8571 4.90679 21.8552H4.89074C4.87468 21.8533 4.85862 21.8533 4.84056 21.8514H4.83855C4.83655 21.8495 4.83253 21.8495 4.83052 21.8495C4.81246 21.8476 4.7944 21.8476 4.77633 21.8458H4.77031C4.75024 21.8439 4.73017 21.842 4.7101 21.8382H4.70809C4.52143 21.8213 4.34682 21.7968 4.18424 21.7686L4.14812 21.763H4.14611C4.13407 21.7611 4.12403 21.7592 4.11199 21.7554H4.10998L4.07586 21.7498H4.07385C4.06382 21.7479 4.05178 21.746 4.03973 21.7423C4.03973 21.7423 4.03973 21.7404 4.03773 21.7404C3.96948 21.7272 3.90727 21.7141 3.84304 21.699H3.83501C3.82899 21.6952 3.81895 21.6934 3.81093 21.6915C3.80892 21.6915 3.8049 21.6896 3.79888 21.6896C3.79286 21.6877 3.78483 21.6877 3.77881 21.6839C3.7748 21.6839 3.77078 21.6821 3.76677 21.6821C3.76075 21.6821 3.75473 21.6802 3.74871 21.6783C3.74469 21.6783 3.74068 21.6764 3.73666 21.6745C3.72863 21.6727 3.72462 21.6708 3.7186 21.6689C3.71258 21.667 3.70856 21.667 3.70254 21.6651C3.69853 21.6651 3.69251 21.6614 3.68448 21.6614C3.68046 21.6595 3.67444 21.6595 3.66842 21.6576C3.66441 21.6557 3.66039 21.6557 3.65437 21.6538C3.64835 21.652 3.64434 21.6501 3.63832 21.6482C3.6343 21.6463 3.62828 21.6463 3.62427 21.6463C3.6185 21.6442 3.6124 21.6429 3.6062 21.6425C3.60242 21.6407 3.59836 21.6395 3.59416 21.6388C3.58613 21.6369 3.58011 21.635 3.57409 21.6331C3.57008 21.6313 3.56606 21.6313 3.56405 21.6313C3.55402 21.6275 3.54398 21.6237 3.53395 21.6218C3.52592 21.62 3.51789 21.6162 3.50786 21.6143L3.43359 21.5861C3.43359 21.5861 3.4637 21.6106 3.52191 21.652C3.96547 21.9718 6.07692 23.336 9.61943 23.3699H9.63749C9.67763 23.3718 9.71777 23.3718 9.75591 23.3718C11.5021 23.3718 13.9748 22.8186 16.572 21.2926C20.8832 18.758 23.1592 14.0783 24.516 10.7008C24.5401 10.6387 24.5662 10.5823 24.5883 10.522C24.5943 10.5032 24.6023 10.4844 24.6083 10.4637C23.0669 10.379 21.7583 10.1495 20.4958 9.91992Z" fill="#1E50A2"/>
</g>
</svg>
