<svg width="48" height="26" viewBox="0 0 48 26" fill="none" xmlns="http://www.w3.org/2000/svg">
<path d="M46.1375 8.88309C45.935 8.97803 45.5741 9.16122 45.1633 9.25617C44.9422 9.14785 44.6898 9.02617 44.386 8.95129L43.9781 9.3511C44.416 9.46877 44.6385 9.55034 44.8709 9.64796L43.5074 9.64127V13.1019H44.0337V12.0028H45.0293V13.1019H45.5556V12.0028H46.5498V13.1019H47.0974V9.63191L45.8152 9.64261C45.7567 9.59313 45.6768 9.5597 45.6839 9.56639C46.1504 9.40459 46.6496 9.17995 47.1388 8.82291V8.39769L47.1317 8.4017H43.3234V8.83362H46.2416L46.1375 8.88309ZM45.0264 11.5293H44.0309V11.0587H45.0264V11.5293ZM45.0207 10.58L44.0309 10.572V10.112H45.0264L45.0207 10.58ZM46.534 11.5293H45.5613V11.0587H46.534V11.5293ZM46.5397 10.1066V10.58H45.5541V10.1066H46.5397ZM26.7109 13.7384L27.2344 14.0233C28.4881 11.9907 28.675 10.2845 28.675 9.45006H28.0731C28.0731 10.2296 27.8948 11.8222 26.7109 13.7384ZM31.6289 8.27734H28.317V8.84164H31.0341C31.114 9.95685 31.6175 12.2662 32.7015 14.0233L33.2236 13.7384C32.0953 11.9105 31.6289 9.46343 31.6289 8.55815V8.27734ZM34.1447 8.71581L34.5157 8.36773L35.4519 9.24493L35.0807 9.593L34.1447 8.71581Z" fill="#040000"/>
<path d="M38.3302 13.2943V12.611H40.2657V12.119H38.3302V11.7913H39.6966V11.2979H38.3302V10.9516H39.9063V10.4595H38.8636L39.2843 9.84707H40.1716V9.35232H38.3302V9.02337H39.8977V8.53263H38.3302V7.98438H37.8039V8.53263H36.2334V9.02337H37.8039V9.35232H35.9454V9.84707H36.7455L37.1691 10.4595H36.1237V10.9516H37.8039V11.2979H36.436V11.7913H37.8039V12.119H35.8883V12.611H37.8039V13.3037L37.6142 13.3064C36.9067 13.3104 36.2791 13.2235 35.6587 12.8557V10.4595H34.0654V10.9449H35.1394V12.6472L34.1653 13.5618L34.5304 13.9068L35.2793 13.2061L35.2693 13.2248C36.0851 13.7436 37.1221 13.7998 38.2417 13.7998H40.2229L40.4967 13.2315L39.4655 13.285L38.3302 13.2943ZM37.3731 9.84707H38.6582L38.236 10.4595H37.7938L37.3731 9.84707ZM41.6672 8.59921L42.0383 8.25115L42.9754 9.12927L42.6046 9.47734L41.6672 8.59921ZM46.8582 13.2836L45.0096 13.305C44.2965 13.3091 43.6718 13.2221 43.0528 12.8544V10.4595H41.461V10.9449H42.535V12.6472L41.558 13.5618L41.9273 13.9068L42.6748 13.2061L42.6648 13.2248C43.4821 13.7436 44.5161 13.7998 45.6344 13.7998H47.6156L47.888 13.2315L46.8582 13.2836Z" fill="#040000"/>
<path d="M22.1357 15.2305C22.1285 15.2225 22.1214 15.2091 22.11 15.2024C22.0558 15.1489 21.9973 15.1008 21.9374 15.0554C21.9231 15.042 21.9103 15.034 21.9003 15.0219C21.4582 14.6903 20.8719 14.4844 20.1373 14.4844C19.4014 14.4844 18.8166 14.6903 18.3744 15.0219C18.3616 15.034 18.3487 15.042 18.3373 15.0554C18.2788 15.1008 18.2175 15.1489 18.1662 15.2024C18.1548 15.2091 18.1462 15.2212 18.1362 15.2305C17.5572 15.7922 17.2861 16.6011 17.2861 17.4075C17.2861 18.2151 17.5586 19.0268 18.1391 19.587C18.1491 19.5977 18.1562 19.6058 18.1676 19.6165C18.2204 19.6686 18.2803 19.7181 18.3388 19.7636C18.3502 19.7716 18.363 19.7836 18.3759 19.793C18.818 20.1273 19.4028 20.3305 20.1388 20.3305C20.8733 20.3305 21.4596 20.1273 21.9017 19.793C21.9117 19.785 21.9231 19.7729 21.9388 19.7636C21.9987 19.7181 22.0572 19.6686 22.1114 19.6165C22.1228 19.6058 22.1314 19.5977 22.1371 19.587C22.719 19.0255 22.9871 18.2138 22.9871 17.4075C22.9871 16.6011 22.7176 15.7922 22.1357 15.2305ZM20.1388 19.7221C19.4699 19.7221 18.9221 19.4708 18.5527 18.9893C18.2375 18.5815 18.0663 18.0186 18.0663 17.4088C18.0663 16.8017 18.2389 16.2401 18.5527 15.8309C18.9221 15.3522 19.4712 15.0981 20.1388 15.0981C20.8077 15.0981 21.3554 15.3509 21.7249 15.8309C22.0401 16.2401 22.2112 16.8017 22.2112 17.4088C22.2112 18.0186 22.0401 18.5815 21.7249 18.9893C21.3554 19.4708 20.8063 19.7221 20.1388 19.7221ZM25.4632 19.7221C25.0482 19.7221 24.7102 19.5617 24.4877 19.2568C24.298 18.9974 24.1924 18.6323 24.1924 18.2325C24.1924 17.6388 24.3707 16.6412 25.546 16.6412C26.1294 16.6412 26.5116 16.9274 26.6243 17.4476H27.3446C27.2476 16.5731 26.5716 16.0703 25.4918 16.0703C24.2366 16.0703 23.4607 16.898 23.4607 18.2325C23.4607 19.5042 24.2309 20.2945 25.4733 20.2945C26.5316 20.2945 27.2034 19.7408 27.3688 18.7353H26.6585C26.5615 19.3611 26.1266 19.7221 25.4632 19.7221ZM28.9835 14.9497H28.2902V16.1625H27.5557V16.7348H28.2902V19.3197C28.2902 20.0765 28.5912 20.1995 29.3101 20.1995H29.845V19.6272H29.5269C29.0747 19.6272 28.9835 19.5644 28.9835 19.2582V16.7362H29.845V16.1639H28.9835V14.9497ZM30.2472 18.187C30.2472 19.4667 31.0702 20.2945 32.3382 20.2945C33.6062 20.2945 34.4278 19.4667 34.4278 18.187C34.4278 16.9007 33.6062 16.0703 32.3382 16.0703C31.0702 16.0703 30.2472 16.9007 30.2472 18.187ZM33.6904 18.187C33.6904 19.1057 33.1441 19.7221 32.3368 19.7221C31.5252 19.7221 30.9817 19.1057 30.9817 18.187C30.9817 17.2617 31.5238 16.6412 32.3368 16.6412C33.1455 16.6412 33.6904 17.2617 33.6904 18.187ZM35.8641 16.7081L35.8626 16.7148H35.8299V16.1652H35.1395V21.7547H35.8299V19.6606H35.8626L35.8641 19.6647C36.1722 20.13 36.7841 20.2958 37.2504 20.2958C38.4443 20.2958 39.2159 19.4721 39.2159 18.195C39.2159 17.2163 38.6968 16.0729 37.2348 16.0729C36.5787 16.0703 36.0766 16.303 35.8641 16.7081ZM38.4814 18.1469C38.4814 18.4545 38.4315 18.8891 38.1961 19.23C37.9736 19.5576 37.627 19.7221 37.1777 19.7221C36.717 19.7221 36.3633 19.5644 36.1222 19.2514C35.9154 18.9813 35.8056 18.6109 35.8056 18.179C35.8056 17.4342 36.1536 16.6426 37.1335 16.6426C38.0663 16.6412 38.4814 17.3981 38.4814 18.1469ZM40.5981 18.8971V16.1639H39.9048V18.8195C39.9048 19.2929 40.009 19.6406 40.2187 19.8812C40.4626 20.1594 40.8433 20.2931 41.3825 20.2931C42.0187 20.2931 42.4893 20.0457 42.7803 19.5603L42.7832 19.5563H42.8132V20.1995H43.465V16.1625H42.7718V18.4424C42.7718 19.242 42.2911 19.7208 41.4838 19.7208C40.9446 19.7221 40.5981 19.3972 40.5981 18.8971ZM47.3246 18.2151C47.0579 18.0426 46.7028 17.9517 46.3561 17.8821C46.2648 17.8581 46.1679 17.8407 46.078 17.8193C45.4904 17.6989 44.9369 17.5866 44.9369 17.1668C44.9369 16.692 45.5874 16.6412 45.8641 16.6412C46.1464 16.6412 46.8097 16.7081 46.8739 17.3232H47.5656C47.5143 16.4794 46.9366 16.0703 45.8056 16.0703C45.4005 16.0703 45.004 16.1679 44.7215 16.3404C44.3793 16.5463 44.1995 16.8472 44.1995 17.2149C44.1995 17.9878 44.9241 18.2084 45.6073 18.3515C45.6729 18.3636 45.7428 18.3809 45.8084 18.393C46.4346 18.5187 47.0251 18.6377 47.0251 19.111C47.0251 19.6165 46.4517 19.7235 45.9725 19.7235C45.5474 19.7235 44.8342 19.6218 44.8029 18.9412H44.1068C44.1611 20.1193 45.2735 20.2958 45.9297 20.2958C46.3604 20.2958 47.7597 20.2049 47.7597 19.0255C47.7611 18.6698 47.6184 18.4064 47.3246 18.2151Z" fill="#040000"/>
<path d="M2.54524 18.9955C2.54952 18.9955 2.55379 18.9968 2.55665 18.9982C2.55237 18.9968 2.54952 18.9955 2.54524 18.9955ZM2.56805 19.0008C2.57091 19.0021 2.57518 19.0021 2.57947 19.0035C2.57518 19.0021 2.57233 19.0021 2.56805 19.0008ZM2.44824 18.9688C2.45681 18.9701 2.46251 18.9727 2.46964 18.9754C2.463 18.972 2.45575 18.9697 2.44824 18.9688ZM2.4996 18.9834C2.50387 18.9848 2.50815 18.9848 2.51243 18.9861C2.50958 18.9848 2.5053 18.9848 2.4996 18.9834ZM5.44639 19.0196C5.46778 19.0155 5.48776 19.0115 5.51057 19.0075C5.48776 19.0115 5.46778 19.0169 5.44639 19.0196ZM2.61512 19.0128C2.61798 19.0142 2.62083 19.0142 2.62369 19.0142C2.62083 19.0142 2.61798 19.0128 2.61512 19.0128ZM2.63795 19.0182C2.6408 19.0182 2.64365 19.0196 2.6465 19.0196C2.64508 19.0196 2.6408 19.0196 2.63795 19.0182Z" fill="#35549B"/>
<path d="M16.4332 9.45608C16.4361 9.45608 16.4374 9.45474 16.4403 9.45474C16.4489 9.45474 16.4546 9.4534 16.4631 9.4534L16.5473 9.44538C16.5501 9.44538 16.5545 9.44405 16.5573 9.44405C16.61 9.4387 16.6642 9.43469 16.7242 9.42934C16.7356 9.428 16.7484 9.42666 16.7598 9.42666C17.2077 9.38789 17.6285 9.33841 18.0307 9.28091H18.0349L18.0364 9.27957C18.1605 8.90115 18.2774 8.57487 18.4386 8.26064C19.4955 6.18132 20.8933 5.23325 21.9188 4.89762C22.6306 4.66094 23.9913 4.52187 24.4249 5.0768C24.2523 4.77593 23.9385 4.53524 23.6532 4.39484C23.6276 4.3828 23.6034 4.37344 23.5777 4.36141L23.572 4.35873C22.5094 4.13676 21.297 4.27315 20.5068 4.50582C19.6795 4.76524 18.7253 5.21319 17.754 5.94998C17.6827 6.00213 17.6142 6.05695 17.5529 6.11178C17.5428 6.11579 17.5357 6.12381 17.5272 6.1305C17.4644 6.18132 17.4002 6.23346 17.3418 6.28695C17.3389 6.28963 17.336 6.29097 17.3318 6.29364C17.2063 6.40596 17.0822 6.52096 16.9695 6.63462C16.9581 6.63997 16.9524 6.64799 16.9481 6.65468C16.8967 6.70549 16.8468 6.75631 16.7969 6.80845C16.7912 6.8138 16.7841 6.82182 16.7755 6.82718C16.6685 6.94218 16.5615 7.05851 16.466 7.17217C16.4589 7.17752 16.4546 7.18688 16.446 7.19356C16.4047 7.2417 16.3661 7.29118 16.3248 7.34199C16.3162 7.35269 16.3062 7.36473 16.2977 7.37408C16.2578 7.42623 16.2164 7.47972 16.175 7.53321C16.1736 7.53722 16.1722 7.54123 16.1693 7.54123C16.1266 7.59873 16.0852 7.65623 16.0424 7.71373C16.0367 7.72041 16.031 7.72977 16.0224 7.7378C15.991 7.78861 15.9597 7.83408 15.9283 7.88088C15.9154 7.89559 15.9083 7.90896 15.8969 7.925C15.8641 7.96779 15.8384 8.01192 15.8084 8.05605C15.8042 8.06942 15.7928 8.07744 15.7856 8.09215C15.75 8.1443 15.7143 8.20314 15.6815 8.25529C15.6801 8.26197 15.6729 8.27 15.6687 8.27802C15.6402 8.32482 15.613 8.37162 15.5874 8.41842C15.5774 8.43581 15.5702 8.45185 15.5574 8.4679C15.5375 8.50668 15.5132 8.54279 15.4932 8.5829C15.4847 8.59895 15.4775 8.61365 15.4676 8.62837C15.4404 8.68319 15.4105 8.734 15.382 8.78481C15.3107 8.91586 15.2279 9.08435 15.1395 9.26754C15.0953 9.3705 15.0511 9.47346 15.0068 9.57375C15.6173 9.53363 15.7086 9.5216 16.4332 9.45608Z" fill="#30B06B"/>
<path d="M25.4481 5.54813C25.3341 5.36093 25.1971 5.19512 25.0474 5.04937C24.6779 4.71239 24.1987 4.49978 23.6752 4.38077H23.6723C23.6723 4.37943 23.671 4.37943 23.6695 4.37943C23.6467 4.37542 23.6111 4.3674 23.5896 4.36339C23.5882 4.36339 23.5882 4.36339 23.5882 4.36205C23.5825 4.36205 23.5768 4.36071 23.574 4.36071H23.5697L23.5683 4.35938L23.574 4.36205C23.5997 4.37275 23.6253 4.38344 23.6495 4.39548C24.0703 4.60141 24.551 5.02663 24.5524 5.54546C24.5481 5.61366 24.5382 5.68587 24.5182 5.76342C24.454 6.01615 24.3356 6.2769 24.1616 6.53498C23.9348 6.86527 23.6168 7.19287 23.1946 7.50042C22.2389 8.20379 20.7626 8.81354 18.6788 9.17726C18.4663 9.2147 18.2552 9.24813 18.0312 9.28156C18.0312 9.28156 18.0298 9.28156 18.0298 9.28289H18.0255C17.6248 9.3404 17.2026 9.38987 16.7546 9.42865C15.7177 9.51958 15.692 9.53028 14.9989 9.57708C15.0003 9.57574 15.0003 9.57306 15.0017 9.57306H14.986C14.8976 9.57841 14.7935 9.58911 14.6751 9.5958C13.7337 9.65864 10.2121 9.47947 9.23221 9.47947C7.91569 9.47947 6.44801 9.63458 5.07732 10.0451C3.52119 10.5024 2.08345 11.2873 1.12639 12.5309C0.69278 13.0885 0.321934 13.8334 0.180727 14.522C0.0380945 15.2347 0.136511 15.9528 0.39753 16.6307C0.427482 16.7097 0.46314 16.7845 0.501651 16.8594C0.801183 17.5079 1.35174 18.2795 2.36872 18.9414V18.94L2.42149 18.9601C2.42862 18.9615 2.43433 18.9642 2.44004 18.9655C2.44859 18.9668 2.4543 18.9695 2.46143 18.9722C2.46285 18.9722 2.4657 18.9722 2.46856 18.9735L2.48283 18.9775C2.48425 18.9788 2.48853 18.9788 2.49138 18.9802C2.49566 18.9815 2.49994 18.9815 2.50422 18.9829C2.50707 18.9829 2.51135 18.9842 2.5142 18.9842C2.51848 18.9855 2.52276 18.9868 2.52561 18.9882C2.52989 18.9895 2.53274 18.9895 2.5356 18.9909C2.53988 18.9909 2.54415 18.9922 2.54701 18.9936C2.55128 18.9949 2.55556 18.9962 2.55985 18.9962C2.5627 18.9975 2.56698 18.9975 2.57126 18.9989L2.58409 19.0029C2.58694 19.0043 2.5898 19.0056 2.59265 19.0056C2.59693 19.0069 2.60264 19.0082 2.60549 19.0082C2.60834 19.0096 2.61119 19.0096 2.61405 19.0096C2.61832 19.0123 2.62403 19.0136 2.62831 19.0136C2.63116 19.0136 2.63401 19.015 2.63686 19.015C2.64257 19.0163 2.64828 19.0176 2.65398 19.0203H2.65969C2.68109 19.0257 2.70105 19.0296 2.72388 19.035C2.74812 19.0403 2.7738 19.0457 2.79804 19.0497C2.79946 19.0497 2.79946 19.051 2.79946 19.051C2.80803 19.0524 2.81516 19.0537 2.82372 19.0564H2.82514C2.8337 19.0577 2.84225 19.059 2.84939 19.0604H2.85082C2.85937 19.0631 2.86651 19.0644 2.87506 19.0658H2.87649L2.90216 19.0697L2.94353 19.0778C2.94923 19.0791 2.95351 19.0804 2.95921 19.0804L2.98489 19.0845C2.99202 19.0858 2.99773 19.0858 3.00343 19.0872C3.01056 19.0885 3.02055 19.0898 3.02768 19.0911C3.03481 19.0925 3.04052 19.0925 3.04765 19.0938C3.05478 19.0952 3.06334 19.0952 3.0719 19.0965C3.0776 19.0978 3.08473 19.0978 3.09187 19.0992C3.099 19.0992 3.10898 19.1005 3.11754 19.1018C3.12324 19.1032 3.13038 19.1045 3.13751 19.1045C3.14607 19.1059 3.15462 19.1072 3.16461 19.1072C3.17032 19.1085 3.17745 19.1085 3.18315 19.1098C3.19171 19.1112 3.20169 19.1125 3.21168 19.1125C3.21739 19.1139 3.22309 19.1139 3.23022 19.1139L3.27301 19.1179H3.27586C3.29012 19.1192 3.30439 19.1205 3.31865 19.1232C3.33434 19.1246 3.35146 19.1246 3.36715 19.1273H3.36857C3.38141 19.1286 3.39282 19.1299 3.40423 19.1299H3.41564C3.42563 19.1313 3.43561 19.1313 3.44417 19.1326C4.19585 19.1982 4.88191 19.1232 5.43818 19.0163C5.45957 19.0123 5.47954 19.0082 5.50236 19.0043C5.52376 19.0002 5.5423 18.9962 5.56369 18.9922C5.56512 18.9922 5.56512 18.9909 5.56512 18.9909C5.45957 19.0096 5.2442 19.0283 5.03453 19.0337C4.97462 19.0363 4.91471 19.0377 4.85481 19.0377C4.79918 19.0363 4.74641 19.035 4.69791 19.0323C3.67951 18.9842 2.90216 18.5389 2.43576 17.8382C2.26887 17.5654 2.13622 17.2579 2.05064 16.9129C2.05064 16.9116 2.04779 16.9116 2.04779 16.9102C2.03638 16.8608 2.02925 16.8113 2.01784 16.7631C2.01071 16.7484 2.01071 16.731 2.00928 16.715C2.00072 16.6708 1.99217 16.624 1.98504 16.5786C1.9836 16.5652 1.98075 16.5532 1.97933 16.5385C1.95651 16.3673 1.94081 16.1881 1.94081 16.0009C1.94367 15.196 2.21039 14.2318 3.08045 13.2423C4.06462 12.1271 5.3255 11.3943 6.63201 10.933C8.1168 10.4088 9.66011 10.2336 10.9238 10.239C10.9281 10.239 10.9295 10.2403 10.9352 10.2403C11.0194 10.2403 11.1036 10.2403 11.1891 10.2417C11.4316 10.247 11.6612 10.259 11.8781 10.2764C12.5142 10.3312 13.0762 10.4048 13.5868 10.4877C13.8008 10.5211 14.0133 10.5599 14.2258 10.5974L14.4954 10.6455C15.3926 10.8073 16.321 10.9704 17.4208 11.0333V11.0346C17.726 11.052 18.0441 11.0614 18.3793 11.0614H18.3964C22.0777 11.0614 25.4981 9.49952 25.7206 6.83718C25.7291 6.75294 25.7334 6.66736 25.7334 6.5791L25.7348 6.55503C25.7106 6.16057 25.6079 5.8276 25.4481 5.54813Z" fill="#EB8E25"/>
<path d="M14.4905 10.6523C13.9827 11.7034 11.2185 17.2139 6.54439 18.7423C6.22631 18.8466 5.89826 18.9322 5.56164 18.995H5.56307C5.56164 18.995 5.56164 18.9964 5.56021 18.9964C5.53882 19.0004 5.52027 19.0044 5.49888 19.0084L5.43469 19.0205C4.87843 19.1274 4.19236 19.2036 3.44069 19.1367C3.43213 19.1354 3.42215 19.1354 3.41216 19.1341H3.40075C3.38934 19.1328 3.37793 19.1328 3.3651 19.1314H3.36367C3.36224 19.1301 3.35939 19.1301 3.35796 19.1301C3.34512 19.1287 3.33229 19.1287 3.31945 19.1274H3.31518C3.30091 19.126 3.28665 19.1247 3.27238 19.1221H3.27095C3.13831 19.11 3.01422 19.0926 2.89868 19.0726L2.87301 19.0686H2.87159C2.86302 19.0672 2.85589 19.0659 2.84734 19.0632H2.84591L2.82166 19.0592H2.82023C2.8131 19.0579 2.80455 19.0565 2.79599 19.0538C2.79599 19.0538 2.79599 19.0525 2.79456 19.0525C2.74607 19.0431 2.70185 19.0338 2.6562 19.0231H2.6505C2.64622 19.0205 2.63909 19.0191 2.63339 19.0178C2.63196 19.0178 2.62911 19.0164 2.62483 19.0164C2.62055 19.0151 2.61484 19.0151 2.61056 19.0124C2.60771 19.0124 2.60486 19.0111 2.60201 19.0111C2.59773 19.0111 2.59345 19.0098 2.58917 19.0084C2.58632 19.0084 2.58347 19.0071 2.58062 19.0057C2.5749 19.0044 2.57205 19.003 2.56777 19.0017C2.5635 19.0004 2.56064 19.0004 2.55636 18.9991C2.55351 18.9991 2.54923 18.9964 2.54353 18.9964C2.54068 18.995 2.53639 18.995 2.53211 18.9937C2.52926 18.9923 2.52641 18.9923 2.52213 18.991C2.51785 18.9897 2.515 18.9884 2.51072 18.987C2.50787 18.9857 2.50359 18.9857 2.50074 18.9857C2.49664 18.9841 2.4923 18.9832 2.4879 18.983C2.48521 18.9817 2.48233 18.9808 2.47934 18.9803C2.47364 18.979 2.46936 18.9776 2.46508 18.9763C2.46223 18.9749 2.45938 18.9749 2.45795 18.9749C2.45081 18.9723 2.44368 18.9696 2.43655 18.9683C2.43085 18.9669 2.42514 18.9642 2.41801 18.9629L2.36523 18.9428C2.36523 18.9428 2.38663 18.9603 2.428 18.9897C2.74322 19.217 4.24371 20.1865 6.76119 20.2105H6.77402C6.80255 20.2118 6.83108 20.2118 6.85821 20.2118C8.09911 20.2118 9.85633 19.8187 11.702 18.7343C14.7658 16.9331 16.3832 13.6075 17.3474 11.2073C17.3645 11.1631 17.3831 11.123 17.3987 11.0802C17.403 11.0669 17.4087 11.0535 17.413 11.0388C16.3176 10.9786 15.3876 10.8155 14.4905 10.6523Z" fill="#1E50A2"/>
</svg>
