<svg width="20" height="20" viewBox="0 0 20 20" fill="none" xmlns="http://www.w3.org/2000/svg">
<path fill-rule="evenodd" clip-rule="evenodd" d="M10.5103 7.29605e-06C6.37478 -0.0057251 3.00605 3.36717 3.00021 7.519C2.99747 9.6163 3.02212 14.7961 3.02231 14.8467L3.0183 17.9618C3.01757 18.4897 3.36641 19.9978 4.92623 20C6.59571 20.0022 6.97343 18.554 6.97396 18.0464C6.97452 17.6771 7.00122 15.7172 7.01017 15.0646C8.64234 15.0598 9.81261 15.058 10.4898 15.0589C14.6253 15.0646 17.9942 11.6915 17.9999 7.53991C18.0056 3.3881 14.6458 0.00575432 10.5103 7.29605e-06ZM10.4905 14.5978C9.78903 14.5967 8.56012 14.5989 6.83747 14.6041C6.8161 14.6041 6.79507 14.607 6.77463 14.6133L6.72255 14.6287C6.62695 14.657 6.56099 14.7455 6.55953 14.8467C6.55807 14.9589 6.52114 17.6005 6.52044 18.0459C6.52044 18.0609 6.45008 19.5409 4.92679 19.5387C3.53215 19.5368 3.47166 17.9781 3.47166 17.9623L3.47603 14.8459C3.4757 14.7937 3.45102 9.61537 3.45393 7.51954C3.45904 3.62219 6.62423 0.455787 10.5096 0.461126C14.395 0.466703 17.5516 3.64183 17.5464 7.53918C17.541 11.4365 14.3757 14.6031 10.4905 14.5978ZM10.4512 1.93196C7.3065 1.92752 4.74454 4.50816 4.74016 7.68439C4.73834 8.91482 4.7493 11.5427 4.75424 12.6866C4.75368 12.6927 4.75242 12.6988 4.75242 12.7049L4.7451 17.982C4.7451 18.1092 4.84561 18.2122 4.96984 18.2124C5.09413 18.2124 5.19481 18.1096 5.19498 17.9825L5.2012 13.4665C6.05713 13.4631 9.21026 13.4515 10.4357 13.4531C13.5805 13.4574 16.1427 10.8769 16.1469 7.70031C16.1511 4.52409 13.5961 1.93621 10.4512 1.93196ZM10.4489 3.71967C8.26354 3.71652 6.48315 5.49287 6.48004 7.67945C6.47858 8.75393 6.49157 11.407 6.49157 11.4336C6.4923 11.5587 6.59224 11.6596 6.71541 11.6598H6.7167C6.74427 11.6598 9.47125 11.6488 10.4381 11.6501C12.6234 11.6533 14.404 9.87694 14.407 7.69037C14.4098 5.50399 12.6342 3.72263 10.4489 3.71967ZM10.4386 11.1959C9.63443 11.1948 7.61483 11.202 6.93906 11.2046C6.93595 10.5362 6.92737 8.56798 6.92846 7.67998C6.93121 5.74418 8.51024 4.17117 10.4483 4.17395C12.3864 4.17674 13.9611 5.75381 13.9583 7.6898C13.9558 9.6258 12.3769 11.1987 10.4386 11.1959ZM10.4362 12.9931C9.21371 12.9913 6.07303 13.0029 5.20558 13.0063C5.20137 12.1394 5.18805 9.04979 5.18987 7.68512C5.19371 4.76262 7.55391 2.3879 10.4506 2.39198C13.3476 2.39606 15.701 4.77725 15.6972 7.69978C15.6931 10.6225 13.3331 12.997 10.4362 12.9931ZM10.503 5.50747C9.33035 5.50582 8.37481 6.48289 8.37338 7.68553C8.37265 8.26887 8.37921 9.70078 8.37921 9.70078C8.37977 9.7969 8.45488 9.87466 8.5475 9.87466H8.54843C8.54843 9.87466 9.98472 9.86892 10.4971 9.86965C11.6697 9.87115 12.6251 8.89407 12.6267 7.69146C12.6284 6.4888 11.6756 5.50914 10.503 5.50747ZM10.4978 9.4078C10.1175 9.4073 9.19529 9.41059 8.82475 9.412C8.82303 9.03717 8.81925 8.11592 8.81975 7.68634C8.82113 6.73836 9.57593 5.9682 10.5023 5.96941C11.4288 5.97082 12.1815 6.74286 12.1802 7.69104C12.1789 8.63888 11.4242 9.40921 10.4978 9.4078Z" fill="#DB0011"/>
</svg>
