<svg width="20" height="20" viewBox="0 0 20 20" fill="none" xmlns="http://www.w3.org/2000/svg">
<g id="Frame">
<path id="Vector" d="M10.0005 18.7449L9.8148 18.673C3.85168 16.3682 3.16211 13.3555 3.16211 11.29V3.40087L3.69443 3.41903C7.83944 3.5602 9.6045 1.68945 9.62107 1.67126L10.001 1.25586L10.3804 1.67126C10.3944 1.68627 12.0671 3.42655 15.8643 3.42655H15.8649C16.0092 3.42655 16.1568 3.42445 16.3065 3.41903L16.8388 3.40087V11.29C16.8388 13.3555 16.1492 16.3682 10.1861 18.673L10.0005 18.7449ZM4.19137 4.45589V11.29C4.19137 12.4008 4.19193 15.3335 10.0005 17.6405C15.8096 15.3335 15.8096 12.4008 15.8096 11.29V4.45589C12.593 4.44352 10.7421 3.29885 10.0005 2.7075C9.25832 3.29825 7.40743 4.44244 4.19137 4.45589ZM5.39024 10.434L6.44792 9.57694L8.56449 11.1386C8.56449 11.1386 11.4869 8.11521 14.3086 6.70435L14.7116 7.15836C14.7116 7.15836 11.1849 10.0809 9.37098 13.9613L5.39024 10.434Z" fill="#0094FF"/>
</g>
</svg>
