<svg width="22" height="21" viewBox="0 0 22 21" fill="none" xmlns="http://www.w3.org/2000/svg">
<g id="Frame 427327068">
<path d="M0.5 0H9.5C16.1274 0 21.5 5.37258 21.5 12V21H12.5C5.87258 21 0.5 15.6274 0.5 9V0Z" fill="#0094FF"/>
<path id="Union" d="M16.5033 7.7042C16.8922 7.3346 16.9147 6.71231 16.5536 6.31428C16.1925 5.91625 15.5845 5.8932 15.1956 6.2628L8.87396 12.2711L6.18403 9.12452C5.83457 8.71574 5.22753 8.67432 4.82815 9.032C4.42877 9.38968 4.3883 10.011 4.73776 10.4198L8.10083 14.3538C8.45029 14.7626 9.05734 14.804 9.45671 14.4463C9.53995 14.3718 9.60759 14.2858 9.65937 14.1926C9.70037 14.1643 9.73977 14.1325 9.77714 14.0969L16.5033 7.7042Z" fill="white"/>
</g>
</svg>
