<svg width="68" height="68" viewBox="0 0 68 68" fill="none" xmlns="http://www.w3.org/2000/svg">
<g id="Frame">
<path id="Subtract" fill-rule="evenodd" clip-rule="evenodd" d="M7.98771 12.4023H54.0079C57.9996 12.4023 61.2573 15.7059 61.2573 19.6977V27.1863C58.9126 26.1044 56.3019 25.501 53.5503 25.501C44.4886 25.501 36.9554 32.0456 35.4198 40.666H32.7905C32.0665 40.666 31.4795 41.2529 31.4795 41.9769V44.448C31.4795 45.172 32.0665 45.7589 32.7905 45.7589H35.2245C35.5176 48.7115 36.508 51.459 38.0287 53.8342H7.98771C3.99593 53.8342 0.738281 50.5766 0.738281 46.5848V19.6518C0.738281 15.66 3.99593 12.4023 7.98771 12.4023ZM23.1748 21.4609C23.1748 19.6508 21.7075 18.1835 19.8975 18.1835H9.2462C7.43619 18.1835 5.96888 19.6508 5.96888 21.4609V24.1745C5.96888 25.9845 7.43619 27.4518 9.24621 27.4518H19.8975C21.7075 27.4518 23.1748 25.9845 23.1748 24.1745V21.4609ZM28.4054 41.9769C28.4054 41.2529 27.8185 40.666 27.0945 40.666H19.8975C19.1735 40.666 18.5866 41.2529 18.5866 41.9769V44.448C18.5866 45.172 19.1735 45.7589 19.8975 45.7589H27.0945C27.8185 45.7589 28.4054 45.172 28.4054 44.448V41.9769ZM15.8336 41.9769C15.8336 41.2529 15.2467 40.666 14.5227 40.666H7.32569C6.60169 40.666 6.01476 41.2529 6.01476 41.9769V44.448C6.01476 45.172 6.60169 45.7589 7.32569 45.7589H14.5227C15.2467 45.7589 15.8336 45.172 15.8336 44.448V41.9769Z" fill="#349357"/>
<path id="Vector" d="M53.0899 30.2441C45.7984 30.2441 39.8789 36.1541 39.8789 43.4551C39.8789 50.7562 45.7888 56.6661 53.0899 56.6661C60.3813 56.6661 66.3008 50.7562 66.3008 43.4551C66.3008 36.1541 60.3909 30.2441 53.0899 30.2441ZM61.1968 40.8551L53.3489 48.703C53.2338 48.8182 53.0899 48.8757 52.9556 48.9621C52.9268 49.0005 52.9172 49.0388 52.8788 49.0772C52.4375 49.5185 51.8522 49.7392 51.267 49.7392C50.6818 49.7392 50.1061 49.5185 49.6552 49.0772L44.9829 44.4049C44.0907 43.5127 44.0907 42.0736 44.9829 41.1909C45.8752 40.3083 47.3143 40.2987 48.1969 41.1909L51.3054 44.2994L57.9636 37.6411C58.1741 37.4291 58.4245 37.2608 58.7003 37.1459C58.9761 37.0311 59.2719 36.972 59.5706 36.972C59.8694 36.972 60.1652 37.0311 60.441 37.1459C60.7168 37.2608 60.9672 37.4291 61.1776 37.6411C62.0795 38.5238 62.0795 39.9629 61.1968 40.8551Z" fill="#349357" fill-opacity="0.8"/>
</g>
</svg>
