<svg width="23" height="22" viewBox="0 0 23 22" fill="none" xmlns="http://www.w3.org/2000/svg">
<g id="icon">
<path id="WeChat" d="M8.76949 14.3877C8.67306 14.4383 8.56453 14.4676 8.44912 14.4676C8.18201 14.4676 7.94986 14.3149 7.82796 14.0889L7.78128 13.9829L5.83659 9.54914C5.8156 9.50095 5.8026 9.44639 5.8026 9.39331C5.8026 9.18897 5.96208 9.02343 6.15875 9.02343C6.23852 9.02343 6.3124 9.05091 6.37178 9.09677L8.66664 10.7944C8.83425 10.9083 9.03458 10.9751 9.24993 10.9751C9.37848 10.9751 9.50098 10.9502 9.61526 10.907L20.4071 5.9167C18.4727 3.54809 15.2869 2 11.6817 2C5.78214 2 1.00001 6.1406 1.00001 11.2486C1.00001 14.0352 2.43878 16.5437 4.69084 18.2392C4.87145 18.3733 4.98977 18.5934 4.98977 18.8419C4.98977 18.9241 4.97281 18.9991 4.95212 19.0775C4.77226 19.7745 4.48438 20.8909 4.47101 20.9432C4.44853 21.0307 4.4135 21.1221 4.4135 21.2136C4.4135 21.4179 4.57282 21.5835 4.76979 21.5835C4.84695 21.5835 4.91015 21.5536 4.97535 21.5146L7.31383 20.1118C7.48974 20.0065 7.67596 19.941 7.88122 19.941C7.99035 19.941 8.09582 19.9586 8.19501 19.9901C9.28593 20.3161 10.463 20.4973 11.6818 20.4973C17.581 20.4973 22.3638 16.3564 22.3638 11.2486C22.3638 9.70148 21.9225 8.24442 21.1469 6.96268L8.84777 14.3409L8.76949 14.3877Z" fill="#1AAD19"/>
</g>
</svg>
