<svg width="32" height="32" viewBox="0 0 32 32" fill="none" xmlns="http://www.w3.org/2000/svg">
<g clip-path="url(#clip0_20142_72464)">
<path d="M9.04268 30.4124C11.1462 31.4295 13.506 32 15.9992 32C18.4924 32 20.8522 31.4295 22.9557 30.4124L24.347 16L22.9557 1.58763C20.8522 0.5705 18.4924 0 15.9992 0C13.506 0 11.1462 0.5705 9.04268 1.58763L7.65137 16L9.04268 30.4124Z" fill="#FFDA44"/>
<path d="M22.9561 30.4115C28.308 27.8236 31.9995 22.343 31.9995 15.9997C31.9995 9.65639 28.308 4.17577 22.9561 1.58789V30.4115Z" fill="#D80027"/>
<path d="M9.0435 30.4115V1.58789C3.69156 4.17577 0 9.65633 0 15.9997C0 22.3431 3.69156 27.8236 9.0435 30.4115Z" fill="#0052B4"/>
<path d="M16 21.5652C16 19.012 16 16 16 16H20.1739V18.0869C20.1739 18.4495 19.4783 19.778 17.7612 20.8696C17.1109 21.2831 16.4378 21.4161 16 21.5652Z" fill="#D80027"/>
<path d="M11.8262 11.8262H16.0001V16.0001H11.8262V11.8262Z" fill="#D80027"/>
<path d="M18.0867 10.4343C18.0867 9.66584 17.4638 9.04297 16.6954 9.04297C16.4416 9.04297 16.2045 9.11197 15.9998 9.23059C15.7949 9.11197 15.5579 9.04297 15.3041 9.04297C14.5358 9.04297 13.9128 9.66584 13.9128 10.4343H10.4346V17.3907C10.4346 19.9805 12.4912 21.4782 14.104 22.2545C13.9833 22.4607 13.9128 22.6999 13.9128 22.956C13.9128 23.7245 14.5358 24.3474 15.3041 24.3474C15.5579 24.3474 15.795 24.2784 15.9998 24.1597C16.2046 24.2784 16.4416 24.3474 16.6954 24.3474C17.4638 24.3474 18.0867 23.7245 18.0867 22.956C18.0867 22.6999 18.0162 22.4607 17.8954 22.2545C19.5083 21.4782 21.5649 19.9805 21.5649 17.3907V10.4343H18.0867ZM19.478 17.3907C19.478 17.7533 19.478 18.8565 17.761 19.9481C17.1106 20.3616 16.4375 20.6297 15.9998 20.7788C15.562 20.6297 14.8889 20.3616 14.2385 19.9481C12.5215 18.8565 12.5215 17.7533 12.5215 17.3907V12.5212H19.478V17.3907Z" fill="#FF9811"/>
</g>
<defs>
<clipPath id="clip0_20142_72464">
<rect width="32" height="32" fill="white"/>
</clipPath>
</defs>
</svg>
