<svg width="32" height="32" viewBox="0 0 32 32" fill="none" xmlns="http://www.w3.org/2000/svg">
<g clip-path="url(#clip0_20142_72622)">
<path d="M16 32C24.8366 32 32 24.8366 32 16C32 7.16344 24.8366 0 16 0C7.16344 0 0 7.16344 0 16C0 24.8366 7.16344 32 16 32Z" fill="#F0F0F0"/>
<path d="M9.04395 21.5645L10.4353 31.0042C12.1685 31.6474 14.0433 31.9993 16.0004 31.9993C22.8798 31.9993 28.7446 27.6573 31.0052 21.5645H9.04395Z" fill="black"/>
<path d="M9.04395 10.4348L10.4353 0.995062C12.1685 0.351875 14.0433 0 16.0004 0C22.8798 0 28.7446 4.342 31.0052 10.4348H9.04395Z" fill="#6DA544"/>
<path d="M0 15.999C0 22.8784 4.34206 28.7431 10.4348 31.0038V0.994141C4.34206 3.25483 0 9.11952 0 15.999Z" fill="#A2001D"/>
</g>
<defs>
<clipPath id="clip0_20142_72622">
<rect width="32" height="32" fill="white"/>
</clipPath>
</defs>
</svg>
