<svg width="32" height="32" viewBox="0 0 32 32" fill="none" xmlns="http://www.w3.org/2000/svg">
<path d="M22.9557 1.58763C20.8522 0.5705 18.4923 0 15.9992 0C13.5061 0 11.1462 0.5705 9.04268 1.58763L7.65137 16L9.04268 30.4124C11.1462 31.4295 13.5061 32 15.9992 32C18.4923 32 20.8522 31.4295 22.9557 30.4124L24.347 16L22.9557 1.58763Z" fill="#D80027"/>
<path d="M9.0435 1.58789C3.69163 4.17583 0 9.65639 0 15.9997C0 22.343 3.69163 27.8236 9.0435 30.4115V1.58789Z" fill="black"/>
<path d="M22.9561 1.58789V30.4115C28.3079 27.8236 31.9995 22.343 31.9995 15.9997C31.9995 9.65639 28.3079 4.17583 22.9561 1.58789Z" fill="#496E2D"/>
<path d="M15.9998 10.4355C12.9261 10.4355 10.4346 12.9272 10.4346 16.0007C10.4346 19.0743 12.9262 21.5659 15.9998 21.5659C19.0733 21.5659 21.5649 19.0743 21.5649 16.0007C21.5649 12.9272 19.0734 10.4355 15.9998 10.4355ZM15.9998 19.479C14.0788 19.479 12.5215 17.9217 12.5215 16.0007C12.5215 14.0798 14.0788 12.5225 15.9998 12.5225C17.9207 12.5225 19.478 14.0798 19.478 16.0007C19.478 17.9217 17.9208 19.479 15.9998 19.479Z" fill="#FFDA44"/>
<path d="M16.0007 13.9141C15.2323 13.9141 14.6094 14.5369 14.6094 15.3054V17.3923H17.392V15.3054C17.392 14.5369 16.7691 13.9141 16.0007 13.9141V13.9141Z" fill="#FFDA44"/>
</svg>
