<svg width="32" height="32" viewBox="0 0 32 32" fill="none" xmlns="http://www.w3.org/2000/svg">
<path d="M0 16.0001C0 17.0961 0.1105 18.1662 0.320437 19.2001L16 20.1741L31.6796 19.2001C31.8896 18.1662 32 17.0961 32 16.0001C32 14.9042 31.8895 13.8341 31.6796 12.8001L16 11.8262L0.320437 12.8001C0.1105 13.8341 0 14.9042 0 16.0001H0Z" fill="#0052B4"/>
<path d="M31.6795 19.1992H0.320312C1.80275 26.5023 8.25931 31.9992 15.9999 31.9992C23.7404 31.9992 30.197 26.5023 31.6795 19.1992Z" fill="#F0F0F0"/>
<path d="M0.320312 12.8H31.6796C30.197 5.49688 23.7406 0 15.9999 0C8.25919 0 1.80275 5.49688 0.320312 12.8V12.8Z" fill="black"/>
<path d="M22.957 12.7993H9.04395L11.8864 11.4622L10.3728 8.70939L13.4593 9.29971L13.8506 6.18164L16.0005 8.47502L18.1505 6.18164L18.5415 9.29971L21.6281 8.70939L20.1146 11.4623L22.957 12.7993Z" fill="#FFDA44"/>
<path d="M0 15.999C0 24.8355 7.1635 31.999 16 31.999L3.19975 6.39844C1.19075 9.07275 0 12.3967 0 15.999Z" fill="#A2001D"/>
<path d="M16 31.999C24.8365 31.999 32 24.8355 32 15.999C32 12.3967 30.8092 9.07275 28.8002 6.39844L16 31.999Z" fill="#A2001D"/>
</svg>
