<svg width="32" height="32" viewBox="0 0 32 32" fill="none" xmlns="http://www.w3.org/2000/svg">
<path d="M32 16C32 24.8365 24.8365 32 16 32C7.1635 32 0 24.8365 0 16C0 16.0038 16 0.00175 16 0C24.8365 0 32 7.1635 32 16Z" fill="#0052B4"/>
<path d="M15.958 15.9998H16.0008C16.0008 15.9855 16.0008 15.9715 16.0008 15.957C15.9866 15.9713 15.9723 15.9856 15.958 15.9998Z" fill="#F0F0F0"/>
<path d="M16 8.34781C16 5.5325 16 3.68781 16 0H15.9973C7.16194 0.0015 0 7.16431 0 16H8.34781V11.2993L13.0485 16H15.9572C15.9715 15.9857 15.9858 15.9715 16.0001 15.9572C16.0001 14.8793 16.0001 13.9174 16.0001 13.0486L11.2992 8.34781H16Z" fill="#F0F0F0"/>
<path d="M8.09466 2.08594C5.59223 3.51087 3.51179 5.59125 2.08691 8.09369V15.999H6.26085V6.26V6.25988H16C16 4.94344 16 3.68931 16 2.08594H8.09466Z" fill="#D80027"/>
<path d="M15.9998 14.0322L10.3152 8.34766H8.34766V8.34778L15.9997 15.9998H15.9998C15.9998 15.9998 15.9998 14.6431 15.9998 14.0322V14.0322Z" fill="#D80027"/>
<path d="M27.0587 18.3419C27.5187 17.7089 27.826 16.9359 27.826 15.9997V9.04322C27.2447 9.47997 26.5222 9.73885 25.7391 9.73885C24.6012 9.73885 23.591 9.19241 22.9565 8.34766C22.3219 9.19241 21.3117 9.73885 20.1739 9.73885C19.3907 9.73885 18.6682 9.47991 18.0869 9.04334V15.9997C18.0869 16.9359 18.3942 17.7089 18.8543 18.3419H27.0587Z" fill="#F3F3F3"/>
<path d="M25.611 14.7105C25.8325 14.1701 26.0047 13.3803 26.0047 12.9873C26.0047 12.3557 25.1814 11.8438 25.1814 11.8438C25.1814 11.8438 24.358 12.3557 24.358 12.9873C24.358 13.3804 24.5303 14.1702 24.7517 14.7105L24.2764 15.7837C24.5557 15.8973 24.8611 15.9604 25.1814 15.9604C25.5017 15.9604 25.8071 15.8973 26.0865 15.7837L25.611 14.7105Z" fill="#FF9811"/>
<path d="M22.3937 11.2353C21.8152 11.3137 21.045 11.5596 20.7047 11.7561C20.1577 12.0719 20.126 13.0409 20.126 13.0409C20.126 13.0409 20.9811 13.4979 21.528 13.1822C21.8685 12.9856 22.4662 12.4416 22.8233 11.9796L23.9905 11.8546C23.9492 11.556 23.851 11.2599 23.691 10.9826C23.5308 10.7053 23.3236 10.4723 23.0855 10.2871L22.3937 11.2353Z" fill="#FF9811"/>
<path d="M20.9934 15.7609C21.3504 16.2227 21.9484 16.7666 22.2889 16.9632C22.8358 17.279 23.6909 16.822 23.6909 16.822C23.6909 16.822 23.659 15.853 23.1122 15.5372C22.7716 15.3406 22.0015 15.0949 21.4229 15.0167L20.7312 14.0684C20.4932 14.2535 20.2859 14.4866 20.1257 14.7637C19.9657 15.0411 19.8677 15.337 19.8262 15.6359L20.9934 15.7609Z" fill="#FF9811"/>
<path d="M18.6826 18.0879C19.9819 20.1726 22.9569 20.8704 22.9569 20.8704C22.9569 20.8704 25.9319 20.1726 27.2312 18.0879H18.6826Z" fill="#338AF3"/>
</svg>
