<svg width="32" height="32" viewBox="0 0 32 32" fill="none" xmlns="http://www.w3.org/2000/svg">
<path d="M16 32C24.8366 32 32 24.8366 32 16C32 7.16344 24.8366 0 16 0C7.16344 0 0 7.16344 0 16C0 24.8366 7.16344 32 16 32Z" fill="#D80027"/>
<path d="M25.044 11.8753H19.2486C19.6063 11.5007 19.8265 10.9935 19.8265 10.4346C19.8265 9.28203 18.8922 8.34766 17.7396 8.34766C17.0135 8.34766 16.3743 8.71866 16.0005 9.28122C15.6267 8.71866 14.9874 8.34766 14.2613 8.34766C13.1088 8.34766 12.1744 9.28203 12.1744 10.4346C12.1744 10.9935 12.3946 11.5008 12.7523 11.8753H6.95703C6.95703 13.4122 8.29559 14.6579 9.83228 14.6579H9.73953C9.73953 16.1948 10.9853 17.4406 12.5222 17.4406C12.5222 17.9383 12.6534 18.405 12.8824 18.809L10.5743 21.1172L12.3452 22.8879L14.8572 20.376C14.9555 20.412 15.0573 20.441 15.1625 20.4607L13.6445 23.8878L16.0005 26.4346L18.3564 23.8877L16.8385 20.4605C16.9437 20.4408 17.0454 20.412 17.1438 20.3758L19.6558 22.8878L21.4267 21.117L19.1185 18.8088C19.3475 18.4048 19.4787 17.9382 19.4787 17.4404C21.0155 17.4404 22.2613 16.1947 22.2613 14.6577H22.1687C23.7053 14.6578 25.044 13.4122 25.044 11.8753V11.8753Z" fill="black"/>
</svg>
