<svg width="32" height="32" viewBox="0 0 32 32" fill="none" xmlns="http://www.w3.org/2000/svg">
<path d="M16 32C24.8366 32 32 24.8366 32 16C32 7.16344 24.8366 0 16 0C7.16344 0 0 7.16344 0 16C0 24.8366 7.16344 32 16 32Z" fill="#3A7DCE"/>
<path d="M8.32021 15.3069L8.16021 14.5603H8.00021L7.73354 14.8269L7.68021 14.1336L7.36021 13.8669L7.14688 13.9736V14.0803L6.77354 13.9203L6.50688 13.6003L7.14688 13.0669L6.08021 12.2136L5.54688 10.2403L9.49354 13.0669L11.9469 12.4269L11.8402 12.0536L12.3202 11.9469L12.5335 11.1469L12.4802 10.8803L12.6402 10.6669L12.7469 10.1336L12.6402 9.92026L13.0135 9.60026L12.9069 8.80026L13.7602 8.42693L14.4535 7.73359L14.4002 7.36026L14.8802 7.62693L15.3069 7.36026L15.4669 6.93359L15.6802 7.25359L17.9735 7.36026L18.4535 7.78693L20.3202 8.16026L20.6935 8.53359L20.9602 8.42693L21.2269 9.33359H21.3869L21.6002 9.06693L23.3069 9.65359L23.4135 9.92026L23.8402 9.81359L24.3202 10.2403L24.8002 12.8536L24.3735 14.2936L26.1869 14.8269L26.2935 16.0536L25.9202 16.9603L26.4535 17.3869L26.1869 18.9336L25.2802 19.6269L25.4935 20.6936L24.9602 21.0669L24.6402 20.9603V21.9736H24.2135L24.3735 22.3469L23.4669 22.7203L23.7335 23.2536L23.1469 23.8936L23.3069 24.0536L22.9335 23.9469L21.2269 24.9603L21.3335 24.6936L20.8002 24.8003L20.6935 24.5336L20.2669 24.8536L20.1069 24.8003L19.8402 25.1203L17.9202 24.8536L17.6535 24.6936L17.3335 24.8536L16.6402 24.3203L16.9602 24.0003L17.4402 23.0403V22.4536L17.0669 21.6003L16.6402 22.0269L14.1335 21.3869L13.6002 21.4403L13.1735 21.7069L11.9469 21.6003V21.8136L9.38688 20.9069V20.3736H8.96021L8.85354 18.8269L8.53354 18.9336L8.05354 17.8136L8.16021 18.0803L7.25354 17.1203H7.78688L7.62687 16.0536L8.05354 15.3069H8.32021Z" fill="white"/>
</svg>
