<svg width="32" height="32" viewBox="0 0 32 32" fill="none" xmlns="http://www.w3.org/2000/svg">
<g clip-path="url(#clip0_20142_72488)">
<path d="M32 15.9991C32 14.042 31.648 12.1672 31.0048 10.434L16 9.73828L0.995188 10.4339C0.352063 12.1672 0 14.042 0 15.9991C0 17.9563 0.352063 19.8311 0.995188 21.5643L16 22.26L31.0048 21.5644C31.648 19.8311 32 17.9563 32 15.9991Z" fill="#496E2D"/>
<path d="M15.999 31.9993C22.8784 31.9993 28.7431 27.6573 31.0038 21.5645H0.994141C3.25483 27.6573 9.11952 31.9993 15.999 31.9993Z" fill="#D80027"/>
<path d="M0.994141 10.4348H31.0038C28.7431 4.342 22.8784 0 15.999 0C9.11952 0 3.25483 4.342 0.994141 10.4348V10.4348Z" fill="#F0F0F0"/>
</g>
<defs>
<clipPath id="clip0_20142_72488">
<rect width="32" height="32" fill="white"/>
</clipPath>
</defs>
</svg>
