<svg width="32" height="32" viewBox="0 0 32 32" fill="none" xmlns="http://www.w3.org/2000/svg">
<path d="M16 32C24.8366 32 32 24.8366 32 16C32 7.16344 24.8366 0 16 0C7.16344 0 0 7.16344 0 16C0 24.8366 7.16344 32 16 32Z" fill="#F0F0F0"/>
<path d="M28.567 12.87H23.3033C23.3033 11.9095 22.5247 11.1309 21.5642 11.1309L20.1729 13.9134C20.1729 13.9134 21.6569 18.0874 21.6105 18.0874H23.3496C24.3102 18.0874 25.0888 17.3088 25.0888 16.3483C26.0493 16.3483 26.8279 15.5697 26.8279 14.6091H26.77C27.7304 14.6091 28.567 13.8305 28.567 12.87Z" fill="#ACABB1"/>
<path d="M3.43164 12.87H8.6954C8.6954 11.9095 9.47404 11.1309 10.4345 11.1309L11.8258 13.9134C11.8258 13.9134 10.3417 18.0874 10.3882 18.0874H8.64905C7.68851 18.0874 6.90993 17.3088 6.90993 16.3483C5.94939 16.3483 5.17082 15.5697 5.17082 14.6091H5.22874C4.2682 14.6091 3.43164 13.8305 3.43164 12.87V12.87Z" fill="#ACABB1"/>
<path d="M21.5654 22.2617V22.9574H10.4349V22.2617H7.65234V25.0443H10.4349V25.7399H21.5654V25.0443H24.348V22.2617H21.5654Z" fill="#FFDA44"/>
<path d="M10.4355 11.1312V18.0876C10.4355 22.3476 16.0007 23.6529 16.0007 23.6529C16.0007 23.6529 21.5659 22.3476 21.5659 18.0876V11.1312L16.0007 10.4355L10.4355 11.1312Z" fill="#0052B4"/>
<path d="M10.4346 13.9141H21.565V18.088H10.4346V13.9141Z" fill="#D80027"/>
<path d="M18.7833 7.65305V8.69653L18.0877 9.04438L17.3921 8.34868V6.26172H14.6095V8.34868L13.9138 9.04438L13.2181 8.69653V7.65305H10.4355V11.1313H21.566V7.65305H18.7833Z" fill="#FFDA44"/>
</svg>
