<svg width="32" height="32" viewBox="0 0 32 32" fill="none" xmlns="http://www.w3.org/2000/svg">
<path d="M16.0006 31.9973C24.8358 31.9973 31.9982 24.8349 31.9982 15.9996C31.9982 7.16435 24.8358 0.00195312 16.0006 0.00195312C7.16532 0.00195312 0.00292969 7.16435 0.00292969 15.9996C0.00292969 24.8349 7.16532 31.9973 16.0006 31.9973Z" fill="#F0F0F0"/>
<path d="M2.14554 8.00195C1.42346 9.25248 0.890828 10.5599 0.536133 11.8916L27.2903 27.3382C28.2663 26.3652 29.1323 25.2501 29.8542 23.9996L2.14554 8.00195Z" fill="black"/>
<path d="M23.9983 2.14561C17.5972 -1.55004 9.70453 -0.318322 4.70898 4.66253L31.4632 20.1091C33.279 13.2925 30.3993 5.84131 23.9983 2.14561V2.14561Z" fill="#FFDA44"/>
<path d="M8.0004 29.8542C14.4014 33.5498 22.2943 32.3181 27.2897 27.3373L0.535431 11.8906C-1.2803 18.7073 1.59927 26.1585 8.0004 29.8542Z" fill="#FFDA44"/>
<path d="M20.5201 14.262C20.5201 16.7589 18.4959 18.7831 15.999 18.7831C13.5021 18.7831 11.4779 16.7589 11.4779 14.262C11.4779 13.4835 11.6747 12.7509 12.0214 12.1113C11.0403 13.1147 10.4346 14.4867 10.4346 16.0008C10.4346 19.074 12.9258 21.5653 15.999 21.5653C19.0722 21.5653 21.5634 19.074 21.5634 16.0008C21.5634 14.4867 20.9578 13.1147 19.9766 12.1113C20.3233 12.751 20.5201 13.4835 20.5201 14.262V14.262Z" fill="#D80027"/>
<path d="M14.9561 9.04492H17.0427V19.4782H14.9561V9.04492Z" fill="#D80027"/>
<path d="M19.4769 11.1309H12.5215C12.5215 11.6111 12.9398 12.0003 13.4199 12.0003H13.3909C13.3909 12.4805 13.7803 12.8698 14.2604 12.8698C14.2604 13.35 14.6497 13.7392 15.1299 13.7392H16.8687C17.3489 13.7392 17.7382 13.35 17.7382 12.8698C18.2184 12.8698 18.6076 12.4805 18.6076 12.0003H18.5787C19.0587 12.0003 19.4769 11.6111 19.4769 11.1309Z" fill="#D80027"/>
<path d="M11.1309 20.1738H20.8686V22.2605H11.1309V20.1738Z" fill="#D80027"/>
<path d="M18.0859 20.8691H22.2592V22.9558H18.0859V20.8691Z" fill="#D80027"/>
<path d="M9.74023 20.8691H13.9135V22.9558H9.74023V20.8691Z" fill="#D80027"/>
</svg>
