<svg width="32" height="32" viewBox="0 0 32 32" fill="none" xmlns="http://www.w3.org/2000/svg">
<g clip-path="url(#clip0_20142_72493)">
<path d="M27.3127 27.3133C21.0644 33.5617 10.9337 33.5617 4.6853 27.3133C-1.56307 21.0649 -1.56307 10.9342 4.6853 4.68581C4.68755 4.68581 19.0639 0.437875 25.3124 6.68625C31.5608 12.9346 27.3171 27.3089 27.3127 27.3133Z" fill="#FFDA44"/>
<path d="M27.313 27.3138C33.5614 21.0654 33.5614 10.9347 27.313 4.6863C21.0646 -1.56213 10.934 -1.56207 4.68555 4.6863L27.313 27.3138Z" fill="#D80027"/>
<path d="M20.1816 20.184C19.5244 20.4421 18.7607 20.4147 18.0981 20.0429C16.9275 19.3859 16.5096 17.8988 17.1668 16.728L16.9673 16.6161C18.9718 16.1328 20.4547 14.3134 20.4287 12.1664C20.4126 10.8316 19.8161 9.63744 18.8832 8.82031L17.4224 10.3169C17.9746 10.7571 18.3327 11.4322 18.3419 12.1917C18.3581 13.5342 17.2793 14.6397 15.9368 14.6559L15.9396 14.8844C14.5188 13.3903 12.2018 13.0157 10.3555 14.1117C9.20765 14.7932 8.47178 15.9067 8.23047 17.1233L10.257 17.6402C10.362 16.9418 10.7676 16.2942 11.4208 15.9064C12.5752 15.2211 14.072 15.6028 14.7573 16.7572L14.954 16.6405C14.3704 18.6179 15.2045 20.8118 17.0769 21.8628C18.241 22.5162 19.5733 22.5967 20.7475 22.1974L20.1816 20.184ZM15.9536 16.0469L15.9535 16.0469L15.9536 16.0469Z" fill="#FF9811"/>
<path d="M21.9243 10.8352L20.7934 14.8709L17.4003 14.2444L15.2161 9.74219L9.3157 11.836L8.85039 10.5247L7.30664 10.3346L8.46983 13.6126L12.5304 12.5741L13.6843 15.8259L10.8773 19.9685L15.6409 24.0314L14.738 25.0899L15.3451 26.5221L17.6025 23.8756L14.6729 20.8783L16.9121 18.2531L21.9032 18.6128L23.04 12.4559L24.4082 12.7086L25.345 11.4667L21.9243 10.8352ZM15.999 16.1078V16.1079V16.1078Z" fill="#FFEACF"/>
</g>
<defs>
<clipPath id="clip0_20142_72493">
<rect width="32" height="32" fill="white"/>
</clipPath>
</defs>
</svg>
