<svg width="32" height="32" viewBox="0 0 32 32" fill="none" xmlns="http://www.w3.org/2000/svg">
<g clip-path="url(#clip0_57127_114851)">
<path d="M16 32C24.8366 32 32 24.8366 32 16C32 7.16344 24.8366 0 16 0C7.16344 0 0 7.16344 0 16C0 24.8366 7.16344 32 16 32Z" fill="#F0F0F0"/>
<path d="M0.551758 20.1738C1.47751 23.6088 3.51782 26.5859 6.26145 28.694V20.1738H0.551758Z" fill="#D80027"/>
<path d="M14.6094 31.939C15.068 31.9785 15.5318 31.9999 16.0007 31.9999C23.3931 31.9999 29.6135 26.9861 31.4495 20.1738H14.6094V31.939Z" fill="#D80027"/>
<path d="M31.4495 11.8261C29.6135 5.01381 23.3931 0 16.0007 0C15.5318 0 15.068 0.021375 14.6094 0.060875V11.8261H31.4495Z" fill="#D80027"/>
<path d="M6.26145 3.30566C3.51782 5.41379 1.47751 8.39085 0.551758 11.8258H6.26145V3.30566Z" fill="#D80027"/>
<path d="M31.8646 13.9126H12.5218H12.5218V0.379883C11.0431 0.707758 9.64131 1.2392 8.34781 1.94501V13.9125V13.9126H0.135438C0.046375 14.5958 0 15.2923 0 15.9996C0 16.7069 0.046375 17.4034 0.135438 18.0865H8.34775H8.34781V30.0541C9.64131 30.7598 11.0431 31.2914 12.5218 31.6192V18.0867V18.0866H31.8646C31.9535 17.4034 32 16.7069 32 15.9996C32 15.2923 31.9535 14.5958 31.8646 13.9126V13.9126Z" fill="#0052B4"/>
</g>
<defs>
<clipPath id="clip0_57127_114851">
<rect width="32" height="32" fill="white"/>
</clipPath>
</defs>
</svg>
