<svg width="32" height="32" viewBox="0 0 32 32" fill="none" xmlns="http://www.w3.org/2000/svg">
<path d="M32 15.999C32 10.5077 29.2332 5.66313 25.0179 2.78163L16 2.08594L6.98206 2.78156C2.76687 5.66313 0 10.5078 0 15.999C0 21.4904 2.76687 26.3349 6.98206 29.2164L16 29.9121L25.0179 29.2164C29.2332 26.3349 32 21.4904 32 15.999Z" fill="#0052B4"/>
<path d="M25.0183 2.78262C22.4505 1.02725 19.3456 0 16.0004 0C12.6552 0 9.55023 1.02725 6.98242 2.78262H25.0183Z" fill="#A2001D"/>
<path d="M6.98242 29.2168C9.55017 30.9722 12.6552 31.9995 16.0004 31.9995C19.3456 31.9995 22.4505 30.9722 25.0183 29.2168H6.98242Z" fill="#A2001D"/>
<path d="M16.0008 23.652C20.227 23.652 23.653 20.226 23.653 15.9998C23.653 11.7737 20.227 8.34766 16.0008 8.34766C11.7746 8.34766 8.34863 11.7737 8.34863 15.9998C8.34863 20.226 11.7746 23.652 16.0008 23.652Z" fill="#F0F0F0"/>
<path d="M16.0001 22.26C19.4579 22.26 22.261 19.4569 22.261 15.9991C22.261 12.5414 19.4579 9.73828 16.0001 9.73828C12.5423 9.73828 9.73926 12.5414 9.73926 15.9991C9.73926 19.4569 12.5423 22.26 16.0001 22.26Z" fill="#6DA544"/>
<path d="M16.0001 20.1741C18.3053 20.1741 20.1741 18.3053 20.1741 16.0001C20.1741 13.6949 18.3053 11.8262 16.0001 11.8262C13.6949 11.8262 11.8262 13.6949 11.8262 16.0001C11.8262 18.3053 13.6949 20.1741 16.0001 20.1741Z" fill="#F0F0F0"/>
<path d="M16.0001 14.957L13.7393 16.0005V17.7396L16.0001 19.131L18.261 17.7396V16.0005L16.0001 14.957Z" fill="#0052B4"/>
<path d="M13.7393 13.9141H18.261V16.001H13.7393V13.9141Z" fill="#FFDA44"/>
</svg>
