<svg width="32" height="32" viewBox="0 0 32 32" fill="none" xmlns="http://www.w3.org/2000/svg">
<g clip-path="url(#clip0_20142_72533)">
<path d="M8.67339 30.228L20.4274 20.4275L30.2279 8.67346C28.7042 5.72046 26.288 3.30303 23.3362 1.77734L11.5729 11.573L1.77734 23.3362C3.3029 26.2882 5.72034 28.7042 8.67339 30.228V30.228Z" fill="#FFDA44"/>
<path d="M27.3137 27.3147C32.3616 22.2667 33.3306 14.6857 30.2228 8.66406L8.66309 30.2238C14.6847 33.3315 22.2658 32.3625 27.3137 27.3147Z" fill="#D80027"/>
<path d="M4.68582 4.68581C-0.362049 9.73368 -1.33105 17.3148 1.77663 23.3364L23.3364 1.77669C17.3148 -1.33111 9.73368 -0.361991 4.68582 4.68581V4.68581Z" fill="#6DA544"/>
</g>
<defs>
<clipPath id="clip0_20142_72533">
<rect width="32" height="32" fill="white"/>
</clipPath>
</defs>
</svg>
