<svg width="32" height="32" viewBox="0 0 32 32" fill="none" xmlns="http://www.w3.org/2000/svg">
<path d="M16 32C24.8366 32 32 24.8366 32 16C32 7.16344 24.8366 0 16 0C7.16344 0 0 7.16344 0 16C0 24.8366 7.16344 32 16 32Z" fill="#D80027"/>
<path d="M8.75625 9.73828L10.1375 13.9883H14.6062L10.9937 16.6195L12.375 20.8695L8.75625 18.2445L5.1375 20.8695L6.525 16.6195L2.90625 13.9883H7.375L8.75625 9.73828Z" fill="#FFDA44"/>
<path d="M18.9699 24.7816L17.9137 23.4816L16.3512 24.0879L17.2574 22.6816L16.2012 21.3754L17.8199 21.8066L18.7324 20.4004L18.8199 22.0754L20.4449 22.5066L18.8762 23.1066L18.9699 24.7816Z" fill="#FFDA44"/>
<path d="M21.0699 20.9691L21.5699 19.3691L20.2012 18.4004L21.8762 18.3754L22.3699 16.7754L22.9137 18.3629L24.5887 18.3441L23.2449 19.3441L23.7824 20.9316L22.4137 19.9629L21.0699 20.9691Z" fill="#FFDA44"/>
<path d="M23.8988 11.7449L23.1613 13.2512L24.3613 14.4199L22.7051 14.1824L21.9676 15.6824L21.6801 14.0324L20.0176 13.7949L21.5051 13.0137L21.2176 11.3574L22.4176 12.5262L23.8988 11.7449Z" fill="#FFDA44"/>
<path d="M19.0119 7.18164L18.8869 8.85039L20.4432 9.48164L18.8119 9.88164L18.6932 11.5566L17.8119 10.1316L16.1807 10.5316L17.2619 9.25039L16.3744 7.83164L17.9307 8.46289L19.0119 7.18164Z" fill="#FFDA44"/>
</svg>
