<svg width="32" height="32" viewBox="0 0 32 32" fill="none" xmlns="http://www.w3.org/2000/svg">
<path d="M16 32C24.8366 32 32 24.8366 32 16C32 7.16344 24.8366 0 16 0C7.16344 0 0 7.16344 0 16C0 24.8366 7.16344 32 16 32Z" fill="#1C1C1C"/>
<path d="M15.5 23.9866C14.304 23.9866 13.2575 23.7629 12.3605 23.3154C11.4793 22.868 10.6924 22.2192 10 21.3691L11.4871 19.9597C11.9907 20.6309 12.573 21.1603 13.2339 21.5481C13.8948 21.9359 14.6738 22.1298 15.5708 22.1298C16.5308 22.1298 17.3019 21.921 17.8841 21.5034C18.4821 21.0858 18.7811 20.5041 18.7811 19.7584C18.7811 19.1767 18.6395 18.7069 18.3562 18.349C18.073 17.9911 17.6953 17.7002 17.2232 17.4765C16.7511 17.2379 16.2318 17.0291 15.6652 16.8501C15.0987 16.6562 14.5322 16.4549 13.9657 16.2461C13.4149 16.0224 12.9034 15.7539 12.4313 15.4407C11.9592 15.1126 11.5815 14.6875 11.2983 14.1655C11.015 13.6435 10.8734 12.9873 10.8734 12.1969C10.8734 11.3169 11.0937 10.5712 11.5343 9.95973C11.9907 9.33333 12.6044 8.85608 13.3755 8.52796C14.1466 8.18494 15.0122 8.01342 15.9721 8.01342C16.9635 8.01342 17.8684 8.21476 18.6867 8.61745C19.505 9.00522 20.1817 9.51976 20.7167 10.1611L19.2296 11.5705C18.7418 11.0336 18.2303 10.616 17.6953 10.3177C17.1602 10.0194 16.5701 9.87025 15.9249 9.87025C15.0122 9.87025 14.2961 10.0567 13.7768 10.4295C13.2575 10.8024 12.9979 11.3468 12.9979 12.0626C12.9979 12.5846 13.1395 13.0097 13.4227 13.3378C13.7217 13.651 14.1073 13.9195 14.5794 14.1432C15.0672 14.3669 15.5866 14.5757 16.1373 14.7696C16.7039 14.9485 17.2704 15.1499 17.8369 15.3736C18.4192 15.5973 18.9464 15.8807 19.4185 16.2237C19.8906 16.5667 20.2682 17.0142 20.5515 17.566C20.8505 18.1029 21 18.7815 21 19.6018C21 20.9739 20.5043 22.0477 19.5129 22.8233C18.5215 23.5988 17.1838 23.9866 15.5 23.9866ZM15.1695 26V6H16.7275V26H15.1695Z" fill="white"/>
</svg>
