<svg width="32" height="32" viewBox="0 0 32 32" fill="none" xmlns="http://www.w3.org/2000/svg">
<path d="M16 32C24.8366 32 32 24.8366 32 16C32 7.16344 24.8366 0 16 0C7.16344 0 0 7.16344 0 16C0 24.8366 7.16344 32 16 32Z" fill="#F0F0F0"/>
<path d="M15.9999 32.0008C20.8493 32.0008 25.1945 29.843 28.1287 26.4355H3.87109C6.80528 29.843 11.1505 32.0008 15.9999 32.0008Z" fill="#0052B4"/>
<path d="M32 16C32 7.1635 24.8365 0 16 0C7.1635 0 0 7.1635 0 16C0 17.4442 0.1925 18.8431 0.551188 20.1739H31.4489C31.8075 18.8431 32 17.4442 32 16Z" fill="#0052B4"/>
<path d="M1.27246 22.2617C1.5809 22.9865 1.94146 23.6835 2.34915 24.3487H29.6524C30.06 23.6834 30.4205 22.9864 30.7291 22.2617H1.27246Z" fill="#D80027"/>
<path d="M11.435 17.043L11.694 17.8401H12.5322L11.8541 18.3328L12.1131 19.1299L11.435 18.6372L10.7569 19.1299L11.016 18.3328L10.3379 17.8401H11.1761L11.435 17.043Z" fill="#FFDA44"/>
<path d="M11.435 27.4785L11.694 28.2757H12.5322L11.8541 28.7683L12.1131 29.5655L11.435 29.0728L10.7569 29.5655L11.016 28.7683L10.3379 28.2757H11.1761L11.435 27.4785Z" fill="#FFDA44"/>
<path d="M6.57857 23.9492L6.83757 24.7463H7.67576L6.9977 25.2389L7.2567 26.0362L6.57857 25.5435L5.90045 26.0362L6.15957 25.2389L5.48145 24.7463H6.31957L6.57857 23.9492Z" fill="#FFDA44"/>
<path d="M8.4341 18.0859L8.6931 18.8831H9.53122L8.85322 19.3758L9.11222 20.1729L8.4341 19.6803L7.75598 20.1729L8.0151 19.3758L7.33691 18.8831H8.1751L8.4341 18.0859Z" fill="#FFDA44"/>
<path d="M5.48145 21.3695L6.31945 21.3696L6.57851 20.5723L6.83757 21.3695L7.67576 21.3695L6.99763 21.8621L7.2567 22.6593L6.57851 22.1666L5.90045 22.6591L6.15945 21.8621L5.48145 21.3695Z" fill="#FFDA44"/>
<path d="M7.75513 28.3681L8.01412 27.5711L7.33594 27.0784H8.17412L8.43319 26.2812L8.69225 27.0784H9.53038L8.85225 27.571L9.11125 28.3682L8.43312 27.8755L7.75513 28.3681Z" fill="#FFDA44"/>
<path d="M16.2915 23.9492L16.0325 24.7463H15.1943L15.8723 25.2389L15.6133 26.0362L16.2915 25.5435L16.9696 26.0362L16.7105 25.2389L17.3886 24.7463H16.5505L16.2915 23.9492Z" fill="#FFDA44"/>
<path d="M14.435 18.0859L14.1761 18.8831H13.3379L14.0159 19.3758L13.7569 20.1729L14.435 19.6803L15.1131 20.1729L14.8541 19.3758L15.5322 18.8831H14.694L14.435 18.0859Z" fill="#FFDA44"/>
<path d="M17.3886 21.3695L16.5506 21.3696L16.2915 20.5723L16.0325 21.3695L15.1943 21.3695L15.8724 21.8621L15.6133 22.6593L16.2915 22.1666L16.9696 22.6591L16.7106 21.8621L17.3886 21.3695Z" fill="#FFDA44"/>
<path d="M15.1141 28.3681L14.8552 27.5711L15.5333 27.0784H14.6951L14.4361 26.2812L14.1771 27.0784H13.3389L14.017 27.571L13.758 28.3682L14.4361 27.8755L15.1141 28.3681Z" fill="#FFDA44"/>
</svg>
