<svg width="32" height="32" viewBox="0 0 32 32" fill="none" xmlns="http://www.w3.org/2000/svg">
<g clip-path="url(#clip0_20142_72429)">
<path d="M16 32C24.8366 32 32 24.8366 32 16C32 7.16344 24.8366 0 16 0C7.16344 0 0 7.16344 0 16C0 24.8366 7.16344 32 16 32Z" fill="#F0F0F0"/>
<path d="M14.608 16C14.608 16 4.69492 27.3159 4.68555 27.3137C7.58092 30.2091 11.581 32 15.9993 32C24.8358 32 31.9993 24.8365 31.9993 16H14.608Z" fill="#D80027"/>
<path d="M4.6853 4.68555C-1.56307 10.9339 -1.56307 21.0646 4.6853 27.313C7.26737 24.731 9.75068 22.2477 15.9991 15.9993L4.6853 4.68555Z" fill="#0052B4"/>
</g>
<defs>
<clipPath id="clip0_20142_72429">
<rect width="32" height="32" fill="white"/>
</clipPath>
</defs>
</svg>
