<svg width="32" height="32" viewBox="0 0 32 32" fill="none" xmlns="http://www.w3.org/2000/svg">
<g clip-path="url(#clip0_20142_72459)">
<path d="M14.608 17.3913C14.608 17.3913 4.69492 4.68406 4.68555 4.68631C7.58092 1.79088 11.581 0 15.9993 0C24.8358 0 31.9993 7.1635 31.9993 16L14.608 17.3913Z" fill="#338AF3"/>
<path d="M14.608 16C14.608 16 4.69492 27.3159 4.68555 27.3137C7.58092 30.2091 11.581 32 15.9993 32C24.8358 32 31.9993 24.8365 31.9993 16H14.608Z" fill="#6DA544"/>
<path d="M4.6853 4.68555C-1.56307 10.9339 -1.56307 21.0646 4.6853 27.313C7.26737 24.731 9.75068 22.2477 15.9991 15.9993L4.6853 4.68555Z" fill="#F0F0F0"/>
<path d="M6.4756 11.8262L7.51154 15.0147H10.8644L8.15204 16.9854L9.18791 20.1741L6.4756 18.2034L3.76316 20.1741L4.79929 16.9854L2.08691 15.0147H5.43954L6.4756 11.8262Z" fill="#D80027"/>
</g>
<defs>
<clipPath id="clip0_20142_72459">
<rect width="32" height="32" fill="white"/>
</clipPath>
</defs>
</svg>
