<svg width="32" height="32" viewBox="0 0 32 32" fill="none" xmlns="http://www.w3.org/2000/svg">
<path d="M16 0C24.8365 0 32 7.1635 32 16C32 24.8365 24.8365 32 16 32C16 31.3044 13.9131 16 13.9131 16L16 0Z" fill="#F0F0F0"/>
<path d="M16 32C7.1635 32 0 24.8365 0 16C0 7.1635 7.1635 0 16 0" fill="#496E2D"/>
<path d="M19.4388 12.9316L18.1261 14.7407L16 14.0512L17.3149 15.8587L16.0023 17.6678L18.1275 16.9758L19.4424 18.7833L19.441 16.5482L21.5663 15.8562L19.4403 15.1668L19.4388 12.9316Z" fill="#D80027"/>
<path d="M17.3278 20.5225C14.8305 20.5225 12.806 18.498 12.806 16.0008C12.806 13.5035 14.8305 11.479 17.3278 11.479C18.1064 11.479 18.8391 11.6759 19.4787 12.0225C18.4752 11.0412 17.1029 10.4355 15.5886 10.4355C12.515 10.4355 10.0234 12.9272 10.0234 16.0007C10.0234 19.0743 12.5151 21.5659 15.5886 21.5659C17.103 21.5659 18.4753 20.9602 19.4787 19.9789C18.8391 20.3257 18.1064 20.5225 17.3278 20.5225Z" fill="#D80027"/>
</svg>
