<svg width="32" height="32" viewBox="0 0 32 32" fill="none" xmlns="http://www.w3.org/2000/svg">
<g clip-path="url(#clip0_20142_72668)">
<path d="M0 16C0 7.1635 7.1635 0 16 0C24.8365 0 32 7.1635 32 16L16 17.3913L0 16Z" fill="#FFDA44"/>
<path d="M2.1416 24.0005C4.90816 28.7828 10.0784 32.0005 16.0006 32.0005C21.9228 32.0005 27.093 28.7828 29.8596 24.0005L16.0006 22.957L2.1416 24.0005Z" fill="#D80027"/>
<path d="M29.859 24C31.2204 21.6466 32 18.9144 32 16H0C0 18.9144 0.779625 21.6466 2.141 24H29.859Z" fill="#0052B4"/>
<path d="M15.9998 21.5659C19.0733 21.5659 21.5649 19.0743 21.5649 16.0007C21.5649 12.9272 19.0733 10.4355 15.9998 10.4355C12.9262 10.4355 10.4346 12.9272 10.4346 16.0007C10.4346 19.0743 12.9262 21.5659 15.9998 21.5659Z" fill="#FFDA44"/>
<path d="M16.0007 19.479C14.0828 19.479 12.5225 17.9186 12.5225 16.0007V13.9138C12.5225 11.9959 14.0828 10.4355 16.0007 10.4355C17.9186 10.4355 19.4789 11.9959 19.4789 13.9138V16.0007C19.4789 17.9187 17.9186 19.479 16.0007 19.479Z" fill="#338AF3"/>
<path d="M21.5651 7.65303H17.3911C17.3911 6.88466 16.7682 6.26172 15.9998 6.26172C15.2314 6.26172 14.6085 6.88466 14.6085 7.65303H10.4346C10.4346 8.42147 11.1039 9.04434 11.8722 9.04434H11.8259C11.8259 9.81278 12.4488 10.4357 13.2172 10.4357C13.2172 11.2041 13.8401 11.827 14.6085 11.827H17.3911C18.1596 11.827 18.7824 11.2041 18.7824 10.4357C19.5509 10.4357 20.1737 9.81278 20.1737 9.04434H20.1274C20.8958 9.04434 21.5651 8.4214 21.5651 7.65303V7.65303Z" fill="black"/>
</g>
<defs>
<clipPath id="clip0_20142_72668">
<rect width="32" height="32" fill="white"/>
</clipPath>
</defs>
</svg>
