<svg width="32" height="32" viewBox="0 0 32 32" fill="none" xmlns="http://www.w3.org/2000/svg">
<g clip-path="url(#clip0_20142_72682)">
<path d="M16 32C24.8366 32 32 24.8366 32 16C32 7.16344 24.8366 0 16 0C7.16344 0 0 7.16344 0 16C0 24.8366 7.16344 32 16 32Z" fill="#F0F0F0"/>
<path d="M15.999 0C9.11952 0 3.25483 4.342 0.994141 10.4348H31.0038C28.7431 4.342 22.8784 0 15.999 0V0Z" fill="#D80027"/>
<path d="M15.999 31.9993C22.8784 31.9993 28.7431 27.6573 31.0038 21.5645H0.994141C3.25483 27.6573 9.11952 31.9993 15.999 31.9993Z" fill="black"/>
<path d="M21.5651 14.2605H17.3911C17.3911 13.4921 16.7682 12.8691 15.9998 12.8691C15.2314 12.8691 14.6085 13.4921 14.6085 14.2605H10.4346C10.4346 15.0289 11.1039 15.6518 11.8723 15.6518H11.8259C11.8259 16.4202 12.4488 17.0431 13.2172 17.0431C13.2172 17.8115 13.8401 18.4344 14.6085 18.4344H17.3911C18.1596 18.4344 18.7824 17.8115 18.7824 17.0431C19.5509 17.0431 20.1737 16.4202 20.1737 15.6518H20.1274C20.8958 15.6518 21.5651 15.0289 21.5651 14.2605V14.2605Z" fill="#FF9811"/>
</g>
<defs>
<clipPath id="clip0_20142_72682">
<rect width="32" height="32" fill="white"/>
</clipPath>
</defs>
</svg>
