<svg width="32" height="32" viewBox="0 0 32 32" fill="none" xmlns="http://www.w3.org/2000/svg">
<g clip-path="url(#clip0_20142_72451)">
<path d="M14.608 14.6094C14.608 14.6094 4.69492 27.3167 4.68555 27.3144C7.58092 30.2098 11.581 32.0007 15.9993 32.0007C24.8358 32.0007 31.9993 24.8372 31.9993 16.0007L14.608 14.6094Z" fill="#338AF3"/>
<path d="M14.608 16C14.608 16 4.69492 4.68406 4.68555 4.68631C7.58092 1.79088 11.581 0 15.9993 0C24.8358 0 31.9993 7.1635 31.9993 16H14.608Z" fill="#6DA544"/>
<path d="M4.6853 4.68555C-1.56307 10.9339 -1.56307 21.0646 4.6853 27.313C4.68487 27.3156 31.9991 15.9993 31.9991 15.9993L4.6853 4.68555Z" fill="#D80027"/>
<path d="M8.34839 9.39062C5.2797 9.39062 2.7832 11.8872 2.7832 14.9558V17.0428C2.7832 20.1114 5.27977 22.608 8.34839 22.608C11.417 22.608 13.9136 20.1114 13.9136 17.0428V14.9558C13.9136 11.8872 11.4171 9.39062 8.34839 9.39062ZM11.8266 17.0428C11.8266 18.5973 10.8015 19.9166 9.39183 20.3609V18.0863L10.8683 16.6098L9.39264 15.1341L9.39183 14.6089V13.9124H7.30495V15.9993L5.82945 17.4748L7.30495 18.9502V20.361C5.89527 19.9167 4.87014 18.5974 4.87014 17.0429V14.9559C4.87014 13.038 6.43052 11.4777 8.34839 11.4777C10.2663 11.4777 11.8266 13.0381 11.8266 14.9559V17.0428Z" fill="#FFDA44"/>
</g>
<defs>
<clipPath id="clip0_20142_72451">
<rect width="32" height="32" fill="white"/>
</clipPath>
</defs>
</svg>
