<svg width="32" height="32" viewBox="0 0 32 32" fill="none" xmlns="http://www.w3.org/2000/svg">
<g clip-path="url(#clip0_20142_72478)">
<path d="M0 15.9995C0 17.9567 0.352062 19.8315 0.99525 21.5649L16 22.956L31.0047 21.5648C31.648 19.8315 32 17.9567 32 15.9995C32 14.0692 31.6581 12.2187 31.0316 10.5054L16 9.04297L0.968375 10.5055C0.341938 12.2187 0 14.0692 0 15.9995H0Z" fill="#FFDA44"/>
<path d="M15.999 31.9993C22.8784 31.9993 28.7431 27.6573 31.0038 21.5645H0.994141C3.25483 27.6573 9.11952 31.9993 15.999 31.9993Z" fill="#D80027"/>
<path d="M15.999 0C9.11952 0 3.25483 4.342 0.994141 10.4348H31.0038C28.7431 4.342 22.8784 0 15.999 0V0Z" fill="#6DA544"/>
<path d="M16.0008 23.652C20.227 23.652 23.653 20.226 23.653 15.9998C23.653 11.7737 20.227 8.34766 16.0008 8.34766C11.7746 8.34766 8.34863 11.7737 8.34863 15.9998C8.34863 20.226 11.7746 23.652 16.0008 23.652Z" fill="#0052B4"/>
<path d="M15.998 10.0742L17.3794 14.3256H21.8567L18.2331 16.9532L19.6253 21.2172L15.998 18.5771L12.3763 21.2123L13.7629 16.9532L10.1426 14.3256H14.6166L15.998 10.0742Z" fill="#FFDA44"/>
<path d="M21.5067 17.0573L17.1245 15.6333L19.8328 11.9058L18.7073 11.0879L15.9988 14.8156L13.2906 11.088L12.165 11.9057L14.8733 15.6335L10.4912 17.0572L10.9211 18.3805L15.3033 16.9567V21.5643H16.6946V16.9566L21.0766 18.3805L21.5067 17.0573Z" fill="#FFDA44"/>
</g>
<defs>
<clipPath id="clip0_20142_72478">
<rect width="32" height="32" fill="white"/>
</clipPath>
</defs>
</svg>
