<svg width="32" height="32" viewBox="0 0 32 32" fill="none" xmlns="http://www.w3.org/2000/svg">
<path d="M16 32C24.8366 32 32 24.8366 32 16C32 7.16344 24.8366 0 16 0C7.16344 0 0 7.16344 0 16C0 24.8366 7.16344 32 16 32Z" fill="#0052B4"/>
<path d="M15.9981 6.26172L16.5161 7.85603H18.1924L16.8362 8.84135L17.3543 10.4357L15.9981 9.45029L14.6418 10.4357L15.1599 8.84135L13.8037 7.85603H15.48L15.9981 6.26172Z" fill="#FFDA44"/>
<path d="M9.11266 9.1137L10.6064 9.8747L11.7917 8.68945L11.5294 10.3451L13.0231 11.1061L11.3674 11.3684L11.1052 13.0241L10.3441 11.5305L8.68848 11.7928L9.87379 10.6075L9.11266 9.1137Z" fill="#FFDA44"/>
<path d="M6.25977 16.001L7.85408 15.483V13.8066L8.83933 15.1629L10.4337 14.6448L9.44827 16.001L10.4337 17.3572L8.83933 16.8392L7.85408 18.1954V16.5191L6.25977 16.001Z" fill="#FFDA44"/>
<path d="M9.11266 22.8869L9.87373 21.3932L8.68848 20.2079L10.3442 20.4703L11.1051 18.9766L11.3674 20.6322L13.023 20.8945L11.5295 21.6556L11.7917 23.3112L10.6064 22.1259L9.11266 22.8869Z" fill="#FFDA44"/>
<path d="M15.9981 25.7402L15.48 24.1459H13.8037L15.16 23.1606L14.6418 21.5664L15.9981 22.5517L17.3543 21.5664L16.8362 23.1606L18.1924 24.1459H16.5161L15.9981 25.7402Z" fill="#FFDA44"/>
<path d="M22.8849 22.8869L21.3912 22.1259L20.2059 23.3113L20.4682 21.6555L18.9746 20.8945L20.6302 20.6322L20.8925 18.9766L21.6535 20.4703L23.3091 20.2079L22.1238 21.3933L22.8849 22.8869Z" fill="#FFDA44"/>
<path d="M25.7392 16.001L24.1449 16.5191V18.1954L23.1596 16.8392L21.5654 17.3572L22.5507 16.001L21.5654 14.6448L23.1597 15.1629L24.1449 13.8066V15.483L25.7392 16.001Z" fill="#FFDA44"/>
<path d="M22.8849 9.11364L22.1239 10.6074L23.3092 11.7927L21.6534 11.5303L20.8925 13.024L20.6302 11.3683L18.9746 11.106L20.4682 10.345L20.2059 8.68945L21.3913 9.8747L22.8849 9.11364Z" fill="#FFDA44"/>
</svg>
