<svg width="32" height="32" viewBox="0 0 32 32" fill="none" xmlns="http://www.w3.org/2000/svg">
<g clip-path="url(#clip0_20142_72654)">
<path d="M16 32C24.8366 32 32 24.8366 32 16C32 7.16344 24.8366 0 16 0C7.16344 0 0 7.16344 0 16C0 24.8366 7.16344 32 16 32Z" fill="#F0F0F0"/>
<path d="M31.8646 13.9136H12.5218H12.5218V0.380859C11.0431 0.708734 9.64131 1.24017 8.34781 1.94598V13.9135V13.9135H0.135438C0.046375 14.5967 0 15.2932 0 16.0005C0 16.7079 0.046375 17.4044 0.135438 18.0875H8.34775H8.34781V30.055C9.64131 30.7608 11.0431 31.2924 12.5218 31.6202V18.0877V18.0875H31.8646C31.9535 17.4044 32 16.7079 32 16.0005C32 15.2932 31.9535 14.5967 31.8646 13.9136V13.9136Z" fill="#0052B4"/>
</g>
<defs>
<clipPath id="clip0_20142_72654">
<rect width="32" height="32" fill="white"/>
</clipPath>
</defs>
</svg>
