<svg width="32" height="32" viewBox="0 0 32 32" fill="none" xmlns="http://www.w3.org/2000/svg">
<path d="M32 16C32 24.8365 24.8365 32 16 32C7.1635 32 0 24.8365 0 16C0 16.0038 16 0.00175 16 0C24.8365 0 32 7.1635 32 16Z" fill="#338AF3"/>
<path d="M15.9998 7.65234V13.0488L10.4346 7.65234H15.9998Z" fill="#0052B4"/>
<path d="M8.34699 16.0011H13.0477L8.34699 9.74023L7.65137 14.6098L8.34699 16.0011Z" fill="#0052B4"/>
<path d="M15.958 15.9998H16.0008C16.0008 15.9855 16.0008 15.9715 16.0008 15.957C15.9866 15.9713 15.9723 15.9856 15.958 15.9998Z" fill="#F0F0F0"/>
<path d="M16 8.34781C16 5.5325 16 3.68781 16 0H15.9973C7.162 0.0015 0 7.16431 0 16H8.34781V11.2993L13.0486 16H15.9573C15.9716 15.9857 15.9858 15.9715 16.0001 15.9572C16.0001 14.8793 16.0001 13.9174 16.0001 13.0486L11.2992 8.34781H16Z" fill="#F0F0F0"/>
<path d="M8.09466 2.08789C5.59223 3.51283 3.51185 5.5932 2.08691 8.09564V16.001H6.26085V6.26195V6.26183H16C16 4.94539 16 3.69127 16 2.08789H8.09466Z" fill="#D80027"/>
<path d="M15.9988 14.0342L10.3142 8.34961H8.34668V8.34973L15.9987 16.0017H15.9988C15.9988 16.0017 15.9988 14.645 15.9988 14.0342Z" fill="#D80027"/>
<path d="M18.0869 10.4343V15.9994C18.0869 19.7269 22.9565 20.869 22.9565 20.869C22.9565 20.869 27.826 19.7269 27.826 15.9994V10.4343L22.9565 9.04297L18.0869 10.4343Z" fill="#F3F3F3"/>
<path d="M27.826 10.4346V8.34766H18.0869V10.4346H22.2607V14.6086H18.0869V15.9998V15.9999L22.2607 16V20.656C22.6806 20.8045 22.9565 20.8694 22.9565 20.8694C22.9565 20.8694 23.2322 20.8047 23.652 20.656V15.9999H27.826V15.9998V14.6085H23.652V10.4345H27.826V10.4346Z" fill="#D80027"/>
</svg>
