<svg width="32" height="32" viewBox="0 0 32 32" fill="none" xmlns="http://www.w3.org/2000/svg">
<path d="M32 16C32 24.8365 24.8365 32 16 32C7.1635 32 0 24.8365 0 16C0 16.0038 16 0.00175 16 0C24.8365 0 32 7.1635 32 16Z" fill="#0052B4"/>
<path d="M15.958 15.9998H16.0008C16.0008 15.9855 16.0008 15.9715 16.0008 15.957C15.9866 15.9713 15.9723 15.9856 15.958 15.9998Z" fill="#F0F0F0"/>
<path d="M16 8.34781C16 5.5325 16 3.68781 16 0H15.9973C7.162 0.0015 0 7.16431 0 16H8.34781V11.2993L13.0486 16H15.9572L16.0001 15.9572C16.0001 14.8793 16.0001 13.9174 16.0001 13.0486L11.2992 8.34781H16Z" fill="#F0F0F0"/>
<path d="M8.09466 2.08789C5.59223 3.51283 3.51185 5.5932 2.08691 8.09564V16.001H6.26085V6.26195V6.26183H16C16 4.94539 16 3.69127 16 2.08789H8.09466Z" fill="#D80027"/>
<path d="M15.9988 14.0342L10.3142 8.34961H8.34668V8.34973L15.9987 16.0017H15.9988C15.9988 16.0017 15.9988 14.645 15.9988 14.0342Z" fill="#D80027"/>
<path d="M25.7391 18.7832V19.4788H20.1739V18.7832H18.0869V21.5658H19.4782V22.2615H26.4348V21.5658H27.826V18.7832H25.7391Z" fill="#FFDA44"/>
<path d="M18.0869 8.34766V15.9998C18.0869 19.7273 22.9565 20.8694 22.9565 20.8694C22.9565 20.8694 27.826 19.7273 27.826 15.9998V8.34766H18.0869Z" fill="#338AF3"/>
<path d="M22.9562 14.0547C21.7389 14.0547 21.7389 15.1677 20.5215 15.1677C19.3042 15.1677 19.3042 14.0547 18.0869 14.0547V16.0025C19.3042 16.0025 19.3042 17.1156 20.5215 17.1156C21.7389 17.1156 21.7389 16.0025 22.9562 16.0025C24.1736 16.0025 24.1736 17.1156 25.3911 17.1156C26.6086 17.1156 26.6085 16.0025 27.826 16.0025V14.0547C26.6086 14.0547 26.6086 15.1677 25.3911 15.1677C24.1736 15.1677 24.1736 14.0547 22.9562 14.0547V14.0547Z" fill="#F3F3F3"/>
<path d="M22.9562 10.1562C21.7389 10.1562 21.7389 11.2693 20.5215 11.2693C19.3042 11.2693 19.3042 10.1562 18.0869 10.1562V12.1041C19.3042 12.1041 19.3042 13.2171 20.5215 13.2171C21.7389 13.2171 21.7389 12.1041 22.9562 12.1041C24.1736 12.1041 24.1736 13.2171 25.3911 13.2171C26.6086 13.2171 26.6085 12.1041 27.826 12.1041V10.1562C26.6086 10.1562 26.6086 11.2693 25.3911 11.2693C24.1736 11.2693 24.1736 10.1562 22.9562 10.1562Z" fill="#F3F3F3"/>
</svg>
