<svg width="32" height="32" viewBox="0 0 32 32" fill="none" xmlns="http://www.w3.org/2000/svg">
<path d="M16 32C24.8366 32 32 24.8366 32 16C32 7.16344 24.8366 0 16 0C7.16344 0 0 7.16344 0 16C0 24.8366 7.16344 32 16 32Z" fill="#F0F0F0"/>
<path d="M3.30612 6.25781C2.0493 7.893 1.10162 9.77769 0.549805 11.8251H8.87343L3.30612 6.25781Z" fill="#0052B4"/>
<path d="M31.4456 11.8251C30.8938 9.77769 29.946 7.893 28.6893 6.25781L23.1221 11.8251H31.4456Z" fill="#0052B4"/>
<path d="M0.549805 20.1738C1.10168 22.2212 2.04937 24.1059 3.30612 25.741L8.87324 20.1738H0.549805Z" fill="#0052B4"/>
<path d="M25.7381 3.30716C24.103 2.05034 22.2183 1.10266 20.1709 0.550781V8.87434L25.7381 3.30716Z" fill="#0052B4"/>
<path d="M6.25586 28.6921C7.89105 29.9489 9.77573 30.8966 11.8231 31.4485V23.125L6.25586 28.6921Z" fill="#0052B4"/>
<path d="M11.823 0.550781C9.77567 1.10266 7.89098 2.05034 6.25586 3.30709L11.823 8.87428V0.550781Z" fill="#0052B4"/>
<path d="M20.1719 31.4485C22.2192 30.8966 24.1039 29.9489 25.7391 28.6922L20.1719 23.125V31.4485Z" fill="#0052B4"/>
<path d="M23.1221 20.1738L28.6893 25.7411C29.946 24.106 30.8938 22.2212 31.4456 20.1738H23.1221Z" fill="#0052B4"/>
<path d="M31.8646 13.9131H18.0871H18.087V0.135438C17.4038 0.0465 16.7073 0 16 0C15.2926 0 14.5962 0.0465 13.9131 0.135438V13.9129V13.913H0.135438C0.0465 14.5962 0 15.2927 0 16C0 16.7074 0.0465 17.4038 0.135438 18.0869H13.9129H13.913V31.8646C14.5962 31.9535 15.2926 32 16 32C16.7073 32 17.4038 31.9536 18.0869 31.8646V18.0871V18.087H31.8646C31.9535 17.4038 32 16.7074 32 16C32 15.2927 31.9535 14.5962 31.8646 13.9131V13.9131Z" fill="#D80027"/>
<path d="M20.1758 20.1739L27.3155 27.3136C27.6439 26.9854 27.9572 26.6422 28.256 26.2865L22.1434 20.1738H20.1758V20.1739Z" fill="#D80027"/>
<path d="M11.8254 20.1738H11.8252L4.68555 27.3135C5.0138 27.6419 5.35698 27.9551 5.71273 28.254L11.8254 22.1413V20.1738Z" fill="#D80027"/>
<path d="M11.8254 11.8255V11.8254L4.68562 4.68555C4.35724 5.0138 4.04399 5.35698 3.74512 5.71274L9.8578 11.8254H11.8254V11.8255Z" fill="#D80027"/>
<path d="M20.1758 11.8264L27.3156 4.68653C26.9873 4.35816 26.6442 4.04491 26.2884 3.74609L20.1758 9.85878V11.8264Z" fill="#D80027"/>
</svg>
