<svg width="32" height="32" viewBox="0 0 32 32" fill="none" xmlns="http://www.w3.org/2000/svg">
<g clip-path="url(#clip0_20142_72440)">
<path d="M16 32C24.8366 32 32 24.8366 32 16C32 7.16344 24.8366 0 16 0C7.16344 0 0 7.16344 0 16C0 24.8366 7.16344 32 16 32Z" fill="#FFDA44"/>
<path d="M6.98242 2.78262C9.55023 1.02725 12.6551 0 16.0004 0C19.3456 0 22.4505 1.02725 25.0183 2.78262L16.0004 3.47825L6.98242 2.78262Z" fill="#A2001D"/>
<path d="M16.0003 15.9996L14.9791 14.9785L14.708 15.4642L16.0003 15.9996Z" fill="#0052B4"/>
<path d="M4.6853 4.68555C-1.56307 10.9339 -1.56307 21.0646 4.6853 27.313C7.26737 24.731 9.75068 22.2477 15.9991 15.9993L4.6853 4.68555Z" fill="#496E2D"/>
<path d="M27.3137 4.68555C33.5621 10.9339 33.5621 21.0646 27.3137 27.313C24.7317 24.731 22.2484 22.2477 16 15.9993L27.3137 4.68555Z" fill="#496E2D"/>
<path d="M15.9998 21.5659C19.0733 21.5659 21.5649 19.0743 21.5649 16.0007C21.5649 12.9272 19.0733 10.4355 15.9998 10.4355C12.9262 10.4355 10.4346 12.9272 10.4346 16.0007C10.4346 19.0743 12.9262 21.5659 15.9998 21.5659Z" fill="#A2001D"/>
<path d="M16.0005 10.4355L17.2479 14.2749H21.2853L18.0192 16.6482L19.2666 20.4877L16.0005 18.1148L12.7343 20.4877L13.9819 16.6482L10.7158 14.2749H14.7529L16.0005 10.4355Z" fill="#FFDA44"/>
<path d="M16.0057 0H15.9951C11.5792 0.0014375 7.58169 1.79163 4.6875 4.6855H27.3133C24.4191 1.79163 20.4215 0.0014375 16.0057 0Z" fill="#A2001D"/>
<path d="M4.68652 27.3145C7.5819 30.2094 11.5815 31.9999 15.9993 31.9999C20.4171 31.9999 24.4168 30.2094 27.3121 27.3145H4.68652Z" fill="#A2001D"/>
<path d="M15.9995 1.73828L16.2586 2.53541H17.0967L16.4187 3.02809L16.6777 3.82522L15.9995 3.33259L15.3215 3.82522L15.5805 3.02809L14.9023 2.53541H15.7405L15.9995 1.73828Z" fill="#FFDA44"/>
<path d="M12.1206 1.73828L12.3797 2.53541H13.2178L12.5398 3.02809L12.7988 3.82522L12.1206 3.33259L11.4426 3.82522L11.7016 3.02809L11.0234 2.53541H11.8616L12.1206 1.73828Z" fill="#FFDA44"/>
<path d="M19.8804 1.73828L20.1395 2.53541H20.9776L20.2995 3.02809L20.5586 3.82522L19.8804 3.33259L19.2023 3.82522L19.4614 3.02809L18.7832 2.53541H19.6213L19.8804 1.73828Z" fill="#FFDA44"/>
<path d="M15.9995 28.1738L16.2586 28.971H17.0967L16.4187 29.4636L16.6777 30.2608L15.9995 29.7681L15.3215 30.2608L15.5805 29.4636L14.9023 28.971H15.7405L15.9995 28.1738Z" fill="#FFDA44"/>
<path d="M12.1206 28.1738L12.3797 28.971H13.2178L12.5398 29.4636L12.7988 30.2608L12.1206 29.7681L11.4426 30.2608L11.7016 29.4636L11.0234 28.971H11.8616L12.1206 28.1738Z" fill="#FFDA44"/>
<path d="M19.8804 28.1738L20.1395 28.971H20.9776L20.2995 29.4636L20.5586 30.2608L19.8804 29.7681L19.2023 30.2608L19.4614 29.4636L18.7832 28.971H19.6213L19.8804 28.1738Z" fill="#FFDA44"/>
<path d="M4.87519 15.734C5.28613 16.3833 5.093 17.2427 4.44369 17.6537C3.79444 18.0647 2.93494 17.8716 2.52394 17.2223C1.77988 16.0468 2.21131 14.127 2.21131 14.127C2.21131 14.127 4.13106 14.5584 4.87519 15.734V15.734Z" fill="#FFDA44"/>
<path d="M4.0716 17.7643C4.45578 17.7643 4.76723 17.4529 4.76723 17.0687C4.76723 16.6845 4.45578 16.373 4.0716 16.373C3.68742 16.373 3.37598 16.6845 3.37598 17.0687C3.37598 17.4529 3.68742 17.7643 4.0716 17.7643Z" fill="#A2001D"/>
</g>
<defs>
<clipPath id="clip0_20142_72440">
<rect width="32" height="32" fill="white"/>
</clipPath>
</defs>
</svg>
