<svg width="32" height="32" viewBox="0 0 32 32" fill="none" xmlns="http://www.w3.org/2000/svg">
<g clip-path="url(#clip0_57127_114863)">
<path d="M27.3137 27.3132C21.0654 33.5616 10.9346 33.5616 4.68629 27.3132C-1.56206 21.0649 -1.56206 10.9342 4.68629 4.68583C5.17817 5.17771 17.4757 14.5238 17.4757 14.5238L27.3137 27.3132Z" fill="#FCDD09"/>
<path d="M4.68606 4.68606C10.9344 -1.56229 21.0651 -1.56229 27.3135 4.68606C33.5618 10.9344 33.5618 21.0651 27.3135 27.3135" fill="#078930"/>
<path d="M16.0001 10.4346L17.2086 14.1544H21.1203L17.9558 16.4536L19.1645 20.1737L16.0001 17.8746L12.8356 20.1737L14.0444 16.4536L10.8799 14.1544H14.7914L16.0001 10.4346Z" fill="#DA121A"/>
</g>
<defs>
<clipPath id="clip0_57127_114863">
<rect width="32" height="32" fill="white"/>
</clipPath>
</defs>
</svg>
