<svg width="32" height="32" viewBox="0 0 32 32" fill="none" xmlns="http://www.w3.org/2000/svg">
<g clip-path="url(#clip0_20142_72475)">
<path d="M16 32C24.8366 32 32 24.8366 32 16C32 7.16344 24.8366 0 16 0C7.16344 0 0 7.16344 0 16C0 24.8366 7.16344 32 16 32Z" fill="#F0F0F0"/>
<path d="M31.8646 13.9131H18.0871H18.087V0.135438C17.4038 0.0465 16.7073 0 16 0C15.2927 0 14.5962 0.0465 13.9131 0.135438V13.9131H0.135438C0.0465 14.5962 0 15.2927 0 16C0 16.7073 0.0465 17.4038 0.135438 18.0869H13.9129H13.913V31.8646C14.5962 31.9535 15.2927 32 16 32C16.7073 32 17.4038 31.9536 18.0869 31.8646V18.0871V18.087H31.8646C31.9535 17.4038 32 16.7073 32 16C32 15.2927 31.9535 14.5962 31.8646 13.9131V13.9131Z" fill="#D80027"/>
<path d="M20.5215 16.6964L21.5649 17.392V14.6094L20.5215 15.3051H16.6954V11.479L17.3911 10.4355H14.6084L15.3041 11.479V15.3051H11.478L10.4346 14.6094V17.392L11.478 16.6964H15.3041V20.5225L14.6084 21.5659H17.3911L16.6954 20.5225V16.6964H20.5215Z" fill="#FFDA44"/>
</g>
<defs>
<clipPath id="clip0_20142_72475">
<rect width="32" height="32" fill="white"/>
</clipPath>
</defs>
</svg>
