<svg width="32" height="32" viewBox="0 0 32 32" fill="none" xmlns="http://www.w3.org/2000/svg">
<g clip-path="url(#clip0_20142_72665)">
<path d="M0 15.9991C0 17.9563 0.352063 19.831 0.995188 21.5643L16 22.26L31.0048 21.5644C31.648 19.831 32 17.9563 32 15.9991C32 14.042 31.648 12.1673 31.0048 10.434L16 9.73828L0.995188 10.4339C0.352063 12.1673 0 14.042 0 15.9991H0Z" fill="#FFDA44"/>
<path d="M15.999 0C9.11952 0 3.25483 4.342 0.994141 10.4348H31.0038C28.7431 4.342 22.8784 0 15.999 0V0Z" fill="#D80027"/>
<path d="M31.0038 21.5645H0.994141C3.25483 27.6572 9.11952 31.9993 15.999 31.9993C22.8784 31.9993 28.7431 27.6572 31.0038 21.5645Z" fill="#496E2D"/>
<path d="M16.0009 10.4355L17.3822 14.6868H21.8527L18.2362 17.3145L19.6175 21.5659L16.0009 18.9384L12.3844 21.5659L13.7659 17.3145L10.1494 14.6868H14.6197L16.0009 10.4355Z" fill="black"/>
</g>
<defs>
<clipPath id="clip0_20142_72665">
<rect width="32" height="32" fill="white"/>
</clipPath>
</defs>
</svg>
