<svg width="32" height="32" viewBox="0 0 32 32" fill="none" xmlns="http://www.w3.org/2000/svg">
<g clip-path="url(#clip0_20142_72473)">
<path d="M16 32C24.8366 32 32 24.8366 32 16C32 7.16344 24.8366 0 16 0C7.16344 0 0 7.16344 0 16C0 24.8366 7.16344 32 16 32Z" fill="#F0F0F0"/>
<path d="M16.0007 0C9.38602 0 3.70927 4.01413 1.27246 9.73913H30.729C28.2922 4.01413 22.6154 0 16.0007 0Z" fill="#A2001D"/>
<path d="M16.0007 32.0008C22.6154 32.0008 28.2922 27.9867 30.729 22.2617H1.27246C3.70927 27.9867 9.38602 32.0008 16.0007 32.0008Z" fill="#496E2D"/>
<path d="M31.4488 11.8262H0.551188C0.1925 13.157 0 14.5559 0 16.0001C0 17.4443 0.1925 18.8432 0.551188 20.174H31.4489C31.8075 18.8432 32 17.4443 32 16.0001C32 14.5559 31.8075 13.157 31.4488 11.8262V11.8262Z" fill="#0052B4"/>
</g>
<defs>
<clipPath id="clip0_20142_72473">
<rect width="32" height="32" fill="white"/>
</clipPath>
</defs>
</svg>
