<svg width="32" height="32" viewBox="0 0 32 32" fill="none" xmlns="http://www.w3.org/2000/svg">
<path d="M15.9998 0C14.5556 0 13.1566 0.1925 11.8258 0.551188L10.4346 16L11.8259 31.4488C13.1566 31.8075 14.5556 32 15.9998 32C24.8363 32 31.9998 24.8365 31.9998 16C31.9998 7.1635 24.8363 0 15.9998 0Z" fill="#FFDA44"/>
<path d="M10.4346 16L11.8259 31.4488C13.1566 31.8075 14.5556 32 15.9998 32C24.8363 32 31.9998 24.8365 31.9998 16H10.4346Z" fill="#6DA544"/>
<path d="M0 15.9999C0 22.0646 3.37438 27.3408 8.34781 30.0544V1.94531C3.37438 4.65894 0 9.93519 0 15.9999Z" fill="#D80027"/>
<path d="M0 15.9996C0 23.392 5.01381 29.6124 11.8261 31.4484V0.550781C5.01381 2.38678 0 8.60716 0 15.9996Z" fill="#D80027"/>
<path d="M6.04591 11.8262L7.08185 15.0147H10.4347L7.72235 16.9854L8.75823 20.1741L6.04591 18.2034L3.33348 20.1741L4.3696 16.9854L1.65723 15.0147H5.00991L6.04591 11.8262Z" fill="black"/>
</svg>
