<svg width="32" height="32" viewBox="0 0 32 32" fill="none" xmlns="http://www.w3.org/2000/svg">
<path d="M32 16C32 24.8365 24.8365 32 16 32C7.1635 32 0 24.8365 0 16C0 7.1635 16 0 16 0C16 0 32 7.1635 32 16Z" fill="#A2001D"/>
<path d="M0 16C0 7.1635 7.1635 0 16 0C24.8365 0 32 7.1635 32 16" fill="#0052B4"/>
<path d="M21.5649 20.1741L15.9998 19.4784L10.4346 20.1741V11.8262H21.5649V20.1741Z" fill="#F0F0F0"/>
<path d="M15.9994 19.4774C17.5362 19.4774 18.782 18.2315 18.782 16.6947C18.782 15.1579 17.5362 13.9121 15.9994 13.9121C14.4626 13.9121 13.2168 15.1579 13.2168 16.6947C13.2168 18.2315 14.4626 19.4774 15.9994 19.4774Z" fill="#0052B4"/>
<path d="M16.0007 18.0873C16.7691 18.0873 17.392 17.4644 17.392 16.696C17.392 15.9276 16.7691 15.3047 16.0007 15.3047C15.2323 15.3047 14.6094 15.9276 14.6094 16.696C14.6094 17.4644 15.2323 18.0873 16.0007 18.0873Z" fill="#A2001D"/>
<path d="M13.9131 13.2168H18.087L16 15.3038L13.9131 13.2168Z" fill="#6DA544"/>
<path d="M15.3047 14.6094H16.696V18.7833H15.3047V14.6094Z" fill="#FFDA44"/>
<path d="M18.2258 18.3652H13.7736L10.4346 20.174H21.5649L18.2258 18.3652Z" fill="#6DA544"/>
</svg>
