<svg width="32" height="32" viewBox="0 0 32 32" fill="none" xmlns="http://www.w3.org/2000/svg">
<g clip-path="url(#clip0_20142_72447)">
<path d="M0.995188 10.4343C0.352063 12.1677 0 14.0423 0 15.9995C0 17.9566 0.352063 19.8314 0.995188 21.5647L16 22.956L31.0048 21.5647C31.6479 19.8314 32 17.9566 32 15.9995C32 14.0423 31.6479 12.1677 31.0048 10.4343L16 9.04297L0.995188 10.4343Z" fill="#F0F0F0"/>
<path d="M15.9999 0C9.12049 0 3.25574 4.342 0.995117 10.4348H31.0048C28.744 4.342 22.8794 0 15.9999 0V0Z" fill="#D80027"/>
<path d="M15.9999 31.9993C22.8794 31.9993 28.744 27.6573 31.0047 21.5645H0.995117C3.25574 27.6573 9.12049 31.9993 15.9999 31.9993V31.9993Z" fill="#6DA544"/>
</g>
<defs>
<clipPath id="clip0_20142_72447">
<rect width="32" height="32" fill="white"/>
</clipPath>
</defs>
</svg>
