<svg width="32" height="32" viewBox="0 0 32 32" fill="none" xmlns="http://www.w3.org/2000/svg">
<path d="M16 32C24.8366 32 32 24.8366 32 16C32 7.16344 24.8366 0 16 0C7.16344 0 0 7.16344 0 16C0 24.8366 7.16344 32 16 32Z" fill="#D80027"/>
<path d="M21.9252 10.7259L20.7944 14.7616L17.4012 14.135L15.2171 9.63281L9.31668 11.7266L8.85137 10.4154L7.30762 10.2252L8.47081 13.5033L12.5314 12.4648L13.6853 15.7166L10.8783 19.8593L15.6419 23.9221L14.739 24.9807L15.3461 26.4128L17.6035 23.7663L14.6739 20.769L16.9131 18.1438L21.9042 18.5034L23.041 12.3466L24.4092 12.5992L25.346 11.3574L21.9252 10.7259Z" fill="#F0F0F0"/>
</svg>
