<svg width="32" height="32" viewBox="0 0 32 32" fill="none" xmlns="http://www.w3.org/2000/svg">
<path d="M16 32C24.8366 32 32 24.8366 32 16C32 7.16344 24.8366 0 16 0C7.16344 0 0 7.16344 0 16C0 24.8366 7.16344 32 16 32Z" fill="#F0F0F0"/>
<path d="M29.3338 17.9144C28.0005 17.9144 28.0005 16.6953 26.6671 16.6953C25.3338 16.6953 25.3338 17.9144 24.0005 17.9144C22.6673 17.9144 22.6672 16.6953 21.334 16.6953C20.0007 16.6953 20.0007 17.9144 18.6673 17.9144C17.3339 17.9144 17.3339 16.6953 16.0004 16.6953C14.6671 16.6953 14.6671 17.9144 13.3339 17.9144C12.0007 17.9144 12.0007 16.6953 10.6674 16.6953C9.33398 16.6953 9.33398 17.9144 8.00055 17.9144C6.66711 17.9144 6.66711 16.6953 5.33367 16.6953C4.00055 16.6953 4.00055 17.9144 2.66723 17.9144C1.34111 17.9144 1.33342 16.7088 0.0214844 16.6959C0.0584219 17.4277 0.145797 18.1462 0.277922 18.8489C1.34067 19.005 1.43373 20.0477 2.66736 20.0477C4.00067 20.0477 4.00067 18.8287 5.3338 18.8287C6.66723 18.8287 6.66723 20.0477 8.00067 20.0477C9.33411 20.0477 9.33411 18.8287 10.6675 18.8287C12.0009 18.8287 12.0009 20.0477 13.334 20.0477C14.6673 20.0477 14.6673 18.8287 16.0005 18.8287C17.334 18.8287 17.334 20.0477 18.6674 20.0477C20.0009 20.0477 20.0009 18.8287 21.3341 18.8287C22.6674 18.8287 22.6674 20.0477 24.0007 20.0477C25.334 20.0477 25.334 18.8287 26.6672 18.8287C28.0007 18.8287 28.0007 20.0477 29.3339 20.0477C30.5676 20.0477 30.6607 19.0051 31.7235 18.8489C31.8557 18.1462 31.9429 17.4278 31.98 16.6959C30.6678 16.7088 30.66 17.9144 29.3338 17.9144V17.9144Z" fill="#0052B4"/>
<path d="M26.6661 20.8691C25.3327 20.8691 25.3327 22.0883 23.9995 22.0883C22.6662 22.0883 22.6662 20.8691 21.3329 20.8691C19.9996 20.8691 19.9996 22.0883 18.6662 22.0883C17.3328 22.0883 17.3328 20.8691 15.9994 20.8691C14.6661 20.8691 14.6661 22.0883 13.3328 22.0883C11.9997 22.0883 11.9997 20.8691 10.6664 20.8691C9.33293 20.8691 9.33293 22.0883 7.99949 22.0883C6.66605 22.0883 6.66605 20.8691 5.33262 20.8691C3.99949 20.8691 3.99949 22.0883 2.66618 22.0883C1.68399 22.0883 1.42468 21.4271 0.823242 21.0789C1.18749 22.1676 1.66593 23.2038 2.24374 24.174C2.36887 24.2042 2.50799 24.2216 2.66612 24.2216C3.99943 24.2216 3.99943 23.0026 5.33255 23.0026C6.66599 23.0026 6.66599 24.2216 7.99943 24.2216C9.33287 24.2216 9.33287 23.0026 10.6663 23.0026C11.9996 23.0026 11.9996 24.2216 13.3327 24.2216C14.6661 24.2216 14.6661 23.0026 15.9993 23.0026C17.3327 23.0026 17.3327 24.2216 18.6662 24.2216C19.9996 24.2216 19.9996 23.0026 21.3329 23.0026C22.6662 23.0026 22.6662 24.2216 23.9994 24.2216C25.3327 24.2216 25.3327 23.0026 26.666 23.0026C27.9994 23.0026 27.9994 24.2216 29.3327 24.2216C29.4909 24.2216 29.6302 24.2042 29.7554 24.174C30.3332 23.2038 30.8116 22.1676 31.1758 21.079C30.5744 21.4272 30.315 22.0883 29.3327 22.0883C27.9995 22.0883 27.9995 20.8691 26.6661 20.8691V20.8691Z" fill="#0052B4"/>
<path d="M31.6282 12.5585C30.6536 12.7609 30.5293 13.7406 29.3336 13.7406C28.0002 13.7406 28.0002 12.5215 26.6669 12.5215C25.3336 12.5215 25.3336 13.7406 24.0003 13.7406C22.6671 13.7406 22.667 12.5215 21.3338 12.5215C20.0004 12.5215 20.0004 13.7406 18.6671 13.7406C17.3337 13.7406 17.3336 12.5215 16.0002 12.5215C15.2798 12.5215 14.9485 12.8774 14.5859 13.2046V15.3379C14.9485 15.0107 15.2797 14.6549 16.0002 14.6549C17.3336 14.6549 17.3336 15.8739 18.6671 15.8739C20.0005 15.8739 20.0005 14.6549 21.3338 14.6549C22.6671 14.6549 22.6671 15.8739 24.0003 15.8739C25.3336 15.8739 25.3336 14.6549 26.6669 14.6549C28.0003 14.6549 28.0003 15.8739 29.3336 15.8739C30.5672 15.8739 30.6603 14.8313 31.7231 14.6752C31.7913 14.6752 31.8674 14.6745 31.9453 14.6735C31.8863 13.954 31.7794 13.248 31.6282 12.5585V12.5585Z" fill="#0052B4"/>
<path d="M30.4604 9.14197C30.184 9.37403 29.8647 9.56678 29.3345 9.56678C28.0012 9.56678 28.0012 8.34766 26.6679 8.34766C25.3345 8.34766 25.3345 9.56678 24.0013 9.56678C22.668 9.56678 22.668 8.34766 21.3347 8.34766C20.0014 8.34766 20.0014 9.56678 18.668 9.56678C17.3347 9.56678 17.3346 8.34766 16.0012 8.34766C15.2807 8.34766 14.9495 8.70353 14.5869 9.03078V11.1641C14.9495 10.8369 15.2807 10.4811 16.0012 10.4811C17.3346 10.4811 17.3346 11.7001 18.668 11.7001C20.0014 11.7001 20.0014 10.4811 21.3347 10.4811C22.668 10.4811 22.668 11.7001 24.0012 11.7001C25.3345 11.7001 25.3345 10.4811 26.6678 10.4811C28.0012 10.4811 28.0012 11.7001 29.3345 11.7001C30.2805 11.7001 30.5561 11.0873 31.1124 10.7309C30.9228 10.1873 30.7051 9.65703 30.4604 9.14197V9.14197Z" fill="#0052B4"/>
<path d="M26.7818 4.17708C26.7448 4.17508 26.7071 4.17383 26.6679 4.17383C25.3346 4.17383 25.3346 5.39295 24.0014 5.39295C22.668 5.39295 22.668 4.17383 21.3348 4.17383C20.0015 4.17383 20.0015 5.39295 18.668 5.39295C17.3346 5.39295 17.3346 4.17383 16.0012 4.17383C15.2807 4.17383 14.9495 4.5297 14.5869 4.85695V6.99027C14.9495 6.66308 15.2807 6.30727 16.0012 6.30727C17.3346 6.30727 17.3346 7.52627 18.668 7.52627C20.0015 7.52627 20.0015 6.30727 21.3347 6.30727C22.668 6.30727 22.668 7.52627 24.0013 7.52627C25.3345 7.52627 25.3346 6.30727 26.6679 6.30727C28.0013 6.30727 28.0013 7.52627 29.3345 7.52627C29.4167 7.52627 29.4934 7.52139 29.566 7.5127C28.7915 6.27745 27.8538 5.15514 26.7818 4.17708V4.17708Z" fill="#0052B4"/>
<path d="M20.0895 0.52825C19.7235 0.8575 19.3927 1.21912 18.6665 1.21912C17.3331 1.21912 17.3331 0.000125 15.9997 0H15.9995C15.31 6.25e-05 14.9771 0.326125 14.6318 0.641062V2.77444C14.977 2.4595 15.31 2.13338 15.9997 2.13338C17.3332 2.13338 17.3332 3.35238 18.6666 3.35238C20 3.35238 20 2.13338 21.3333 2.13338C22.6666 2.13338 22.6666 3.35238 23.9998 3.35238C24.5593 3.35238 24.8838 3.13762 25.1708 2.8885C23.6498 1.82256 21.9349 1.01469 20.0895 0.52825V0.52825Z" fill="#0052B4"/>
<path d="M18.6677 30.436C17.3343 30.436 17.3343 29.2169 16.0008 29.2169C14.6675 29.2169 14.6675 30.436 13.3343 30.436C12.0011 30.436 12.0011 29.2169 10.6678 29.2169C9.64652 29.2169 9.40695 29.9315 8.75195 30.2664C10.5582 31.186 12.5624 31.7722 14.6836 31.9451C15.0117 31.6454 15.345 31.3502 16.0008 31.3502C16.6569 31.3502 16.9901 31.6454 17.3183 31.9452C19.4396 31.7723 21.4439 31.186 23.2502 30.2664C22.5951 29.9316 22.3556 29.2168 21.3344 29.2168C20.0011 29.2169 20.0011 30.436 18.6677 30.436V30.436Z" fill="#0052B4"/>
<path d="M24.0007 26.2621C22.6674 26.2621 22.6674 25.043 21.3341 25.043C20.0008 25.043 20.0008 26.2621 18.6674 26.2621C17.334 26.2621 17.334 25.043 16.0006 25.043C14.6672 25.043 14.6672 26.2621 13.334 26.2621C12.0009 26.2621 12.0009 25.043 10.6676 25.043C9.33412 25.043 9.33412 26.2621 8.00068 26.2621C6.66724 26.2621 6.66724 25.043 5.3338 25.043C4.37499 25.043 4.10574 25.6736 3.53418 26.0277C3.89243 26.4725 4.2733 26.8984 4.67637 27.3022C4.85693 27.225 5.0688 27.1763 5.33374 27.1763C6.66718 27.1763 6.66718 28.3953 8.00062 28.3953C9.33405 28.3953 9.33406 27.1763 10.6675 27.1763C12.0008 27.1763 12.0008 28.3953 13.3339 28.3953C14.6672 28.3953 14.6672 27.1763 16.0005 27.1763C17.3339 27.1763 17.3339 28.3953 18.6674 28.3953C20.0008 28.3953 20.0008 27.1763 21.3341 27.1763C22.6673 27.1763 22.6674 28.3953 24.0006 28.3953C25.3339 28.3953 25.3339 27.1763 26.6672 27.1763C26.9324 27.1763 27.1443 27.225 27.325 27.3023C27.7281 26.8985 28.109 26.4726 28.4672 26.0277C27.8956 25.6737 27.6264 25.043 26.6672 25.043C25.3339 25.043 25.3339 26.2621 24.0007 26.2621V26.2621Z" fill="#0052B4"/>
<path d="M15.958 15.9998H16.0008C16.0008 15.9855 16.0008 15.9715 16.0008 15.957C15.9866 15.9713 15.9723 15.9856 15.958 15.9998Z" fill="#F0F0F0"/>
<path d="M15.9998 8.34797V13.0488L10.4346 7.65234L15.9998 8.34797Z" fill="#0052B4"/>
<path d="M8.34705 15.9991H13.0477L8.34699 9.73828L7.65137 14.6078L8.34705 15.9991Z" fill="#0052B4"/>
<path d="M16 8.34781C16 5.5325 16 3.68781 16 0H15.9973C7.162 0.0015 0 7.16431 0 16H8.34787V11.2993L13.0485 16H15.9572C15.9715 15.9857 15.9858 15.9715 16.0001 15.9572C16.0001 14.8793 16.0001 13.9174 16.0001 13.0486L11.2992 8.34781H16Z" fill="#F0F0F0"/>
<path d="M8.09466 2.08594C5.59223 3.51087 3.51185 5.59125 2.08691 8.09369V15.999H6.26085V6.26V6.25988H16C16 4.94344 16 3.68931 16 2.08594H8.09466Z" fill="#D80027"/>
<path d="M15.9998 14.0322L10.3152 8.34766H8.34766V8.34778L15.9997 15.9998H15.9998C15.9998 15.9998 15.9998 14.6431 15.9998 14.0322V14.0322Z" fill="#D80027"/>
<path d="M20.8701 8.34766H27.131L24.0006 11.4781L20.8701 8.34766Z" fill="#6DA544"/>
<path d="M23.3047 10.7832H24.696V14.6093H23.3047V10.7832Z" fill="#A2001D"/>
<path d="M23.3047 20.8691H24.696V24.6952H23.3047V20.8691Z" fill="#A2001D"/>
<path d="M28.173 18.7836C28.173 17.6311 27.2386 16.6967 26.0861 16.6967C25.5514 16.6967 25.0641 16.8979 24.6948 17.2285V16.001H25.3904V14.6097H24.6948V13.9141H23.3034V14.6097H22.6078V16.001H23.3034V17.2285C22.9341 16.8979 22.4468 16.6967 21.9121 16.6967C20.7596 16.6967 19.8252 17.6311 19.8252 18.7836C19.8252 19.4016 20.094 19.9566 20.5208 20.3388V21.5663H27.4773V20.3388C27.9042 19.9566 28.173 19.4016 28.173 18.7836V18.7836Z" fill="#FFDA44"/>
<path d="M26.0873 18.0859C25.8678 18.0859 25.7142 18.1823 25.6239 18.2631L24.696 19.0938H23.3047L22.3768 18.2631C22.2865 18.1823 22.1328 18.0859 21.9134 18.0859C21.5298 18.0859 21.2178 18.398 21.2178 18.7816C21.2178 19.0518 21.3635 19.2224 21.4503 19.3003L21.9135 19.715V20.1729H26.0874V19.715L26.5506 19.3003C26.6374 19.2225 26.7831 19.0518 26.7831 18.7816C26.783 18.398 26.4709 18.0859 26.0873 18.0859V18.0859Z" fill="#D80027"/>
</svg>
