<svg width="32" height="32" viewBox="0 0 32 32" fill="none" xmlns="http://www.w3.org/2000/svg">
<g clip-path="url(#clip0_20142_72506)">
<path d="M16 32C24.8366 32 32 24.8366 32 16C32 7.16344 24.8366 0 16 0C7.16344 0 0 7.16344 0 16C0 24.8366 7.16344 32 16 32Z" fill="#F0F0F0"/>
<path d="M21.1974 11.8262H19.104C19.1213 12.0563 19.1311 12.2884 19.1311 12.5219C19.1311 14.0696 18.7443 15.5698 18.0698 16.6377C17.8618 16.967 17.5121 17.4322 17.0441 17.7459V11.8262H14.9572V17.7459C14.4893 17.4322 14.1396 16.9671 13.9315 16.6377C13.257 15.5698 12.8702 14.0696 12.8702 12.5219C12.8702 12.2884 12.8801 12.0562 12.8973 11.8262H10.804C10.7905 12.0552 10.7832 12.287 10.7832 12.5219C10.7832 16.8129 13.0749 20.174 16.0006 20.174C18.9262 20.174 21.2179 16.8129 21.2179 12.5219C21.2181 12.287 21.2108 12.0552 21.1974 11.8262V11.8262Z" fill="#D80027"/>
<path d="M6.60798 7.65219H8.69491V9.0435H10.7819V7.65219H12.8688V9.0435H14.9557V7.65219H17.0427V9.0435H19.1296V7.65219H21.2165V9.0435H23.3035V7.65219H25.3904V9.0435H30.4115C27.8237 3.69156 22.3426 0 15.9993 0C9.65598 0 4.17491 3.69156 1.58691 9.0435H6.60798V7.65219Z" fill="#6DA544"/>
<path d="M25.3906 22.957V24.3483H23.3037V22.957H21.2167V24.3483H19.1298V22.957H17.0429V24.3483H14.9559V22.957H12.869V24.3483H10.782V22.957H8.69491V24.3483H6.60798V22.957H1.58691C4.17491 28.309 9.65591 32.0005 15.9993 32.0005C22.3427 32.0005 27.8237 28.309 30.4117 22.957H25.3906Z" fill="#D80027"/>
</g>
<defs>
<clipPath id="clip0_20142_72506">
<rect width="32" height="32" fill="white"/>
</clipPath>
</defs>
</svg>
