<svg width="32" height="32" viewBox="0 0 32 32" fill="none" xmlns="http://www.w3.org/2000/svg">
<path d="M16 32C24.8366 32 32 24.8366 32 16C32 7.16344 24.8366 0 16 0C7.16344 0 0 7.16344 0 16C0 24.8366 7.16344 32 16 32Z" fill="#F0F0F0"/>
<path d="M28.6929 25.7425L18.9507 16.0003H18.9507L28.6929 6.25802C28.2727 5.71202 27.8131 5.1867 27.313 4.68652C26.8129 4.18639 26.2876 3.7267 25.7415 3.30664L15.9994 13.0488L15.9993 13.0489L6.2571 3.30664C5.71116 3.72677 5.18579 4.18633 4.6856 4.68652C4.18541 5.1867 3.72579 5.71202 3.30573 6.25802L13.0479 16.0001L13.048 16.0002L3.30566 25.7425C3.72585 26.2885 4.18548 26.8138 4.68554 27.314C5.18573 27.8141 5.71098 28.2738 6.25704 28.6939L15.9993 18.9517L15.9994 18.9516L25.7415 28.6938C26.2875 28.2737 26.8129 27.8141 27.313 27.314C27.8132 26.8138 28.2728 26.2885 28.6929 25.7425V25.7425Z" fill="#D80027"/>
<path d="M13.2168 4.86888L15.9994 5.5645L18.782 4.86888V2.50369L17.669 3.06019L15.9994 1.39062L14.3299 3.06019L13.2168 2.50369V4.86888Z" fill="#FFDA44"/>
<path d="M13.2168 4.86914V6.60839C13.2168 8.73838 15.9994 9.39101 15.9994 9.39101C15.9994 9.39101 18.782 8.73832 18.782 6.60839V4.86914H13.2168Z" fill="#D80027"/>
</svg>
