<svg width="32" height="32" viewBox="0 0 32 32" fill="none" xmlns="http://www.w3.org/2000/svg">
<g clip-path="url(#clip0_20142_72676)">
<path d="M16 32C24.8366 32 32 24.8366 32 16C32 7.16344 24.8366 0 16 0C7.16344 0 0 7.16344 0 16C0 24.8366 7.16344 32 16 32Z" fill="#F0F0F0"/>
<path d="M15.9993 0C9.65591 0 4.17491 3.69156 1.58691 9.0435H30.4116C27.8237 3.69156 22.3426 0 15.9993 0V0Z" fill="black"/>
<path d="M15.9993 32.0005C9.65591 32.0005 4.17491 28.309 1.58691 22.957H30.4116C27.8237 28.309 22.3426 32.0005 15.9993 32.0005V32.0005Z" fill="#496E2D"/>
<path d="M31.2444 11.1309H0.755562C0.265437 12.6664 0 14.3024 0 16.0004C0 17.6985 0.265437 19.3344 0.755562 20.87H31.2444C31.7346 19.3344 32 17.6985 32 16.0004C32 14.3024 31.7346 12.6664 31.2444 11.1309Z" fill="#A2001D"/>
<path d="M20.982 7.39409L19.0871 6.51953L15.9998 13.5102L12.9124 6.51953L11.0176 7.39409L14.8506 16.0003L11.0176 24.6065L12.9124 25.481L15.9998 18.4903L19.0871 25.481L20.982 24.6065L17.149 16.0003L20.982 7.39409Z" fill="#F0F0F0"/>
<path d="M17.2877 8.21859C16.5542 7.41753 16.0008 6.95703 16.0008 6.95703C16.0008 6.95703 15.4474 7.41747 14.7139 8.21859V23.7823C15.4474 24.5835 16.0008 25.044 16.0008 25.044C16.0008 25.044 16.5542 24.5836 17.2877 23.7824V8.21859Z" fill="#F0F0F0"/>
<path d="M12.5225 11.2025V20.797C13.2976 22.1705 14.2463 23.2962 14.9573 24.0426V7.95703C14.2463 8.70334 13.2975 9.82916 12.5225 11.2025V11.2025Z" fill="#A2001D"/>
<path d="M19.4788 11.2025C18.7036 9.82909 17.7549 8.70334 17.0439 7.95703V24.0426C17.7549 23.2962 18.7036 22.1705 19.4788 20.797V11.2025Z" fill="#A2001D"/>
<path d="M19.4775 11.2031V20.7976C20.2622 19.4071 20.8689 17.7627 20.8689 16.0004C20.8689 14.2381 20.2622 12.5937 19.4775 11.2031Z" fill="black"/>
<path d="M12.5212 11.2031V20.7976C11.7365 19.4071 11.1299 17.7627 11.1299 16.0004C11.1299 14.2381 11.7365 12.5937 12.5212 11.2031Z" fill="black"/>
</g>
<defs>
<clipPath id="clip0_20142_72676">
<rect width="32" height="32" fill="white"/>
</clipPath>
</defs>
</svg>
