<svg width="32" height="32" viewBox="0 0 32 32" fill="none" xmlns="http://www.w3.org/2000/svg">
<path d="M16 32C24.8366 32 32 24.8366 32 16C32 7.16344 24.8366 0 16 0C7.16344 0 0 7.16344 0 16C0 24.8366 7.16344 32 16 32Z" fill="#D80027"/>
<path d="M23.8254 16.0001L20.6282 17.504L22.3308 20.6007L18.8587 19.9364L18.419 23.4436L16.0005 20.8643L13.5823 23.4436L13.1423 19.9364L9.6706 20.6006L11.3731 17.5039L8.17578 16.0001L11.3731 14.4963L9.6706 11.3996L13.1422 12.0639L13.5824 8.55664L16.0005 11.1361L18.4191 8.55664L18.8587 12.0639L22.3309 11.3996L20.6283 14.4965L23.8254 16.0001Z" fill="#FFDA44"/>
<path d="M15.9994 20.87C18.6888 20.87 20.869 18.6898 20.869 16.0004C20.869 13.311 18.6888 11.1309 15.9994 11.1309C13.3101 11.1309 11.1299 13.311 11.1299 16.0004C11.1299 18.6898 13.3101 20.87 15.9994 20.87Z" fill="#D80027"/>
<path d="M13.5652 16C13.4479 16 13.3321 16.006 13.2178 16.0174C13.222 16.6918 13.466 17.3091 13.869 17.7887C14.084 17.2101 14.405 16.6826 14.8098 16.2311C14.4231 16.0824 14.0037 16 13.5652 16Z" fill="#FFDA44"/>
<path d="M15.0645 18.6195C15.357 18.724 15.6719 18.7813 16.0004 18.7813C16.3289 18.7813 16.6438 18.724 16.9363 18.6195C16.7769 17.9937 16.4477 17.4351 16.0004 16.9961C15.5531 17.435 15.2239 17.9937 15.0645 18.6195Z" fill="#FFDA44"/>
<path d="M18.4102 14.6085C17.9291 13.7769 17.0305 13.2168 16.0005 13.2168C14.9705 13.2168 14.0719 13.7769 13.5908 14.6085C14.4679 14.613 15.2904 14.8515 16.0005 15.2633C16.7106 14.8515 17.5329 14.613 18.4102 14.6085Z" fill="#FFDA44"/>
<path d="M17.1895 16.2311C17.5943 16.6825 17.9153 17.2101 18.1303 17.7887C18.5333 17.3091 18.7773 16.6918 18.7815 16.0174C18.6671 16.0059 18.5513 16 18.434 16C17.9956 15.9999 17.5762 16.0823 17.1895 16.2311V16.2311Z" fill="#FFDA44"/>
</svg>
