<svg width="32" height="32" viewBox="0 0 32 32" fill="none" xmlns="http://www.w3.org/2000/svg">
<path d="M0 16.0005C0 18.7724 0.705188 21.3795 1.94544 23.6527L16 25.044L30.0546 23.6527C31.2948 21.3795 32 18.7724 32 16.0005C32 13.2287 31.2948 10.6215 30.0546 8.34834L16 6.95703L1.94544 8.34834C0.705188 10.6215 0 13.2287 0 16.0005H0Z" fill="#D80027"/>
<path d="M1.94531 8.34781H30.0544C27.3407 3.37431 22.0646 0 15.9999 0C9.93519 0 4.659 3.37431 1.94531 8.34781V8.34781Z" fill="#0052B4"/>
<path d="M15.9999 32.0002C22.0646 32.0002 27.3407 28.6258 30.0544 23.6523H1.94531C4.659 28.6258 9.93519 32.0002 15.9999 32.0002Z" fill="#0052B4"/>
<path d="M21.5656 19.1294V17.0425H20.1744V14.2599L18.7831 12.8686L17.3918 14.2599V11.4773L16.0005 10.0859L14.6091 11.4773V14.2599L13.2178 12.8686L11.8265 14.2599V17.0425H10.4353V19.1294H9.04395V21.2164H22.957V19.1294H21.5656Z" fill="#F0F0F0"/>
</svg>
