<svg width="32" height="32" viewBox="0 0 32 32" fill="none" xmlns="http://www.w3.org/2000/svg">
<g clip-path="url(#clip0_20142_72445)">
<path d="M16 32C24.8366 32 32 24.8366 32 16C32 7.16344 24.8366 0 16 0C7.16344 0 0 7.16344 0 16C0 24.8366 7.16344 32 16 32Z" fill="#F0F0F0"/>
<path d="M31.9985 15.9531H14.6542C11.2106 19.3967 9.12821 22.0553 7.00195 24.1816L16.0455 24.9966L30.0789 23.6052C31.3035 21.3431 31.9991 18.7525 31.9991 15.9994C31.9991 15.9839 31.9985 15.9686 31.9985 15.9531V15.9531Z" fill="#D80027"/>
<path d="M7.00362 8.3015H30.0294C27.3083 3.3535 22.0464 0 16.0007 0C11.5941 0 7.60437 1.78194 4.71094 4.664L7.00362 8.3015Z" fill="#FFDA44"/>
<path d="M7.699 23.6055C6.26063 25.0438 5.70475 26.249 4.66406 27.2896C7.56125 30.1988 11.5703 31.9997 16.0004 31.9997C22.0839 31.9997 27.3742 28.6043 30.0802 23.6055H7.699Z" fill="#0052B4"/>
<path d="M4.6853 4.64062C-1.56307 10.889 -1.56307 21.0197 4.6853 27.2681C7.26737 24.6861 9.75068 22.2028 15.9991 15.9544L4.6853 4.64062Z" fill="#6DA544"/>
<path d="M4.22079 15.9536C4.22079 13.6224 5.8591 11.675 8.04685 11.1972C7.7106 11.1238 7.36173 11.084 7.00335 11.084C4.31391 11.084 2.13379 13.2641 2.13379 15.9536C2.13379 18.643 4.31391 20.8231 7.00335 20.8231C7.36166 20.8231 7.71054 20.7833 8.04685 20.7099C5.8591 20.2321 4.22079 18.2847 4.22079 15.9536V15.9536Z" fill="#F0F0F0"/>
<path d="M7.9927 11.7793L8.25176 12.5764H9.08988L8.41176 13.0691L8.67082 13.8662L7.9927 13.3736L7.31457 13.8662L7.57363 13.0691L6.89551 12.5764H7.73363L7.9927 11.7793Z" fill="#F0F0F0"/>
<path d="M7.9927 13.8672L8.25176 14.6644H9.08988L8.41176 15.157L8.67082 15.9542L7.9927 15.4615L7.31457 15.9542L7.57363 15.157L6.89551 14.6644H7.73363L7.9927 13.8672Z" fill="#F0F0F0"/>
<path d="M7.9927 15.9531L8.25176 16.7502H9.08988L8.41176 17.2429L8.67082 18.0401L7.9927 17.5474L7.31457 18.0401L7.57363 17.2429L6.89551 16.7502H7.73363L7.9927 15.9531Z" fill="#F0F0F0"/>
<path d="M7.9927 18.041L8.25176 18.8381H9.08988L8.41176 19.3308L8.67082 20.128L7.9927 19.6353L7.31457 20.128L7.57363 19.3308L6.89551 18.8381H7.73363L7.9927 18.041Z" fill="#F0F0F0"/>
</g>
<defs>
<clipPath id="clip0_20142_72445">
<rect width="32" height="32" fill="white"/>
</clipPath>
</defs>
</svg>
