<svg width="32" height="32" viewBox="0 0 32 32" fill="none" xmlns="http://www.w3.org/2000/svg">
<path d="M16 31.9999C24.8365 31.9999 31.9999 24.8365 31.9999 16C31.9999 7.16343 24.8365 0 16 0C7.16343 0 0 7.16343 0 16C0 24.8365 7.16343 31.9999 16 31.9999Z" fill="#FFDA44"/>
<path d="M4.68621 27.3147C5.3574 27.9858 6.07359 28.5845 6.82478 29.1114L29.1103 6.82588C28.5834 6.07463 27.9848 5.3585 27.3136 4.68732C26.6424 4.01613 25.9262 3.41769 25.1751 2.89062L2.88965 25.1762C3.41652 25.9274 4.01503 26.6435 4.68621 27.3147Z" fill="black"/>
<path d="M4.68666 4.68552C-0.361036 9.73322 -1.3301 17.3141 1.77766 23.3354L23.3364 1.77664C17.3151 -1.33105 9.73417 -0.361987 4.68666 4.68552Z" fill="#6DA544"/>
<path d="M27.314 27.3139C32.3616 22.2663 33.3306 14.6855 30.223 8.66406L8.66406 30.223C14.6854 33.3306 22.2663 32.3616 27.314 27.3139Z" fill="#D80027"/>
<path d="M10.1733 18.8754L11.6669 19.6365L12.8523 18.4512L12.59 20.1067L14.0836 20.8679L12.4279 21.1301L12.1657 22.7857L11.4047 21.2921L9.74902 21.5544L10.9343 20.3691L10.1733 18.8754Z" fill="#F0F0F0"/>
<path d="M18.8754 10.1723L20.369 10.9334L21.5544 9.74805L21.2922 11.4036L22.7857 12.1647L21.1301 12.427L20.8679 14.0826L20.1068 12.5891L18.4512 12.8512L19.6365 11.6659L18.8754 10.1723Z" fill="#F0F0F0"/>
</svg>
