<svg width="32" height="32" viewBox="0 0 32 32" fill="none" xmlns="http://www.w3.org/2000/svg">
<path d="M16 32C24.8366 32 32 24.8366 32 16C32 7.16344 24.8366 0 16 0C7.16344 0 0 7.16344 0 16C0 24.8366 7.16344 32 16 32Z" fill="#F0F0F0"/>
<path d="M21.5649 16.0007C21.5649 17.392 19.0733 20.8703 15.9998 20.8703C12.9262 20.8703 10.4346 17.392 10.4346 16.0007C10.4346 12.9271 12.9262 10.4355 15.9998 10.4355C19.0733 10.4355 21.5649 12.9271 21.5649 16.0007Z" fill="#D80027"/>
<path d="M21.5649 16C21.5649 19.0736 19.0733 21.5652 15.9998 21.5652C12.9262 21.5652 10.4346 19.0736 10.4346 16" fill="#0052B4"/>
<path d="M21.8984 20.9199L23.3739 19.4445L24.3576 20.4281L22.8821 21.9036L21.8984 20.9199Z" fill="black"/>
<path d="M19.4404 23.3789L20.9159 21.9034L21.8995 22.8871L20.4241 24.3626L19.4404 23.3789Z" fill="black"/>
<path d="M24.8496 23.8691L26.3251 22.3937L27.3087 23.3773L25.8333 24.8528L24.8496 23.8691Z" fill="black"/>
<path d="M22.3887 26.3301L23.8641 24.8546L24.8478 25.8383L23.3723 27.3137L22.3887 26.3301Z" fill="black"/>
<path d="M23.373 22.3945L24.8485 20.9191L25.8322 21.9027L24.3567 23.3782L23.373 22.3945Z" fill="black"/>
<path d="M20.9141 24.8535L22.3895 23.378L23.3732 24.3617L21.8977 25.8372L20.9141 24.8535Z" fill="black"/>
<path d="M24.8545 11.084L20.9199 7.1494L21.9036 6.16574L25.8381 10.1003L24.8545 11.084Z" fill="black"/>
<path d="M20.9229 10.0996L19.4474 8.62415L20.431 7.64053L21.9065 9.116L20.9229 10.0996Z" fill="black"/>
<path d="M23.3799 12.5605L21.9044 11.0851L22.888 10.1015L24.3635 11.5769L23.3799 12.5605Z" fill="black"/>
<path d="M23.8721 7.14844L22.3966 5.67297L23.3803 4.68931L24.8557 6.16478L23.8721 7.14844Z" fill="black"/>
<path d="M26.333 9.60938L24.8575 8.13391L25.8412 7.15025L27.3167 8.62572L26.333 9.60938Z" fill="black"/>
<path d="M5.67285 22.3926L9.60744 26.3272L8.62378 27.3108L4.68919 23.3762L5.67285 22.3926Z" fill="black"/>
<path d="M9.60742 23.375L11.0829 24.8505L10.0993 25.8341L8.62381 24.3586L9.60742 23.375Z" fill="black"/>
<path d="M7.14648 20.916L8.62195 22.3915L7.63829 23.3751L6.16283 21.8997L7.14648 20.916Z" fill="black"/>
<path d="M8.62305 19.4395L12.5576 23.374L11.574 24.3577L7.63939 20.4231L8.62305 19.4395Z" fill="black"/>
<path d="M9.60449 5.66992L5.66991 9.60451L4.68625 8.62085L8.62083 4.68626L9.60449 5.66992Z" fill="black"/>
<path d="M11.082 7.14648L7.14745 11.0811L6.16379 10.0974L10.0984 6.16283L11.082 7.14648Z" fill="black"/>
<path d="M12.5596 8.62109L8.62498 12.5557L7.64137 11.5721L11.576 7.63748L12.5596 8.62109Z" fill="black"/>
</svg>
