<svg width="32" height="32" viewBox="0 0 32 32" fill="none" xmlns="http://www.w3.org/2000/svg">
<path d="M32 16C32 24.8365 24.8365 32 16 32C7.1635 32 0 24.8365 0 16C0 16.0038 16 0.00175 16 0C24.8365 0 32 7.1635 32 16Z" fill="#0052B4"/>
<path d="M15.958 15.9998H16.0008C16.0008 15.9855 16.0008 15.9715 16.0008 15.957C15.9866 15.9713 15.9723 15.9856 15.958 15.9998Z" fill="#F0F0F0"/>
<path d="M16 8.34781C16 5.5325 16 3.68781 16 0H15.9973C7.16194 0.0015 0 7.16431 0 16H8.34781V11.2993L13.0485 16H15.9572C15.9715 15.9857 15.9858 15.9715 16.0001 15.9572C16.0001 14.8793 16.0001 13.9174 16.0001 13.0486L11.2992 8.34781H16Z" fill="#F0F0F0"/>
<path d="M22.9574 11.827C24.4942 11.827 25.7401 10.5811 25.7401 9.04434C25.7401 7.50754 24.4942 6.26172 22.9574 6.26172C21.4206 6.26172 20.1748 7.50754 20.1748 9.04434C20.1748 10.5811 21.4206 11.827 22.9574 11.827Z" fill="#6DA544"/>
<path d="M8.09466 2.08594C5.59223 3.51087 3.51179 5.59125 2.08691 8.09369V15.999H6.26085V6.26V6.25988H16C16 4.94344 16 3.68931 16 2.08594H8.09466Z" fill="#D80027"/>
<path d="M15.9998 14.0322L10.3152 8.34766H8.34766V8.34778L15.9997 15.9998H15.9998C15.9998 15.9998 15.9998 14.6431 15.9998 14.0322V14.0322Z" fill="#D80027"/>
<path d="M18.0869 8.34766H27.826V12.5216H18.0869V8.34766Z" fill="#D80027"/>
<path d="M18.0869 18.7832V21.5658H19.5509C20.4287 22.4261 21.6303 22.9571 22.9565 22.9571C24.2827 22.9571 25.4842 22.4261 26.362 21.5658H26.4347H27.826V18.7832H18.0869Z" fill="#FFDA44"/>
<path d="M18.0869 11.8262V16.0001C18.0869 19.7276 22.9565 20.8697 22.9565 20.8697C22.9565 20.8697 27.826 19.7276 27.826 16.0001V11.8262H18.0869Z" fill="#338AF3"/>
<path d="M22.9562 14.0547C21.7389 14.0547 21.7389 15.1677 20.5215 15.1677C19.3042 15.1677 19.3042 14.0547 18.0869 14.0547V16.0025C19.3042 16.0025 19.3042 17.1156 20.5215 17.1156C21.7389 17.1156 21.7389 16.0025 22.9562 16.0025C24.1736 16.0025 24.1736 17.1156 25.3911 17.1156C26.6086 17.1156 26.6085 16.0025 27.826 16.0025V14.0547C26.6086 14.0547 26.6086 15.1677 25.3911 15.1677C24.1736 15.1677 24.1736 14.0547 22.9562 14.0547V14.0547Z" fill="#F3F3F3"/>
<path d="M22.9562 10.1562C21.7389 10.1562 21.7389 11.2693 20.5215 11.2693C19.3042 11.2693 19.3042 10.1562 18.0869 10.1562V12.1041C19.3042 12.1041 19.3042 13.2171 20.5215 13.2171C21.7389 13.2171 21.7389 12.1041 22.9562 12.1041C24.1736 12.1041 24.1736 13.2171 25.3911 13.2171C26.6086 13.2171 26.6085 12.1041 27.826 12.1041V10.1562C26.6086 10.1562 26.6086 11.2693 25.3911 11.2693C24.1736 11.2693 24.1736 10.1562 22.9562 10.1562Z" fill="#F3F3F3"/>
</svg>
