<svg width="32" height="32" viewBox="0 0 32 32" fill="none" xmlns="http://www.w3.org/2000/svg">
<path d="M16 32C24.8366 32 32 24.8366 32 16C32 7.16344 24.8366 0 16 0C7.16344 0 0 7.16344 0 16C0 24.8366 7.16344 32 16 32Z" fill="#338AF3"/>
<path d="M25.0431 16.1738H6.95605C6.95605 17.4225 8.04362 18.4347 9.29218 18.4347H9.21693C9.21693 19.6834 10.2291 20.6956 11.4778 20.6956C11.4778 21.9443 12.49 22.9565 13.7387 22.9565H18.2604C19.5091 22.9565 20.5213 21.9443 20.5213 20.6956C21.77 20.6956 22.7822 19.6834 22.7822 18.4347H22.7069C23.9554 18.4347 25.0431 17.4225 25.0431 16.1738V16.1738Z" fill="#FFDA44"/>
<path d="M22.261 13.2168C22.261 16.6745 19.4579 19.4777 16.0001 19.4777C12.5423 19.4777 9.73926 16.6745 9.73926 13.2168" fill="#338AF3"/>
<path d="M20.7831 13.2171L18.8291 14.1363L19.8696 16.0288L17.7477 15.6229L17.4789 17.7664L16.0009 16.1898L14.5229 17.7664L14.2541 15.6229L12.1322 16.0287L13.1727 14.1363L11.2188 13.2171L13.1728 12.298L12.1322 10.4056L14.2541 10.8115L14.523 8.66797L16.0009 10.2445L17.4789 8.66797L17.7477 10.8115L19.8697 10.4056L18.8291 12.2981L20.7831 13.2171Z" fill="#FFDA44"/>
</svg>
