<svg width="32" height="32" viewBox="0 0 32 32" fill="none" xmlns="http://www.w3.org/2000/svg">
<g clip-path="url(#clip0_20142_72513)">
<path d="M0 15.9998C0 18.493 0.570438 20.8528 1.58763 22.9563L16 23.652L30.4124 22.9564C31.4296 20.8528 32 18.493 32 15.9998C32 13.5067 31.4296 11.1468 30.4124 9.04334L16 8.34766L1.58763 9.04328C0.570438 11.1468 0 13.5067 0 15.9998H0Z" fill="#F0F0F0"/>
<path d="M15.9993 32.0005C22.3426 32.0005 27.8237 28.309 30.4117 22.957H1.58691C4.17491 28.309 9.65591 32.0005 15.9993 32.0005Z" fill="#6DA544"/>
<path d="M15.9993 0C9.65591 0 4.17491 3.69156 1.58691 9.0435H30.4116C27.8237 3.69156 22.3426 0 15.9993 0V0Z" fill="#0052B4"/>
<path d="M17.0441 15.6522V11.8262H14.9571V15.6522L12.4365 18.1729C13.1696 19.3729 14.4915 20.174 16.0006 20.174C17.5098 20.174 18.8316 19.3729 19.5648 18.1729L17.0441 15.6522Z" fill="black"/>
</g>
<defs>
<clipPath id="clip0_20142_72513">
<rect width="32" height="32" fill="white"/>
</clipPath>
</defs>
</svg>
