<svg width="32" height="32" viewBox="0 0 32 32" fill="none" xmlns="http://www.w3.org/2000/svg">
<path d="M1.58763 9.04366C0.5705 11.1472 0 13.507 0 16.0002C0 18.4933 0.5705 20.8532 1.58763 22.9567L16 24.348L30.4124 22.9567C31.4295 20.8532 32 18.4933 32 16.0002C32 13.507 31.4295 11.1472 30.4124 9.04366L16 7.65234L1.58763 9.04366Z" fill="black"/>
<path d="M1.58887 22.957C4.17674 28.309 9.6573 32.0005 16.0007 32.0005C22.344 32.0005 27.8246 28.309 30.4125 22.957H1.58887Z" fill="#496E2D"/>
<path d="M1.58887 9.0435H30.4125C27.8246 3.69156 22.344 0 16.0007 0C9.6573 0 4.17674 3.69156 1.58887 9.0435Z" fill="#D80027"/>
<path d="M19.7242 13.0742L21.037 14.8833L23.1631 14.1939L21.8482 16.0014L23.1608 17.8104L21.0356 17.1184L19.7207 18.9259L19.7221 16.6908L17.5967 15.9988L19.7228 15.3095L19.7242 13.0742Z" fill="#F0F0F0"/>
<path d="M16.1412 20.5225C13.644 20.5225 11.6195 18.498 11.6195 16.0008C11.6195 13.5035 13.644 11.479 16.1412 11.479C16.9199 11.479 17.6525 11.6759 18.2922 12.0225C17.2887 11.0412 15.9164 10.4355 14.4021 10.4355C11.3285 10.4355 8.83691 12.9272 8.83691 16.0007C8.83691 19.0743 11.3285 21.5659 14.4021 21.5659C15.9165 21.5659 17.2887 20.9602 18.2922 19.9789C17.6525 20.3257 16.9199 20.5225 16.1412 20.5225Z" fill="#F0F0F0"/>
</svg>
