<svg width="32" height="32" viewBox="0 0 32 32" fill="none" xmlns="http://www.w3.org/2000/svg">
<g clip-path="url(#clip0_20142_72606)">
<path d="M16 32C24.8366 32 32 24.8366 32 16C32 7.16344 24.8366 0 16 0C7.16344 0 0 7.16344 0 16C0 24.8366 7.16344 32 16 32Z" fill="#F0F0F0"/>
<path d="M10.4346 15.9996V31.0044C12.1678 31.6476 14.0426 31.9996 15.9998 31.9996C24.8363 31.9996 31.9998 24.8361 31.9998 15.9996C31.9998 7.1631 10.4346 15.9996 10.4346 15.9996Z" fill="#6DA544"/>
<path d="M15.9998 0C14.0426 0 12.1678 0.352063 10.4346 0.995188V16H31.9998C31.9998 7.1635 24.8363 0 15.9998 0Z" fill="#D80027"/>
</g>
<defs>
<clipPath id="clip0_20142_72606">
<rect width="32" height="32" fill="white"/>
</clipPath>
</defs>
</svg>
