<svg width="32" height="32" viewBox="0 0 32 32" fill="none" xmlns="http://www.w3.org/2000/svg">
<g clip-path="url(#clip0_20142_72568)">
<path d="M16 32C24.8365 32 32 24.8365 32 16C32 13.3148 31.3375 10.7846 30.1686 8.5625L15.9812 16.0187L23.4375 1.83138C21.2154 0.6625 18.6852 0 16 0C7.1635 0 0 7.1635 0 16C0 20.4183 1.79088 24.4183 4.68625 27.3137C7.58169 30.2092 11.5817 32 16 32Z" fill="#0052B4"/>
<path d="M30.1512 8.57922C29.4188 7.18522 28.4666 5.87641 27.2945 4.70428C26.1223 3.53216 24.8137 2.57997 23.4196 1.84766L4.66699 27.3317L30.1512 8.57922Z" fill="#F0F0F0"/>
<path d="M4.66699 27.3325L30.1512 8.58002C29.4188 7.18602 28.4666 5.8772 27.2945 4.70508L4.66699 27.3325Z" fill="#FF9811"/>
<path d="M13.8945 9.38323L11.9405 10.3024L12.981 12.1949L10.8591 11.7889L10.5903 13.9324L9.11227 12.3559L7.63427 13.9324L7.36552 11.7889L5.24364 12.1947L6.28408 10.3023L4.33008 9.38323L6.28414 8.46405L5.24364 6.57167L7.36539 6.97748L7.63433 4.83398L9.11227 6.41055L10.5903 4.83398L10.8591 6.97748L12.9811 6.57167L11.9405 8.46411L13.8945 9.38323Z" fill="#F0F0F0"/>
</g>
<defs>
<clipPath id="clip0_20142_72568">
<rect width="32" height="32" fill="white"/>
</clipPath>
</defs>
</svg>
