<svg width="32" height="32" viewBox="0 0 32 32" fill="none" xmlns="http://www.w3.org/2000/svg">
<path d="M16 32C24.8366 32 32 24.8366 32 16C32 7.16344 24.8366 0 16 0C7.16344 0 0 7.16344 0 16C0 24.8366 7.16344 32 16 32Z" fill="#FFDA44"/>
<path d="M18.4333 31.8161C21.0355 31.4191 23.4309 30.3943 25.4618 28.9024L16 16L18.4333 31.8161Z" fill="#D80027"/>
<path d="M13.5657 0.183594C10.9635 0.580594 8.56811 1.60534 6.53711 3.09716L15.999 15.9997L13.5657 0.183594Z" fill="#D80027"/>
<path d="M6.53711 28.9024C8.56798 30.3943 10.9634 31.419 13.5655 31.8161L15.999 16L6.53711 28.9024Z" fill="#D80027"/>
<path d="M3.09716 6.53711C1.60528 8.56811 0.580656 10.9634 0.183594 13.5657L15.9997 15.999L3.09716 6.53711Z" fill="#D80027"/>
<path d="M0.183594 18.4333C0.580594 21.0355 1.60534 23.4309 3.09722 25.4618L15.9997 16L0.183594 18.4333Z" fill="#D80027"/>
<path d="M31.8161 13.5656C31.419 10.9634 30.3943 8.56805 28.9024 6.53711L16 15.9989L31.8161 13.5656Z" fill="#D80027"/>
<path d="M25.4618 3.09709C23.4308 1.60528 21.0355 0.580594 18.4333 0.183594L16 15.9997L25.4618 3.09709Z" fill="#D80027"/>
<path d="M28.9026 25.4618C30.3944 23.4309 31.4191 21.0354 31.8162 18.4333L16 16L28.9026 25.4618Z" fill="#D80027"/>
<path d="M15.9998 21.564C19.0733 21.564 21.5649 19.0724 21.5649 15.9988C21.5649 12.9252 19.0733 10.4336 15.9998 10.4336C12.9262 10.4336 10.4346 12.9252 10.4346 15.9988C10.4346 19.0724 12.9262 21.564 15.9998 21.564Z" fill="#D80027"/>
<path d="M16.0001 20.1741C18.3053 20.1741 20.1741 18.3053 20.1741 16.0001C20.1741 13.6949 18.3053 11.8262 16.0001 11.8262C13.6949 11.8262 11.8262 13.6949 11.8262 16.0001C11.8262 18.3053 13.6949 20.1741 16.0001 20.1741Z" fill="#FFDA44"/>
</svg>
