<svg width="32" height="32" viewBox="0 0 32 32" fill="none" xmlns="http://www.w3.org/2000/svg">
<g clip-path="url(#clip0_20142_72623)">
<path d="M31.0048 21.5647C31.648 19.8314 32 17.9566 32 15.9995C32 14.0423 31.648 12.1675 31.0048 10.4343L16 9.04297L0.995188 10.4343C0.352063 12.1675 0 14.0423 0 15.9995C0 17.9566 0.352063 19.8314 0.995188 21.5647L16 22.956L31.0048 21.5647Z" fill="#6DA544"/>
<path d="M31.0057 10.4348C28.745 4.342 22.8803 0 16.0009 0C9.12147 0 3.25678 4.342 0.996094 10.4348H31.0057Z" fill="#FFDA44"/>
<path d="M16.0009 31.9993C22.8803 31.9993 28.745 27.6573 31.0057 21.5645H0.996094C3.25678 27.6573 9.12147 31.9993 16.0009 31.9993Z" fill="#D80027"/>
<path d="M26.9739 13.5359H18.5922L16.0021 5.56445L13.412 13.5359H5.03027L11.8112 18.4625L9.22109 26.4341L16.0021 21.5645L22.7831 26.434L20.193 18.4625L26.9739 13.5359Z" fill="#F0F0F0"/>
</g>
<defs>
<clipPath id="clip0_20142_72623">
<rect width="32" height="32" fill="white"/>
</clipPath>
</defs>
</svg>
