<svg width="32" height="32" viewBox="0 0 32 32" fill="none" xmlns="http://www.w3.org/2000/svg">
<path d="M16.0001 32C17.9572 32 19.8321 31.648 21.5653 31.0048L22.261 16L21.5654 0.995188C19.8321 0.352063 17.9572 0 16.0001 0C14.043 0 12.1682 0.352063 10.4349 0.995188L9.73926 16L10.4349 31.0048C12.1682 31.648 14.043 32 16.0001 32Z" fill="#0052B4"/>
<path d="M0 16.0009C0 22.8803 4.342 28.745 10.4348 31.0057V0.996094C4.342 3.25678 0 9.12147 0 16.0009Z" fill="#A2001D"/>
<path d="M21.5654 0.996094V31.0058C27.6582 28.745 32.0002 22.8803 32.0002 16.0009C32.0002 9.12147 27.6582 3.25678 21.5654 0.996094V0.996094Z" fill="#A2001D"/>
<path d="M7.65137 16H9.04268V21.5652H7.65137V16Z" fill="#FFDA44"/>
<path d="M2.08691 16H3.47823V21.5652H2.08691V16Z" fill="#FFDA44"/>
<path d="M5.56514 19.4779C6.33354 19.4779 6.95645 18.855 6.95645 18.0866C6.95645 17.3182 6.33354 16.6953 5.56514 16.6953C4.79674 16.6953 4.17383 17.3182 4.17383 18.0866C4.17383 18.855 4.79674 19.4779 5.56514 19.4779Z" fill="#FFDA44"/>
<path d="M5.56574 13.9127C5.94993 13.9127 6.26137 13.6013 6.26137 13.2171C6.26137 12.8329 5.94993 12.5215 5.56574 12.5215C5.18156 12.5215 4.87012 12.8329 4.87012 13.2171C4.87012 13.6013 5.18156 13.9127 5.56574 13.9127Z" fill="#FFDA44"/>
<path d="M4.17383 20.1738H6.95645V21.5651H4.17383V20.1738Z" fill="#FFDA44"/>
<path d="M4.17383 14.6094H6.95645V16.0007H4.17383V14.6094Z" fill="#FFDA44"/>
<path d="M5.56448 8.34766L6.05723 9.86391H7.65148L6.36179 10.801L6.85416 12.3173L5.56448 11.3802L4.27485 12.3173L4.76723 10.801L3.47754 9.86391H5.07179L5.56448 8.34766Z" fill="#FFDA44"/>
</svg>
