<svg width="32" height="32" viewBox="0 0 32 32" fill="none" xmlns="http://www.w3.org/2000/svg">
<path d="M16 32C24.8366 32 32 24.8366 32 16C32 7.16344 24.8366 0 16 0C7.16344 0 0 7.16344 0 16C0 24.8366 7.16344 32 16 32Z" fill="#496E2D"/>
<path d="M18.7826 15.3329C18.3899 15.3329 18.017 15.4112 17.6708 15.5358C17.8604 15.113 17.9876 14.6427 17.9876 14.1404C17.9876 12.1528 16.0001 10.6621 16.0001 10.6621C16.0001 10.6621 14.0125 12.1528 14.0125 14.1404C14.0125 14.6426 14.1397 15.113 14.3294 15.5358C13.9831 15.4113 13.6102 15.3329 13.2175 15.3329C11.2299 15.3329 9.73926 17.3204 9.73926 17.3204C9.73926 17.3204 11.2299 19.308 13.2175 19.308C14.3828 19.308 15.3767 18.625 16.0001 18.0597C16.6236 18.625 17.6174 19.308 18.7828 19.308C20.7703 19.308 22.261 17.3204 22.261 17.3204C22.261 17.3204 20.7702 15.3329 18.7826 15.3329V15.3329Z" fill="#F0F0F0"/>
<path d="M15.9999 6.26172L16.4104 7.52522H17.739L16.6643 8.30621L17.0746 9.56971L15.9999 8.78871L14.9252 9.56971L15.3354 8.30621L14.2607 7.52522H15.5893L15.9999 6.26172Z" fill="#FFDA44"/>
<path d="M10.9465 8.47266L11.7364 9.18378L12.6568 8.65241L12.2246 9.62334L13.0144 10.3346L11.9574 10.2235L11.5251 11.1944L11.304 10.1548L10.2471 10.0437L11.1674 9.51222L10.9465 8.47266Z" fill="#FFDA44"/>
<path d="M7.24902 12.1702L8.28865 12.3911L8.82009 11.4707L8.93121 12.5276L9.97071 12.7488L8.99984 13.1811L9.11096 14.238L8.39965 13.4483L7.42877 13.8805L7.96021 12.96L7.24902 12.1702Z" fill="#FFDA44"/>
<path d="M21.0512 8.47266L20.2614 9.18378L19.341 8.65241L19.7731 9.62334L18.9834 10.3346L20.0404 10.2235L20.4726 11.1944L20.6938 10.1548L21.7507 10.0437L20.8303 9.51222L21.0512 8.47266Z" fill="#FFDA44"/>
<path d="M24.749 12.1702L23.7094 12.3911L23.178 11.4707L23.0668 12.5276L22.0273 12.7488L22.9982 13.1811L22.8871 14.238L23.5984 13.4483L24.5693 13.8805L24.0378 12.96L24.749 12.1702Z" fill="#FFDA44"/>
<path d="M16.0002 24.874C17.579 24.874 19.0343 24.3472 20.2016 23.4609H11.7988C12.9662 24.3472 14.4214 24.874 16.0002 24.874Z" fill="#F0F0F0"/>
<path d="M9.62305 20.6992C9.84386 21.2046 10.1239 21.6779 10.4527 22.1123H21.5476C21.8765 21.678 22.1565 21.2046 22.3773 20.6992H9.62305Z" fill="#F0F0F0"/>
</svg>
