<svg width="32" height="32" viewBox="0 0 32 32" fill="none" xmlns="http://www.w3.org/2000/svg">
<path d="M16 32C24.8366 32 32 24.8366 32 16C32 7.16344 24.8366 0 16 0C7.16344 0 0 7.16344 0 16C0 24.8366 7.16344 32 16 32Z" fill="#F0F0F0"/>
<path d="M31.8629 13.9127C31.4215 10.5385 29.9059 7.27816 27.3137 4.68597C24.7215 2.09378 21.461 0.578094 18.0869 0.136719L18.087 13.9127H31.8629Z" fill="#0052B4"/>
<path d="M13.9127 0.136719C10.5385 0.578094 7.27809 2.09372 4.68591 4.68591C2.09378 7.27816 0.578094 10.5386 0.136719 13.9128L13.9127 13.9127L13.9127 0.136719Z" fill="#0052B4"/>
<path d="M0.136719 18.0859C0.578094 21.4601 2.09378 24.7206 4.68591 27.3127C7.27809 29.9048 10.5385 31.4204 13.9127 31.862L13.9127 18.0861L0.136719 18.0859Z" fill="#0052B4"/>
<path d="M18.0869 31.8618C21.461 31.4204 24.7214 29.9048 27.3136 27.3126C29.9058 24.7204 31.4214 21.4601 31.8628 18.0859H18.0869V31.8618Z" fill="#0052B4"/>
<path d="M21.4611 10.1523C21.4611 9.93955 21.634 9.76661 21.8469 9.76661H22.6734C23.9799 9.76661 25.0428 8.70373 25.0428 7.3973C25.0428 6.09086 23.9799 5.02792 22.6734 5.02792H21.8885C21.6323 4.83548 21.2886 4.7168 20.9095 4.7168C20.1187 4.7168 19.4776 5.22961 19.4776 5.86223C19.4776 6.48873 20.1064 6.99698 20.8867 7.00686L20.8863 7.01142H22.6734C22.8862 7.01142 23.0591 7.18442 23.0591 7.39717C23.0591 7.60992 22.8862 7.78286 22.6734 7.78286H21.8469C20.5404 7.78286 19.4775 8.84573 19.4775 10.1522C19.4775 11.4586 20.5403 12.5215 21.8469 12.5215H25.0427V10.5379H21.8469C21.634 10.538 21.4611 10.365 21.4611 10.1523V10.1523Z" fill="#F0F0F0"/>
<path d="M8.93956 10.1523C8.93956 9.93955 9.11249 9.76661 9.3253 9.76661H10.1518C11.4583 9.76661 12.5212 8.70373 12.5212 7.3973C12.5212 6.09086 11.4584 5.02792 10.1518 5.02792H9.36693C9.11074 4.83548 8.76705 4.7168 8.38793 4.7168C7.59712 4.7168 6.95605 5.22961 6.95605 5.86223C6.95605 6.48873 7.58487 6.99698 8.36512 7.00686L8.36474 7.01142H10.1519C10.3647 7.01142 10.5376 7.18442 10.5376 7.39717C10.5376 7.60992 10.3647 7.78286 10.1519 7.78286H9.32537C8.01887 7.78286 6.95605 8.84573 6.95605 10.1522C6.95605 11.4586 8.0188 12.5215 9.32537 12.5215H12.5212V10.5379H9.3253C9.11249 10.538 8.93956 10.365 8.93956 10.1523V10.1523Z" fill="#F0F0F0"/>
<path d="M21.4621 24.914C21.4621 24.7013 21.6351 24.5283 21.8479 24.5283H22.6744C23.9809 24.5283 25.0438 23.4655 25.0438 22.159C25.0438 20.8526 23.981 19.7896 22.6744 19.7896H21.8895C21.6333 19.5972 21.2896 19.4785 20.9105 19.4785C20.1196 19.4785 19.4786 19.9914 19.4786 20.624C19.4786 21.2505 20.1074 21.7587 20.8876 21.7686L20.8873 21.7731H22.6743C22.8871 21.7731 23.0601 21.9461 23.0601 22.1589C23.0601 22.3716 22.8871 22.5446 22.6743 22.5446H21.8478C20.5413 22.5446 19.4785 23.6075 19.4785 24.9139C19.4785 26.2203 20.5413 27.2833 21.8478 27.2833H25.0438V25.2997H21.8479C21.6351 25.2998 21.4621 25.1267 21.4621 24.914V24.914Z" fill="#F0F0F0"/>
<path d="M8.94059 24.914C8.94059 24.7013 9.11353 24.5283 9.32634 24.5283H10.1528C11.4593 24.5283 12.5223 23.4655 12.5223 22.159C12.5223 20.8526 11.4594 19.7896 10.1528 19.7896H9.36797C9.11178 19.5972 8.76809 19.4785 8.38897 19.4785C7.59809 19.4785 6.95703 19.9914 6.95703 20.624C6.95703 21.2505 7.58584 21.7587 8.36609 21.7686L8.36572 21.7731H10.1528C10.3657 21.7731 10.5386 21.9461 10.5386 22.1589C10.5386 22.3716 10.3657 22.5446 10.1528 22.5446H9.32634C8.01984 22.5446 6.95703 23.6075 6.95703 24.9139C6.95703 26.2203 8.01978 27.2833 9.32634 27.2833H12.5222V25.2997H9.32634C9.11353 25.2998 8.94059 25.1267 8.94059 24.914Z" fill="#F0F0F0"/>
</svg>
