<svg width="32" height="32" viewBox="0 0 32 32" fill="none" xmlns="http://www.w3.org/2000/svg">
<path d="M16 32C24.8366 32 32 24.8366 32 16C32 7.16344 24.8366 0 16 0C7.16344 0 0 7.16344 0 16C0 24.8366 7.16344 32 16 32Z" fill="#496E2D"/>
<path d="M15.9998 18.4841C13.3356 18.4841 11.11 16.6117 10.5639 14.1114C10.4801 14.4958 10.4346 14.8943 10.4346 15.304C10.4346 18.3776 12.9261 20.8691 15.9998 20.8691C19.0734 20.8691 21.5649 18.3776 21.5649 15.304C21.5649 14.8943 21.5194 14.4958 21.4356 14.1113C20.8895 16.6118 18.6639 18.4841 15.9998 18.4841Z" fill="#FFDA44"/>
<path d="M15.999 11.1309L16.517 12.7252H18.1935L16.8373 13.7105L17.3553 15.3048L15.999 14.3194L14.6428 15.3048L15.1609 13.7105L13.8047 12.7252H15.481L15.999 11.1309Z" fill="#FFDA44"/>
</svg>
