<svg width="32" height="32" viewBox="0 0 32 32" fill="none" xmlns="http://www.w3.org/2000/svg">
<path d="M16 32C24.8366 32 32 24.8366 32 16C32 7.16344 24.8366 0 16 0C7.16344 0 0 7.16344 0 16C0 24.8366 7.16344 32 16 32Z" fill="#D80027"/>
<path d="M5.56543 8.34766H26.435V23.652H5.56543V8.34766Z" fill="#6DA544"/>
<path d="M18.5768 20.5225C16.0795 20.5225 14.055 18.498 14.055 16.0008C14.055 13.5035 16.0795 11.479 18.5768 11.479C19.3554 11.479 20.0881 11.6759 20.7277 12.0225C19.7243 11.0412 18.3521 10.4355 16.8376 10.4355C13.7641 10.4355 11.2725 12.9272 11.2725 16.0007C11.2725 19.0743 13.7641 21.5659 16.8376 21.5659C18.3521 21.5659 19.7243 20.9602 20.7277 19.9789C20.0881 20.3257 19.3554 20.5225 18.5768 20.5225Z" fill="#F0F0F0"/>
</svg>
