<svg width="32" height="32" viewBox="0 0 32 32" fill="none" xmlns="http://www.w3.org/2000/svg">
<g clip-path="url(#clip0_20142_72638)">
<path d="M0 15.9991C0 17.9563 0.352063 19.831 0.995188 21.5643L16 22.26L31.0048 21.5644C31.648 19.831 32 17.9563 32 15.9991C32 14.042 31.648 12.1673 31.0048 10.434L16 9.73828L0.995188 10.4339C0.352063 12.1673 0 14.042 0 15.9991H0Z" fill="#D80027"/>
<path d="M16.0009 0C9.12147 0 3.25678 4.342 0.996094 10.4348H31.0058C28.745 4.342 22.8803 0 16.0009 0V0Z" fill="black"/>
<path d="M31.0057 21.5645H0.996094C3.25678 27.6572 9.12147 31.9993 16.0009 31.9993C22.8803 31.9993 28.745 27.6572 31.0057 21.5645Z" fill="#496E2D"/>
<path d="M20.7831 7.65277L18.8291 6.73364L19.8697 4.8412L17.7478 5.24714L17.4789 3.10352L16.0009 4.68008L14.523 3.10352L14.2541 5.24714L12.1322 4.8412L13.1728 6.73364L11.2188 7.65277H20.7831Z" fill="#D80027"/>
</g>
<defs>
<clipPath id="clip0_20142_72638">
<rect width="32" height="32" fill="white"/>
</clipPath>
</defs>
</svg>
