<svg width="32" height="32" viewBox="0 0 32 32" fill="none" xmlns="http://www.w3.org/2000/svg">
<path d="M16 32C24.8366 32 32 24.8366 32 16C32 7.16344 24.8366 0 16 0C7.16344 0 0 7.16344 0 16C0 24.8366 7.16344 32 16 32Z" fill="#F0F0F0"/>
<path d="M31.9995 16.0003C31.9995 9.65689 28.308 4.17589 22.9561 1.58789V30.4126C28.308 27.8246 31.9995 22.3436 31.9995 16.0003V16.0003Z" fill="#D80027"/>
<path d="M0 16.0003C0 22.3436 3.69156 27.8246 9.0435 30.4126V1.58789C3.69156 4.17589 0 9.65689 0 16.0003Z" fill="#6DA544"/>
<path d="M11.8242 16.0007C11.8242 18.3059 13.693 20.1746 15.9982 20.1746C18.3034 20.1746 20.1721 18.3059 20.1721 16.0007V14.6094H11.8242V16.0007Z" fill="#6DA544"/>
<path d="M21.567 13.2175H17.3931C17.3931 12.4491 16.7701 11.8262 16.0018 11.8262C15.2334 11.8262 14.6105 12.4491 14.6105 13.2175H10.4365C10.4365 13.9859 11.1058 14.6088 11.8741 14.6088H11.8278C11.8278 15.3772 12.4507 16.0001 13.2191 16.0001C13.2191 16.7685 13.842 17.3914 14.6105 17.3914H17.3931C18.1615 17.3914 18.7844 16.7685 18.7844 16.0001C19.5528 16.0001 20.1757 15.3772 20.1757 14.6088H20.1293C20.8978 14.6088 21.567 13.9859 21.567 13.2175Z" fill="#FF9811"/>
</svg>
