<svg width="32" height="32" viewBox="0 0 32 32" fill="none" xmlns="http://www.w3.org/2000/svg">
<g clip-path="url(#clip0_20142_72646)">
<path d="M16 32C24.8366 32 32 24.8366 32 16C32 7.16344 24.8366 0 16 0C7.16344 0 0 7.16344 0 16C0 24.8366 7.16344 32 16 32Z" fill="#F0F0F0"/>
<path d="M15.3027 16.0001H31.9984C31.9984 14.5559 31.8059 13.157 31.4472 11.8262H15.3027V16.0001Z" fill="#D80027"/>
<path d="M15.3027 7.65245H29.65C28.6705 6.0542 27.4184 4.64152 25.9582 3.47852H15.3027V7.65245Z" fill="#D80027"/>
<path d="M15.9989 31.9997C19.7644 31.9997 23.2255 30.6982 25.9587 28.5215H6.03906C8.77225 30.6982 12.2333 31.9997 15.9989 31.9997V31.9997Z" fill="#D80027"/>
<path d="M2.34699 24.3478H29.6502C30.4366 23.0648 31.0463 21.6622 31.4474 20.1738H0.549805C0.950867 21.6622 1.56068 23.0648 2.34699 24.3478V24.3478Z" fill="#D80027"/>
<path d="M16 16C16 7.1635 16 6.12175 16 0C7.1635 0 0 7.1635 0 16H16Z" fill="#0052B4"/>
<path d="M10.6403 13.6951C8.45521 13.6951 6.68384 11.9237 6.68384 9.73864C6.68384 7.55358 8.45527 5.78214 10.6403 5.78214C11.3216 5.78214 11.9627 5.95445 12.5224 6.2577C11.6444 5.39914 10.4436 4.86914 9.11859 4.86914C6.42927 4.86914 4.24902 7.04933 4.24902 9.7387C4.24902 12.4281 6.42927 14.6083 9.11859 14.6083C10.4436 14.6083 11.6444 14.0783 12.5224 13.2197C11.9627 13.5228 11.3217 13.6951 10.6403 13.6951V13.6951Z" fill="#FFDA44"/>
<path d="M11.7537 6.95508L12.4561 8.42395L14.0424 8.05745L13.332 9.52239L14.6078 10.5341L13.0194 10.8921L13.0239 12.5203L11.7537 11.5017L10.4834 12.5203L10.4878 10.8921L8.89941 10.5341L10.1752 9.52239L9.46473 8.05745L11.0512 8.42395L11.7537 6.95508Z" fill="#FFDA44"/>
</g>
<defs>
<clipPath id="clip0_20142_72646">
<rect width="32" height="32" fill="white"/>
</clipPath>
</defs>
</svg>
