<svg width="32" height="32" viewBox="0 0 32 32" fill="none" xmlns="http://www.w3.org/2000/svg">
<g clip-path="url(#clip0_20142_72605)">
<path d="M16 32C24.8366 32 32 24.8366 32 16C32 7.16344 24.8366 0 16 0C7.16344 0 0 7.16344 0 16C0 24.8366 7.16344 32 16 32Z" fill="#F0F0F0"/>
<path d="M8.64888 22.2617L4.6875 27.314C7.58275 30.2097 11.5823 32.0008 16.0007 32.0008C22.6151 32.0008 28.2909 27.9865 30.7276 22.2617H8.64888Z" fill="#FFDA44"/>
<path d="M30.7525 9.79706C28.3294 4.04138 22.6374 0 16.0007 0C11.5823 0 7.58275 1.79119 4.6875 4.68681L8.69438 9.79706H30.7525Z" fill="#496E2D"/>
<path d="M3.47754 11.7676V20.1733H31.4481C31.807 18.8427 31.9993 17.4437 31.9993 15.9995C31.9993 14.5343 31.8019 13.1156 31.4329 11.7676H3.47754Z" fill="black"/>
<path d="M4.6853 4.68555C-1.56307 10.9339 -1.56307 21.0646 4.6853 27.313C7.26737 24.731 9.75068 22.2477 15.9991 15.9993L4.6853 4.68555Z" fill="#A2001D"/>
<path d="M6.4756 11.8262L7.51154 15.0147H10.8644L8.15204 16.9854L9.18791 20.1741L6.4756 18.2034L3.76316 20.1741L4.79929 16.9854L2.08691 15.0147H5.43954L6.4756 11.8262Z" fill="#FFDA44"/>
<path d="M3.44531 16H9.50931V18.7826H3.44531V16Z" fill="#F0F0F0"/>
<path d="M10.656 12.81L9.67223 11.8262L6.47548 15.0229L3.27873 11.8262L2.29492 12.81L5.49448 16.0039L2.29492 19.2036L3.27873 20.1741L6.47548 16.9831L9.67223 20.1741L10.656 19.2036L7.45648 16.0039L10.656 12.81Z" fill="black"/>
</g>
<defs>
<clipPath id="clip0_20142_72605">
<rect width="32" height="32" fill="white"/>
</clipPath>
</defs>
</svg>
