<svg width="32" height="32" viewBox="0 0 32 32" fill="none" xmlns="http://www.w3.org/2000/svg">
<g clip-path="url(#clip0_20142_72633)">
<path d="M16 32C24.8366 32 32 24.8366 32 16C32 7.16344 24.8366 0 16 0C7.16344 0 0 7.16344 0 16C0 24.8366 7.16344 32 16 32Z" fill="#F0F0F0"/>
<path d="M4.68634 27.3147C5.35752 27.9859 6.07365 28.5844 6.82484 29.1114L29.1104 6.82581C28.5835 6.07462 27.9849 5.3585 27.3136 4.68731C26.6425 4.01613 25.9263 3.41763 25.1751 2.89062L2.88965 25.1763C3.41659 25.9273 4.01515 26.6435 4.68634 27.3147V27.3147Z" fill="#A2001D"/>
<path d="M4.68766 4.68556C-0.360089 9.73331 -1.32909 17.3141 1.7786 23.3354L23.3375 1.77662C17.3161 -1.33107 9.73529 -0.361945 4.68766 4.68556V4.68556Z" fill="#0052B4"/>
<path d="M27.3149 27.3139C32.3625 22.2663 33.3315 14.6855 30.2239 8.66406L8.66504 30.2229C14.6864 33.3306 22.2672 32.3616 27.3149 27.3139Z" fill="#496E2D"/>
<path d="M13.2187 9.04308L11.4259 9.88639L12.3806 11.6228L10.4338 11.2504L10.187 13.217L8.83105 11.7705L7.47498 13.217L7.22836 11.2504L5.28148 11.6227L6.23617 9.88633L4.44336 9.04308L6.23623 8.1997L5.28148 6.46345L7.2283 6.83583L7.47505 4.86914L8.83105 6.31564L10.1871 4.86914L10.4338 6.83583L12.3806 6.46345L11.426 8.19977L13.2187 9.04308Z" fill="#FFDA44"/>
</g>
<defs>
<clipPath id="clip0_20142_72633">
<rect width="32" height="32" fill="white"/>
</clipPath>
</defs>
</svg>
