<svg width="32" height="32" viewBox="0 0 32 32" fill="none" xmlns="http://www.w3.org/2000/svg">
<path d="M1.58763 9.04366C0.5705 11.1472 0 13.507 0 16.0002C0 18.4933 0.5705 20.8532 1.58763 22.9567L16 24.348L30.4124 22.9567C31.4295 20.8532 32 18.4933 32 16.0002C32 13.507 31.4295 11.1472 30.4124 9.04366L16 7.65234L1.58763 9.04366Z" fill="#F0F0F0"/>
<path d="M1.58887 22.957C4.17674 28.309 9.6573 32.0005 16.0007 32.0005C22.3441 32.0005 27.8246 28.309 30.4125 22.957H1.58887Z" fill="#6DA544"/>
<path d="M1.58887 9.0435H30.4125C27.8246 3.69156 22.344 0 16.0007 0C9.65737 0 4.17674 3.69156 1.58887 9.0435Z" fill="#FF9811"/>
<path d="M15.9998 21.5659C19.0733 21.5659 21.5649 19.0743 21.5649 16.0007C21.5649 12.9272 19.0733 10.4355 15.9998 10.4355C12.9262 10.4355 10.4346 12.9272 10.4346 16.0007C10.4346 19.0743 12.9262 21.5659 15.9998 21.5659Z" fill="#FF9811"/>
</svg>
