<svg width="32" height="32" viewBox="0 0 32 32" fill="none" xmlns="http://www.w3.org/2000/svg">
<path d="M16 32C24.8366 32 32 24.8366 32 16C32 7.16344 24.8366 0 16 0C7.16344 0 0 7.16344 0 16C0 24.8366 7.16344 32 16 32Z" fill="#F0F0F0"/>
<path d="M15.9993 0C9.65591 0 4.17491 3.69156 1.58691 9.0435H30.4116C27.8237 3.69156 22.3426 0 15.9993 0V0Z" fill="#338AF3"/>
<path d="M15.9993 32.0005C22.3426 32.0005 27.8237 28.309 30.4117 22.957H1.58691C4.17491 28.309 9.65591 32.0005 15.9993 32.0005Z" fill="#338AF3"/>
<path d="M15.9994 11.1309C13.3101 11.1309 11.1299 13.311 11.1299 16.0004C11.1299 18.6898 13.3101 20.87 15.9994 20.87C18.6888 20.87 20.869 18.6898 20.869 16.0004C20.869 13.311 18.6888 11.1309 15.9994 11.1309ZM15.9994 18.783C14.4627 18.783 13.2168 17.5373 13.2168 16.0004C13.2168 14.4635 14.4626 13.2178 15.9994 13.2178C17.5363 13.2178 18.7821 14.4635 18.7821 16.0004C18.7821 17.5373 17.5362 18.783 15.9994 18.783Z" fill="#FFDA44"/>
<path d="M18.4101 16.6956L16.0002 16L13.5904 16.6956L12.7871 18.0869H19.2133L18.4101 16.6956Z" fill="#0052B4"/>
<path d="M16.0001 12.5215L14.3936 15.3041L16.0001 15.9997L17.6067 15.3041L16.0001 12.5215Z" fill="#338AF3"/>
<path d="M13.5908 16.6959H18.4106L17.6072 15.3047H14.3941L13.5908 16.6959Z" fill="#6DA544"/>
</svg>
