<svg width="32" height="32" viewBox="0 0 32 32" fill="none" xmlns="http://www.w3.org/2000/svg">
<g clip-path="url(#clip0_20142_72530)">
<path d="M16 32C24.8366 32 32 24.8366 32 16C32 7.16344 24.8366 0 16 0C7.16344 0 0 7.16344 0 16C0 24.8366 7.16344 32 16 32Z" fill="#F0F0F0"/>
<path d="M31.9056 17.7399C31.9056 17.7398 31.9057 17.7397 31.9057 17.7394L14.3591 0.0839844C13.5676 0.164672 12.793 0.303047 12.0398 0.494859C5.11862 2.25705 0 16.0008 0 16.0008C0 16.0008 22.3999 30.9905 24.9553 29.261C25.4666 28.915 25.9569 28.5402 26.4236 28.139L16.0247 17.7399H31.9056Z" fill="#0052B4"/>
<path d="M27.8261 16.0001L12.2653 0.439453C5.2305 2.12177 0 8.44964 0 16.0001C0 24.8366 7.1635 32.0001 16 32.0001C19.3518 32.0001 22.4623 30.9688 25.0331 29.2071L11.8261 16.0001H27.8261Z" fill="#D80027"/>
<path d="M15.2168 23.6235L13.2627 22.7043L14.3033 20.8119L12.1814 21.2178L11.9125 19.0742L10.4346 20.6508L8.95666 19.0742L8.68772 21.2178L6.56591 20.8118L7.60647 22.7043L5.65234 23.6235L7.60647 24.5425L6.56591 26.435L8.68784 26.0292L8.95659 28.1727L10.4346 26.5961L11.9125 28.1727L12.1814 26.0292L14.3032 26.4351L13.2627 24.5427L15.2168 23.6235Z" fill="#F0F0F0"/>
<path d="M13.9126 8.8732L12.4914 8.20477L13.2482 6.82833L11.7049 7.12358L11.5093 5.56445L10.4344 6.71114L9.35943 5.56445L9.16381 7.12358L7.62049 6.82833L8.37737 8.20477L6.95605 8.8732L10.4344 9.56895L13.9126 8.8732Z" fill="#F0F0F0"/>
<path d="M14.6076 8.87305C14.6076 11.1782 12.7389 13.047 10.4337 13.047C8.12852 13.047 6.25977 11.1782 6.25977 8.87305" fill="#F0F0F0"/>
</g>
<defs>
<clipPath id="clip0_20142_72530">
<rect width="32" height="32" fill="white"/>
</clipPath>
</defs>
</svg>
