<svg width="32" height="32" viewBox="0 0 32 32" fill="none" xmlns="http://www.w3.org/2000/svg">
<path d="M32 16C32 24.8365 24.8365 32 16 32C7.1635 32 0 24.8365 0 16C0 16.0038 16 0.00175 16 0C24.8365 0 32 7.1635 32 16Z" fill="#0052B4"/>
<path d="M15.958 15.9998H16.0008C16.0008 15.9855 16.0008 15.9715 16.0008 15.957C15.9866 15.9713 15.9723 15.9856 15.958 15.9998Z" fill="#F0F0F0"/>
<path d="M16 8.34781C16 5.5325 16 3.68781 16 0H15.9973C7.162 0.0015 0 7.16431 0 16H8.34781V11.2993L13.0486 16H15.9572C15.9715 15.9857 15.9858 15.9715 16.0001 15.9572C16.0001 14.8793 16.0001 13.9174 16.0001 13.0486L11.2992 8.34781H16Z" fill="#F0F0F0"/>
<path d="M8.09466 2.08594C5.59223 3.51087 3.51185 5.59125 2.08691 8.09369V15.999H6.26085V6.26V6.25988H16C16 4.94344 16 3.68931 16 2.08594H8.09466Z" fill="#D80027"/>
<path d="M15.9988 14.0322L10.3142 8.34766C10.3142 8.34766 8.34668 8.34778 8.34668 8.34766V8.34778L15.9987 15.9998H15.9988C15.9988 15.9998 15.9988 14.6431 15.9988 14.0322Z" fill="#D80027"/>
<path d="M27.7081 11.8711L28.0534 12.934H29.171L28.2669 13.5908L28.6122 14.6537L27.7081 13.9968L26.8039 14.6537L27.1493 13.5908L26.2451 12.934H27.3627L27.7081 11.8711Z" fill="#D80027"/>
<path d="M23.7129 19.5234L24.231 21.1178H25.9073L24.5511 22.1031L25.0692 23.6974L23.7129 22.7121L22.3567 23.6974L22.8748 22.1031L21.5186 21.1178H23.1949L23.7129 19.5234Z" fill="#D80027"/>
<path d="M23.8637 7.00195L24.2955 8.33064H25.6924L24.5622 9.15157L24.9939 10.4802L23.8637 9.65901L22.7336 10.4802L23.1653 9.15157L22.0352 8.33064H23.432L23.8637 7.00195Z" fill="#D80027"/>
<path d="M20.0205 11.8242L20.5385 13.4186H22.2149L20.8587 14.4038L21.3768 15.9981L20.0205 15.0128L18.6643 15.9981L19.1824 14.4038L17.8262 13.4186H19.5025L20.0205 11.8242Z" fill="#D80027"/>
</svg>
