<svg width="32" height="32" viewBox="0 0 32 32" fill="none" xmlns="http://www.w3.org/2000/svg">
<g clip-path="url(#clip0_20142_72560)">
<path d="M16 32C24.8366 32 32 24.8366 32 16C32 7.16344 24.8366 0 16 0C7.16344 0 0 7.16344 0 16C0 24.8366 7.16344 32 16 32Z" fill="#F0F0F0"/>
<path d="M0 15.9999C0 22.0646 3.37438 27.3408 8.34781 30.0544V1.94531C3.37438 4.65894 0 9.93519 0 15.9999Z" fill="#D80027"/>
<path d="M31.0049 21.5659C31.648 19.8326 32 17.9579 32 16.0007C32 14.0436 31.648 12.1688 31.0049 10.4355H0.99525C0.352062 12.1688 0 14.0436 0 16.0007C0 17.9579 0.352062 19.8326 0.99525 21.5659L16 22.9572L31.0049 21.5659Z" fill="#D80027"/>
<path d="M15.9999 31.9993C22.8794 31.9993 28.744 27.6573 31.0047 21.5645H0.995117C3.25574 27.6573 9.12049 31.9993 15.9999 31.9993V31.9993Z" fill="#6DA544"/>
<path d="M0 15.9996C0 23.392 5.01381 29.6124 11.8261 31.4484V0.550781C5.01381 2.38678 0 8.60716 0 15.9996Z" fill="#D80027"/>
<path d="M9.78911 7.04014L8.31342 5.56445L7.32968 6.54833L6.34593 5.56445L4.87024 7.04014L5.85405 8.02395L4.87012 9.00783L6.3458 10.4835L7.32961 9.49964L8.31342 10.4835L9.78911 9.00783L8.8053 8.02395L9.78911 7.04014Z" fill="#F0F0F0"/>
</g>
<defs>
<clipPath id="clip0_20142_72560">
<rect width="32" height="32" fill="white"/>
</clipPath>
</defs>
</svg>
