<svg width="32" height="32" viewBox="0 0 32 32" fill="none" xmlns="http://www.w3.org/2000/svg">
<path d="M16 32C24.8366 32 32 24.8366 32 16C32 7.16344 24.8366 0 16 0C7.16344 0 0 7.16344 0 16C0 24.8366 7.16344 32 16 32Z" fill="#F0F0F0"/>
<path d="M1.94531 8.34781H30.0544C27.3407 3.37431 22.0646 0 15.9999 0C9.93519 0 4.659 3.37431 1.94531 8.34781V8.34781Z" fill="#D80027"/>
<path d="M15.9999 32.0002C22.0646 32.0002 27.3407 28.6258 30.0544 23.6523H1.94531C4.659 28.6258 9.93519 32.0002 15.9999 32.0002Z" fill="#D80027"/>
<path d="M21.5649 16.0007C21.5649 19.0744 19.0733 20.8703 15.9998 20.8703C12.9262 20.8703 10.4346 19.0744 10.4346 16.0007C10.4346 12.9271 12.9262 10.4355 15.9998 10.4355C19.0733 10.4355 21.5649 12.9271 21.5649 16.0007Z" fill="#FFDA44"/>
<path d="M21.5649 16C21.5649 19.0736 19.0733 21.5652 15.9998 21.5652C12.9262 21.5652 10.4346 19.0736 10.4346 16" fill="#0052B4"/>
<path d="M12.5225 14.6094H13.9138V17.392H12.5225V14.6094Z" fill="#D80027"/>
<path d="M18.0879 14.6094H19.4792V17.392H18.0879V14.6094Z" fill="#D80027"/>
<path d="M15.3057 12.5215H16.697V17.391H15.3057V12.5215Z" fill="#D80027"/>
</svg>
