<svg width="32" height="32" viewBox="0 0 32 32" fill="none" xmlns="http://www.w3.org/2000/svg">
<g clip-path="url(#clip0_20142_72515)">
<path d="M27.3138 27.3137C21.0654 33.5621 10.9348 33.5621 4.68627 27.3137C-1.5621 21.0653 -1.5621 10.9346 4.68634 4.68618C10.9347 -1.56219 20.0815 -0.578378 26.3299 5.67006C32.5782 11.9184 33.5621 21.0653 27.3138 27.3137V27.3137Z" fill="black"/>
<path d="M4.68652 4.68623C10.9349 -1.56215 21.0655 -1.56202 27.314 4.68629C33.5623 10.9347 33.5623 21.0653 27.314 27.3137" fill="#A2001D"/>
<path d="M12.229 21.5664L12.488 22.3636H13.3262L12.6481 22.8562L12.9071 23.6534L12.229 23.1607L11.5509 23.6534L11.8099 22.8562L11.1318 22.3636H11.97L12.229 21.5664Z" fill="#F0F0F0"/>
<path d="M10.0874 13.9141L10.5192 15.2427H11.9161L10.7859 16.0637L11.2176 17.3924L10.0874 16.5712L8.95729 17.3924L9.38904 16.0637L8.25879 15.2427H9.65579L10.0874 13.9141Z" fill="#F0F0F0"/>
<path d="M10.0874 23.6543L10.5191 24.9829H11.9161L10.7858 25.8039L11.2176 27.1325L10.0874 26.3114L8.95729 27.1325L9.38891 25.8039L8.25879 24.9829H9.6556L10.0874 23.6543Z" fill="#F0F0F0"/>
<path d="M14.1733 17.3926L14.6051 18.7212H16.002L14.8718 19.5422L15.3035 20.8708L14.1733 20.0496L13.0432 20.8708L13.4749 19.5422L12.3447 18.7212H13.7417L14.1733 17.3926Z" fill="#F0F0F0"/>
<path d="M6.00343 17.3926L6.43524 18.7212H7.83205L6.70193 19.5422L7.13355 20.8708L6.00343 20.0496L4.87324 20.8708L5.30505 19.5422L4.1748 18.7212H5.57174L6.00343 17.3926Z" fill="#F0F0F0"/>
<path d="M26.7838 11.847C26.0688 11.132 25.1397 10.7095 24.1412 10.637L27.13 8.31239C25.9397 7.12208 24.3443 6.58452 22.7875 6.6982C22.6012 6.02845 22.2458 5.39583 21.7192 4.86914L20.5386 7.23027C20.4612 7.08914 20.3631 6.95633 20.2435 6.83677C19.5642 6.15758 18.4631 6.15758 17.784 6.83677C17.1048 7.51595 17.1047 8.61708 17.784 9.29627C17.9035 9.41583 18.0364 9.51389 18.1775 9.59139L15.8164 10.772C16.3432 11.2988 16.9763 11.6544 17.6464 11.8406C17.5323 13.3974 18.0693 14.9925 19.2597 16.1829L21.871 12.8255C22.0674 12.6321 22.3268 12.5253 22.6028 12.5253C22.8816 12.5253 23.1436 12.6338 23.3407 12.831C23.5378 13.028 23.6463 13.2901 23.6463 13.5688C23.6463 13.8475 23.5378 14.1095 23.3407 14.3066L24.3245 15.2905C24.7843 14.8306 25.0377 14.2192 25.0377 13.5688C25.0377 13.0367 24.8679 12.5308 24.5545 12.1126C25.0112 12.2345 25.4427 12.4734 25.8002 12.831C26.8852 13.9159 26.8852 15.6813 25.8002 16.7661L26.7841 17.75C27.5724 16.9616 28.0066 15.9135 28.0066 14.7986C28.0064 13.6835 27.5722 12.6354 26.7838 11.847V11.847Z" fill="#FFDA44"/>
</g>
<defs>
<clipPath id="clip0_20142_72515">
<rect width="32" height="32" fill="white"/>
</clipPath>
</defs>
</svg>
