<svg width="32" height="32" viewBox="0 0 32 32" fill="none" xmlns="http://www.w3.org/2000/svg">
<path d="M16 32C24.8366 32 32 24.8366 32 16C32 7.16344 24.8366 0 16 0C7.16344 0 0 7.16344 0 16C0 24.8366 7.16344 32 16 32Z" fill="#F0F0F0"/>
<path d="M15.9993 0V16L4.68555 27.3137C7.58098 30.2091 11.581 32 15.9993 32C24.8358 32 31.9993 24.8365 31.9993 16C31.9993 7.1635 15.9993 0 15.9993 0Z" fill="#D80027"/>
<path d="M15.9993 0C11.581 0 7.58098 1.79088 4.68555 4.68625C8.61117 8.61188 10.0047 10.0055 15.9993 16H31.9993C31.9993 7.1635 24.8358 0 15.9993 0Z" fill="#0052B4"/>
<path d="M10.955 16.0004L9.001 15.0812L10.0416 13.1888L7.91969 13.5947L7.65081 11.4512L6.17281 13.0277L4.69487 11.4512L4.42594 13.5947L2.30412 13.1887L3.34469 15.0812L1.39062 16.0004L3.34469 16.9195L2.30412 18.8119L4.42613 18.4061L4.69481 20.5496L6.17281 18.9731L7.65081 20.5496L7.91969 18.4061L10.0414 18.812L9.00094 16.9196L10.955 16.0004Z" fill="#FFDA44"/>
<path d="M4.26613 6.26172L4.91639 7.17065L5.9817 6.83322L5.31807 7.73247L5.96832 8.6414L4.90795 8.28821L4.24438 9.1874L4.2527 8.0699L3.19238 7.71665L4.25788 7.37922L4.26613 6.26172Z" fill="#FFDA44"/>
<path d="M4.26613 22.8145L4.91639 23.7234L5.9817 23.3859L5.31807 24.2852L5.96832 25.1941L4.90795 24.841L4.24438 25.7401L4.2527 24.6226L3.19238 24.2694L4.25788 23.932L4.26613 22.8145Z" fill="#FFDA44"/>
<path d="M13.5417 14.5391L12.8915 15.448L11.8262 15.1104L12.4898 16.0098L11.8395 16.9188L12.8999 16.5655L13.5635 17.4647L13.5552 16.3472L14.6155 15.994L13.55 15.6566L13.5417 14.5391Z" fill="#FFDA44"/>
</svg>
