<svg width="32" height="32" viewBox="0 0 32 32" fill="none" xmlns="http://www.w3.org/2000/svg">
<path d="M16 32C24.8366 32 32 24.8366 32 16C32 7.16344 24.8366 0 16 0C7.16344 0 0 7.16344 0 16C0 24.8366 7.16344 32 16 32Z" fill="#F0F0F0"/>
<path d="M0 15.9999C0 22.0646 3.37431 27.3407 8.34781 30.0544V1.94531C3.37431 4.659 0 9.93519 0 15.9999Z" fill="#F0F0F0"/>
<path d="M15.9989 0C13.227 0 10.6199 0.705188 8.34668 1.94544V30.0545C10.6199 31.2948 13.227 32 15.9989 32C24.8354 32 31.9989 24.8365 31.9989 16C31.9989 7.1635 24.8354 0 15.9989 0Z" fill="#496E2D"/>
<path d="M22.8413 18.6466C20.8171 20.1092 17.9904 19.6539 16.5279 17.6298C15.0653 15.6055 15.5206 12.779 17.5448 11.3165C18.1759 10.8605 18.8851 10.5909 19.6065 10.4972C18.2186 10.2897 16.7514 10.6024 15.5241 11.4892C13.0328 13.2893 12.4724 16.7682 14.2724 19.2595C16.0725 21.7507 19.5514 22.3112 22.0428 20.511C23.2702 19.6242 24.0278 18.3296 24.2664 16.9465C23.951 17.6019 23.4725 18.1905 22.8413 18.6466V18.6466Z" fill="#F0F0F0"/>
<path d="M22.7555 10.4355L23.8958 11.6644L25.4168 10.9599L24.6003 12.4239L25.7405 13.6528L24.0958 13.3287L23.2794 14.7929L23.0793 13.1285L21.4346 12.8044L22.9556 12.0999L22.7555 10.4355Z" fill="#F0F0F0"/>
</svg>
