<svg width="32" height="32" viewBox="0 0 32 32" fill="none" xmlns="http://www.w3.org/2000/svg">
<path d="M12.3172 3.77821H6.93489V2.58789C6.52087 2.84666 6.1586 3.15717 5.74457 3.46769C4.86477 4.19223 4.03673 5.02028 3.36394 5.90008H4.81302V10.0921H0.983306C0.36227 11.7999 0 13.6113 0 15.5261C0 17.3375 0.310518 19.0971 0.8798 20.7014H12.2654V10.1438H6.93489V5.90008H12.3172V3.77821Z" fill="white"/>
<path d="M15.5261 0C14.4393 0 13.3524 0.103506 12.3174 0.310517V30.6895C13.3524 30.8965 14.4393 31 15.5261 31C24.117 31 31.0519 24.0651 31.0519 15.4741C31.0519 6.93489 24.117 0 15.5261 0Z" fill="#338AF3"/>
<path d="M30.7933 15.6812C30.7933 15.5777 30.9486 15.3189 31.0521 15.0602V14.5944C30.9486 14.8014 30.8451 14.9567 30.8451 15.0602C30.7416 15.3707 30.6381 15.1637 30.6381 14.2321C30.5863 13.5076 30.6381 12.7831 30.7416 12.1103C30.3793 10.4024 29.7065 8.79808 28.775 7.349C28.568 7.40075 28.4127 7.4525 28.4127 7.4525C28.4127 7.4525 28.5162 7.29724 28.6197 7.09023C28.568 7.03848 28.5162 6.93497 28.4645 6.88322C28.1539 7.29724 27.8434 7.65951 27.7917 7.65951C27.6882 7.71127 27.3259 7.81477 26.9119 7.97003L26.1873 8.28055L26.7566 7.76302C27.0671 7.50425 27.6364 6.93497 28.0504 6.5727L28.1539 6.4692C28.1022 6.41744 28.0504 6.36569 28.0504 6.31394L27.2741 7.03848C26.4461 7.81477 25.6181 8.53931 25.5145 8.59107C25.411 8.64282 25.2558 8.74633 25.2558 8.84983C25.204 9.00509 25.2558 9.2121 25.411 9.26385C25.5145 9.31561 25.4628 9.41911 25.1523 9.83314C24.7383 10.4024 24.376 11.0752 24.1172 11.748L23.9102 12.2655L23.8067 11.7997C23.6514 11.2305 23.4962 10.4024 23.4962 9.83314C23.4962 9.31561 23.4962 9.31561 23.8585 8.84983C24.2725 8.28055 25.2558 7.24549 25.7733 6.83147C25.9803 6.67621 26.3426 6.41744 26.6014 6.31394C27.1189 6.05517 27.2741 5.95167 27.2741 5.79641C27.2741 5.5894 27.1189 5.48589 26.8601 5.53764C26.7049 5.5894 26.1356 5.48589 25.1523 5.27888C24.3242 5.12362 23.6514 4.96836 23.5997 4.96836C23.5997 4.96836 23.6514 4.65784 23.755 4.34733C23.8585 3.9333 23.962 3.67454 24.0655 3.57103C24.2725 3.36402 24.2725 3.10526 24.0655 2.95C23.7549 2.63948 23.2374 2.89825 23.2892 3.36402L23.3409 3.57103L22.9269 3.62279C22.6681 3.67454 22.0989 3.77804 21.6848 3.88155C20.7533 4.14032 20.0805 4.19207 19.6147 3.98506C19.4595 3.9333 19.356 3.88155 19.356 3.88155V4.03681C19.356 4.29557 19.5112 4.55434 19.8217 4.7096L20.0805 4.86486L19.8735 4.91661C19.77 4.96836 19.4595 4.96836 19.2007 4.91661C18.9419 4.86486 18.7349 4.91661 18.7349 4.91661C18.7349 5.07187 19.0454 5.43414 19.2524 5.53764C19.7182 5.79641 20.6498 5.6929 21.7366 5.33063C22.2541 5.12362 22.9787 5.07187 22.9269 5.22713C22.9269 5.33063 21.9954 6.00342 20.391 7.14198C19.563 7.71127 19.4595 7.86653 19.563 8.12529C19.6147 8.28055 19.6147 8.3323 19.4077 8.64282C18.9937 9.36736 18.5797 10.6094 18.5797 11.2305C18.5797 11.541 18.5797 11.5927 18.1139 12.0585C17.2341 12.9901 15.4745 15.1637 15.1122 15.8365L15.0087 15.9917L14.9052 15.8365C14.6464 15.526 14.1289 15.6812 14.1289 16.0952C14.1289 16.354 14.2842 16.5093 14.5947 16.5093C14.7499 16.5093 15.1122 16.6645 15.6815 16.9233L16.5613 17.3373L16.3543 17.5961C16.0438 17.9583 15.992 18.2171 16.1473 18.4241C16.2508 18.5276 16.3025 18.5276 16.7166 18.5276C17.1306 18.5276 17.2341 18.5794 17.6999 18.7864C18.1656 18.9934 18.3209 19.1487 18.9937 19.8214C20.9603 21.8398 21.4778 22.3573 22.5646 23.0301C22.8751 23.1854 23.1339 23.2889 23.2374 23.2889C23.3409 23.2371 23.5479 23.0819 23.755 22.8749C24.6348 21.8398 25.3593 22.0986 27.0154 23.0301C27.8434 23.4959 28.1539 23.5994 28.2575 23.5994V23.4959C28.4645 22.5644 28.775 22.2538 29.4995 22.1503C29.9135 21.2705 30.2758 20.339 30.5346 19.3557H29.3443L28.6715 19.3039L28.7232 19.0969C28.775 18.7864 28.982 18.4241 29.2925 18.1136C29.4478 17.9583 29.5513 17.8031 29.603 17.8031C29.603 17.8031 29.81 17.9066 30.0688 18.0619C30.2758 18.2171 30.5346 18.3724 30.7416 18.4759C30.8451 17.9066 30.9486 17.2856 31.0004 16.7163C30.8451 16.3022 30.7416 15.8365 30.7933 15.6812ZM23.1857 6.36569C23.3409 5.74466 23.4962 5.17537 23.5479 5.17537C23.5997 5.17537 24.1172 5.27888 24.7383 5.43414C26.1356 5.6929 26.1356 5.74466 25.8768 5.79641C25.7733 5.84816 25.1005 6.00342 24.4277 6.21043L23.1339 6.5727L23.1857 6.36569ZM17.6481 17.1821H17.4411C17.1823 17.1303 15.2157 16.2505 15.2157 16.147C15.2157 15.8882 17.0788 13.5076 18.1656 12.369L18.5797 11.955V12.162C18.5797 12.2655 18.6314 12.576 18.6832 12.7831L18.7867 13.1971L18.2174 15.2154L17.6481 17.1821ZM19.7182 18.2171C19.6665 18.2171 19.3042 18.0619 18.9419 17.8031C18.5797 17.5961 18.1656 17.3891 18.0621 17.3373L17.8551 17.2856L18.3726 15.4742C18.6314 14.4909 18.8902 13.6629 18.8902 13.6629C18.9419 13.6629 18.9937 13.8181 19.0972 14.0251C19.2007 14.2839 19.2524 14.4909 19.2524 15.0602V15.733H19.6665V16.3023C19.6665 16.6128 19.7182 17.1303 19.8217 17.3891C19.9252 17.9066 19.9252 18.2171 19.7182 18.2171ZM20.5463 13.4041L20.3393 14.0251H19.8735C19.6147 14.0251 19.4077 14.0251 19.356 13.9734C19.2524 13.8699 19.356 13.4041 19.5112 13.1453C19.6665 12.8866 20.1322 12.6278 20.4428 12.6278C20.5463 12.6278 20.6498 12.6278 20.6498 12.6795C20.7533 12.7313 20.6498 13.0418 20.5463 13.4041ZM21.7883 14.0769H21.1673L21.2191 13.8699C21.2708 13.7664 21.3226 13.5593 21.3743 13.3523L21.4778 12.9901L21.6848 13.1453C21.8401 13.2488 21.9953 13.4558 22.1506 13.6111C22.2541 13.7664 22.3576 13.9216 22.3576 13.9734C22.3576 14.0251 22.0989 14.0769 21.7883 14.0769ZM21.9436 6.88322C21.6848 6.93497 21.2191 7.09023 20.9603 7.14198C20.7015 7.19374 20.5463 7.24549 20.5463 7.24549C20.598 7.19374 22.7199 5.64115 22.7716 5.64115V5.74466C22.7716 5.79641 22.6681 6.05517 22.6164 6.31394L22.4611 6.72796L21.9436 6.88322ZM24.4277 18.1654C23.8585 17.7513 23.2892 17.0268 22.9787 16.2505C22.7716 15.7847 22.7716 15.733 22.9269 15.733C23.0304 15.733 23.0304 15.5777 23.0304 14.9049V14.0769H22.8234C22.6681 14.0769 22.6164 14.0251 22.5646 13.8181C22.5129 13.6629 22.4611 13.1971 22.4611 12.6278C22.4611 11.6445 22.5646 11.2305 22.9787 10.2989C23.1857 9.78138 23.2892 9.83314 23.2892 10.3507C23.2892 10.7129 23.4444 11.4892 23.6514 12.0585C23.8067 12.4725 23.8067 12.576 23.755 12.8348C23.7032 12.9901 23.6514 13.4041 23.5997 13.8181C23.4962 15.0602 23.7032 16.2505 24.2207 17.3891C24.376 17.6996 24.5312 18.0618 24.5312 18.1654L24.583 18.3206L24.4277 18.1654ZM26.1356 16.8198C26.1356 16.8715 25.9803 17.2856 25.8251 17.7513C25.6698 18.2171 25.5145 18.6311 25.5145 18.6829C25.5145 18.7346 25.3593 18.6829 25.204 18.6311C24.997 18.5276 24.9453 18.4759 24.8418 18.1654C24.7383 17.8548 24.7383 17.8031 24.9453 17.5443C25.1523 17.1821 25.4628 16.9233 25.8251 16.8715C26.1356 16.7163 26.1356 16.7163 26.1356 16.8198ZM27.9469 19.3557C27.7399 19.3557 27.3259 19.2522 26.9636 19.2004L26.2908 19.0452L26.4461 18.5276C26.5496 18.2689 26.7049 17.7513 26.7566 17.4408C26.9119 16.8715 26.9636 16.8198 27.2224 16.9233C27.3259 16.975 27.3777 17.0785 27.4812 17.4926C27.5847 17.8548 27.7399 18.2689 27.9469 18.7346L28.3092 19.4074L27.9469 19.3557ZM29.0855 18.1654C28.9302 18.3724 28.7232 18.6311 28.6715 18.7864C28.6197 18.9416 28.568 19.0969 28.5162 19.1487C28.4127 19.3039 27.6364 17.5443 27.6364 17.1821C27.6364 17.0268 27.8952 17.1303 28.6715 17.4926L29.3443 17.8031L29.0855 18.1654Z" fill="#FFCE31"/>
<path d="M28.2573 23.5995V23.703C28.1538 23.703 27.8433 23.5995 27.0152 23.1337C25.3591 22.1504 24.6346 21.8916 23.7548 22.9784C23.5478 23.1855 23.3408 23.3407 23.2373 23.3925C23.1337 23.3407 22.875 23.289 22.5645 23.1337C22.461 23.0819 22.3057 23.0302 22.2022 22.9784C21.2189 22.4609 20.4943 22.3057 19.9251 22.4609C19.5628 22.5644 19.304 22.7714 19.1488 23.1337C19.0453 23.3407 18.9418 23.496 18.8383 23.496C18.5795 23.5477 17.6997 23.0302 17.3892 22.8232C16.1989 22.0986 15.4743 22.0469 14.3875 22.7714C14.1805 22.9267 13.9735 23.0302 13.87 23.0302C13.8182 23.0302 13.6112 22.9784 13.4042 22.9267C13.1454 22.8232 12.9384 22.7197 12.8867 22.6679C12.7832 22.4609 12.5761 22.3574 12.3691 22.4092L12.3174 22.4609V23.289C12.4726 23.4442 12.7314 23.5995 13.0937 23.703C13.9217 24.0135 14.1287 23.9617 14.905 23.4442C15.6296 22.9784 15.9918 22.9267 16.8716 23.496C17.8549 24.117 18.476 24.4275 19.0453 24.2723C19.511 24.1688 19.7698 23.7547 19.9251 23.4442C20.0286 23.289 20.0803 23.2372 20.1838 23.2372C20.3391 23.1855 20.7531 23.1854 21.7364 23.6512C21.8399 23.703 22.8232 24.2205 23.2373 24.2205C23.496 24.2205 23.8065 24.0135 24.0135 23.8582C24.2206 23.703 24.3758 23.5477 24.4276 23.496C24.8416 23.0302 24.9451 22.9267 26.5494 23.8582C27.2222 24.2723 27.7398 24.4793 28.1538 24.531C28.309 24.324 28.4643 24.117 28.6196 23.8582L28.7231 23.703C28.9301 23.3925 29.1371 23.0302 29.2923 22.6679L29.3441 22.5644C29.3958 22.4092 29.4994 22.3056 29.5511 22.1504C28.7748 22.3574 28.4643 22.6679 28.2573 23.5995Z" fill="#3E4347"/>
<path d="M12.1621 16.5635L12.3174 16.667V16.4082L12.1621 16.5635Z" fill="#3E4347"/>
<path d="M10.9199 16.5625L11.5927 16.7177L11.748 16.5625L11.5927 16.3555L10.9199 16.5625Z" fill="#3E4347"/>
<path d="M11.7998 16.1982L11.9551 16.3534L12.1621 16.1982L11.9551 15.5254L11.7998 16.1982Z" fill="#3E4347"/>
<path d="M12.3173 18.2176V17.3378L12.0068 16.7168H11.9033L11.2305 18.2176H11.6445L11.9033 18.5799H12.0068L12.2655 18.2176H12.3173Z" fill="#3E4347"/>
<path d="M8.02148 16.5625L8.17674 16.7177L8.84953 16.5625L8.17674 16.3555L8.02148 16.5625Z" fill="#3E4347"/>
<path d="M6.72754 16.5625L7.40033 16.7177L7.55559 16.5625L7.40033 16.3555L6.72754 16.5625Z" fill="#3E4347"/>
<path d="M7.6084 16.1982L7.76366 16.3534L7.97067 16.1982L7.76366 15.5254L7.6084 16.1982Z" fill="#3E4347"/>
<path d="M7.71087 16.7168L7.03809 18.2176H7.50386L7.71087 18.5799H7.81438L8.07314 18.2176H8.48717L7.81438 16.7168H7.71087Z" fill="#3E4347"/>
<path d="M3.83008 16.5625L3.98534 16.7177L4.65813 16.5625L3.98534 16.3555L3.83008 16.5625Z" fill="#3E4347"/>
<path d="M3.36418 16.5625L3.20892 16.3555L2.53613 16.5625L3.20892 16.7177L3.36418 16.5625Z" fill="#3E4347"/>
<path d="M3.41504 16.1982L3.62205 16.3534L3.77731 16.1982L3.62205 15.5254L3.41504 16.1982Z" fill="#3E4347"/>
<path d="M3.5185 16.7168L2.89746 18.2176H3.31148L3.5185 18.5799H3.67375L3.88077 18.2176H4.34654L3.67375 16.7168H3.5185Z" fill="#3E4347"/>
<path d="M11.9033 11.2313H12.0068L12.2655 10.8691H12.3173V10.1445H11.5927L11.2305 10.8691H11.6445L11.9033 11.2313Z" fill="#3E4347"/>
<path d="M7.71087 11.2313H7.81438L8.07314 10.8691H8.48717L8.17665 10.1445H7.40036L7.03809 10.8691H7.50386L7.71087 11.2313Z" fill="#3E4347"/>
<path d="M3.5185 11.2313H3.67375L3.88077 10.8691H4.34654L3.98427 10.1445H3.20798L2.89746 10.8691H3.31148L3.5185 11.2313Z" fill="#3E4347"/>
<path d="M2.53605 12.9394L1.86327 12.7324L1.70801 12.9394L1.86327 13.0947L2.53605 12.9394Z" fill="#3E4347"/>
<path d="M1.29387 12.9394L1.13861 12.7324L0.46582 12.9394L1.13861 13.0947L1.29387 12.9394Z" fill="#3E4347"/>
<path d="M1.70797 12.5771L1.50096 11.9043L1.3457 12.5771L1.50096 12.7323L1.70797 12.5771Z" fill="#3E4347"/>
<path d="M1.44916 13.0938L0.776367 14.5946H1.19039L1.44916 14.9569H1.55266L1.75967 14.5946H2.22545L1.55266 13.0938H1.44916Z" fill="#3E4347"/>
<path d="M6.72746 12.9394L6.05467 12.7324L5.89941 12.9394L6.05467 13.0947L6.72746 12.9394Z" fill="#3E4347"/>
<path d="M5.48527 12.9394L5.33001 12.7324L4.65723 12.9394L5.33001 13.0947L5.48527 12.9394Z" fill="#3E4347"/>
<path d="M5.8486 12.5771L5.69334 11.9043L5.53809 12.5771L5.69334 12.7323L5.8486 12.5771Z" fill="#3E4347"/>
<path d="M5.64056 13.0938L4.96777 14.5946H5.3818L5.64056 14.9569H5.74407L5.95108 14.5946H6.41685L5.74407 13.0938H5.64056Z" fill="#3E4347"/>
<path d="M10.9198 12.9394L10.2471 12.7324L10.0918 12.9394L10.2471 13.0947L10.9198 12.9394Z" fill="#3E4347"/>
<path d="M9.67766 12.9394L9.5224 12.7324L8.84961 12.9394L9.5224 13.0947L9.67766 12.9394Z" fill="#3E4347"/>
<path d="M10.041 12.5771L9.88572 11.9043L9.67871 12.5771L9.88572 12.7323L10.041 12.5771Z" fill="#3E4347"/>
<path d="M9.83392 13.0938L9.16113 14.5946H9.57516L9.83392 14.9569H9.93743L10.1444 14.5946H10.6102L9.93743 13.0938H9.83392Z" fill="#3E4347"/>
<path d="M5.89941 20.4433L6.05467 20.5986L6.72746 20.4433L6.05467 20.2363L5.89941 20.4433Z" fill="#3E4347"/>
<path d="M4.65723 20.4433L5.33001 20.5986L5.48527 20.4433L5.33001 20.2363L4.65723 20.4433Z" fill="#3E4347"/>
<path d="M5.53809 20.081L5.69334 20.2362L5.8486 20.081L5.69334 19.4082L5.53809 20.081Z" fill="#3E4347"/>
<path d="M10.0918 20.4433L10.2471 20.5986L10.9198 20.4433L10.2471 20.2363L10.0918 20.4433Z" fill="#3E4347"/>
<path d="M8.84961 20.4433L9.5224 20.5986L9.67766 20.4433L9.5224 20.2363L8.84961 20.4433Z" fill="#3E4347"/>
<path d="M9.67871 20.081L9.88572 20.2362L10.041 20.081L9.88572 19.4082L9.67871 20.081Z" fill="#3E4347"/>
<path d="M10.7125 10.1442L6.93457 7.03906V10.1442H12.3169H11.5923H10.7125Z" fill="#ED4C5C"/>
<path d="M8.74609 3.77902H12.317V0.880859L8.74609 3.77902Z" fill="#ED4C5C"/>
<path d="M8.74609 5.90039L12.317 8.79855V9.52309V5.90039H8.74609Z" fill="#ED4C5C"/>
<path d="M0.983398 10.0935V10.1452H4.76136V6.98828L0.983398 10.0935Z" fill="#ED4C5C"/>
<path d="M12.3169 9.52505V8.80051L8.74592 5.90234H6.93457V7.04091L10.7125 10.1461H12.3169V9.99082V9.52505Z" fill="#699635"/>
<path d="M12.3169 0.571265V0.3125C10.5055 0.67477 8.74592 1.39931 7.24509 2.38262C7.14158 2.43437 7.03808 2.48612 6.93457 2.58963V3.77995H8.74592L12.3169 0.881782V0.571265Z" fill="#699635"/>
<path d="M3.36403 5.90234C2.38073 7.14441 1.55268 8.54174 0.983398 10.0943L4.76136 6.98916V5.90234H3.36403Z" fill="#699635"/>
<path d="M26.5494 23.9091C24.9451 22.9776 24.8416 23.0811 24.4276 23.5468C24.3758 23.5986 24.2206 23.7538 24.0135 23.9091C23.8065 24.1161 23.496 24.2714 23.2373 24.2714C22.8232 24.2714 21.8399 23.7538 21.7364 23.7021C20.7531 23.1846 20.3391 23.2363 20.1838 23.2881C20.1321 23.2881 20.0286 23.3398 19.9251 23.4951C19.7698 23.8056 19.511 24.2196 19.0453 24.3231C18.476 24.4784 17.8549 24.1679 16.8716 23.5468C15.9401 22.9776 15.5778 23.0293 14.905 23.4951C14.1287 24.0126 13.9217 24.0126 13.0937 23.7538C12.7314 23.6503 12.4726 23.4951 12.3174 23.3398V23.5986C12.4726 23.8056 12.7832 24.0126 13.2489 24.1679C14.077 24.4784 14.284 24.4266 15.0603 23.9091C15.7848 23.4433 16.1471 23.3916 17.0269 23.9609C18.0102 24.5819 18.6312 24.8924 19.2005 24.7372C19.6663 24.6336 19.9251 24.2196 20.0803 23.9091C20.1838 23.7538 20.2356 23.7021 20.3391 23.7021C20.4943 23.6503 20.9084 23.6503 21.8917 24.1161C21.9952 24.1679 22.9785 24.6854 23.3925 24.6854C23.7548 24.6854 24.1688 24.3231 24.4276 24.0644L24.5828 23.9091C24.9968 23.4433 25.1004 23.3398 26.7047 24.2714C27.1705 24.5301 27.5845 24.7372 27.895 24.8924C27.9985 24.7889 28.0503 24.6854 28.1538 24.5819C27.7398 24.5301 27.2222 24.2714 26.5494 23.9091Z" fill="white"/>
<path d="M15.8884 25.7201C16.3024 25.6684 16.6129 25.7201 17.1822 26.0824C18.3208 26.7034 18.7866 26.7552 19.5111 26.2894C20.3909 25.7719 20.7532 25.6684 21.4777 25.8236C21.9952 25.9271 22.047 25.9271 21.84 25.7201C21.3742 25.3061 20.4944 25.3061 19.7181 25.7201C18.7866 26.1859 18.3725 26.1859 17.3375 25.7201C16.4059 25.3061 16.0954 25.2543 15.6296 25.5649C15.3191 25.7719 15.3709 25.7719 15.8884 25.7201Z" fill="white"/>
<path d="M24.7907 26.1357C24.0661 25.9805 23.9626 26.084 24.6354 26.4462C25.1529 26.705 25.6705 26.7568 26.4985 26.5497C26.7055 26.3427 26.9125 26.084 27.1196 25.877C26.0845 26.1875 25.36 26.291 24.7907 26.1357Z" fill="white"/>
<path d="M23.4964 27.8947C22.7201 28.5158 22.2543 28.5158 21.4263 27.9465C20.7017 27.429 20.1842 27.429 19.2526 27.8947C18.6833 28.1535 18.5798 28.257 18.7869 28.3088C18.9421 28.3605 19.2526 28.3088 19.5631 28.2052C20.2877 27.8947 20.65 27.8947 21.5298 28.464C21.9955 28.7228 22.4096 28.9815 22.5131 28.9815C22.6166 28.9815 22.9271 28.7745 23.2894 28.5675C24.0139 28.1017 24.3762 27.8947 24.8419 27.9465C24.9972 27.843 25.1007 27.7395 25.256 27.636C24.4279 27.2737 24.1692 27.3254 23.4964 27.8947Z" fill="white"/>
<path d="M20.4943 29.6032C19.8733 29.1375 19.2523 29.1375 18.3207 29.6032C17.4409 30.0173 17.1821 30.0172 16.0953 29.241C15.2155 28.6199 15.1638 28.6199 14.6462 28.8269C14.4392 28.9304 14.2322 29.0857 14.1287 29.241C13.9217 29.4997 13.9735 29.4997 14.2322 29.3962C14.6462 29.1892 15.319 29.1892 15.4743 29.3962C15.526 29.4997 15.8883 29.7585 16.2506 29.9655C17.0786 30.483 17.8032 30.5348 18.6312 30.0172C19.304 29.655 19.718 29.6032 20.6496 29.9137C20.9083 29.9655 20.8566 29.9137 20.4943 29.6032Z" fill="white"/>
<path d="M9.62585 29.7586C9.47059 29.7068 9.52234 29.5516 9.62585 29.5516C9.78111 29.4998 9.93637 29.6551 10.3504 29.6551C10.4539 29.6551 10.5574 29.6551 10.5574 29.4481C10.5574 29.1893 10.3504 28.9823 9.62585 29.0858C9.05657 29.1893 8.59079 29.1893 8.28027 29.1376V29.3963C8.6943 29.6033 9.05657 29.8104 9.47059 29.9656C9.52234 29.8104 9.5741 29.7586 9.62585 29.7586Z" fill="#ED4C5C"/>
<path d="M0.878906 20.7012C1.24118 21.6327 1.6552 22.5643 2.17273 23.4441C2.43149 23.7028 3.82882 25.2554 3.46655 25.3589C4.34635 26.394 5.32966 27.3255 6.41647 28.1536C6.51997 28.1536 10.1944 30.0167 10.0909 30.1202C10.8155 30.379 11.54 30.586 12.3163 30.7412V20.7012H0.878906Z" fill="#ED4C5C"/>
<path d="M11.1261 24.1174C11.0743 24.0139 11.0226 23.9622 10.8673 24.0139C10.4533 24.1174 9.31475 24.0657 8.95248 23.8587C9.52176 24.0657 10.1945 23.6516 10.1945 23.2894C10.1945 22.8754 9.67702 22.5648 8.53845 22.7718C7.45164 22.9789 6.10607 22.8754 6.10607 22.5648C6.10607 22.2543 7.08937 22.2026 7.55515 22.2543C8.07268 22.3061 8.3832 22.3578 9.31475 22.0991C9.10774 22.1508 8.33144 22.2026 7.76216 22.0473C7.19288 21.892 5.7438 21.892 5.7438 22.5648C5.7438 23.2376 7.24463 23.1859 8.59021 23.0306C9.3665 22.9271 9.78052 22.9789 9.78052 23.2376C9.78052 23.4446 9.05598 23.5481 8.53845 23.4964C8.02093 23.4446 7.45164 23.4446 6.77886 23.5999C5.64029 23.9104 4.29472 23.7034 3.9842 23.1859C3.9842 23.1341 4.03595 23.0824 4.03595 22.9789C4.13946 22.9271 4.19121 22.7718 4.24296 22.6683C4.29472 22.4096 4.19121 22.4096 3.88069 22.5131C3.77719 22.4096 3.57018 22.3578 3.25966 22.3578C2.94914 22.3578 2.79388 22.4096 2.63862 22.5131C2.32811 22.4096 2.2246 22.4096 2.27635 22.6683C2.32811 22.7718 2.37986 22.9271 2.48336 22.9789C2.48336 23.3411 2.94914 23.9104 2.94914 23.9104C2.69038 23.9104 2.37986 23.7034 2.12109 23.4446C2.37986 23.8587 2.58687 24.2209 2.89739 24.5832C3.00089 24.6867 3.05265 24.7385 3.1044 24.842C3.2079 24.9972 3.36316 25.1525 3.46667 25.3077C3.82894 25.256 4.13946 25.1007 4.50173 24.842C4.70874 24.842 6.10607 24.7902 6.67535 24.5314C7.03762 24.8937 7.08937 24.842 7.39989 24.8937C7.71041 24.9455 7.91742 24.9455 7.71041 25.1007C7.65866 25.1525 7.29639 25.1525 7.08937 25.1525C6.52009 25.1525 6.26133 24.842 6.10607 24.9972C6.00256 25.1525 6.10607 25.2042 6.31308 25.2042C6.15782 25.2042 5.95081 25.2042 6.00256 25.3595C6.05432 25.6183 6.36483 25.3077 6.46834 25.4112C6.36483 25.4112 6.20957 25.463 6.20957 25.5148C6.20957 25.6183 6.41658 25.7218 6.67535 25.5148C6.83061 25.4112 6.98587 25.4112 7.08937 25.4112C7.45164 25.4112 8.33144 25.5665 8.64196 25.3077C8.74547 25.2042 8.59021 25.1007 8.4867 24.9972C8.3832 24.8937 8.33144 24.7902 8.3832 24.5314C8.69371 24.5832 9.10774 24.5832 9.72877 24.4797C10.4533 24.3762 10.6603 24.5832 10.6603 24.842C10.6603 25.049 10.5051 25.049 10.4533 25.049C10.0393 25.049 9.88403 24.9455 9.72877 24.9455C9.62527 24.9972 9.57351 25.1007 9.72877 25.1525C9.62527 25.2042 9.62527 25.3077 9.67702 25.3595C9.72877 25.4112 9.88403 25.3595 10.0393 25.3077C9.88403 25.3595 9.72877 25.463 9.83228 25.5665C9.88403 25.6183 9.98754 25.67 10.1428 25.5665C10.2463 25.4112 10.5051 25.3595 10.6086 25.3077C11.0743 25.4112 11.3331 24.635 11.1261 24.1174Z" fill="#FFE62E"/>
<path d="M11.1264 28.5686C11.0747 28.4651 11.0229 28.4133 10.8677 28.4651C10.4537 28.5686 9.31509 28.5168 8.95282 28.3098C9.5221 28.5168 10.1949 28.1028 10.1949 27.7405C10.1949 27.3265 9.67736 27.016 8.5388 27.223C7.45199 27.43 6.10641 27.3265 6.10641 27.016C6.10641 26.7055 7.08972 26.6537 7.55549 26.7055C8.07302 26.7572 8.38354 26.809 9.31509 26.5502C9.10808 26.6537 8.33179 26.6537 7.7625 26.4985C7.19322 26.3432 5.74414 26.3432 5.74414 27.016C5.74414 27.6888 7.24498 27.637 8.59055 27.4818C9.36684 27.3783 9.78087 27.43 9.78087 27.6888C9.78087 27.8958 9.05633 27.9993 8.5388 27.9476C8.02127 27.8958 7.45199 27.8958 6.7792 28.0511C6.67569 28.1028 6.52043 28.1028 6.41693 28.1546C7.03796 28.5686 7.659 28.9826 8.33179 29.3449V29.0861C8.6423 29.1379 9.05633 29.1379 9.67736 29.0344C10.4019 28.9309 10.6089 29.1379 10.6089 29.3966C10.6089 29.6037 10.4537 29.6037 10.4019 29.6037C9.98788 29.6037 9.83262 29.5001 9.67736 29.5001C9.57386 29.5519 9.5221 29.6554 9.67736 29.7072C9.62561 29.7589 9.57386 29.7589 9.57386 29.8107C9.62561 29.8624 9.72912 29.8624 9.78087 29.9142H9.83262C9.93613 29.9659 10.0396 30.0177 10.1431 30.0177C10.2466 29.9142 10.4537 29.8624 10.5572 29.8624C11.0747 29.8624 11.3335 29.0861 11.1264 28.5686Z" fill="#FFE62E"/>
</svg>
