<svg width="32" height="32" viewBox="0 0 32 32" fill="none" xmlns="http://www.w3.org/2000/svg">
<path d="M32 16C32 24.8365 24.8365 32 16 32C7.1635 32 0 24.8365 0 16C0 16.0038 16 0.00175 16 0C24.8365 0 32 7.1635 32 16Z" fill="#0052B4"/>
<path d="M15.958 15.9998H16.0008C16.0008 15.9855 16.0008 15.9715 16.0008 15.957C15.9866 15.9713 15.9723 15.9856 15.958 15.9998Z" fill="#F0F0F0"/>
<path d="M16 8.34781C16 5.5325 16 3.68781 16 0H15.9973C7.16194 0.0015 0 7.16431 0 16H8.34781V11.2993L13.0485 16H15.9572C15.9715 15.9857 15.9858 15.9715 16.0001 15.9572C16.0001 14.8793 16.0001 13.9174 16.0001 13.0486L11.2992 8.34781H16Z" fill="#F0F0F0"/>
<path d="M8.09466 2.08594C5.59223 3.51087 3.51179 5.59125 2.08691 8.09369V15.999H6.26085V6.26V6.25988H16C16 4.94344 16 3.68931 16 2.08594H8.09466Z" fill="#D80027"/>
<path d="M15.9998 14.0322L10.3152 8.34766H8.34766V8.34778L15.9997 15.9998H15.9998C15.9998 15.9998 15.9998 14.6431 15.9998 14.0322V14.0322Z" fill="#D80027"/>
<path d="M25.0434 9.73997L22.9564 10.4357L20.8695 9.73997L20.1738 8.00085L20.8695 6.26172H25.0434L24.3477 8.00085L25.0434 9.73997Z" fill="#ACABB1"/>
<path d="M18.0869 9.73828V17.3904C18.0869 21.1179 22.9565 22.26 22.9565 22.26C22.9565 22.26 27.826 21.1179 27.826 17.3904V9.73828H18.0869Z" fill="#338AF3"/>
<path d="M18.5264 19.2042C19.7234 21.5022 22.957 22.2609 22.957 22.2609C22.957 22.2609 26.1906 21.5022 27.3876 19.2042L22.957 11.8262L18.5264 19.2042Z" fill="#6DA544"/>
<path d="M27.826 17.3131L22.9565 9.73828L18.0869 17.3131V17.3904C18.0869 18.0803 18.254 18.6814 18.5259 19.2033L22.9565 12.3111L27.3871 19.2032C27.6589 18.6813 27.826 18.0802 27.826 17.3903V17.3131Z" fill="#FFDA44"/>
</svg>
