<svg width="32" height="32" viewBox="0 0 32 32" fill="none" xmlns="http://www.w3.org/2000/svg">
<g clip-path="url(#clip0_20142_72636)">
<path d="M16 32C24.8366 32 32 24.8366 32 16C32 7.16344 24.8366 0 16 0C7.16344 0 0 7.16344 0 16C0 24.8366 7.16344 32 16 32Z" fill="#F0F0F0"/>
<path d="M9.73981 10.4348H31.0054C28.7448 4.342 22.8801 0 16.0007 0C11.5823 0 7.58275 1.79119 4.6875 4.68681L9.73981 10.4348Z" fill="black"/>
<path d="M9.73981 21.5645H31.0054C28.7448 27.6573 22.8801 31.9993 16.0007 31.9993C11.5823 31.9993 7.58275 30.2081 4.6875 27.3125L9.73981 21.5645Z" fill="#6DA544"/>
<path d="M4.6853 4.68555C-1.56307 10.9339 -1.56307 21.0646 4.6853 27.313C7.26737 24.731 9.75068 22.2477 15.9991 15.9993L4.6853 4.68555Z" fill="#D80027"/>
</g>
<defs>
<clipPath id="clip0_20142_72636">
<rect width="32" height="32" fill="white"/>
</clipPath>
</defs>
</svg>
