<svg width="32" height="32" viewBox="0 0 32 32" fill="none" xmlns="http://www.w3.org/2000/svg">
<g clip-path="url(#clip0_20142_72598)">
<path d="M0 15.999C0 22.8783 4.342 28.743 10.4347 31.0037L11.8261 15.9989L10.4347 0.994141C4.342 3.25489 0 9.11952 0 15.999Z" fill="#6DA544"/>
<path d="M32.0018 16C32.0018 7.1635 24.8383 0 16.0018 0C14.0447 0 12.1699 0.352063 10.4365 0.995188V31.0048C12.1699 31.648 14.0447 32 16.0018 32C24.8383 32 32.0018 24.8365 32.0018 16Z" fill="#D80027"/>
<path d="M10.4343 21.5659C13.5079 21.5659 15.9995 19.0743 15.9995 16.0007C15.9995 12.9272 13.5079 10.4355 10.4343 10.4355C7.36076 10.4355 4.86914 12.9272 4.86914 16.0007C4.86914 19.0743 7.36076 21.5659 10.4343 21.5659Z" fill="#FFDA44"/>
<path d="M7.30371 13.2168V16.695C7.30371 18.4239 8.70521 19.8255 10.4341 19.8255C12.1631 19.8255 13.5646 18.424 13.5646 16.695V13.2168H7.30371Z" fill="#D80027"/>
<path d="M10.4341 17.7394C9.85875 17.7394 9.39062 17.2713 9.39062 16.6959V15.3047H11.4776V16.696C11.4776 17.2713 11.0094 17.7394 10.4341 17.7394Z" fill="#F0F0F0"/>
</g>
<defs>
<clipPath id="clip0_20142_72598">
<rect width="32" height="32" fill="white"/>
</clipPath>
</defs>
</svg>
