<svg width="32" height="32" viewBox="0 0 32 32" fill="none" xmlns="http://www.w3.org/2000/svg">
<g clip-path="url(#clip0_20142_72529)">
<path d="M16 32C24.8366 32 32 24.8366 32 16C32 7.16344 24.8366 0 16 0C7.16344 0 0 7.16344 0 16C0 24.8366 7.16344 32 16 32Z" fill="#F0F0F0"/>
<path d="M15.9993 0C9.65591 0 4.17491 3.69156 1.58691 9.0435H30.4116C27.8237 3.69156 22.3426 0 15.9993 0V0Z" fill="#D80027"/>
<path d="M15.9993 32.0005C22.3426 32.0005 27.8237 28.309 30.4117 22.957H1.58691C4.17491 28.309 9.65591 32.0005 15.9993 32.0005Z" fill="#0052B4"/>
<path d="M19.9359 11.3691L18.4602 12.8448C19.0896 13.4743 19.479 14.3438 19.479 15.3043C19.479 17.2253 17.9217 18.7826 16.0007 18.7826C14.0798 18.7826 12.5225 17.2253 12.5225 15.3043C12.5225 14.3438 12.9119 13.4743 13.5413 12.8448L12.0656 11.3691C11.0584 12.3761 10.4355 13.7675 10.4355 15.3043C10.4355 18.378 12.9272 20.8695 16.0007 20.8695C19.0743 20.8695 21.5659 18.3779 21.5659 15.3043C21.5659 13.7675 20.943 12.3761 19.9359 11.3691V11.3691Z" fill="#6DA544"/>
<path d="M15.9991 13.2168L16.5171 14.8112H18.1935L16.8373 15.7964L17.3553 17.3907L15.9991 16.4054L14.6428 17.3907L15.1609 15.7964L13.8047 14.8112H15.481L15.9991 13.2168Z" fill="#FFDA44"/>
</g>
<defs>
<clipPath id="clip0_20142_72529">
<rect width="32" height="32" fill="white"/>
</clipPath>
</defs>
</svg>
