<svg width="32" height="32" viewBox="0 0 32 32" fill="none" xmlns="http://www.w3.org/2000/svg">
<path d="M16 32C24.8366 32 32 24.8366 32 16C32 7.16344 24.8366 0 16 0C7.16344 0 0 7.16344 0 16C0 24.8366 7.16344 32 16 32Z" fill="#F0F0F0"/>
<path d="M31.9979 16C31.9979 7.1635 24.8344 0 15.9979 0C12.8679 0 9.94829 0.899687 7.48216 2.45319L10.9892 3.94325L6.25879 5.95312L10.9892 7.96294L6.25879 9.97269L10.9892 11.9824L6.25879 13.9918L10.9892 16.0011L6.25879 18.0109L10.9892 20.0205L6.25879 22.0299L10.9892 24.0396L6.25879 26.0493L10.9892 28.0588L7.48373 29.548C9.94954 31.1008 12.8685 32 15.9979 32C24.8344 32 31.9979 24.8365 31.9979 16Z" fill="#751A46"/>
</svg>
