<svg width="32" height="32" viewBox="0 0 32 32" fill="none" xmlns="http://www.w3.org/2000/svg">
<path d="M16 32C24.8366 32 32 24.8366 32 16C32 7.16344 24.8366 0 16 0C7.16344 0 0 7.16344 0 16C0 24.8366 7.16344 32 16 32Z" fill="#F0F0F0"/>
<path d="M16 0C7.1635 0 0 7.1635 0 16C0 17.9571 0.352063 19.8319 0.995188 21.5652H31.0049C31.648 19.8319 32 17.9571 32 16C32 7.1635 24.8365 0 16 0Z" fill="#0052B4"/>
<path d="M15.999 0C9.11952 0 3.25483 4.342 0.994141 10.4348H31.0038C28.7431 4.342 22.8784 0 15.999 0V0Z" fill="#D80027"/>
<path d="M4.13574 9.04297V17.0246C4.13574 21.5648 10.0671 22.956 10.0671 22.956C10.0671 22.956 15.9983 21.5648 15.9983 17.0246V9.04297H4.13574Z" fill="#D80027"/>
<path d="M6.59082 10.4357H13.5474V7.65303L12.1561 8.34866L10.0691 6.26172L7.98213 8.34866L6.59082 7.65303V10.4357Z" fill="#FFDA44"/>
<path d="M14.6089 18.137L10.0872 13.6152L5.56543 18.137L7.04112 19.6127L10.0872 16.5666L13.1332 19.6127L14.6089 18.137Z" fill="#FFDA44"/>
<path d="M14.6089 13.913H12.4992C12.6178 13.7082 12.6868 13.4711 12.6868 13.2175C12.6868 12.449 12.0639 11.8262 11.2955 11.8262C10.7646 11.8262 10.3035 12.1235 10.0689 12.5607C9.83437 12.1236 9.3733 11.8262 8.84237 11.8262C8.07399 11.8262 7.45105 12.449 7.45105 13.2175C7.45105 13.4711 7.52005 13.7083 7.63868 13.913H5.56543C5.56543 14.6814 6.23474 15.3043 7.00305 15.3043H6.95674C6.95674 16.0727 7.57962 16.6956 8.34805 16.6956C8.34805 17.376 8.83668 17.9412 9.48199 18.0622L8.38574 20.5374C8.91112 20.7509 9.48524 20.8695 10.0872 20.8695C10.6892 20.8695 11.2634 20.7509 11.7887 20.5374L10.6925 18.0622C11.3378 17.9414 11.8264 17.376 11.8264 16.6956C12.5949 16.6956 13.2177 16.0727 13.2177 15.3043H13.1714C13.9397 15.3043 14.6089 14.6814 14.6089 13.913V13.913Z" fill="#F0F0F0"/>
</svg>
