<svg width="32" height="32" viewBox="0 0 32 32" fill="none" xmlns="http://www.w3.org/2000/svg">
<g clip-path="url(#clip0_20142_72564)">
<path d="M27.3141 27.3132C33.3148 21.3125 33.5518 11.7322 28.0275 5.44727L16 15.9989L5.44824 28.0265C11.7332 33.5508 21.3134 33.3138 27.3141 27.3132V27.3132Z" fill="#496E2D"/>
<path d="M4.68584 4.68587C10.6865 -1.31481 20.2668 -1.55175 26.5517 3.97256L15.9999 16.0002L3.97259 26.5518C-1.55178 20.2668 -1.31478 10.6865 4.68584 4.68587V4.68587Z" fill="#0052B4"/>
<path d="M26.5508 3.97266L3.97168 26.5519C4.19993 26.8116 4.43693 27.0663 4.68499 27.3142C4.93299 27.5622 5.1878 27.7992 5.44755 28.0276L28.0266 5.4484C27.7983 5.18865 27.5613 4.9339 27.3132 4.68584C27.0653 4.43797 26.8105 4.20091 26.5508 3.97266V3.97266Z" fill="#FFDA44"/>
<path d="M6.74224 5.56445L7.08767 6.62739H8.20524L7.30111 7.2842L7.64642 8.34713L6.74224 7.69019L5.83805 8.34713L6.18348 7.2842L5.2793 6.62739H6.39692L6.74224 5.56445Z" fill="#F0F0F0"/>
<path d="M12.4502 5.56445L12.7957 6.62739H13.9132L13.0091 7.2842L13.3544 8.34713L12.4502 7.69019L11.5461 8.34713L11.8915 7.2842L10.9873 6.62739H12.1049L12.4502 5.56445Z" fill="#F0F0F0"/>
<path d="M6.74224 11.1289L7.08767 12.1918H8.20524L7.30111 12.8487L7.64642 13.9117L6.74224 13.2547L5.83805 13.9117L6.18348 12.8487L5.2793 12.1918H6.39692L6.74224 11.1289Z" fill="#F0F0F0"/>
<path d="M12.4502 11.1289L12.7957 12.1918H13.9132L13.0091 12.8487L13.3544 13.9117L12.4502 13.2547L11.5461 13.9117L11.8915 12.8487L10.9873 12.1918H12.1049L12.4502 11.1289Z" fill="#F0F0F0"/>
<path d="M9.59581 8.34766L9.94125 9.41059H11.0587L10.1546 10.0675L10.5 11.1304L9.59581 10.4735L8.69162 11.1304L9.037 10.0675L8.13281 9.41059H9.25044L9.59581 8.34766Z" fill="#F0F0F0"/>
</g>
<defs>
<clipPath id="clip0_20142_72564">
<rect width="32" height="32" fill="white"/>
</clipPath>
</defs>
</svg>
