<svg width="32" height="32" viewBox="0 0 32 32" fill="none" xmlns="http://www.w3.org/2000/svg">
<g clip-path="url(#clip0_20142_72572)">
<path d="M1.58763 9.04366C0.5705 11.1472 0 13.507 0 16.0002C0 18.4933 0.5705 20.8532 1.58763 22.9567L16 24.348L30.4124 22.9567C31.4295 20.8532 32 18.4933 32 16.0002C32 13.507 31.4295 11.1472 30.4124 9.04366L16 7.65234L1.58763 9.04366Z" fill="#F0F0F0"/>
<path d="M1.58887 22.957C4.17674 28.309 9.6573 32.0005 16.0007 32.0005C22.3441 32.0005 27.8246 28.309 30.4125 22.957H1.58887Z" fill="black"/>
<path d="M1.58887 9.0435H30.4125C27.8246 3.69156 22.3441 0 16.0007 0C9.6573 0 4.17674 3.69156 1.58887 9.0435Z" fill="#D80027"/>
<path d="M4.6853 4.68555C-1.56307 10.9339 -1.56307 21.0646 4.6853 27.313C7.26737 24.731 9.75068 22.2477 15.9991 15.9993L4.6853 4.68555Z" fill="#496E2D"/>
</g>
<defs>
<clipPath id="clip0_20142_72572">
<rect width="32" height="32" fill="white"/>
</clipPath>
</defs>
</svg>
