<svg width="32" height="32" viewBox="0 0 32 32" fill="none" xmlns="http://www.w3.org/2000/svg">
<path d="M16 32C24.8366 32 32 24.8366 32 16C32 7.16344 24.8366 0 16 0C7.16344 0 0 7.16344 0 16C0 24.8366 7.16344 32 16 32Z" fill="#FFDA44"/>
<path d="M12.5225 13.9131H31.8653C30.8426 6.06262 24.1299 0 16.0007 0C14.8061 0 13.6424 0.132063 12.5225 0.380313V13.9131H12.5225Z" fill="#0052B4"/>
<path d="M8.34714 13.9129V1.94531C3.95377 4.34244 0.808703 8.73937 0.134766 13.9129H8.34714V13.9129Z" fill="#0052B4"/>
<path d="M8.34708 18.0879H0.134766C0.808703 23.2615 3.95377 27.6584 8.34714 30.0555L8.34708 18.0879Z" fill="#0052B4"/>
<path d="M12.5225 18.088V31.6206C13.6424 31.8689 14.8061 32.001 16.0007 32.001C24.1299 32.001 30.8426 25.9383 31.8653 18.0879H12.5225V18.088Z" fill="#0052B4"/>
</svg>
