<svg width="32" height="32" viewBox="0 0 32 32" fill="none" xmlns="http://www.w3.org/2000/svg">
<path d="M16 32C24.8366 32 32 24.8366 32 16C32 7.16344 24.8366 0 16 0C7.16344 0 0 7.16344 0 16C0 24.8366 7.16344 32 16 32Z" fill="#F0F0F0"/>
<path d="M0 16.0001C0 7.1635 7.1635 0 16 0C24.8365 0 32 7.1635 32 16.0001" fill="#D80027"/>
<path d="M9.73934 8.34802C9.73934 6.01689 11.3777 4.06952 13.5654 3.5917C13.2291 3.51833 12.8803 3.47852 12.5219 3.47852C9.83247 3.47852 7.65234 5.65864 7.65234 8.34808C7.65234 11.0375 9.83247 13.2176 12.5219 13.2176C12.8802 13.2176 13.2291 13.1778 13.5654 13.1044C11.3777 12.6266 9.73934 10.6792 9.73934 8.34802V8.34802Z" fill="#F0F0F0"/>
<path d="M16 3.82617L16.3454 4.88899H17.4629L16.5587 5.54592L16.9041 6.60874L16 5.95192L15.0959 6.60874L15.4412 5.54592L14.5371 4.88899H15.6546L16 3.82617Z" fill="#F0F0F0"/>
<path d="M13.2911 5.91406L13.6364 6.97694H14.754L13.8499 7.63381L14.1953 8.69662L13.2911 8.03981L12.3869 8.69662L12.7323 7.63381L11.8281 6.97694H12.9457L13.2911 5.91406Z" fill="#F0F0F0"/>
<path d="M18.7119 5.91406L19.0573 6.97694H20.1748L19.2706 7.63381L19.6161 8.69662L18.7119 8.03981L17.8078 8.69662L18.1531 7.63381L17.249 6.97694H18.3665L18.7119 5.91406Z" fill="#F0F0F0"/>
<path d="M17.6689 9.04297L18.0143 10.1058H19.1318L18.2277 10.7627L18.5731 11.8255L17.6689 11.1687L16.7648 11.8255L17.1102 10.7627L16.2061 10.1058H17.3235L17.6689 9.04297Z" fill="#F0F0F0"/>
<path d="M14.3311 9.04297L14.6764 10.1058H15.794L14.8899 10.7627L15.2353 11.8255L14.3311 11.1687L13.4269 11.8255L13.7723 10.7627L12.8682 10.1058H13.9857L14.3311 9.04297Z" fill="#F0F0F0"/>
</svg>
