<svg width="32" height="32" viewBox="0 0 32 32" fill="none" xmlns="http://www.w3.org/2000/svg">
<path d="M31.787 13.8434C31.7337 13.311 31.6272 12.7785 31.4675 12.2461H0.425913L0.106445 13.8434H31.787Z" fill="white"/>
<path d="M0.160156 18.1035C0.213401 18.636 0.31989 19.1684 0.479624 19.7009H31.5212L31.8407 18.1035H0.160156Z" fill="white"/>
<path d="M9.58464 1.33008L7.9873 2.12875V29.8159C8.51975 30.1354 9.0522 30.4016 9.58464 30.6146V1.33008Z" fill="white"/>
<path d="M13.8447 0.159734V31.8403L15.4421 32V0C14.9096 0 14.3772 0.0532446 13.8447 0.159734Z" fill="white"/>
<path d="M0 15.9735C0 16.719 0.0532446 17.4111 0.159734 18.1033H31.8403C31.9468 17.4111 32 16.719 32 15.9735C32 15.2281 31.9468 14.5359 31.8403 13.8438H0.159734C0.0532446 14.5359 0 15.2281 0 15.9735Z" fill="#0052B4"/>
<path d="M9.58398 30.6161C10.9151 31.2018 12.3527 31.6277 13.8436 31.7874V0.160156C12.3527 0.373135 10.9151 0.745847 9.58398 1.33154V30.6161Z" fill="#0052B4"/>
<path d="M7.98651 12.2454V2.12891C4.25939 4.31193 1.49067 7.93257 0.425781 12.2454H7.98651Z" fill="#D80027"/>
<path d="M7.98651 19.6992V29.8157C4.25939 27.6327 1.49067 24.012 0.425781 19.6992H7.98651Z" fill="#D80027"/>
<path d="M15.9719 0H15.4395V12.2463H31.5193C29.8155 5.21797 23.5326 0 15.9719 0Z" fill="#D80027"/>
<path d="M15.4395 19.6992V31.9455H15.9719C23.5326 31.9455 29.8155 26.7275 31.5193 19.6992H15.4395Z" fill="#D80027"/>
</svg>
