<svg width="32" height="32" viewBox="0 0 32 32" fill="none" xmlns="http://www.w3.org/2000/svg">
<path d="M16 32C24.8366 32 32 24.8366 32 16C32 7.16344 24.8366 0 16 0C7.16344 0 0 7.16344 0 16C0 24.8366 7.16344 32 16 32Z" fill="#F0F0F0"/>
<path d="M16 32.0007C24.8365 32.0007 32 24.8372 32 16.0007C32 14.0436 31.648 12.1688 31.0048 10.4355H0.995188C0.352063 12.1688 0 14.0436 0 16.0007C0 24.8372 7.1635 32.0007 16 32.0007Z" fill="#0052B4"/>
<path d="M15.999 31.9993C22.8784 31.9993 28.7431 27.6573 31.0038 21.5645H0.994141C3.25483 27.6573 9.11952 31.9993 15.999 31.9993Z" fill="#D80027"/>
<path d="M4.1377 9.04297V17.0246C4.1377 21.5648 10.069 22.956 10.069 22.956C10.069 22.956 16.0003 21.5648 16.0003 17.0246V9.04297H4.1377Z" fill="#F0F0F0"/>
<path d="M5.52832 9.04297V17.0246C5.52832 17.5576 5.6467 18.061 5.8812 18.5329H14.2554C14.4899 18.061 14.6083 17.5576 14.6083 17.0246V9.04297H5.52832Z" fill="#D80027"/>
<path d="M12.8523 14.6094H10.7654V13.2181H12.1567V11.8268H10.7654V10.4355H9.37411V11.8268H7.98286V13.2181H9.37411V14.6094H7.28711V16.0007H9.37411V17.392H10.7654V16.0007H12.8523V14.6094Z" fill="#F0F0F0"/>
<path d="M7.77952 20.4752C8.67609 21.0387 9.59721 21.3658 10.0688 21.5113C10.5403 21.3659 11.4615 21.0387 12.358 20.4752C13.2621 19.907 13.896 19.2571 14.2558 18.5331C13.8589 18.2522 13.3746 18.0866 12.8514 18.0866C12.6609 18.0866 12.4758 18.1092 12.2979 18.1506C11.9208 17.2939 11.0649 16.6953 10.0688 16.6953C9.07277 16.6953 8.21677 17.2939 7.83977 18.1506C7.66184 18.1092 7.47671 18.0866 7.28627 18.0866C6.76309 18.0866 6.27877 18.2522 5.88184 18.5331C6.24152 19.2571 6.87534 19.9069 7.77952 20.4752Z" fill="#0052B4"/>
</svg>
