<svg width="32" height="32" viewBox="0 0 32 32" fill="none" xmlns="http://www.w3.org/2000/svg">
<g clip-path="url(#clip0_20142_72584)">
<path d="M16 32C24.8366 32 32 24.8366 32 16C32 7.16344 24.8366 0 16 0C7.16344 0 0 7.16344 0 16C0 24.8366 7.16344 32 16 32Z" fill="#F0F0F0"/>
<path d="M31.0047 10.4355H0.995125C0.352063 12.1689 0 14.0436 0 16.0007C0 17.9579 0.352063 19.8327 0.995125 21.5659H31.0048C31.648 19.8327 32 17.9579 32 16.0007C32 14.0436 31.648 12.1689 31.0047 10.4355Z" fill="#A2001D"/>
<path d="M16.0454 31.9995C21.5255 31.9995 26.3615 29.2437 29.2451 25.043H2.8457C5.72933 29.2437 10.5652 31.9995 16.0454 31.9995Z" fill="#6DA544"/>
<path d="M16.0454 0C21.5255 0 26.3615 2.75575 29.2451 6.9565H2.8457C5.72933 2.75575 10.5652 0 16.0454 0V0Z" fill="#6DA544"/>
<path d="M16.001 10.4355L17.3824 14.6868H21.8527L18.2362 17.3145L19.6176 21.5659L16.001 18.9385L12.3845 21.5659L13.766 17.3145L10.1494 14.6868H14.6197L16.001 10.4355Z" fill="#FFDA44"/>
</g>
<defs>
<clipPath id="clip0_20142_72584">
<rect width="32" height="32" fill="white"/>
</clipPath>
</defs>
</svg>
