<svg width="32" height="32" viewBox="0 0 32 32" fill="none" xmlns="http://www.w3.org/2000/svg">
<g clip-path="url(#clip0_20142_72632)">
<path d="M16 32C24.8366 32 32 24.8366 32 16C32 7.16344 24.8366 0 16 0C7.16344 0 0 7.16344 0 16C0 24.8366 7.16344 32 16 32Z" fill="#F0F0F0"/>
<path d="M30.7525 9.79706C28.3294 4.04138 22.6374 0 16.0007 0C11.5823 0 7.58275 1.79119 4.6875 4.68681L8.69438 9.79706H30.7525Z" fill="black"/>
<path d="M8.73981 22.1445L4.6875 27.3127C7.58275 30.2083 11.5823 31.9995 16.0007 31.9995C22.6598 31.9995 28.3681 27.9312 30.7772 22.1445H8.73981Z" fill="#496E2D"/>
<path d="M3.47754 11.7676V20.1733H31.4481C31.807 18.8426 31.9993 17.4436 31.9993 15.9995C31.9993 14.5343 31.8019 13.1156 31.4329 11.7676H3.47754Z" fill="#A2001D"/>
<path d="M4.6853 4.68555C-1.56307 10.9339 -1.56307 21.0646 4.6853 27.313C7.26737 24.731 9.75068 22.2477 15.9991 15.9993L4.6853 4.68555Z" fill="#0052B4"/>
<path d="M5.21023 12.0215L7.16304 14.7465L10.3585 13.7312L8.37035 16.4308L10.3232 19.156L7.14141 18.0993L5.15316 20.7988L5.17504 17.4461L1.99316 16.3893L5.18841 15.374L5.21023 12.0215Z" fill="#FFDA44"/>
</g>
<defs>
<clipPath id="clip0_20142_72632">
<rect width="32" height="32" fill="white"/>
</clipPath>
</defs>
</svg>
