<svg width="32" height="32" viewBox="0 0 32 32" fill="none" xmlns="http://www.w3.org/2000/svg">
<g clip-path="url(#clip0_20142_72522)">
<path d="M14.608 17.3913C14.608 17.3913 4.69492 4.68406 4.68555 4.68631C7.58092 1.79088 11.581 0 15.9993 0C24.8358 0 31.9993 7.1635 31.9993 16L14.608 17.3913Z" fill="#D80027"/>
<path d="M14.608 16C14.608 16 4.69492 27.3159 4.68555 27.3137C7.58092 30.2091 11.581 32 15.9993 32C24.8358 32 31.9993 24.8365 31.9993 16H14.608Z" fill="#0052B4"/>
<path d="M4.6853 4.68555C-1.56307 10.9339 -1.56307 21.0646 4.6853 27.313C7.26737 24.731 9.75068 22.2477 15.9991 15.9993L4.6853 4.68555Z" fill="#F0F0F0"/>
<path d="M1.75395 16C1.7452 16.1149 1.73926 16.2306 1.73926 16.3477C1.73926 18.845 3.76376 20.8695 6.26101 20.8695C8.75826 20.8695 10.7828 18.845 10.7828 16.3477C10.7828 16.2306 10.7768 16.1148 10.7681 16H1.75395Z" fill="#FFDA44"/>
<path d="M6.26045 13.9135C7.02885 13.9135 7.65177 13.2906 7.65177 12.5222C7.65177 11.7538 7.02885 11.1309 6.26045 11.1309C5.49205 11.1309 4.86914 11.7538 4.86914 12.5222C4.86914 13.2906 5.49205 13.9135 6.26045 13.9135Z" fill="#FFDA44"/>
<path d="M3.12988 12.1738V16.6956C3.12988 19.0918 6.26032 19.826 6.26032 19.826C6.26032 19.826 9.39076 19.0918 9.39076 16.6956V12.1738H3.12988Z" fill="#D80027"/>
<path d="M6.26217 18.3693C5.68142 18.1603 4.52148 17.6261 4.52148 16.6949V13.5645H7.9998V16.6949C7.9998 17.6292 6.83998 18.162 6.26217 18.3693V18.3693Z" fill="#338AF3"/>
<path d="M6.95592 15.3052V14.6095L6.2603 14.2617L5.56461 14.6095V15.3052L5.2168 15.653V17.0443H7.3038V15.653L6.95592 15.3052Z" fill="#F3F3F3"/>
</g>
<defs>
<clipPath id="clip0_20142_72522">
<rect width="32" height="32" fill="white"/>
</clipPath>
</defs>
</svg>
