<svg width="32" height="32" viewBox="0 0 32 32" fill="none" xmlns="http://www.w3.org/2000/svg">
<g clip-path="url(#clip0_20142_72597)">
<path d="M16 32C24.8366 32 32 24.8366 32 16C32 7.16344 24.8366 0 16 0C7.16344 0 0 7.16344 0 16C0 24.8366 7.16344 32 16 32Z" fill="#FFDA44"/>
<path d="M15.9993 0C15.9877 0.000125 15.3037 6.4 15.3037 6.4H28.8001C25.881 2.51394 21.2338 0 15.9993 0Z" fill="#496E2D"/>
<path d="M15.9999 31.9996C21.2344 31.9996 25.8816 29.4857 28.8006 25.5996H3.19922C6.11822 29.4857 10.7654 31.9996 15.9999 31.9996Z" fill="#496E2D"/>
<path d="M31.679 12.8008H15.3037L15.9993 19.2008H31.679C31.889 18.1668 31.9993 17.0967 31.9993 16.0008C31.9993 14.9048 31.8888 13.8347 31.679 12.8008V12.8008Z" fill="#496E2D"/>
<path d="M16 19.2C16 15.8609 16 3.7565 16 0C7.1635 0 0 7.1635 0 16C0 17.0959 0.1105 18.1661 0.320375 19.2H16Z" fill="#D80027"/>
<path d="M8.82808 7.65234L9.86408 10.8408H13.2169L10.5046 12.8116L11.5405 16.0002L8.82808 14.0295L6.1157 16.0002L7.15177 12.8116L4.43945 10.8408H7.79214L8.82808 7.65234Z" fill="#F0F0F0"/>
</g>
<defs>
<clipPath id="clip0_20142_72597">
<rect width="32" height="32" fill="white"/>
</clipPath>
</defs>
</svg>
