<svg width="32" height="32" viewBox="0 0 32 32" fill="none" xmlns="http://www.w3.org/2000/svg">
<g clip-path="url(#clip0_20142_72507)">
<path d="M16 32C24.8366 32 32 24.8366 32 16C32 7.16344 24.8366 0 16 0C7.16344 0 0 7.16344 0 16C0 24.8366 7.16344 32 16 32Z" fill="#FFDA44"/>
<path d="M16.0004 0C12.0831 0 8.49524 1.40856 5.71387 3.74587L22.9569 16L5.71387 28.2541C8.49524 30.5914 12.0831 32 16.0004 32C24.8369 32 32.0004 24.8365 32.0004 16C32.0004 7.1635 24.8369 0 16.0004 0Z" fill="#D80027"/>
<path d="M4.6853 4.68555C-1.56307 10.9339 -1.56307 21.0646 4.6853 27.313C7.26737 24.731 9.75068 22.2477 15.9991 15.9993L4.6853 4.68555Z" fill="black"/>
<path d="M4.43513 12.334L6.87013 14.6385L9.81438 13.0345L8.37532 16.0626L10.8104 18.3672L7.48576 17.9342L6.04651 20.9622L5.43107 17.6665L2.10645 17.2334L5.05057 15.6296L4.43513 12.334Z" fill="#F0F0F0"/>
</g>
<defs>
<clipPath id="clip0_20142_72507">
<rect width="32" height="32" fill="white"/>
</clipPath>
</defs>
</svg>
