<svg width="32" height="32" viewBox="0 0 32 32" fill="none" xmlns="http://www.w3.org/2000/svg">
<g clip-path="url(#clip0_20142_72545)">
<path d="M15.999 0C14.8044 0 13.6407 0.132063 12.5208 0.380313L11.8252 15.9999L12.5208 31.6196C13.6408 31.8679 14.8044 32 15.999 32C24.8356 32 31.999 24.8365 31.999 15.9999C31.9989 7.16344 24.8356 0 15.999 0V0Z" fill="#496E2D"/>
<path d="M4.1729 5.22266C1.58015 8.06616 -0.000976562 11.848 -0.000976562 15.9994C-0.000976562 20.1508 1.58021 23.9327 4.17296 26.7763L4.86859 15.9994L4.1729 5.22266Z" fill="#496E2D"/>
<path d="M23.4009 12.0678C24.1881 9.87364 23.3037 7.48733 21.4058 6.29883C21.7472 6.34327 22.0889 6.42364 22.4262 6.54458C24.9576 7.45283 26.2735 10.2411 25.3652 12.7725C24.457 15.304 21.6687 16.6198 19.1373 15.7115C18.8 15.5905 18.485 15.4352 18.1934 15.2525C20.414 15.5417 22.6137 14.2619 23.4009 12.0678V12.0678Z" fill="#F0F0F0"/>
<path d="M19.0358 5.69727L18.3517 6.58114L17.2999 6.2037L17.9291 7.12732L17.2451 8.01107L18.3179 7.6982L18.9472 8.6217L18.9809 7.5047L20.0538 7.19176L19.002 6.81445L19.0358 5.69727Z" fill="#F0F0F0"/>
<path d="M20.8825 8.57617L20.1985 9.45998L19.1466 9.08255L19.7758 10.0062L19.0918 10.8899L20.1646 10.5769L20.7939 11.5006L20.8277 10.3835L21.9005 10.0705L20.8487 9.69317L20.8825 8.57617Z" fill="#F0F0F0"/>
<path d="M15.779 6.74609L15.0949 7.62984L14.0431 7.25253L14.6723 8.17609L13.9883 9.05991L15.061 8.74697L15.6903 9.67053L15.7242 8.55353L16.797 8.24059L15.7452 7.86316L15.779 6.74609Z" fill="#F0F0F0"/>
<path d="M15.7038 10.0449L15.0198 10.9287L13.968 10.5514L14.5972 11.475L13.9131 12.3587L14.986 12.0459L15.6152 12.9694L15.649 11.8524L16.7219 11.5394L15.67 11.162L15.7038 10.0449Z" fill="#F0F0F0"/>
<path d="M18.8425 11.1719L18.1584 12.0556L17.1066 11.6783L17.7359 12.6019L17.0518 13.4856L18.1247 13.1727L18.7539 14.0963L18.7877 12.9792L19.8606 12.6663L18.8086 12.2889L18.8425 11.1719Z" fill="#F0F0F0"/>
<path d="M4.17383 5.22373V26.7773C6.35383 29.1682 9.24945 30.8947 12.5216 31.6201V0.380859C9.24939 1.10623 6.35389 2.8328 4.17383 5.22373V5.22373Z" fill="#D80027"/>
<path d="M7.35948 8.42363L5.96191 7.38251V5.9102L7.35948 4.86914H9.33604L10.7336 5.9102V7.38251L9.33604 8.42363H7.35948Z" fill="#F0F0F0"/>
<path d="M8.34779 4.86914H7.35948L5.96191 5.9102V6.63002H8.34779V4.86914Z" fill="#FF9811"/>
<path d="M8.34766 8.42305H9.33591L10.7335 7.38192V6.63086H8.34766V8.42305Z" fill="#FF9811"/>
<path d="M7.35948 27.1307L5.96191 26.0895V24.6173L7.35948 23.5762H9.33604L10.7336 24.6173V26.0895L9.33604 27.1307H7.35948Z" fill="#F0F0F0"/>
<path d="M8.34779 23.5762H7.35948L5.96191 24.6173V25.3371H8.34779V23.5762Z" fill="#FF9811"/>
<path d="M8.34766 27.13H9.33591L10.7335 26.0889V25.3379H8.34766V27.13Z" fill="#FF9811"/>
<path d="M7.36143 17.7771L5.96387 16.736V15.2638L7.36143 14.2227H9.33799L10.7356 15.2638V16.736L9.33799 17.7771H7.36143Z" fill="#496E2D"/>
<path d="M10.7836 20.0682H10.1748V19.4595H9.10513L8.34875 18.7031L7.59244 19.4595H6.52275V20.0682H5.91406V21.2856H6.52275V21.8943H7.59237L8.34881 22.6507L9.10513 21.8943H10.1748V21.2856H10.7836V20.0682Z" fill="#496E2D"/>
<path d="M10.7836 10.7147H10.1748V10.106H9.10513L8.34875 9.34961L7.59244 10.106H6.52275V10.7147H5.91406V11.9321H6.52275V12.5408H7.59237L8.34881 13.2973L9.10513 12.5408H10.1748V11.9321H10.7836V10.7147Z" fill="#496E2D"/>
<path d="M7.65234 15.3027H9.04365V16.6941H7.65234V15.3027Z" fill="#D80027"/>
<path d="M8.34797 12.0182C8.73215 12.0182 9.04359 11.7068 9.04359 11.3226C9.04359 10.9384 8.73215 10.627 8.34797 10.627C7.96378 10.627 7.65234 10.9384 7.65234 11.3226C7.65234 11.7068 7.96378 12.0182 8.34797 12.0182Z" fill="#D80027"/>
<path d="M8.34797 21.3717C8.73215 21.3717 9.04359 21.0603 9.04359 20.6761C9.04359 20.2919 8.73215 19.9805 8.34797 19.9805C7.96378 19.9805 7.65234 20.2919 7.65234 20.6761C7.65234 21.0603 7.96378 21.3717 8.34797 21.3717Z" fill="#D80027"/>
</g>
<defs>
<clipPath id="clip0_20142_72545">
<rect width="32" height="32" fill="white"/>
</clipPath>
</defs>
</svg>
