<svg width="32" height="32" viewBox="0 0 32 32" fill="none" xmlns="http://www.w3.org/2000/svg">
<path d="M16 32C24.8366 32 32 24.8366 32 16C32 7.16344 24.8366 0 16 0C7.16344 0 0 7.16344 0 16C0 24.8366 7.16344 32 16 32Z" fill="#D80027"/>
<path d="M15.3463 13.0742L16.6591 14.8833L18.7851 14.1939L17.4703 16.0014L18.7829 17.8104L16.6576 17.1184L15.3428 18.9259L15.3441 16.6908L13.2188 15.9988L15.3449 15.3095L15.3463 13.0742Z" fill="#F0F0F0"/>
<path d="M11.7633 20.5225C9.26605 20.5225 7.24155 18.498 7.24155 16.0008C7.24155 13.5035 9.26605 11.479 11.7633 11.479C12.5419 11.479 13.2745 11.676 13.9142 12.0225C12.9107 11.0412 11.5384 10.4355 10.0242 10.4355C6.95055 10.4355 4.45898 12.9272 4.45898 16.0007C4.45898 19.0743 6.95061 21.5659 10.0242 21.5659C11.5385 21.5659 12.9108 20.9602 13.9142 19.9789C13.2745 20.3256 12.5419 20.5225 11.7633 20.5225V20.5225Z" fill="#F0F0F0"/>
</svg>
