<svg width="32" height="32" viewBox="0 0 32 32" fill="none" xmlns="http://www.w3.org/2000/svg">
<path d="M32 16C32 24.8365 24.8365 32 16 32C7.1635 32 0 24.8365 0 16C5.49563 10.5044 10.1565 5.8435 16 0C24.8365 0 32 7.1635 32 16Z" fill="#D80027"/>
<path d="M16 16C16 7.1635 16 6.12175 16 0C7.1635 0 0 7.1635 0 16H16Z" fill="#0052B4"/>
<path d="M13.914 9.36358L11.9599 10.2828L13.0004 12.1753L10.8786 11.7693L10.6097 13.9128L9.1318 12.3363L7.6538 13.9128L7.38498 11.7693L5.26311 12.1751L6.30361 10.2827L4.34961 9.36358L6.30367 8.44452L5.26311 6.55202L7.38492 6.95795L7.65386 4.81445L9.1318 6.39095L10.6097 4.81445L10.8786 6.95795L13.0005 6.55202L11.9599 8.44458L13.914 9.36358Z" fill="#F0F0F0"/>
<path d="M9.13066 12.3414C10.7755 12.3414 12.109 11.0079 12.109 9.36307C12.109 7.7182 10.7755 6.38477 9.13066 6.38477C7.48578 6.38477 6.15234 7.7182 6.15234 9.36307C6.15234 11.0079 7.48578 12.3414 9.13066 12.3414Z" fill="#0052B4"/>
<path d="M9.13088 10.9513C8.25582 10.9513 7.54395 10.2394 7.54395 9.36434C7.54395 8.48928 8.25588 7.77734 9.13088 7.77734C10.0059 7.77734 10.7179 8.48928 10.7179 9.36434C10.7178 10.2394 10.0058 10.9513 9.13088 10.9513Z" fill="#F0F0F0"/>
</svg>
