<svg width="32" height="32" viewBox="0 0 32 32" fill="none" xmlns="http://www.w3.org/2000/svg">
<g clip-path="url(#clip0_20142_72593)">
<path d="M27.9246 26.6665C30.4585 23.8358 32 20.0981 32 15.9999C32 11.9016 30.4584 8.16395 27.9245 5.3332L16 4.17383L4.0755 5.3332C1.54156 8.16395 0 11.9016 0 15.9999C0 20.0981 1.5415 23.8358 4.07544 26.6665L16 27.826L27.9246 26.6665Z" fill="#FFDA44"/>
<path d="M4.07617 5.33331H27.9252C24.9955 2.06037 20.739 0 16.0007 0C11.2624 0 7.0058 2.06037 4.07617 5.33331Z" fill="black"/>
<path d="M0 15.9994L16 17.3907L32 15.9994C32 14.1291 31.6781 12.3343 31.0882 10.666H0.91175C0.321938 12.3343 0 14.1291 0 15.9994H0Z" fill="#D80027"/>
<path d="M0.91175 21.3333H31.0884C31.6781 19.6651 32 17.8702 32 16H0C0 17.8702 0.321938 19.6651 0.91175 21.3333V21.3333Z" fill="black"/>
<path d="M27.9243 26.666H4.0752C7.00482 29.939 11.2614 31.9994 15.9998 31.9994C20.7381 31.9994 24.9947 29.939 27.9243 26.666Z" fill="#D80027"/>
<path d="M21.3394 15.9993C21.3394 18.9482 18.9492 21.3384 16.0003 21.3384C13.0513 21.3384 10.6611 18.9482 10.6611 15.9993C10.6611 13.0503 13.0513 10.6602 16.0003 10.6602C18.9492 10.6602 21.3394 13.0503 21.3394 15.9993Z" fill="#F0F0F0"/>
<path d="M17.9558 16.2722L15.9999 15.4246C15.9999 15.4246 16.4575 13.9057 16.4819 13.8017C16.4997 13.7258 16.5092 13.6466 16.5092 13.5652C16.5092 13.277 16.3924 13.0162 16.2035 12.8274L16.6954 12.3355C16.3807 12.0209 15.9459 11.8262 15.4656 11.8262C14.9854 11.8262 14.5506 12.0208 14.2359 12.3355L14.7277 12.8274C14.5389 13.0162 14.4221 13.2771 14.4221 13.5652C14.4221 13.6706 14.4381 13.7722 14.4671 13.8681L13.7266 14.6086H15.0726C15.0726 14.6086 14.5161 15.4445 14.2122 16.1309C13.9084 16.8173 14.2164 17.6552 14.9186 17.9674L15.3246 18.1478L15.9999 18.7825V19.4782L15.3042 20.1738H16.6956V18.7825L17.3304 18.1477H18.6434C18.6497 18.1346 18.6563 18.1219 18.6623 18.1085C18.9742 17.4064 18.658 16.5842 17.9558 16.2722Z" fill="black"/>
</g>
<defs>
<clipPath id="clip0_20142_72593">
<rect width="32" height="32" fill="white"/>
</clipPath>
</defs>
</svg>
