<svg width="32" height="32" viewBox="0 0 32 32" fill="none" xmlns="http://www.w3.org/2000/svg">
<path d="M16 32C24.8366 32 32 24.8366 32 16C32 7.16344 24.8366 0 16 0C7.16344 0 0 7.16344 0 16C0 24.8366 7.16344 32 16 32Z" fill="#F0F0F0"/>
<path d="M16 11.8263H31.4488C31.0476 10.3379 30.4379 8.93535 29.6516 7.65234H16V11.8263Z" fill="#338AF3"/>
<path d="M6.04045 28.5216H25.96C27.4202 27.3586 28.6724 25.946 29.6518 24.3477H2.34863C3.32807 25.9459 4.58032 27.3586 6.04045 28.5216V28.5216Z" fill="#338AF3"/>
<path d="M16 0V3.47825H25.9598C23.2267 1.3015 19.7656 0 16 0V0Z" fill="#338AF3"/>
<path d="M16 11.8263H31.4488C31.0476 10.3379 30.4379 8.93535 29.6516 7.65234H16V11.8263Z" fill="#338AF3"/>
<path d="M0 16C0 17.4442 0.1925 18.8431 0.551188 20.1739H31.4489C31.8075 18.8431 32 17.4442 32 16H0Z" fill="#338AF3"/>
<path d="M13.914 9.36358L11.9599 10.2828L13.0004 12.1753L10.8785 11.7694L10.6097 13.9128L9.1318 12.3363L7.6538 13.9128L7.38498 11.7694L5.26311 12.1751L6.30361 10.2827L4.34961 9.36358L6.30367 8.44452L5.26311 6.55202L7.38492 6.95789L7.65386 4.81445L9.1318 6.39095L10.6097 4.81445L10.8785 6.95789L13.0005 6.55202L11.9599 8.44458L13.914 9.36358Z" fill="#FFDA44"/>
</svg>
