<svg width="32" height="32" viewBox="0 0 32 32" fill="none" xmlns="http://www.w3.org/2000/svg">
<path d="M16 0C24.8365 0 32 7.1635 32 16C32 24.8365 24.8365 32 16 32C16 31.3044 13.9131 16 13.9131 16L16 0Z" fill="#F0F0F0"/>
<path d="M16 32C7.1635 32 0 24.8365 0 16C0 7.1635 7.1635 0 16 0" fill="#FFDA44"/>
<path d="M22.1276 13.9238L25.1345 17.9017C24.6608 18.6191 24.6633 19.5856 25.2112 20.3104C25.9062 21.2298 27.215 21.4118 28.1345 20.7168C29.0539 20.0218 29.2359 18.713 28.5408 17.7935C27.993 17.0687 27.0638 16.8027 26.2444 17.0628L21.5581 10.8633L20.4482 11.7023L18.7832 12.9607L20.4612 15.1803L22.1276 13.9238ZM26.4565 18.497C26.763 18.2652 27.1993 18.326 27.431 18.6323C27.6626 18.9388 27.6021 19.3752 27.2956 19.6069C26.9891 19.8385 26.5528 19.778 26.3212 19.4714C26.0894 19.1649 26.1501 18.7286 26.4565 18.497V18.497Z" fill="#ACABB1"/>
<path d="M27.284 15.1785L28.962 12.9588L27.2971 11.7003L26.1873 10.8613L21.501 17.0609C20.6817 16.8008 19.7524 17.0668 19.2045 17.7916C18.5094 18.7111 18.6914 20.0198 19.6108 20.7148C20.5303 21.4098 21.8391 21.2279 22.5341 20.3085C23.082 19.5836 23.0845 18.6171 22.6108 17.8998L25.6177 13.9219L27.284 15.1785ZM21.4242 19.4696C21.1926 19.7761 20.7563 19.8367 20.4498 19.6051C20.1433 19.3733 20.0827 18.937 20.3144 18.6305C20.546 18.3241 20.9823 18.2634 21.2889 18.4951C21.5953 18.7268 21.6559 19.1631 21.4242 19.4696V19.4696Z" fill="#FFDA44"/>
</svg>
