<svg width="32" height="32" viewBox="0 0 32 32" fill="none" xmlns="http://www.w3.org/2000/svg">
<g clip-path="url(#clip0_20142_72590)">
<path d="M30.4124 22.9567C31.4296 20.8532 32 18.4933 32 16.0002C32 13.507 31.4296 11.1472 30.4124 9.04366L16 7.65234L1.58763 9.04366C0.570438 11.1472 0 13.507 0 16.0002C0 18.4933 0.570438 20.8532 1.58763 22.9567L16 24.348L30.4124 22.9567Z" fill="#0052B4"/>
<path d="M15.9993 32.0005C22.3426 32.0005 27.8237 28.309 30.4117 22.957H1.58691C4.17491 28.309 9.65591 32.0005 15.9993 32.0005Z" fill="#D80027"/>
<path d="M27.7095 19.1403L26.8644 19.8007L27.2312 20.8082L26.342 20.2087L25.4969 20.8689L25.7924 19.838L24.9033 19.2382L25.9751 19.2009L26.2709 18.1699L26.6378 19.1777L27.7095 19.1403Z" fill="#F0F0F0"/>
<path d="M25.5467 15.3926L24.9785 16.3021L25.6679 17.1235L24.6272 16.8644L24.0589 17.7737L23.9839 16.7039L22.9434 16.4443L23.9379 16.0425L23.8631 14.9727L24.5524 15.7943L25.5467 15.3926Z" fill="#F0F0F0"/>
<path d="M22.2302 12.6113L22.0073 13.6604L22.9361 14.1966L21.8695 14.3091L21.6465 15.3578L21.2102 14.3782L20.1436 14.4901L20.9407 13.7725L20.5045 12.7929L21.4332 13.329L22.2302 12.6113Z" fill="#F0F0F0"/>
<path d="M18.1641 11.1309L18.3136 12.1929L19.3696 12.379L18.4057 12.8494L18.5551 13.9114L17.8101 13.1399L16.8459 13.61L17.3496 12.663L16.6045 11.8916L17.6607 12.0778L18.1641 11.1309Z" fill="#F0F0F0"/>
<path d="M13.8363 11.1309L14.3399 12.0778L15.3959 11.8915L14.651 12.6632L15.1544 13.6102L14.1905 13.1399L13.4454 13.9112L13.5948 12.8494L12.6309 12.3793L13.687 12.1929L13.8363 11.1309Z" fill="#F0F0F0"/>
<path d="M9.76819 12.6113L10.5653 13.329L11.4939 12.7929L11.0578 13.7729L11.8547 14.4904L10.7882 14.3782L10.3518 15.3578L10.1291 14.3089L9.0625 14.1969L9.99125 13.6605L9.76819 12.6113Z" fill="#F0F0F0"/>
<path d="M6.45297 15.3924L7.44753 15.7942L8.13666 14.9727L8.06209 16.0427L9.05634 16.4445L8.01578 16.7038L7.94084 17.7735L7.37272 16.8642L6.33203 17.1235L7.02141 16.302L6.45297 15.3924Z" fill="#F0F0F0"/>
<path d="M4.28906 19.1402L5.36106 19.1775L5.72769 18.1699L6.02362 19.2009L7.09531 19.2384L6.20619 19.8381L6.50169 20.869L5.65669 20.2087L4.7675 20.8083L5.13431 19.8005L4.28906 19.1402Z" fill="#F0F0F0"/>
<path d="M30.4117 9.0435C27.8237 3.69156 22.3426 0 15.9993 0C9.65591 0 4.17491 3.69156 1.58691 9.0435H30.4117Z" fill="#FFDA44"/>
</g>
<defs>
<clipPath id="clip0_20142_72590">
<rect width="32" height="32" fill="white"/>
</clipPath>
</defs>
</svg>
