<svg width="32" height="32" viewBox="0 0 32 32" fill="none" xmlns="http://www.w3.org/2000/svg">
<g clip-path="url(#clip0_20142_72565)">
<path d="M31.999 15.9993C31.999 15.292 31.9526 14.5955 31.8636 13.9123H13.9119C10.6431 10.6437 4.68505 4.68605 4.6853 4.68555C-1.56307 10.9339 -1.56307 21.0645 4.6853 27.313L13.9121 18.0863H31.8636C31.9525 17.4031 31.999 16.7066 31.999 15.9993V15.9993Z" fill="black"/>
<path d="M31.9954 16.3633C31.9947 16.3942 31.994 16.4252 31.9932 16.456C31.9939 16.425 31.9947 16.3942 31.9954 16.3633Z" fill="#F0F0F0"/>
<path d="M31.9798 16.8008C31.9784 16.8313 31.9762 16.8618 31.9746 16.8923C31.9762 16.8618 31.9782 16.8313 31.9798 16.8008Z" fill="#F0F0F0"/>
<path d="M31.9592 17.1504C31.956 17.1953 31.9528 17.2403 31.9492 17.2851C31.9528 17.2403 31.9559 17.1953 31.9592 17.1504Z" fill="#F0F0F0"/>
<path d="M31.9053 14.2559C31.9111 14.3094 31.917 14.3628 31.9223 14.4164C31.917 14.3627 31.9111 14.3094 31.9053 14.2559Z" fill="#F0F0F0"/>
<path d="M31.9756 15.1074C31.9773 15.1379 31.9793 15.1684 31.9808 15.1989C31.9793 15.1684 31.9773 15.1379 31.9756 15.1074Z" fill="#F0F0F0"/>
<path d="M31.9941 15.543C31.995 15.5738 31.9956 15.6048 31.9964 15.6357C31.9957 15.6047 31.995 15.5738 31.9941 15.543Z" fill="#F0F0F0"/>
<path d="M31.9492 14.7148C31.9528 14.7597 31.956 14.8046 31.9592 14.8495C31.9559 14.8046 31.9528 14.7597 31.9492 14.7148Z" fill="#F0F0F0"/>
<path d="M31.8639 13.913C31.8711 13.9678 31.8775 14.0229 31.8841 14.0778C30.9344 6.14774 24.1853 0 15.9994 0C11.581 0 7.58098 1.79093 4.68555 4.68649L13.912 13.913H31.8639V13.913Z" fill="#D80027"/>
<path d="M31.8639 18.0868H13.912L4.68555 27.3133C7.58098 30.2088 11.581 31.9998 15.9994 31.9998C24.1853 31.9998 30.9345 25.8521 31.8841 17.9219C31.8775 17.9768 31.871 18.0319 31.8639 18.0868V18.0868Z" fill="#6DA544"/>
<path d="M31.9214 17.584C31.916 17.6376 31.9102 17.691 31.9043 17.7445C31.9102 17.691 31.9161 17.6377 31.9214 17.584Z" fill="#F0F0F0"/>
<path d="M31.959 14.8496C31.965 14.9352 31.9705 15.0209 31.9752 15.1069C31.9705 15.0209 31.965 14.9352 31.959 14.8496V14.8496Z" fill="black"/>
<path d="M31.8857 14.0781C31.8929 14.1374 31.8997 14.1969 31.9061 14.2564C31.8996 14.1969 31.8928 14.1375 31.8857 14.0781Z" fill="black"/>
<path d="M31.9209 14.416C31.9306 14.5153 31.9395 14.6149 31.9474 14.7148C31.9395 14.6149 31.9307 14.5153 31.9209 14.416Z" fill="black"/>
<path d="M31.9997 16C31.9997 16.1217 31.9978 16.2429 31.9951 16.3638C31.9978 16.2428 31.9997 16.1216 31.9997 16Z" fill="black"/>
<path d="M31.9743 16.8926C31.9695 16.9785 31.964 17.0643 31.958 17.1498C31.964 17.0643 31.9694 16.9785 31.9743 16.8926Z" fill="black"/>
<path d="M31.9474 17.2852C31.9395 17.385 31.9306 17.4846 31.9209 17.5838C31.9307 17.4846 31.9395 17.385 31.9474 17.2852Z" fill="black"/>
<path d="M31.9061 17.7441C31.8997 17.8036 31.8929 17.863 31.8857 17.9224C31.8928 17.8631 31.8996 17.8036 31.9061 17.7441Z" fill="black"/>
<path d="M31.9951 15.6367C31.9978 15.7577 31.9997 15.879 31.9997 16.0005C31.9997 15.879 31.9978 15.7577 31.9951 15.6367Z" fill="black"/>
<path d="M31.9795 15.1992C31.9851 15.3137 31.9894 15.4287 31.9926 15.5438C31.9894 15.4286 31.9852 15.3137 31.9795 15.1992Z" fill="black"/>
<path d="M31.9936 16.457C31.9903 16.5722 31.9861 16.6871 31.9805 16.8016C31.9862 16.687 31.9904 16.5722 31.9936 16.457Z" fill="black"/>
<path d="M31.9844 15.2982H13.3247L3.7399 5.71484C3.43009 6.04159 3.09428 6.49784 2.88659 6.82278L12.0528 15.9938L2.87891 25.1678C3.06053 25.4909 3.45622 25.9692 3.73403 26.2804L13.3249 16.6895H31.9866C31.9965 16.4588 31.9997 16.227 31.9997 15.9939C31.9996 15.6815 31.991 15.4512 31.9844 15.2982Z" fill="#FFDA44"/>
<path d="M3.88751 19.4112V18.071C5.22488 18.071 6.31282 16.983 6.31282 15.6457C6.31282 14.6995 5.54301 13.9298 4.59689 13.9298C3.95232 13.9298 3.42789 14.4542 3.42789 15.0988C3.42789 15.511 3.7632 15.8464 4.17545 15.8464C4.40845 15.8464 4.59801 15.6567 4.59801 15.4237H5.93813C5.93813 16.3958 5.14738 17.1865 4.17551 17.1865C3.02433 17.1866 2.08789 16.25 2.08789 15.099C2.08789 13.7154 3.21351 12.5898 4.59695 12.5898C6.28207 12.5898 7.65307 13.9608 7.65307 15.6459C7.653 17.722 5.96382 19.4112 3.88751 19.4112V19.4112Z" fill="#FFDA44"/>
</g>
<defs>
<clipPath id="clip0_20142_72565">
<rect width="32" height="32" fill="white"/>
</clipPath>
</defs>
</svg>
