<svg width="32" height="32" viewBox="0 0 32 32" fill="none" xmlns="http://www.w3.org/2000/svg">
<path d="M32 16C32 24.8365 24.8365 32 16 32C7.1635 32 0 24.8365 0 16C5.49563 10.5044 10.1565 5.8435 16 0C24.8365 0 32 7.1635 32 16Z" fill="#D80027"/>
<path d="M16 16C16 7.1635 16 6.12175 16 0C7.1635 0 0 7.1635 0 16H16Z" fill="#0052B4"/>
<path d="M12.8189 10.4355L13.0779 11.2327H13.9161L13.2379 11.7253L13.497 12.5225L12.8189 12.0298L12.1407 12.5225L12.3998 11.7253L11.7217 11.2327H12.5598L12.8189 10.4355Z" fill="#F0F0F0"/>
<path d="M8.6089 4.17383L9.04059 5.50252H10.4376L9.30734 6.32345L9.73915 7.65208L8.6089 6.83089L7.47871 7.65208L7.91046 6.32345L6.78027 5.50252H8.17715L8.6089 4.17383Z" fill="#F0F0F0"/>
<path d="M12.7808 5.56445L13.2125 6.8932H14.6094L13.4792 7.71414L13.9109 9.04277L12.7808 8.22158L11.6506 9.04277L12.0823 7.71414L10.9521 6.8932H12.349L12.7808 5.56445Z" fill="#F0F0F0"/>
<path d="M9.48195 11.1309L9.9137 12.4595H11.3106L10.1804 13.2805L10.6121 14.6091L9.48195 13.788L8.35176 14.6091L8.78351 13.2805L7.65332 12.4595H9.05026L9.48195 11.1309Z" fill="#F0F0F0"/>
<path d="M5.82466 7.65234L6.25641 8.98103H7.65334L6.52309 9.80197L6.95484 11.1306L5.82466 10.3095L4.69453 11.1306L5.12622 9.80197L3.99609 8.98103H5.39297L5.82466 7.65234Z" fill="#F0F0F0"/>
</svg>
