<svg width="32" height="32" viewBox="0 0 32 32" fill="none" xmlns="http://www.w3.org/2000/svg">
<path d="M16 32C24.8366 32 32 24.8366 32 16C32 7.16344 24.8366 0 16 0C7.16344 0 0 7.16344 0 16C0 24.8366 7.16344 32 16 32Z" fill="#0052B4"/>
<path d="M7.0283 9.73828L7.37368 10.8013H8.49118L7.58712 11.4581L7.93243 12.5209L7.0283 11.8641L6.12412 12.5209L6.46955 11.4581L5.56543 10.8013H6.68287L7.0283 9.73828Z" fill="#F0F0F0"/>
<path d="M10.5068 8.69531L10.8521 9.75825H11.9696L11.0656 10.4151L11.4109 11.4779L10.5068 10.8211L9.60263 11.4779L9.94801 10.4151L9.04395 9.75825H10.1614L10.5068 8.69531Z" fill="#F0F0F0"/>
<path d="M13.9853 7.65234L14.3306 8.71528H15.4481L14.5441 9.37215L14.8894 10.435L13.9853 9.77809L13.0811 10.435L13.4265 9.37215L12.5225 8.71528H13.64L13.9853 7.65234Z" fill="#F0F0F0"/>
<path d="M24.9726 9.73828L24.6273 10.8013H23.5098L24.4139 11.4581L24.0685 12.5209L24.9726 11.8641L25.8768 12.5209L25.5314 11.4581L26.4355 10.8013H25.318L24.9726 9.73828Z" fill="#F0F0F0"/>
<path d="M21.4951 8.69531L21.1497 9.75825H20.0322L20.9364 10.4151L20.591 11.4779L21.4951 10.8211L22.3992 11.4779L22.0539 10.4151L22.9579 9.75825H21.8404L21.4951 8.69531Z" fill="#F0F0F0"/>
<path d="M18.0146 7.65234L17.6693 8.71528H16.5518L17.4558 9.37215L17.1105 10.435L18.0146 9.77809L18.9188 10.435L18.5734 9.37215L19.4774 8.71528H18.3599L18.0146 7.65234Z" fill="#F0F0F0"/>
<path d="M18.7821 16.695L15.9994 13.2168L14.6081 13.9124V15.3037L12.5212 16.695H11.1299V18.4925C13.1691 19.3182 14.6081 21.3163 14.6081 23.6516H15.9994V22.2603L17.3908 20.869L18.7821 22.2603L20.1734 20.869V19.4777L21.5647 17.3907L18.7821 16.695Z" fill="#FFDA44"/>
</svg>
