<svg width="32" height="32" viewBox="0 0 32 32" fill="none" xmlns="http://www.w3.org/2000/svg">
<g clip-path="url(#clip0_20142_72608)">
<path d="M16 32C24.8366 32 32 24.8366 32 16C32 7.16344 24.8366 0 16 0C7.16344 0 0 7.16344 0 16C0 24.8366 7.16344 32 16 32Z" fill="#F0F0F0"/>
<path d="M4.6853 27.313C-1.56307 21.0646 -1.56307 10.934 4.6853 4.68555C4.68487 4.68623 13.9121 15.9993 13.9121 15.9993L4.6853 27.313Z" fill="black"/>
<path d="M13.9132 15.9992L2.12216 8.03125C1.7566 8.66669 1.43423 9.32994 1.15723 10.0164L7.12654 15.9993L1.15741 21.9824C1.43416 22.6684 1.75623 23.3312 2.12154 23.9662L13.9132 15.9992Z" fill="#FFDA44"/>
<path d="M31.8662 13.9121H13.9142L4.68773 4.68555C3.69348 5.6798 2.82967 6.80423 2.12367 8.03117L10.0761 15.999L2.12305 23.9659C2.82905 25.1932 3.69323 26.318 4.68773 27.3125L13.9142 18.086H31.8662C31.9551 17.4029 32.0016 16.7064 32.0016 15.999C32.0016 15.2917 31.9551 14.5952 31.8662 13.9121V13.9121Z" fill="#6DA544"/>
<path d="M6.25977 28.6922C8.95783 30.7661 12.3351 31.9999 16.0011 31.9999C23.3936 31.9999 29.614 26.9861 31.45 20.1738H14.7782L6.25977 28.6922Z" fill="#0052B4"/>
<path d="M31.45 11.8261C29.614 5.01381 23.3936 0 16.0011 0C12.3351 0 8.95783 1.23381 6.25977 3.30769L14.7781 11.8261H31.45Z" fill="#D80027"/>
</g>
<defs>
<clipPath id="clip0_20142_72608">
<rect width="32" height="32" fill="white"/>
</clipPath>
</defs>
</svg>
